<?xml version="1.0" encoding="utf-8"?>
<!-- Generator: Adobe Illustrator 24.0.0, SVG Export Plug-In . SVG Version: 6.00 Build 0)  -->
<svg version="1.1" id="taiwan" xmlns="http://www.w3.org/2000/svg" xmlns:xlink="http://www.w3.org/1999/xlink" x="0px" y="0px"
	viewBox="0 0 566.9 850.4" style="enable-background:new 0 0 566.9 850.4;" xml:space="preserve">
	<g>
		<polygon class="st0" points="188.1,414.2 188.1,328.6 238.4,299.8 360,269.6 360,300.5 331,419.6 284.6,463.9 	"/>
		<polygon class="st1" points="342.2,544.4 291.8,499 281,466.5 285.4,468.8 334.9,421.5 364.2,300.9 364.2,267.7 389.5,240 
			472.6,251.7 426.1,338 396.8,464.1 379.5,460.8 355.4,544.4 	"/>
		<polygon class="st2" points="154.4,277.1 189.7,218.3 212.1,252.1 257.4,255.2 260.1,245.7 276.6,246.3 288.1,255.5 356.2,217.2 
			369.5,238.6 382.8,234 385.2,238.7 360.9,265.3 236.6,296.2 196.7,319.1 	"/>
		<polygon class="st1" points="94,363.4 116.8,316 134.9,314.8 152.9,281.5 193,321.2 183.8,326.4 183.8,374.2 	"/>
		<polygon class="st2" points="73.7,441.3 67.4,416.2 92.4,367.1 183.8,378.1 183.8,416.5 207.7,428.8 164.1,424.8 156,413.7 
			127.6,415.1 79.4,445.9 	"/>
		<polygon class="st1" points="161.2,510.2 171.6,485.7 128,464.2 83,498.3 59.7,493.3 62.2,449.6 71.5,444.7 79,450.9 129,418.9 
			153.8,417.7 161.7,428.5 216.9,433.5 256.8,454 212.3,494.7 188,497.4 189.8,515 	"/>
		<polygon class="st2" points="96.1,646 77.4,590 127,589.5 183.7,547.6 194.3,517.6 192.6,500.9 214.3,498.4 260.6,456 275.7,463.8 
			288.1,501.1 288.3,501.3 230.5,580.8 247.1,605.8 247.1,610.6 147.9,608.4 133.9,694.7 	"/>
		<polygon class="st0" points="47.1,530.5 57.6,496.9 84.1,502.5 128.5,468.9 166.3,487.5 155.4,513.2 189.4,518.9 180,545.2 
			125.5,585.6 76.9,586.1 	"/>
		<polygon class="st0" points="210.2,679.5 251.4,613.1 251.4,604.7 235.5,580.9 291.4,504 340.4,548.3 358.6,548.3 382.5,465.4 
			395.6,467.9 347.5,587 276.7,657.1 251,757.5 236.1,759.8 	"/>
		<polygon class="st1" points="218.4,823.4 209.8,834.8 185,732.7 137.5,698.9 151.6,612.4 245.6,614.4 205.6,679 233,764.3 
			251.4,761.4 245.2,840.1 	"/>
		<polygon class="st1" points="214.6,248.4 192.1,214.5 244.7,150.1 270.5,152.5 301.6,196.3 340.9,221.2 288.5,250.7 278.3,242.4 
			256.9,241.6 254.2,251 	"/>
		<polygon class="st2" points="247,146.4 262.8,119 287.3,132 265.9,148.2 	"/>
		<polygon class="st0" points="304.7,193.5 272.9,148.8 271.9,148.7 294.8,131.5 264.7,115.5 273,99.2 295.9,99.2 378.3,184.2 
			358.6,213 357.8,211.7 344.9,219 	"/>
		<polygon class="st1" points="390.4,54.1 414.5,30.7 435.6,73.9 426,86.7 415.8,88.7 	"/>
		<path class="st0" d="M357,132.1l-22.7-78.8l36-13.4l13.1,6.3l-4.7-15L393,10.3l32.7,1.2l30.5,25.2L432,42.5L444,72.7l54.9-22.4
			l21,29l-40.5,9.8l-54.7,55.1l-32.4,12.4L357,132.1z M385,53.7l28.9,39.4l14.7-2.9l11.9-15.9l-24.6-50.5L385,53.7z"/>
		<polygon class="st2" points="437.6,45.2 460.5,39.7 493.4,48.3 446.4,67.5 	"/>
		<polygon class="st3" points="388.5,235.9 385.1,229.1 371.4,233.8 360.9,216.9 382.9,184.9 393.5,160.4 427.1,147.6 481.6,92.6 
			517.5,83.9 473.4,134 493.9,179.3 465.4,246.8 	"/>
		<polygon class="st2" points="297.8,95.3 274.3,95.3 280.5,66.7 329.8,53 353.2,134.4 389.3,159.6 380.3,180.4 	"/>
	</g>
</svg>
