<svg id="圖層_1" data-name="圖層 1" xmlns="http://www.w3.org/2000/svg" viewBox="0 0 389.09 233.5">
  <defs>
    <style>
      .cls-1 {
        fill: #6589a0;
        opacity: 0.5;
        isolation: isolate;
      }

      .cls-2 {
        fill: #f4c474;
      }

      .cls-3 {
        fill: #deac5b;
      }

      .cls-4 {
        fill: #ef98a9;
      }

      .cls-5 {
        fill: #a24e3a;
      }

      .cls-6 {
        fill: #ef884b;
      }

      .cls-7 {
        fill: #df647d;
      }

      .cls-8, .cls-9 {
        fill: #3a4749;
      }

      .cls-9 {
        font-size: 55.2px;
        font-family: MS-UIGothic, MS UI Gothic;
      }
    </style>
  </defs>
  <title>01</title>
  <g>
    <path class="cls-1" d="M127.51,175.82c4.4,9.34,15,14.35,20.11,23.32a27.08,27.08,0,0,1,1.71,3.66c2.12,5.43,2.91,11.42,5.32,16.75,4.51,10,13.51,16,23.85,20.34,7.81,3.27,16.39,5.58,24.35,7.93,20.27,6,40.53,15.33,53.59,31.94,8.71,11.09,13.63,24.65,21.26,36.5s19.59,22.59,33.68,22.47c15.13-.13,27.7-12.55,42.71-14.32,16.12-1.91,31.57,8.76,47.78,7.81,20.61-1.2,35.23-20.06,53.75-29.16,8.89-4.37,18.73-6.47,27.82-10.41a74.6,74.6,0,0,0,26.4-19.26c2.48-2.83,4.84-6.09,5.18-9.85.28-3.24-1-6.41-2.39-9.35-5.22-10.9-12.93-22.07-10.65-34,2.11-11,12.49-21.77,7.14-31.56-3.22-5.9-10.69-7.75-17.34-8.65-13.72-1.85-27.79-2.18-40.94-6.48-9.41-3.09-18.51-8.73-24.22-16.6a31.38,31.38,0,0,1-5-10.45c-1.56-5.94-1.73-13.14-6.79-16.62a14.92,14.92,0,0,0-7.59-2.14c-10-.61-19.9,2.46-29.92,3a40.07,40.07,0,0,1-10.25-.73c-6.68-1.37-12.78-4.64-15.95-10.51-1.86-3.44-2.63-7.62-5.53-10.24-4.91-4.44-11.75-4.7-18.79-3.17-8.72,1.89-17.75,6.51-23.89,9.35l-.61.28c-7.9,3.59-16.62,4.49-25.51,4.43-9.59,0-19.33-1.21-28.47-1.3-.86,0-1.71,0-2.56,0a125.71,125.71,0,0,0-59.28,15.89c-1.21.68-2.41,1.38-3.61,2.09-7,4.12-13.79,8.58-21.41,11.26l-1.65.55c-9.19,2.9-19.31,3.7-27,9.41-3.51,2.6-6.45,6.38-6.75,10.74A14.44,14.44,0,0,0,127.51,175.82Z" transform="translate(-125.97 -105.22)"/>
    <g>
      <path class="cls-2" d="M326.58,144.54a73.61,73.61,0,1,0,73.61,73.6A73.61,73.61,0,0,0,326.58,144.54Zm0,99.26a25.66,25.66,0,1,1,25.65-25.66A25.66,25.66,0,0,1,326.58,243.8Z" transform="translate(-125.97 -105.22)"/>
      <path class="cls-3" d="M262.05,218.14a73.61,73.61,0,0,1,69.07-73.46c-1.5-.09-3-.14-4.54-.14a73.61,73.61,0,1,0,0,147.21c1.53,0,3-.05,4.54-.14A73.61,73.61,0,0,1,262.05,218.14Z" transform="translate(-125.97 -105.22)"/>
      <path class="cls-4" d="M270.32,205a2.27,2.27,0,0,1-1.77-.85l-3.89-4.86a2.27,2.27,0,0,1,3.54-2.84l3.89,4.86a2.27,2.27,0,0,1-1.77,3.69Z" transform="translate(-125.97 -105.22)"/>
      <path class="cls-5" d="M357.89,262.55a2.27,2.27,0,0,1-1.77-.85l-3.89-4.86a2.27,2.27,0,1,1,3.54-2.84l3.89,4.86a2.26,2.26,0,0,1-1.77,3.69Z" transform="translate(-125.97 -105.22)"/>
      <path class="cls-4" d="M388.19,220.58a2.25,2.25,0,0,1-1.77-.86l-3.89-4.86a2.27,2.27,0,0,1,3.54-2.84l3.89,4.87a2.26,2.26,0,0,1-.35,3.19A2.3,2.3,0,0,1,388.19,220.58Z" transform="translate(-125.97 -105.22)"/>
      <path class="cls-5" d="M378.6,257.24a2.25,2.25,0,0,1-2.16-3l1.88-5.94a2.27,2.27,0,1,1,4.33,1.37l-1.88,5.94A2.27,2.27,0,0,1,378.6,257.24Z" transform="translate(-125.97 -105.22)"/>
      <path class="cls-6" d="M279.18,224.21a2.29,2.29,0,0,1-1.6-.66,2.26,2.26,0,0,1,0-3.21l4.39-4.42a2.27,2.27,0,1,1,3.22,3.2l-4.4,4.42A2.27,2.27,0,0,1,279.18,224.21Z" transform="translate(-125.97 -105.22)"/>
      <path class="cls-4" d="M335.69,278.93a2.27,2.27,0,0,1-1.61-3.87l4.39-4.42a2.27,2.27,0,0,1,3.22,3.2l-4.39,4.42A2.31,2.31,0,0,1,335.69,278.93Z" transform="translate(-125.97 -105.22)"/>
      <path class="cls-6" d="M368.17,235.24a2.27,2.27,0,0,1-1-4.3l5.57-2.79a2.27,2.27,0,1,1,2,4.06L369.18,235A2.27,2.27,0,0,1,368.17,235.24Z" transform="translate(-125.97 -105.22)"/>
      <g>
        <path class="cls-5" d="M366,206.65a2.26,2.26,0,0,1-1.94-3.43l3.19-5.35a2.27,2.27,0,0,1,3.9,2.32l-3.2,5.35A2.24,2.24,0,0,1,366,206.65Z" transform="translate(-125.97 -105.22)"/>
        <path class="cls-5" d="M275.93,242.84a2.19,2.19,0,0,1-.83-.16l-5.8-2.28a2.27,2.27,0,0,1,1.67-4.23l5.8,2.29a2.27,2.27,0,0,1-.84,4.38Z" transform="translate(-125.97 -105.22)"/>
      </g>
      <path class="cls-6" d="M316.12,269.56a2.28,2.28,0,0,1-1.56-.61L310,264.68a2.27,2.27,0,1,1,3.11-3.31l4.54,4.27a2.27,2.27,0,0,1-1.55,3.92Z" transform="translate(-125.97 -105.22)"/>
      <g>
        <path class="cls-4" d="M290.07,254.32a2.27,2.27,0,0,1,0-4.54l6.23-.09a2.27,2.27,0,0,1,.07,4.54l-6.23.09Z" transform="translate(-125.97 -105.22)"/>
        <path class="cls-4" d="M326.45,141.29a76.4,76.4,0,0,1,54.47,22.51A99.33,99.33,0,0,1,391,176.88a4.12,4.12,0,0,1-5.41,5.91l-.1-.06h0a16.74,16.74,0,0,0-16.84,0h0a16.74,16.74,0,0,1-16.84,0h0a16.75,16.75,0,0,0-16.85,0h0a16.69,16.69,0,0,1-16.84,0h0a16.75,16.75,0,0,0-16.85,0h0a16.74,16.74,0,0,1-16.84,0h0a16.74,16.74,0,0,0-16.84,0h0l-.1.06a4.12,4.12,0,0,1-5.42-5.91c3.07-4.54,7-9.91,10.13-13.08a76.4,76.4,0,0,1,54.47-22.51Z" transform="translate(-125.97 -105.22)"/>
      </g>
      <g>
        <path class="cls-7" d="M326.45,141.29h0Z" transform="translate(-125.97 -105.22)"/>
        <path class="cls-7" d="M267.63,182.73a16.71,16.71,0,0,1,1.94-1A108.76,108.76,0,0,1,280.41,168a90.35,90.35,0,0,1,54.89-26.18,77,77,0,0,0-63.06,22,99.33,99.33,0,0,0-10.12,13.08,4.12,4.12,0,0,0,5.41,5.91l.1-.06Z" transform="translate(-125.97 -105.22)"/>
      </g>
      <g>
        <path class="cls-8" d="M301.57,169.48a2.27,2.27,0,0,1-2.27-2.27v-4.52a2.27,2.27,0,1,1,4.54,0v4.52A2.26,2.26,0,0,1,301.57,169.48Z" transform="translate(-125.97 -105.22)"/>
        <path class="cls-8" d="M351.59,169.48a2.26,2.26,0,0,1-2.27-2.27v-4.52a2.27,2.27,0,0,1,4.54,0v4.52A2.27,2.27,0,0,1,351.59,169.48Z" transform="translate(-125.97 -105.22)"/>
        <path class="cls-8" d="M326.58,171.9a10.43,10.43,0,0,1-7.88-3.51,2.27,2.27,0,0,1,3.42-3,6.05,6.05,0,0,0,8.92,0,2.27,2.27,0,0,1,3.42,3A10.43,10.43,0,0,1,326.58,171.9Z" transform="translate(-125.97 -105.22)"/>
      </g>
    </g>
    <text class="cls-9" transform="translate(120.03 173.7)"><tspan xml:space="preserve">享   烘</tspan></text>
  </g>
</svg>
