<svg id="圖層_1" data-name="圖層 1" xmlns="http://www.w3.org/2000/svg" viewBox="0 0 389.09 235.7">
  <defs>
    <style>
      .cls-1 {
        fill: #6589a0;
        opacity: 0.5;
        isolation: isolate;
      }

      .cls-2 {
        fill: #f4c474;
      }

      .cls-3 {
        fill: #deac5b;
      }

      .cls-4 {
        fill: #3a4749;
      }

      .cls-5 {
        fill: #a24e3a;
      }

      .cls-6 {
        fill: #933d28;
      }

      .cls-7 {
        fill: #ef884b;
      }

      .cls-8 {
        fill: #dc6a27;
      }

      .cls-9 {
        fill: #f4e164;
      }

      .cls-10 {
        fill: #d2a456;
      }

      .cls-11 {
        fill: #56b7d6;
      }

      .cls-12 {
        fill: #f0f3e4;
      }

      .cls-13 {
        fill: #46abcc;
      }

      .cls-14 {
        fill: #f2bc1a;
      }

      .cls-15 {
        fill: #e95359;
      }

      .cls-16 {
        fill: #51baa8;
      }

      .cls-17 {
        fill: #d14a4e;
      }

      .cls-18 {
        fill: #bbbdb2;
      }

      .cls-19 {
        fill: #ce6325;
      }

      .cls-20 {
        fill: #e28048;
      }
    </style>
  </defs>
  <title>02</title>
  <path class="cls-1" d="M127.51,178c4.4,9.34,15,14.35,20.11,23.32a27.66,27.66,0,0,1,1.71,3.66c2.12,5.43,2.91,11.42,5.32,16.75,4.51,10,13.51,16,23.85,20.34,7.81,3.27,16.39,5.58,24.35,7.93,20.27,6,40.53,15.33,53.59,32,8.71,11.08,13.63,24.64,21.26,36.49s19.59,22.59,33.68,22.47c15.13-.13,27.7-12.55,42.71-14.32,16.12-1.9,31.57,8.76,47.78,7.81,20.61-1.2,35.23-20.06,53.75-29.16,8.89-4.37,18.73-6.47,27.82-10.41a74.6,74.6,0,0,0,26.4-19.26c2.48-2.83,4.84-6.09,5.18-9.85.28-3.24-1-6.41-2.39-9.35-5.22-10.9-12.93-22.07-10.65-34,2.11-11,12.49-21.77,7.14-31.56-3.22-5.9-10.69-7.75-17.34-8.65-13.72-1.85-27.79-2.18-40.94-6.48-9.41-3.09-18.51-8.73-24.22-16.6a31.28,31.28,0,0,1-5-10.45c-1.56-5.94-1.73-13.14-6.79-16.62a14.92,14.92,0,0,0-7.59-2.14c-10-.61-19.9,2.46-29.92,3a40.07,40.07,0,0,1-10.25-.73c-6.68-1.37-12.78-4.64-15.95-10.51-1.86-3.44-2.63-7.62-5.53-10.23-4.91-4.45-11.75-4.71-18.79-3.18-8.72,1.89-17.75,6.51-23.89,9.35l-.61.28c-7.9,3.59-16.62,4.49-25.51,4.43-9.59-.05-19.33-1.21-28.47-1.3h-2.56A124.21,124.21,0,0,0,226,122.87a126.19,126.19,0,0,0-26.79,7.81,124.21,124.21,0,0,0-12.77,6.2c-1.21.68-2.41,1.38-3.61,2.09-7,4.12-13.79,8.58-21.41,11.26l-1.65.55c-9.19,2.9-19.31,3.7-27,9.41-3.51,2.6-6.45,6.38-6.75,10.74A14.44,14.44,0,0,0,127.51,178Z" transform="translate(-125.97 -105.19)"/>
  <g>
    <path class="cls-2" d="M445.24,177.46h0a14.51,14.51,0,0,1-4.1-7.09h0a14.62,14.62,0,0,0-13.25-11.12h0a14.55,14.55,0,0,1-7.69-2.8h0a14.64,14.64,0,0,0-17.3,0h0a14.61,14.61,0,0,1-7.7,2.8h0A14.63,14.63,0,0,0,382,170.37h0a14.51,14.51,0,0,1-4.1,7.09h0a14.64,14.64,0,0,0-3,17h0a14.59,14.59,0,0,1,1.42,8.06h0a14.65,14.65,0,0,0,8.65,15h0a14.53,14.53,0,0,1,6.27,5.26h0a14.64,14.64,0,0,0,16.26,5.92h0a14.62,14.62,0,0,1,8.19,0h0a14.64,14.64,0,0,0,16.26-5.92h0a14.53,14.53,0,0,1,6.27-5.26h0a14.65,14.65,0,0,0,8.65-15h0a14.68,14.68,0,0,1,1.42-8.06h0A14.64,14.64,0,0,0,445.24,177.46Z" transform="translate(-125.97 -105.19)"/>
    <path class="cls-3" d="M397.34,222.81h0a14.53,14.53,0,0,0-6.27-5.26h0a14.65,14.65,0,0,1-8.65-15h0A14.59,14.59,0,0,0,381,194.5h0a14.64,14.64,0,0,1,3-17h0a14.51,14.51,0,0,0,4.1-7.09h0a14.63,14.63,0,0,1,13.25-11.12h0a14.61,14.61,0,0,0,7.7-2.8h0a14.63,14.63,0,0,1,5.57-2.5,14.59,14.59,0,0,0-11.72,2.5h0a14.61,14.61,0,0,1-7.7,2.8h0A14.63,14.63,0,0,0,382,170.37h0a14.51,14.51,0,0,1-4.1,7.09h0a14.64,14.64,0,0,0-3,17h0a14.59,14.59,0,0,1,1.42,8.06h0a14.65,14.65,0,0,0,8.65,15h0a14.53,14.53,0,0,1,6.27,5.26h0A14.63,14.63,0,0,0,406.43,229,14.62,14.62,0,0,1,397.34,222.81Z" transform="translate(-125.97 -105.19)"/>
    <g>
      <path class="cls-4" d="M394.9,193.32a1.15,1.15,0,0,1-1.15-1.15v-3a1.16,1.16,0,1,1,2.31,0v3A1.15,1.15,0,0,1,394.9,193.32Z" transform="translate(-125.97 -105.19)"/>
      <path class="cls-4" d="M428.19,193.32a1.15,1.15,0,0,1-1.16-1.15v-3a1.16,1.16,0,1,1,2.31,0v3A1.15,1.15,0,0,1,428.19,193.32Z" transform="translate(-125.97 -105.19)"/>
      <path class="cls-4" d="M411.55,194.93a6.61,6.61,0,0,1-5-2.21,1.16,1.16,0,0,1,1.74-1.52,4.39,4.39,0,0,0,6.47,0,1.16,1.16,0,0,1,1.74,1.52A6.6,6.6,0,0,1,411.55,194.93Z" transform="translate(-125.97 -105.19)"/>
    </g>
    <path class="cls-5" d="M428.32,168.82l-.89-.41a5.39,5.39,0,0,0-5,.3l-1.58,1a5.38,5.38,0,0,0-2.52,5.6h0a5.4,5.4,0,0,0,5.3,4.4h2.48a5.39,5.39,0,0,0,5.39-5.39v-.55A5.38,5.38,0,0,0,428.32,168.82Z" transform="translate(-125.97 -105.19)"/>
    <path class="cls-6" d="M397.17,170.18l-.44-.23a3.67,3.67,0,0,0-3.68.13l-.89.57a3.66,3.66,0,0,0-.92,5.35l.73.94a3.66,3.66,0,0,0,6.2-.7l.59-1.27A3.66,3.66,0,0,0,397.17,170.18Z" transform="translate(-125.97 -105.19)"/>
    <path class="cls-5" d="M411.18,213.68l-.23.44a3.67,3.67,0,0,0,.13,3.68l.57.89a3.66,3.66,0,0,0,5.35.92l.94-.73a3.66,3.66,0,0,0-.7-6.2l-1.27-.59A3.67,3.67,0,0,0,411.18,213.68Z" transform="translate(-125.97 -105.19)"/>
    <g>
      <path class="cls-6" d="M429.6,208.7l.13.43a3.31,3.31,0,0,0,2.43,2.26l.93.21a3.29,3.29,0,0,0,4-2.82l.13-1.07a3.3,3.3,0,0,0-4.4-3.5l-1.18.43A3.29,3.29,0,0,0,429.6,208.7Z" transform="translate(-125.97 -105.19)"/>
      <path class="cls-6" d="M397.12,206.61l-.91-2.32A4.92,4.92,0,0,0,392,201.2l-1.86-.13a4.9,4.9,0,0,0-4,1.62l-.35.39a4.89,4.89,0,0,0-1,4.69l.57,1.87a4.89,4.89,0,0,0,4.33,3.46l2.55.19a4.9,4.9,0,0,0,4.92-6.68Z" transform="translate(-125.97 -105.19)"/>
    </g>
  </g>
  <g>
    <path class="cls-2" d="M284.41,209.72h0a11.18,11.18,0,0,1-3.13-5.43h0a11.2,11.2,0,0,0-10.15-8.51h0a11.21,11.21,0,0,1-5.89-2.15h0a11.19,11.19,0,0,0-13.24,0h0a11.24,11.24,0,0,1-5.89,2.15h0A11.19,11.19,0,0,0,236,204.29h0a11.25,11.25,0,0,1-3.13,5.43h0a11.18,11.18,0,0,0-2.3,13h0a11.23,11.23,0,0,1,1.09,6.17h0a11.17,11.17,0,0,0,6.62,11.47h0a11.27,11.27,0,0,1,4.8,4h0A11.18,11.18,0,0,0,255.48,249h0a11.33,11.33,0,0,1,6.27,0h0a11.2,11.2,0,0,0,12.45-4.53h0a11.21,11.21,0,0,1,4.8-4h0a11.2,11.2,0,0,0,6.62-11.47h0a11.23,11.23,0,0,1,1.09-6.17h0A11.2,11.2,0,0,0,284.41,209.72Z" transform="translate(-125.97 -105.19)"/>
    <path class="cls-3" d="M247.75,244.43h0a11.27,11.27,0,0,0-4.8-4h0a11.19,11.19,0,0,1-6.63-11.47h0a11.07,11.07,0,0,0-1.09-6.17h0a11.2,11.2,0,0,1,2.3-13h0a11.27,11.27,0,0,0,3.14-5.43h0a11.19,11.19,0,0,1,10.14-8.51h0a11.21,11.21,0,0,0,5.89-2.15h0a11.23,11.23,0,0,1,4.27-1.91,11.19,11.19,0,0,0-9,1.91h0a11.24,11.24,0,0,1-5.89,2.15h0A11.19,11.19,0,0,0,236,204.29h0a11.25,11.25,0,0,1-3.13,5.43h0a11.2,11.2,0,0,0-2.3,13h0a11.23,11.23,0,0,1,1.09,6.17h0a11.17,11.17,0,0,0,6.62,11.47h0a11.27,11.27,0,0,1,4.8,4h0a11.2,11.2,0,0,0,11.67,4.73A11.19,11.19,0,0,1,247.75,244.43Z" transform="translate(-125.97 -105.19)"/>
    <g>
      <path class="cls-4" d="M245.88,221.86A.88.88,0,0,1,245,221v-2.31a.88.88,0,1,1,1.76,0V221A.88.88,0,0,1,245.88,221.86Z" transform="translate(-125.97 -105.19)"/>
      <path class="cls-4" d="M271.36,221.86a.89.89,0,0,1-.89-.88v-2.31a.89.89,0,0,1,1.77,0V221A.89.89,0,0,1,271.36,221.86Z" transform="translate(-125.97 -105.19)"/>
      <path class="cls-4" d="M258.62,223.09a5.06,5.06,0,0,1-3.81-1.69.89.89,0,0,1,1.33-1.17,3.37,3.37,0,0,0,5,0,.89.89,0,0,1,1.33,1.17A5.06,5.06,0,0,1,258.62,223.09Z" transform="translate(-125.97 -105.19)"/>
    </g>
    <path class="cls-5" d="M271.46,203.1l-.68-.31a4.14,4.14,0,0,0-3.84.23l-1.21.73a4.12,4.12,0,0,0-1.92,4.29h0a4.13,4.13,0,0,0,4.05,3.37h1.9a4.13,4.13,0,0,0,4.13-4.13v-.42A4.13,4.13,0,0,0,271.46,203.1Z" transform="translate(-125.97 -105.19)"/>
    <path class="cls-6" d="M247.62,204.15l-.34-.19a2.82,2.82,0,0,0-2.82.11l-.68.43a2.81,2.81,0,0,0-.71,4.1l.56.72a2.81,2.81,0,0,0,4.75-.54l.45-1A2.8,2.8,0,0,0,247.62,204.15Z" transform="translate(-125.97 -105.19)"/>
    <path class="cls-5" d="M258.34,237.44l-.18.34a2.84,2.84,0,0,0,.1,2.82l.43.68a2.81,2.81,0,0,0,4.1.71l.72-.57a2.8,2.8,0,0,0-.53-4.74l-1-.46A2.81,2.81,0,0,0,258.34,237.44Z" transform="translate(-125.97 -105.19)"/>
    <g>
      <path class="cls-6" d="M272.44,233.63l.1.33a2.53,2.53,0,0,0,1.86,1.73l.71.16a2.52,2.52,0,0,0,3.06-2.16l.1-.82a2.52,2.52,0,0,0-3.36-2.68l-.91.33A2.52,2.52,0,0,0,272.44,233.63Z" transform="translate(-125.97 -105.19)"/>
      <path class="cls-6" d="M247.58,232l-.7-1.77a3.75,3.75,0,0,0-3.22-2.37l-1.43-.1a3.73,3.73,0,0,0-3.07,1.24l-.27.3a3.76,3.76,0,0,0-.79,3.59l.44,1.43a3.74,3.74,0,0,0,3.31,2.65l2,.15a3.76,3.76,0,0,0,3.77-5.12Z" transform="translate(-125.97 -105.19)"/>
    </g>
  </g>
  <g>
    <path class="cls-7" d="M281.79,113.76h0A22.07,22.07,0,0,0,274.15,144l38.7,64.82,37.91-22.64-38.7-64.81A22.07,22.07,0,0,0,281.79,113.76Z" transform="translate(-125.97 -105.19)"/>
    <path class="cls-8" d="M316.63,201.29l-38.7-64.82a22,22,0,0,1-2.31-17.24,22.07,22.07,0,0,0-1.47,24.8l38.7,64.82,37.91-22.64-2.33-3.91Z" transform="translate(-125.97 -105.19)"/>
    <path class="cls-2" d="M336.66,145.64s-42.32-7-57.6,30.75v18.82l53.13,7.4,13.68-14.79Z" transform="translate(-125.97 -105.19)"/>
    <path class="cls-3" d="M290.4,182.4c10.19-25.22,30.48-33.69,46.37-36.26l-.11-.5s-42.32-7-57.6,30.75v18.82l11.34,1.58V182.4Z" transform="translate(-125.97 -105.19)"/>
    <path class="cls-7" d="M374,106.47h0a22.08,22.08,0,0,0-28.21,13.4L320.51,191l41.6,14.81,25.32-71.11A22.08,22.08,0,0,0,374,106.47Z" transform="translate(-125.97 -105.19)"/>
    <path class="cls-8" d="M328.07,191l25.33-71.11a22.06,22.06,0,0,1,17-14.35,22.07,22.07,0,0,0-24.57,14.35L320.51,191l41.6,14.81.85-2.39Z" transform="translate(-125.97 -105.19)"/>
    <g>
      <path class="cls-9" d="M367.39,125.16c-6.82-2.43-13.76-.41-15.51,4.5l0,.05a2.61,2.61,0,0,0,3.13,3.35,17,17,0,0,1,17,6.06,2.61,2.61,0,0,0,4.54-.62l0-.05C378.31,133.54,374.2,127.59,367.39,125.16Z" transform="translate(-125.97 -105.19)"/>
      <path class="cls-9" d="M358.54,150c-6.82-2.42-13.76-.41-15.51,4.51l0,0a2.62,2.62,0,0,0,3.13,3.36,16.94,16.94,0,0,1,17,6.05,2.61,2.61,0,0,0,4.54-.62l0,0C369.46,158.39,365.35,152.44,358.54,150Z" transform="translate(-125.97 -105.19)"/>
      <path class="cls-9" d="M292,130.79c-6.22,3.71-9.08,10.35-6.41,14.83l0,0a2.6,2.6,0,0,0,4.57-.28,17,17,0,0,1,15.5-9.26,2.61,2.61,0,0,0,2.42-3.89l0,0C305.37,127.71,298.17,127.08,292,130.79Z" transform="translate(-125.97 -105.19)"/>
    </g>
    <path class="cls-10" d="M385.32,176.39,380,182.14l-7.79-8.34a2.42,2.42,0,0,0-3.53,0l-7.79,8.34-7.78-8.34a2.42,2.42,0,0,0-3.53,0l-7.79,8.34L334,173.8a2.42,2.42,0,0,0-3.53,0l-7.78,8.34-7.79-8.34a2.42,2.42,0,0,0-3.53,0l-7.79,8.34-7.78-8.34a2.42,2.42,0,0,0-3.53,0l-7.79,8.34-5.37-5.75a2.42,2.42,0,0,0-4.18,1.65V281.63a11.43,11.43,0,0,0,11.43,11.43h91.76a11.43,11.43,0,0,0,11.43-11.43V178A2.42,2.42,0,0,0,385.32,176.39Z" transform="translate(-125.97 -105.19)"/>
    <g>
      <path class="cls-4" d="M305,242.58a2.84,2.84,0,0,1-2.83-2.84v-4.92a2.84,2.84,0,1,1,5.67,0v4.92A2.84,2.84,0,0,1,305,242.58Z" transform="translate(-125.97 -105.19)"/>
      <path class="cls-4" d="M359.4,242.58a2.84,2.84,0,0,1-2.84-2.84v-4.92a2.84,2.84,0,1,1,5.67,0v4.92A2.83,2.83,0,0,1,359.4,242.58Z" transform="translate(-125.97 -105.19)"/>
      <path class="cls-4" d="M332.19,245.21a11.74,11.74,0,0,1-8.85-3.94,2.84,2.84,0,0,1,4.27-3.74,6.22,6.22,0,0,0,9.16,0,2.84,2.84,0,0,1,4.27,3.74A11.73,11.73,0,0,1,332.19,245.21Z" transform="translate(-125.97 -105.19)"/>
    </g>
  </g>
  <g>
    <g>
      <path class="cls-11" d="M255.54,261.82h-3.47l-4.35,5.52,3.43,21.51a6.22,6.22,0,0,0,6.15,5.25h1.39l2.56-16.9Z" transform="translate(-125.97 -105.19)"/>
      <path class="cls-11" d="M286.5,261.82H290l4.35,5.52-3.43,21.51a6.22,6.22,0,0,1-6.15,5.25h-1.38l-2.56-16.9Z" transform="translate(-125.97 -105.19)"/>
    </g>
    <g>
      <polygon class="cls-12" points="140.4 188.91 132.72 188.91 128.5 160.52 129.57 156.63 137.8 156.63 145.34 172.78 140.4 188.91"/>
      <polygon class="cls-12" points="149.7 188.91 157.39 188.91 161.61 160.52 160.53 156.63 152.31 156.63 144.77 172.78 149.7 188.91"/>
    </g>
    <polygon class="cls-11" points="137.8 163.17 140.4 188.91 149.7 188.91 152.31 163.17 152.89 156.63 137.8 156.63 137.8 163.17"/>
    <path class="cls-13" d="M254.8,288.85l-3.43-21.51L255.6,262l-.06-.15h-3.47l-4.35,5.52,3.43,21.51a6.22,6.22,0,0,0,6.15,5.25h1.39l.06-.4A6.23,6.23,0,0,1,254.8,288.85Z" transform="translate(-125.97 -105.19)"/>
    <path class="cls-7" d="M271,269.05a5,5,0,0,0,4.91-3.93h0a5,5,0,0,0,9.8,0h0a5,5,0,0,0,4.91,3.93h.2a4.94,4.94,0,0,0,4.68-5.13c-.56-16-12.29-22.85-24.5-22.85s-23.94,6.84-24.49,22.85a4.92,4.92,0,0,0,4.68,5.13h.2a5,5,0,0,0,4.9-3.93h0a5,5,0,0,0,9.81,0h0A5,5,0,0,0,271,269.05Z" transform="translate(-125.97 -105.19)"/>
    <path class="cls-8" d="M250.17,263.92c.53-15.21,11.15-22.14,22.68-22.79q-.92-.06-1.83-.06c-12.2,0-23.94,6.84-24.49,22.85a4.92,4.92,0,0,0,4.68,5.13h.2a5.1,5.1,0,0,0,1.84-.34A5,5,0,0,1,250.17,263.92Z" transform="translate(-125.97 -105.19)"/>
    <g>
      <path class="cls-4" d="M260.55,258.38a.92.92,0,0,1-.92-.91v-1.9a.92.92,0,0,1,1.83,0v1.9A.91.91,0,0,1,260.55,258.38Z" transform="translate(-125.97 -105.19)"/>
      <path class="cls-4" d="M281.5,258.38a.91.91,0,0,1-.91-.91v-1.9a.91.91,0,0,1,1.82,0v1.9A.91.91,0,0,1,281.5,258.38Z" transform="translate(-125.97 -105.19)"/>
      <path class="cls-4" d="M271,259.39a4.34,4.34,0,0,1-3.27-1.45.92.92,0,0,1,.09-1.29.9.9,0,0,1,1.28.09,2.52,2.52,0,0,0,1.9.83,2.49,2.49,0,0,0,1.9-.83.91.91,0,1,1,1.38,1.2A4.36,4.36,0,0,1,271,259.39Z" transform="translate(-125.97 -105.19)"/>
    </g>
    <circle class="cls-14" cx="128.52" cy="141.24" r="2.28"/>
    <circle class="cls-15" cx="121.32" cy="152.72" r="2.28"/>
    <circle class="cls-11" cx="161.59" cy="141.24" r="2.28"/>
    <circle class="cls-16" cx="168.78" cy="152.72" r="2.28"/>
    <path class="cls-17" d="M271,243.47a.91.91,0,0,1-.87-.64,14.52,14.52,0,0,1-.54-3.77c0-2.83,1-5,2.86-6.15a.91.91,0,1,1,1,1.53c-1.34.86-2,2.41-2,4.61a12.9,12.9,0,0,0,.46,3.24.91.91,0,0,1-.6,1.14A.84.84,0,0,1,271,243.47Z" transform="translate(-125.97 -105.19)"/>
    <circle class="cls-15" cx="145.05" cy="137.37" r="3.93"/>
    <path class="cls-18" d="M261,294.1a6.24,6.24,0,0,1-2.33-.45l.07.45Z" transform="translate(-125.97 -105.19)"/>
  </g>
  <g>
    <g>
      <path class="cls-11" d="M237.91,278.16h-3.47l-4.35,5.52,3.43,21.52a6.22,6.22,0,0,0,6.15,5.24h1.38l2.56-16.9Z" transform="translate(-125.97 -105.19)"/>
      <path class="cls-11" d="M268.87,278.16h3.47l4.35,5.52-3.43,21.52a6.22,6.22,0,0,1-6.15,5.24h-1.38l-2.57-16.9Z" transform="translate(-125.97 -105.19)"/>
    </g>
    <g>
      <polygon class="cls-12" points="122.77 205.26 115.08 205.26 110.87 176.86 111.94 172.98 120.16 172.98 127.71 189.12 122.77 205.26"/>
      <polygon class="cls-12" points="132.07 205.26 139.76 205.26 143.97 176.86 142.9 172.98 134.68 172.98 127.13 189.12 132.07 205.26"/>
    </g>
    <polygon class="cls-11" points="120.16 179.51 122.77 205.26 132.07 205.26 134.68 179.51 135.25 172.98 120.16 172.98 120.16 179.51"/>
    <path class="cls-13" d="M237.17,305.2l-3.43-21.52,4.23-5.37-.06-.15h-3.47l-4.35,5.52,3.43,21.52a6.22,6.22,0,0,0,6.15,5.24h1.38l.06-.4A6.21,6.21,0,0,1,237.17,305.2Z" transform="translate(-125.97 -105.19)"/>
    <path class="cls-7" d="M253.39,285.4a5,5,0,0,0,4.9-3.94h0a5,5,0,0,0,9.81,0h0a5,5,0,0,0,4.9,3.94h.2a4.92,4.92,0,0,0,4.68-5.13c-.55-16-12.29-22.85-24.49-22.85s-23.94,6.84-24.5,22.85a4.94,4.94,0,0,0,4.69,5.13h.19a5,5,0,0,0,4.91-3.94h0a5,5,0,0,0,9.8,0h0A5,5,0,0,0,253.39,285.4Z" transform="translate(-125.97 -105.19)"/>
    <path class="cls-8" d="M232.54,280.26c.53-15.21,11.15-22.14,22.67-22.79-.6,0-1.21-.06-1.82-.06-12.2,0-23.94,6.84-24.5,22.85a4.94,4.94,0,0,0,4.69,5.13h.19a5.12,5.12,0,0,0,1.85-.35A5,5,0,0,1,232.54,280.26Z" transform="translate(-125.97 -105.19)"/>
    <g>
      <path class="cls-4" d="M242.91,274.72a.91.91,0,0,1-.91-.91v-1.9a.91.91,0,1,1,1.82,0v1.9A.91.91,0,0,1,242.91,274.72Z" transform="translate(-125.97 -105.19)"/>
      <path class="cls-4" d="M263.87,274.72a.92.92,0,0,1-.92-.91v-1.9a.92.92,0,0,1,1.83,0v1.9A.91.91,0,0,1,263.87,274.72Z" transform="translate(-125.97 -105.19)"/>
      <path class="cls-4" d="M253.39,275.73a4.33,4.33,0,0,1-3.27-1.45.91.91,0,0,1,.08-1.29.92.92,0,0,1,1.29.09,2.59,2.59,0,0,0,3.8,0,.91.91,0,0,1,1.28-.09.92.92,0,0,1,.09,1.29A4.34,4.34,0,0,1,253.39,275.73Z" transform="translate(-125.97 -105.19)"/>
    </g>
    <circle class="cls-14" cx="110.88" cy="157.58" r="2.28"/>
    <circle class="cls-15" cx="103.69" cy="169.06" r="2.28"/>
    <circle class="cls-11" cx="143.96" cy="157.58" r="2.28"/>
    <circle class="cls-16" cx="151.15" cy="169.06" r="2.28"/>
    <path class="cls-17" d="M253.39,259.81a.91.91,0,0,1-.87-.64,14,14,0,0,1-.54-3.77c0-2.83,1-5,2.86-6.15a.91.91,0,1,1,1,1.53c-1.35.86-2,2.41-2,4.61a12.29,12.29,0,0,0,.46,3.24.91.91,0,0,1-.6,1.14A.84.84,0,0,1,253.39,259.81Z" transform="translate(-125.97 -105.19)"/>
    <circle class="cls-15" cx="127.42" cy="153.71" r="3.93"/>
    <path class="cls-18" d="M243.32,310.44A6.29,6.29,0,0,1,241,310l.07.45Z" transform="translate(-125.97 -105.19)"/>
  </g>
  <g>
    <path class="cls-7" d="M406.5,254.94c-6.47-.61-13.91-1-22.45-1.08l-8.38,5.4-1.57-5.46c-8.87,0-16.67.23-23.51.68l-8.95,5.88-1.63-4.9c-28.28,3.56-35.65,13.4-35.65,35.21,0,8.36,34.34,6.91,71.31,6.91S447,299,447,290.67c0-20.62-6.58-30.54-31.2-34.57L408,260.73Z" transform="translate(-125.97 -105.19)"/>
    <path class="cls-8" d="M312.79,290.78c0-15.54,3.2-25.88,13.17-32.54-16.78,5-21.6,14.8-21.6,32.43,0,4,7.86,5.75,20.1,6.49C317.12,296,312.79,294,312.79,290.78Z" transform="translate(-125.97 -105.19)"/>
    <g>
      <path class="cls-4" d="M355.55,287.51a1.73,1.73,0,0,1-.5-1.22v-3.42a1.72,1.72,0,0,1,3.44,0v3.42a1.72,1.72,0,0,1-1.72,1.72A1.75,1.75,0,0,1,355.55,287.51Z" transform="translate(-125.97 -105.19)"/>
      <path class="cls-4" d="M393.36,287.51a1.75,1.75,0,0,1-.5-1.22v-3.42a1.72,1.72,0,0,1,3.44,0v3.42a1.73,1.73,0,0,1-2.94,1.22Z" transform="translate(-125.97 -105.19)"/>
      <path class="cls-4" d="M370.06,287.55c-.12-.12-.24-.24-.35-.37a1.72,1.72,0,0,1,2.59-2.26,4.58,4.58,0,0,0,6.74,0,1.72,1.72,0,0,1,2.43-.16,1.7,1.7,0,0,1,.16,2.42,8,8,0,0,1-11.57.37Z" transform="translate(-125.97 -105.19)"/>
    </g>
    <g>
      <path class="cls-8" d="M415.78,256.1,404.91,274a4.27,4.27,0,1,1-7.3-4.42l8.89-14.68Q411.53,255.41,415.78,256.1Z" transform="translate(-125.97 -105.19)"/>
      <path class="cls-8" d="M384.05,253.86,371.82,274a4.27,4.27,0,1,1-7.3-4.42l9.58-15.82h1.57Q380,253.79,384.05,253.86Z" transform="translate(-125.97 -105.19)"/>
      <path class="cls-8" d="M350.59,254.48,338.73,274a4.27,4.27,0,1,1-7.3-4.42L340,255.46C343.25,255.06,346.77,254.73,350.59,254.48Z" transform="translate(-125.97 -105.19)"/>
    </g>
  </g>
  <g>
    <g>
      <path class="cls-11" d="M269.8,286.32h-3.47L262,291.85l3.43,21.51a6.22,6.22,0,0,0,6.15,5.24h1.38l2.57-16.9Z" transform="translate(-125.97 -105.19)"/>
      <path class="cls-11" d="M300.76,286.32h3.47l4.35,5.53-3.43,21.51A6.22,6.22,0,0,1,299,318.6h-1.38l-2.56-16.9Z" transform="translate(-125.97 -105.19)"/>
    </g>
    <g>
      <polygon class="cls-12" points="154.66 213.42 146.97 213.42 142.76 185.02 143.83 181.14 152.06 181.14 159.6 197.28 154.66 213.42"/>
      <polygon class="cls-12" points="163.96 213.42 171.65 213.42 175.87 185.02 174.79 181.14 166.57 181.14 159.03 197.28 163.96 213.42"/>
    </g>
    <polygon class="cls-11" points="152.06 187.67 154.66 213.42 163.96 213.42 166.57 187.67 167.15 181.14 152.06 181.14 152.06 187.67"/>
    <path class="cls-13" d="M269.06,313.36l-3.43-21.51,4.23-5.37-.06-.16h-3.47L262,291.85l3.43,21.51a6.22,6.22,0,0,0,6.15,5.24h1.38l.07-.4A6.22,6.22,0,0,1,269.06,313.36Z" transform="translate(-125.97 -105.19)"/>
    <path class="cls-7" d="M285.28,293.56a5,5,0,0,0,4.91-3.94h0a5,5,0,0,0,9.8,0h0a5,5,0,0,0,4.91,3.94h.19a4.94,4.94,0,0,0,4.69-5.13c-.56-16-12.3-22.84-24.5-22.84s-23.94,6.83-24.49,22.84a4.92,4.92,0,0,0,4.68,5.13h.2a5,5,0,0,0,4.9-3.94h0a5,5,0,0,0,9.81,0h0A5,5,0,0,0,285.28,293.56Z" transform="translate(-125.97 -105.19)"/>
    <path class="cls-8" d="M264.43,288.42c.53-15.21,11.15-22.14,22.68-22.79-.61,0-1.22-.05-1.83-.05-12.2,0-23.94,6.83-24.49,22.84a4.92,4.92,0,0,0,4.68,5.13h.2a5.1,5.1,0,0,0,1.84-.35A5,5,0,0,1,264.43,288.42Z" transform="translate(-125.97 -105.19)"/>
    <g>
      <path class="cls-4" d="M274.8,282.88a.91.91,0,0,1-.91-.91v-1.89a.92.92,0,1,1,1.83,0V282A.91.91,0,0,1,274.8,282.88Z" transform="translate(-125.97 -105.19)"/>
      <path class="cls-4" d="M295.76,282.88a.91.91,0,0,1-.91-.91v-1.89a.91.91,0,1,1,1.82,0V282A.91.91,0,0,1,295.76,282.88Z" transform="translate(-125.97 -105.19)"/>
      <path class="cls-4" d="M285.28,283.9a4.35,4.35,0,0,1-3.27-1.46.92.92,0,0,1,.09-1.29.9.9,0,0,1,1.28.09,2.52,2.52,0,0,0,1.9.83,2.49,2.49,0,0,0,1.9-.83.92.92,0,0,1,1.29-.09.91.91,0,0,1,.08,1.29A4.3,4.3,0,0,1,285.28,283.9Z" transform="translate(-125.97 -105.19)"/>
    </g>
    <circle class="cls-14" cx="142.77" cy="165.75" r="2.28"/>
    <circle class="cls-15" cx="135.58" cy="177.22" r="2.28"/>
    <circle class="cls-11" cx="175.85" cy="165.75" r="2.28"/>
    <circle class="cls-16" cx="183.04" cy="177.22" r="2.28"/>
    <path class="cls-17" d="M285.28,268a.92.92,0,0,1-.87-.65,14.52,14.52,0,0,1-.54-3.77c0-2.83,1-4.95,2.86-6.15a.91.91,0,0,1,1,1.54c-1.34.85-2,2.4-2,4.6a12.79,12.79,0,0,0,.46,3.24.91.91,0,0,1-.6,1.14A.86.86,0,0,1,285.28,268Z" transform="translate(-125.97 -105.19)"/>
    <circle class="cls-15" cx="159.31" cy="161.88" r="3.93"/>
    <path class="cls-18" d="M275.21,318.6a6.24,6.24,0,0,1-2.33-.45l.06.45Z" transform="translate(-125.97 -105.19)"/>
  </g>
  <g>
    <g>
      <path class="cls-11" d="M442.81,258H440.3l-3.15,4,2.48,15.57a4.51,4.51,0,0,0,4.45,3.79h1l1.86-12.23Z" transform="translate(-125.97 -105.19)"/>
      <path class="cls-11" d="M465.22,258h2.51l3.15,4-2.49,15.57a4.5,4.5,0,0,1-4.45,3.79h-1l-1.85-12.23Z" transform="translate(-125.97 -105.19)"/>
    </g>
    <g>
      <polygon class="cls-12" points="324.68 176.2 319.11 176.2 316.06 155.65 316.84 152.83 322.79 152.83 328.25 164.51 324.68 176.2"/>
      <polygon class="cls-12" points="331.41 176.2 336.97 176.2 340.02 155.65 339.25 152.83 333.3 152.83 327.84 164.51 331.41 176.2"/>
    </g>
    <polygon class="cls-11" points="322.79 157.56 324.68 176.2 331.41 176.2 333.3 157.56 333.71 152.83 322.79 152.83 322.79 157.56"/>
    <path class="cls-13" d="M442.27,277.59,439.79,262l3.06-3.89,0-.11H440.3l-3.15,4,2.48,15.57a4.51,4.51,0,0,0,4.45,3.79h1l.05-.29A4.5,4.5,0,0,1,442.27,277.59Z" transform="translate(-125.97 -105.19)"/>
    <path class="cls-7" d="M454,263.26a3.64,3.64,0,0,0,3.55-2.85h0a3.64,3.64,0,0,0,7.1,0h0a3.64,3.64,0,0,0,3.55,2.85h.14a3.57,3.57,0,0,0,3.39-3.71C471.34,248,462.85,243,454,243s-17.32,4.95-17.73,16.54a3.58,3.58,0,0,0,3.39,3.71h.15a3.64,3.64,0,0,0,3.55-2.85h0a3.63,3.63,0,0,0,7.09,0h0A3.64,3.64,0,0,0,454,263.26Z" transform="translate(-125.97 -105.19)"/>
    <path class="cls-8" d="M438.92,259.54c.39-11,8.07-16,16.41-16.5-.44,0-.88,0-1.32,0-8.83,0-17.32,4.95-17.73,16.54a3.58,3.58,0,0,0,3.39,3.71h.15a3.47,3.47,0,0,0,1.33-.26A3.62,3.62,0,0,1,438.92,259.54Z" transform="translate(-125.97 -105.19)"/>
    <g>
      <path class="cls-4" d="M446.43,255.53a.67.67,0,0,1-.66-.66V253.5a.66.66,0,1,1,1.32,0v1.37A.67.67,0,0,1,446.43,255.53Z" transform="translate(-125.97 -105.19)"/>
      <path class="cls-4" d="M461.6,255.53a.66.66,0,0,1-.66-.66V253.5a.66.66,0,1,1,1.32,0v1.37A.67.67,0,0,1,461.6,255.53Z" transform="translate(-125.97 -105.19)"/>
      <path class="cls-4" d="M454,256.26a3.14,3.14,0,0,1-2.37-1,.65.65,0,0,1,.07-.93.66.66,0,0,1,.93.06,1.81,1.81,0,0,0,1.37.6,1.84,1.84,0,0,0,1.38-.6.66.66,0,1,1,1,.87A3.13,3.13,0,0,1,454,256.26Z" transform="translate(-125.97 -105.19)"/>
    </g>
    <circle class="cls-14" cx="316.07" cy="141.69" r="1.65"/>
    <circle class="cls-15" cx="310.87" cy="150" r="1.65"/>
    <circle class="cls-11" cx="340.01" cy="141.69" r="1.65"/>
    <circle class="cls-16" cx="345.22" cy="150" r="1.65"/>
    <path class="cls-17" d="M454,244.74a.66.66,0,0,1-.63-.46,11.06,11.06,0,0,1-.39-2.74,5,5,0,0,1,2.07-4.45.67.67,0,0,1,.91.2.65.65,0,0,1-.2.91,3.68,3.68,0,0,0-1.46,3.34,9,9,0,0,0,.33,2.34.66.66,0,0,1-.43.83A.69.69,0,0,1,454,244.74Z" transform="translate(-125.97 -105.19)"/>
    <circle class="cls-15" cx="328.04" cy="138.89" r="2.84"/>
    <path class="cls-18" d="M446.72,281.38a4.57,4.57,0,0,1-1.69-.32l.05.32Z" transform="translate(-125.97 -105.19)"/>
  </g>
  <g>
    <g>
      <path class="cls-8" d="M379.87,193.17c-19.63-3.37-35.41,15.42-22.72,18.59s10.29,7.81,16.94,10.4Z" transform="translate(-125.97 -105.19)"/>
      <path class="cls-8" d="M439.78,279.84c-3.78,19.55-26.94,27.68-25.42,14.68s-3.67-12.38-3.74-19.52Z" transform="translate(-125.97 -105.19)"/>
    </g>
    <path class="cls-19" d="M374.09,222.16l5.78-29a27.86,27.86,0,0,0-9.95.09,27.09,27.09,0,0,0-6.11,11.63,23.86,23.86,0,0,0-.44,9C369.23,216.79,368.84,220.11,374.09,222.16Z" transform="translate(-125.97 -105.19)"/>
    <path class="cls-7" d="M397.28,197.35c-17.27-19.47-42.55,16.15-17.44,28.9Z" transform="translate(-125.97 -105.19)"/>
    <path class="cls-19" d="M410.62,275l29.16,4.84a27.91,27.91,0,0,1-3.6,9.28,27.09,27.09,0,0,1-13,1.6,23.89,23.89,0,0,1-8.61-2.78C413.92,281.44,410.67,280.64,410.62,275Z" transform="translate(-125.97 -105.19)"/>
    <path class="cls-7" d="M442,262.07c12.11,23-30.14,34.1-33.2,6.11Z" transform="translate(-125.97 -105.19)"/>
    <g>
      <path class="cls-20" d="M392.12,193.19a24.06,24.06,0,0,0-4.09,3.3c-6,6-10.35,12.35-12.63,18.39a28.61,28.61,0,0,0-1.71,6.86,21.6,21.6,0,0,0,6.15,4.51l17.44-28.9A18.34,18.34,0,0,0,392.12,193.19Z" transform="translate(-125.97 -105.19)"/>
      <path class="cls-20" d="M444.09,268.38a24.25,24.25,0,0,1-4.54,2.65c-7.71,3.49-15.2,5.33-21.66,5.32a28.22,28.22,0,0,1-7-.83,21.77,21.77,0,0,1-2.05-7.34l33.2-6.11A18.7,18.7,0,0,1,444.09,268.38Z" transform="translate(-125.97 -105.19)"/>
    </g>
    <g>
      <path class="cls-8" d="M421.1,206.89s-15.51-19.28-28.73-6.06-18.8,29.44-3.31,36.18Z" transform="translate(-125.97 -105.19)"/>
      <path class="cls-8" d="M441.51,236.42s12.56,21.32-4.48,29-34.19,7.19-35-9.68Z" transform="translate(-125.97 -105.19)"/>
    </g>
    <path class="cls-7" d="M392.44,248.52s6.81,14.63,26.29,3.16,33-15.34,19.5-34.81-21.84-8.24-39.45,5.94S392.44,248.52,392.44,248.52Z" transform="translate(-125.97 -105.19)"/>
    <g>
      <path class="cls-4" d="M399.13,213.05a1.56,1.56,0,0,1,.63-1l3.62-2.5a1.54,1.54,0,0,1,1.75,2.53l-3.62,2.5a1.53,1.53,0,0,1-2.38-1.54Z" transform="translate(-125.97 -105.19)"/>
      <path class="cls-4" d="M426.75,253a1.53,1.53,0,0,1,.64-1l3.61-2.5a1.53,1.53,0,1,1,1.75,2.52l-3.62,2.5a1.54,1.54,0,0,1-2.38-1.54Z" transform="translate(-125.97 -105.19)"/>
      <path class="cls-4" d="M409.67,228.42c0-.2.08-.4.13-.59a1.54,1.54,0,1,1,3,.75,6.56,6.56,0,0,0,5.5,8,1.54,1.54,0,1,1-.35,3.05,9.64,9.64,0,0,1-8.26-11.17Z" transform="translate(-125.97 -105.19)"/>
    </g>
  </g>
</svg>
