<svg id="圖層_1" data-name="圖層 1" xmlns="http://www.w3.org/2000/svg" viewBox="0 0 389.09 233.5">
  <defs>
    <style>
      .cls-1 {
        fill: #6589a0;
        opacity: 0.5;
        isolation: isolate;
      }

      .cls-2 {
        fill: #d4d7ca;
      }

      .cls-3 {
        fill: #f0f3e4;
      }

      .cls-4 {
        fill: #bbbdb2;
      }

      .cls-5 {
        fill: #a24e3a;
      }

      .cls-6 {
        fill: #ddac94;
      }

      .cls-7 {
        fill: #f5bfa8;
      }

      .cls-8 {
        fill: #3a4749;
      }

      .cls-9 {
        fill: #ec7c7f;
      }

      .cls-10 {
        fill: #df647d;
      }

      .cls-11 {
        fill: #ef98a9;
      }

      .cls-12 {
        fill: #c66c7e;
      }
    </style>
  </defs>
  <title>03</title>
  <path class="cls-1" d="M127.51,175.82c4.4,9.34,15,14.35,20.11,23.32a27.08,27.08,0,0,1,1.71,3.66c2.12,5.43,2.91,11.42,5.32,16.75,4.51,10,13.51,16,23.85,20.34,7.81,3.27,16.39,5.58,24.35,7.93,20.27,6,40.53,15.33,53.59,31.94,8.71,11.09,13.63,24.65,21.26,36.5s19.59,22.59,33.68,22.47c15.13-.13,27.7-12.55,42.71-14.32,16.12-1.91,31.57,8.76,47.78,7.81,20.61-1.2,35.23-20.06,53.75-29.16,8.89-4.37,18.73-6.47,27.82-10.41a74.6,74.6,0,0,0,26.4-19.26c2.48-2.83,4.84-6.09,5.18-9.85.28-3.24-1-6.41-2.39-9.35-5.22-10.9-12.93-22.07-10.65-34,2.11-11,12.49-21.77,7.14-31.56-3.22-5.9-10.69-7.75-17.34-8.65-13.72-1.85-27.79-2.18-40.94-6.48-9.41-3.09-18.51-8.73-24.22-16.6a31.38,31.38,0,0,1-5-10.45c-1.56-5.94-1.73-13.14-6.79-16.62a14.92,14.92,0,0,0-7.59-2.14c-10-.61-19.9,2.46-29.92,3a40.07,40.07,0,0,1-10.25-.73c-6.68-1.37-12.78-4.64-15.95-10.51-1.86-3.44-2.63-7.62-5.53-10.24-4.91-4.44-11.75-4.7-18.79-3.17-8.72,1.89-17.75,6.51-23.89,9.35l-.61.28c-7.9,3.59-16.62,4.49-25.51,4.43-9.59,0-19.33-1.21-28.47-1.3-.86,0-1.71,0-2.56,0a125.71,125.71,0,0,0-59.28,15.89c-1.21.68-2.41,1.38-3.61,2.09-7,4.12-13.79,8.58-21.41,11.26l-1.65.55c-9.19,2.9-19.31,3.7-27,9.41-3.51,2.6-6.45,6.38-6.75,10.74A14.44,14.44,0,0,0,127.51,175.82Z" transform="translate(-125.97 -105.22)"/>
  <g>
    <path class="cls-2" d="M270.09,269.07a34.25,34.25,0,0,0-34.25,34.25v8H255l2.91-2.35,2.75,2.35h14.82l30.71-42.27Z" transform="translate(-125.97 -105.22)"/>
    <path class="cls-3" d="M321.75,269.07H306.19l-15.63,12.8-15.08,12.25v17.22h55.7l2.83-2.16,2.83,2.16H356v-8A34.25,34.25,0,0,0,321.75,269.07Z" transform="translate(-125.97 -105.22)"/>
    <path class="cls-4" d="M255,311.34V294.43a2.83,2.83,0,0,1,5.66,0v16.91Z" transform="translate(-125.97 -105.22)"/>
    <g>
      <path class="cls-2" d="M334,291.6a2.83,2.83,0,0,0-2.83,2.83v16.91h5.66V294.43A2.83,2.83,0,0,0,334,291.6Z" transform="translate(-125.97 -105.22)"/>
      <circle class="cls-2" cx="162.64" cy="193.85" r="3.47"/>
      <circle class="cls-2" cx="191.62" cy="193.85" r="3.47"/>
    </g>
    <polygon class="cls-5" points="231.5 102.37 169.95 96.72 108.4 102.37 108.4 128.41 231.5 128.41 231.5 102.37"/>
    <circle class="cls-6" cx="225.2" cy="128.57" r="12.95"/>
    <ellipse class="cls-7" cx="169.95" cy="124.48" rx="56.36" ry="52.4"/>
    <path class="cls-6" d="M250.87,229.71c0-27.17,22.24-49.5,50.71-52.14-1.86-.17-3.75-.26-5.66-.26-27.89,0-51,18.82-55.56,43.55a12.94,12.94,0,0,0,.31,25.88,9.47,9.47,0,0,0,1.87-.17c7.55,20.67,28.59,35.54,53.38,35.54,1.91,0,3.8-.09,5.66-.27C273.11,279.21,250.87,256.87,250.87,229.71Z" transform="translate(-125.97 -105.22)"/>
    <path class="cls-3" d="M340,123.81a24.15,24.15,0,0,0-22,14.24,24.15,24.15,0,0,0-44.05,0,24.15,24.15,0,1,0-39.53,26.54h0v31.72L295.92,202l61.55-5.64V164.59h0A24.15,24.15,0,0,0,340,123.81Z" transform="translate(-125.97 -105.22)"/>
    <path class="cls-2" d="M245.69,196.31V164.59h0a24.15,24.15,0,0,1,11.86-40.11,24.15,24.15,0,0,0-23.18,40.11h0v31.72L295.92,202l5.66-.52Z" transform="translate(-125.97 -105.22)"/>
    <path class="cls-5" d="M295.92,250.31c6.37,8,15.76,4.66,20.71,2.05a1.8,1.8,0,0,0,.17-3.08c-2.83-2-4.49-6.34-6.83-8.53-3.64-3.39-9.92-5.45-14.05-1.71-4.14-3.74-10.41-1.68-14.05,1.71-2.35,2.19-4,6.54-6.84,8.53a1.8,1.8,0,0,0,.17,3.08C280.16,255,289.54,258.27,295.92,250.31Z" transform="translate(-125.97 -105.22)"/>
    <path class="cls-8" d="M327,236.31a2.83,2.83,0,0,1-2.83-2.83v-6a2.83,2.83,0,1,1,5.66,0v6A2.83,2.83,0,0,1,327,236.31Z" transform="translate(-125.97 -105.22)"/>
    <path class="cls-9" d="M331.1,245.19h-8.23a2.83,2.83,0,0,1,0-5.66h8.23a2.83,2.83,0,0,1,0,5.66Z" transform="translate(-125.97 -105.22)"/>
    <path class="cls-8" d="M264.85,236.31a2.83,2.83,0,0,1-2.83-2.83v-6a2.83,2.83,0,0,1,5.66,0v6A2.83,2.83,0,0,1,264.85,236.31Z" transform="translate(-125.97 -105.22)"/>
    <path class="cls-9" d="M269,245.19h-8.22a2.83,2.83,0,0,1,0-5.66H269a2.83,2.83,0,1,1,0,5.66Z" transform="translate(-125.97 -105.22)"/>
    <g>
      <path class="cls-2" d="M295.92,188a2.82,2.82,0,0,1-2.83-2.83V153.58a2.83,2.83,0,1,1,5.66,0v31.59A2.83,2.83,0,0,1,295.92,188Z" transform="translate(-125.97 -105.22)"/>
      <path class="cls-2" d="M267.55,188a2.83,2.83,0,0,1-2.83-2.83V153.58a2.83,2.83,0,1,1,5.66,0v31.59A2.83,2.83,0,0,1,267.55,188Z" transform="translate(-125.97 -105.22)"/>
      <path class="cls-2" d="M324.28,188a2.83,2.83,0,0,1-2.83-2.83V153.58a2.83,2.83,0,0,1,5.66,0v31.59A2.82,2.82,0,0,1,324.28,188Z" transform="translate(-125.97 -105.22)"/>
      <rect class="cls-2" x="108.4" y="91.08" width="123.1" height="11.29"/>
    </g>
    <rect class="cls-4" x="108.4" y="91.08" width="11.32" height="11.29"/>
  </g>
  <g>
    <path class="cls-5" d="M346.39,243.36l-12.46,6.19a76.33,76.33,0,0,1-3,17.16,13.24,13.24,0,0,0,13.28,17q2.22-.09,4.71-.36L374,268.65Z" transform="translate(-125.97 -105.22)"/>
    <path class="cls-5" d="M434,243.36l12.46,6.19a76.33,76.33,0,0,0,3,17.16,13.24,13.24,0,0,1-13.28,17q-2.22-.09-4.71-.36l-25.06-14.73Z" transform="translate(-125.97 -105.22)"/>
  </g>
  <path class="cls-10" d="M366.59,271.46a31.3,31.3,0,0,0-31.31,31.3v7.34h17.51l2.59-3.29L358,310.1h13.54l28.08-38.64Z" transform="translate(-125.97 -105.22)"/>
  <path class="cls-11" d="M413.81,271.46H399.59l-14.29,11.7-13.79,11.2V310.1h50.92l2.59-2.43,2.58,2.43h17.52v-7.34A31.31,31.31,0,0,0,413.81,271.46Z" transform="translate(-125.97 -105.22)"/>
  <polygon class="cls-5" points="320.49 110.04 264.23 104.88 207.97 110.04 207.97 133.85 320.49 133.85 320.49 110.04"/>
  <circle class="cls-6" cx="314.73" cy="133.99" r="11.83"/>
  <ellipse class="cls-7" cx="264.23" cy="130.25" rx="51.52" ry="47.9"/>
  <path class="cls-6" d="M349,235.48c0-24.83,20.33-45.25,46.35-47.66-1.7-.16-3.43-.24-5.17-.24-25.49,0-46.65,17.21-50.79,39.81a11.83,11.83,0,0,0,.29,23.66,8.54,8.54,0,0,0,1.7-.16c6.91,18.89,26.14,32.49,48.8,32.49,1.74,0,3.47-.09,5.17-.24C369.35,280.72,349,260.31,349,235.48Z" transform="translate(-125.97 -105.22)"/>
  <g>
    <path class="cls-5" d="M342.08,202.31l-2.67,25.08s36.82,1.17,50.79-12.13V202.31Z" transform="translate(-125.97 -105.22)"/>
    <path class="cls-5" d="M438.31,202.31H390.2v12.95c14,13.3,50.78,12.12,50.78,12.12Z" transform="translate(-125.97 -105.22)"/>
  </g>
  <path class="cls-3" d="M430.46,138.68a22.06,22.06,0,0,0-20.13,13,22.07,22.07,0,0,0-40.26,0A22.08,22.08,0,1,0,333.93,176h0v29l56.27,5.16L446.46,205V176h0a22.08,22.08,0,0,0-16-37.28Z" transform="translate(-125.97 -105.22)"/>
  <rect class="cls-11" x="207.97" y="99.72" width="112.53" height="10.32"/>
  <g>
    <path class="cls-2" d="M390.2,197.36a2.59,2.59,0,0,1-2.59-2.59V165.9a2.59,2.59,0,1,1,5.17,0v28.87A2.58,2.58,0,0,1,390.2,197.36Z" transform="translate(-125.97 -105.22)"/>
    <path class="cls-2" d="M364.27,197.36a2.59,2.59,0,0,1-2.59-2.59V165.9a2.59,2.59,0,1,1,5.17,0v28.87A2.58,2.58,0,0,1,364.27,197.36Z" transform="translate(-125.97 -105.22)"/>
    <path class="cls-2" d="M416.13,197.36a2.59,2.59,0,0,1-2.59-2.59V165.9a2.59,2.59,0,1,1,5.17,0v28.87A2.58,2.58,0,0,1,416.13,197.36Z" transform="translate(-125.97 -105.22)"/>
  </g>
  <g>
    <path class="cls-10" d="M422.43,310.1V294.64a2.59,2.59,0,0,1,5.17,0V310.1Z" transform="translate(-125.97 -105.22)"/>
    <circle class="cls-10" cx="257.55" cy="193.66" r="3.17"/>
    <circle class="cls-10" cx="284.04" cy="193.66" r="3.17"/>
  </g>
  <path class="cls-8" d="M418.59,241.4a2.59,2.59,0,0,1-2.58-2.59v-5.52a2.59,2.59,0,1,1,5.17,0v5.52A2.59,2.59,0,0,1,418.59,241.4Z" transform="translate(-125.97 -105.22)"/>
  <path class="cls-9" d="M422.36,249.51h-7.53a2.59,2.59,0,0,1,0-5.17h7.53a2.59,2.59,0,0,1,0,5.17Z" transform="translate(-125.97 -105.22)"/>
  <path class="cls-8" d="M361.8,241.4a2.59,2.59,0,0,1-2.59-2.59v-5.52a2.59,2.59,0,1,1,5.18,0v5.52A2.59,2.59,0,0,1,361.8,241.4Z" transform="translate(-125.97 -105.22)"/>
  <path class="cls-9" d="M365.56,249.51H358a2.59,2.59,0,1,1,0-5.17h7.52a2.59,2.59,0,1,1,0,5.17Z" transform="translate(-125.97 -105.22)"/>
  <path class="cls-8" d="M390.2,249.2a9.3,9.3,0,0,1-7-3.13,2.59,2.59,0,1,1,3.9-3.4,4.28,4.28,0,0,0,6.26,0,2.58,2.58,0,1,1,3.89,3.4A9.3,9.3,0,0,1,390.2,249.2Z" transform="translate(-125.97 -105.22)"/>
  <path class="cls-12" d="M358,310.1V294.64a2.59,2.59,0,0,0-5.18,0V310.1Z" transform="translate(-125.97 -105.22)"/>
</svg>
