<svg id="圖層_1" data-name="圖層 1" xmlns="http://www.w3.org/2000/svg" viewBox="0 0 389.09 254.12">
  <defs>
    <style>
      .cls-1 {
        fill: #6589a0;
        opacity: 0.5;
        isolation: isolate;
      }

      .cls-2 {
        fill: #f4c474;
      }

      .cls-3 {
        fill: #ef98a9;
      }

      .cls-4 {
        fill: #87cfea;
      }

      .cls-5 {
        fill: #deac5b;
      }

      .cls-6 {
        fill: #df647d;
      }

      .cls-7 {
        fill: #56b7d6;
      }

      .cls-8 {
        fill: #3a4749;
      }

      .cls-9 {
        fill: #333d3f;
      }

      .cls-10 {
        fill: #d4d7ca;
      }

      .cls-11 {
        fill: #bbbdb2;
      }

      .cls-12 {
        fill: #f0f3e4;
      }

      .cls-13 {
        fill: #afb0a6;
      }

      .cls-14 {
        fill: #46abcc;
      }

      .cls-15 {
        fill: #a3a49a;
      }

      .cls-16 {
        fill: #f4e164;
      }

      .cls-17 {
        fill: #f2bc1a;
      }
    </style>
  </defs>
  <title>04</title>
  <path class="cls-1" d="M127.51,186.05c4.4,9.34,15,14.35,20.11,23.32a27.08,27.08,0,0,1,1.71,3.66c2.12,5.43,2.91,11.42,5.32,16.75,4.51,10,13.51,16,23.85,20.34,7.81,3.27,16.39,5.58,24.35,7.93,20.27,6,40.53,15.32,53.59,31.94,8.71,11.09,13.63,24.65,21.26,36.5s19.59,22.59,33.68,22.47c15.13-.13,27.7-12.55,42.71-14.32,16.12-1.91,31.57,8.76,47.78,7.81,20.61-1.2,35.23-20.06,53.75-29.16,8.89-4.37,18.73-6.47,27.82-10.41a74.6,74.6,0,0,0,26.4-19.26c2.48-2.83,4.84-6.09,5.18-9.85.28-3.24-1-6.41-2.39-9.35-5.22-10.9-12.93-22.08-10.65-34,2.11-11,12.49-21.77,7.14-31.56-3.22-5.9-10.69-7.75-17.34-8.65-13.72-1.85-27.79-2.18-40.94-6.48-9.41-3.09-18.51-8.74-24.22-16.6a31.38,31.38,0,0,1-5-10.45c-1.56-5.94-1.73-13.14-6.79-16.62a14.92,14.92,0,0,0-7.59-2.14c-10-.61-19.9,2.46-29.92,3a40.53,40.53,0,0,1-10.25-.73c-6.68-1.37-12.78-4.64-15.95-10.51-1.86-3.44-2.63-7.62-5.53-10.24-4.91-4.44-11.75-4.7-18.79-3.17-8.72,1.89-17.75,6.51-23.89,9.35l-.61.28c-7.9,3.59-16.62,4.49-25.51,4.43-9.59-.05-19.33-1.21-28.47-1.3h-2.56A124.2,124.2,0,0,0,226,130.93a126.22,126.22,0,0,0-26.79,7.82,124.21,124.21,0,0,0-12.77,6.2c-1.21.68-2.41,1.38-3.61,2.09-7,4.12-13.79,8.58-21.41,11.26l-1.65.55c-9.19,2.9-19.31,3.7-27,9.41-3.51,2.6-6.45,6.38-6.75,10.74A14.44,14.44,0,0,0,127.51,186.05Z" transform="translate(-125.97 -94.84)"/>
  <g>
    <rect class="cls-2" x="126.06" y="82.41" width="144.3" height="116.98"/>
    <g>
      <polygon class="cls-3" points="182.36 45.39 150.66 45.39 134.81 65.49 150.66 82.41 166.51 93.11 182.36 82.41 198.21 69.25 182.36 45.39"/>
      <polygon class="cls-3" points="245.76 45.39 214.06 45.39 198.21 69.25 214.06 82.41 229.91 93.11 245.76 82.41 261.61 65.49 245.76 45.39"/>
    </g>
    <polygon class="cls-4" points="182.36 45.39 182.36 82.41 198.21 93.11 214.06 82.41 214.06 45.39 182.36 45.39"/>
    <path class="cls-5" d="M252,207.05a25.67,25.67,0,0,0,24.6-3.93,25.7,25.7,0,0,0,31.7,0,25.68,25.68,0,0,0,31.7,0,25.68,25.68,0,0,0,31.7,0,25.67,25.67,0,0,0,24.6,3.93v-29.8H252Z" transform="translate(-125.97 -94.84)"/>
    <path class="cls-6" d="M276.63,177.25v5.56a15.85,15.85,0,0,0,15.85,15.85h0a15.85,15.85,0,0,0,15.85-15.85v-5.56Z" transform="translate(-125.97 -94.84)"/>
    <path class="cls-4" d="M250.89,140.23a6,6,0,0,0-6,6v31.07L260.78,188l15.85-10.7v-37Z" transform="translate(-125.97 -94.84)"/>
    <path class="cls-6" d="M371.73,177.25v5.56a15.85,15.85,0,0,1-15.85,15.85h0A15.85,15.85,0,0,1,340,182.81v-5.56Z" transform="translate(-125.97 -94.84)"/>
    <path class="cls-4" d="M397.47,140.23H371.73v37L387.58,188l15.84-10.7V146.18A6,6,0,0,0,397.47,140.23Z" transform="translate(-125.97 -94.84)"/>
    <path class="cls-6" d="M308.53,215.1H274.77a6.88,6.88,0,0,0-6.89,6.89v71.88h47.55V222A6.89,6.89,0,0,0,308.53,215.1Z" transform="translate(-125.97 -94.84)"/>
    <rect class="cls-3" x="152.55" y="130.9" width="26.26" height="68.13"/>
    <path class="cls-4" d="M371.32,215.1H338.67a5.84,5.84,0,0,0-5.84,5.84v27.63h44.33V220.94A5.83,5.83,0,0,0,371.32,215.1Z" transform="translate(-125.97 -94.84)"/>
    <path class="cls-7" d="M348.6,215.1h-9.93a5.84,5.84,0,0,0-5.84,5.84v27.63h9.93V220.94A5.83,5.83,0,0,1,348.6,215.1Z" transform="translate(-125.97 -94.84)"/>
    <path class="cls-3" d="M377.16,242.66H332.83a5.8,5.8,0,0,0-5.8,5.8v6H383v-6A5.79,5.79,0,0,0,377.16,242.66Z" transform="translate(-125.97 -94.84)"/>
    <path class="cls-6" d="M342.76,242.66h-9.93a5.8,5.8,0,0,0-5.8,5.8v6H337v-6A5.8,5.8,0,0,1,342.76,242.66Z" transform="translate(-125.97 -94.84)"/>
    <g>
      <path class="cls-7" d="M308.33,177.25v5.56a15.85,15.85,0,0,0,15.85,15.85h0A15.85,15.85,0,0,0,340,182.81v-5.56Z" transform="translate(-125.97 -94.84)"/>
      <path class="cls-7" d="M244.93,177.25v5.56a15.85,15.85,0,0,0,15.85,15.85h0a15.85,15.85,0,0,0,15.85-15.85v-5.56Z" transform="translate(-125.97 -94.84)"/>
      <path class="cls-7" d="M403.42,177.25v5.56a15.85,15.85,0,0,1-15.84,15.85h0a15.85,15.85,0,0,1-15.85-15.85v-5.56Z" transform="translate(-125.97 -94.84)"/>
    </g>
    <path class="cls-4" d="M396.33,286.42H252a10.09,10.09,0,0,0-10.09,10.09v4.81H406.42v-4.81A10.09,10.09,0,0,0,396.33,286.42Z" transform="translate(-125.97 -94.84)"/>
    <path class="cls-7" d="M262,286.42H252a10.09,10.09,0,0,0-10.09,10.09v4.81h9.93v-4.81A10.09,10.09,0,0,1,262,286.42Z" transform="translate(-125.97 -94.84)"/>
  </g>
  <g>
    <path class="cls-8" d="M413.25,206.5H398.2a2.21,2.21,0,0,0-2.06,3c2.08,5.17,1.78,13.1,1.78,13.1h15.62s-.31-7.93,1.78-13.1A2.21,2.21,0,0,0,413.25,206.5Z" transform="translate(-125.97 -94.84)"/>
    <path class="cls-9" d="M401.65,209.52a2.21,2.21,0,0,1,2.06-3H398.2a2.21,2.21,0,0,0-2.06,3c2.08,5.17,1.78,13.1,1.78,13.1h5.51S403.73,214.69,401.65,209.52Z" transform="translate(-125.97 -94.84)"/>
    <path class="cls-10" d="M360.62,232.21S371.1,217,405.73,217s45.1,15.22,45.1,15.22l-45.1,7.86Z" transform="translate(-125.97 -94.84)"/>
    <path class="cls-11" d="M374.4,232.21s9.07-13.17,38.21-15c-2.18-.14-4.47-.22-6.88-.22-34.63,0-45.11,15.22-45.11,15.22l45.11,7.86,6.88-1.2Z" transform="translate(-125.97 -94.84)"/>
    <path class="cls-8" d="M468.81,255.29a5.36,5.36,0,0,1,5.37,5.37v1.06a5.37,5.37,0,0,1-5.37,5.37H452.64v-11.8Z" transform="translate(-125.97 -94.84)"/>
    <rect class="cls-9" x="326.67" y="160.45" width="13.79" height="11.8"/>
    <path class="cls-8" d="M342.64,255.29a5.37,5.37,0,0,0-5.37,5.37v1.06a5.38,5.38,0,0,0,5.37,5.37h16.17v-11.8Z" transform="translate(-125.97 -94.84)"/>
    <rect class="cls-9" x="219.05" y="160.45" width="13.79" height="11.8"/>
    <path class="cls-10" d="M351.9,240.07v74a14.7,14.7,0,0,0,14.7,14.7h78.25a14.7,14.7,0,0,0,14.7-14.7v-74Z" transform="translate(-125.97 -94.84)"/>
    <path class="cls-11" d="M365.68,314v-74H351.9v74a14.7,14.7,0,0,0,14.7,14.7h13.77A14.7,14.7,0,0,1,365.68,314Z" transform="translate(-125.97 -94.84)"/>
    <g>
      <path class="cls-8" d="M380.1,284.4a2.07,2.07,0,0,1-2.07-2.07V277.7a2.07,2.07,0,1,1,4.13,0v4.63A2.07,2.07,0,0,1,380.1,284.4Z" transform="translate(-125.97 -94.84)"/>
      <path class="cls-8" d="M431.35,284.4a2.07,2.07,0,0,1-2.06-2.07V277.7a2.07,2.07,0,1,1,4.13,0v4.63A2.07,2.07,0,0,1,431.35,284.4Z" transform="translate(-125.97 -94.84)"/>
      <path class="cls-8" d="M405.73,286.88a10.4,10.4,0,0,1-7.88-3.51,2.07,2.07,0,1,1,3.11-2.72,6.49,6.49,0,0,0,9.54,0,2.07,2.07,0,0,1,3.11,2.72A10.43,10.43,0,0,1,405.73,286.88Z" transform="translate(-125.97 -94.84)"/>
      <path class="cls-8" d="M463.67,243.08h0a13,13,0,0,0-12.84-10.87H360.62a13,13,0,0,0-12.83,10.87h0a4.16,4.16,0,0,0,4.11,4.86H459.55A4.17,4.17,0,0,0,463.67,243.08Z" transform="translate(-125.97 -94.84)"/>
    </g>
    <path class="cls-9" d="M361.56,243.08h0a13,13,0,0,1,12.84-10.87H360.62a13,13,0,0,0-12.83,10.87h0a4.16,4.16,0,0,0,4.11,4.86h13.78A4.17,4.17,0,0,1,361.56,243.08Z" transform="translate(-125.97 -94.84)"/>
  </g>
  <path class="cls-12" d="M297.46,306.4c12.15-12.15,8-29.36,8-29.36l-22.68-3.51L260.09,277s-4.16,17.21,8,29.36l14.69,3.87Z" transform="translate(-125.97 -94.84)"/>
  <g>
    <path class="cls-10" d="M274.17,306.4c-12.15-12.15-8-29.36-8-29.36l19.64-3-3.05-.47L260.09,277s-4.16,17.21,8,29.36l14.69,3.87,3.05-.81Z" transform="translate(-125.97 -94.84)"/>
    <rect class="cls-10" x="153.43" y="147.5" width="6.74" height="31.19"/>
  </g>
  <rect class="cls-13" x="153.43" y="147.5" width="3.05" height="31.19"/>
  <path class="cls-4" d="M265.52,238.13v3.46a6.79,6.79,0,0,0,6.79,6.79h20.92a6.79,6.79,0,0,0,6.8-6.79v-3.46Z" transform="translate(-125.97 -94.84)"/>
  <path class="cls-14" d="M271.61,241.59v-3.46h-6.09v3.46a6.79,6.79,0,0,0,6.79,6.79h6.09A6.79,6.79,0,0,1,271.61,241.59Z" transform="translate(-125.97 -94.84)"/>
  <path class="cls-7" d="M285.94,216.63H227.59a16.75,16.75,0,0,0-16.76,16.75h0a16.76,16.76,0,0,0,16.76,16.76h16a9.59,9.59,0,0,0,7.44-3.55h0a11.48,11.48,0,0,1,8.92-4.25h41.78a3.73,3.73,0,0,0,3.74-3.74v-2.46A19.51,19.51,0,0,0,285.94,216.63Z" transform="translate(-125.97 -94.84)"/>
  <path class="cls-14" d="M216.93,233.38h0a16.75,16.75,0,0,1,16.75-16.75h-6.09a16.75,16.75,0,0,0-16.76,16.75h0a16.76,16.76,0,0,0,16.76,16.76h6.09A16.75,16.75,0,0,1,216.93,233.38Z" transform="translate(-125.97 -94.84)"/>
  <g>
    <path class="cls-8" d="M271,232.76a1.52,1.52,0,0,1-1.52-1.52v-2.13a1.52,1.52,0,0,1,3,0v2.13A1.52,1.52,0,0,1,271,232.76Z" transform="translate(-125.97 -94.84)"/>
    <path class="cls-8" d="M294.52,232.76a1.52,1.52,0,0,1-1.53-1.52v-2.13a1.53,1.53,0,0,1,3.05,0v2.13A1.52,1.52,0,0,1,294.52,232.76Z" transform="translate(-125.97 -94.84)"/>
    <path class="cls-8" d="M282.77,233.9a5.33,5.33,0,0,1-4-1.81,1.52,1.52,0,1,1,2.29-2,2.39,2.39,0,0,0,3.5,0,1.52,1.52,0,0,1,2.3,2A5.35,5.35,0,0,1,282.77,233.9Z" transform="translate(-125.97 -94.84)"/>
  </g>
  <path class="cls-4" d="M245.91,251.41a10.93,10.93,0,0,0-10.77-9.07h0a10.93,10.93,0,0,0-10.77,9.07l-9.53,55,20.3,3.87,20.3-3.87Z" transform="translate(-125.97 -94.84)"/>
  <circle class="cls-12" cx="109.17" cy="158.88" r="3.44"/>
  <path class="cls-13" d="M292.9,279.07a24.21,24.21,0,0,0-3.13-6.51,1.52,1.52,0,0,0-1.23-.63H277a1.53,1.53,0,0,0-1.23.63,24.55,24.55,0,0,0-3.13,6.51c-1.58,5.12-1.09,9.91,1.44,13.86a10.38,10.38,0,0,0,8.69,5.18h0a10.4,10.4,0,0,0,8.7-5.18C294,289,294.49,284.19,292.9,279.07Zm-10.13,15.29c-2.65-3.21-3.36-7.32-2.11-12.25a26.74,26.74,0,0,1,2.11-5.53,27,27,0,0,1,2.1,5.45C286.14,287,285.44,291.14,282.77,294.36Zm-6.12-3.07c-4.18-6.54-.18-14.11,1.18-16.31h2.34a30.06,30.06,0,0,0-2.44,6.29c-1.19,4.61-.88,8.76.87,12.24A9,9,0,0,1,276.65,291.29Zm12.25,0a9.23,9.23,0,0,1-2,2.22c1.75-3.48,2.06-7.63.88-12.24a30,30,0,0,0-2.45-6.29h2.35C289.08,277.18,293.09,284.72,288.9,291.29Z" transform="translate(-125.97 -94.84)"/>
  <path class="cls-4" d="M305.45,270H260.09a3.51,3.51,0,0,0-3.51,3.51h0a3.51,3.51,0,0,0,3.51,3.51h45.36a3.51,3.51,0,0,0,3.51-3.51h0A3.51,3.51,0,0,0,305.45,270Z" transform="translate(-125.97 -94.84)"/>
  <g>
    <path class="cls-7" d="M262.67,273.53h0a3.51,3.51,0,0,1,3.51-3.51h-6.09a3.51,3.51,0,0,0-3.51,3.51h0a3.51,3.51,0,0,0,3.51,3.51h6.09A3.51,3.51,0,0,1,262.67,273.53Z" transform="translate(-125.97 -94.84)"/>
    <path class="cls-7" d="M308.79,312l-1.34-2.45a6,6,0,0,0-5.3-3.15H214.84a6,6,0,0,0-5.3,3.15L208.2,312a1.44,1.44,0,0,0,1.26,2.13h98.07A1.44,1.44,0,0,0,308.79,312Z" transform="translate(-125.97 -94.84)"/>
  </g>
  <path class="cls-14" d="M214.29,312l1.34-2.45a6,6,0,0,1,5.3-3.15h-6.09a6,6,0,0,0-5.3,3.15L208.2,312a1.44,1.44,0,0,0,1.26,2.13h6.1A1.44,1.44,0,0,1,214.29,312Z" transform="translate(-125.97 -94.84)"/>
  <g>
    <path class="cls-11" d="M396.28,196.05a15.92,15.92,0,0,0,10.18-10.18l-11.54-11.55a15.94,15.94,0,0,0-10.19,10.19l2.52,9Z" transform="translate(-125.97 -94.84)"/>
    <path class="cls-15" d="M388.28,188.05a15.91,15.91,0,0,1,10.18-10.19l-3.54-3.54a15.94,15.94,0,0,0-10.19,10.19l2.52,9,2.77.78Z" transform="translate(-125.97 -94.84)"/>
    <path class="cls-16" d="M354.58,226.21h0a8.17,8.17,0,0,0,11.54,0l30.16-30.16-11.55-11.54-30.15,30.15A8.17,8.17,0,0,0,354.58,226.21Z" transform="translate(-125.97 -94.84)"/>
    <path class="cls-17" d="M358.12,218.2l30.16-30.15-3.55-3.54-30.15,30.15a8.17,8.17,0,0,0,0,11.55,8.39,8.39,0,0,0,2.05,1.49A8.16,8.16,0,0,1,358.12,218.2Z" transform="translate(-125.97 -94.84)"/>
    <g>
      <path class="cls-8" d="M380.24,197.94a1.83,1.83,0,0,1,1.32.55l1.58,1.57a1.88,1.88,0,0,1-2.66,2.66l-1.57-1.58a1.86,1.86,0,0,1,0-2.65A1.84,1.84,0,0,1,380.24,197.94Z" transform="translate(-125.97 -94.84)"/>
      <path class="cls-8" d="M362.83,215.34a1.87,1.87,0,0,1,1.33.55l1.57,1.58a1.87,1.87,0,0,1-2.65,2.65l-1.58-1.57a1.89,1.89,0,0,1,0-2.66A1.87,1.87,0,0,1,362.83,215.34Z" transform="translate(-125.97 -94.84)"/>
      <path class="cls-8" d="M373.54,204.59l.38,0a1.87,1.87,0,1,1-.25,3.74,2.24,2.24,0,0,0-2.3,2.3,1.88,1.88,0,1,1-3.75.25,6,6,0,0,1,5.92-6.31Z" transform="translate(-125.97 -94.84)"/>
    </g>
    <path class="cls-10" d="M393.59,175.65l11.54,11.55a1.89,1.89,0,0,0,1.78.49c26.61-6.58,46.13-16,58-28.06,9-9.15,13.63-19.65,13.61-31.18a26.09,26.09,0,0,0-7.66-18.54h0l0,0h0a26.05,26.05,0,0,0-18.48-7.62h0c-11.53,0-22,4.59-31.17,13.64-12,11.89-21.46,31.4-28,58A1.87,1.87,0,0,0,393.59,175.65Zm69.46-39.75c-4.79,7.23-12.42,14.88-22.66,22.75a248.93,248.93,0,0,1-36,22.49l-1-1,65.26-65.27C469.92,121.27,468.06,128.34,463.05,135.9ZM466,112.17l-65.27,65.27-1-1a248.38,248.38,0,0,1,22.49-36c7.86-10.25,15.51-17.87,22.74-22.67C452.44,112.72,459.51,110.86,466,112.17ZM462.26,157c-11.13,11.27-29.43,20.21-54.41,26.59a252.62,252.62,0,0,0,34.78-21.92c10.59-8.12,18.51-16.08,23.54-23.66,4.35-6.56,6.56-12.86,6.62-18.84a22.7,22.7,0,0,1,2,9.29C474.8,139,470.58,148.56,462.26,157Zm-38.49-38.44c8.42-8.33,18-12.55,28.53-12.55h0a22.3,22.3,0,0,1,9.28,2c-6,.06-12.28,2.26-18.83,6.62-7.58,5-15.54,12.94-23.66,23.53a252.93,252.93,0,0,0-21.93,34.78C403.58,148,412.52,129.67,423.77,118.55Z" transform="translate(-125.97 -94.84)"/>
  </g>
  <g>
    <path class="cls-11" d="M383.54,175.28a11.59,11.59,0,0,0,3.85-9.75l-11.05-4.36a11.57,11.57,0,0,0-3.85,9.75l4.3,5.29Z" transform="translate(-125.97 -94.84)"/>
    <path class="cls-15" d="M375.88,172.25a11.55,11.55,0,0,1,3.85-9.74l-3.39-1.34a11.57,11.57,0,0,0-3.85,9.75l4.3,5.29,2.07-.28Z" transform="translate(-125.97 -94.84)"/>
    <path class="cls-16" d="M364.45,207.48h0a5.93,5.93,0,0,0,7.7-3.34l11.39-28.86-11.05-4.36L361.1,199.78A5.94,5.94,0,0,0,364.45,207.48Z" transform="translate(-125.97 -94.84)"/>
    <path class="cls-17" d="M364.49,201.12l11.39-28.87-3.39-1.33L361.1,199.78a5.94,5.94,0,0,0,3.35,7.7,5.8,5.8,0,0,0,1.8.41A6,6,0,0,1,364.49,201.12Z" transform="translate(-125.97 -94.84)"/>
    <g>
      <path class="cls-8" d="M373.38,181.18a1.36,1.36,0,0,1,1.05,0l1.5.59a1.36,1.36,0,1,1-1,2.54l-1.51-.59a1.37,1.37,0,0,1-.77-1.77A1.4,1.4,0,0,1,373.38,181.18Z" transform="translate(-125.97 -94.84)"/>
      <path class="cls-8" d="M366.81,197.84a1.38,1.38,0,0,1,1,0l1.51.6a1.36,1.36,0,1,1-1,2.54l-1.51-.59a1.37,1.37,0,0,1,0-2.53Z" transform="translate(-125.97 -94.84)"/>
      <path class="cls-8" d="M370.84,187.57l.26-.1A1.36,1.36,0,1,1,372,190a1.55,1.55,0,0,0-.9.91,1.53,1.53,0,0,0,0,1.29,1.37,1.37,0,0,1-2.43,1.25,4.34,4.34,0,0,1,2.12-5.92Z" transform="translate(-125.97 -94.84)"/>
    </g>
    <path class="cls-10" d="M375.84,162.44l11.05,4.36a1.36,1.36,0,0,0,1.33-.18c15.85-12.1,26.14-24.06,30.59-35.54,3.38-8.73,3.4-17.06.05-24.76a19,19,0,0,0-10.49-10.14h0l0,0h0a18.94,18.94,0,0,0-14.54.27h0c-7.7,3.34-13.37,9.44-16.85,18.13-4.58,11.42-5.23,27.18-1.91,46.83A1.35,1.35,0,0,0,375.84,162.44Zm34.84-46.65c-1.11,6.21-4,13.53-8.54,21.75A181.39,181.39,0,0,1,384.63,163l-1-.4,24.65-62.47C411,104,411.83,109.29,410.68,115.79Zm-4.94-16.68-24.65,62.47-1-.4a180.81,180.81,0,0,1,4.58-30.54c2.28-9.11,5.17-16.42,8.61-21.71C396.88,103.4,401.06,100.1,405.74,99.11Zm10.52,31c-4.16,10.74-13.79,22-28.61,33.5a182.35,182.35,0,0,0,16.86-24.71c4.72-8.48,7.7-16.09,8.86-22.6,1-5.64.65-10.49-1-14.49a16.25,16.25,0,0,1,4,5.62C419.4,114.43,419.37,122.06,416.26,130.1Zm-36.82-14.51c3.2-8,8.39-13.6,15.4-16.64h0a16.22,16.22,0,0,1,6.78-1.36c-4,1.77-7.54,5.07-10.65,9.87-3.6,5.56-6.62,13.15-9,22.57a183.59,183.59,0,0,0-4.56,29.56C374.49,141.07,375.15,126.27,379.44,115.59Z" transform="translate(-125.97 -94.84)"/>
  </g>
</svg>
