<svg id="圖層_1" data-name="圖層 1" xmlns="http://www.w3.org/2000/svg" viewBox="0 0 389.09 260.57">
  <defs>
    <style>
      .cls-1 {
        fill: #6589a0;
        opacity: 0.5;
        isolation: isolate;
      }

      .cls-2 {
        fill: #a24e3a;
      }

      .cls-3 {
        fill: #f4c474;
      }

      .cls-4 {
        fill: #933d28;
      }

      .cls-5 {
        fill: #87cfea;
      }

      .cls-6 {
        fill: #56b7d6;
      }

      .cls-7 {
        fill: #46abcc;
      }

      .cls-8 {
        fill: #ef884b;
      }

      .cls-9 {
        fill: #dc6a27;
      }

      .cls-10 {
        fill: #3a4749;
      }

      .cls-11 {
        fill: #deac5b;
      }

      .cls-12 {
        fill: #f2bc1a;
      }

      .cls-13 {
        fill: #f4e164;
      }

      .cls-14 {
        fill: #51baa8;
      }

      .cls-15 {
        fill: #2ea38b;
      }

      .cls-16 {
        fill: #f0f3e4;
      }

      .cls-17 {
        fill: #d4d7ca;
      }
    </style>
  </defs>
  <title>05</title>
  <path class="cls-1" d="M127.51,189.17c4.4,9.34,15,14.35,20.11,23.32a27.2,27.2,0,0,1,1.71,3.67c2.12,5.42,2.91,11.41,5.32,16.75,4.51,10,13.51,16,23.85,20.33,7.81,3.28,16.39,5.59,24.35,7.93,20.27,6,40.53,15.33,53.59,31.95,8.71,11.08,13.63,24.64,21.26,36.49s19.59,22.59,33.68,22.47c15.13-.13,27.7-12.55,42.71-14.32,16.12-1.9,31.57,8.77,47.78,7.82,20.61-1.21,35.23-20.06,53.75-29.17,8.89-4.37,18.73-6.47,27.82-10.4a74.63,74.63,0,0,0,26.4-19.27c2.48-2.83,4.84-6.09,5.18-9.85.28-3.24-1-6.41-2.39-9.34-5.22-10.91-12.93-22.08-10.65-34,2.11-11,12.49-21.77,7.14-31.56-3.22-5.89-10.69-7.75-17.34-8.65-13.72-1.85-27.79-2.18-40.94-6.48-9.41-3.08-18.51-8.73-24.22-16.6a31.28,31.28,0,0,1-5-10.45c-1.56-5.94-1.73-13.14-6.79-16.62a14.92,14.92,0,0,0-7.59-2.14c-10-.61-19.9,2.46-29.92,3a40.07,40.07,0,0,1-10.25-.73c-6.68-1.37-12.78-4.64-15.95-10.51-1.86-3.44-2.63-7.61-5.53-10.23-4.91-4.45-11.75-4.7-18.79-3.18-8.72,1.89-17.75,6.51-23.89,9.36l-.61.28c-7.9,3.58-16.62,4.49-25.51,4.42-9.59,0-19.33-1.21-28.47-1.3-.86,0-1.71,0-2.56,0A124.21,124.21,0,0,0,226,134.06a125.64,125.64,0,0,0-26.79,7.82,124.21,124.21,0,0,0-12.77,6.2c-1.21.67-2.41,1.37-3.61,2.08-7,4.12-13.79,8.59-21.41,11.26l-1.65.56c-9.19,2.89-19.31,3.7-27,9.4-3.51,2.6-6.45,6.39-6.75,10.74A14.44,14.44,0,0,0,127.51,189.17Z" transform="translate(-125.97 -91.51)"/>
  <g>
    <path class="cls-2" d="M376,91.86l-41.3,26.55,4.12,6.41,41.3-26.54a2.26,2.26,0,0,0,.68-3.12l-1.68-2.62A2.26,2.26,0,0,0,376,91.86Z" transform="translate(-125.97 -91.51)"/>
    <g>
      <path class="cls-3" d="M311.8,131.37a3.76,3.76,0,0,0-6.32,4.06l5.74,8.94a3.76,3.76,0,1,0,6.32-4.07l.29-6.5Z" transform="translate(-125.97 -91.51)"/>
      <path class="cls-3" d="M323.09,121.14a3.76,3.76,0,0,0-6.32,4.06l1.06,8.6,7.39,4.55a3.76,3.76,0,1,0,6.32-4.07l-1.06-8.6Z" transform="translate(-125.97 -91.51)"/>
    </g>
    <rect class="cls-4" x="335.94" y="114.88" width="10.83" height="7.62" transform="translate(-135.96 111.87) rotate(-32.72)"/>
    <path class="cls-3" d="M330.54,111.88a3.76,3.76,0,0,0-1.13,5.19l1.07,8.61,7.38,4.54a3.76,3.76,0,1,0,6.32-4.06L335.73,113A3.76,3.76,0,0,0,330.54,111.88Z" transform="translate(-125.97 -91.51)"/>
    <path class="cls-5" d="M277.41,163.36c-13.29,21.07-6.62,44.76-.76,58.12A17.81,17.81,0,0,0,293,232.14h30.58a17.81,17.81,0,0,0,16.32-10.66c5.86-13.36,12.53-37-.76-58.12l-30.85-5.26Z" transform="translate(-125.97 -91.51)"/>
    <g>
      <path class="cls-6" d="M290.79,221.48c-5.86-13.36-12.52-37,.77-58.12l23.77-4.05-7.07-1.21-30.85,5.26c-13.29,21.07-6.62,44.76-.76,58.12A17.81,17.81,0,0,0,293,232.14h14.15A17.83,17.83,0,0,1,290.79,221.48Z" transform="translate(-125.97 -91.51)"/>
      <path class="cls-6" d="M339.11,152.84h-61.7a5.26,5.26,0,0,0-5.26,5.26h0a5.25,5.25,0,0,0,5.26,5.26h61.7a5.25,5.25,0,0,0,5.26-5.26h0A5.26,5.26,0,0,0,339.11,152.84Z" transform="translate(-125.97 -91.51)"/>
    </g>
    <path class="cls-7" d="M286.29,158.1h0a5.27,5.27,0,0,1,5.27-5.26H277.41a5.26,5.26,0,0,0-5.26,5.26h0a5.25,5.25,0,0,0,5.26,5.26h14.15A5.26,5.26,0,0,1,286.29,158.1Z" transform="translate(-125.97 -91.51)"/>
    <path class="cls-8" d="M336.28,184a6.91,6.91,0,0,0-6.85-5.85H287.08a6.91,6.91,0,0,0-6.84,5.85,47.76,47.76,0,0,0-.38,10.55,71.59,71.59,0,0,0,6,22.85A7.8,7.8,0,0,0,293,222.1h30.58a7.8,7.8,0,0,0,7.13-4.66,71.59,71.59,0,0,0,6-22.85A47.76,47.76,0,0,0,336.28,184Z" transform="translate(-125.97 -91.51)"/>
    <path class="cls-9" d="M290.79,221.48c-4.48-10.23-9.44-26.51-5.56-43a6.91,6.91,0,0,0-5,5.6,47.76,47.76,0,0,0-.38,10.55,71.59,71.59,0,0,0,6,22.85,7.79,7.79,0,0,0,5.12,4.39C290.9,221.71,290.85,221.59,290.79,221.48Z" transform="translate(-125.97 -91.51)"/>
    <g>
      <path class="cls-10" d="M291.4,200.83a2.12,2.12,0,0,1-2.12-2.13v-3a2.13,2.13,0,0,1,4.25,0v3A2.13,2.13,0,0,1,291.4,200.83Z" transform="translate(-125.97 -91.51)"/>
      <path class="cls-10" d="M325.12,200.83A2.13,2.13,0,0,1,323,198.7v-3a2.13,2.13,0,0,1,4.25,0v3A2.12,2.12,0,0,1,325.12,200.83Z" transform="translate(-125.97 -91.51)"/>
      <path class="cls-10" d="M308.26,202.45a7.64,7.64,0,0,1-5.76-2.56,2.13,2.13,0,1,1,3.2-2.8,3.49,3.49,0,0,0,5.12,0,2.13,2.13,0,0,1,3.2,2.8A7.64,7.64,0,0,1,308.26,202.45Z" transform="translate(-125.97 -91.51)"/>
    </g>
    <g>
      <path class="cls-11" d="M324.22,115.94a3.77,3.77,0,0,0-1.13,5.2l8.45,13.14a3.76,3.76,0,1,0,6.32-4.06l-8.45-13.15A3.76,3.76,0,0,0,324.22,115.94Z" transform="translate(-125.97 -91.51)"/>
      <path class="cls-11" d="M311.57,124.07a3.75,3.75,0,0,0-1.12,5.19l8.44,13.15a3.76,3.76,0,0,0,6.33-4.06l-8.45-13.15A3.76,3.76,0,0,0,311.57,124.07Z" transform="translate(-125.97 -91.51)"/>
    </g>
  </g>
  <g>
    <path class="cls-12" d="M274.48,227.32a12.84,12.84,0,0,0-12.84,12.84v43l54.28,12.4,59.13-12.4L389,227.32Z" transform="translate(-125.97 -91.51)"/>
    <path class="cls-13" d="M436.36,227.32H388.75a13.7,13.7,0,0,0-13.7,13.7v42.19l37.5,12.4,37.51-12.4V241A13.7,13.7,0,0,0,436.36,227.32Z" transform="translate(-125.97 -91.51)"/>
    <g>
      <path class="cls-10" d="M390.07,260.52a3.06,3.06,0,0,1-3.06-3.06v-4.07a3.06,3.06,0,0,1,6.12,0v4.07A3.06,3.06,0,0,1,390.07,260.52Z" transform="translate(-125.97 -91.51)"/>
      <path class="cls-10" d="M435,260.52a3.06,3.06,0,0,1-3.06-3.06v-4.07a3.07,3.07,0,0,1,6.13,0v4.07A3.06,3.06,0,0,1,435,260.52Z" transform="translate(-125.97 -91.51)"/>
      <path class="cls-10" d="M412.55,262.69a10.38,10.38,0,0,1-7.85-3.5,3.06,3.06,0,1,1,4.61-4,4.44,4.44,0,0,0,6.49,0,3.06,3.06,0,1,1,4.6,4A10.36,10.36,0,0,1,412.55,262.69Z" transform="translate(-125.97 -91.51)"/>
    </g>
    <path class="cls-14" d="M450.06,283.21H261.64a7.23,7.23,0,0,0-6.92,9.3h0a28,28,0,0,0,26.79,19.94H430.19A28,28,0,0,0,457,292.51h0A7.23,7.23,0,0,0,450.06,283.21Z" transform="translate(-125.97 -91.51)"/>
    <path class="cls-15" d="M275.13,292.51h0a7.23,7.23,0,0,1,6.92-9.3H261.64a7.23,7.23,0,0,0-6.92,9.3h0a28,28,0,0,0,26.79,19.94h20.41A28,28,0,0,1,275.13,292.51Z" transform="translate(-125.97 -91.51)"/>
  </g>
  <g>
    <path class="cls-12" d="M214.18,161a4.26,4.26,0,0,0-4.46,4.46,24.17,24.17,0,0,0,7.21,15.88,23.54,23.54,0,0,0,20.11,7,23.59,23.59,0,0,0-7-20.11A24.16,24.16,0,0,0,214.18,161Z" transform="translate(-125.97 -91.51)"/>
    <g>
      <path class="cls-8" d="M257.22,169.49a4.27,4.27,0,0,0-6.3,0,24.15,24.15,0,0,0-6.14,16.33A23.54,23.54,0,0,0,254.07,205a23.54,23.54,0,0,0,9.29-19.15A24.15,24.15,0,0,0,257.22,169.49Z" transform="translate(-125.97 -91.51)"/>
      <path class="cls-8" d="M218.59,208.12a4.27,4.27,0,0,1,0-6.3,24.13,24.13,0,0,1,16.33-6.14A23.54,23.54,0,0,1,254.07,205a23.54,23.54,0,0,1-19.15,9.29A24.13,24.13,0,0,1,218.59,208.12Z" transform="translate(-125.97 -91.51)"/>
    </g>
    <g>
      <path class="cls-12" d="M278.29,190.56a4.27,4.27,0,0,0-6.3,0,24.15,24.15,0,0,0-6.14,16.33A23.54,23.54,0,0,0,275.14,226a23.54,23.54,0,0,0,9.29-19.15A24.13,24.13,0,0,0,278.29,190.56Z" transform="translate(-125.97 -91.51)"/>
      <path class="cls-12" d="M239.66,229.19a4.27,4.27,0,0,1,0-6.3A24.13,24.13,0,0,1,256,216.75,23.54,23.54,0,0,1,275.14,226,23.54,23.54,0,0,1,256,235.33,24.13,24.13,0,0,1,239.66,229.19Z" transform="translate(-125.97 -91.51)"/>
    </g>
    <g>
      <path class="cls-8" d="M299.36,211.63a4.27,4.27,0,0,0-6.3,0A24.13,24.13,0,0,0,286.92,228a23.54,23.54,0,0,0,9.29,19.15A23.57,23.57,0,0,0,305.5,228,24.13,24.13,0,0,0,299.36,211.63Z" transform="translate(-125.97 -91.51)"/>
      <path class="cls-8" d="M260.73,250.26a4.27,4.27,0,0,1,0-6.3,24.13,24.13,0,0,1,16.33-6.14,23.54,23.54,0,0,1,19.15,9.29,23.54,23.54,0,0,1-19.15,9.29A24.13,24.13,0,0,1,260.73,250.26Z" transform="translate(-125.97 -91.51)"/>
    </g>
    <g>
      <path class="cls-12" d="M320.43,232.7a4.27,4.27,0,0,0-6.3,0A24.13,24.13,0,0,0,308,249a23.54,23.54,0,0,0,9.29,19.15A23.57,23.57,0,0,0,326.57,249,24.13,24.13,0,0,0,320.43,232.7Z" transform="translate(-125.97 -91.51)"/>
      <path class="cls-12" d="M281.8,271.33a4.27,4.27,0,0,1,0-6.3,24.13,24.13,0,0,1,16.33-6.14,23.54,23.54,0,0,1,19.15,9.29,23.54,23.54,0,0,1-19.15,9.29A24.13,24.13,0,0,1,281.8,271.33Z" transform="translate(-125.97 -91.51)"/>
    </g>
    <path class="cls-2" d="M276.76,205.27a1.81,1.81,0,0,0-3.62,0v16.57l-17.26-17.26V184.39a1.81,1.81,0,0,0-3.62,0V201l-28.34-28.34a1.81,1.81,0,1,0-2.56,2.56l28,28H233.49a1.81,1.81,0,0,0,0,3.62H253L270.21,224H254.37a1.81,1.81,0,0,0,0,3.62h19.47l17.25,17.26H275.25a1.81,1.81,0,1,0,0,3.62h19.46L312,265.8H296.12a1.81,1.81,0,0,0,0,3.62h19.47l12.88,12.87a1.8,1.8,0,0,0,2.56,0,1.82,1.82,0,0,0,0-2.56l-12.51-12.51V247a1.82,1.82,0,0,0-3.63,0V263.6l-17.25-17.26V226.15a1.81,1.81,0,0,0-3.62,0v16.57l-17.26-17.26V205.27Z" transform="translate(-125.97 -91.51)"/>
  </g>
  <g>
    <path class="cls-12" d="M441.13,163.92a2.38,2.38,0,0,1,2.57,2.4,12.56,12.56,0,0,1-4.16,8.55,14.27,14.27,0,0,1-11.63,3.76,12.18,12.18,0,0,1,4-10.83A14.49,14.49,0,0,1,441.13,163.92Z" transform="translate(-125.97 -91.51)"/>
    <g>
      <path class="cls-8" d="M416.24,168.5a2.6,2.6,0,0,1,3.65,0,12.54,12.54,0,0,1,3.54,8.79,12.39,12.39,0,0,1-5.37,10.31,12.62,12.62,0,0,1-1.82-19.1Z" transform="translate(-125.97 -91.51)"/>
      <path class="cls-8" d="M438.57,189.3a2.18,2.18,0,0,0,0-3.39,14.54,14.54,0,0,0-9.44-3.31,14,14,0,0,0-11.07,5,14,14,0,0,0,11.07,5A14.54,14.54,0,0,0,438.57,189.3Z" transform="translate(-125.97 -91.51)"/>
    </g>
    <g>
      <path class="cls-12" d="M404.06,179.85a2.58,2.58,0,0,1,3.64,0,12.62,12.62,0,0,1-1.82,19.1,12.62,12.62,0,0,1-1.82-19.1Z" transform="translate(-125.97 -91.51)"/>
      <path class="cls-12" d="M426.39,200.65a2.19,2.19,0,0,0,0-3.4A14.54,14.54,0,0,0,417,194a14,14,0,0,0-11.07,5A14,14,0,0,0,417,204,14.59,14.59,0,0,0,426.39,200.65Z" transform="translate(-125.97 -91.51)"/>
    </g>
    <g>
      <path class="cls-8" d="M391.88,191.19a2.58,2.58,0,0,1,3.64,0,12.62,12.62,0,0,1-1.82,19.1,12.62,12.62,0,0,1-1.82-19.1Z" transform="translate(-125.97 -91.51)"/>
      <path class="cls-8" d="M414.21,212a2.19,2.19,0,0,0,0-3.39,14.56,14.56,0,0,0-9.44-3.31,14,14,0,0,0-11.07,5,14,14,0,0,0,11.07,5A14.56,14.56,0,0,0,414.21,212Z" transform="translate(-125.97 -91.51)"/>
    </g>
    <g>
      <path class="cls-12" d="M379.69,202.54a2.6,2.6,0,0,1,3.65,0,12.62,12.62,0,0,1-1.82,19.1,12.39,12.39,0,0,1-5.37-10.31A12.52,12.52,0,0,1,379.69,202.54Z" transform="translate(-125.97 -91.51)"/>
      <path class="cls-12" d="M402,223.34a2.2,2.2,0,0,0,0-3.4,14.61,14.61,0,0,0-9.44-3.3,14,14,0,0,0-11.07,5,14,14,0,0,0,11.07,5A14.61,14.61,0,0,0,402,223.34Z" transform="translate(-125.97 -91.51)"/>
    </g>
    <path class="cls-2" d="M404.94,187.77a1.05,1.05,0,0,1,2.1,0v8.92l10-9.29V176.52a1,1,0,0,1,2.09,0v8.93l16.39-15.26a1.08,1.08,0,0,1,1.48,0,.92.92,0,0,1,0,1.37L420.8,186.63H430a1,1,0,1,1,0,2H418.71l-10,9.29h9.16a1,1,0,1,1,0,1.95H406.63l-10,9.29h9.16a1,1,0,1,1,0,1.95H394.56l-10,9.3h9.16a1,1,0,1,1,0,1.95H382.49l-7.44,6.93a1.1,1.1,0,0,1-1.48,0,.93.93,0,0,1,0-1.38l7.23-6.74V210.25a1.05,1.05,0,0,1,2.1,0v8.92l10-9.29V199a1.05,1.05,0,0,1,2.1,0v8.92l10-9.29V187.77Z" transform="translate(-125.97 -91.51)"/>
  </g>
  <g>
    <path class="cls-12" d="M490.51,263a2.39,2.39,0,0,1,2,2.93,12.65,12.65,0,0,1-6,7.36,14.23,14.23,0,0,1-12.18,1,12.18,12.18,0,0,1,6.42-9.6A14.42,14.42,0,0,1,490.51,263Z" transform="translate(-125.97 -91.51)"/>
    <g>
      <path class="cls-8" d="M465.24,261.68a2.6,2.6,0,0,1,3.55.85,12.62,12.62,0,0,1-6.18,18.16,12.39,12.39,0,0,1-2.85-11.27A12.55,12.55,0,0,1,465.24,261.68Z" transform="translate(-125.97 -91.51)"/>
      <path class="cls-8" d="M482.17,287.08a2.19,2.19,0,0,0,.78-3.31,14.56,14.56,0,0,0-8.42-5.39,14,14,0,0,0-11.92,2.31,14,14,0,0,0,9.61,7.42A14.54,14.54,0,0,0,482.17,287.08Z" transform="translate(-125.97 -91.51)"/>
    </g>
    <g>
      <path class="cls-12" d="M450.77,269.91a2.59,2.59,0,0,1,3.55.84,12.57,12.57,0,0,1,1.42,9.38,12.4,12.4,0,0,1-7.61,8.79,12.63,12.63,0,0,1,2.64-19Z" transform="translate(-125.97 -91.51)"/>
      <path class="cls-12" d="M467.7,295.3a2.19,2.19,0,0,0,.78-3.3,14.54,14.54,0,0,0-8.42-5.39,14,14,0,0,0-11.93,2.31,14,14,0,0,0,9.62,7.42A14.6,14.6,0,0,0,467.7,295.3Z" transform="translate(-125.97 -91.51)"/>
    </g>
    <g>
      <path class="cls-8" d="M436.3,278.14a2.58,2.58,0,0,1,3.54.84,12.51,12.51,0,0,1,1.43,9.37,12.38,12.38,0,0,1-7.61,8.79,12.62,12.62,0,0,1,2.64-19Z" transform="translate(-125.97 -91.51)"/>
      <path class="cls-8" d="M453.23,303.53a2.19,2.19,0,0,0,.78-3.3,14.59,14.59,0,0,0-8.42-5.4,14,14,0,0,0-11.93,2.31,14,14,0,0,0,9.62,7.43A14.61,14.61,0,0,0,453.23,303.53Z" transform="translate(-125.97 -91.51)"/>
    </g>
    <g>
      <path class="cls-12" d="M421.82,286.36a2.6,2.6,0,0,1,3.55.85,12.62,12.62,0,0,1-6.18,18.16,12.42,12.42,0,0,1-2.85-11.27A12.55,12.55,0,0,1,421.82,286.36Z" transform="translate(-125.97 -91.51)"/>
      <path class="cls-12" d="M438.75,311.76a2.2,2.2,0,0,0,.79-3.31,14.63,14.63,0,0,0-8.42-5.39,14,14,0,0,0-11.93,2.31,14,14,0,0,0,9.62,7.42A14.52,14.52,0,0,0,438.75,311.76Z" transform="translate(-125.97 -91.51)"/>
    </g>
    <path class="cls-2" d="M449.8,277.82a1,1,0,0,1,1.25-.71,1,1,0,0,1,.79,1.19L449.78,287l11.85-6.73,2.51-10.58a1,1,0,0,1,1.25-.71,1,1,0,0,1,.79,1.19l-2.06,8.68,19.47-11.06a1.09,1.09,0,0,1,1.44.34.93.93,0,0,1-.32,1.34l-19.22,10.92,8.92,2.12a1,1,0,1,1-.45,1.9L463,281.79l-11.86,6.74,8.92,2.11a1,1,0,1,1-.45,1.9l-10.95-2.6-11.86,6.74,8.92,2.11a1,1,0,1,1-.45,1.9l-11-2.6-11.85,6.74,8.92,2.11a1,1,0,0,1,.79,1.2,1,1,0,0,1-1.24.7l-11-2.6-8.84,5a1.1,1.1,0,0,1-1.44-.34.92.92,0,0,1,.32-1.34l8.59-4.89,2.51-10.58a1.05,1.05,0,0,1,2,.49l-2.06,8.68L433,296.55,435.46,286a1,1,0,0,1,1.25-.71,1,1,0,0,1,.79,1.19l-2.06,8.69,11.85-6.74,2.51-10.58Z" transform="translate(-125.97 -91.51)"/>
  </g>
  <g>
    <g>
      <path class="cls-16" d="M271,221.9h-34.2a4.73,4.73,0,0,0-4.72,4.72v7.52l22.32,5.93,21.32-5.93v-7.52A4.72,4.72,0,0,0,271,221.9Z" transform="translate(-125.97 -91.51)"/>
      <path class="cls-16" d="M260.9,253.89,240.76,245l-23.5,8.88v53.54a5.51,5.51,0,0,0,5.51,5.5H260.9l14.81-29.52Z" transform="translate(-125.97 -91.51)"/>
    </g>
    <path class="cls-17" d="M275.71,247l-14.81,6.91v59H285a5.5,5.5,0,0,0,5.51-5.5V253.89Z" transform="translate(-125.97 -91.51)"/>
    <rect class="cls-5" x="91.29" y="178.38" width="43.64" height="27.05"/>
    <g>
      <path class="cls-10" d="M227.31,284.16a1.37,1.37,0,0,1-1.37-1.37v-2.13a1.38,1.38,0,1,1,2.75,0v2.13A1.37,1.37,0,0,1,227.31,284.16Z" transform="translate(-125.97 -91.51)"/>
      <path class="cls-10" d="M250.85,284.16a1.37,1.37,0,0,1-1.37-1.37v-2.13a1.37,1.37,0,1,1,2.74,0v2.13A1.37,1.37,0,0,1,250.85,284.16Z" transform="translate(-125.97 -91.51)"/>
      <path class="cls-10" d="M239.08,285.3a5.21,5.21,0,0,1-3.94-1.76,1.37,1.37,0,0,1,2.07-1.81,2.54,2.54,0,0,0,3.74,0,1.37,1.37,0,0,1,2.07,1.81A5.2,5.2,0,0,1,239.08,285.3Z" transform="translate(-125.97 -91.51)"/>
    </g>
    <polygon class="cls-6" points="149.74 142.64 134.93 162.38 164.55 162.38 149.74 142.64"/>
    <polygon class="cls-5" points="91.29 162.38 106.1 142.64 149.74 142.64 134.93 162.38 91.29 162.38"/>
    <rect class="cls-6" x="134.93" y="178.38" width="29.62" height="27.05"/>
  </g>
  <g>
    <path class="cls-16" d="M352,317.71h0c-3.05-1.89-4.2-4.37-3.11-6.73h0c2.3-5-5.35-9.72-15.68-9.72h0c-4.89,0-9.52-1.1-12.58-3h0c-6.44-4-18.71-4-25.15,0h0c-3.05,1.9-7.68,3-12.58,3h0c-10.33,0-18,4.74-15.68,9.72h0c1.09,2.36-.05,4.84-3.11,6.73h0c-6.44,4-3.71,9.91,5.6,12.13h0c4.41,1.05,7.61,3,8.7,5.4h0c2.3,5,13.36,7.61,22.67,5.39h0a31.33,31.33,0,0,1,14,0h0c9.3,2.22,20.36-.41,22.66-5.39h0c1.09-2.36,4.29-4.35,8.7-5.4h0C355.71,327.62,358.44,321.71,352,317.71Z" transform="translate(-125.97 -91.51)"/>
    <path class="cls-17" d="M286.86,334.65h0c-1.2-2.59-4.7-4.76-9.53-5.91h0c-10.19-2.43-13.18-8.9-6.13-13.28h0c3.34-2.07,4.59-4.78,3.4-7.36h0c-1-2.2-.26-4.36,1.76-6.16-6.75,1.49-10.92,5.2-9.14,9h0c1.09,2.36-.06,4.84-3.11,6.73h0c-6.44,4-3.71,9.91,5.6,12.13h0c4.41,1.05,7.61,3,8.7,5.4h0c2.13,4.6,11.75,7.2,20.54,5.81C293.16,340.18,288.34,337.86,286.86,334.65Z" transform="translate(-125.97 -91.51)"/>
    <g>
      <path class="cls-16" d="M355.4,297.7c5.71-7,16.39-24.19-.61-41.19s-34.22-6.32-41.18-.6a1.49,1.49,0,0,0,.94,2.64l3.1,0a3.54,3.54,0,0,1,3.52,3.51l0,5.48a1.49,1.49,0,0,0,1.48,1.48l5.48.05a3.54,3.54,0,0,1,3.52,3.51l0,5.48a1.49,1.49,0,0,0,1.49,1.48l5.47.05a3.54,3.54,0,0,1,3.52,3.51l0,5.48a1.49,1.49,0,0,0,1.49,1.48l5.47.05a3.54,3.54,0,0,1,3.52,3.51l0,3.11A1.49,1.49,0,0,0,355.4,297.7Z" transform="translate(-125.97 -91.51)"/>
      <path class="cls-16" d="M260.71,297.7c-5.71-7-16.39-24.19.61-41.19s34.22-6.32,41.18-.6a1.49,1.49,0,0,1-.93,2.64l-3.11,0a3.54,3.54,0,0,0-3.52,3.51l0,5.48a1.49,1.49,0,0,1-1.48,1.48l-5.48.05a3.54,3.54,0,0,0-3.52,3.51l0,5.48a1.49,1.49,0,0,1-1.48,1.48l-5.48.05a3.54,3.54,0,0,0-3.52,3.51l0,5.48a1.49,1.49,0,0,1-1.48,1.48l-5.48.05a3.54,3.54,0,0,0-3.52,3.51l0,3.11A1.49,1.49,0,0,1,260.71,297.7Z" transform="translate(-125.97 -91.51)"/>
    </g>
    <g>
      <path class="cls-17" d="M263.66,254.35c-.78.67-1.56,1.38-2.34,2.16-17,17-6.32,34.23-.61,41.19a1.49,1.49,0,0,0,2.65-.94l0-3.11a3.59,3.59,0,0,1,.63-2C258.48,284.31,250.76,269.43,263.66,254.35Z" transform="translate(-125.97 -91.51)"/>
      <path class="cls-17" d="M352.46,254.35c.77.67,1.55,1.38,2.33,2.16,17,17,6.32,34.23.61,41.19a1.5,1.5,0,0,1-2.65-.94l0-3.11a3.51,3.51,0,0,0-.63-2C357.63,284.31,365.35,269.43,352.46,254.35Z" transform="translate(-125.97 -91.51)"/>
    </g>
    <ellipse class="cls-12" cx="182.09" cy="226.31" rx="22.04" ry="12.01"/>
    <path class="cls-8" d="M291.19,317.82c0-6.16,8.5-11.23,19.46-11.93-.85-.06-1.72-.09-2.59-.09-12.18,0-22.05,5.38-22.05,12s9.87,12,22.05,12c.87,0,1.74,0,2.59-.08C299.69,329.05,291.19,324,291.19,317.82Z" transform="translate(-125.97 -91.51)"/>
    <g>
      <path class="cls-10" d="M295.73,320a1.69,1.69,0,0,1-1.68-1.69v-2.23a1.69,1.69,0,1,1,3.37,0v2.23A1.69,1.69,0,0,1,295.73,320Z" transform="translate(-125.97 -91.51)"/>
      <path class="cls-10" d="M320.38,320a1.69,1.69,0,0,1-1.69-1.69v-2.23a1.69,1.69,0,0,1,3.38,0v2.23A1.69,1.69,0,0,1,320.38,320Z" transform="translate(-125.97 -91.51)"/>
      <path class="cls-10" d="M308.06,321.22a5.73,5.73,0,0,1-4.32-1.93,1.69,1.69,0,0,1,2.55-2.22,2.32,2.32,0,0,0,1.77.77,2.35,2.35,0,0,0,1.77-.77,1.69,1.69,0,1,1,2.54,2.22A5.73,5.73,0,0,1,308.06,321.22Z" transform="translate(-125.97 -91.51)"/>
    </g>
  </g>
  <g>
    <path class="cls-8" d="M367.51,127.61s-4.13-6.88-4.13-13.9h-3.57c0,7-4.13,13.9-4.13,13.9l5.92,4.54Z" transform="translate(-125.97 -91.51)"/>
    <path class="cls-9" d="M367.51,127.61H355.68a4.06,4.06,0,0,0-4.06,4.06v9.05l10,4.15,10-4.15v-9.05A4.05,4.05,0,0,0,367.51,127.61Z" transform="translate(-125.97 -91.51)"/>
    <path class="cls-8" d="M378.46,144.48a8.19,8.19,0,0,0-6.89-3.76H351.62a8.2,8.2,0,0,0-6.89,3.76l-2.17,3.39,19,4.18,19-4.18Z" transform="translate(-125.97 -91.51)"/>
    <path class="cls-9" d="M349.44,147.87l2.17-3.39a8.19,8.19,0,0,1,6.89-3.76h-6.88a8.2,8.2,0,0,0-6.89,3.76l-2.17,3.39,19,4.18,3.43-.76Z" transform="translate(-125.97 -91.51)"/>
    <path class="cls-16" d="M380.63,147.87H342.56a11.9,11.9,0,0,0-11.9,11.9v6.87l30.94,7.1,30.93-7.1v-6.87A11.9,11.9,0,0,0,380.63,147.87Z" transform="translate(-125.97 -91.51)"/>
    <path class="cls-17" d="M344.41,166.64v-6.87a11.9,11.9,0,0,1,11.9-11.9H342.56a11.9,11.9,0,0,0-11.9,11.9v6.87l30.94,7.1,6.87-1.58Z" transform="translate(-125.97 -91.51)"/>
    <path class="cls-16" d="M361.6,201l-30.94,7.79v6.87a11.9,11.9,0,0,0,11.9,11.9h38.07a11.9,11.9,0,0,0,11.9-11.9V208.8Z" transform="translate(-125.97 -91.51)"/>
    <path class="cls-17" d="M344.41,215.67V208.8l24.06-6.06L361.6,201l-30.94,7.79v6.87a11.9,11.9,0,0,0,11.9,11.9h13.75A11.9,11.9,0,0,1,344.41,215.67Z" transform="translate(-125.97 -91.51)"/>
    <path class="cls-13" d="M342.56,218.4a2.73,2.73,0,0,1-2.73-2.73v-55.9a2.73,2.73,0,0,1,2.73-2.73h38.07a2.74,2.74,0,0,1,2.74,2.73v55.9a2.74,2.74,0,0,1-2.74,2.73Z" transform="translate(-125.97 -91.51)"/>
    <g>
      <path class="cls-12" d="M368.47,202.74,361.6,201l-21.77,5.48v9.18a2.73,2.73,0,0,0,2.73,2.73h2.17a11.72,11.72,0,0,1-.32-2.73V208.8Z" transform="translate(-125.97 -91.51)"/>
      <path class="cls-12" d="M344.73,157h-2.17a2.73,2.73,0,0,0-2.73,2.73v9l21.77,5,6.87-1.58-24.06-5.52v-6.87A11.72,11.72,0,0,1,344.73,157Z" transform="translate(-125.97 -91.51)"/>
    </g>
    <rect class="cls-8" x="204.69" y="75.13" width="61.87" height="42.16"/>
    <rect class="cls-9" x="204.69" y="75.13" width="13.75" height="42.16"/>
    <path class="cls-13" d="M361.6,203.19c15.42,0,20.57-14.7,0-30.94C341,188.49,346.17,203.19,361.6,203.19Z" transform="translate(-125.97 -91.51)"/>
    <path class="cls-12" d="M364.58,200.44c-14,0-19.52-12.07-5.13-26.42-18,15.53-12.72,29.17,2.15,29.17,5.46,0,9.63-1.84,11.83-4.94A16.85,16.85,0,0,1,364.58,200.44Z" transform="translate(-125.97 -91.51)"/>
    <g>
      <path class="cls-10" d="M354.36,192.19a1.72,1.72,0,0,1-1.72-1.72v-1.11a1.72,1.72,0,0,1,3.44,0v1.11A1.72,1.72,0,0,1,354.36,192.19Z" transform="translate(-125.97 -91.51)"/>
      <path class="cls-10" d="M368.83,192.19a1.72,1.72,0,0,1-1.71-1.72v-1.11a1.72,1.72,0,0,1,3.43,0v1.11A1.72,1.72,0,0,1,368.83,192.19Z" transform="translate(-125.97 -91.51)"/>
      <path class="cls-10" d="M361.6,192.77a4.3,4.3,0,0,1-3-1.14,1.73,1.73,0,0,1-.05-2.43,1.71,1.71,0,0,1,2.43,0,.92.92,0,0,0,.6.19.86.86,0,0,0,.59-.19,1.72,1.72,0,0,1,2.39,2.48A4.32,4.32,0,0,1,361.6,192.77Z" transform="translate(-125.97 -91.51)"/>
    </g>
  </g>
</svg>
