<svg xmlns="http://www.w3.org/2000/svg" viewBox="0 0 122.61 81.09">
  <defs>
    <style>
      .cls-1 {
        fill: #362D2B;
      }
    </style>
  </defs>
  <title>資產 1</title>
  <g id="圖層_2" data-name="圖層 2">
    <g id="圖層_1-2" data-name="圖層 1">
      <g>
        <path class="cls-1" d="M1.71,33.76c4.65,6.47,10.8,7,18.33,4.4a13.43,13.43,0,0,1-1.95-1Q10.32,31.07,2.61,25c-2.93-2.33-3.34-4.78-1.16-8L22.73,33.63c-.28-4.93,1.05-10-4.25-13.43C12.87,16.52,7.8,12,2.54,7.77-.4,5.4-.75,2.85,1.46,0c.7.49,1.44,1,2.13,1.5Q26.9,19.85,50.2,38.21C56,42.75,58.07,48.7,56.14,55.7c-1.88,6.8-6.71,10.69-13.69,11.7A15,15,0,0,1,30.8,64.22Q16.52,53.14,2.39,41.88C-.38,39.69-.69,37.18,1.71,33.76ZM29.49,55.45l-.27.63c2.47,1.69,4.77,3.75,7.45,5,5.71,2.6,12.33-.77,14.11-6.8S49.26,43.19,42,39.46c.42,3.49.8,6.86,1.23,10.22.39,3-.44,4.15-3.45,4.51ZM28.72,28.9c0,6.49.54,12.63,7.89,15.14C37,37.47,35.86,31.64,28.72,28.9Zm4,20.23c-5-5.53-10.75-6.82-16.53-4C20.37,51.46,26.31,50.89,32.76,49.13Z"/>
        <path class="cls-1" d="M29.13,38.57c-.35-2.68-.67-5.37-1-8.12A99.5,99.5,0,0,1,26.21,20L9.49,7.09c-.09,3.32-.37,6.63-.74,9.88.13,1.42.07,2.9.08,4.39a6.12,6.12,0,0,1,.57,4.5,4.93,4.93,0,0,1-3.82,2.3c-3.74,3-4.86,7.5-5,12L6.87,45c2-.15,3.93-.32,5.91-.51a21.61,21.61,0,0,1,2.71-.19l.06-.15,10.17-1.21C28.69,42.57,29.52,41.49,29.13,38.57ZM2.45,34.2C8.17,31.45,13.86,32.69,18.79,38,12.42,39.73,6.54,40.29,2.45,34.2Zm20.14-1.08c-7.27-2.42-7.84-8.35-7.8-14.61C21.85,21.15,23,26.78,22.59,33.12Z"/>
        <path class="cls-1" d="M70.87,35.6c-1.71-4.18-3.77-7.66-8.23-9A10.35,10.35,0,0,0,53.87,28c-3.47,2.19-3.74,2.17-6.6-1,3.09-5.55,11.79-8,18.59-5.18,4.12,1.68,6.85,4.73,8.91,8.61a70.42,70.42,0,0,0,4.31,6.36c-1.41.82-3.31,1.78-5,3a8.35,8.35,0,0,0-3.66,6.86c-.2,3.85-.19,7.78-1,11.51C65,77.5,42.5,87.32,25.76,76.79,17.29,71.45,9.7,64.67,1.83,58.4c-2.37-1.9-2.37-4.4-.4-7.12.84.6,1.71,1.18,2.52,1.82q10.52,8.25,21,16.52c7.82,6.16,16.43,7.66,25.53,3.55S64.19,61.4,64.75,51.39c.06-1.08.06-2.16,0-3.24C64.65,43,66,38.54,70.87,35.6Z"/>
      </g>
      <path class="cls-1" d="M77.53,62.39c-2.18,3.22-1.77,5.67,1.16,8l3.93,3.11a33.82,33.82,0,0,1,2.71-5Z"/>
      <path class="cls-1" d="M97,8.77c-.65-.53-1.35-1-2-1.49-2.08,2.85-1.75,5.4,1,7.76,5,4.23,9.73,8.75,15,12.44a9.37,9.37,0,0,1,2,1.8c-.15-2.47-.28-5-.36-7.43Z"/>
      <path class="cls-1" d="M105.06,31.4c-3-1.93-5.48-1.47-7.7,1.43-2.89,3.77-5.93,7.46-8.69,11.3,2.15.27,4.3.51,6.45.76l8.55-11.41C104.18,32.81,104.61,32.09,105.06,31.4Z"/>
      <path class="cls-1" d="M116,24.1l-7.45-5.87a38,38,0,0,1,.94,8.06c6.06,3.63,8.69,8.41,7.09,13.86-1.78,6-8.4,9.4-14.11,6.79a41.36,41.36,0,0,1-6.66-4.42c-2.37.47-4.75.94-7.12,1.39Q92.62,47,96.58,50.1a15,15,0,0,0,11.65,3.18c7-1,11.81-4.89,13.69-11.7C123.85,34.58,121.72,28.63,116,24.1Z"/>
      <path class="cls-1" d="M104,48.91,96.56,43a37.24,37.24,0,0,1,.93,8.06c6.07,3.63,8.7,8.41,7.09,13.85-1.78,6-8.39,9.41-14.1,6.8a41,41,0,0,1-6.67-4.42c-2.37.47-4.75.94-7.12,1.39q3.94,3.11,7.91,6.19a15,15,0,0,0,11.66,3.18c7-1,11.81-4.89,13.68-11.7C111.87,59.39,109.75,53.44,104,48.91Z"/>
      <path class="cls-1" d="M114.25,22.35,95,7.28c-2.19,3.22-1.77,5.67,1.15,8q7.71,6.14,15.48,12.17a5.75,5.75,0,0,0,1.15.65,7.92,7.92,0,0,0,1.12-2.45A10.36,10.36,0,0,0,114.25,22.35Z"/>
      <path class="cls-1" d="M100,62.74,80.75,47.66c-2.18,3.23-1.76,5.68,1.16,8,5.14,4.09,10.3,8.13,15.48,12.17a5.75,5.75,0,0,0,1.15.65A7.92,7.92,0,0,0,99.66,66,10.35,10.35,0,0,0,100,62.74Z"/>
      <path class="cls-1" d="M115.41,74.78,96.17,59.7c-2.18,3.23-1.77,5.68,1.15,8Q105,73.84,112.8,79.87a5.75,5.75,0,0,0,1.15.65,7.7,7.7,0,0,0,1.12-2.45A10.36,10.36,0,0,0,115.41,74.78Z"/>
      <path class="cls-1" d="M109,3.4c7.12,2.62,8.26,8.45,7.88,15C111.21,16.41,109,12.22,109,3.4Z"/>
    </g>
  </g>
</svg>
