<svg xmlns="http://www.w3.org/2000/svg" viewBox="0 0 368.19 81.09"><defs><style>.cls-1{fill:#de716b;}</style></defs><title>資產 1</title><g id="圖層_2" data-name="圖層 2"><g id="圖層_1-2" data-name="圖層 1"><path class="cls-1" d="M1.71,33.76c4.65,6.47,10.8,7,18.33,4.4a13.43,13.43,0,0,1-1.95-1Q10.32,31.07,2.61,25c-2.93-2.33-3.34-4.78-1.16-8L22.73,33.63c-.28-4.93,1.05-10-4.25-13.43C12.87,16.52,7.8,12,2.54,7.77-.4,5.4-.75,2.85,1.46,0c.7.49,1.44,1,2.13,1.5Q26.9,19.85,50.2,38.21C56,42.75,58.07,48.7,56.14,55.7c-1.88,6.8-6.71,10.69-13.69,11.7A15,15,0,0,1,30.8,64.22Q16.52,53.14,2.39,41.88C-.38,39.69-.69,37.18,1.71,33.76ZM29.49,55.45l-.27.63c2.47,1.69,4.77,3.75,7.45,5,5.71,2.6,12.33-.77,14.11-6.8S49.26,43.19,42,39.46c.42,3.49.8,6.86,1.23,10.22.39,3-.44,4.15-3.45,4.51ZM28.72,28.9c0,6.49.54,12.63,7.89,15.14C37,37.47,35.86,31.64,28.72,28.9Zm4,20.23c-5-5.53-10.75-6.82-16.53-4C20.37,51.46,26.31,50.89,32.76,49.13Z"/><path class="cls-1" d="M29.13,38.57c-.35-2.68-.67-5.37-1-8.12A99.5,99.5,0,0,1,26.21,20L9.49,7.09c-.09,3.32-.37,6.63-.74,9.88.13,1.42.07,2.9.08,4.39a6.12,6.12,0,0,1,.57,4.5,4.93,4.93,0,0,1-3.82,2.3c-3.74,3-4.86,7.5-5,12L6.87,45c2-.15,3.93-.32,5.91-.51a21.61,21.61,0,0,1,2.71-.19l.06-.15,10.17-1.21C28.69,42.57,29.52,41.49,29.13,38.57ZM2.45,34.2C8.17,31.45,13.86,32.69,18.79,38,12.42,39.73,6.54,40.29,2.45,34.2Zm20.14-1.08c-7.27-2.42-7.84-8.35-7.8-14.61C21.85,21.15,23,26.78,22.59,33.12Z"/><path class="cls-1" d="M70.87,35.6c-1.71-4.18-3.77-7.66-8.23-9A10.35,10.35,0,0,0,53.87,28c-3.47,2.19-3.74,2.17-6.6-1,3.09-5.55,11.79-8,18.59-5.18,4.12,1.68,6.85,4.73,8.91,8.61a70.42,70.42,0,0,0,4.31,6.36c-1.41.82-3.31,1.78-5,3a8.35,8.35,0,0,0-3.66,6.86c-.2,3.85-.19,7.78-1,11.51C65,77.5,42.5,87.32,25.76,76.79,17.29,71.45,9.7,64.67,1.83,58.4c-2.37-1.9-2.37-4.4-.4-7.12.84.6,1.71,1.18,2.52,1.82q10.52,8.25,21,16.52c7.82,6.16,16.43,7.66,25.53,3.55S64.19,61.4,64.75,51.39c.06-1.08.06-2.16,0-3.24C64.65,43,66,38.54,70.87,35.6Z"/><path class="cls-1" d="M77.53,62.39c-2.18,3.22-1.77,5.67,1.16,8l3.93,3.11a33.82,33.82,0,0,1,2.71-5Z"/><path class="cls-1" d="M97,8.77c-.65-.53-1.35-1-2-1.49-2.08,2.85-1.75,5.4,1,7.76,5,4.23,9.73,8.75,15,12.44a9.37,9.37,0,0,1,2,1.8c-.15-2.47-.28-5-.36-7.43Z"/><path class="cls-1" d="M105.06,31.4c-3-1.93-5.48-1.47-7.7,1.43-2.89,3.77-5.93,7.46-8.69,11.3,2.15.27,4.3.51,6.45.76l8.55-11.41C104.18,32.81,104.61,32.09,105.06,31.4Z"/><path class="cls-1" d="M116,24.1l-7.45-5.87a38,38,0,0,1,.94,8.06c6.06,3.63,8.69,8.41,7.09,13.86-1.78,6-8.4,9.4-14.11,6.79a41.36,41.36,0,0,1-6.66-4.42c-2.37.47-4.75.94-7.12,1.39Q92.62,47,96.58,50.1a15,15,0,0,0,11.65,3.18c7-1,11.81-4.89,13.69-11.7C123.85,34.58,121.72,28.63,116,24.1Z"/><path class="cls-1" d="M104,48.91,96.56,43a37.24,37.24,0,0,1,.93,8.06c6.07,3.63,8.7,8.41,7.09,13.85-1.78,6-8.39,9.41-14.1,6.8a41,41,0,0,1-6.67-4.42c-2.37.47-4.75.94-7.12,1.39q3.94,3.11,7.91,6.19a15,15,0,0,0,11.66,3.18c7-1,11.81-4.89,13.68-11.7C111.87,59.39,109.75,53.44,104,48.91Z"/><path class="cls-1" d="M114.25,22.35,95,7.28c-2.19,3.22-1.77,5.67,1.15,8q7.71,6.14,15.48,12.17a5.75,5.75,0,0,0,1.15.65,7.92,7.92,0,0,0,1.12-2.45A10.36,10.36,0,0,0,114.25,22.35Z"/><path class="cls-1" d="M100,62.74,80.75,47.66c-2.18,3.23-1.76,5.68,1.16,8,5.14,4.09,10.3,8.13,15.48,12.17a5.75,5.75,0,0,0,1.15.65A7.92,7.92,0,0,0,99.66,66,10.35,10.35,0,0,0,100,62.74Z"/><path class="cls-1" d="M115.41,74.78,96.17,59.7c-2.18,3.23-1.77,5.68,1.15,8Q105,73.84,112.8,79.87a5.75,5.75,0,0,0,1.15.65,7.7,7.7,0,0,0,1.12-2.45A10.36,10.36,0,0,0,115.41,74.78Z"/><path class="cls-1" d="M109,3.4c7.12,2.62,8.26,8.45,7.88,15C111.21,16.41,109,12.22,109,3.4Z"/><path class="cls-1" d="M154.05,17v7.73h11.79V17a3.64,3.64,0,0,1,.74-2.48,2.52,2.52,0,0,1,2-.83,2.6,2.6,0,0,1,2,.82A3.53,3.53,0,0,1,171.3,17V38.28a3.53,3.53,0,0,1-.77,2.5,2.6,2.6,0,0,1-2,.83,2.47,2.47,0,0,1-2-.84,3.63,3.63,0,0,1-.74-2.49V29.21H154.05v9.07a3.58,3.58,0,0,1-.77,2.5,2.62,2.62,0,0,1-2,.83,2.49,2.49,0,0,1-2-.84,3.68,3.68,0,0,1-.73-2.49V17a3.69,3.69,0,0,1,.72-2.48,2.52,2.52,0,0,1,2-.83,2.6,2.6,0,0,1,2,.82A3.58,3.58,0,0,1,154.05,17Z"/><path class="cls-1" d="M194.42,38.09l-1.28-3.38h-11l-1.28,3.46a13.09,13.09,0,0,1-1.29,2.73,2.06,2.06,0,0,1-1.75.71,2.58,2.58,0,0,1-1.82-.76,2.29,2.29,0,0,1-.79-1.71,3.87,3.87,0,0,1,.18-1.14c.13-.39.33-.94.61-1.64l6.9-17.51c.19-.5.43-1.1.71-1.81a9.29,9.29,0,0,1,.88-1.76,3.62,3.62,0,0,1,1.23-1.13,4.39,4.39,0,0,1,3.79,0,3.67,3.67,0,0,1,1.23,1.11,7.43,7.43,0,0,1,.79,1.47c.22.52.49,1.21.82,2.08l7.05,17.41a8.76,8.76,0,0,1,.83,2.88,2.4,2.4,0,0,1-.79,1.72,2.58,2.58,0,0,1-1.88.79,2.53,2.53,0,0,1-1.11-.23,2.48,2.48,0,0,1-.77-.63,5.74,5.74,0,0,1-.67-1.21C194.8,39,194.6,38.51,194.42,38.09Zm-10.81-7.48h8L187.6,19.48Z"/><path class="cls-1" d="M211.38,17l10.51,15.9v-16a3.51,3.51,0,0,1,.67-2.35,2.27,2.27,0,0,1,1.81-.78,2.36,2.36,0,0,1,1.86.78,3.51,3.51,0,0,1,.68,2.35V38.06c0,2.36-1,3.55-2.94,3.55a3.9,3.9,0,0,1-1.33-.22,3.26,3.26,0,0,1-1.1-.67,5.85,5.85,0,0,1-1-1.07c-.29-.41-.59-.83-.88-1.26L209.45,22.68v15.8a3.33,3.33,0,0,1-.72,2.33,2.53,2.53,0,0,1-3.69,0,3.43,3.43,0,0,1-.7-2.33V17.67a6,6,0,0,1,.29-2.07,3,3,0,0,1,1.16-1.36,3.14,3.14,0,0,1,1.75-.52,3,3,0,0,1,1.26.24,3.1,3.1,0,0,1,.92.64,7.13,7.13,0,0,1,.81,1.05Z"/><path class="cls-1" d="M236.27,14.18h7.12a19.32,19.32,0,0,1,4.76.51,8.78,8.78,0,0,1,3.61,1.94q4.22,3.6,4.21,11a21.58,21.58,0,0,1-.42,4.43,13.06,13.06,0,0,1-1.31,3.62A11.15,11.15,0,0,1,252,38.51a9.13,9.13,0,0,1-2.37,1.57,11,11,0,0,1-2.77.83,21,21,0,0,1-3.34.24h-7.12a4.45,4.45,0,0,1-2.24-.45,2.15,2.15,0,0,1-1-1.27,8.28,8.28,0,0,1-.23-2.13V17.53a3.55,3.55,0,0,1,.79-2.56A3.5,3.5,0,0,1,236.27,14.18Zm2.12,4.32V36.8h4.13c.91,0,1.62,0,2.14-.07a6.57,6.57,0,0,0,1.6-.37,4.28,4.28,0,0,0,1.43-.82q2.75-2.32,2.74-8a11.82,11.82,0,0,0-1.2-6,5.4,5.4,0,0,0-3-2.53A14.74,14.74,0,0,0,242,18.5Z"/><path class="cls-1" d="M269.88,37.08,265.55,19.9V38.51a3.38,3.38,0,0,1-.69,2.32,2.51,2.51,0,0,1-3.63,0,3.38,3.38,0,0,1-.7-2.33V17.18a2.67,2.67,0,0,1,.92-2.38,4.33,4.33,0,0,1,2.49-.62h1.69a6.24,6.24,0,0,1,2.21.28,1.83,1.83,0,0,1,1,1,14.2,14.2,0,0,1,.76,2.34l3.92,14.77,3.92-14.77a15.48,15.48,0,0,1,.75-2.34,1.83,1.83,0,0,1,1-1,6.3,6.3,0,0,1,2.22-.28h1.69a4.32,4.32,0,0,1,2.48.62,2.65,2.65,0,0,1,.92,2.38V38.51a3.38,3.38,0,0,1-.69,2.32,2.34,2.34,0,0,1-1.85.78,2.29,2.29,0,0,1-1.78-.78,3.34,3.34,0,0,1-.7-2.32V19.9L277.2,37.08c-.28,1.12-.51,1.93-.69,2.46a3.41,3.41,0,0,1-1,1.42,2.85,2.85,0,0,1-2,.65,3,3,0,0,1-1.62-.42,2.9,2.9,0,0,1-1-1.06,5.64,5.64,0,0,1-.58-1.42C270.17,38.19,270,37.64,269.88,37.08Z"/><path class="cls-1" d="M309.41,38.09l-1.29-3.38h-11l-1.29,3.46a12.58,12.58,0,0,1-1.29,2.73,2.05,2.05,0,0,1-1.75.71,2.59,2.59,0,0,1-1.82-.76,2.29,2.29,0,0,1-.79-1.71A3.87,3.87,0,0,1,290.4,38c.13-.39.33-.94.61-1.64l6.9-17.51.71-1.81a9.29,9.29,0,0,1,.88-1.76,3.62,3.62,0,0,1,1.23-1.13,3.86,3.86,0,0,1,5,1.11,8.64,8.64,0,0,1,.79,1.47c.21.52.48,1.21.81,2.08l7.05,17.41a8.76,8.76,0,0,1,.83,2.88,2.38,2.38,0,0,1-.78,1.72,2.6,2.6,0,0,1-1.89.79,2.45,2.45,0,0,1-1.1-.23,2.41,2.41,0,0,1-.78-.63,5.74,5.74,0,0,1-.67-1.21C309.78,39,309.58,38.51,309.41,38.09Zm-10.82-7.48h8.06l-4.07-11.13Z"/><path class="cls-1" d="M324.75,17v9.46L335.47,15.3a9,9,0,0,1,1.32-1.19,2.41,2.41,0,0,1,1.44-.39,2.63,2.63,0,0,1,1.9.69,2.21,2.21,0,0,1,.73,1.68,3.37,3.37,0,0,1-1.23,2.38L333,24.76l7.65,11a13.59,13.59,0,0,1,1.21,2,3.94,3.94,0,0,1,.41,1.67,2.07,2.07,0,0,1-.71,1.56,2.7,2.7,0,0,1-1.92.67,3.29,3.29,0,0,1-1.86-.49,4.2,4.2,0,0,1-1.21-1.3c-.33-.54-.63-1-.89-1.47l-6.45-9.93-4.47,4.28v5.58a3.54,3.54,0,0,1-.78,2.51,2.61,2.61,0,0,1-2,.82,2.68,2.68,0,0,1-1.34-.37,2.6,2.6,0,0,1-1-1,3.31,3.31,0,0,1-.31-1.19c0-.46-.06-1.11-.06-2V17a3.69,3.69,0,0,1,.73-2.48,2.49,2.49,0,0,1,2-.83,2.57,2.57,0,0,1,2,.82A3.54,3.54,0,0,1,324.75,17Z"/><path class="cls-1" d="M364.9,18.39H352.6V25h11.33a2.65,2.65,0,0,1,1.86.57,1.89,1.89,0,0,1,.62,1.48,1.94,1.94,0,0,1-.61,1.49,2.6,2.6,0,0,1-1.87.58H352.6V36.8h12.72a2.81,2.81,0,0,1,1.95.6,2.07,2.07,0,0,1,.65,1.59,2,2,0,0,1-.65,1.56,2.81,2.81,0,0,1-1.95.6H350.48a3.52,3.52,0,0,1-2.57-.8,3.52,3.52,0,0,1-.78-2.55V17.53a4.54,4.54,0,0,1,.35-1.92,2.2,2.2,0,0,1,1.1-1.09,4.52,4.52,0,0,1,1.9-.34H364.9a2.78,2.78,0,0,1,1.94.58,2.14,2.14,0,0,1,0,3A2.78,2.78,0,0,1,364.9,18.39Z"/><path class="cls-1" d="M160.06,75h-8.24a3.39,3.39,0,0,1-2.54-.8,3.62,3.62,0,0,1-.77-2.55V51.38a3.54,3.54,0,0,1,.78-2.57,3.48,3.48,0,0,1,2.53-.78h8.74a20.37,20.37,0,0,1,3.35.24,7.27,7.27,0,0,1,2.54.92,6.81,6.81,0,0,1,1.69,1.44,6.5,6.5,0,0,1,1.12,1.94,6.38,6.38,0,0,1,.39,2.23q0,4.05-4.05,5.92c3.54,1.13,5.32,3.33,5.32,6.59a7.41,7.41,0,0,1-1.16,4.07,7,7,0,0,1-3.13,2.68,11.69,11.69,0,0,1-2.83.73A29.13,29.13,0,0,1,160.06,75ZM154,52.13v7h5a10,10,0,0,0,3.15-.38,3,3,0,0,0,1.7-1.47,3.29,3.29,0,0,0,.46-1.73,2.69,2.69,0,0,0-1.45-2.72,11.22,11.22,0,0,0-4.43-.67ZM159.66,63H154V70.9h5.86c3.69,0,5.54-1.34,5.54-4a3.26,3.26,0,0,0-1.44-3A8,8,0,0,0,159.66,63Z"/><path class="cls-1" d="M195.23,71.94l-1.29-3.38H183L181.69,72a11.69,11.69,0,0,1-1.29,2.73,2,2,0,0,1-1.74.71,2.52,2.52,0,0,1-1.82-.76,2.29,2.29,0,0,1-.79-1.71,3.87,3.87,0,0,1,.18-1.14c.12-.39.32-.94.61-1.64l6.89-17.51c.2-.5.44-1.1.71-1.81a9.27,9.27,0,0,1,.89-1.76A3.62,3.62,0,0,1,186.56,48a3.84,3.84,0,0,1,1.88-.43,3.94,3.94,0,0,1,1.91.43,3.59,3.59,0,0,1,1.23,1.12,7.6,7.6,0,0,1,.79,1.46c.21.52.49,1.22.82,2.09l7,17.4a8.49,8.49,0,0,1,.83,2.89,2.38,2.38,0,0,1-.78,1.71,2.55,2.55,0,0,1-1.89.79,2.51,2.51,0,0,1-1.1-.23,2.25,2.25,0,0,1-.77-.63,5.74,5.74,0,0,1-.67-1.21C195.61,72.84,195.4,72.36,195.23,71.94Zm-10.82-7.48h8.06l-4.06-11.13Z"/><path class="cls-1" d="M214.34,50.88v9.46l10.72-11.19A9.58,9.58,0,0,1,226.38,48a2.41,2.41,0,0,1,1.44-.39,2.67,2.67,0,0,1,1.91.69,2.24,2.24,0,0,1,.72,1.68,3.37,3.37,0,0,1-1.23,2.38l-6.64,6.29,7.65,11a13.63,13.63,0,0,1,1.21,2,3.86,3.86,0,0,1,.41,1.66,2.07,2.07,0,0,1-.71,1.56,2.66,2.66,0,0,1-1.92.67,3.29,3.29,0,0,1-1.86-.49,4.2,4.2,0,0,1-1.21-1.3c-.33-.54-.63-1-.89-1.47l-6.45-9.93-4.47,4.28v5.58a3.53,3.53,0,0,1-.78,2.51,2.61,2.61,0,0,1-2,.82,2.77,2.77,0,0,1-2.34-1.36,3.42,3.42,0,0,1-.31-1.2c0-.45-.06-1.11-.06-2V50.88a3.69,3.69,0,0,1,.73-2.48,2.51,2.51,0,0,1,2-.83,2.57,2.57,0,0,1,2,.82A3.55,3.55,0,0,1,214.34,50.88Z"/><path class="cls-1" d="M258.26,52.24H246v6.63h11.34a2.65,2.65,0,0,1,1.86.56,1.89,1.89,0,0,1,.62,1.48,2,2,0,0,1-.61,1.5,2.65,2.65,0,0,1-1.87.58H246v7.67h12.73a2.81,2.81,0,0,1,1.94.59,2,2,0,0,1,.66,1.59,2,2,0,0,1-.66,1.56,2.77,2.77,0,0,1-1.94.6H243.84a2.86,2.86,0,0,1-3.35-3.35V51.38a4.54,4.54,0,0,1,.35-1.92,2.17,2.17,0,0,1,1.1-1.09,4.52,4.52,0,0,1,1.9-.34h14.42a2.78,2.78,0,0,1,1.94.58,2.14,2.14,0,0,1,0,3A2.78,2.78,0,0,1,258.26,52.24Z"/><path class="cls-1" d="M286.9,52.54h-6V72.13a3.57,3.57,0,0,1-.76,2.51,2.74,2.74,0,0,1-3.92,0,3.58,3.58,0,0,1-.77-2.5V52.54h-6a3,3,0,0,1-2.08-.62,2.1,2.1,0,0,1-.68-1.63,2.06,2.06,0,0,1,.71-1.65,3,3,0,0,1,2-.61H286.9a3,3,0,0,1,2.1.63,2.09,2.09,0,0,1,.69,1.63,2,2,0,0,1-.7,1.63A3.07,3.07,0,0,1,286.9,52.54Z"/><path class="cls-1" d="M296.92,72.13V50.88a3.59,3.59,0,0,1,.75-2.48,2.53,2.53,0,0,1,1.95-.83,2.6,2.6,0,0,1,2,.82,3.55,3.55,0,0,1,.76,2.49V72.13a3.58,3.58,0,0,1-.76,2.5,2.61,2.61,0,0,1-2,.83,2.51,2.51,0,0,1-1.94-.84A3.58,3.58,0,0,1,296.92,72.13Z"/><path class="cls-1" d="M321.36,70.93,317,53.75V72.37a3.36,3.36,0,0,1-.69,2.31,2.51,2.51,0,0,1-3.63,0,3.32,3.32,0,0,1-.7-2.32V51a2.65,2.65,0,0,1,.92-2.38,4.4,4.4,0,0,1,2.48-.62h1.69a6.3,6.3,0,0,1,2.22.28,1.83,1.83,0,0,1,1,1,15.48,15.48,0,0,1,.75,2.34L325,66.41l3.92-14.77a15.48,15.48,0,0,1,.75-2.34,1.83,1.83,0,0,1,1-1,6.3,6.3,0,0,1,2.22-.28h1.69a4.45,4.45,0,0,1,2.49.62A2.67,2.67,0,0,1,338,51V72.37a3.36,3.36,0,0,1-.69,2.31,2.35,2.35,0,0,1-1.85.78,2.3,2.3,0,0,1-1.79-.78,3.36,3.36,0,0,1-.7-2.31V53.75l-4.32,17.18q-.42,1.68-.69,2.46a3.38,3.38,0,0,1-1,1.42,2.87,2.87,0,0,1-2,.65A2.94,2.94,0,0,1,322.37,74a6.3,6.3,0,0,1-.58-1.43C321.65,72,321.51,71.5,321.36,70.93Z"/><path class="cls-1" d="M365.17,52.24h-12.3v6.63H364.2a2.65,2.65,0,0,1,1.86.56,1.86,1.86,0,0,1,.62,1.48,2,2,0,0,1-.61,1.5,2.65,2.65,0,0,1-1.87.58H352.87v7.67H365.6a2.85,2.85,0,0,1,1.94.59,2.07,2.07,0,0,1,.65,1.59,2,2,0,0,1-.65,1.56,2.8,2.8,0,0,1-1.94.6H350.75a2.87,2.87,0,0,1-3.35-3.35V51.38a4.54,4.54,0,0,1,.35-1.92,2.2,2.2,0,0,1,1.1-1.09,4.52,4.52,0,0,1,1.9-.34h14.42a2.78,2.78,0,0,1,1.94.58,2.14,2.14,0,0,1,0,3A2.78,2.78,0,0,1,365.17,52.24Z"/></g></g></svg>