<svg xmlns="http://www.w3.org/2000/svg" viewBox="0 0 219.68 61.74">
  <defs>
    <style>
      .cls-1 {
        fill: #de716b;
      }
    </style>
  </defs>
  <title>資產 2</title>
  <g id="圖層_2" data-name="圖層 2">
    <g id="圖層_1-2" data-name="圖層 1">
      <g>
        <path class="cls-1" d="M5.54,3.31V11H17.33V3.31A3.64,3.64,0,0,1,18.07.83,2.52,2.52,0,0,1,20,0a2.6,2.6,0,0,1,2,.82,3.53,3.53,0,0,1,.76,2.49V24.56a3.58,3.58,0,0,1-.77,2.5,2.62,2.62,0,0,1-2,.83,2.49,2.49,0,0,1-2-.84,3.68,3.68,0,0,1-.73-2.49V15.49H5.54v9.07a3.53,3.53,0,0,1-.78,2.5,2.58,2.58,0,0,1-2,.83,2.49,2.49,0,0,1-2-.84,3.68,3.68,0,0,1-.74-2.49V3.31A3.69,3.69,0,0,1,.8.83a2.49,2.49,0,0,1,2-.83,2.58,2.58,0,0,1,2,.82A3.54,3.54,0,0,1,5.54,3.31Z"/>
        <path class="cls-1" d="M45.91,24.37,44.62,21h-11l-1.29,3.46a12.44,12.44,0,0,1-1.28,2.73,2.06,2.06,0,0,1-1.75.71,2.56,2.56,0,0,1-1.82-.76,2.29,2.29,0,0,1-.79-1.71,3.87,3.87,0,0,1,.18-1.14c.12-.39.33-.94.61-1.64l6.9-17.51c.19-.5.43-1.1.7-1.81A9.27,9.27,0,0,1,36,1.56,3.62,3.62,0,0,1,37.24.43,3.76,3.76,0,0,1,39.12,0,3.83,3.83,0,0,1,41,.43a3.67,3.67,0,0,1,1.23,1.11A8,8,0,0,1,43.05,3c.22.52.49,1.21.82,2.08L50.92,22.5a8.67,8.67,0,0,1,.82,2.88A2.38,2.38,0,0,1,51,27.1a2.69,2.69,0,0,1-3,.56A2.48,2.48,0,0,1,47.2,27a5.74,5.74,0,0,1-.67-1.21C46.29,25.27,46.08,24.79,45.91,24.37ZM35.1,16.89h8L39.09,5.76Z"/>
        <path class="cls-1" d="M62.87,3.27l10.5,15.9v-16A3.51,3.51,0,0,1,74.05.78,2.25,2.25,0,0,1,75.86,0a2.36,2.36,0,0,1,1.86.78,3.51,3.51,0,0,1,.68,2.35V24.34c0,2.36-1,3.55-3,3.55a3.88,3.88,0,0,1-1.32-.22A3.4,3.4,0,0,1,73,27a6.2,6.2,0,0,1-1-1.07c-.3-.41-.59-.83-.88-1.26L60.94,9v15.8a3.33,3.33,0,0,1-.72,2.33,2.37,2.37,0,0,1-1.84.8,2.33,2.33,0,0,1-1.85-.8,3.43,3.43,0,0,1-.7-2.33V4a5.79,5.79,0,0,1,.29-2.08A2.93,2.93,0,0,1,57.28.52,3.14,3.14,0,0,1,59,0a3,3,0,0,1,1.26.24,3.1,3.1,0,0,1,.92.64,7.13,7.13,0,0,1,.81,1Z"/>
        <path class="cls-1" d="M87.76.46h7.12A19.32,19.32,0,0,1,99.64,1a8.78,8.78,0,0,1,3.61,1.94q4.2,3.6,4.21,11A21.58,21.58,0,0,1,107,18.3a13.39,13.39,0,0,1-1.31,3.62,11.15,11.15,0,0,1-2.26,2.87,9.18,9.18,0,0,1-2.38,1.57,10.79,10.79,0,0,1-2.76.83,21,21,0,0,1-3.34.24H87.87A4.45,4.45,0,0,1,85.63,27a2.11,2.11,0,0,1-1-1.27,8.28,8.28,0,0,1-.23-2.13V3.81a3.5,3.5,0,0,1,.79-2.56A3.5,3.5,0,0,1,87.76.46Zm2.11,4.32v18.3H94c.91,0,1.62,0,2.14-.07a6.68,6.68,0,0,0,1.6-.37,4.28,4.28,0,0,0,1.43-.82q2.75-2.33,2.74-8a11.82,11.82,0,0,0-1.2-6,5.4,5.4,0,0,0-3-2.52,14.38,14.38,0,0,0-4.27-.55Z"/>
        <path class="cls-1" d="M121.36,23.36,117,6.18V24.79a3.37,3.37,0,0,1-.69,2.32,2.51,2.51,0,0,1-3.63,0,3.33,3.33,0,0,1-.7-2.33V3.46a2.67,2.67,0,0,1,.92-2.38,4.4,4.4,0,0,1,2.48-.62h1.7a6.27,6.27,0,0,1,2.21.28,1.83,1.83,0,0,1,1,1,15.25,15.25,0,0,1,.76,2.34L125,18.84l3.91-14.77a15.25,15.25,0,0,1,.76-2.34,1.83,1.83,0,0,1,1-1,6.27,6.27,0,0,1,2.21-.28h1.7a4.4,4.4,0,0,1,2.48.62A2.67,2.67,0,0,1,138,3.46V24.79a3.37,3.37,0,0,1-.69,2.32,2.35,2.35,0,0,1-1.85.78,2.28,2.28,0,0,1-1.78-.78,3.32,3.32,0,0,1-.7-2.32V6.18l-4.32,17.18c-.29,1.12-.52,1.93-.69,2.46a3.41,3.41,0,0,1-1,1.42,2.86,2.86,0,0,1-2,.65,3,3,0,0,1-1.62-.42,2.83,2.83,0,0,1-1-1.06A5.64,5.64,0,0,1,121.8,25Z"/>
        <path class="cls-1" d="M160.89,24.37,159.61,21h-11l-1.28,3.46a12.83,12.83,0,0,1-1.29,2.73,2.06,2.06,0,0,1-1.75.71,2.58,2.58,0,0,1-1.82-.76,2.29,2.29,0,0,1-.79-1.71,3.87,3.87,0,0,1,.18-1.14c.13-.39.33-.94.61-1.64l6.9-17.51c.19-.5.43-1.1.71-1.81A9.29,9.29,0,0,1,151,1.56,3.62,3.62,0,0,1,152.22.43a4.39,4.39,0,0,1,3.79,0,3.67,3.67,0,0,1,1.23,1.11A7.43,7.43,0,0,1,158,3c.22.52.49,1.21.82,2.08L165.9,22.5a8.76,8.76,0,0,1,.83,2.88,2.4,2.4,0,0,1-.79,1.72,2.69,2.69,0,0,1-3,.56,2.48,2.48,0,0,1-.77-.63,5.74,5.74,0,0,1-.67-1.21C161.27,25.27,161.07,24.79,160.89,24.37Zm-10.81-7.48h8L154.07,5.76Z"/>
        <path class="cls-1" d="M176.24,3.31v9.46L187,1.58A9,9,0,0,1,188.27.39,2.46,2.46,0,0,1,189.72,0a2.64,2.64,0,0,1,1.9.69,2.21,2.21,0,0,1,.73,1.68,3.37,3.37,0,0,1-1.23,2.38L184.48,11l7.65,11a13.12,13.12,0,0,1,1.21,2,3.86,3.86,0,0,1,.41,1.66,2.07,2.07,0,0,1-.71,1.56,2.67,2.67,0,0,1-1.92.67,3.29,3.29,0,0,1-1.86-.49A4.35,4.35,0,0,1,188,26.1c-.33-.54-.62-1-.88-1.47l-6.45-9.93L176.24,19v5.58a3.54,3.54,0,0,1-.78,2.51,2.61,2.61,0,0,1-2,.82,2.74,2.74,0,0,1-1.35-.37,2.57,2.57,0,0,1-1-1,3.11,3.11,0,0,1-.31-1.19c0-.45-.06-1.11-.06-2v-20A3.64,3.64,0,0,1,171.5.83a2.49,2.49,0,0,1,2-.83,2.58,2.58,0,0,1,2,.82A3.54,3.54,0,0,1,176.24,3.31Z"/>
        <path class="cls-1" d="M216.39,4.67H204.08v6.62h11.34a2.65,2.65,0,0,1,1.86.57,1.89,1.89,0,0,1,.62,1.48,1.94,1.94,0,0,1-.61,1.49,2.6,2.6,0,0,1-1.87.58H204.08v7.67h12.73a2.77,2.77,0,0,1,1.94.6,2,2,0,0,1,.66,1.59,2,2,0,0,1-.66,1.56,2.77,2.77,0,0,1-1.94.6H202a3.5,3.5,0,0,1-2.57-.8,3.52,3.52,0,0,1-.78-2.55V3.81A4.54,4.54,0,0,1,199,1.89,2.18,2.18,0,0,1,200.06.8,4.6,4.6,0,0,1,202,.46h14.42a2.78,2.78,0,0,1,1.94.58A2,2,0,0,1,219,2.56a2,2,0,0,1-.63,1.53A2.78,2.78,0,0,1,216.39,4.67Z"/>
      </g>
      <g>
        <path class="cls-1" d="M11.55,61.28H3.31a3.43,3.43,0,0,1-2.55-.8A3.62,3.62,0,0,1,0,57.93V37.66a3.54,3.54,0,0,1,.78-2.57,3.48,3.48,0,0,1,2.53-.78h8.74a20.37,20.37,0,0,1,3.35.24,7.15,7.15,0,0,1,2.53.92,6.68,6.68,0,0,1,1.7,1.44,6.5,6.5,0,0,1,1.12,1.94,6.37,6.37,0,0,1,.38,2.23c0,2.7-1.34,4.67-4,5.92q5.31,1.7,5.31,6.59a7.38,7.38,0,0,1-1.15,4.07,7,7,0,0,1-3.13,2.68,11.69,11.69,0,0,1-2.83.73A29.24,29.24,0,0,1,11.55,61.28ZM5.46,38.41v7h5A10,10,0,0,0,13.62,45a3,3,0,0,0,1.7-1.47,3.29,3.29,0,0,0,.46-1.73,2.69,2.69,0,0,0-1.45-2.72,11.25,11.25,0,0,0-4.43-.67ZM11.15,49.3H5.46v7.88h5.87c3.69,0,5.54-1.34,5.54-4a3.26,3.26,0,0,0-1.44-3A8,8,0,0,0,11.15,49.3Z"/>
        <path class="cls-1" d="M46.72,58.22l-1.29-3.38h-11L33.18,58.3A11.69,11.69,0,0,1,31.89,61a2,2,0,0,1-1.74.71A2.56,2.56,0,0,1,28.32,61a2.33,2.33,0,0,1-.79-1.71,3.58,3.58,0,0,1,.19-1.14c.12-.39.32-.94.6-1.63L35.22,39l.71-1.81a9.47,9.47,0,0,1,.88-1.75,3.67,3.67,0,0,1,1.24-1.14,3.82,3.82,0,0,1,1.88-.43,3.87,3.87,0,0,1,1.9.43,3.72,3.72,0,0,1,1.24,1.12,8.19,8.19,0,0,1,.79,1.46c.21.52.49,1.22.82,2.09l7,17.4a8.74,8.74,0,0,1,.83,2.89A2.42,2.42,0,0,1,51.77,61a2.57,2.57,0,0,1-1.89.78,2.45,2.45,0,0,1-1.1-.23,2.16,2.16,0,0,1-.77-.63,5.69,5.69,0,0,1-.68-1.21C47.1,59.12,46.89,58.64,46.72,58.22ZM35.9,50.74H44L39.89,39.61Z"/>
        <path class="cls-1" d="M65.83,37.16v9.46L76.55,35.43a9.1,9.1,0,0,1,1.32-1.19,2.41,2.41,0,0,1,1.44-.39,2.64,2.64,0,0,1,1.9.69,2.21,2.21,0,0,1,.73,1.68,3.37,3.37,0,0,1-1.23,2.38l-6.64,6.29,7.65,11a13.63,13.63,0,0,1,1.21,2,3.86,3.86,0,0,1,.41,1.66,2.11,2.11,0,0,1-.71,1.57,2.7,2.7,0,0,1-1.92.66,3.29,3.29,0,0,1-1.86-.49A4.35,4.35,0,0,1,77.63,60c-.33-.54-.62-1-.88-1.47L70.3,48.55l-4.47,4.28v5.58a3.53,3.53,0,0,1-.78,2.51,2.61,2.61,0,0,1-2,.82,2.74,2.74,0,0,1-1.35-.37,2.61,2.61,0,0,1-1-1,3.42,3.42,0,0,1-.31-1.2c0-.45-.06-1.11-.06-2V37.16a3.64,3.64,0,0,1,.73-2.48,2.49,2.49,0,0,1,2-.83,2.62,2.62,0,0,1,2,.82A3.55,3.55,0,0,1,65.83,37.16Z"/>
        <path class="cls-1" d="M109.75,38.52H97.44v6.63h11.33a2.66,2.66,0,0,1,1.87.56,1.89,1.89,0,0,1,.62,1.48,2,2,0,0,1-.61,1.5,2.66,2.66,0,0,1-1.88.58H97.44v7.67h12.73a2.81,2.81,0,0,1,1.94.59,2,2,0,0,1,.65,1.6,2,2,0,0,1-.65,1.55,2.77,2.77,0,0,1-1.94.6H95.33A2.86,2.86,0,0,1,92,57.93V37.66a4.54,4.54,0,0,1,.35-1.92,2.18,2.18,0,0,1,1.09-1.09,4.57,4.57,0,0,1,1.91-.34h14.42a2.78,2.78,0,0,1,1.94.58,2.16,2.16,0,0,1,0,3A2.78,2.78,0,0,1,109.75,38.52Z"/>
        <path class="cls-1" d="M138.38,38.82h-6V58.41a3.62,3.62,0,0,1-.75,2.51,2.54,2.54,0,0,1-1.95.82,2.58,2.58,0,0,1-2-.83,3.58,3.58,0,0,1-.76-2.5V38.82h-6a3,3,0,0,1-2.08-.62,2.1,2.1,0,0,1-.68-1.63,2.07,2.07,0,0,1,.71-1.65,3,3,0,0,1,2-.61h17.36a3,3,0,0,1,2.11.63,2.09,2.09,0,0,1,.69,1.63,2,2,0,0,1-.7,1.63A3.1,3.1,0,0,1,138.38,38.82Z"/>
        <path class="cls-1" d="M148.41,58.41V37.16a3.59,3.59,0,0,1,.75-2.48,2.52,2.52,0,0,1,2-.83,2.64,2.64,0,0,1,2,.82,3.6,3.6,0,0,1,.76,2.49V58.41a3.63,3.63,0,0,1-.76,2.5,2.61,2.61,0,0,1-2,.83,2.51,2.51,0,0,1-1.94-.84A3.58,3.58,0,0,1,148.41,58.41Z"/>
        <path class="cls-1" d="M172.85,57.21,168.53,40V58.65a3.36,3.36,0,0,1-.69,2.31,2.32,2.32,0,0,1-1.83.78A2.35,2.35,0,0,1,164.2,61a3.37,3.37,0,0,1-.7-2.32V37.31a2.67,2.67,0,0,1,.92-2.38,4.43,4.43,0,0,1,2.49-.62h1.69a6.3,6.3,0,0,1,2.22.28,1.83,1.83,0,0,1,1,1,15.48,15.48,0,0,1,.75,2.34l3.92,14.77,3.92-14.77a15.48,15.48,0,0,1,.75-2.34,1.83,1.83,0,0,1,1-1,6.3,6.3,0,0,1,2.22-.28h1.69a4.4,4.4,0,0,1,2.48.62,2.65,2.65,0,0,1,.92,2.38V58.65a3.36,3.36,0,0,1-.69,2.31,2.34,2.34,0,0,1-1.85.78,2.29,2.29,0,0,1-1.78-.78,3.31,3.31,0,0,1-.7-2.31V40l-4.32,17.18q-.42,1.68-.69,2.46a3.47,3.47,0,0,1-1,1.42,2.89,2.89,0,0,1-2,.65,3,3,0,0,1-1.62-.42,2.88,2.88,0,0,1-1-1,5.87,5.87,0,0,1-.58-1.43C173.14,58.32,173,57.78,172.85,57.21Z"/>
        <path class="cls-1" d="M216.66,38.52H204.35v6.63h11.34a2.65,2.65,0,0,1,1.86.56,1.89,1.89,0,0,1,.62,1.48,2,2,0,0,1-.61,1.5,2.65,2.65,0,0,1-1.87.58H204.35v7.67h12.73a2.81,2.81,0,0,1,1.94.59,2.05,2.05,0,0,1,.66,1.6,2,2,0,0,1-.66,1.55,2.77,2.77,0,0,1-1.94.6H202.24a2.86,2.86,0,0,1-3.35-3.35V37.66a4.54,4.54,0,0,1,.35-1.92,2.18,2.18,0,0,1,1.09-1.09,4.6,4.6,0,0,1,1.91-.34h14.42a2.78,2.78,0,0,1,1.94.58,2.14,2.14,0,0,1,0,3A2.78,2.78,0,0,1,216.66,38.52Z"/>
      </g>
    </g>
  </g>
</svg>
