<svg xmlns="http://www.w3.org/2000/svg" viewBox="0 0 23.56 8.05">
  <defs>
    <style>
      .cls-1 {
        fill: #fff;
      }
    </style>
  </defs>
  <title>資產 6</title>
  <g id="圖層_2" data-name="圖層 2">
    <g id="圖層_1-2" data-name="圖層 1">
      <g>
        <polygon class="cls-1" points="22.07 1.07 23.56 0 22.49 1.49 23.56 2.98 22.07 1.91 20.58 2.98 21.65 1.49 20.58 0 22.07 1.07"/>
        <polygon class="cls-1" points="16.93 1.07 18.42 0 17.35 1.49 18.42 2.98 16.93 1.91 15.44 2.98 16.51 1.49 15.44 0 16.93 1.07"/>
        <polygon class="cls-1" points="11.78 1.07 13.27 0 12.2 1.49 13.27 2.98 11.78 1.91 10.29 2.98 11.36 1.49 10.29 0 11.78 1.07"/>
        <polygon class="cls-1" points="6.64 1.07 8.13 0 7.06 1.49 8.13 2.98 6.64 1.91 5.14 2.98 6.21 1.49 5.14 0 6.64 1.07"/>
        <polygon class="cls-1" points="1.49 1.07 2.98 0 1.91 1.49 2.98 2.98 1.49 1.91 0 2.98 1.07 1.49 0 0 1.49 1.07"/>
        <polygon class="cls-1" points="22.07 6.13 23.56 5.06 22.49 6.55 23.56 8.05 22.07 6.98 20.58 8.05 21.65 6.55 20.58 5.06 22.07 6.13"/>
        <polygon class="cls-1" points="16.93 6.13 18.42 5.06 17.35 6.55 18.42 8.05 16.93 6.98 15.44 8.05 16.51 6.55 15.44 5.06 16.93 6.13"/>
        <polygon class="cls-1" points="11.78 6.13 13.27 5.06 12.2 6.55 13.27 8.05 11.78 6.98 10.29 8.05 11.36 6.55 10.29 5.06 11.78 6.13"/>
        <polygon class="cls-1" points="6.64 6.13 8.13 5.06 7.06 6.55 8.13 8.05 6.64 6.98 5.14 8.05 6.21 6.55 5.14 5.06 6.64 6.13"/>
        <polygon class="cls-1" points="1.49 6.13 2.98 5.06 1.91 6.55 2.98 8.05 1.49 6.98 0 8.05 1.07 6.55 0 5.06 1.49 6.13"/>
      </g>
    </g>
  </g>
</svg>
