<svg xmlns="http://www.w3.org/2000/svg" viewBox="0 0 30.78 17.11">
  <defs>
    <style>
      .cls-1 {
        fill: #633e37;
      }
    </style>
  </defs>
  <title>資產 15</title>
  <g id="圖層_2" data-name="圖層 2">
    <g id="圖層_1-2" data-name="圖層 1">
      <g>
        <path class="cls-1" d="M0,10.2,5.4,2.54h0L22.33,0l8.45,7.9L23,17.11h0l-16.9-.33,0,0ZM5.5,2.7.22,10.19l5.92,6.42,16.78.32,7.62-9L22.27.19Z"/>
        <path class="cls-1" d="M5.9,10.52,8.15,7.17h0L20.93,5.55l3.53,2.87-2.89,3.27h0L8.7,12.94l0,0ZM8.25,7.33,6.14,10.49l2.62,2.27,12.72-1.23L24.2,8.44l-3.32-2.7Z"/>
        <rect class="cls-1" x="24.32" y="8.09" width="6.2" height="0.18" transform="translate(-0.58 2.29) rotate(-4.74)"/>
        <rect class="cls-1" x="22.15" y="11.52" width="0.17" height="5.6" transform="matrix(0.97, -0.26, 0.26, 0.97, -2.93, 6.19)"/>
        <polygon class="cls-1" points="20.82 5.62 22.21 0.07 22.38 0.11 20.99 5.67 20.82 5.62"/>
        <polygon class="cls-1" points="5.37 2.67 5.52 2.58 8.27 7.21 8.12 7.3 5.37 2.67"/>
        <polygon class="cls-1" points="0.11 10.28 0.12 10.11 6.02 10.42 6.01 10.6 0.11 10.28"/>
        <polygon class="cls-1" points="6.03 16.65 8.66 12.8 8.8 12.9 6.17 16.75 6.03 16.65"/>
        <polygon class="cls-1" points="5.41 2.7 5.48 2.54 14.68 6.18 22.14 0.04 22.25 0.18 14.71 6.38 5.41 2.7"/>
        <polygon class="cls-1" points="6.06 16.62 15.38 12.19 15.43 12.21 23 16.94 22.91 17.09 15.37 12.38 6.14 16.78 6.06 16.62"/>
        <polygon class="cls-1" points="24.22 8.44 26.8 4.4 26.94 4.49 24.44 8.42 27.44 11.73 27.31 11.85 24.22 8.44"/>
        <polygon class="cls-1" points="2.8 6.33 2.94 6.22 6.13 10.51 3.5 13.79 3.37 13.68 5.91 10.51 2.8 6.33"/>
      </g>
    </g>
  </g>
</svg>
