<svg xmlns="http://www.w3.org/2000/svg" viewBox="0 0 11.1 9.82">
  <defs>
    <style>
      .cls-1 {
        fill: #633e37;
      }
    </style>
  </defs>
  <title>資產 17</title>
  <g id="圖層_2" data-name="圖層 2">
    <g id="圖層_1-2" data-name="圖層 1">
      <g>
        <path class="cls-1" d="M1,0A4.53,4.53,0,0,0,0,.1,4.9,4.9,0,0,1,3.93,4.91,4.92,4.92,0,0,1,0,9.72a5.25,5.25,0,0,0,1,.1A4.91,4.91,0,0,0,1,0Z"/>
        <path class="cls-1" d="M10.12,0a4.53,4.53,0,0,1,1,.1,4.91,4.91,0,0,0,0,9.62,5.25,5.25,0,0,1-1,.1,4.91,4.91,0,0,1,0-9.82Z"/>
      </g>
    </g>
  </g>
</svg>
