<svg xmlns="http://www.w3.org/2000/svg" viewBox="0 0 2.99 19.24">
  <defs>
    <style>
      .cls-1 {
        fill: #fff;
      }
    </style>
  </defs>
  <title>資產 7</title>
  <g id="圖層_2" data-name="圖層 2">
    <g id="圖層_1-2" data-name="圖層 1">
      <g>
        <path class="cls-1" d="M2.49,0A2.73,2.73,0,0,1,3,.05,2.49,2.49,0,0,0,3,4.93a2.73,2.73,0,0,1-.5.05,2.49,2.49,0,0,1,0-5Z"/>
        <path class="cls-1" d="M2.49,7.13a2.73,2.73,0,0,1,.5,0,2.49,2.49,0,0,0,0,4.88,2.73,2.73,0,0,1-.5,0,2.49,2.49,0,0,1,0-5Z"/>
        <path class="cls-1" d="M2.49,14.26a2.73,2.73,0,0,1,.5.05,2.49,2.49,0,0,0,0,4.88,2.07,2.07,0,0,1-.5,0,2.49,2.49,0,0,1,0-5Z"/>
      </g>
    </g>
  </g>
</svg>
