<svg xmlns="http://www.w3.org/2000/svg" xmlns:xlink="http://www.w3.org/1999/xlink" viewBox="0 0 225.89 225.89">
  <defs>
    <style>
      .cls-1 {
        fill: #e0baaa;
      }

      .cls-2 {
        opacity: 0.71;
      }

      .cls-3 {
        fill: #dbb58d;
      }

      .cls-4 {
        isolation: isolate;
        font-size: 15.74px;
        fill: #633e37;
        font-family: Oswald-Regular, Oswald;
      }

      .cls-5 {
        fill: #ededed;
      }

      .cls-6 {
        fill: #312219;
      }

      .cls-7 {
        fill: #6a4d3c;
      }

      .cls-18, .cls-8 {
        fill: #915e3c;
      }

      .cls-9 {
        fill: #e5ddb3;
      }

      .cls-10 {
        fill: #3b291f;
      }

      .cls-11 {
        fill: #b63330;
      }

      .cls-12 {
        fill: #832729;
      }

      .cls-13 {
        fill: url(#linear-gradient);
      }

      .cls-14 {
        fill: #e49933;
      }

      .cls-15, .cls-19, .cls-22 {
        fill: #fff;
      }

      .cls-15 {
        opacity: 0.4;
      }

      .cls-16 {
        fill: url(#linear-gradient-2);
      }

      .cls-17 {
        fill: #e0d6a3;
      }

      .cls-18, .cls-22 {
        opacity: 0.5;
      }

      .cls-19 {
        opacity: 0.15;
      }

      .cls-20 {
        fill: url(#linear-gradient-3);
      }

      .cls-21 {
        fill: #e2d5b6;
      }

      .cls-23 {
        fill: #d2b874;
      }

      .cls-24 {
        fill: url(#linear-gradient-4);
      }
    </style>
    <linearGradient id="linear-gradient" x1="125.99" y1="51.15" x2="126.48" y2="58.73" gradientUnits="userSpaceOnUse">
      <stop offset="0" stop-color="#c73e33"/>
      <stop offset="1" stop-color="#c73e33" stop-opacity="0"/>
    </linearGradient>
    <linearGradient id="linear-gradient-2" x1="98.57" y1="51.14" x2="99.19" y2="60.97" xlink:href="#linear-gradient"/>
    <linearGradient id="linear-gradient-3" x1="51.82" y1="87.94" x2="107.88" y2="87.94" gradientUnits="userSpaceOnUse">
      <stop offset="0" stop-color="#8c6b5a"/>
      <stop offset="1" stop-color="#795948" stop-opacity="0"/>
    </linearGradient>
    <linearGradient id="linear-gradient-4" x1="161.28" y1="59.45" x2="138.12" y2="57.03" xlink:href="#linear-gradient-3"/>
  </defs>
  <title>CAKE1</title>
  <g id="圖層_2" data-name="圖層 2">
    <g id="圖層_1-2" data-name="圖層 1">
      <g id="圖層_1-2-2" data-name="圖層 1-2">
        <rect class="cls-1" width="225.89" height="225.89"/>
        <g class="cls-2">
          <rect class="cls-3" y="181.21" width="225.89" height="44.68"/>
        </g>
        <text class="cls-4" transform="translate(88.65 209.49)">CLASSIC</text>
        <g>
          <path class="cls-5" d="M48.5,179.33s101.81-13.73,120.74-29.86-6.2-22.09-6.2-22.09Z"/>
          <path class="cls-6" d="M153.4,153.11s14.34-4.86,16.16-11.79,16.78-66.39-6.2-85-73.32-12-77-8.76c-3.31,3-37.49,59.27-37.49,59.27s-.36,2.38-.4,2.62C48.1,112.09,153.4,153.11,153.4,153.11Z"/>
          <path class="cls-7" d="M167.61,60.77a25.19,25.19,0,0,0-4.25-4.44c-23-18.61-73.32-12-77-8.76S49.3,104.22,48.9,106.84c0,0,43.67-15.58,62.79-22.91C138.26,73.74,162.15,66.4,167.61,60.77Z"/>
          <path class="cls-8" d="M47,170.82c.75,5.52,1.49,8.51,1.49,8.51,115-24.55,112.38-27,116.07-38.76.35-1.11.68-2.4,1-3.83C158.53,145.72,47.1,170.8,47,170.82Z"/>
          <path class="cls-8" d="M165.16,83.93c-2-7-5.08-11.6-9.7-11.56-11.55.1-107,37.09-107,37.09-.92,5.76-1.58,11.22-2,16.39C68.76,112,165.16,83.93,165.16,83.93Z"/>
          <path class="cls-9" d="M165.16,83.93h0s-96.4,28-118.71,41.92a202.09,202.09,0,0,0,.56,45c.09,0,111.52-25.1,118.55-34.08C168.35,123.74,169.33,98.65,165.16,83.93Z"/>
          <path class="cls-10" d="M88.73,68.66s18.46,3.22,27.13,1.35a145.11,145.11,0,0,1,18.36-2.64c3.83-.4,16.19-3.25,14-7.58s-19.88.32-19.88.32S88.64,64.71,88.73,68.66Z"/>
          <g>
            <path class="cls-11" d="M115.78,63.62c1.28,1.28,13.36,4,26,0s-16.25-20.23-21.67-14.45S114.15,62,115.78,63.62Z"/>
            <path class="cls-12" d="M117,64.25c3.61,1.29,14,2.76,24.76-.63,6.2-1.95,2.42-6.84-3.68-10.65h0S149.37,69.71,117,64.25Z"/>
            <path class="cls-13" d="M121.75,50.56c2.16-2.62,10.1,1.08,13.23,5.29s-15.41,7.71-17,5.3S119.1,53.79,121.75,50.56Z"/>
            <g>
              <path class="cls-12" d="M138.31,62.43c.42.11.72.37.67.6s-.45.32-.87.22-.73-.37-.67-.6S137.88,62.33,138.31,62.43Z"/>
              <path class="cls-14" d="M137.6,62.69s1.08.83,1.21.3S137.6,62.69,137.6,62.69Z"/>
            </g>
            <g>
              <path class="cls-12" d="M138.48,57.19c.43.1.73.37.67.6s-.44.32-.87.22-.72-.37-.67-.6S138.06,57.08,138.48,57.19Z"/>
              <path class="cls-14" d="M137.78,57.45s1.07.83,1.2.3S137.78,57.45,137.78,57.45Z"/>
            </g>
            <g>
              <path class="cls-12" d="M134.48,58.09c.43.11.73.37.67.6s-.45.32-.87.22-.73-.37-.67-.6S134.05,58,134.48,58.09Z"/>
              <path class="cls-14" d="M133.78,58.35s1.07.83,1.2.3S133.78,58.35,133.78,58.35Z"/>
            </g>
            <g>
              <path class="cls-12" d="M130.84,62.23c.43.11.73.37.67.6s-.44.32-.87.22-.72-.37-.67-.6S130.42,62.13,130.84,62.23Z"/>
              <path class="cls-14" d="M130.14,62.49s1.07.83,1.2.3S130.14,62.49,130.14,62.49Z"/>
            </g>
            <g>
              <path class="cls-12" d="M135.44,63.46c.42.1.72.37.67.6s-.45.32-.87.22-.73-.38-.67-.6S135,63.35,135.44,63.46Z"/>
              <path class="cls-14" d="M134.73,63.72s1.08.82,1.21.29S134.73,63.72,134.73,63.72Z"/>
            </g>
            <g>
              <path class="cls-12" d="M140,60.32c.42.1.72.37.67.6s-.45.32-.88.22-.72-.37-.66-.6S139.61,60.22,140,60.32Z"/>
              <path class="cls-14" d="M139.33,60.58s1.08.83,1.21.3S139.33,60.58,139.33,60.58Z"/>
            </g>
            <g>
              <path class="cls-12" d="M139.43,55.32c.43.1.73.37.67.59s-.44.33-.87.22-.72-.37-.67-.59S139,55.21,139.43,55.32Z"/>
              <path class="cls-14" d="M138.73,55.58s1.08.82,1.21.29S138.73,55.58,138.73,55.58Z"/>
            </g>
            <g>
              <path class="cls-12" d="M142.61,59.25c.42.11.72.38.67.6s-.45.33-.87.22-.73-.37-.67-.6S142.18,59.15,142.61,59.25Z"/>
              <path class="cls-14" d="M141.9,59.52s1.08.82,1.21.29S141.9,59.52,141.9,59.52Z"/>
            </g>
            <g>
              <path class="cls-12" d="M123.22,62.56c.43.1.73.37.67.59s-.44.33-.87.22-.72-.37-.67-.59S122.8,62.45,123.22,62.56Z"/>
              <path class="cls-14" d="M122.52,62.82s1.08.82,1.21.29S122.52,62.82,122.52,62.82Z"/>
            </g>
            <g>
              <path class="cls-12" d="M123.4,60.32c.42.1.72.37.67.6s-.45.32-.87.22-.73-.37-.67-.6S123,60.22,123.4,60.32Z"/>
              <path class="cls-14" d="M122.7,60.58s1.07.83,1.2.3S122.7,60.58,122.7,60.58Z"/>
            </g>
            <g>
              <path class="cls-12" d="M129,58.93c.43.1.73.37.67.6s-.44.32-.87.22-.72-.37-.67-.6S128.58,58.82,129,58.93Z"/>
              <path class="cls-14" d="M128.3,59.19s1.07.82,1.2.3S128.3,59.19,128.3,59.19Z"/>
            </g>
            <g>
              <path class="cls-12" d="M126.54,56.54c.42.1.72.37.67.6s-.45.32-.87.22-.73-.37-.67-.6S126.11,56.44,126.54,56.54Z"/>
              <path class="cls-14" d="M125.84,56.8s1.07.83,1.2.3S125.84,56.8,125.84,56.8Z"/>
            </g>
            <g>
              <path class="cls-12" d="M131.09,53.39c.42.1.72.37.67.59s-.45.33-.88.22-.72-.37-.67-.59S130.66,53.28,131.09,53.39Z"/>
              <path class="cls-14" d="M130.38,53.65s1.08.82,1.21.29S130.38,53.65,130.38,53.65Z"/>
            </g>
            <g>
              <path class="cls-12" d="M131.45,57.51c.43.11.73.38.67.6s-.44.33-.87.22-.72-.37-.67-.6S131,57.41,131.45,57.51Z"/>
              <path class="cls-14" d="M130.75,57.78s1.07.82,1.2.29S130.75,57.78,130.75,57.78Z"/>
            </g>
            <g>
              <path class="cls-12" d="M135.09,52.74c.43.1.73.37.67.59s-.44.33-.87.22-.72-.37-.67-.59S134.67,52.63,135.09,52.74Z"/>
              <path class="cls-14" d="M134.39,53s1.07.82,1.2.29S134.39,53,134.39,53Z"/>
            </g>
            <g>
              <path class="cls-12" d="M134.31,55c.43.11.73.37.67.6s-.44.32-.87.22-.72-.37-.67-.6S133.89,54.89,134.31,55Z"/>
              <path class="cls-14" d="M133.61,55.25s1.08.83,1.21.3S133.61,55.25,133.61,55.25Z"/>
            </g>
            <g>
              <path class="cls-12" d="M133.88,60.64c.42.11.72.38.67.6s-.45.33-.87.22-.73-.37-.67-.6S133.45,60.54,133.88,60.64Z"/>
              <path class="cls-14" d="M133.18,60.91s1.07.82,1.2.29S133.18,60.91,133.18,60.91Z"/>
            </g>
            <g>
              <path class="cls-12" d="M126.54,60.83c.42.11.72.38.67.6s-.45.33-.87.22-.73-.37-.67-.6S126.11,60.73,126.54,60.83Z"/>
              <path class="cls-14" d="M125.84,61.1s1.07.82,1.2.29S125.84,61.1,125.84,61.1Z"/>
            </g>
            <g>
              <path class="cls-12" d="M126.71,50.71c.43.1.73.37.67.59s-.44.33-.87.22-.72-.37-.67-.59S126.29,50.6,126.71,50.71Z"/>
              <path class="cls-14" d="M126,51s1.08.82,1.21.29S126,51,126,51Z"/>
            </g>
            <g>
              <path class="cls-12" d="M121.42,50.51c.42.1.72.37.67.59s-.45.33-.87.22-.73-.37-.67-.59S121,50.4,121.42,50.51Z"/>
              <path class="cls-14" d="M120.72,50.77s1.07.82,1.2.29S120.72,50.77,120.72,50.77Z"/>
            </g>
            <g>
              <path class="cls-12" d="M125.16,52.93c.43.11.73.38.67.6s-.45.33-.87.22-.73-.37-.67-.6S124.73,52.83,125.16,52.93Z"/>
              <path class="cls-14" d="M124.46,53.2s1.07.82,1.2.29S124.46,53.2,124.46,53.2Z"/>
            </g>
            <g>
              <path class="cls-12" d="M122,54.54c.42.11.72.37.67.6s-.45.32-.87.22-.73-.37-.67-.6S121.6,54.44,122,54.54Z"/>
              <path class="cls-14" d="M121.33,54.8s1.07.83,1.2.3S121.33,54.8,121.33,54.8Z"/>
            </g>
            <g>
              <path class="cls-12" d="M123.84,57.19c.42.1.72.37.66.6s-.44.32-.87.22-.72-.37-.67-.6S123.41,57.08,123.84,57.19Z"/>
              <path class="cls-14" d="M123.13,57.45s1.08.83,1.21.3S123.13,57.45,123.13,57.45Z"/>
            </g>
            <g>
              <path class="cls-12" d="M117.89,57.84c.43.1.73.37.67.6s-.44.32-.87.22-.72-.37-.67-.6S117.47,57.73,117.89,57.84Z"/>
              <path class="cls-14" d="M117.19,58.1s1.08.83,1.21.3S117.19,58.1,117.19,58.1Z"/>
            </g>
            <g>
              <path class="cls-12" d="M120.48,60.77c.42.1.72.37.66.6s-.44.32-.87.22-.72-.37-.67-.6S120.05,60.67,120.48,60.77Z"/>
              <path class="cls-14" d="M119.77,61s1.08.83,1.21.3S119.77,61,119.77,61Z"/>
            </g>
            <path class="cls-15" d="M119.83,54.17c.9.63,3.13-2.82,2.59-3.85C121.38,48.35,118.45,53.19,119.83,54.17Z"/>
          </g>
          <g>
            <path class="cls-11" d="M85.33,67.31c1.66,1.65,17.32,5.15,33.7,0S98,41.09,91,48.58,83.22,65.2,85.33,67.31Z"/>
            <path class="cls-12" d="M86.93,68.12c4.68,1.68,18.13,3.58,32.1-.81,8-2.53,3.13-8.87-4.77-13.8h0S128.86,75.21,86.93,68.12Z"/>
            <path class="cls-16" d="M93.07,50.39c2.79-3.4,13.09,1.39,17.15,6.85s-20,10-22,6.87S89.63,54.56,93.07,50.39Z"/>
            <g>
              <path class="cls-12" d="M114.53,65.77c.55.13.94.48.86.77s-.57.42-1.12.29-.94-.48-.87-.78S114,65.63,114.53,65.77Z"/>
              <path class="cls-14" d="M113.62,66.11s1.39,1.07,1.56.38S113.62,66.11,113.62,66.11Z"/>
            </g>
            <g>
              <path class="cls-12" d="M114.75,59c.56.13.94.48.87.77s-.58.42-1.13.29-.94-.49-.87-.78S114.2,58.84,114.75,59Z"/>
              <path class="cls-14" d="M113.84,59.31s1.4,1.07,1.56.39S113.84,59.31,113.84,59.31Z"/>
            </g>
            <g>
              <path class="cls-12" d="M109.57,60.14c.55.14.94.49.87.78s-.58.42-1.13.28-.94-.48-.87-.77S109,60,109.57,60.14Z"/>
              <path class="cls-14" d="M108.66,60.48s1.39,1.07,1.56.39S108.66,60.48,108.66,60.48Z"/>
            </g>
            <g>
              <path class="cls-12" d="M104.85,65.51c.55.14.94.48.87.78s-.58.42-1.13.28-.94-.48-.87-.77S104.3,65.38,104.85,65.51Z"/>
              <path class="cls-14" d="M103.94,65.85s1.39,1.07,1.56.38S103.94,65.85,103.94,65.85Z"/>
            </g>
            <g>
              <path class="cls-12" d="M110.81,67.1c.55.14.94.48.87.78s-.58.42-1.13.28-.94-.48-.87-.77S110.26,67,110.81,67.1Z"/>
              <path class="cls-14" d="M109.9,67.44s1.39,1.07,1.56.38S109.9,67.44,109.9,67.44Z"/>
            </g>
            <g>
              <path class="cls-12" d="M116.77,63c.55.14.94.48.86.78s-.57.42-1.12.28-.94-.48-.87-.77S116.21,62.9,116.77,63Z"/>
              <path class="cls-14" d="M115.86,63.37s1.39,1.07,1.56.38S115.86,63.37,115.86,63.37Z"/>
            </g>
            <g>
              <path class="cls-12" d="M116,56.55c.55.13.94.48.87.77s-.58.42-1.13.29-.94-.48-.87-.78S115.43,56.41,116,56.55Z"/>
              <path class="cls-14" d="M115.08,56.89s1.39,1.07,1.56.38S115.08,56.89,115.08,56.89Z"/>
            </g>
            <g>
              <path class="cls-12" d="M120.1,61.65c.55.14.94.48.87.78s-.58.42-1.13.28-.94-.48-.87-.77S119.55,61.52,120.1,61.65Z"/>
              <path class="cls-14" d="M119.19,62s1.39,1.07,1.56.38S119.19,62,119.19,62Z"/>
            </g>
            <g>
              <path class="cls-12" d="M95,65.93c.55.14.94.48.87.78s-.58.42-1.13.28-.94-.48-.87-.77S94.43,65.8,95,65.93Z"/>
              <path class="cls-14" d="M94.07,66.27s1.39,1.07,1.56.38S94.07,66.27,94.07,66.27Z"/>
            </g>
            <g>
              <path class="cls-12" d="M95.21,63c.55.14.94.48.86.78s-.57.42-1.12.28-1-.48-.87-.77S94.65,62.9,95.21,63Z"/>
              <path class="cls-14" d="M94.3,63.37s1.39,1.07,1.56.38S94.3,63.37,94.3,63.37Z"/>
            </g>
            <g>
              <path class="cls-12" d="M102.47,61.23c.55.14.94.48.87.77s-.58.43-1.13.29-.94-.48-.87-.77S101.92,61.09,102.47,61.23Z"/>
              <path class="cls-14" d="M101.56,61.57s1.39,1.07,1.56.38S101.56,61.57,101.56,61.57Z"/>
            </g>
            <g>
              <path class="cls-12" d="M99.27,58.13c.56.14,1,.49.87.78s-.57.42-1.12.28-1-.48-.87-.77S98.72,58,99.27,58.13Z"/>
              <path class="cls-14" d="M98.37,58.47s1.39,1.07,1.56.38S98.37,58.47,98.37,58.47Z"/>
            </g>
            <g>
              <path class="cls-12" d="M105.17,54.05c.55.13.94.48.87.77s-.58.42-1.13.29-.94-.49-.87-.78S104.61,53.91,105.17,54.05Z"/>
              <path class="cls-14" d="M104.26,54.38s1.39,1.07,1.56.39S104.26,54.38,104.26,54.38Z"/>
            </g>
            <g>
              <path class="cls-12" d="M105.64,59.4c.55.13.94.48.87.77s-.58.42-1.13.29-.94-.48-.87-.78S105.09,59.26,105.64,59.4Z"/>
              <path class="cls-14" d="M104.73,59.74s1.39,1.06,1.56.38S104.73,59.74,104.73,59.74Z"/>
            </g>
            <g>
              <path class="cls-12" d="M110.36,53.2c.55.14.94.49.87.78s-.58.42-1.13.28-.94-.48-.87-.77S109.81,53.07,110.36,53.2Z"/>
              <path class="cls-14" d="M109.45,53.54s1.39,1.07,1.56.38S109.45,53.54,109.45,53.54Z"/>
            </g>
            <g>
              <path class="cls-12" d="M109.35,56.13c.55.13.94.48.87.77s-.58.42-1.13.29-.94-.48-.87-.78S108.8,56,109.35,56.13Z"/>
              <path class="cls-14" d="M108.44,56.47s1.39,1.06,1.56.38S108.44,56.47,108.44,56.47Z"/>
            </g>
            <g>
              <path class="cls-12" d="M108.79,63.45c.55.14.94.49.87.78s-.58.42-1.13.28-.94-.48-.87-.77S108.24,63.32,108.79,63.45Z"/>
              <path class="cls-14" d="M107.88,63.79s1.39,1.07,1.56.38S107.88,63.79,107.88,63.79Z"/>
            </g>
            <g>
              <path class="cls-12" d="M99.27,63.7c.56.13,1,.48.87.77s-.57.42-1.12.29-1-.48-.87-.78S98.72,63.56,99.27,63.7Z"/>
              <path class="cls-14" d="M98.37,64s1.39,1.07,1.56.38S98.37,64,98.37,64Z"/>
            </g>
            <g>
              <path class="cls-12" d="M99.5,50.57c.55.14.94.48.87.78s-.58.42-1.13.28-.94-.48-.87-.77S99,50.44,99.5,50.57Z"/>
              <path class="cls-14" d="M98.59,50.91s1.39,1.07,1.56.38S98.59,50.91,98.59,50.91Z"/>
            </g>
            <g>
              <path class="cls-12" d="M92.64,50.31c.55.14.94.49.87.78s-.58.42-1.13.28-.94-.48-.87-.77S92.09,50.18,92.64,50.31Z"/>
              <path class="cls-14" d="M91.73,50.65s1.39,1.07,1.56.39S91.73,50.65,91.73,50.65Z"/>
            </g>
            <g>
              <path class="cls-12" d="M97.49,53.46c.55.14.94.48.87.78s-.58.42-1.13.28-.94-.48-.87-.77S96.94,53.33,97.49,53.46Z"/>
              <path class="cls-14" d="M96.58,53.8s1.39,1.07,1.56.38S96.58,53.8,96.58,53.8Z"/>
            </g>
            <g>
              <path class="cls-12" d="M93.43,55.54c.55.14.94.49.87.78s-.58.42-1.13.28-.94-.48-.87-.77S92.88,55.41,93.43,55.54Z"/>
              <path class="cls-14" d="M92.52,55.88s1.39,1.07,1.56.38S92.52,55.88,92.52,55.88Z"/>
            </g>
            <g>
              <path class="cls-12" d="M95.77,59c.55.13.94.48.87.77s-.58.42-1.13.29-.94-.49-.87-.78S95.22,58.84,95.77,59Z"/>
              <path class="cls-14" d="M94.86,59.31s1.39,1.07,1.56.39S94.86,59.31,94.86,59.31Z"/>
            </g>
            <g>
              <path class="cls-12" d="M88.07,59.82c.55.13.94.48.87.77s-.58.42-1.13.29-.94-.48-.87-.78S87.52,59.68,88.07,59.82Z"/>
              <path class="cls-14" d="M87.16,60.16s1.39,1.07,1.56.38S87.16,60.16,87.16,60.16Z"/>
            </g>
            <g>
              <path class="cls-12" d="M91.42,63.62c.55.13.94.48.86.77s-.57.42-1.13.29-.94-.48-.86-.78S90.86,63.48,91.42,63.62Z"/>
              <path class="cls-14" d="M90.51,64s1.39,1.06,1.56.38S90.51,64,90.51,64Z"/>
            </g>
            <path class="cls-15" d="M90.58,55.06c1.17.82,4-3.65,3.35-5C92.59,47.52,88.8,53.8,90.58,55.06Z"/>
          </g>
          <path class="cls-17" d="M150.73,99.11c0,1.33-.51,2.41-1.14,2.41s-1.14-1.08-1.14-2.41.51-2.42,1.14-2.42S150.73,97.78,150.73,99.11Z"/>
          <path class="cls-17" d="M142.92,123.43c0,1.33-.51,2.42-1.14,2.42s-1.15-1.09-1.15-2.42.51-2.41,1.15-2.41S142.92,122.1,142.92,123.43Z"/>
          <path class="cls-17" d="M157.28,127.37c0,1.34-.51,2.42-1.15,2.42s-1.14-1.08-1.14-2.42.51-2.41,1.14-2.41S157.28,126,157.28,127.37Z"/>
          <path class="cls-17" d="M133.07,128.22c0,3-1.16,5.46-2.59,5.46s-2.59-2.44-2.59-5.46,1.16-5.47,2.59-5.47S133.07,125.2,133.07,128.22Z"/>
          <path class="cls-17" d="M113.61,112.89c0,3-1.16,5.46-2.59,5.46s-2.59-2.44-2.59-5.46,1.16-5.46,2.59-5.46S113.61,109.87,113.61,112.89Z"/>
          <path class="cls-17" d="M162.36,130.82c0,3-1.16,5.47-2.59,5.47s-2.59-2.45-2.59-5.47,1.16-5.46,2.59-5.46S162.36,127.81,162.36,130.82Z"/>
          <path class="cls-17" d="M60.13,127.08c0,.94-.37,1.71-.82,1.71s-.81-.77-.81-1.71.36-1.72.81-1.72S60.13,126.13,60.13,127.08Z"/>
          <path class="cls-17" d="M108.64,125.92c0,.89-.33,1.6-.75,1.6s-.76-.71-.76-1.6.34-1.6.76-1.6S108.64,125,108.64,125.92Z"/>
          <path class="cls-17" d="M140.44,113.85c0,3-1.15,5.47-2.59,5.47s-2.58-2.45-2.58-5.47,1.15-5.46,2.58-5.46S140.44,110.83,140.44,113.85Z"/>
          <path class="cls-17" d="M97.71,145.23c0,3-1.16,5.47-2.59,5.47s-2.59-2.45-2.59-5.47,1.16-5.46,2.59-5.46S97.71,142.22,97.71,145.23Z"/>
          <path class="cls-17" d="M70.54,143.51c0,3-1.16,5.47-2.59,5.47s-2.59-2.45-2.59-5.47,1.16-5.46,2.59-5.46S70.54,140.49,70.54,143.51Z"/>
          <path class="cls-17" d="M124.5,116.58c0,1.34-.51,2.42-1.14,2.42s-1.15-1.08-1.15-2.42.51-2.41,1.15-2.41S124.5,115.25,124.5,116.58Z"/>
          <path class="cls-17" d="M89.12,120c0,1.34-.52,2.42-1.15,2.42s-1.14-1.08-1.14-2.42.51-2.41,1.14-2.41S89.12,118.66,89.12,120Z"/>
          <path class="cls-17" d="M81.4,144.31c0,1.34-.51,2.42-1.15,2.42s-1.14-1.08-1.14-2.42.51-2.41,1.14-2.41S81.4,143,81.4,144.31Z"/>
          <path class="cls-17" d="M65.36,137.47c0,1.33-.51,2.41-1.15,2.41s-1.14-1.08-1.14-2.41.51-2.42,1.14-2.42S65.36,136.13,65.36,137.47Z"/>
          <path class="cls-17" d="M55.56,160.13c0,2-.76,3.62-1.71,3.62s-1.72-1.62-1.72-3.62.77-3.62,1.72-3.62S55.56,158.13,55.56,160.13Z"/>
          <path class="cls-17" d="M117.53,120c0,1.34-.51,2.42-1.14,2.42s-1.15-1.08-1.15-2.42.51-2.41,1.15-2.41S117.53,118.66,117.53,120Z"/>
          <path class="cls-17" d="M109.72,144.31c0,1.34-.51,2.42-1.15,2.42s-1.14-1.08-1.14-2.42.51-2.41,1.14-2.41S109.72,143,109.72,144.31Z"/>
          <path class="cls-17" d="M92.53,137.47c0,1.33-.51,2.41-1.14,2.41s-1.14-1.08-1.14-2.41.51-2.42,1.14-2.42S92.53,136.13,92.53,137.47Z"/>
          <path class="cls-17" d="M125.77,137.35c0,1.34-.51,2.42-1.14,2.42s-1.15-1.08-1.15-2.42.52-2.41,1.15-2.41S125.77,136,125.77,137.35Z"/>
          <path class="cls-17" d="M74.44,133.92c0,1.33-.51,2.41-1.14,2.41s-1.14-1.08-1.14-2.41.51-2.42,1.14-2.42S74.44,132.58,74.44,133.92Z"/>
          <path class="cls-17" d="M147.19,112.89c0,1.33-.51,2.42-1.14,2.42s-1.15-1.09-1.15-2.42.51-2.41,1.15-2.41S147.19,111.56,147.19,112.89Z"/>
          <path class="cls-17" d="M158.42,106c0,1.34-.51,2.42-1.14,2.42s-1.15-1.08-1.15-2.42.51-2.41,1.15-2.41S158.42,104.71,158.42,106Z"/>
          <path class="cls-18" d="M167.74,101.36c-16.51,2.56-111.27,37.36-122.21,41.39-.1,5.51,0,10.48.25,14.86,27.23-14.4,122-40.69,122-40.69C168,111.82,168,106.49,167.74,101.36Z"/>
          <path class="cls-17" d="M139.09,102.49c0,1.34-.51,2.42-1.14,2.42s-1.15-1.08-1.15-2.42.52-2.41,1.15-2.41S139.09,101.16,139.09,102.49Z"/>
          <path class="cls-17" d="M76.72,151.39c0,1.33-.52,2.42-1.15,2.42s-1.14-1.09-1.14-2.42.51-2.41,1.14-2.41S76.72,150.06,76.72,151.39Z"/>
          <g>
            <path class="cls-19" d="M139.94,118.35c-3.46-19-18.13-27.19-35.33-29.93-27.69,10-56.11,21-56.11,21-.92,5.76-1.58,11.22-2,16.39a202.09,202.09,0,0,0,.56,45c.75,5.52,1.49,8.51,1.49,8.51,40.86-8.72,66.86-14.65,83.58-19.19C138.86,147.71,142.69,133.55,139.94,118.35Z"/>
            <path class="cls-19" d="M115.24,129.79c-3.31-26.74-37.7-31.37-37.71-31.37-16.51,6.19-29,11-29,11-.92,5.76-1.58,11.22-2,16.39a202.09,202.09,0,0,0,.56,45c.75,5.52,1.49,8.51,1.49,8.51,12.78-2.73,24.11-5.18,34.15-7.41C82.66,171.92,118.55,156.53,115.24,129.79Z"/>
            <path class="cls-19" d="M86.83,133.68c-1.68-20.69-33-26.28-33-26.28h0l-5.35,2.06c-.92,5.76-1.58,11.22-2,16.39a202.09,202.09,0,0,0,.56,45c.75,5.52,1.49,8.51,1.49,8.51C77.25,165.64,88.51,154.37,86.83,133.68Z"/>
          </g>
          <path class="cls-20" d="M72.16,72.37s-21.37,30.95-20.31,31.26,52.43-19.57,55.8-21S75.52,71,72.16,72.37Z"/>
          <g>
            <path class="cls-6" d="M66.72,80.31S81.26,83.7,82.27,85.4s-2.61,1.39-2.61,1.39Z"/>
            <path class="cls-21" d="M64.93,79.83s9.86,2.56,15.93,5c1.68.66.83,2.21-1.2,2,0,0-11.62-3.84-15.88-5.12C63.78,81.67,63.59,80.08,64.93,79.83Z"/>
            <path class="cls-22" d="M64.91,81.39s14,4.79,14.4,4.79,1.21-.1,1.26-.37-.33,0-1.26-.32-10.09-3-14.08-4.53C64.6,80.73,63.92,81.05,64.91,81.39Z"/>
          </g>
          <g>
            <path class="cls-6" d="M57.48,92.91s8.65,2.47,9.26,3.71-1.56,1-1.56,1Z"/>
            <path class="cls-21" d="M56.41,92.56a90.35,90.35,0,0,1,9.48,3.62c1,.48.5,1.61-.71,1.45,0,0-6.92-2.79-9.45-3.73C55.73,93.9,55.61,92.74,56.41,92.56Z"/>
            <path class="cls-22" d="M56.4,93.7s8.3,3.49,8.57,3.49.72-.07.75-.27-.19,0-.75-.23-6-2.22-8.38-3.31C56.22,93.22,55.81,93.45,56.4,93.7Z"/>
          </g>
          <path class="cls-6" d="M89,71s19.17,3.54,30.65,10l-1,.38Z"/>
          <path class="cls-21" d="M72.56,67.8s30.33,4.4,46,13.52l-3.38,1.27S86.94,72.24,70.54,71C68,68.41,72.56,67.8,72.56,67.8Z"/>
          <path class="cls-23" d="M115.86,80.93c.89-.57,2.71.39,2.71.39l-3.38,1.27A1.6,1.6,0,0,1,115.86,80.93Z"/>
          <path class="cls-22" d="M72.88,70c.77.12,21.7,3.67,31.84,7.65,0,0,.55.07.69-.22s-.56-.53-1-.71c0,0-11.26-4.49-31.31-7.26,0,0-.71-.12-.78.17S72.34,69.93,72.88,70Z"/>
          <path class="cls-24" d="M139.94,47.94c2.95.85,17.58,5.25,22.16,9.46s-4,7.48-8.81,9.32-9.07.15-6.1-2.41,6-4.38,4.48-6.39-5.13.89-9.77-3S136.8,47,139.94,47.94Z"/>
        </g>
      </g>
    </g>
  </g>
</svg>
