<svg xmlns="http://www.w3.org/2000/svg" viewBox="0 0 226.81 225">
  <defs>
    <style>
      .cls-1, .cls-5 {
        isolation: isolate;
      }

      .cls-2 {
        fill: #d7736b;
      }

      .cls-3 {
        opacity: 0.5;
      }

      .cls-4 {
        fill: #e0884c;
      }

      .cls-5 {
        font-size: 15.68px;
        font-family: Oswald-Regular, Oswald;
      }

      .cls-18, .cls-19, .cls-5 {
        fill: #fff;
      }

      .cls-6 {
        fill: #ededed;
      }

      .cls-7 {
        fill: #dcd4c2;
      }

      .cls-8 {
        fill: #e18f3a;
      }

      .cls-9 {
        fill: #795782;
      }

      .cls-10 {
        fill: #c2333c;
      }

      .cls-11 {
        fill: #6796cc;
      }

      .cls-12 {
        fill: #5e617a;
      }

      .cls-13 {
        fill: #eec52f;
      }

      .cls-14 {
        fill: #73a955;
      }

      .cls-15 {
        fill: #eaeaea;
        mix-blend-mode: multiply;
      }

      .cls-16 {
        fill: #4a231b;
      }

      .cls-17 {
        fill: #5a2a23;
        opacity: 0.7;
      }

      .cls-18 {
        opacity: 0.1;
      }

      .cls-19 {
        opacity: 0.2;
      }
    </style>
  </defs>
  <title>CAKE3</title>
  <g class="cls-1">
    <g id="圖層_2" data-name="圖層 2">
      <g id="圖層_1-2" data-name="圖層 1">
        <rect class="cls-2" width="226.81" height="225"/>
        <g class="cls-3">
          <rect class="cls-4" y="180.5" width="226.81" height="44.5"/>
        </g>
        <text class="cls-5" transform="translate(88.52 209.14) scale(1.01 1)">TRENDY</text>
        <g>
          <path class="cls-6" d="M49.15,174.12S151,160.39,169.89,144.26s-6.21-22.09-6.21-22.09Z"/>
          <path class="cls-7" d="M154.05,147.87s14.34-4.86,16.16-11.79,16.78-66.39-6.2-85-73.32-12-77-8.76S49.55,101.6,49.15,104.22,154.05,147.87,154.05,147.87Z"/>
          <path class="cls-8" d="M106.32,103.19C139.55,86.31,164.67,87,164.67,87l2.78-.44a51.51,51.51,0,0,0-2.92-11.66s-23.75-2.23-59.86,16.31c-28.23,14.49-42.19,16.46-56.21,17.6q-.83,6-1.33,11.5c.38,0,.78-.1,1.17-.13C62.32,119.06,79.39,116.83,106.32,103.19Z"/>
          <path class="cls-9" d="M47.67,165.67c.74,5.46,1.48,8.42,1.48,8.42,114.58-24.46,112.4-27,116-38.63-.84.14-30.88,5.48-52.27,15.56C91.21,161.25,61.69,164.53,47.67,165.67Z"/>
          <path class="cls-10" d="M164.53,74.92c-2-4.81-4.7-7.83-8.42-7.79-11.55.1-107,37.09-107,37.09-.25,1.56-.47,3.09-.69,4.61,14-1.14,28-3.11,56.21-17.6C140.78,72.69,164.53,74.92,164.53,74.92Z"/>
          <path class="cls-11" d="M109.61,127.1C85.3,139,62,141.79,48,142.93a15.67,15.67,0,0,0-1.84.27c0,4.13.19,7.89.41,11.26.42-.07.84-.13,1.27-.16,14-1.14,40.43-4.16,63.43-15.24,24.58-11.89,53.83-15.72,53.83-15.72l2.49-.43c.45-3.78.77-8,.93-12.28l-3.56.61S137.08,113.55,109.61,127.1Z"/>
          <path class="cls-12" d="M111.26,139.06c-23,11.08-49.41,14.1-63.43,15.24-.43,0-.85.09-1.27.16.29,4.45.7,8.21,1.11,11.21,14-1.14,43.54-4.42,65.24-14.65,21.39-10.08,51.43-15.42,52.27-15.56a.93.93,0,0,0,0-.13,71.91,71.91,0,0,0,2.36-12.42l-2.49.43S135.84,127.17,111.26,139.06Z"/>
          <path class="cls-13" d="M164.67,87s-25.12-.71-58.35,16.17c-26.93,13.64-44,15.87-58,17-.39,0-.79.08-1.17.13-.38,4-.63,7.85-.78,11.49a17.94,17.94,0,0,1,1.79-.26A154,154,0,0,0,108,115.15c30.36-15.22,56.85-16,56.85-16l3.7-.61a115.74,115.74,0,0,0-1.06-11.94Z"/>
          <path class="cls-14" d="M108,115.15a154,154,0,0,1-59.82,16.41,17.94,17.94,0,0,0-1.79.26c-.18,4.05-.24,7.84-.2,11.38a15.67,15.67,0,0,1,1.84-.27c14-1.14,37.31-3.89,61.62-15.83C137.08,113.55,165,111.24,165,111.24l3.56-.61c.15-4,.16-8.09,0-12.11l-3.7.61S138.32,99.93,108,115.15Z"/>
          <g>
            <path class="cls-15" d="M161.82,134c-2.41.43-4.69-.76-10.65,1.47a52.79,52.79,0,0,1-9.54,2.09c-.17-.74-.6-1.26-1.1-1.26s-1.07.7-1.18,1.63c-3.2.52-5.91,1.08-6.94,2-2.27,2.13-7.53,2.21-11.93,4.8a77.48,77.48,0,0,1-7.9,3.73c-.18-1-.75-1.8-1.43-1.8s-1.49,1.11-1.49,2.49a2.85,2.85,0,0,0,0,.51c-3.44,1.42-6.72,2.7-8.54,3.48a37.47,37.47,0,0,1-11.79,3.41c-5.83.85-11.23,4.26-15.91,4l-.69,0a2.67,2.67,0,0,0,.36-1.42c0-1.1-.53-2-1.19-2s-1.19.89-1.19,2a2.71,2.71,0,0,0,.33,1.36c-2.25,0-3,.41-10.13,1.52-2,.31-3.8.62-5.45.89a1.07,1.07,0,0,0-.71-.31,1.22,1.22,0,0,0-.95.59c-2.73.46-4.88.81-6.38.92.07.55.14,1.09.21,1.6s.13.9.19,1.32c1.48.36,3.46.73,4.14.39s.54.17,2.51.11a.9.9,0,0,0,.28,0,1,1,0,0,0,.37-.08,43.85,43.85,0,0,0,6.08-1.07c1.56-.36,2.95-.65,4.21-.9a3.94,3.94,0,0,0-.14,1.06c0,1.37.66,2.48,1.49,2.48s1.49-1.11,1.49-2.48A3.6,3.6,0,0,0,68,165c4.54-.79,7-.88,9.46-1.18a23.08,23.08,0,0,0,5-1.51c.07,1.26.7,2.24,1.47,2.24s1.5-1.11,1.5-2.49a4.29,4.29,0,0,0-.08-.73,22,22,0,0,1,3.72-.78c.76-.09,1.46-.15,2.14-.21a3.5,3.5,0,0,0-.42,1.72c0,1.38.67,2.49,1.49,2.49s1.5-1.11,1.5-2.49a3.34,3.34,0,0,0-.53-1.88,22,22,0,0,0,7.9-1.62c3.46-1.54,1.64-2.85,5-4.13a3.13,3.13,0,0,0-.08.7c0,1.1.54,2,1.2,2s1.19-.89,1.19-2a2.92,2.92,0,0,0-.3-1.32c4.53-1.19,6.31-1,8.61-1.78s3.55-1.85,6.53-3a84,84,0,0,1,10.8-3.27c2.41-.42,2.84-2.13,7.39-3s4.83-2.27,8.52-2.27,6.54-.29,8.67-1.42c1.22-.66,3.72-.84,5.61-.88.3-.87.57-1.79.87-2.77a.93.93,0,0,0,0-.13q.22-.69.42-1.47A16.44,16.44,0,0,0,161.82,134Z"/>
            <path class="cls-15" d="M51.58,133.14a84.76,84.76,0,0,0,10.61-1,1.1,1.1,0,0,0,0,.18c0,1.1.54,2,1.2,2s1.19-.89,1.19-2a3,3,0,0,0,0-.53,41.78,41.78,0,0,0,4.54-.93c2.9-.88,10.58-3.21,15.55-4.22a1.3,1.3,0,0,0,1.06.73c.53,0,1-.47,1.25-1.16A32.49,32.49,0,0,0,91.29,125a3.65,3.65,0,0,0-.27,1.41c0,1.37.67,2.48,1.5,2.48S94,127.75,94,126.38a3.1,3.1,0,0,0-.73-2.13,109.4,109.4,0,0,0,11.79-5.32,92.73,92.73,0,0,1,8.25-4.41c0,1.35.67,2.45,1.49,2.45s1.49-1.12,1.49-2.49a4.47,4.47,0,0,0-.12-1,21.54,21.54,0,0,1,2.31-.52c5.26-.86,9.52-4.41,14.07-6s7.67-3.41,11.93-3,8.81-.15,10.51-1.42c1.3-1,5.68-1.62,8.34-1.49a3.54,3.54,0,0,0-.3,1.47c0,1.37.67,2.49,1.49,2.49S166,104,166,102.58a4.72,4.72,0,0,0-.09-.86,5,5,0,0,0,2.66-.37c0-.94-.05-1.89-.08-2.83,0-.31,0-.61,0-.91-.22.11-1.39.57-3.93,0-2.85-.67-8.82-.29-10.81.94,0,0-1.56.4-3.57.82a1.29,1.29,0,0,0-1.05-.73c-.54,0-1,.47-1.27,1.18a29.08,29.08,0,0,1-4.62.53,31.88,31.88,0,0,0-10.06,2.28,1.45,1.45,0,0,0-1.2-1c-.8,0-1.46,1.07-1.48,2.4a59.27,59.27,0,0,1-7.33,3.3,1.79,1.79,0,0,0,0-.24c0-1.37-.67-2.48-1.5-2.48s-1.49,1.11-1.49,2.48a3.86,3.86,0,0,0,.18,1.16,20.56,20.56,0,0,1-3,.63c-3.24.39-7,2.74-10,4.6,0-.14,0-.29,0-.44,0-1.1-.54-2-1.2-2s-1.19.89-1.19,2a2.64,2.64,0,0,0,.49,1.61,15.24,15.24,0,0,1-1.67.92c-1.29.58-5,2.13-8.92,3.53a2.6,2.6,0,0,0,.48-1.6c0-1.09-.53-2-1.19-2s-1.19.89-1.19,2a2,2,0,0,0,.93,1.94c-3.5,1.22-7,2.24-8.86,2.24-4.12,0-8.67,3.13-15.21,4.55a114.69,114.69,0,0,1-17.79,2.49c0-.1,0-.21,0-.32,0-1.37-.67-2.48-1.49-2.48s-1.49,1.11-1.49,2.48a3,3,0,0,0,0,.31,4.53,4.53,0,0,0-2.74,1.42c0,.58-.06,1.17-.08,1.74,0,.72-.06,1.42-.08,2.13A15.74,15.74,0,0,1,51.58,133.14Z"/>
            <path class="cls-15" d="M159.41,122.91c-1.86.08-3.8,0-5.55.1a3.77,3.77,0,0,0,.16-1.09c0-1.38-.67-2.49-1.49-2.49s-1.49,1.11-1.49,2.49a3.62,3.62,0,0,0,.3,1.48,5.85,5.85,0,0,0-1.31.51c-2.27,1.27-8.52,1.42-10.37,2.27a92.11,92.11,0,0,1-10,3.38,3.52,3.52,0,0,0,.41-1.69c0-1.38-.67-2.49-1.5-2.49s-1.49,1.11-1.49,2.49a3,3,0,0,0,.72,2.11l-.17,0c-2.7.42-11.36,2.41-11.93,4s-9.52,6-13.92,6.68a45.43,45.43,0,0,0-11.79,3.62,78.17,78.17,0,0,1-11.63,4.47c-.27-.64-.72-1.07-1.23-1.07s-1.21.72-1.41,1.72a5.65,5.65,0,0,1-2.64.07c-2.56-1-7.1-.71-8.1.71s-10.23,3-12.5,2a11.4,11.4,0,0,0-6-.29c0,.88.09,1.74.15,2.57s.09,1.37.15,2a24.24,24.24,0,0,1,5.38-.76c.21.54.57.9,1,.9a1,1,0,0,0,.85-.6c2.87.26,10-.32,11.85-1.57C67.92,153,73,153,74.17,153a25.34,25.34,0,0,0,2.7-.4l.21,0a.93.93,0,0,0,.55-.18c3.9-.74,9.87-2.11,12-3.29A40.07,40.07,0,0,1,94.46,147c0,.05,0,.11,0,.17,0,1.37.67,2.49,1.5,2.49s1.49-1.12,1.49-2.49a3.79,3.79,0,0,0-.16-1.1,18.14,18.14,0,0,1,4-.74c3.2-.13,8.52-3,13.74-5.72,0,0,0,.08,0,.12,0,1.38.67,2.49,1.49,2.49s1.49-1.11,1.49-2.49a3.63,3.63,0,0,0-.3-1.49c4.12-2.13,5.23-2.65,9.16-2.81,4.41-.19,8.53-3.31,12.79-5a24.71,24.71,0,0,1,10.23-1.7,32.53,32.53,0,0,0,6.83-1.29,3.31,3.31,0,0,0-.54,1.9c0,1.38.67,2.49,1.49,2.49s1.49-1.11,1.49-2.49a2.81,2.81,0,0,0-.94-2.31,38.55,38.55,0,0,0,4.31-1.43,10.65,10.65,0,0,1,4.79-.61c.09-.68.18-1.38.26-2.09,0-.42.09-.85.14-1.28h-.27A50.2,50.2,0,0,1,159.41,122.91Z"/>
            <path class="cls-15" d="M162.25,109.2c-1.71.64-10.66,3.91-13.64,3.34-2-.39-6.44.51-10.21,1.58a3.12,3.12,0,0,0,.71-2.11c0-1.38-.67-2.49-1.49-2.49s-1.49,1.11-1.49,2.49a2.51,2.51,0,0,0,1.18,2.43c-1.34.4-2.55.82-3.48,1.18-3.69,1.47-10.08,5-12.5,4.71-1.82-.2-4.82,1-6.84,2.23-.21-1-.75-1.64-1.4-1.64-.82,0-1.49,1.11-1.49,2.48a3.72,3.72,0,0,0,.21,1.25c-3,2.15-10.37,6.22-14.63,6.22-5,0-10.65,3.49-13.64,4.59s-9.66.95-12.64,1.09-12.36,4.26-16.2,4.26c-2.52,0-6.21-.24-8.56,0,0,.79,0,1.58,0,2.35,0,.37,0,.72,0,1.09.06,0,4.87,1.05,8.26,0s11.51-3,16.19-2.63,9.55-.29,13.36-3.12,9.8-3,13.21-4a22,22,0,0,0,2.73-1.05c0,.1,0,.2,0,.31,0,1.09.53,2,1.19,2s1.19-.89,1.19-2a2.82,2.82,0,0,0-.29-1.29c2.57-1.27,5.19-2.75,6.87-3.51,2.81-1.28,8.78-4,10.63-4,1.2,0,4.62-1.46,7.34-2.82.09,1.23.71,2.18,1.47,2.18s1.49-1.11,1.49-2.48a3.59,3.59,0,0,0-.2-1.22,5.18,5.18,0,0,0,.55-.37c1.71-1.25,5.54-1.68,8-1.68a17.51,17.51,0,0,0,2.7-.3,3.81,3.81,0,0,0-.05.59c0,1.37.67,2.49,1.49,2.49s1.49-1.12,1.49-2.49a4,4,0,0,0-.18-1.18,15.5,15.5,0,0,0,3.64-1.24c1-.71,5-.37,7.39-.9,1.22-.26,3.31-.5,5.21-.82a3.88,3.88,0,0,0-.18,1.17c0,1.37.67,2.48,1.49,2.48s1.49-1.11,1.49-2.48a3.56,3.56,0,0,0-.39-1.68,3.65,3.65,0,0,0,1.61-.75c1-1.1,3.64-1.52,4.58-.4.05-.83.09-1.66.12-2.51,0-.48,0-1,0-1.44C168,109.11,163.83,108.6,162.25,109.2Z"/>
            <path class="cls-15" d="M59.94,110.52c.54,0,1-.61,1.14-1.44,2.58-.26,4.67-.57,5.13-.94C67.63,107,76,106,78.57,105s13.29-6.84,19.61-8.42v0c0,1.1.54,2,1.19,2s1.2-.89,1.2-2a3.1,3.1,0,0,0-.08-.69l.85-.32c.13,1.15.74,2,1.46,2s1.5-1.11,1.5-2.49a3.48,3.48,0,0,0-.12-.93c2.95-1.73,5.14-3.75,7.63-4.4,3.84-1,7-3.13,10.09-4.4.33-.14.63-.28.91-.42a.87.87,0,0,0,.57.25c.5,0,.92-.51,1.1-1.24a16.54,16.54,0,0,1,6.66-2.71c5.54-1.14,12.78-2.13,15.05-3.13s5.26-2.56,9.81-1.85a30.36,30.36,0,0,0,5.39.31,3.64,3.64,0,0,0-.07.68c0,1.37.67,2.48,1.5,2.48s1.49-1.11,1.49-2.48a4,4,0,0,0-.1-.87l.85-.11c-.17-.48-.35-.95-.53-1.4s-.32-.77-.49-1.14c0,0-12.59-1.53-14.15,0s-17.9,4.81-20,5.09-14.21,5.33-17,7.49a5.83,5.83,0,0,1-.58.39,3.7,3.7,0,0,0,.32-1.52c0-1.29-.6-2.34-1.35-2.46C118.37,80.1,127,77,130,76.46a77.86,77.86,0,0,0,7.63-2c.05,1,.55,1.83,1.18,1.83s1.19-.89,1.19-2a3.31,3.31,0,0,0-.05-.55c5.15-1.59,10.67-3.43,13.63-4.35.49-.15.94-.26,1.37-.36a4.91,4.91,0,0,0,0,.55c0,1.38.67,2.49,1.49,2.49s1.49-1.11,1.49-2.49a4.37,4.37,0,0,0-.1-.91,6.14,6.14,0,0,1,3.4.72,6.92,6.92,0,0,0-4.68-2.27l-.11,0h-.29c-11.55.1-107,37.09-107,37.09-.07.46-.13.91-.2,1.37.19-.06,10.63-2.88,15.41-5.41,1.29-.68,4.26-1.86,8-3.25a3.66,3.66,0,0,0-.2,1.19c0,1.37.67,2.49,1.5,2.49s1.49-1.12,1.49-2.49a3.22,3.22,0,0,0-.62-2c4.09-1.5,8.8-3.17,13.14-4.69a4.32,4.32,0,0,0-.07.74c0,1.37.66,2.49,1.49,2.49s1.49-1.12,1.49-2.49a3.53,3.53,0,0,0-.37-1.63c5.46-1.91,10-3.47,11.23-4s4.79-1.88,8.94-3.46a3.08,3.08,0,0,0-.72,2.11,2.72,2.72,0,0,0,1,2.34c-4,1.67-10.81,3.28-13.91,5.61-2.87,2.16-9.64,5.57-14.71,7.5a3,3,0,0,0,.19-1.07c0-1.1-.54-2-1.19-2s-1.2.89-1.2,2a2.47,2.47,0,0,0,.55,1.66,20.81,20.81,0,0,1-2.67.76c-4.38.85-20.7,4.79-29.13,6,0,.28-.09.57-.13.85s-.09.7-.14,1c0,0,5.59-.21,10.51-.6C59,110,59.44,110.52,59.94,110.52Z"/>
            <path class="cls-15" d="M68.73,111.51c0,1.37.67,2.48,1.5,2.48s1.49-1.11,1.49-2.48S71.05,109,70.23,109,68.73,110.13,68.73,111.51Z"/>
            <path class="cls-15" d="M58.22,122.92c.83,0,1.5-1.12,1.5-2.49a1.11,1.11,0,0,0,0-.19c3.31-1,8.73-2.44,11.62-2.3s12.79-3.84,16.77-5.54,12.79-5.53,16-6.81c1.35-.53,3.46-1.44,5.63-2.42a3.7,3.7,0,0,0-.11.9c0,1.37.67,2.48,1.49,2.48s1.5-1.11,1.5-2.48a3.28,3.28,0,0,0-.58-2c2.28-1.06,4.34-2.07,5.29-2.64.34-.21.89-.49,1.55-.82a3.17,3.17,0,0,0-.15,1c0,1.1.53,2,1.19,2s1.19-.89,1.19-2a2.38,2.38,0,0,0-.61-1.73c3.69-1.68,9.22-3.85,11.88-3.95,3.7-.14,13.28-3.24,16.48-4.55s9.67-1.7,12.3-.85,6.46.16,6.53.15c-.08-.71-.17-1.42-.27-2.1l-.24-1.48s-3.83,2.06-6.67,1.26a25.92,25.92,0,0,0-3.2-.71,3.8,3.8,0,0,0,.11-.92c0-1.37-.67-2.48-1.49-2.48s-1.49,1.11-1.49,2.48a3.85,3.85,0,0,0,.06.69,12.56,12.56,0,0,0-5.78,1.16c-4,2-14.35,5-16.9,4.91s-11.37,3.43-15.06,5.42-10.23,5.69-13.93,6.4A27.27,27.27,0,0,0,99,104.47c-.24-.82-.75-1.4-1.34-1.4-.82,0-1.49,1.11-1.49,2.49h0a99.24,99.24,0,0,0-9.36,4.31c-.9.5-2.33,1.16-4,1.85a2.46,2.46,0,0,0,.59-1.71c0-1.1-.53-2-1.19-2s-1.19.89-1.19,2,.5,1.93,1.14,2c-4.23,1.72-9.65,3.52-12,3.52a35.05,35.05,0,0,0-11.08,1.71c-3.69,1.23-10.08,1.93-11.79,1.1-.06.67-.13,1.34-.19,2,0,.44-.08.86-.11,1.29,1.48-.06,6.29-.29,9.74-.77C56.88,122,57.49,122.92,58.22,122.92Z"/>
            <path class="cls-15" d="M130.24,83.74c-.83,0-1.49,1.11-1.49,2.48s.66,2.49,1.49,2.49,1.49-1.12,1.49-2.49S131.06,83.74,130.24,83.74Z"/>
            <path class="cls-15" d="M152.75,80.27c0,1.37.67,2.49,1.49,2.49s1.49-1.12,1.49-2.49-.66-2.48-1.49-2.48S152.75,78.9,152.75,80.27Z"/>
            <path class="cls-15" d="M146.19,93.66c0,1.1.54,2,1.19,2s1.2-.89,1.2-2-.54-2-1.2-2S146.19,92.56,146.19,93.66Z"/>
            <path class="cls-15" d="M144.48,81.76c0,1.1.53,2,1.19,2s1.19-.89,1.19-2-.53-2-1.19-2S144.48,80.66,144.48,81.76Z"/>
            <path class="cls-15" d="M135.6,87.71c0,1.37.67,2.48,1.5,2.48s1.49-1.11,1.49-2.48-.67-2.49-1.49-2.49S135.6,86.33,135.6,87.71Z"/>
            <path class="cls-15" d="M77.31,130.84c0,1.37.67,2.49,1.49,2.49s1.49-1.12,1.49-2.49-.67-2.49-1.49-2.49S77.31,129.47,77.31,130.84Z"/>
            <path class="cls-15" d="M55,136.79c0,1.37.67,2.49,1.49,2.49S58,138.16,58,136.79s-.67-2.49-1.49-2.49S55,135.42,55,136.79Z"/>
            <path class="cls-15" d="M88.86,141.25c0-1.37-.66-2.48-1.49-2.48s-1.49,1.11-1.49,2.48.67,2.49,1.49,2.49S88.86,142.62,88.86,141.25Z"/>
            <path class="cls-15" d="M63.15,145.71c0-1.37-.67-2.48-1.5-2.48s-1.49,1.11-1.49,2.48.67,2.49,1.49,2.49S63.15,147.09,63.15,145.71Z"/>
            <path class="cls-15" d="M70,156.12c0-1.37-.66-2.48-1.49-2.48S67,154.75,67,156.12s.67,2.49,1.49,2.49S70,157.5,70,156.12Z"/>
            <path class="cls-15" d="M81.71,142.74c0-1.1-.54-2-1.2-2s-1.19.89-1.19,2,.54,2,1.19,2S81.71,143.84,81.71,142.74Z"/>
            <path class="cls-15" d="M150.81,141.74c-.82,0-1.49,1.11-1.49,2.49s.67,2.48,1.49,2.48,1.5-1.11,1.5-2.48S151.64,141.74,150.81,141.74Z"/>
            <path class="cls-15" d="M135.38,146.2c-.82,0-1.49,1.12-1.49,2.49s.67,2.48,1.49,2.48,1.49-1.11,1.49-2.48S136.21,146.2,135.38,146.2Z"/>
            <path class="cls-15" d="M129.79,138.77c0-1.38-.67-2.49-1.49-2.49s-1.49,1.11-1.49,2.49.67,2.48,1.49,2.48S129.79,140.14,129.79,138.77Z"/>
            <path class="cls-15" d="M120.17,152.65c-.82,0-1.49,1.12-1.49,2.49s.67,2.49,1.49,2.49,1.49-1.12,1.49-2.49S121,152.65,120.17,152.65Z"/>
          </g>
          <path class="cls-16" d="M173.87,67.13s-5.4.16-8.23-4.1-15.59-.14-14.83,5,1.64,7.53-1.49,8.82-3.27-7.64-9.42-5.65-13.31,7.1-22.47,10.53-3.2,9.49-9,11.9-2.89-6.76-13.35-4.84-9.93,5.56-13.42,6.83-10.16,0-20.06,3.77-12.46,8.15-13.19,4.1S79.28,49,85,42.79s39.22-5.42,47.53-4.31S176.62,46.5,173.87,67.13Z"/>
          <g>
            <path class="cls-16" d="M117.43,81.76c9.15-3.43,16.31-8.53,22.46-10.53C118,78.14,81,92.07,61.66,99.42c9.89-3.79,16.56-2.51,20-3.77s3-4.9,13.42-6.83c5.5-1,7.31,1,8.63,2.87l.91-.46c2.41-1.24,4.76-2.38,7.06-3.44C112.12,85.64,113.05,83.4,117.43,81.76Z"/>
            <path class="cls-16" d="M61.65,99.43c-7.64,2.91-12.5,4.79-12.5,4.79,0,.24-.07.46-.1.7C50.31,106.06,53.49,102.55,61.65,99.43Z"/>
            <path class="cls-16" d="M150.81,68.06h0c-2.87.72-6.59,1.81-10.9,3.17,4.6-1.49,5.84,3.15,7.48,5,1.26-.22,2.46-.41,3.59-.57C152,74.24,151.39,71.94,150.81,68.06Z"/>
          </g>
          <path class="cls-17" d="M48.87,104.72c1.15,1.68,4.22-2,12.78-5.3,9.9-3.79,16.56-2.51,20.06-3.77s3-4.9,13.42-6.83,7.59,7.24,13.35,4.84-.22-8.47,9-11.9,16.32-8.54,22.47-10.53,6.29,6.93,9.42,5.65,2.26-3.64,1.49-8.82,12-9.29,14.83-5,8.23,4.1,8.23,4.1C175.63,53.89,161.54,46.3,149,42.27,97.75,60.45,66,86.73,48.87,104.72Z"/>
          <path class="cls-18" d="M149.32,46.05c-15.22-6.83-57.55-7.67-61.95-1.7S52.21,94.66,56.51,95.65s22.62-5.6,32.35-15.38S78.71,69.35,83,61.4s7.39-16.77,17.34-14.49S114.8,58.56,125,59.41,174,57.13,149.32,46.05Z"/>
          <path class="cls-15" d="M174,67.63c0-.16-.09-.34-.14-.5h0c0-.31.07-.61.1-.9,0,0-5.33-.36-7-3.7s-6.4-3.05-11.21-1.42-6.55,5.31-6.41,6,1.41,6.78,0,7.7-1.7-.67-4.84-4.27-9.91.36-14.24,3.06a137.06,137.06,0,0,1-15.51,8.14c-4.27,1.81-4.69,6.13-4.9,7.62s-1.42,3.7-3.14,3.21S104,89.74,104,89.74c-3.76-5.4-15.06-1.85-18.54,1.56s-5.68,4.09-8.88,4.12-8,1-11.93,1.83-10.89,4.51-12.81,5.93-3.28.78-3.28.78a1.91,1.91,0,0,0,.49,1c-.06.34-.1.67-.15,1,.92.43,1.17.68,4-.79A90,90,0,0,1,65,99.86c6.72-2.5,13.49-1.43,17.11-2.61s2.68-4.65,10.37-6.73,9.38,1.23,9.81,2.35A5,5,0,0,0,109,95.14c3.73-1.6,3-4.75,3.94-7.89s5.07-3.84,8.64-5.49,13.36-6.69,17-8.71,6.12,1.45,7.13,3.2,2.85,2.47,5.31.77,1.72-6.6,1.34-8.52.82-3.88,4.2-5.33,7.56-1.26,9.37,1.78,8.08,3.1,8.08,3.1Z"/>
          <path class="cls-19" d="M64.71,83.72c.31-.55.57-1,.78-1.39,7.4-13,20.88-33.28,22.66-35.61s-1.26-.29-1.49,0c-9.18,11.81-23,34.78-26.48,41.15l0,.11c-1,2.34-1.69,5.22-1,5.68,1,.7,17.33-4.49,18.89-7.44s-3.73-3.66-5.11-3.12c-2.45,1-12.09,8-8.67,1.48Z"/>
        </g>
      </g>
    </g>
  </g>
</svg>
