<?xml version="1.0" encoding="utf-8"?>
<!-- Generator: Adobe Illustrator 23.1.0, SVG Export Plug-In . SVG Version: 6.00 Build 0)  -->
<svg version="1.1" id="圖層_1" xmlns="http://www.w3.org/2000/svg" xmlns:xlink="http://www.w3.org/1999/xlink" x="0px" y="0px"
	 viewBox="0 0 226.8 225" style="enable-background:new 0 0 226.8 225;" xml:space="preserve">
<style type="text/css">
	.st0{fill:#D7736B;}
	.st1{opacity:0.5;}
	.st2{fill:#E0884C;}
	.st3{enable-background:new    ;}
	.st4{fill:#FFFFFF;}
	.st5{fill:#EDEDED;}
	.st6{fill:#DCD4C2;}
	.st7{fill:#E18F3A;}
	.st8{fill:#795782;}
	.st9{fill:#C2333C;}
	.st10{fill:#6796CC;}
	.st11{fill:#5E617A;}
	.st12{fill:#EEC52F;}
	.st13{fill:#73A955;}
	.st14{fill:#EAEAEA;}
	.st15{fill:#4A231B;}
	.st16{opacity:0.7;fill:#5A2A23;enable-background:new    ;}
	.st17{opacity:0.1;fill:#FFFFFF;enable-background:new    ;}
	.st18{opacity:0.2;fill:#FFFFFF;enable-background:new    ;}
</style>
<title>CAKE3</title>
<rect class="st0" width="226.8" height="225"/>
<g class="st1">
	<rect y="180.5" class="st2" width="226.8" height="44.5"/>
</g>
<g class="st3">
	<path class="st4" d="M90.9,197.8h-2.2v-1.3h6.1v1.3h-2.1v11.4h-1.8V197.8z"/>
	<path class="st4" d="M96.1,196.4h2.6c2.6,0,3.8,1,3.8,3.4c0,1.5-0.4,2.6-1.6,3l1.8,6.4h-1.7l-1.7-6h-1.4v6h-1.8V196.4z M98.5,201.9
		c1.5,0,2.2-0.5,2.2-2.1c0-1.5-0.4-2.1-2-2.1h-0.8v4.2H98.5z"/>
	<path class="st4" d="M104.3,196.4h5v1.3h-3.2v4.2h2.6v1.3h-2.6v4.7h3.2v1.3h-5V196.4z"/>
	<path class="st4" d="M110.7,196.4h1.2l3.6,8.4v-8.4h1.5v12.7h-1.1l-3.7-8.7v8.7h-1.5V196.4z"/>
	<path class="st4" d="M119.1,196.4h2.8c2.8,0,3.8,1.3,3.8,3.9v4.7c0,2.7-1,4.2-3.7,4.2h-2.9V196.4z M121.9,207.9c1.9,0,2-1.2,2-3.2
		v-4.1c0-2-0.2-2.8-2-2.8h-1v10.1H121.9z"/>
	<path class="st4" d="M129.4,204.7l-2.8-8.2h1.7l2,6.1l1.9-6.1h1.7l-2.8,8.2v4.5h-1.7V204.7z"/>
</g>
<g>
	<path class="st5" d="M49.2,174.1c0,0,101.8-13.7,120.7-29.9s-6.2-22.1-6.2-22.1L49.2,174.1z"/>
	<path class="st6" d="M154.1,147.9c0,0,14.3-4.9,16.2-11.8s16.8-66.4-6.2-85s-73.3-12-77-8.8s-37.5,59.3-37.9,61.9
		S154.1,147.9,154.1,147.9z"/>
	<path class="st7" d="M106.3,103.2C139.6,86.3,164.7,87,164.7,87l2.8-0.4c-0.5-4-1.5-7.9-2.9-11.7c0,0-23.8-2.2-59.9,16.3
		c-28.2,14.5-42.2,16.5-56.2,17.6c-0.6,4-1,7.8-1.3,11.5c0.4,0,0.8-0.1,1.2-0.1C62.3,119.1,79.4,116.8,106.3,103.2z"/>
	<path class="st8" d="M47.7,165.7c0.7,5.5,1.5,8.4,1.5,8.4c114.6-24.5,112.4-27,116-38.6c-0.8,0.1-30.9,5.5-52.3,15.6
		C91.2,161.3,61.7,164.5,47.7,165.7z"/>
	<path class="st9" d="M164.5,74.9c-2-4.8-4.7-7.8-8.4-7.8c-11.6,0.1-107,37.1-107,37.1c-0.3,1.6-0.5,3.1-0.7,4.6
		c14-1.1,28-3.1,56.2-17.6C140.8,72.7,164.5,74.9,164.5,74.9z"/>
	<path class="st10" d="M109.6,127.1C85.3,139,62,141.8,48,142.9c-0.6,0.1-1.2,0.1-1.8,0.3c0,4.1,0.2,7.9,0.4,11.3
		c0.4-0.1,0.8-0.1,1.3-0.2c14-1.1,40.4-4.2,63.4-15.2c24.6-11.9,53.8-15.7,53.8-15.7l2.5-0.4c0.4-3.8,0.8-8,0.9-12.3l-3.6,0.6
		C165,111.2,137.1,113.6,109.6,127.1z"/>
	<path class="st11" d="M111.3,139.1c-23,11.1-49.4,14.1-63.4,15.2c-0.4,0-0.8,0.1-1.3,0.2c0.3,4.4,0.7,8.2,1.1,11.2
		c14-1.1,43.5-4.4,65.2-14.6c21.4-10.1,51.4-15.4,52.3-15.6c0,0,0-0.1,0-0.1c1.1-4.1,1.9-8.2,2.4-12.4l-2.5,0.4
		C165.1,123.3,135.8,127.2,111.3,139.1z"/>
	<path class="st12" d="M164.7,87c0,0-25.1-0.7-58.3,16.2c-26.9,13.6-44,15.9-58,17c-0.4,0-0.8,0.1-1.2,0.1c-0.4,4-0.6,7.8-0.8,11.5
		c0.6-0.1,1.2-0.2,1.8-0.3c20.9-1.3,41.2-6.9,59.8-16.4c30.4-15.2,56.9-16,56.9-16l3.7-0.6c-0.1-4-0.5-8-1.1-11.9L164.7,87z"/>
	<path class="st13" d="M108,115.2c-18.6,9.5-39,15.1-59.8,16.4c-0.6,0.1-1.2,0.1-1.8,0.3c-0.2,4.1-0.2,7.8-0.2,11.4
		c0.6-0.1,1.2-0.2,1.8-0.3c14-1.1,37.3-3.9,61.6-15.8c27.4-13.5,55.4-15.9,55.4-15.9l3.6-0.6c0.1-4,0.2-8.1,0-12.1l-3.7,0.6
		C164.9,99.1,138.3,99.9,108,115.2z"/>
	<g>
		<path class="st14" d="M161.8,134c-2.4,0.4-4.7-0.8-10.6,1.5c-3.1,1-6.3,1.7-9.5,2.1c-0.2-0.7-0.6-1.3-1.1-1.3s-1.1,0.7-1.2,1.6
			c-3.2,0.5-5.9,1.1-6.9,2c-2.3,2.1-7.5,2.2-11.9,4.8c-2.6,1.4-5.2,2.6-7.9,3.7c-0.2-1-0.8-1.8-1.4-1.8s-1.5,1.1-1.5,2.5
			c0,0.2,0,0.3,0,0.5c-3.4,1.4-6.7,2.7-8.5,3.5c-3.7,1.8-7.7,2.9-11.8,3.4c-5.8,0.9-11.2,4.3-15.9,4h-0.7c0.3-0.4,0.4-0.9,0.4-1.4
			c0-1.1-0.5-2-1.2-2s-1.2,0.9-1.2,2c0,0.5,0.1,0.9,0.3,1.4c-2.3,0-3,0.4-10.1,1.5c-2,0.3-3.8,0.6-5.5,0.9c-0.2-0.2-0.4-0.3-0.7-0.3
			c-0.4,0-0.7,0.3-1,0.6c-2.7,0.5-4.9,0.8-6.4,0.9c0.1,0.6,0.1,1.1,0.2,1.6s0.1,0.9,0.2,1.3c1.5,0.4,3.5,0.7,4.1,0.4
			s0.5,0.2,2.5,0.1c0.1,0,0.2,0,0.3,0c0.1,0,0.3,0,0.4-0.1c2-0.2,4.1-0.6,6.1-1.1c1.6-0.4,2.9-0.6,4.2-0.9c-0.1,0.3-0.1,0.7-0.1,1.1
			c0,1.4,0.7,2.5,1.5,2.5s1.5-1.1,1.5-2.5c0-0.5-0.1-1-0.2-1.5c4.5-0.8,7-0.9,9.5-1.2c1.7-0.3,3.4-0.8,5-1.5
			c0.1,1.3,0.7,2.2,1.5,2.2s1.5-1.1,1.5-2.5c0-0.2,0-0.5-0.1-0.7c1.2-0.4,2.5-0.6,3.7-0.8c0.8-0.1,1.5-0.1,2.1-0.2
			c-0.3,0.5-0.4,1.1-0.4,1.7c0,1.4,0.7,2.5,1.5,2.5s1.5-1.1,1.5-2.5c0-0.7-0.2-1.3-0.5-1.9c2.7,0,5.4-0.6,7.9-1.6
			c3.5-1.5,1.6-2.9,5-4.1c-0.1,0.2-0.1,0.5-0.1,0.7c0,1.1,0.5,2,1.2,2s1.2-0.9,1.2-2c0-0.5-0.1-0.9-0.3-1.3c4.5-1.2,6.3-1,8.6-1.8
			s3.6-1.9,6.5-3c3.5-1.3,7.1-2.4,10.8-3.3c2.4-0.4,2.8-2.1,7.4-3s4.8-2.3,8.5-2.3s6.5-0.3,8.7-1.4c1.2-0.7,3.7-0.8,5.6-0.9
			c0.3-0.9,0.6-1.8,0.9-2.8c0,0,0-0.1,0-0.1c0.1-0.5,0.3-0.9,0.4-1.5C164.3,133.7,163.1,133.8,161.8,134z"/>
		<path class="st14" d="M51.6,133.1c3.6-0.1,7.1-0.4,10.6-1c0,0.1,0,0.1,0,0.2c0,1.1,0.5,2,1.2,2s1.2-0.9,1.2-2c0-0.2,0-0.4,0-0.5
			c1.5-0.2,3-0.5,4.5-0.9c2.9-0.9,10.6-3.2,15.6-4.2c0.2,0.4,0.6,0.7,1.1,0.7c0.5,0,1-0.5,1.3-1.2c1.5-0.3,2.9-0.7,4.3-1.2
			c-0.2,0.4-0.3,0.9-0.3,1.4c0,1.4,0.7,2.5,1.5,2.5s1.5-1.1,1.5-2.5c0-0.8-0.2-1.5-0.7-2.1c4-1.5,8-3.3,11.8-5.3
			c2.7-1.6,5.4-3.1,8.3-4.4c0,1.3,0.7,2.4,1.5,2.4s1.5-1.1,1.5-2.5c0-0.3,0-0.7-0.1-1c0.8-0.2,1.5-0.4,2.3-0.5
			c5.3-0.9,9.5-4.4,14.1-6s7.7-3.4,11.9-3s8.8-0.2,10.5-1.4c1.3-1,5.7-1.6,8.3-1.5c-0.2,0.5-0.3,1-0.3,1.5c0,1.4,0.7,2.5,1.5,2.5
			s1.5-1,1.5-2.4c0-0.3,0-0.6-0.1-0.9c0.9,0.1,1.8,0,2.7-0.4c0-0.9-0.1-1.9-0.1-2.8c0-0.3,0-0.6,0-0.9c-0.2,0.1-1.4,0.6-3.9,0
			c-2.9-0.7-8.8-0.3-10.8,0.9c0,0-1.6,0.4-3.6,0.8c-0.2-0.4-0.6-0.7-1.1-0.7c-0.5,0-1,0.5-1.3,1.2c-1.5,0.3-3.1,0.5-4.6,0.5
			c-3.5,0.2-6.9,1-10.1,2.3c-0.2-0.5-0.6-0.9-1.2-1c-0.8,0-1.5,1.1-1.5,2.4c-2.4,1.3-4.8,2.4-7.3,3.3c0-0.1,0-0.2,0-0.2
			c0-1.4-0.7-2.5-1.5-2.5s-1.5,1.1-1.5,2.5c0,0.4,0.1,0.8,0.2,1.2c-1,0.3-2,0.5-3,0.6c-3.2,0.4-7,2.7-10,4.6c0-0.1,0-0.3,0-0.4
			c0-1.1-0.5-2-1.2-2s-1.2,0.9-1.2,2c0,0.6,0.2,1.1,0.5,1.6c-0.5,0.3-1.1,0.6-1.7,0.9c-1.3,0.6-5,2.1-8.9,3.5c0.3-0.5,0.5-1,0.5-1.6
			c0-1.1-0.5-2-1.2-2s-1.2,0.9-1.2,2c-0.1,0.8,0.3,1.5,0.9,1.9c-3.5,1.2-7,2.2-8.9,2.2c-4.1,0-8.7,3.1-15.2,4.6
			c-5.9,1.3-11.8,2.1-17.8,2.5c0-0.1,0-0.2,0-0.3c0-1.4-0.7-2.5-1.5-2.5s-1.5,1.1-1.5,2.5c0,0.1,0,0.2,0,0.3c-1.1,0.1-2,0.6-2.7,1.4
			c0,0.6-0.1,1.2-0.1,1.7c0,0.7-0.1,1.4-0.1,2.1C47.9,133.4,49.7,133.1,51.6,133.1z"/>
		<path class="st14" d="M159.4,122.9c-1.9,0.1-3.8,0-5.6,0.1c0.1-0.4,0.2-0.7,0.2-1.1c0-1.4-0.7-2.5-1.5-2.5s-1.5,1.1-1.5,2.5
			c0,0.5,0.1,1,0.3,1.5c-0.5,0.1-0.9,0.3-1.3,0.5c-2.3,1.3-8.5,1.4-10.4,2.3c-3.3,1.3-6.6,2.4-10,3.4c0.3-0.5,0.4-1.1,0.4-1.7
			c0-1.4-0.7-2.5-1.5-2.5s-1.5,1.1-1.5,2.5c0,0.8,0.2,1.5,0.7,2.1h-0.2c-2.7,0.4-11.4,2.4-11.9,4s-9.5,6-13.9,6.7
			c-4.1,0.7-8,1.9-11.8,3.6c-3.8,1.8-7.6,3.3-11.6,4.5c-0.3-0.6-0.7-1.1-1.2-1.1s-1.2,0.7-1.4,1.7c-0.9,0.2-1.8,0.3-2.6,0.1
			c-2.6-1-7.1-0.7-8.1,0.7s-10.2,3-12.5,2c-1.9-0.6-4-0.7-6-0.3c0,0.9,0.1,1.7,0.2,2.6s0.1,1.4,0.2,2c1.8-0.5,3.6-0.7,5.4-0.8
			c0.2,0.5,0.6,0.9,1,0.9c0.4,0,0.7-0.3,0.8-0.6c2.9,0.3,10-0.3,11.9-1.6c2.1-1.4,7.1-1.4,8.3-1.4c0.9-0.1,1.8-0.2,2.7-0.4h0.2
			c0.2,0,0.4-0.1,0.6-0.2c3.9-0.7,9.9-2.1,12-3.3c1.6-0.8,3.2-1.5,4.8-2.1c0,0.1,0,0.1,0,0.2c0,1.4,0.7,2.5,1.5,2.5s1.5-1.1,1.5-2.5
			c0-0.4-0.1-0.7-0.2-1.1c1.3-0.4,2.6-0.6,4-0.7c3.2-0.1,8.5-3,13.7-5.7c0,0,0,0.1,0,0.1c0,1.4,0.7,2.5,1.5,2.5s1.5-1.1,1.5-2.5
			c0-0.5-0.1-1-0.3-1.5c4.1-2.1,5.2-2.6,9.2-2.8c4.4-0.2,8.5-3.3,12.8-5c3.3-1.3,6.7-1.9,10.2-1.7c2.3-0.2,4.6-0.6,6.8-1.3
			c-0.4,0.6-0.6,1.2-0.5,1.9c0,1.4,0.7,2.5,1.5,2.5s1.5-1.1,1.5-2.5c0.1-0.9-0.3-1.7-0.9-2.3c1.5-0.4,2.9-0.9,4.3-1.4
			c1.5-0.6,3.2-0.8,4.8-0.6c0.1-0.7,0.2-1.4,0.3-2.1c0-0.4,0.1-0.8,0.1-1.3h-0.3C164.8,122.3,162.1,122.7,159.4,122.9z"/>
		<path class="st14" d="M162.3,109.2c-1.7,0.6-10.7,3.9-13.6,3.3c-2-0.4-6.4,0.5-10.2,1.6c0.5-0.6,0.7-1.3,0.7-2.1
			c0-1.4-0.7-2.5-1.5-2.5s-1.5,1.1-1.5,2.5c-0.1,1,0.3,1.9,1.2,2.4c-1.3,0.4-2.6,0.8-3.5,1.2c-3.7,1.5-10.1,5-12.5,4.7
			c-1.8-0.2-4.8,1-6.8,2.2c-0.2-1-0.8-1.6-1.4-1.6c-0.8,0-1.5,1.1-1.5,2.5c0,0.4,0.1,0.8,0.2,1.3c-3,2.2-10.4,6.2-14.6,6.2
			c-5,0-10.7,3.5-13.6,4.6s-9.7,0.9-12.6,1.1s-12.4,4.3-16.2,4.3c-2.5,0-6.2-0.2-8.6,0c0,0.8,0,1.6,0,2.4c0,0.4,0,0.7,0,1.1
			c0.1,0,4.9,1.1,8.3,0s11.5-3,16.2-2.6s9.6-0.3,13.4-3.1s9.8-3,13.2-4c0.9-0.3,1.8-0.6,2.7-1.1c0,0.1,0,0.2,0,0.3
			c0,1.1,0.5,2,1.2,2s1.2-0.9,1.2-2c0-0.4-0.1-0.9-0.3-1.3c2.6-1.3,5.2-2.8,6.9-3.5c2.8-1.3,8.8-4,10.6-4c1.2,0,4.6-1.5,7.3-2.8
			c0.1,1.2,0.7,2.2,1.5,2.2c0.8,0,1.5-1.1,1.5-2.5c0-0.4-0.1-0.8-0.2-1.2c0.2-0.1,0.4-0.2,0.6-0.4c1.7-1.3,5.5-1.7,8-1.7
			c0.9,0,1.8-0.1,2.7-0.3c0,0.2,0,0.4-0.1,0.6c0,1.4,0.7,2.5,1.5,2.5s1.5-1.1,1.5-2.5c0-0.4-0.1-0.8-0.2-1.2
			c1.3-0.3,2.5-0.7,3.6-1.2c1-0.7,5-0.4,7.4-0.9c1.2-0.3,3.3-0.5,5.2-0.8c-0.1,0.4-0.2,0.8-0.2,1.2c0,1.4,0.7,2.5,1.5,2.5
			s1.5-1.1,1.5-2.5c0-0.6-0.1-1.2-0.4-1.7c0.6-0.1,1.1-0.4,1.6-0.8c1-1.1,3.6-1.5,4.6-0.4c0.1-0.8,0.1-1.7,0.1-2.5c0-0.5,0-1,0-1.4
			C168,109.1,163.8,108.6,162.3,109.2z"/>
		<path class="st14" d="M59.9,110.5c0.5,0,1-0.6,1.1-1.4c2.6-0.3,4.7-0.6,5.1-0.9c1.4-1.1,9.8-2.1,12.4-3.1s13.3-6.8,19.6-8.4l0,0
			c0,1.1,0.5,2,1.2,2s1.2-0.9,1.2-2c0-0.2,0-0.5-0.1-0.7l0.8-0.3c0.1,1.2,0.7,2,1.5,2s1.5-1.1,1.5-2.5c0-0.3,0-0.6-0.1-0.9
			c2.9-1.7,5.1-3.8,7.6-4.4c3.8-1,7-3.1,10.1-4.4c0.3-0.1,0.6-0.3,0.9-0.4c0.2,0.2,0.4,0.2,0.6,0.3c0.5,0,0.9-0.5,1.1-1.2
			c2-1.4,4.3-2.3,6.7-2.7c5.5-1.1,12.8-2.1,15.1-3.1s5.3-2.6,9.8-1.8c1.8,0.3,3.6,0.4,5.4,0.3c0,0.2-0.1,0.5-0.1,0.7
			c0,1.4,0.7,2.5,1.5,2.5s1.5-1.1,1.5-2.5c0-0.3,0-0.6-0.1-0.9l0.9-0.1c-0.2-0.5-0.4-0.9-0.5-1.4s-0.3-0.8-0.5-1.1
			c0,0-12.6-1.5-14.1,0s-17.9,4.8-20,5.1s-14.2,5.3-17,7.5c-0.2,0.1-0.4,0.3-0.6,0.4c0.2-0.5,0.3-1,0.3-1.5c0-1.3-0.6-2.3-1.3-2.5
			c7.1-2.6,15.7-5.7,18.7-6.3c2.6-0.5,5.1-1.2,7.6-2c0.1,1,0.6,1.8,1.2,1.8s1.2-0.9,1.2-2c0-0.2,0-0.4-0.1-0.6
			c5.1-1.6,10.7-3.4,13.6-4.3c0.5-0.2,0.9-0.3,1.4-0.4c0,0.2,0,0.4,0,0.6c0,1.4,0.7,2.5,1.5,2.5s1.5-1.1,1.5-2.5
			c0-0.3,0-0.6-0.1-0.9c1.2-0.1,2.4,0.2,3.4,0.7c-1.2-1.3-2.9-2.2-4.7-2.3h-0.1h-0.3c-11.6,0.1-107,37.1-107,37.1
			c-0.1,0.5-0.1,0.9-0.2,1.4c0.2-0.1,10.6-2.9,15.4-5.4c1.3-0.7,4.3-1.9,8-3.3c-0.1,0.4-0.2,0.8-0.2,1.2c0,1.4,0.7,2.5,1.5,2.5
			s1.5-1.1,1.5-2.5c0-0.7-0.2-1.4-0.6-2c4.1-1.5,8.8-3.2,13.1-4.7c0,0.2-0.1,0.5-0.1,0.7c0,1.4,0.7,2.5,1.5,2.5s1.5-1.1,1.5-2.5
			c0-0.6-0.1-1.1-0.4-1.6c5.5-1.9,10-3.5,11.2-4s4.8-1.9,8.9-3.5c-0.5,0.6-0.8,1.3-0.7,2.1c-0.1,0.9,0.3,1.8,1,2.3
			c-4,1.7-10.8,3.3-13.9,5.6c-2.9,2.2-9.6,5.6-14.7,7.5c0.1-0.3,0.2-0.7,0.2-1.1c0-1.1-0.5-2-1.2-2s-1.2,0.9-1.2,2
			c0,0.6,0.2,1.2,0.6,1.7c-0.9,0.3-1.8,0.6-2.7,0.8c-4.4,0.8-20.7,4.8-29.1,6c0,0.3-0.1,0.6-0.1,0.8s-0.1,0.7-0.1,1
			c0,0,5.6-0.2,10.5-0.6C59,110,59.4,110.5,59.9,110.5z"/>
		<path class="st14" d="M68.7,111.5c0,1.4,0.7,2.5,1.5,2.5s1.5-1.1,1.5-2.5s-0.7-2.5-1.5-2.5S68.7,110.1,68.7,111.5z"/>
		<path class="st14" d="M58.2,122.9c0.8,0,1.5-1.1,1.5-2.5c0-0.1,0-0.1,0-0.2c3.3-1,8.7-2.4,11.6-2.3s12.8-3.8,16.8-5.5
			s12.8-5.5,16-6.8c1.3-0.5,3.5-1.4,5.6-2.4c-0.1,0.3-0.1,0.6-0.1,0.9c0,1.4,0.7,2.5,1.5,2.5s1.5-1.1,1.5-2.5c0-0.7-0.2-1.4-0.6-2
			c2.3-1.1,4.3-2.1,5.3-2.6c0.3-0.2,0.9-0.5,1.6-0.8c-0.1,0.3-0.2,0.7-0.2,1c0,1.1,0.5,2,1.2,2s1.2-0.9,1.2-2c0-0.6-0.2-1.3-0.6-1.7
			c3.7-1.7,9.2-3.8,11.9-3.9c3.7-0.1,13.3-3.2,16.5-4.6s9.7-1.7,12.3-0.8s6.5,0.2,6.5,0.2c-0.1-0.7-0.2-1.4-0.3-2.1l-0.2-1.5
			c0,0-3.8,2.1-6.7,1.3c-1.1-0.3-2.1-0.5-3.2-0.7c0.1-0.3,0.1-0.6,0.1-0.9c0-1.4-0.7-2.5-1.5-2.5s-1.5,1.1-1.5,2.5
			c0,0.2,0,0.5,0.1,0.7c-2-0.1-4,0.3-5.8,1.2c-4,2-14.4,5-16.9,4.9s-11.4,3.4-15.1,5.4s-10.2,5.7-13.9,6.4c-1.3,0.3-2.6,0.7-3.8,1.2
			c-0.2-0.8-0.8-1.4-1.3-1.4c-0.8,0-1.5,1.1-1.5,2.5l0,0c-3.2,1.3-6.3,2.7-9.4,4.3c-0.9,0.5-2.3,1.2-4,1.8c0.4-0.5,0.6-1.1,0.6-1.7
			c0-1.1-0.5-2-1.2-2s-1.2,0.9-1.2,2s0.5,1.9,1.1,2c-4.2,1.7-9.7,3.5-12,3.5c-3.8,0-7.5,0.5-11.1,1.7c-3.7,1.2-10.1,1.9-11.8,1.1
			c-0.1,0.7-0.1,1.3-0.2,2c0,0.4-0.1,0.9-0.1,1.3c1.5-0.1,6.3-0.3,9.7-0.8C56.9,122,57.5,122.9,58.2,122.9z"/>
		<path class="st14" d="M130.2,83.7c-0.8,0-1.5,1.1-1.5,2.5s0.7,2.5,1.5,2.5s1.5-1.1,1.5-2.5S131.1,83.7,130.2,83.7z"/>
		<path class="st14" d="M152.8,80.3c0,1.4,0.7,2.5,1.5,2.5s1.5-1.1,1.5-2.5s-0.7-2.5-1.5-2.5S152.8,78.9,152.8,80.3z"/>
		<path class="st14" d="M146.2,93.7c0,1.1,0.5,2,1.2,2s1.2-0.9,1.2-2s-0.5-2-1.2-2S146.2,92.6,146.2,93.7z"/>
		<path class="st14" d="M144.5,81.8c0,1.1,0.5,2,1.2,2s1.2-0.9,1.2-2s-0.5-2-1.2-2S144.5,80.7,144.5,81.8z"/>
		<path class="st14" d="M135.6,87.7c0,1.4,0.7,2.5,1.5,2.5s1.5-1.1,1.5-2.5s-0.7-2.5-1.5-2.5S135.6,86.3,135.6,87.7z"/>
		<path class="st14" d="M77.3,130.8c0,1.4,0.7,2.5,1.5,2.5s1.5-1.1,1.5-2.5s-0.7-2.5-1.5-2.5S77.3,129.5,77.3,130.8z"/>
		<path class="st14" d="M55,136.8c0,1.4,0.7,2.5,1.5,2.5s1.5-1.1,1.5-2.5s-0.7-2.5-1.5-2.5S55,135.4,55,136.8z"/>
		<path class="st14" d="M88.9,141.3c0-1.4-0.7-2.5-1.5-2.5s-1.5,1.1-1.5,2.5s0.7,2.5,1.5,2.5S88.9,142.6,88.9,141.3z"/>
		<path class="st14" d="M63.2,145.7c0-1.4-0.7-2.5-1.5-2.5s-1.5,1.1-1.5,2.5s0.7,2.5,1.5,2.5S63.2,147.1,63.2,145.7z"/>
		<path class="st14" d="M70,156.1c0-1.4-0.7-2.5-1.5-2.5s-1.5,1.1-1.5,2.5s0.7,2.5,1.5,2.5S70,157.5,70,156.1z"/>
		<path class="st14" d="M81.7,142.7c0-1.1-0.5-2-1.2-2s-1.2,0.9-1.2,2s0.5,2,1.2,2S81.7,143.8,81.7,142.7z"/>
		<path class="st14" d="M150.8,141.7c-0.8,0-1.5,1.1-1.5,2.5s0.7,2.5,1.5,2.5s1.5-1.1,1.5-2.5S151.6,141.7,150.8,141.7z"/>
		<path class="st14" d="M135.4,146.2c-0.8,0-1.5,1.1-1.5,2.5s0.7,2.5,1.5,2.5s1.5-1.1,1.5-2.5S136.2,146.2,135.4,146.2z"/>
		<path class="st14" d="M129.8,138.8c0-1.4-0.7-2.5-1.5-2.5s-1.5,1.1-1.5,2.5s0.7,2.5,1.5,2.5C129.1,141.3,129.8,140.1,129.8,138.8z
			"/>
		<path class="st14" d="M120.2,152.6c-0.8,0-1.5,1.1-1.5,2.5s0.7,2.5,1.5,2.5s1.5-1.1,1.5-2.5S121,152.6,120.2,152.6z"/>
	</g>
	<path class="st15" d="M173.9,67.1c0,0-5.4,0.2-8.2-4.1s-15.6-0.1-14.8,5s1.6,7.5-1.5,8.8s-3.3-7.6-9.4-5.7s-13.3,7.1-22.5,10.5
		s-3.2,9.5-9,11.9s-2.9-6.8-13.3-4.8s-9.9,5.6-13.4,6.8s-10.2,0-20.1,3.8s-12.5,8.2-13.2,4.1S79.3,49,85,42.8s39.2-5.4,47.5-4.3
		S176.6,46.5,173.9,67.1z"/>
	<g>
		<path class="st15" d="M117.4,81.8c9.2-3.4,16.3-8.5,22.5-10.5C118,78.1,81,92.1,61.7,99.4c9.9-3.8,16.6-2.5,20-3.8s3-4.9,13.4-6.8
			c5.5-1,7.3,1,8.6,2.9l0.9-0.5c2.4-1.2,4.8-2.4,7.1-3.4C112.1,85.6,113.1,83.4,117.4,81.8z"/>
		<path class="st15" d="M61.7,99.4c-7.6,2.9-12.5,4.8-12.5,4.8c0,0.2-0.1,0.5-0.1,0.7C50.3,106.1,53.5,102.6,61.7,99.4z"/>
		<path class="st15" d="M150.8,68.1L150.8,68.1c-2.9,0.7-6.6,1.8-10.9,3.2c4.6-1.5,5.8,3.2,7.5,5c1.3-0.2,2.5-0.4,3.6-0.6
			C152,74.2,151.4,71.9,150.8,68.1z"/>
	</g>
	<path class="st16" d="M48.9,104.7c1.2,1.7,4.2-2,12.8-5.3c9.9-3.8,16.6-2.5,20.1-3.8s3-4.9,13.4-6.8s7.6,7.2,13.3,4.8
		s-0.2-8.5,9-11.9s16.3-8.5,22.5-10.5s6.3,6.9,9.4,5.7s2.3-3.6,1.5-8.8s12-9.3,14.8-5s8.2,4.1,8.2,4.1c1.7-13.3-12.4-20.9-24.9-24.9
		C97.8,60.5,66,86.7,48.9,104.7z"/>
	<path class="st17" d="M149.3,46c-15.2-6.8-57.6-7.7-61.9-1.7S52.2,94.7,56.5,95.7s22.6-5.6,32.4-15.4S78.7,69.3,83,61.4
		s7.4-16.8,17.3-14.5s14.5,11.6,24.7,12.5S174,57.1,149.3,46z"/>
	<path class="st14" d="M174,67.6c0-0.2-0.1-0.3-0.1-0.5l0,0c0-0.3,0.1-0.6,0.1-0.9c0,0-5.3-0.4-7-3.7s-6.4-3-11.2-1.4
		s-6.6,5.3-6.4,6s1.4,6.8,0,7.7s-1.7-0.7-4.8-4.3s-9.9,0.4-14.2,3.1c-5,3-10.2,5.8-15.5,8.1c-4.3,1.8-4.7,6.1-4.9,7.6
		s-1.4,3.7-3.1,3.2s-2.7-2.8-2.7-2.8c-3.8-5.4-15.1-1.8-18.5,1.6s-5.7,4.1-8.9,4.1s-8,1-11.9,1.8s-10.9,4.5-12.8,5.9
		s-3.3,0.8-3.3,0.8c0.1,0.4,0.2,0.7,0.5,1c-0.1,0.3-0.1,0.7-0.2,1c0.9,0.4,1.2,0.7,4-0.8c3.9-2.1,7.9-3.8,12.1-5.3
		c6.7-2.5,13.5-1.4,17.1-2.6s2.7-4.7,10.4-6.7s9.4,1.2,9.8,2.3c1.2,2.5,4.2,3.5,6.7,2.3c0,0,0,0,0,0c3.7-1.6,3-4.8,3.9-7.9
		s5.1-3.8,8.6-5.5s13.4-6.7,17-8.7s6.1,1.4,7.1,3.2s2.9,2.5,5.3,0.8s1.7-6.6,1.3-8.5s0.8-3.9,4.2-5.3s7.6-1.3,9.4,1.8
		c1.8,3,8.1,3.1,8.1,3.1L174,67.6z"/>
	<path class="st18" d="M64.7,83.7c0.3-0.6,0.6-1,0.8-1.4c7.4-13,20.9-33.3,22.7-35.6s-1.3-0.3-1.5,0c-9.2,11.8-23,34.8-26.5,41.2V88
		c-1,2.3-1.7,5.2-1,5.7c1,0.7,17.3-4.5,18.9-7.4s-3.7-3.7-5.1-3.1c-2.4,1-12.1,8-8.7,1.5L64.7,83.7z"/>
</g>
</svg>
