<svg xmlns="http://www.w3.org/2000/svg" viewBox="0 0 225 225">
  <defs>
    <style>
      .cls-1 {
        fill: #eddab7;
      }

      .cls-2 {
        opacity: 0.5;
      }

      .cls-3 {
        fill: #fcd988;
      }

      .cls-4 {
        isolation: isolate;
        font-size: 15.68px;
        fill: #633e37;
        font-family: Oswald-Regular, Oswald;
        letter-spacing: -0.02em;
      }

      .cls-5 {
        fill: #ededed;
      }

      .cls-6, .cls-9 {
        fill: #ddb760;
      }

      .cls-7 {
        fill: #895d41;
      }

      .cls-8 {
        fill: #e7cf86;
      }

      .cls-11, .cls-9 {
        opacity: 0.6;
      }

      .cls-10, .cls-11 {
        fill: #efc230;
      }

      .cls-10 {
        opacity: 0.8;
      }

      .cls-12 {
        opacity: 0.7;
      }

      .cls-13 {
        fill: #fff;
        opacity: 0.3;
      }

      .cls-14 {
        fill: #754a35;
      }

      .cls-15 {
        fill: #c8a153;
      }
    </style>
  </defs>
  <title>CAKE4</title>
  <g id="圖層_2" data-name="圖層 2">
    <g id="圖層_1-2" data-name="圖層 1">
      <rect class="cls-1" width="225" height="225"/>
      <g class="cls-2">
        <rect class="cls-3" y="180.5" width="225" height="44.5"/>
      </g>
      <text class="cls-4" transform="translate(87.53 209.14)">TRADITION</text>
      <g>
        <path class="cls-5" d="M48.84,177.43s101.81-13.74,120.74-29.86-6.2-22.09-6.2-22.09Z"/>
        <path class="cls-6" d="M160.67,72.54S136.09,55.15,87.07,53c0,0-38,53.16-38.23,54.54s62.35-5.34,62.35-5.34Z"/>
        <path class="cls-7" d="M47.68,171.23h0c.63,4,1.16,6.2,1.16,6.2,115-24.55,112.38-27,116.08-38.76a54.09,54.09,0,0,0,1.5-6.48C161.23,148.85,47.68,171.23,47.68,171.23Z"/>
        <path class="cls-8" d="M155.8,70.47c-11.54.09-107,37.09-107,37.09-4.87,30.69-2.74,53.35-1.16,63.67h0s113.55-22.38,118.74-39C170,111.84,169.57,70.35,155.8,70.47Z"/>
        <path class="cls-6" d="M46,136.18c4.23-4,10.36-6.51,19.13-4,22.59,6.51,38.57-9.48,38.57-9.48-15.34,8.31-21.52,9-39.21,5.32a30.47,30.47,0,0,0-18.15,1.71C46.19,132,46.07,134.1,46,136.18Z"/>
        <path class="cls-9" d="M155.8,70.47c-11.54.09-107,37.09-107,37.09s103-34.51,109.2-29.82c1.09.83,2,3,2.82,6,0,0-8.81,12.41-31.59,12.81s-34.1-1.29-40.71,8.94-30,6.39-30,6.39,26,5.46,32.81-4,20.89-4.9,37.72-3.62c13.07,1,27.84-.74,34.2-4.23,1.13,14.27.61,30.36-1.59,32.25-1.92,1.66-19.36,8.53-41.93,16a21.19,21.19,0,0,0,1-4.69c2.05-18.36,24.94-19.26,24.94-19.26-16-4.69-31.88,4.1-38.63,15.77-8.58,14.84-42,23.76-42,23.76h0c-6.19,1.43-12.21,2.68-17.9,3.66.18,1.42.36,2.71.53,3.84,0,0,113.55-22.38,118.74-39C170,111.84,169.57,70.35,155.8,70.47Z"/>
        <path class="cls-6" d="M153.13,119.3c0,1.88-.42,3.41-.95,3.41s-1-1.53-1-3.41.43-3.41,1-3.41S153.13,117.41,153.13,119.3Z"/>
        <path class="cls-6" d="M102,108.07c0,1.89-.43,3.41-1,3.41s-1-1.52-1-3.41.43-3.41,1-3.41S102,106.19,102,108.07Z"/>
        <path class="cls-6" d="M62.89,152.33c0,1.88-.43,3.41-1,3.41s-1-1.53-1-3.41.43-3.41,1-3.41S62.89,150.45,62.89,152.33Z"/>
        <path class="cls-6" d="M92.51,139.59c0,1.88-.43,3.41-1,3.41s-1-1.53-1-3.41.43-3.41,1-3.41S92.51,137.71,92.51,139.59Z"/>
        <path class="cls-6" d="M135.89,137.8c0,2.87-.66,5.2-1.46,5.2s-1.47-2.33-1.47-5.2.66-5.21,1.47-5.21S135.89,134.92,135.89,137.8Z"/>
        <ellipse class="cls-6" cx="50.31" cy="134.78" rx="1.46" ry="5.2"/>
        <ellipse class="cls-6" cx="149.75" cy="91.31" rx="1.46" ry="5.2"/>
        <path class="cls-6" d="M57.56,115.89c0,1.88-.43,3.41-1,3.41s-1-1.53-1-3.41.43-3.41,1-3.41S57.56,114,57.56,115.89Z"/>
        <path class="cls-6" d="M156.18,113.71c0,1.51-.35,2.74-.77,2.74s-.77-1.23-.77-2.74.34-2.75.77-2.75S156.18,112.19,156.18,113.71Z"/>
        <path class="cls-6" d="M119.81,108.07c0,1.52-.35,2.75-.77,2.75s-.77-1.23-.77-2.75.34-2.74.77-2.74S119.81,106.56,119.81,108.07Z"/>
        <path class="cls-6" d="M84.4,137.52c0,1.51-.35,2.74-.77,2.74s-.77-1.23-.77-2.74.34-2.74.77-2.74S84.4,136,84.4,137.52Z"/>
        <path class="cls-6" d="M107.44,130c0,1.51-.35,2.74-.77,2.74s-.77-1.23-.77-2.74.34-2.74.77-2.74S107.44,128.5,107.44,130Z"/>
        <path class="cls-6" d="M123.86,93.77c0,1.52-.35,2.74-.77,2.74s-.77-1.22-.77-2.74.34-2.74.77-2.74S123.86,92.26,123.86,93.77Z"/>
        <path class="cls-10" d="M168.13,59.1c.25.34.49.68.73,1C168.62,59.78,168.38,59.44,168.13,59.1Z"/>
        <path class="cls-10" d="M168.89,60.19q.36.53.69,1.08Q169.25,60.72,168.89,60.19Z"/>
        <path class="cls-8" d="M99.92,60.06c-.18.88-2.41,1.15-5,.61S90.42,59,90.6,58.13s2.42-1.15,5-.61S100.11,59.19,99.92,60.06Z"/>
        <path class="cls-8" d="M125.71,64.08c-.18.88-2.41,1.15-5,.61s-4.51-1.67-4.33-2.54,2.41-1.15,5-.61S125.89,63.21,125.71,64.08Z"/>
        <path class="cls-8" d="M115.23,73.51c-.18.87-2.41,1.15-5,.61s-4.51-1.67-4.33-2.54,2.41-1.15,5-.61S115.42,72.64,115.23,73.51Z"/>
        <path class="cls-8" d="M92.19,77.21c-.18.88-2.41,1.15-5,.61s-4.51-1.67-4.33-2.54,2.41-1.15,5-.61S92.37,76.34,92.19,77.21Z"/>
        <path class="cls-8" d="M135.2,71.3c-.09.45-1.24.59-2.55.31s-2.31-.85-2.22-1.3,1.24-.58,2.55-.31S135.29,70.86,135.2,71.3Z"/>
        <path class="cls-8" d="M111.32,69.41c-.09.45-1.23.59-2.55.31s-2.3-.85-2.21-1.3,1.23-.58,2.55-.31S111.42,69,111.32,69.41Z"/>
        <path class="cls-8" d="M67.66,94.27c-.1.44-1.24.58-2.55.31s-2.31-.86-2.22-1.3,1.24-.59,2.55-.31S67.75,93.82,67.66,94.27Z"/>
        <path class="cls-8" d="M89.91,87.55c-.09.44-1.23.58-2.55.31s-2.3-.86-2.21-1.3,1.23-.58,2.55-.31S90,87.1,89.91,87.55Z"/>
        <path class="cls-8" d="M80.93,73c-.09.44-1.23.58-2.55.31s-2.31-.85-2.21-1.3,1.23-.58,2.55-.31S81,72.59,80.93,73Z"/>
        <path class="cls-8" d="M97.65,63.61c-.1.45-1.24.59-2.55.31s-2.31-.85-2.22-1.3,1.23-.58,2.55-.31S97.74,63.17,97.65,63.61Z"/>
        <path class="cls-8" d="M106.6,80.81c-.11.49-1.36.64-2.81.34s-2.54-.94-2.44-1.43,1.36-.64,2.81-.34S106.7,80.32,106.6,80.81Z"/>
        <path class="cls-8" d="M115.23,65.51c-.1.49-1.36.65-2.81.34s-2.54-.94-2.44-1.43,1.36-.64,2.81-.34S115.33,65,115.23,65.51Z"/>
        <path class="cls-8" d="M119,61.81c-.1.49-1.36.64-2.81.34s-2.54-.94-2.44-1.43,1.36-.64,2.81-.34S119.1,61.32,119,61.81Z"/>
        <path class="cls-8" d="M117.67,75c-.1.49-1.36.64-2.8.34s-2.55-.94-2.44-1.43,1.35-.65,2.8-.35S117.78,74.46,117.67,75Z"/>
        <path class="cls-8" d="M77.47,84.93c-.1.49-1.36.64-2.81.34s-2.54-.94-2.44-1.43,1.36-.64,2.81-.34S77.57,84.44,77.47,84.93Z"/>
        <path class="cls-8" d="M82.89,84.64c-.15.74-2,1-4.21.51S74.87,83.74,75,83s2-1,4.21-.52S83,83.91,82.89,84.64Z"/>
        <path class="cls-10" d="M167.31,58h0c1.12,1.3-.75,3.51-6.64,5.64-5.24,1.9-92.48,31.95-110.89,38.25-.39.73-.86,5.12-.94,5.63,0,0,95.42-37,107-37.09,13.77-.12,14.2,41.37,10.62,61.72a54.09,54.09,0,0,1-1.5,6.48c-1.59,5.08-2,8.42-11.18,12.54,0,0,14.34-4.86,16.17-11.79C171.62,132.89,185,79.73,167.31,58Z"/>
        <path class="cls-11" d="M160.67,63.68c5.89-2.13,7.76-4.34,6.64-5.64l.79,1a25.47,25.47,0,0,0-4.4-4.64c-23-18.6-73.62-15.89-77.27-12.6-3,2.66-27.93,44.71-36.65,60.11C72.36,94.19,155.63,65.5,160.67,63.68Z"/>
        <g class="cls-12">
          <path class="cls-13" d="M152.22,62.73c5.19-1.88,6.84-3.82,5.85-5,.24.3.47.59.7.9a22.15,22.15,0,0,0-3.88-4.09c-20.26-16.4-64.92-14-68.13-11.11-2.61,2.34-24.63,39.42-32.32,53C74.35,89.64,147.77,64.34,152.22,62.73Z"/>
          <path class="cls-13" d="M129.17,56.17c3.33-1.2,4.38-2.45,3.75-3.18l.45.58a14.45,14.45,0,0,0-2.49-2.63c-13-10.51-41.6-9-43.66-7.12-1.67,1.51-15.78,25.27-20.71,34C79.26,73.42,126.32,57.21,129.17,56.17Z"/>
          <path class="cls-13" d="M113,52c2-.74,2.67-1.49,2.28-1.94.1.11.19.23.28.35a8.19,8.19,0,0,0-1.52-1.59c-7.89-6.4-25.3-5.47-26.55-4.34-1,.92-9.6,15.37-12.6,20.66C82.69,62.49,111.31,52.63,113,52Z"/>
        </g>
        <path class="cls-14" d="M166.07,134s-4.7,14.19-26.29,18.31S117.7,161.56,102,163s-40.22,7-44.47,10.23-6.42.57-9.55,0h0c.47,2.76.83,4.22.83,4.22,115-24.55,112.38-27,116.08-38.76a45.83,45.83,0,0,0,1.15-4.65Z"/>
        <path class="cls-15" d="M166.42,132.19c.15-.87.3-1.79.44-2.75-7.55,12.29-36.53,18.2-44.54,21.77s-11.17-5.06-18.35,2.4c-5.3,5.5-21.9,10-30.51,12.08C107.28,158,162.83,143.73,166.42,132.19Z"/>
        <path class="cls-15" d="M163.86,92.55a2.17,2.17,0,1,1-2.17-2.16A2.17,2.17,0,0,1,163.86,92.55Z"/>
        <path class="cls-15" d="M154.64,97.26a.76.76,0,1,1-.75-.75A.76.76,0,0,1,154.64,97.26Z"/>
        <path class="cls-15" d="M150.47,100.81A2.79,2.79,0,1,1,147.68,98,2.78,2.78,0,0,1,150.47,100.81Z"/>
        <path class="cls-15" d="M144.33,97.83a.57.57,0,0,1-.57.57.56.56,0,0,1-.57-.57.57.57,0,0,1,.57-.57A.58.58,0,0,1,144.33,97.83Z"/>
        <path class="cls-15" d="M107.44,99.74a1.34,1.34,0,1,1-1.34-1.34A1.34,1.34,0,0,1,107.44,99.74Z"/>
        <path class="cls-15" d="M126,100.81a2.87,2.87,0,0,0-2.86,2.78c1.85.21,3.76.4,5.69.56a2.5,2.5,0,0,0,.05-.47A2.87,2.87,0,0,0,126,100.81Z"/>
        <path class="cls-15" d="M124.22,99.62a.57.57,0,1,1-1.13,0,.57.57,0,1,1,1.13,0Z"/>
        <path class="cls-15" d="M109,143.66a3.07,3.07,0,1,0,0-6.14l-.36,0c-.56.79-1.08,1.6-1.56,2.42-.3.52-.64,1-1,1.54A3.08,3.08,0,0,0,109,143.66Z"/>
        <path class="cls-15" d="M120.16,135a.95.95,0,1,1-1-.95A.95.95,0,0,1,120.16,135Z"/>
        <path class="cls-15" d="M118.27,139.44a.61.61,0,0,1-.61.61.61.61,0,1,1,0-1.22A.61.61,0,0,1,118.27,139.44Z"/>
        <path class="cls-15" d="M127.08,128.32a2.85,2.85,0,0,0-2,4.89,20.69,20.69,0,0,1,4.25-3.77A2.82,2.82,0,0,0,127.08,128.32Z"/>
        <path class="cls-15" d="M88.45,160.44a4,4,0,0,0,2.71-7.06c-2.22,1.21-4.49,2.32-6.73,3.33A4,4,0,0,0,88.45,160.44Z"/>
        <path class="cls-15" d="M117.76,147.07a1.85,1.85,0,1,1-1.85-1.85A1.85,1.85,0,0,1,117.76,147.07Z"/>
        <path class="cls-15" d="M63.63,129.17a.85.85,0,1,1-.85-.85A.85.85,0,0,1,63.63,129.17Z"/>
        <path class="cls-15" d="M79.08,130.11a60,60,0,0,1-6.83-.67c0,.12,0,.23,0,.34a3.44,3.44,0,0,0,6.87.33Z"/>
        <path class="cls-15" d="M57.1,130.38a2.06,2.06,0,0,0-4.12,0,2,2,0,0,0,.59,1.44,17.27,17.27,0,0,1,3.33-.57A2.13,2.13,0,0,0,57.1,130.38Z"/>
        <path class="cls-15" d="M148.91,75.44a2.31,2.31,0,0,0-2.31,2.31,2.45,2.45,0,0,0,.14.78c1.64-.33,3.14-.6,4.48-.8A2.31,2.31,0,0,0,148.91,75.44Z"/>
        <path class="cls-15" d="M123.66,82.61a1.31,1.31,0,1,1-2.61,0,1.31,1.31,0,0,1,2.61,0Z"/>
        <path class="cls-15" d="M126.78,80.79a.53.53,0,0,1-1.06,0,.53.53,0,0,1,1.06,0Z"/>
        <path class="cls-15" d="M151.22,73.7a1.16,1.16,0,1,1-1.16-1.16A1.15,1.15,0,0,1,151.22,73.7Z"/>
        <path class="cls-15" d="M155.41,74.46a.76.76,0,1,1-.76-.76A.76.76,0,0,1,155.41,74.46Z"/>
        <path class="cls-15" d="M140.06,101.14A2.09,2.09,0,1,1,138,99.05,2.09,2.09,0,0,1,140.06,101.14Z"/>
        <path class="cls-15" d="M122.45,129.46a1.15,1.15,0,1,1-1.15-1.14A1.14,1.14,0,0,1,122.45,129.46Z"/>
        <path class="cls-15" d="M76.7,162.49a.93.93,0,0,1-1.86,0,.93.93,0,0,1,1.86,0Z"/>
        <circle class="cls-15" cx="83.63" cy="131.53" r="0.77"/>
        <path class="cls-15" d="M94.18,103.31a.85.85,0,0,1-.84.84.84.84,0,0,1-.83-.84.83.83,0,0,1,.83-.83A.84.84,0,0,1,94.18,103.31Z"/>
        <path class="cls-15" d="M90.4,108.87a3.87,3.87,0,0,0-2.5-2.51,13.5,13.5,0,0,1-5,3.69,3.87,3.87,0,0,0,.79,2.3A14.63,14.63,0,0,0,90.4,108.87Z"/>
        <path class="cls-15" d="M167.55,110.1a1.39,1.39,0,1,1-1.38-1.39A1.38,1.38,0,0,1,167.55,110.1Z"/>
        <path class="cls-15" d="M166.86,122a3.47,3.47,0,0,0-3.08-3.44c-.07,2.56-.21,4.91-.41,6.92h0A3.48,3.48,0,0,0,166.86,122Z"/>
        <path class="cls-10" d="M163.86,145.22a29.93,29.93,0,0,0,5-6.39c2.06-3.63,8.75-46.53,4.49-63.61s-9.21-4.63-6.52,6.09S171.81,129,163.86,145.22Z"/>
      </g>
    </g>
  </g>
</svg>
