<?xml version="1.0" encoding="utf-8"?>
<!-- Generator: Adobe Illustrator 23.1.0, SVG Export Plug-In . SVG Version: 6.00 Build 0)  -->
<svg version="1.1" id="圖層_1" xmlns="http://www.w3.org/2000/svg" xmlns:xlink="http://www.w3.org/1999/xlink" x="0px" y="0px"
	 viewBox="0 0 225.9 225.9" style="enable-background:new 0 0 225.9 225.9;" xml:space="preserve">
<style type="text/css">
	.st0{fill:#E0BAAA;}
	.st1{opacity:0.71;}
	.st2{fill:#DBB58D;}
	.st3{enable-background:new    ;}
	.st4{fill:#633E37;}
	.st5{fill:#EDEDED;}
	.st6{fill:#312219;}
	.st7{fill:#6A4D3C;}
	.st8{fill:#915E3C;}
	.st9{fill:#E5DDB3;}
	.st10{fill:#3B291F;}
	.st11{fill:#B63330;}
	.st12{fill:#832729;}
	.st13{fill:url(#SVGID_1_);}
	.st14{fill:#E49933;}
	.st15{opacity:0.4;fill:#FFFFFF;enable-background:new    ;}
	.st16{fill:url(#SVGID_2_);}
	.st17{fill:#E0D6A3;}
	.st18{opacity:0.5;fill:#915E3C;enable-background:new    ;}
	.st19{opacity:0.15;fill:#FFFFFF;enable-background:new    ;}
	.st20{fill:url(#SVGID_3_);}
	.st21{fill:#E2D5B6;}
	.st22{opacity:0.5;fill:#FFFFFF;enable-background:new    ;}
	.st23{fill:#D2B874;}
	.st24{fill:url(#SVGID_4_);}
</style>
<title>CAKE1</title>
<rect class="st0" width="225.9" height="225.9"/>
<g class="st1">
	<rect y="181.2" class="st2" width="225.9" height="44.7"/>
</g>
<g class="st3">
	<path class="st4" d="M89.4,205.4v-4.5c0-2.6,0.7-4.3,3.4-4.3c2.4,0,3.2,1.4,3.2,3.7v1h-1.7v-0.9c0-1.4,0-2.4-1.5-2.4
		c-1.5,0-1.7,1-1.7,2.6v5.1c0,1.9,0.4,2.6,1.7,2.6c1.4,0,1.5-1,1.5-2.5v-0.9h1.7v0.9c0,2.3-0.7,3.9-3.2,3.9
		C90.1,209.6,89.4,207.8,89.4,205.4z"/>
	<path class="st4" d="M97.7,196.7h1.8v11.5h3.3v1.3h-5V196.7z"/>
	<path class="st4" d="M106,196.7h1.7l2.7,12.8h-1.7l-0.6-3.2h-2.6l-0.6,3.2h-1.7L106,196.7z M107.9,205l-1.1-5.7l-1.1,5.7H107.9z"/>
	<path class="st4" d="M111.4,205.9l1.6-0.4c0.1,1.4,0.4,2.7,1.8,2.7c0.9,0,1.4-0.5,1.4-1.5c0-1.1-0.6-1.7-1.4-2.5l-2.1-1.9
		c-0.9-0.7-1.2-1.5-1.2-2.8c0-1.9,1.1-2.9,3-2.9c2,0,3,1.1,3.2,3.3l-1.5,0.4c-0.1-1.3-0.4-2.3-1.7-2.3c-0.9,0-1.4,0.5-1.4,1.4
		c0,0.8,0.2,1.2,0.8,1.7l2.2,1.9c1,0.8,1.8,2,1.8,3.6c0,1.9-1.3,3-3.1,3C112.5,209.6,111.5,208.1,111.4,205.9z"/>
	<path class="st4" d="M118.8,205.9l1.6-0.4c0.1,1.4,0.4,2.7,1.8,2.7c0.9,0,1.4-0.5,1.4-1.5c0-1.1-0.6-1.7-1.4-2.5l-2.1-1.9
		c-0.9-0.7-1.2-1.5-1.2-2.8c0-1.9,1.2-2.9,3-2.9c2,0,3,1.1,3.2,3.3l-1.5,0.4c-0.1-1.3-0.4-2.3-1.7-2.3c-0.9,0-1.4,0.5-1.4,1.4
		c0,0.8,0.2,1.2,0.8,1.7l2.2,1.9c1,0.8,1.8,2,1.8,3.6c0,1.9-1.3,3-3.1,3C120,209.6,118.9,208.1,118.8,205.9z"/>
	<path class="st4" d="M126.7,196.7h1.7v12.8h-1.7V196.7z"/>
	<path class="st4" d="M130.3,205.4v-4.5c0-2.6,0.7-4.3,3.4-4.3c2.4,0,3.2,1.4,3.2,3.7v1h-1.7v-0.9c0-1.4,0-2.4-1.5-2.4
		c-1.5,0-1.7,1-1.7,2.6v5.1c0,1.9,0.4,2.6,1.7,2.6c1.4,0,1.5-1,1.5-2.5v-0.9h1.7v0.9c0,2.3-0.7,3.9-3.2,3.9
		C131,209.6,130.3,207.8,130.3,205.4z"/>
</g>
<g>
	<path class="st5" d="M48.5,179.3c0,0,101.8-13.7,120.7-29.9s-6.2-22.1-6.2-22.1L48.5,179.3z"/>
	<path class="st6" d="M153.4,153.1c0,0,14.3-4.9,16.2-11.8s16.8-66.4-6.2-85s-73.3-12-77-8.8c-3.3,3-37.5,59.3-37.5,59.3
		s-0.4,2.4-0.4,2.6C48.1,112.1,153.4,153.1,153.4,153.1z"/>
	<path class="st7" d="M167.6,60.8c-1.2-1.6-2.7-3.1-4.3-4.4c-23-18.6-73.3-12-77-8.8s-37.1,56.7-37.5,59.3c0,0,43.7-15.6,62.8-22.9
		C138.3,73.7,162.1,66.4,167.6,60.8z"/>
	<path class="st8" d="M47,170.8c0.8,5.5,1.5,8.5,1.5,8.5c115-24.6,112.4-27,116.1-38.8c0.4-1.1,0.7-2.4,1-3.8
		C158.5,145.7,47.1,170.8,47,170.8z"/>
	<path class="st8" d="M165.2,83.9c-2-7-5.1-11.6-9.7-11.6c-11.6,0.1-107,37.1-107,37.1c-0.9,5.8-1.6,11.2-2,16.4
		C68.8,112,165.2,83.9,165.2,83.9z"/>
	<path class="st9" d="M165.2,83.9L165.2,83.9c0,0-96.4,28-118.7,41.9c-1.5,15-1.3,30.1,0.6,45c0.1,0,111.5-25.1,118.6-34.1
		C168.4,123.7,169.3,98.7,165.2,83.9z"/>
	<path class="st10" d="M88.7,68.7c0,0,18.5,3.2,27.1,1.3c6.1-1.3,12.2-2.2,18.4-2.6c3.8-0.4,16.2-3.3,14-7.6s-19.9,0.3-19.9,0.3
		S88.6,64.7,88.7,68.7z"/>
	<g>
		<path class="st11" d="M115.8,63.6c1.3,1.3,13.4,4,26,0s-16.3-20.2-21.7-14.5S114.2,62,115.8,63.6z"/>
		<path class="st12" d="M117,64.3c3.6,1.3,14,2.8,24.8-0.6c6.2-2,2.4-6.8-3.7-10.6l0,0C138.1,53,149.4,69.7,117,64.3z"/>
		
			<linearGradient id="SVGID_1_" gradientUnits="userSpaceOnUse" x1="125.9689" y1="176.8486" x2="126.4589" y2="169.2686" gradientTransform="matrix(1 0 0 -1 0 228)">
			<stop  offset="0" style="stop-color:#C73E33"/>
			<stop  offset="1" style="stop-color:#C73E33;stop-opacity:0"/>
		</linearGradient>
		<path class="st13" d="M121.8,50.6c2.2-2.6,10.1,1.1,13.2,5.3s-15.4,7.7-17,5.3S119.1,53.8,121.8,50.6z"/>
		<g>
			<path class="st12" d="M138.3,62.4c0.4,0.1,0.7,0.4,0.7,0.6s-0.4,0.3-0.9,0.2s-0.7-0.4-0.7-0.6S137.9,62.3,138.3,62.4z"/>
			<path class="st14" d="M137.6,62.7c0,0,1.1,0.8,1.2,0.3S137.6,62.7,137.6,62.7z"/>
		</g>
		<g>
			<path class="st12" d="M138.5,57.2c0.4,0.1,0.7,0.4,0.7,0.6s-0.4,0.3-0.9,0.2s-0.7-0.4-0.7-0.6S138.1,57.1,138.5,57.2z"/>
			<path class="st14" d="M137.8,57.5c0,0,1.1,0.8,1.2,0.3S137.8,57.5,137.8,57.5z"/>
		</g>
		<g>
			<path class="st12" d="M134.5,58.1c0.4,0.1,0.7,0.4,0.7,0.6s-0.4,0.3-0.9,0.2s-0.7-0.4-0.7-0.6S134.1,58,134.5,58.1z"/>
			<path class="st14" d="M133.8,58.3c0,0,1.1,0.8,1.2,0.3S133.8,58.3,133.8,58.3z"/>
		</g>
		<g>
			<path class="st12" d="M130.8,62.2c0.4,0.1,0.7,0.4,0.7,0.6s-0.4,0.3-0.9,0.2s-0.7-0.4-0.7-0.6S130.4,62.1,130.8,62.2z"/>
			<path class="st14" d="M130.1,62.5c0,0,1.1,0.8,1.2,0.3S130.1,62.5,130.1,62.5z"/>
		</g>
		<g>
			<path class="st12" d="M135.4,63.5c0.4,0.1,0.7,0.4,0.7,0.6c-0.1,0.2-0.4,0.3-0.9,0.2s-0.7-0.4-0.7-0.6S135,63.3,135.4,63.5z"/>
			<path class="st14" d="M134.7,63.7c0,0,1.1,0.8,1.2,0.3S134.7,63.7,134.7,63.7z"/>
		</g>
		<g>
			<path class="st12" d="M140,60.3c0.4,0.1,0.7,0.4,0.7,0.6s-0.4,0.3-0.9,0.2s-0.7-0.4-0.7-0.6S139.6,60.2,140,60.3z"/>
			<path class="st14" d="M139.3,60.6c0,0,1.1,0.8,1.2,0.3S139.3,60.6,139.3,60.6z"/>
		</g>
		<g>
			<path class="st12" d="M139.4,55.3c0.4,0.1,0.7,0.4,0.7,0.6s-0.4,0.3-0.9,0.2s-0.7-0.4-0.7-0.6S139,55.2,139.4,55.3z"/>
			<path class="st14" d="M138.7,55.6c0,0,1.1,0.8,1.2,0.3S138.7,55.6,138.7,55.6z"/>
		</g>
		<g>
			<path class="st12" d="M142.6,59.3c0.4,0.1,0.7,0.4,0.7,0.6s-0.4,0.3-0.9,0.2s-0.7-0.4-0.7-0.6S142.2,59.2,142.6,59.3z"/>
			<path class="st14" d="M141.9,59.5c0,0,1.1,0.8,1.2,0.3S141.9,59.5,141.9,59.5z"/>
		</g>
		<g>
			<path class="st12" d="M123.2,62.6c0.4,0.1,0.7,0.4,0.7,0.6s-0.4,0.3-0.9,0.2s-0.7-0.4-0.7-0.6S122.8,62.5,123.2,62.6z"/>
			<path class="st14" d="M122.5,62.8c0,0,1.1,0.8,1.2,0.3S122.5,62.8,122.5,62.8z"/>
		</g>
		<g>
			<path class="st12" d="M123.4,60.3c0.4,0.1,0.7,0.4,0.7,0.6s-0.4,0.3-0.9,0.2s-0.7-0.4-0.7-0.6S123,60.2,123.4,60.3z"/>
			<path class="st14" d="M122.7,60.6c0,0,1.1,0.8,1.2,0.3S122.7,60.6,122.7,60.6z"/>
		</g>
		<g>
			<path class="st12" d="M129,58.9c0.4,0.1,0.7,0.4,0.7,0.6s-0.4,0.3-0.9,0.2s-0.7-0.4-0.7-0.6S128.6,58.8,129,58.9z"/>
			<path class="st14" d="M128.3,59.2c0,0,1.1,0.8,1.2,0.3S128.3,59.2,128.3,59.2z"/>
		</g>
		<g>
			<path class="st12" d="M126.5,56.5c0.4,0.1,0.7,0.4,0.7,0.6s-0.4,0.3-0.9,0.2s-0.7-0.4-0.7-0.6S126.1,56.4,126.5,56.5z"/>
			<path class="st14" d="M125.8,56.8c0,0,1.1,0.8,1.2,0.3S125.8,56.8,125.8,56.8z"/>
		</g>
		<g>
			<path class="st12" d="M131.1,53.4c0.4,0.1,0.7,0.4,0.7,0.6s-0.4,0.3-0.9,0.2s-0.7-0.4-0.7-0.6S130.7,53.3,131.1,53.4z"/>
			<path class="st14" d="M130.4,53.7c0,0,1.1,0.8,1.2,0.3S130.4,53.7,130.4,53.7z"/>
		</g>
		<g>
			<path class="st12" d="M131.4,57.5c0.4,0.1,0.7,0.4,0.7,0.6s-0.4,0.3-0.9,0.2s-0.7-0.4-0.7-0.6S131,57.4,131.4,57.5z"/>
			<path class="st14" d="M130.8,57.8c0,0,1.1,0.8,1.2,0.3S130.8,57.8,130.8,57.8z"/>
		</g>
		<g>
			<path class="st12" d="M135.1,52.7c0.4,0.1,0.7,0.4,0.7,0.6s-0.4,0.3-0.9,0.2s-0.7-0.4-0.7-0.6S134.7,52.6,135.1,52.7z"/>
			<path class="st14" d="M134.4,53c0,0,1.1,0.8,1.2,0.3S134.4,53,134.4,53z"/>
		</g>
		<g>
			<path class="st12" d="M134.3,55c0.4,0.1,0.7,0.4,0.7,0.6s-0.4,0.3-0.9,0.2s-0.7-0.4-0.7-0.6S133.9,54.9,134.3,55z"/>
			<path class="st14" d="M133.6,55.3c0,0,1.1,0.8,1.2,0.3S133.6,55.3,133.6,55.3z"/>
		</g>
		<g>
			<path class="st12" d="M133.9,60.6c0.4,0.1,0.7,0.4,0.7,0.6s-0.4,0.3-0.9,0.2s-0.7-0.4-0.7-0.6S133.4,60.5,133.9,60.6z"/>
			<path class="st14" d="M133.2,60.9c0,0,1.1,0.8,1.2,0.3S133.2,60.9,133.2,60.9z"/>
		</g>
		<g>
			<path class="st12" d="M126.5,60.8c0.4,0.1,0.7,0.4,0.7,0.6s-0.4,0.3-0.9,0.2s-0.7-0.4-0.7-0.6S126.1,60.7,126.5,60.8z"/>
			<path class="st14" d="M125.8,61.1c0,0,1.1,0.8,1.2,0.3S125.8,61.1,125.8,61.1z"/>
		</g>
		<g>
			<path class="st12" d="M126.7,50.7c0.4,0.1,0.7,0.4,0.7,0.6s-0.4,0.3-0.9,0.2s-0.7-0.4-0.7-0.6S126.3,50.6,126.7,50.7z"/>
			<path class="st14" d="M126,51c0,0,1.1,0.8,1.2,0.3S126,51,126,51z"/>
		</g>
		<g>
			<path class="st12" d="M121.4,50.5c0.4,0.1,0.7,0.4,0.7,0.6s-0.4,0.3-0.9,0.2s-0.7-0.4-0.7-0.6S121,50.4,121.4,50.5z"/>
			<path class="st14" d="M120.7,50.8c0,0,1.1,0.8,1.2,0.3S120.7,50.8,120.7,50.8z"/>
		</g>
		<g>
			<path class="st12" d="M125.2,52.9c0.4,0.1,0.7,0.4,0.7,0.6s-0.4,0.3-0.9,0.2s-0.7-0.4-0.7-0.6S124.7,52.8,125.2,52.9z"/>
			<path class="st14" d="M124.5,53.2c0,0,1.1,0.8,1.2,0.3S124.5,53.2,124.5,53.2z"/>
		</g>
		<g>
			<path class="st12" d="M122,54.5c0.4,0.1,0.7,0.4,0.7,0.6s-0.4,0.3-0.9,0.2s-0.7-0.4-0.7-0.6S121.6,54.4,122,54.5z"/>
			<path class="st14" d="M121.3,54.8c0,0,1.1,0.8,1.2,0.3S121.3,54.8,121.3,54.8z"/>
		</g>
		<g>
			<path class="st12" d="M123.8,57.2c0.4,0.1,0.7,0.4,0.7,0.6s-0.4,0.3-0.9,0.2s-0.7-0.4-0.7-0.6S123.4,57.1,123.8,57.2z"/>
			<path class="st14" d="M123.1,57.5c0,0,1.1,0.8,1.2,0.3S123.1,57.5,123.1,57.5z"/>
		</g>
		<g>
			<path class="st12" d="M117.9,57.8c0.4,0.1,0.7,0.4,0.7,0.6s-0.4,0.3-0.9,0.2s-0.7-0.4-0.7-0.6S117.5,57.7,117.9,57.8z"/>
			<path class="st14" d="M117.2,58.1c0,0,1.1,0.8,1.2,0.3S117.2,58.1,117.2,58.1z"/>
		</g>
		<g>
			<path class="st12" d="M120.5,60.8c0.4,0.1,0.7,0.4,0.7,0.6s-0.4,0.3-0.9,0.2s-0.7-0.4-0.7-0.6S120.1,60.7,120.5,60.8z"/>
			<path class="st14" d="M119.8,61c0,0,1.1,0.8,1.2,0.3S119.8,61,119.8,61z"/>
		</g>
		<path class="st15" d="M119.8,54.2c0.9,0.6,3.1-2.8,2.6-3.8C121.4,48.3,118.4,53.2,119.8,54.2z"/>
	</g>
	<g>
		<path class="st11" d="M85.3,67.3c1.7,1.7,17.3,5.2,33.7,0S98,41.1,91,48.6S83.2,65.2,85.3,67.3z"/>
		<path class="st12" d="M86.9,68.1c4.7,1.7,18.1,3.6,32.1-0.8c8-2.5,3.1-8.9-4.8-13.8l0,0C114.3,53.5,128.9,75.2,86.9,68.1z"/>
		
			<linearGradient id="SVGID_2_" gradientUnits="userSpaceOnUse" x1="98.5807" y1="176.8607" x2="99.2007" y2="167.0307" gradientTransform="matrix(1 0 0 -1 0 228)">
			<stop  offset="0" style="stop-color:#C73E33"/>
			<stop  offset="1" style="stop-color:#C73E33;stop-opacity:0"/>
		</linearGradient>
		<path class="st16" d="M93.1,50.4c2.8-3.4,13.1,1.4,17.2,6.8s-20,10-22,6.9S89.6,54.6,93.1,50.4z"/>
		<g>
			<path class="st12" d="M114.5,65.8c0.6,0.1,0.9,0.5,0.9,0.8s-0.6,0.4-1.1,0.3s-0.9-0.5-0.9-0.8S114,65.6,114.5,65.8z"/>
			<path class="st14" d="M113.6,66.1c0,0,1.4,1.1,1.6,0.4S113.6,66.1,113.6,66.1z"/>
		</g>
		<g>
			<path class="st12" d="M114.8,59c0.6,0.1,0.9,0.5,0.9,0.8s-0.6,0.4-1.1,0.3s-0.9-0.5-0.9-0.8S114.2,58.8,114.8,59z"/>
			<path class="st14" d="M113.8,59.3c0,0,1.4,1.1,1.6,0.4S113.8,59.3,113.8,59.3z"/>
		</g>
		<g>
			<path class="st12" d="M109.6,60.1c0.6,0.1,0.9,0.5,0.9,0.8s-0.6,0.4-1.1,0.3s-0.9-0.5-0.9-0.8S109,60,109.6,60.1z"/>
			<path class="st14" d="M108.7,60.5c0,0,1.4,1.1,1.6,0.4S108.7,60.5,108.7,60.5z"/>
		</g>
		<g>
			<path class="st12" d="M104.8,65.5c0.6,0.1,0.9,0.5,0.9,0.8s-0.6,0.4-1.1,0.3s-0.9-0.5-0.9-0.8S104.3,65.4,104.8,65.5z"/>
			<path class="st14" d="M103.9,65.8c0,0,1.4,1.1,1.6,0.4S103.9,65.8,103.9,65.8z"/>
		</g>
		<g>
			<path class="st12" d="M110.8,67.1c0.6,0.1,0.9,0.5,0.9,0.8s-0.6,0.4-1.1,0.3s-0.9-0.5-0.9-0.8S110.3,67,110.8,67.1z"/>
			<path class="st14" d="M109.9,67.4c0,0,1.4,1.1,1.6,0.4S109.9,67.4,109.9,67.4z"/>
		</g>
		<g>
			<path class="st12" d="M116.8,63c0.6,0.1,0.9,0.5,0.9,0.8c-0.1,0.3-0.6,0.4-1.1,0.3s-0.9-0.5-0.9-0.8S116.2,62.9,116.8,63z"/>
			<path class="st14" d="M115.9,63.4c0,0,1.4,1.1,1.6,0.4S115.9,63.4,115.9,63.4z"/>
		</g>
		<g>
			<path class="st12" d="M116,56.5c0.6,0.1,0.9,0.5,0.9,0.8s-0.6,0.4-1.1,0.3s-0.9-0.5-0.9-0.8S115.4,56.4,116,56.5z"/>
			<path class="st14" d="M115.1,56.9c0,0,1.4,1.1,1.6,0.4S115.1,56.9,115.1,56.9z"/>
		</g>
		<g>
			<path class="st12" d="M120.1,61.7c0.6,0.1,0.9,0.5,0.9,0.8s-0.6,0.4-1.1,0.3s-0.9-0.5-0.9-0.8S119.6,61.5,120.1,61.7z"/>
			<path class="st14" d="M119.2,62c0,0,1.4,1.1,1.6,0.4S119.2,62,119.2,62z"/>
		</g>
		<g>
			<path class="st12" d="M95,65.9c0.6,0.1,0.9,0.5,0.9,0.8s-0.6,0.4-1.1,0.3s-0.9-0.5-0.9-0.8S94.4,65.8,95,65.9z"/>
			<path class="st14" d="M94.1,66.3c0,0,1.4,1.1,1.6,0.4S94.1,66.3,94.1,66.3z"/>
		</g>
		<g>
			<path class="st12" d="M95.2,63c0.6,0.1,0.9,0.5,0.9,0.8c-0.1,0.3-0.6,0.4-1.1,0.3s-1-0.5-0.9-0.8S94.7,62.9,95.2,63z"/>
			<path class="st14" d="M94.3,63.4c0,0,1.4,1.1,1.6,0.4S94.3,63.4,94.3,63.4z"/>
		</g>
		<g>
			<path class="st12" d="M102.5,61.2c0.6,0.1,0.9,0.5,0.9,0.8s-0.6,0.4-1.1,0.3s-0.9-0.5-0.9-0.8S101.9,61.1,102.5,61.2z"/>
			<path class="st14" d="M101.6,61.6c0,0,1.4,1.1,1.6,0.4S101.6,61.6,101.6,61.6z"/>
		</g>
		<g>
			<path class="st12" d="M99.3,58.1c0.6,0.1,1,0.5,0.9,0.8s-0.6,0.4-1.1,0.3s-1-0.5-0.9-0.8S98.7,58,99.3,58.1z"/>
			<path class="st14" d="M98.4,58.5c0,0,1.4,1.1,1.6,0.4S98.4,58.5,98.4,58.5z"/>
		</g>
		<g>
			<path class="st12" d="M105.2,54c0.6,0.1,0.9,0.5,0.9,0.8s-0.6,0.4-1.1,0.3s-0.9-0.5-0.9-0.8S104.6,53.9,105.2,54z"/>
			<path class="st14" d="M104.3,54.4c0,0,1.4,1.1,1.6,0.4S104.3,54.4,104.3,54.4z"/>
		</g>
		<g>
			<path class="st12" d="M105.6,59.4c0.6,0.1,0.9,0.5,0.9,0.8s-0.6,0.4-1.1,0.3s-0.9-0.5-0.9-0.8S105.1,59.3,105.6,59.4z"/>
			<path class="st14" d="M104.7,59.7c0,0,1.4,1.1,1.6,0.4S104.7,59.7,104.7,59.7z"/>
		</g>
		<g>
			<path class="st12" d="M110.4,53.2c0.6,0.1,0.9,0.5,0.9,0.8s-0.6,0.4-1.1,0.3s-0.9-0.5-0.9-0.8S109.8,53.1,110.4,53.2z"/>
			<path class="st14" d="M109.4,53.5c0,0,1.4,1.1,1.6,0.4S109.4,53.5,109.4,53.5z"/>
		</g>
		<g>
			<path class="st12" d="M109.3,56.1c0.6,0.1,0.9,0.5,0.9,0.8s-0.6,0.4-1.1,0.3s-0.9-0.5-0.9-0.8S108.8,56,109.3,56.1z"/>
			<path class="st14" d="M108.4,56.5c0,0,1.4,1.1,1.6,0.4S108.4,56.5,108.4,56.5z"/>
		</g>
		<g>
			<path class="st12" d="M108.8,63.5c0.6,0.1,0.9,0.5,0.9,0.8s-0.6,0.4-1.1,0.3s-0.9-0.5-0.9-0.8S108.2,63.3,108.8,63.5z"/>
			<path class="st14" d="M107.9,63.8c0,0,1.4,1.1,1.6,0.4S107.9,63.8,107.9,63.8z"/>
		</g>
		<g>
			<path class="st12" d="M99.3,63.7c0.6,0.1,1,0.5,0.9,0.8s-0.6,0.4-1.1,0.3s-1-0.5-0.9-0.8S98.7,63.6,99.3,63.7z"/>
			<path class="st14" d="M98.4,64c0,0,1.4,1.1,1.6,0.4S98.4,64,98.4,64z"/>
		</g>
		<g>
			<path class="st12" d="M99.5,50.6c0.6,0.1,0.9,0.5,0.9,0.8s-0.6,0.4-1.1,0.3s-0.9-0.5-0.9-0.8S99,50.4,99.5,50.6z"/>
			<path class="st14" d="M98.6,50.9c0,0,1.4,1.1,1.6,0.4S98.6,50.9,98.6,50.9z"/>
		</g>
		<g>
			<path class="st12" d="M92.6,50.3c0.6,0.1,0.9,0.5,0.9,0.8s-0.6,0.4-1.1,0.3s-0.9-0.5-0.9-0.8S92.1,50.2,92.6,50.3z"/>
			<path class="st14" d="M91.7,50.7c0,0,1.4,1.1,1.6,0.4S91.7,50.7,91.7,50.7z"/>
		</g>
		<g>
			<path class="st12" d="M97.5,53.5c0.6,0.1,0.9,0.5,0.9,0.8s-0.6,0.4-1.1,0.3s-0.9-0.5-0.9-0.8S96.9,53.3,97.5,53.5z"/>
			<path class="st14" d="M96.6,53.8c0,0,1.4,1.1,1.6,0.4S96.6,53.8,96.6,53.8z"/>
		</g>
		<g>
			<path class="st12" d="M93.4,55.5c0.6,0.1,0.9,0.5,0.9,0.8s-0.6,0.4-1.1,0.3s-0.9-0.5-0.9-0.8S92.9,55.4,93.4,55.5z"/>
			<path class="st14" d="M92.5,55.9c0,0,1.4,1.1,1.6,0.4S92.5,55.9,92.5,55.9z"/>
		</g>
		<g>
			<path class="st12" d="M95.8,59c0.6,0.1,0.9,0.5,0.9,0.8s-0.6,0.4-1.1,0.3s-0.9-0.5-0.9-0.8S95.2,58.8,95.8,59z"/>
			<path class="st14" d="M94.9,59.3c0,0,1.4,1.1,1.6,0.4S94.9,59.3,94.9,59.3z"/>
		</g>
		<g>
			<path class="st12" d="M88.1,59.8c0.6,0.1,0.9,0.5,0.9,0.8s-0.6,0.4-1.1,0.3s-0.9-0.5-0.9-0.8S87.5,59.7,88.1,59.8z"/>
			<path class="st14" d="M87.2,60.2c0,0,1.4,1.1,1.6,0.4S87.2,60.2,87.2,60.2z"/>
		</g>
		<g>
			<path class="st12" d="M91.4,63.6c0.6,0.1,0.9,0.5,0.9,0.8s-0.6,0.4-1.1,0.3s-0.9-0.5-0.9-0.8S90.9,63.5,91.4,63.6z"/>
			<path class="st14" d="M90.5,64c0,0,1.4,1.1,1.6,0.4S90.5,64,90.5,64z"/>
		</g>
		<path class="st15" d="M90.6,55.1c1.2,0.8,4-3.7,3.3-5C92.6,47.5,88.8,53.8,90.6,55.1z"/>
	</g>
	<path class="st17" d="M150.7,99.1c0,1.3-0.5,2.4-1.1,2.4s-1.1-1.1-1.1-2.4s0.5-2.4,1.1-2.4S150.7,97.8,150.7,99.1z"/>
	<path class="st17" d="M142.9,123.4c0,1.3-0.5,2.4-1.1,2.4s-1.1-1.1-1.1-2.4s0.5-2.4,1.1-2.4S142.9,122.1,142.9,123.4z"/>
	<path class="st17" d="M157.3,127.4c0,1.3-0.5,2.4-1.1,2.4s-1.1-1.1-1.1-2.4s0.5-2.4,1.1-2.4S157.3,126,157.3,127.4z"/>
	<path class="st17" d="M133.1,128.2c0,3-1.2,5.5-2.6,5.5s-2.6-2.4-2.6-5.5s1.2-5.5,2.6-5.5S133.1,125.2,133.1,128.2z"/>
	<path class="st17" d="M113.6,112.9c0,3-1.2,5.5-2.6,5.5s-2.6-2.4-2.6-5.5s1.2-5.5,2.6-5.5S113.6,109.9,113.6,112.9z"/>
	<path class="st17" d="M162.4,130.8c0,3-1.2,5.5-2.6,5.5s-2.6-2.4-2.6-5.5s1.2-5.5,2.6-5.5S162.4,127.8,162.4,130.8z"/>
	<path class="st17" d="M60.1,127.1c0,0.9-0.4,1.7-0.8,1.7s-0.8-0.8-0.8-1.7s0.4-1.7,0.8-1.7S60.1,126.1,60.1,127.1z"/>
	<path class="st17" d="M108.6,125.9c0,0.9-0.3,1.6-0.8,1.6s-0.8-0.7-0.8-1.6s0.3-1.6,0.8-1.6S108.6,125,108.6,125.9z"/>
	<path class="st17" d="M140.4,113.8c0,3-1.1,5.5-2.6,5.5s-2.6-2.4-2.6-5.5s1.1-5.5,2.6-5.5S140.4,110.8,140.4,113.8z"/>
	<path class="st17" d="M97.7,145.2c0,3-1.2,5.5-2.6,5.5s-2.6-2.4-2.6-5.5s1.2-5.5,2.6-5.5S97.7,142.2,97.7,145.2z"/>
	<path class="st17" d="M70.5,143.5c0,3-1.2,5.5-2.6,5.5s-2.6-2.4-2.6-5.5s1.2-5.5,2.6-5.5S70.5,140.5,70.5,143.5z"/>
	<path class="st17" d="M124.5,116.6c0,1.3-0.5,2.4-1.1,2.4s-1.2-1.1-1.2-2.4s0.5-2.4,1.2-2.4S124.5,115.3,124.5,116.6z"/>
	<path class="st17" d="M89.1,120c0,1.3-0.5,2.4-1.2,2.4s-1.1-1.1-1.1-2.4s0.5-2.4,1.1-2.4S89.1,118.7,89.1,120z"/>
	<path class="st17" d="M81.4,144.3c0,1.3-0.5,2.4-1.2,2.4s-1.1-1.1-1.1-2.4s0.5-2.4,1.1-2.4S81.4,143,81.4,144.3z"/>
	<path class="st17" d="M65.4,137.5c0,1.3-0.5,2.4-1.2,2.4s-1.1-1.1-1.1-2.4s0.5-2.4,1.1-2.4C64.8,135.1,65.4,136.1,65.4,137.5z"/>
	<path class="st17" d="M55.6,160.1c0,2-0.8,3.6-1.7,3.6s-1.7-1.6-1.7-3.6s0.8-3.6,1.7-3.6S55.6,158.1,55.6,160.1z"/>
	<path class="st17" d="M117.5,120c0,1.3-0.5,2.4-1.1,2.4s-1.2-1.1-1.2-2.4s0.5-2.4,1.2-2.4S117.5,118.7,117.5,120z"/>
	<path class="st17" d="M109.7,144.3c0,1.3-0.5,2.4-1.2,2.4s-1.1-1.1-1.1-2.4s0.5-2.4,1.1-2.4S109.7,143,109.7,144.3z"/>
	<path class="st17" d="M92.5,137.5c0,1.3-0.5,2.4-1.1,2.4s-1.1-1.1-1.1-2.4s0.5-2.4,1.1-2.4S92.5,136.1,92.5,137.5z"/>
	<path class="st17" d="M125.8,137.4c0,1.3-0.5,2.4-1.1,2.4s-1.2-1.1-1.2-2.4s0.5-2.4,1.2-2.4S125.8,136,125.8,137.4z"/>
	<path class="st17" d="M74.4,133.9c0,1.3-0.5,2.4-1.1,2.4s-1.1-1.1-1.1-2.4s0.5-2.4,1.1-2.4S74.4,132.6,74.4,133.9z"/>
	<path class="st17" d="M147.2,112.9c0,1.3-0.5,2.4-1.1,2.4s-1.1-1.1-1.1-2.4s0.5-2.4,1.1-2.4S147.2,111.6,147.2,112.9z"/>
	<path class="st17" d="M158.4,106c0,1.3-0.5,2.4-1.1,2.4s-1.1-1.1-1.1-2.4s0.5-2.4,1.1-2.4S158.4,104.7,158.4,106z"/>
	<path class="st18" d="M167.7,101.4c-16.5,2.6-111.3,37.4-122.2,41.4c-0.1,5.5,0,10.5,0.3,14.9c27.2-14.4,122-40.7,122-40.7
		C168,111.8,168,106.5,167.7,101.4z"/>
	<path class="st17" d="M139.1,102.5c0,1.3-0.5,2.4-1.1,2.4s-1.1-1.1-1.1-2.4s0.5-2.4,1.1-2.4S139.1,101.2,139.1,102.5z"/>
	<path class="st17" d="M76.7,151.4c0,1.3-0.5,2.4-1.2,2.4s-1.1-1.1-1.1-2.4s0.5-2.4,1.1-2.4S76.7,150.1,76.7,151.4z"/>
	<g>
		<path class="st19" d="M139.9,118.3c-3.5-19-18.1-27.2-35.3-29.9c-27.7,10-56.1,21-56.1,21c-0.9,5.8-1.6,11.2-2,16.4
			c-1.5,15-1.3,30.1,0.6,45c0.8,5.5,1.5,8.5,1.5,8.5c40.9-8.7,66.9-14.6,83.6-19.2C138.9,147.7,142.7,133.6,139.9,118.3z"/>
		<path class="st19" d="M115.2,129.8c-3.3-26.7-37.7-31.4-37.7-31.4c-16.5,6.2-29,11-29,11c-0.9,5.8-1.6,11.2-2,16.4
			c-1.5,15-1.3,30.1,0.6,45c0.8,5.5,1.5,8.5,1.5,8.5c12.8-2.7,24.1-5.2,34.2-7.4C82.7,171.9,118.6,156.5,115.2,129.8z"/>
		<path class="st19" d="M86.8,133.7c-1.7-20.7-33-26.3-33-26.3l0,0l-5.3,2.1c-0.9,5.8-1.6,11.2-2,16.4c-1.5,15-1.3,30.1,0.6,45
			c0.8,5.5,1.5,8.5,1.5,8.5C77.3,165.6,88.5,154.4,86.8,133.7z"/>
	</g>
	
		<linearGradient id="SVGID_3_" gradientUnits="userSpaceOnUse" x1="51.8118" y1="140.0613" x2="107.8753" y2="140.0613" gradientTransform="matrix(1 0 0 -1 0 228)">
		<stop  offset="0" style="stop-color:#8C6B5A"/>
		<stop  offset="1" style="stop-color:#795948;stop-opacity:0"/>
	</linearGradient>
	<path class="st20" d="M72.2,72.4c0,0-21.4,31-20.3,31.3s52.4-19.6,55.8-21S75.5,71,72.2,72.4z"/>
	<g>
		<path class="st6" d="M66.7,80.3c0,0,14.5,3.4,15.5,5.1s-2.6,1.4-2.6,1.4L66.7,80.3z"/>
		<path class="st21" d="M64.9,79.8c0,0,9.9,2.6,15.9,5c1.7,0.7,0.8,2.2-1.2,2c0,0-11.6-3.8-15.9-5.1C63.8,81.7,63.6,80.1,64.9,79.8z
			"/>
		<path class="st22" d="M64.9,81.4c0,0,14,4.8,14.4,4.8s1.2-0.1,1.3-0.4s-0.3,0-1.3-0.3s-10.1-3-14.1-4.5
			C64.6,80.7,63.9,81.1,64.9,81.4z"/>
	</g>
	<g>
		<path class="st6" d="M57.5,92.9c0,0,8.6,2.5,9.3,3.7s-1.6,1-1.6,1L57.5,92.9z"/>
		<path class="st21" d="M56.4,92.6c3.2,1,6.4,2.2,9.5,3.6c1,0.5,0.5,1.6-0.7,1.4c0,0-6.9-2.8-9.5-3.7C55.7,93.9,55.6,92.7,56.4,92.6
			z"/>
		<path class="st22" d="M56.4,93.7c0,0,8.3,3.5,8.6,3.5s0.7-0.1,0.8-0.3s-0.2,0-0.8-0.2s-6-2.2-8.4-3.3
			C56.2,93.2,55.8,93.4,56.4,93.7z"/>
	</g>
	<path class="st6" d="M89,71c0,0,19.2,3.5,30.7,10l-1,0.4L89,71z"/>
	<path class="st21" d="M72.6,67.8c0,0,30.3,4.4,46,13.5l-3.4,1.3c0,0-28.2-10.4-44.6-11.6C68,68.4,72.6,67.8,72.6,67.8z"/>
	<path class="st23" d="M115.9,80.9c0.9-0.6,2.7,0.4,2.7,0.4l-3.4,1.3C115.1,82,115.3,81.3,115.9,80.9z"/>
	<path class="st22" d="M72.9,70c0.8,0.1,21.7,3.7,31.8,7.7c0,0,0.6,0.1,0.7-0.2s-0.6-0.5-1-0.7c0,0-11.3-4.5-31.3-7.3
		c0,0-0.7-0.1-0.8,0.2S72.3,69.9,72.9,70z"/>
	
		<linearGradient id="SVGID_4_" gradientUnits="userSpaceOnUse" x1="161.2806" y1="168.5556" x2="138.1206" y2="170.9756" gradientTransform="matrix(1 0 0 -1 0 228)">
		<stop  offset="0" style="stop-color:#8C6B5A"/>
		<stop  offset="1" style="stop-color:#795948;stop-opacity:0"/>
	</linearGradient>
	<path class="st24" d="M139.9,47.9c2.9,0.8,17.6,5.3,22.2,9.5s-4,7.5-8.8,9.3s-9.1,0.2-6.1-2.4s6-4.4,4.5-6.4s-5.1,0.9-9.8-3
		S136.8,47,139.9,47.9z"/>
</g>
</svg>
