<?xml version="1.0" encoding="utf-8"?>
<!-- Generator: Adobe Illustrator 23.1.0, SVG Export Plug-In . SVG Version: 6.00 Build 0)  -->
<svg version="1.1" id="圖層_1" xmlns="http://www.w3.org/2000/svg" xmlns:xlink="http://www.w3.org/1999/xlink" x="0px" y="0px"
	 viewBox="0 0 225 225" style="enable-background:new 0 0 225 225;" xml:space="preserve">
<style type="text/css">
	.st0{fill:#E5A1A6;}
	.st1{opacity:0.4;}
	.st2{fill:#D87C9D;}
	.st3{enable-background:new    ;}
	.st4{fill:#FFFFFF;}
	.st5{fill:#EDEDED;}
	.st6{fill:#B3332D;}
	.st7{fill:#5E1412;}
	.st8{fill:#C6C6C6;}
	.st9{opacity:0.5;}
	.st10{opacity:0.15;fill:#FFFFFF;enable-background:new    ;}
	.st11{fill:#CE4038;}
	.st12{opacity:0.8;fill:#8E591F;enable-background:new    ;}
	.st13{fill:url(#SVGID_1_);}
	.st14{fill:url(#SVGID_2_);}
	.st15{opacity:0.5;fill:#C2BFB8;enable-background:new    ;}
	.st16{fill:url(#SVGID_3_);}
	.st17{fill:url(#SVGID_4_);}
	.st18{fill:url(#SVGID_5_);}
	.st19{fill:url(#SVGID_6_);}
	.st20{fill:url(#SVGID_7_);}
	.st21{fill:url(#SVGID_8_);}
	.st22{fill:url(#SVGID_9_);}
	.st23{fill:url(#SVGID_10_);}
	.st24{fill:url(#SVGID_11_);}
	.st25{fill:url(#SVGID_12_);}
	.st26{fill:url(#SVGID_13_);}
	.st27{fill:url(#SVGID_14_);}
	.st28{fill:url(#SVGID_15_);}
	.st29{fill:url(#SVGID_16_);}
	.st30{fill:#4A231B;}
	.st31{fill:#552821;}
	.st32{fill:#602C28;}
	.st33{fill:#703A39;}
</style>
<title>CAKE2</title>
<rect class="st0" width="225" height="225"/>
<g class="st1">
	<rect y="180.5" class="st2" width="225" height="44.5"/>
</g>
<g class="st3">
	<path class="st4" d="M91.7,196h3.2c2.3,0,3.1,1.3,3.1,3.5c0,2-1.1,3.3-3.1,3.3h-1.4v5.9h-1.8V196z M94.3,201.5c1.5,0,2-0.4,2-2
		c0-1.8-0.2-2.3-2-2.3h-0.8v4.3H94.3z"/>
	<path class="st4" d="M98.6,204.7v-4.8c0-2.5,0.9-4,3.5-4c2.6,0,3.5,1.5,3.5,4v4.8c0,2.5-0.9,4.1-3.5,4.1
		C99.5,208.8,98.6,207.2,98.6,204.7z M103.7,205.1v-5.6c0-1.4-0.3-2.3-1.7-2.3c-1.4,0-1.7,0.9-1.7,2.3v5.6c0,1.4,0.3,2.3,1.7,2.3
		C103.5,207.4,103.7,206.5,103.7,205.1z"/>
	<path class="st4" d="M106.8,196h3.2c2.3,0,3.1,1.3,3.1,3.5c0,2-1.1,3.3-3.1,3.3h-1.4v5.9h-1.8V196z M109.4,201.5c1.5,0,2-0.4,2-2
		c0-1.8-0.2-2.3-2-2.3h-0.8v4.3H109.4z"/>
	<path class="st4" d="M113.8,204.4V196h1.7v8.5c0,1.6,0.2,2.9,1.7,2.9s1.7-1.3,1.7-2.9V196h1.7v8.4c0,2.7-0.6,4.4-3.4,4.4
		C114.4,208.8,113.8,207.1,113.8,204.4z"/>
	<path class="st4" d="M121.9,196h1.8v11.4h3.2v1.3h-5V196z"/>
	<path class="st4" d="M129.7,196h1.7l2.7,12.7h-1.7l-0.6-3.2h-2.6l-0.6,3.2H127L129.7,196z M131.7,204.2l-1.1-5.7l-1.1,5.7H131.7z"
		/>
	<path class="st4" d="M135,196h2.6c2.5,0,3.7,1,3.7,3.4c0,1.5-0.4,2.6-1.6,3l1.8,6.4h-1.7l-1.7-6h-1.4v6H135V196z M137.4,201.4
		c1.5,0,2.1-0.5,2.1-2.1c0-1.5-0.4-2.1-2-2.1h-0.8v4.2H137.4z"/>
</g>
<g>
	<path class="st5" d="M49.4,178.5c0,0,101.8-13.7,120.7-29.9s-6.2-22.1-6.2-22.1L49.4,178.5z"/>
	<path class="st6" d="M164.3,55.5c-23-18.6-73.3-12-77-8.8c-3.2,2.9-37.2,56.8-37.2,56.8s-0.6,4.8-0.7,5.1
		c-0.1,0.7,8.1,4.5,19.9,9.5l-22,7c-0.2,2.1-0.4,4.2-0.5,6.2l30.6-9.8c12,5,26.1,10.7,39,15.8l-69.5,22.3c0.1,2.1,0.3,4.1,0.5,5.9
		l77.3-24.9c16.8,6.6,29.6,11.7,29.6,11.7s14.3-4.9,16.2-11.8S187.2,74.1,164.3,55.5z"/>
	<path class="st7" d="M49.4,178.5c115-24.6,112.4-27,116.1-38.8c1.2-4.3,2-8.6,2.4-13.1L47.4,165.5
		C47.8,169.9,48.5,174.2,49.4,178.5z"/>
	<path class="st7" d="M167,86.8c-1.9-9-5.2-15.3-10.6-15.3c-11.6,0.1-107,37.1-107,37.1c-0.9,5.8-1.6,11.3-2.1,16.5L167,86.8z"/>
	<path class="st7" d="M167.9,92.4L167.9,92.4l-121,39c-0.6,9.4-0.6,18.8,0,28.2l121.6-39C169.2,111.2,169,101.7,167.9,92.4z"/>
	<g>
		<path class="st8" d="M158.4,108c-2.1,0-3,1.6-6.1,3s-3.4,0.6-6.5,1.8s-6.5,1.8-10.1,3.7c-3.4,1.6-7,2.9-10.7,3.9
			c-1,0.3-6,1.3-9.8,2.3s-4.6,2-7.4,3.2s-10.1,3.2-14.2,4s-4.1,1.3-7.2,2.1s-5.5,2.3-9.3,3.3s-4.1-0.2-7.2,1.2s-4.3,3-6.5,3.8
			s-6.1,1.3-9.8,2.4c-2.4,0.7-4.9,1.7-7.2,2.6c0,1.7,0,3.4,0,5c1.3-0.7,0.7-1.5,1.6-2.2c1.3-0.9,5.5-2.2,9.8-2.3s6.1-1.2,7.9-3.9
			c1.9-2.7,5.5-1,10.3-2c3.1-0.6,6.1-1.8,8.8-3.5c2.6-1.4,5.4-1.6,8.1-3.3c3.4-2,7.2-3.3,11.2-3.9c2.8-0.3,5.7-0.9,8.4-1.7
			c4.5-1.3,2.3,1.3,7.2-0.4s4.3-2.1,5.5-3.8s3.8-2.4,8.9-3s20.3-7.1,24.2-8.2s5.5-0.8,6.3-2.3S160.5,108,158.4,108z"/>
		<path class="st8" d="M65.9,170.1c3.9-0.8,4.6-1.8,7.5-2.9s10.2-2.8,14.4-3.4s4.2-1.1,7.3-1.8s5.6-2.1,9.4-2.9s4.1,0.3,7.3-1
			s4.4-2.8,6.7-3.6s6.2-1,9.9-2c3.7-1,7.9-2.6,10.6-3.5s3.4-1.8,4.1,2s8.2-0.1,2.3-8.6c-2.4-3.5-1.2,1.4-6.5,2s-3.5,2-4.8,2.9
			s-5.6,2-9.9,1.9s-6.1,1-8.1,3.6s-5.6,0.8-10.3,1.6c-3.1,0.5-6.2,1.5-8.9,3.2c-2.6,1.3-5.4,1.3-8.2,2.9c-3.5,1.8-7.3,3-11.2,3.4
			c-2.9,0.2-5.7,0.7-8.4,1.5c-4.6,1.1-2.2-1.4-7.3,0.1s-4.3,2-5.7,3.6s-3.5,2.1-7.9,2.6c0.2,1,0.3,1.9,0.4,2.7
			c2.5-0.9,5-1.6,7.5-2.2C57,171.8,62.1,171,65.9,170.1z"/>
		<path class="st8" d="M48.1,118.3c0.9-0.1,1.7-0.2,2.6-0.2c4.3-0.1,6.1-1.2,7.9-3.9s5.5-1,10.3-2c3.1-0.6,6.1-1.8,8.8-3.5
			c2.6-1.4,5.4-1.6,8.1-3.3c3.4-2,7.2-3.3,11.1-3.8c2.8-0.3,5.7-0.9,8.4-1.7c4.6-1.3,2.3,1.3,7.3-0.4s4.3-2.1,5.5-3.8s3.8-2.4,9-3
			s20.3-7.1,24.1-8.2s5.5-0.8,6.3-2.3s-4-2-6.1-2s-3,1.6-6.1,3s-3.4,0.6-6.5,1.8s-6.5,1.8-10.1,3.7c-3.4,1.6-7,2.9-10.7,3.9
			c-1,0.2-6,1.3-9.8,2.3s-4.5,2-7.4,3.2s-10.1,3.2-14.2,4s-4.1,1.3-7.2,2.1s-5.5,2.3-9.3,3.3s-4.1-0.2-7.3,1.3s-4.3,3-6.5,3.8
			c-1.8,0.7-4.7,1.1-7.6,1.8C48.4,115.8,48.2,117.1,48.1,118.3z"/>
	</g>
	<g>
		<path class="st8" d="M160.6,86.8c-2,0.1-3.9,0.9-5.3,2.4c-1.6,1.7-8.1,2.7-13.6,3.2s-4.3,2.7-7.2,4.1s-8.5,2.6-13,3.8
			s-4.8,0.8-8.3,1.3s-12.7,4.2-14.7,5s-4.5,2.4-9.4,2.5s-5.7,1.7-5.7,1.7l-4.5,1.8c-4.6,1.8-14.6,5.1-16.5,5.9s-9.7,3.2-11.5,3.8
			c-1.2,0.4-2.3,0.8-3.4,1.3c0,0.5-0.1,1-0.1,1.5c-0.1,1-0.2,2-0.3,2.9c1.5-0.8,3.2-2,5.3-2.9c4.7-2.3,6.5-1.8,10.8-3.1
			s17.6-6.4,19.3-7.3c2.8-1.6,6.1-2.4,9.3-2.3c4.4,0.2,25.7-8.2,28.1-9s4.4-2.7,7.8-2s5.9-0.2,10-3.3s21.8-7.7,23.8-8.5
			s4.6-0.8,6.5-2.2s-2.2-10.1-3.5-12.7s-7.5-5.6-8.9-4.6s-6.1,1.2-10.9,2s-7.5,1.7-10,3.4s-17.4,6.7-22.1,7.2s-11.4,4.6-15.5,6.3
			s-3.7,2-6.4,2.6s-11.8,2.7-13.2,3.6s-4.3,4.2-8.5,4.5s-8,1.8-9.7,3.7c-1.5,1.7-8.3,3.3-9.5,3.5c-0.1,0.8-0.2,1.4-0.2,1.5
			s0,0.4-0.1,0.6c2.6,0.1,5.2,0.1,7.8-0.1c5.8-0.3,4.1-3.2,6-4.2c1.9-1,5.7-2,9.2-3.3s5.7-1.1,7.3-3.3s14.3-4.7,17.5-6
			s5.7-0.9,10.3-2.4s7.6-4,11.4-5s3.7,0.7,7.9-0.9s5.4-3.9,7.8-5.2s12.3-2.1,14-3.3s6.7-1.4,10.5-1.7s3.4,7.9,5.3,10.4
			S162.7,86.5,160.6,86.8z"/>
		<path class="st8" d="M168.5,131.4c0.2-0.7,0.1-1.3-0.1-2c0.4-0.3,0.6-1,0.5-2.7c-0.4-4.3-0.7-2.4-2.4-1.5c-1.4,1-3.2,1.3-4.9,0.8
			c-2.4-0.5-5.3,2.2-8.1,3.5s-4.6,1.8-7.6,3.1s-7.4,1.4-10.3,2.1s-12.6,5.3-15.5,6.3s-3.7,0.7-4.6,1.6s-11.2,2.8-16,4.3
			s-3.3,1.1-5.5,2.6c-3.2,2-6.9,3.1-10.7,3.3c-5,0.3-3.6,0.4-8.3,2.1s-6.1,2.5-10.5,3.5s-2.9,1.4-8.3,3.1s-6.1,2.4-7.7,3.4
			c-0.4,0.2-0.9,0.3-1.3,0.1c0,0.2,0,0.4,0.1,0.7c0.1,0.8,0.2,1.6,0.3,2.3c0.4-0.1,0.8-0.1,1.2-0.1c0.8-0.1,7.2-1.6,9.2-3.4
			s9.9-4.4,11.5-4.6s3.7,0.7,7.8-1s4.7-2.9,7.1-3.9s4.7,0.9,7.6-0.5s4-2,9-4.5s14.9-4.1,17.4-5.2c2.3-1.1,5-1.1,7.4,0
			c2.7,1,5.8-3,8.2-5.4s9.8-2.7,14.9-2.8s6.5-1.6,8.7-3.1s4.3-3.2,7.1-3.6h0.3c-0.3,1.9-0.9,3.7-1.7,5.4c-1.6,2.6,0,4.7-1.7,8.7
			s-3.7,3.1-9.8,7.7S140,154,133,154.8s-8.8,2.3-14.8,6s-16.9,4.3-23.4,4.1s-11.8,2.6-17,5.4s-9.4,3.2-13.6,3.9s-6.7,0.5-13.5,2.9
			c-0.5,0.2-1,0.3-1.5,0.4c0.2,0.8,0.3,1.2,0.3,1.2c65.5-14,92.8-20.8,104.9-26.2l0,0c3.4-1.2,6.6-2.7,9.6-4.6
			C166.5,142.6,168.1,133.3,168.5,131.4z"/>
		<path class="st8" d="M170.3,102.6c-0.2-0.9-2.2-1.7-0.4-3.3s2.4-6.7-1-7.4c-1.7-0.5-3.4-0.8-5.2-0.8c-2.1,0-3,1.6-6.1,3
			s-3.4,0.6-6.5,1.8s-6.5,1.8-10.1,3.7c-3.4,1.6-7,2.9-10.7,3.9c-1,0.3-6,1.3-9.8,2.3s-4.6,2-7.4,3.2c-4.6,1.7-9.4,3-14.2,4
			c-4.1,0.8-4.1,1.3-7.2,2.1s-5.5,2.3-9.3,3.3s-4.1-0.2-7.3,1.2s-4.3,3-6.5,3.8s-6.1,1.3-9.8,2.4s-7.8,2.9-10.5,3.9
			c-0.6,0.2-1,0.4-1.4,0.6c0,0.3,0,0.6-0.1,0.9c-0.1,1.3-0.1,2.5-0.2,3.7c0.6-0.3,1.3-0.5,2-0.6c5.3-0.9,3.4-2.1,4.7-3
			s5.5-2.2,9.8-2.3s6.1-1.2,7.9-3.9s5.5-1,10.3-2c3.1-0.6,6.1-1.8,8.8-3.5c2.6-1.4,5.4-1.6,8.1-3.3c3.4-1.9,7.1-3.2,11-3.8
			c2.8-0.3,5.7-0.9,8.4-1.7c4.5-1.3,2.3,1.3,7.2-0.4c5-1.7,4.3-2.1,5.5-3.8s3.8-2.4,9-3c5-0.6,19.4-6.7,23.8-8.1
			c0,0,3.6-0.3,3.8,1.2c0,2.8-0.4,5.6-1,8.3c-0.6,1.3-1.1,2.7-1.5,4.1c0.1,0.9,0.5,1.7,1.1,2.4c0.3,0.4,1.6,3,1.4,3.8
			s-2.9,2.9-4.8,4.2c-1.2,0.5-2.3,1.6-4.5,2.7c-3.1,1.4-3.4,0.6-6.5,1.8s-6.5,1.8-10.1,3.7c-3.4,1.6-7,2.9-10.7,3.9
			c-1,0.3-6,1.3-9.8,2.3s-4.6,2-7.4,3.2s-10.1,3.2-14.2,4s-4.1,1.3-7.2,2.1s-5.5,2.3-9.3,3.3s-4.1-0.2-7.3,1.2s-4.3,3-6.5,3.8
			s-6.1,1.3-9.8,2.4s-7.8,2.9-10.5,3.9c-0.6,0.2-1.1,0.5-1.6,0.6c0,0.4,0,0.7,0.1,1c0.1,1.1,0.2,2.2,0.3,3.3c0.5-0.2,1-0.3,1.5-0.4
			c5.3-0.9,3.4-2.1,4.7-3s5.5-2.2,9.8-2.3s6.1-1.2,7.9-3.9s5.5-1,10.3-2c3.1-0.6,6.1-1.8,8.8-3.5c2.6-1.4,5.4-1.6,8.1-3.3
			c3.4-1.9,7.1-3.2,11-3.8c2.8-0.3,5.7-0.9,8.4-1.7c4.5-1.3,2.3,1.3,7.2-0.4c5-1.7,4.3-2.1,5.5-3.8s3.8-2.4,9-3s20.3-7.1,24.1-8.2
			s5.5-0.8,6.3-2.3c0.1-0.1,0.1-0.2,0.1-0.3c0.4-0.9,0.5-1.8,0.4-2.7c-0.3-3.3-0.3-6.6,0-9.9C170.6,106.4,170.6,104.5,170.3,102.6z"
			/>
	</g>
	<g class="st9">
		<path class="st10" d="M140.8,117.5c-3.4-19-18.1-27.2-35.3-29.9c-27.7,10-56.1,21-56.1,21c-0.9,5.8-1.6,11.2-2,16.4
			c-1.5,15-1.3,30.1,0.5,45c0.8,5.5,1.5,8.5,1.5,8.5c40.9-8.7,66.9-14.6,83.6-19.2C139.8,146.9,143.6,132.7,140.8,117.5z"/>
		<path class="st10" d="M116.1,129c-3.3-26.8-37.7-31.4-37.7-31.4c-16.5,6.2-29,11-29,11c-0.9,5.8-1.6,11.2-2,16.4
			c-1.5,15-1.3,30.1,0.5,45c0.8,5.5,1.5,8.5,1.5,8.5c12.8-2.7,24.1-5.2,34.1-7.4C83.6,171.1,119.4,155.7,116.1,129z"/>
		<path class="st10" d="M87.7,132.8c-1.7-20.7-33-26.3-33-26.3l0,0l-5.3,2.1c-0.9,5.8-1.6,11.2-2,16.4c-1.5,15-1.3,30.1,0.5,45
			c0.8,5.5,1.5,8.5,1.5,8.5C78.2,164.8,89.4,153.5,87.7,132.8z"/>
	</g>
	<path class="st11" d="M164.3,55.5c-23-18.6-73.3-12-77-8.8c-3,2.7-28.8,41.9-37.2,56.8l118.4-43.7
		C167.2,58.2,165.8,56.8,164.3,55.5z"/>
	<path class="st12" d="M87.7,53c-9.9,13.8-1,17.7,7.8,15.2s26.6-1.6,21.9,4.9c-7.6,10.4,4.8,4,6.5,6.8c3.5,4.2,2,54.6,3.8,77.3
		c0.2,2.7-7.9,4.6-10.4,6.4c-1.9,1.4-2.2,4.1-0.8,5.9c0.2,0.3,0.5,0.6,0.8,0.8c3,2.7,6.3-1.4,11.9,1s14,0,16.3-2.4
		c4.2-4.3,2-12.4-4.9-11.4s-9.9-0.9-10.1-3.5c-1.1-16.8,0.6-68.9-2.9-76.6c-1.6-3.6,8.6-5.7,11.4-10.2c2.6-4.1-0.9-11.4-9.4-11.7
		s-14.6,0.3-16.5-4C109.3,43,96.4,40.8,87.7,53z"/>
	<path class="st12" d="M63.4,87.7c0,0-1.6-5,3.3-6.6s5.4-3.7,6.2-5.4s7.5-5.3,13.3,1.3s8.6,5.1,8.3,8.7s-4.9,3.3-4.9,6.7
		s1,67.7,3.3,72.6s9.8,3,10,7.2s-4.4,6.3-7.7,7.6s-6.4-1.6-12.1-1.2s-3.7-4.4,0-5.8s4.4-2.5,3.9-9.1s-1.8-67.1-1.8-69.1
		c0.2-2.2-1.5-4-3.6-4.2c-0.2,0-0.4,0-0.5,0C77.8,90.4,66,93.4,63.4,87.7z"/>
	
		<linearGradient id="SVGID_1_" gradientUnits="userSpaceOnUse" x1="135.7448" y1="46.2915" x2="127.5048" y2="73.1415" gradientTransform="matrix(1 0 0 -1 0 226)">
		<stop  offset="0" style="stop-color:#FFFFFF;stop-opacity:0.8"/>
		<stop  offset="1" style="stop-color:#FFFFFF;stop-opacity:0"/>
	</linearGradient>
	<path class="st13" d="M129.9,157.1c2.1-0.5,5.4,2.6,8.2,2.4c3.4-0.2,8.2,0,7.8,4.3s-6.3,9.1-14.8,6.1c-5.6-1.9-12.9,3.4-14.3-2.1
		c-1.2-4.4,4.6-4.9,7.9-6.6C128.2,159.6,127.8,157.7,129.9,157.1z"/>
	
		<linearGradient id="SVGID_2_" gradientUnits="userSpaceOnUse" x1="84.7012" y1="137.4187" x2="123.4813" y2="176.3288" gradientTransform="matrix(1 0 0 -1 0 226)">
		<stop  offset="0" style="stop-color:#FFFFFF;stop-opacity:0.8"/>
		<stop  offset="1" style="stop-color:#FFFFFF;stop-opacity:0"/>
	</linearGradient>
	<path class="st14" d="M115.9,66.4c2.6,1,4.8,4.7,3,7.4c-3.8,5.7,0.8,3.9,3.2,3.8s3,1.7,4.6-2.1s14.1-6,11.8-13.3
		s-17.3-3.4-21.6-5.1s-7.7-6.1-9.4-7.4c-1.4-1.1-10-6.9-17.3,1.4c-7.1,8-8.9,18.8,4,16.3C106.7,65.1,110.6,64.3,115.9,66.4z"/>
	<path class="st15" d="M94.3,46.7c0.4-0.2,7.8-3.2,12.4-0.5c4.8,2.8,4.8,6.6,7.5,8.1s7.1,2.2,12.9,2s9.4,0.8,12.3,5.7
		c-1.1-3.2-4.4-6.2-9.9-6.4c-8.5-0.3-14.6,0.3-16.5-4C110.2,45.1,101.9,42.2,94.3,46.7z"/>
	
		<linearGradient id="SVGID_3_" gradientUnits="userSpaceOnUse" x1="116.84" y1="106.5699" x2="133.57" y2="107.9499" gradientTransform="matrix(1 0 0 -1 0 226)">
		<stop  offset="0" style="stop-color:#FFFFFF;stop-opacity:0.8"/>
		<stop  offset="1" style="stop-color:#FFFFFF;stop-opacity:0"/>
	</linearGradient>
	<path class="st16" d="M126.3,84.4c0.3,3.3,1.1,27.1,1.3,38.1s0.4,27.4,0.7,30.1s0.8,1.3,0.6,0s-0.9-26.8-0.9-30.2s-0.9-35.1-1.3-38
		S126.3,83.7,126.3,84.4z"/>
	
		<linearGradient id="SVGID_4_" gradientUnits="userSpaceOnUse" x1="77.7298" y1="95.2519" x2="92.1198" y2="96.5319" gradientTransform="matrix(1 0 0 -1 0 226)">
		<stop  offset="0" style="stop-color:#FFFFFF;stop-opacity:0.8"/>
		<stop  offset="1" style="stop-color:#FFFFFF;stop-opacity:0"/>
	</linearGradient>
	<path class="st17" d="M86.1,95.8c0.3,3.3,1.1,27.1,1.3,38.1s0.4,27.4,0.7,30.1s0.8,1.3,0.6,0s-0.8-26.8-0.8-30.2s-0.9-35.1-1.3-38
		S86,95.1,86.1,95.8z"/>
	
		<linearGradient id="SVGID_5_" gradientUnits="userSpaceOnUse" x1="130.5" y1="58.6604" x2="156.2" y2="60.8704" gradientTransform="matrix(1 0 0 -1 0 226)">
		<stop  offset="0" style="stop-color:#FFFFFF;stop-opacity:0.8"/>
		<stop  offset="1" style="stop-color:#FFFFFF;stop-opacity:0"/>
	</linearGradient>
	<path class="st18" d="M139.6,169.9c1.5-0.7,5.4-2.7,5.7-5.5s-0.9-2.2-1.2,0s-2.4,3.4-4.3,4.3S138,170.6,139.6,169.9z"/>
	
		<linearGradient id="SVGID_6_" gradientUnits="userSpaceOnUse" x1="83.7751" y1="158.3504" x2="93.7951" y2="166.0804" gradientTransform="matrix(1 0 0 -1 0 226)">
		<stop  offset="0" style="stop-color:#FFFFFF;stop-opacity:0.8"/>
		<stop  offset="1" style="stop-color:#FFFFFF;stop-opacity:0"/>
	</linearGradient>
	<path class="st19" d="M88.7,59.2c-0.4,1.2-1.1,3.5,0.7,4.2s5-2.6,7.3-1.3s1.2,4.6-2.1,5s-7.6,0.4-8.6-2.6s0.5-6,1.6-8
		S89.3,57.5,88.7,59.2z"/>
	
		<linearGradient id="SVGID_7_" gradientUnits="userSpaceOnUse" x1="112.2112" y1="51.9375" x2="130.3612" y2="60.6375" gradientTransform="matrix(1 0 0 -1 0 226)">
		<stop  offset="0" style="stop-color:#FFFFFF;stop-opacity:0.8"/>
		<stop  offset="1" style="stop-color:#FFFFFF;stop-opacity:0"/>
	</linearGradient>
	<path class="st20" d="M118.5,167.7c0.2,0.7,0.7,2.5,6.2,1.2c3.5-0.9,5-0.5,6.3-0.1s0.9,0.9-0.1,0.6s-2.9-0.6-6,0.1s-6,1.4-7.4-0.9
		S118.3,166.7,118.5,167.7z"/>
	<path class="st15" d="M140.6,157.6c-6.4,0.8-9.4-0.6-10-2.9l0,0c0,0,0.5,3.8,6.6,3.6s7.2-0.1,8.8,1.8c1.5,2,1.8,4.6,0.7,6.8
		c-0.9,1.6-2.2,2.9-3.7,3.8c1-0.4,1.8-0.9,2.6-1.6C149.7,164.7,147.5,156.6,140.6,157.6z"/>
	
		<linearGradient id="SVGID_8_" gradientUnits="userSpaceOnUse" x1="93.316" y1="41.2213" x2="89.726" y2="59.3613" gradientTransform="matrix(1 0 0 -1 0 226)">
		<stop  offset="0" style="stop-color:#FFFFFF;stop-opacity:0.8"/>
		<stop  offset="1" style="stop-color:#FFFFFF;stop-opacity:0"/>
	</linearGradient>
	<path class="st21" d="M90.1,166.9c1.8-0.4,3.6,3.2,6.7,3.3s5.4,0.8,4.8,3.6c-0.6,2.5-4.2,4.8-8,5.1c-2.9,0.3-6.9-2-10-1.3
		s-3.5-2.5-1-3.4C90.1,171.4,87.3,167.5,90.1,166.9z"/>
	
		<linearGradient id="SVGID_9_" gradientUnits="userSpaceOnUse" x1="78.15" y1="48.4804" x2="98.1799" y2="50.9604" gradientTransform="matrix(1 0 0 -1 0 226)">
		<stop  offset="0" style="stop-color:#FFFFFF;stop-opacity:0.8"/>
		<stop  offset="1" style="stop-color:#FFFFFF;stop-opacity:0"/>
	</linearGradient>
	<path class="st22" d="M83.2,175.5c0,0.4,0.4,0.8,2.6,0.5s4.6,1.4,5.8,1.6s-0.3,0.4-1.3,0s-3.5-1.4-4.5-1.1s-3.7,1.3-4.3-0.3
		S83.1,174.7,83.2,175.5z"/>
	
		<linearGradient id="SVGID_10_" gradientUnits="userSpaceOnUse" x1="108.884" y1="97.897" x2="115.324" y2="98.697" gradientTransform="matrix(0.9989 4.780380e-02 4.780380e-02 -0.9989 -16.7242 267.0933)">
		<stop  offset="0" style="stop-color:#FFFFFF;stop-opacity:0.8"/>
		<stop  offset="1" style="stop-color:#FFFFFF;stop-opacity:0"/>
	</linearGradient>
	<path class="st23" d="M100.9,172.1c0.2,0.6,0.6,2.2-2.3,4.5c0,0-1.4,1,0.3-0.7s1.8-2.5,1.8-3.6S100.9,172.1,100.9,172.1z"/>
	
		<linearGradient id="SVGID_11_" gradientUnits="userSpaceOnUse" x1="5.6724" y1="136.8815" x2="119.4224" y2="146.3015" gradientTransform="matrix(1 0 0 -1 0 226)">
		<stop  offset="0" style="stop-color:#FFFFFF;stop-opacity:0.8"/>
		<stop  offset="1" style="stop-color:#FFFFFF;stop-opacity:0"/>
	</linearGradient>
	<path class="st24" d="M77.6,75c-2.2,0.2-4.1,1.8-4.7,3.9c-0.7,2.1-3.1,3.5-5.8,3.7s-3.8,5.8,1.5,6.7S82,88.1,84,89.6
		s3.2,1.3,5.7-0.7s4.6-4.3,2.1-5.6c-2.7-1.5-5.1-3.5-6.9-6C83.3,75.2,80.7,74.7,77.6,75z"/>
	
		<linearGradient id="SVGID_12_" gradientUnits="userSpaceOnUse" x1="117.0602" y1="159.6472" x2="144.0302" y2="161.8772" gradientTransform="matrix(1 0 0 -1 0 226)">
		<stop  offset="0" style="stop-color:#FFFFFF;stop-opacity:0.8"/>
		<stop  offset="1" style="stop-color:#FFFFFF;stop-opacity:0"/>
	</linearGradient>
	<path class="st25" d="M135.9,60.3c2,1.4,3.2,5.9-1.8,8.8s-1.4-0.5,0-1.6s3.4-4.6,1.3-6.1S134.2,59.1,135.9,60.3z"/>
	
		<linearGradient id="SVGID_13_" gradientUnits="userSpaceOnUse" x1="47.2186" y1="138.5571" x2="82.2786" y2="141.4671" gradientTransform="matrix(1 0 0 -1 0 226)">
		<stop  offset="0" style="stop-color:#FFFFFF;stop-opacity:0.8"/>
		<stop  offset="1" style="stop-color:#FFFFFF;stop-opacity:0"/>
	</linearGradient>
	<path class="st26" d="M67.3,85.8c0.1,1.5,1.3,3.1,5.9,2.6c0,0,2.3,0,0,0.5s-7.3,0.7-7.8-3.1s3.5-1.8,5.1-3.5s3.1,0.5,1.9,1.8
		S67.1,83.5,67.3,85.8z"/>
	
		<linearGradient id="SVGID_14_" gradientUnits="userSpaceOnUse" x1="81.9096" y1="140.4044" x2="95.4996" y2="141.5244" gradientTransform="matrix(1 0 0 -1 0 226)">
		<stop  offset="0" style="stop-color:#FFFFFF;stop-opacity:0.8"/>
		<stop  offset="1" style="stop-color:#FFFFFF;stop-opacity:0"/>
	</linearGradient>
	<path class="st27" d="M90.5,83.2c0.4,0.2,2.9,1.2,1.2,3s-1.3,0.5-0.8-0.4s-1.5-0.8-2-2S89.5,82.6,90.5,83.2z"/>
	<path class="st15" d="M92.9,165.1c-2.3-4.9-3.3-69.2-3.3-72.6s4.6-3.2,4.9-6.7c0-0.3,0-0.5,0-0.8c-0.5,1.5-1.5,2.9-2.9,3.7
		c-2.3,1.5-3.1,2.5-2.7,7.7s0.5,38.6,1.4,53.1s0.6,16.9,6,18.9s6.5,2.1,6.4,5.5c0.2-0.6,0.2-1.1,0.2-1.7
		C102.7,168.1,95.2,170,92.9,165.1z"/>
	<path class="st15" d="M89.3,179c-1.9-0.8-4-1-6-0.7c-0.9,0.1-1.8,0.1-2.6,0c0.7,0.2,1.5,0.3,2.3,0.2c5.8-0.4,8.8,2.4,12.1,1.2
		l0.2-0.1C93.3,180,91.2,179.7,89.3,179z"/>
	
		<linearGradient id="SVGID_15_" gradientUnits="userSpaceOnUse" x1="173.2612" y1="167.7673" x2="124.6712" y2="171.1773" gradientTransform="matrix(1 0 0 -1 0 226)">
		<stop  offset="0" style="stop-color:#DE5B58;stop-opacity:0.8"/>
		<stop  offset="0.99" style="stop-color:#DE5B58;stop-opacity:0"/>
	</linearGradient>
	<path class="st28" d="M131.5,45.6c2.8,0.2,23.3,2.6,28.8,10.1s-11.2,5.4-15.8,9.3s2.3-7.4-4.6-9.3s-22.8,0.4-25.4-7.1
		C113.2,44.5,127.2,45.4,131.5,45.6z"/>
	
		<linearGradient id="SVGID_16_" gradientUnits="userSpaceOnUse" x1="54.1503" y1="128.3494" x2="64.8003" y2="133.4694" gradientTransform="matrix(1 0 0 -1 0 226)">
		<stop  offset="0" style="stop-color:#DE5B58;stop-opacity:0.8"/>
		<stop  offset="0.99" style="stop-color:#DE5B58;stop-opacity:0"/>
	</linearGradient>
	<path class="st29" d="M60.2,89.2c0,0-8.9,11.6-7.8,12.3s17.6-6,22.9-8.5c5.6-2.6-6.8-0.6-10,0.8C62.5,95,56.7,96.5,60.2,89.2z"/>
	<g>
		<path class="st30" d="M132.8,50.9c0.6-0.2,1.2-0.3,1.8-0.3c0.9-0.1,1.8-0.4,2.6-0.7c0.8-1.5,0.3-3.3-1.2-4.1
			c-1.5-0.8-3.3-0.3-4.1,1.2C131.2,48.4,131.6,50.1,132.8,50.9L132.8,50.9z"/>
		<path class="st31" d="M134.3,45.6L134.3,45.6c-0.2,0-0.3,0-0.5,0.1h-0.1c-0.1,0-0.3,0.1-0.4,0.2h-0.1c-0.1,0.1-0.3,0.1-0.4,0.2
			l0,0c-0.3,0.2-0.5,0.4-0.7,0.7l0,0c-0.1,0.1-0.2,0.3-0.2,0.4v0.1c-0.1,0.1-0.1,0.3-0.2,0.4l0,0c0,0.2-0.1,0.3-0.1,0.5l0,0
			c0.1,1.3,1.1,2.3,2.3,2.4c0.2,0,0.4,0,0.6,0c1.4-0.2,2.3-1.5,2.1-2.9c-0.2-1.2-1.1-2-2.3-2.1L134.3,45.6z"/>
		<path class="st32" d="M133.9,45.7c-1.1,0.3-1.9,1.1-2.2,2.2c0.3,0.9,1.3,1.5,2.2,1.2c0.7-0.2,1.2-0.9,1.2-1.7
			C135.1,46.6,134.6,45.9,133.9,45.7z"/>
		<circle class="st33" cx="132.6" cy="48.6" r="0.5"/>
	</g>
	<g>
		<path class="st30" d="M114.6,52.7c0.6-0.2,1.2-0.3,1.8-0.3c0.9-0.1,1.8-0.4,2.6-0.7c0.9-1.4,0.4-3.3-1-4.1c-1.4-0.9-3.3-0.4-4.1,1
			c-0.3,0.5-0.5,1.1-0.4,1.7C113.4,51.3,113.8,52.2,114.6,52.7z"/>
		<path class="st31" d="M116.1,47.4L116.1,47.4c-0.2,0-0.3,0-0.5,0.1l0,0c-0.1,0-0.3,0.1-0.4,0.2l0,0c-0.1,0.1-0.3,0.1-0.4,0.2l0,0
			c-0.3,0.2-0.5,0.4-0.7,0.7l0,0c-0.1,0.1-0.2,0.3-0.2,0.4c0,0,0,0,0,0c-0.1,0.1-0.1,0.3-0.2,0.4l0,0c0,0.2-0.1,0.3-0.1,0.5l0,0
			c0.1,1.3,1.1,2.3,2.3,2.4c0.2,0,0.4,0,0.6,0c1.4-0.2,2.3-1.5,2.1-2.9c-0.2-1.1-1.1-2-2.3-2.1L116.1,47.4z"/>
		<path class="st32" d="M115.7,47.5c-1.1,0.3-1.9,1.1-2.2,2.2c0.3,0.9,1.3,1.5,2.2,1.2c0.9-0.3,1.5-1.3,1.2-2.2
			C116.7,48.1,116.3,47.6,115.7,47.5z"/>
		<path class="st33" d="M114.9,50.3c0,0.3-0.2,0.5-0.5,0.5c-0.3,0-0.5-0.2-0.5-0.5c0-0.3,0.2-0.5,0.5-0.5c0,0,0,0,0,0
			C114.7,49.8,114.9,50.1,114.9,50.3C114.9,50.3,114.9,50.3,114.9,50.3z"/>
	</g>
	<g>
		<path class="st30" d="M77.1,69.8c0.6-0.2,1.2-0.3,1.8-0.3c0.9-0.1,1.8-0.4,2.6-0.7c0.9-1.4,0.4-3.3-1-4.1s-3.3-0.4-4.1,1
			c-0.3,0.5-0.5,1.1-0.4,1.7C75.9,68.4,76.4,69.3,77.1,69.8z"/>
		<path class="st31" d="M78.6,64.5L78.6,64.5c-0.2,0-0.3,0-0.5,0.1l0,0c-0.1,0-0.3,0.1-0.4,0.2h-0.1c-0.1,0.1-0.3,0.1-0.4,0.2l0,0
			c-0.3,0.2-0.5,0.4-0.7,0.7l0,0c-0.1,0.1-0.2,0.3-0.2,0.4l0,0c-0.1,0.1-0.1,0.3-0.2,0.4l0,0c0,0.2-0.1,0.3-0.1,0.5l0,0
			c0.1,1.3,1.1,2.3,2.3,2.4c0.2,0,0.4,0,0.6,0c1.4-0.2,2.3-1.5,2.1-2.9c-0.2-1.1-1.1-2-2.3-2.1L78.6,64.5z"/>
		<path class="st32" d="M78.2,64.6c-1.1,0.3-1.9,1.1-2.2,2.2c0.3,0.9,1.3,1.5,2.2,1.2s1.5-1.3,1.2-2.2
			C79.2,65.2,78.8,64.7,78.2,64.6L78.2,64.6z"/>
		<path class="st33" d="M77.4,67.5c0,0.3-0.2,0.5-0.5,0.5s-0.5-0.2-0.5-0.5c0-0.3,0.2-0.5,0.5-0.5c0,0,0,0,0,0
			C77.2,66.9,77.4,67.2,77.4,67.5z"/>
	</g>
	<g>
		<path class="st30" d="M61.4,95.9c0.6-0.2,1.2-0.3,1.8-0.3c0.9-0.1,1.8-0.4,2.6-0.7c0.9-1.4,0.4-3.3-1-4.1c-1.4-0.9-3.3-0.4-4.1,1
			c-0.3,0.5-0.5,1.1-0.4,1.7C60.2,94.5,60.6,95.3,61.4,95.9z"/>
		<path class="st31" d="M62.9,90.6L62.9,90.6l-0.5,0.1l0,0c-0.1,0-0.3,0.1-0.4,0.2l0,0c-0.1,0.1-0.3,0.2-0.4,0.2l0,0
			c-0.3,0.2-0.5,0.4-0.7,0.7l0,0c-0.1,0.1-0.2,0.3-0.2,0.4l0,0c-0.1,0.1-0.1,0.3-0.2,0.4l0,0c0,0.2-0.1,0.3-0.1,0.5l0,0
			c0.1,1.3,1.1,2.3,2.3,2.4c0.2,0,0.4,0,0.6,0c1.4-0.2,2.3-1.5,2.1-2.9c-0.2-1.1-1.1-2-2.3-2.1L62.9,90.6z"/>
		<path class="st32" d="M62.5,90.6c-1.1,0.3-1.9,1.1-2.2,2.2c0.3,0.9,1.3,1.5,2.2,1.2c0.9-0.3,1.5-1.3,1.2-2.2
			C63.5,91.3,63.1,90.8,62.5,90.6z"/>
		<circle class="st33" cx="61.2" cy="93.5" r="0.5"/>
	</g>
	<g>
		<path class="st30" d="M105.2,70.1c0.6-0.2,1.3-0.4,1.9-0.3c0.7,0.1,1.8-0.5,2.8-0.8c0.8-1.6,0.3-3.5-1.3-4.4
			c-1.6-0.8-3.5-0.3-4.4,1.3C103.5,67.4,103.9,69.1,105.2,70.1z"/>
		<path class="st31" d="M106.8,64.3L106.8,64.3c-0.2,0-0.3,0.1-0.5,0.1h-0.1c-0.2,0-0.3,0.1-0.5,0.2h-0.1c-0.1,0.1-0.3,0.2-0.4,0.3
			l0,0c-0.3,0.2-0.5,0.4-0.7,0.7l0,0c-0.1,0.1-0.2,0.3-0.3,0.4V66c-0.1,0.2-0.1,0.3-0.2,0.5v0.1c0,0.2-0.1,0.4-0.1,0.5l0,0
			c0.1,1.4,1.1,2.5,2.5,2.6c0.2,0,0.4,0,0.6,0c1.5-0.2,2.5-1.7,2.3-3.2c-0.2-1.3-1.3-2.2-2.5-2.3L106.8,64.3z"/>
		<path class="st32" d="M106.4,64.3c-1.2,0.3-2.1,1.2-2.4,2.4c0.3,1,1.4,1.6,2.4,1.3c1-0.3,1.6-1.4,1.3-2.4
			C107.5,65,107,64.5,106.4,64.3z"/>
		<path class="st33" d="M105.6,67.5c0,0.3-0.2,0.6-0.6,0.6c0,0,0,0,0,0c-0.3,0-0.6-0.3-0.6-0.6s0.3-0.6,0.6-0.6
			C105.3,66.9,105.6,67.2,105.6,67.5C105.6,67.5,105.6,67.5,105.6,67.5z"/>
	</g>
	<g>
		<path class="st30" d="M96.1,80.9c0.6-0.2,1.3-0.4,1.9-0.3c0.7,0.1,1.8-0.5,2.8-0.8c0.8-1.6,0.3-3.5-1.3-4.4
			c-1.6-0.8-3.5-0.3-4.4,1.3C94.4,78.2,94.8,79.9,96.1,80.9L96.1,80.9z"/>
		<path class="st31" d="M97.7,75.1L97.7,75.1c-0.2,0-0.3,0.1-0.5,0.1h-0.1c-0.2,0-0.3,0.1-0.5,0.2h-0.1c-0.1,0.1-0.3,0.2-0.4,0.3
			l0,0c-0.3,0.2-0.5,0.4-0.7,0.7l0,0c-0.1,0.1-0.2,0.3-0.3,0.4v0.1c-0.1,0.2-0.1,0.3-0.2,0.5l0,0c0,0.2-0.1,0.4-0.1,0.5l0,0
			c0.1,1.4,1.1,2.5,2.5,2.6c0.2,0,0.4,0,0.6,0c1.5-0.2,2.5-1.7,2.3-3.2c-0.2-1.3-1.3-2.2-2.5-2.3L97.7,75.1z"/>
		<path class="st32" d="M97.3,75.2c-1.2,0.3-2.1,1.2-2.4,2.4c0.3,1,1.4,1.6,2.4,1.3c1-0.3,1.6-1.4,1.3-2.4
			C98.4,75.8,97.9,75.3,97.3,75.2z"/>
		<path class="st33" d="M96.4,78.3c0,0.3-0.2,0.6-0.6,0.6c0,0,0,0,0,0c-0.3,0-0.6-0.3-0.6-0.6s0.3-0.6,0.6-0.6
			C96.2,77.7,96.4,78,96.4,78.3C96.4,78.3,96.4,78.3,96.4,78.3z"/>
	</g>
	<g>
		<path class="st30" d="M143.4,58.7c0.6-0.2,1.3-0.4,1.9-0.3c0.7,0.1,1.8-0.5,2.9-0.8c0.8-1.6,0.3-3.5-1.3-4.4
			c-1.6-0.8-3.5-0.3-4.4,1.3C141.7,55.9,142.1,57.7,143.4,58.7z"/>
		<path class="st31" d="M145,52.8L145,52.8c-0.2,0-0.3,0.1-0.5,0.1h-0.1c-0.2,0-0.3,0.1-0.5,0.2h-0.1c-0.1,0.1-0.3,0.2-0.4,0.3l0,0
			c-0.3,0.2-0.5,0.4-0.7,0.7l0,0c-0.1,0.1-0.2,0.3-0.3,0.4v0.1c-0.1,0.2-0.1,0.3-0.2,0.5l0,0c0,0.2-0.1,0.4-0.1,0.5l0,0
			c0.1,1.4,1.1,2.5,2.5,2.6c0.2,0,0.4,0,0.6,0c1.5-0.2,2.5-1.6,2.3-3.2c-0.2-1.3-1.3-2.2-2.5-2.3L145,52.8z"/>
		<path class="st32" d="M144.5,52.9c-1.2,0.3-2.1,1.2-2.4,2.4c0.3,1,1.4,1.6,2.4,1.3c1-0.3,1.6-1.4,1.3-2.4
			C145.7,53.6,145.2,53.1,144.5,52.9z"/>
		<path class="st33" d="M143.7,56.1c0,0.3-0.3,0.6-0.6,0.6s-0.6-0.3-0.6-0.6s0.3-0.6,0.6-0.6S143.7,55.7,143.7,56.1z"/>
	</g>
</g>
</svg>
