<?xml version="1.0" encoding="utf-8"?>
<!-- Generator: Adobe Illustrator 23.1.0, SVG Export Plug-In . SVG Version: 6.00 Build 0)  -->
<svg version="1.1" id="圖層_1" xmlns="http://www.w3.org/2000/svg" xmlns:xlink="http://www.w3.org/1999/xlink" x="0px" y="0px"
	 viewBox="0 0 225 225" style="enable-background:new 0 0 225 225;" xml:space="preserve">
<style type="text/css">
	.st0{fill:#EDDAB7;}
	.st1{opacity:0.5;}
	.st2{fill:#FCD988;}
	.st3{enable-background:new    ;}
	.st4{fill:#633E37;}
	.st5{fill:#EDEDED;}
	.st6{fill:#DDB760;}
	.st7{fill:#895D41;}
	.st8{fill:#E7CF86;}
	.st9{opacity:0.6;fill:#DDB760;enable-background:new    ;}
	.st10{opacity:0.8;fill:#EFC230;enable-background:new    ;}
	.st11{opacity:0.6;fill:#EFC230;enable-background:new    ;}
	.st12{opacity:0.7;}
	.st13{opacity:0.3;fill:#FFFFFF;enable-background:new    ;}
	.st14{fill:#754A35;}
	.st15{fill:#C8A153;}
</style>
<title>CAKE4</title>
<rect class="st0" width="225" height="225"/>
<g class="st1">
	<rect y="180.5" class="st2" width="225" height="44.5"/>
</g>
<g class="st3">
	<path class="st4" d="M89.9,197.8h-2.1v-1.3h6v1.3h-2.1v11.4h-1.8V197.8z"/>
	<path class="st4" d="M94.7,196.4h2.6c2.5,0,3.7,1,3.7,3.4c0,1.5-0.4,2.6-1.6,3l1.8,6.4h-1.7l-1.7-6h-1.4v6h-1.8V196.4z M97.1,201.9
		c1.5,0,2.1-0.5,2.1-2.1c0-1.5-0.4-2.1-2-2.1h-0.8v4.2H97.1z"/>
	<path class="st4" d="M104.5,196.4h1.7l2.7,12.7h-1.7l-0.6-3.2h-2.6l-0.6,3.2h-1.7L104.5,196.4z M106.4,204.7l-1.1-5.7l-1.1,5.7
		H106.4z"/>
	<path class="st4" d="M109.9,196.4h2.8c2.8,0,3.8,1.3,3.8,3.9v4.7c0,2.7-1,4.2-3.6,4.2h-2.9V196.4z M112.7,207.9c1.9,0,2-1.2,2-3.2
		v-4.1c0-2-0.2-2.8-2-2.8h-1v10.1H112.7z"/>
	<path class="st4" d="M117.9,196.4h1.7v12.7h-1.7V196.4z"/>
	<path class="st4" d="M122.8,197.8h-2.1v-1.3h6v1.3h-2.1v11.4h-1.8V197.8z"/>
	<path class="st4" d="M127.7,196.4h1.7v12.7h-1.7V196.4z"/>
	<path class="st4" d="M130.9,205.2v-4.8c0-2.5,0.9-4,3.5-4c2.6,0,3.5,1.5,3.5,4v4.8c0,2.5-0.9,4.1-3.5,4.1
		C131.8,209.3,130.9,207.7,130.9,205.2z M136.1,205.5V200c0-1.4-0.3-2.3-1.7-2.3c-1.4,0-1.7,0.9-1.7,2.3v5.6c0,1.4,0.3,2.3,1.7,2.3
		C135.8,207.9,136.1,207,136.1,205.5z"/>
	<path class="st4" d="M139.3,196.4h1.2l3.6,8.4v-8.4h1.5v12.7h-1.1l-3.7-8.7v8.7h-1.5V196.4z"/>
</g>
<g>
	<path class="st5" d="M48.8,177.4c0,0,101.8-13.7,120.7-29.9s-6.2-22.1-6.2-22.1L48.8,177.4z"/>
	<path class="st6" d="M160.7,72.5c0,0-24.6-17.4-73.6-19.5c0,0-38,53.2-38.2,54.5s62.4-5.3,62.4-5.3L160.7,72.5z"/>
	<path class="st7" d="M47.7,171.2L47.7,171.2c0.6,4,1.2,6.2,1.2,6.2c115-24.6,112.4-27,116.1-38.8c0.6-2.1,1.1-4.3,1.5-6.5
		C161.2,148.9,47.7,171.2,47.7,171.2z"/>
	<path class="st8" d="M155.8,70.5c-11.5,0.1-107,37.1-107,37.1c-4.9,30.7-2.7,53.4-1.2,63.7l0,0c0,0,113.6-22.4,118.7-39
		C170,111.8,169.6,70.3,155.8,70.5z"/>
	<path class="st6" d="M46,136.2c4.2-4,10.4-6.5,19.1-4c22.6,6.5,38.6-9.5,38.6-9.5c-15.3,8.3-21.5,9-39.2,5.3
		c-6.1-1.3-12.4-0.7-18.2,1.7C46.2,132,46.1,134.1,46,136.2z"/>
	<path class="st9" d="M155.8,70.5c-11.5,0.1-107,37.1-107,37.1s103-34.5,109.2-29.8c1.1,0.8,2,3,2.8,6c0,0-8.8,12.4-31.6,12.8
		s-34.1-1.3-40.7,8.9s-30,6.4-30,6.4s26,5.5,32.8-4s20.9-4.9,37.7-3.6c13.1,1,27.8-0.7,34.2-4.2c1.1,14.3,0.6,30.4-1.6,32.3
		c-1.9,1.7-19.4,8.5-41.9,16c0.5-1.5,0.8-3.1,1-4.7c2.1-18.4,24.9-19.3,24.9-19.3c-16-4.7-31.9,4.1-38.6,15.8
		c-8.6,14.8-42,23.8-42,23.8l0,0c-6.2,1.4-12.2,2.7-17.9,3.7c0.2,1.4,0.4,2.7,0.5,3.8c0,0,113.5-22.4,118.7-39
		C170,111.8,169.6,70.3,155.8,70.5z"/>
	<path class="st6" d="M153.1,119.3c0,1.9-0.4,3.4-0.9,3.4s-1-1.5-1-3.4s0.4-3.4,1-3.4S153.1,117.4,153.1,119.3z"/>
	<path class="st6" d="M102,108.1c0,1.9-0.4,3.4-1,3.4s-1-1.5-1-3.4s0.4-3.4,1-3.4S102,106.2,102,108.1z"/>
	<path class="st6" d="M62.9,152.3c0,1.9-0.4,3.4-1,3.4s-1-1.5-1-3.4s0.4-3.4,1-3.4S62.9,150.4,62.9,152.3z"/>
	<path class="st6" d="M92.5,139.6c0,1.9-0.4,3.4-1,3.4s-1-1.5-1-3.4s0.4-3.4,1-3.4S92.5,137.7,92.5,139.6z"/>
	<path class="st6" d="M135.9,137.8c0,2.9-0.7,5.2-1.5,5.2s-1.5-2.3-1.5-5.2s0.7-5.2,1.5-5.2S135.9,134.9,135.9,137.8z"/>
	<ellipse class="st6" cx="50.3" cy="134.8" rx="1.5" ry="5.2"/>
	<ellipse class="st6" cx="149.8" cy="91.3" rx="1.5" ry="5.2"/>
	<path class="st6" d="M57.6,115.9c0,1.9-0.4,3.4-1,3.4s-1-1.5-1-3.4s0.4-3.4,1-3.4S57.6,114,57.6,115.9z"/>
	<path class="st6" d="M156.2,113.7c0,1.5-0.4,2.7-0.8,2.7s-0.8-1.2-0.8-2.7s0.3-2.8,0.8-2.8S156.2,112.2,156.2,113.7z"/>
	<path class="st6" d="M119.8,108.1c0,1.5-0.3,2.8-0.8,2.8s-0.8-1.2-0.8-2.8s0.3-2.7,0.8-2.7S119.8,106.6,119.8,108.1z"/>
	<path class="st6" d="M84.4,137.5c0,1.5-0.3,2.7-0.8,2.7s-0.8-1.2-0.8-2.7s0.3-2.7,0.8-2.7S84.4,136,84.4,137.5z"/>
	<path class="st6" d="M107.4,130c0,1.5-0.3,2.7-0.8,2.7s-0.8-1.2-0.8-2.7s0.3-2.7,0.8-2.7S107.4,128.5,107.4,130z"/>
	<path class="st6" d="M123.9,93.8c0,1.5-0.3,2.7-0.8,2.7s-0.8-1.2-0.8-2.7s0.3-2.7,0.8-2.7S123.9,92.3,123.9,93.8z"/>
	<path class="st10" d="M168.1,59.1c0.3,0.3,0.5,0.7,0.7,1C168.6,59.8,168.4,59.4,168.1,59.1z"/>
	<path class="st10" d="M168.9,60.2c0.2,0.4,0.5,0.7,0.7,1.1C169.4,60.9,169.1,60.5,168.9,60.2z"/>
	<path class="st8" d="M99.9,60.1c-0.2,0.9-2.4,1.2-5,0.6s-4.5-1.7-4.3-2.5s2.4-1.2,5-0.6S100.1,59.2,99.9,60.1z"/>
	<path class="st8" d="M125.7,64.1c-0.2,0.9-2.4,1.2-5,0.6s-4.5-1.7-4.3-2.5s2.4-1.2,5-0.6S125.9,63.2,125.7,64.1z"/>
	<path class="st8" d="M115.2,73.5c-0.2,0.9-2.4,1.2-5,0.6s-4.5-1.7-4.3-2.5s2.4-1.2,5-0.6S115.4,72.6,115.2,73.5z"/>
	<path class="st8" d="M92.2,77.2c-0.2,0.9-2.4,1.2-5,0.6s-4.5-1.7-4.3-2.5s2.4-1.2,5-0.6S92.4,76.3,92.2,77.2z"/>
	<path class="st8" d="M135.2,71.3c-0.1,0.4-1.2,0.6-2.6,0.3s-2.3-0.8-2.2-1.3s1.2-0.6,2.6-0.3S135.3,70.9,135.2,71.3z"/>
	<path class="st8" d="M111.3,69.4c-0.1,0.4-1.2,0.6-2.6,0.3s-2.3-0.8-2.2-1.3s1.2-0.6,2.6-0.3S111.4,69,111.3,69.4z"/>
	<path class="st8" d="M67.7,94.3c-0.1,0.4-1.2,0.6-2.6,0.3s-2.3-0.9-2.2-1.3s1.2-0.6,2.6-0.3S67.8,93.8,67.7,94.3z"/>
	<path class="st8" d="M89.9,87.6c-0.1,0.4-1.2,0.6-2.6,0.3s-2.3-0.9-2.2-1.3s1.2-0.6,2.6-0.3S90,87.1,89.9,87.6z"/>
	<path class="st8" d="M80.9,73c-0.1,0.4-1.2,0.6-2.6,0.3s-2.3-0.8-2.2-1.3s1.2-0.6,2.6-0.3S81,72.6,80.9,73z"/>
	<path class="st8" d="M97.7,63.6c-0.1,0.4-1.2,0.6-2.6,0.3s-2.3-0.8-2.2-1.3s1.2-0.6,2.6-0.3S97.7,63.2,97.7,63.6z"/>
	<path class="st8" d="M106.6,80.8c-0.1,0.5-1.4,0.6-2.8,0.3s-2.5-0.9-2.4-1.4s1.4-0.6,2.8-0.3S106.7,80.3,106.6,80.8z"/>
	<path class="st8" d="M115.2,65.5c-0.1,0.5-1.4,0.7-2.8,0.3s-2.5-0.9-2.4-1.4s1.4-0.6,2.8-0.3S115.3,65,115.2,65.5z"/>
	<path class="st8" d="M119,61.8c-0.1,0.5-1.4,0.6-2.8,0.3s-2.5-0.9-2.4-1.4s1.4-0.6,2.8-0.3S119.1,61.3,119,61.8z"/>
	<path class="st8" d="M117.7,75c-0.1,0.5-1.4,0.6-2.8,0.3s-2.6-0.9-2.4-1.4s1.3-0.7,2.8-0.3S117.8,74.5,117.7,75z"/>
	<path class="st8" d="M77.5,84.9c-0.1,0.5-1.4,0.6-2.8,0.3s-2.5-0.9-2.4-1.4s1.4-0.6,2.8-0.3S77.6,84.4,77.5,84.9z"/>
	<path class="st8" d="M82.9,84.6c-0.2,0.7-2,1-4.2,0.5S74.9,83.7,75,83s2-1,4.2-0.5S83,83.9,82.9,84.6z"/>
	<path class="st10" d="M167.3,58L167.3,58c1.1,1.3-0.8,3.5-6.6,5.6c-5.2,1.9-92.5,31.9-110.9,38.3c-0.4,0.7-0.9,5.1-0.9,5.6
		c0,0,95.4-37,107-37.1c13.8-0.1,14.2,41.4,10.6,61.7c-0.4,2.2-0.9,4.4-1.5,6.5c-1.6,5.1-2,8.4-11.2,12.5c0,0,14.3-4.9,16.2-11.8
		C171.6,132.9,185,79.7,167.3,58z"/>
	<path class="st11" d="M160.7,63.7c5.9-2.1,7.8-4.3,6.6-5.6l0.8,1c-1.3-1.7-2.7-3.3-4.4-4.6c-23-18.6-73.6-15.9-77.3-12.6
		c-3,2.7-27.9,44.7-36.7,60.1C72.4,94.2,155.6,65.5,160.7,63.7z"/>
	<g class="st12">
		<path class="st13" d="M152.2,62.7c5.2-1.9,6.8-3.8,5.9-5c0.2,0.3,0.5,0.6,0.7,0.9c-1.1-1.5-2.4-2.9-3.9-4.1
			c-20.3-16.4-64.9-14-68.1-11.1c-2.6,2.3-24.6,39.4-32.3,53C74.3,89.6,147.8,64.3,152.2,62.7z"/>
		<path class="st13" d="M129.2,56.2c3.3-1.2,4.4-2.5,3.8-3.2l0.4,0.6c-0.7-1-1.6-1.9-2.5-2.6c-13-10.5-41.6-9-43.7-7.1
			c-1.7,1.5-15.8,25.3-20.7,34C79.3,73.4,126.3,57.2,129.2,56.2z"/>
		<path class="st13" d="M113,52c2-0.7,2.7-1.5,2.3-1.9c0.1,0.1,0.2,0.2,0.3,0.3c-0.4-0.6-0.9-1.1-1.5-1.6
			c-7.9-6.4-25.3-5.5-26.5-4.3c-1,0.9-9.6,15.4-12.6,20.7C82.7,62.5,111.3,52.6,113,52z"/>
	</g>
	<path class="st14" d="M166.1,134c0,0-4.7,14.2-26.3,18.3s-22.1,9.3-37.8,10.7s-40.2,7-44.5,10.2s-6.4,0.6-9.5,0l0,0
		c0.5,2.8,0.8,4.2,0.8,4.2c115-24.6,112.4-27,116.1-38.8C165.4,137.2,165.7,135.6,166.1,134L166.1,134z"/>
	<path class="st15" d="M166.4,132.2c0.1-0.9,0.3-1.8,0.4-2.8c-7.6,12.3-36.5,18.2-44.5,21.8s-11.2-5.1-18.3,2.4
		c-5.3,5.5-21.9,10-30.5,12.1C107.3,158,162.8,143.7,166.4,132.2z"/>
	<path class="st15" d="M163.9,92.6c0,1.2-1,2.2-2.2,2.2c-1.2,0-2.2-1-2.2-2.2c0-1.2,1-2.2,2.2-2.2c0,0,0,0,0,0
		C162.9,90.4,163.9,91.4,163.9,92.6z"/>
	<path class="st15" d="M154.6,97.3c0,0.4-0.3,0.8-0.8,0.8c-0.4,0-0.8-0.3-0.8-0.8c0-0.4,0.3-0.8,0.8-0.8c0,0,0,0,0,0
		C154.3,96.5,154.6,96.8,154.6,97.3z"/>
	<path class="st15" d="M150.5,100.8c0,1.5-1.3,2.8-2.8,2.8c-1.5,0-2.8-1.3-2.8-2.8c0-1.5,1.3-2.8,2.8-2.8
		C149.2,98,150.5,99.2,150.5,100.8C150.5,100.8,150.5,100.8,150.5,100.8z"/>
	<path class="st15" d="M144.3,97.8c0,0.3-0.3,0.6-0.6,0.6l0,0c-0.3,0-0.6-0.2-0.6-0.5c0,0,0,0,0,0c0-0.3,0.3-0.6,0.6-0.6l0,0
		C144.1,97.3,144.3,97.5,144.3,97.8z"/>
	<path class="st15" d="M107.4,99.7c0,0.7-0.6,1.3-1.3,1.3s-1.3-0.6-1.3-1.3s0.6-1.3,1.3-1.3h0C106.8,98.4,107.4,99,107.4,99.7z"/>
	<path class="st15" d="M126,100.8c-1.5,0-2.8,1.2-2.9,2.8c1.8,0.2,3.8,0.4,5.7,0.6c0-0.2,0-0.3,0.1-0.5
		C128.9,102.1,127.6,100.8,126,100.8C126,100.8,126,100.8,126,100.8z"/>
	<path class="st15" d="M124.2,99.6c0,0.3-0.2,0.6-0.5,0.6s-0.6-0.2-0.6-0.5c0-0.1,0-0.1,0-0.2c0-0.3,0.2-0.6,0.5-0.6
		s0.6,0.2,0.6,0.5C124.2,99.5,124.2,99.6,124.2,99.6z"/>
	<path class="st15" d="M109,143.7c1.7,0,3.1-1.4,3.1-3.1c0-1.7-1.4-3.1-3.1-3.1c0,0,0,0,0,0h-0.4c-0.6,0.8-1.1,1.6-1.6,2.4
		c-0.3,0.5-0.6,1-1,1.5C106.5,142.8,107.7,143.6,109,143.7z"/>
	<path class="st15" d="M120.2,135c0,0.5-0.4,0.9-1,0.9c-0.5,0-0.9-0.4-0.9-1c0-0.5,0.4-0.9,0.9-0.9C119.7,134,120.1,134.4,120.2,135
		C120.2,135,120.2,135,120.2,135z"/>
	<path class="st15" d="M118.3,139.4c0,0.3-0.3,0.6-0.6,0.6l0,0c-0.3,0-0.6-0.3-0.6-0.6s0.3-0.6,0.6-0.6l0,0
		C118,138.8,118.3,139.1,118.3,139.4L118.3,139.4z"/>
	<path class="st15" d="M127.1,128.3c-1.6,0-2.9,1.3-2.9,2.8c0,0.8,0.3,1.5,0.9,2c1.2-1.4,2.7-2.7,4.3-3.8
		C128.8,128.7,128,128.3,127.1,128.3z"/>
	<path class="st15" d="M88.4,160.4c2.2,0.1,4.1-1.7,4.1-3.9c0-1.2-0.5-2.4-1.4-3.2c-2.2,1.2-4.5,2.3-6.7,3.3
		C84.6,158.8,86.3,160.5,88.4,160.4z"/>
	<path class="st15" d="M117.8,147.1c0,1-0.8,1.8-1.9,1.8s-1.8-0.8-1.8-1.9c0-1,0.8-1.8,1.8-1.8S117.8,146,117.8,147.1L117.8,147.1z"
		/>
	<path class="st15" d="M63.6,129.2c0,0.5-0.4,0.8-0.9,0.8s-0.8-0.4-0.8-0.9c0-0.5,0.4-0.8,0.9-0.8S63.6,128.7,63.6,129.2L63.6,129.2
		z"/>
	<path class="st15" d="M79.1,130.1c-2.3-0.1-4.6-0.3-6.8-0.7c0,0.1,0,0.2,0,0.3c0,1.9,1.5,3.5,3.4,3.5
		C77.4,133.3,79,131.9,79.1,130.1L79.1,130.1z"/>
	<path class="st15" d="M57.1,130.4c0-1.1-0.9-2.1-2.1-2.1c-1.1,0-2.1,0.9-2.1,2.1c0,0.5,0.2,1.1,0.6,1.4c1.1-0.3,2.2-0.5,3.3-0.6
		C57,131,57.1,130.7,57.1,130.4z"/>
	<path class="st15" d="M148.9,75.4c-1.3,0-2.3,1-2.3,2.3c0,0.3,0.1,0.5,0.1,0.8c1.6-0.3,3.1-0.6,4.5-0.8
		C151.2,76.5,150.2,75.4,148.9,75.4z"/>
	<path class="st15" d="M123.7,82.6c0.1,0.7-0.5,1.4-1.2,1.4s-1.4-0.5-1.4-1.2c0-0.1,0-0.2,0-0.2c0.1-0.7,0.7-1.3,1.4-1.2
		C123.1,81.5,123.6,82,123.7,82.6z"/>
	<path class="st15" d="M126.8,80.8c0,0.3-0.2,0.5-0.5,0.5c-0.3,0-0.5-0.2-0.5-0.5c0-0.3,0.2-0.5,0.5-0.5
		C126.5,80.3,126.8,80.5,126.8,80.8z"/>
	<path class="st15" d="M151.2,73.7c0,0.6-0.5,1.2-1.2,1.2s-1.2-0.5-1.2-1.2c0-0.6,0.5-1.2,1.2-1.2C150.7,72.5,151.2,73,151.2,73.7
		C151.2,73.7,151.2,73.7,151.2,73.7z"/>
	<path class="st15" d="M155.4,74.5c0,0.4-0.3,0.8-0.8,0.8c-0.4,0-0.8-0.3-0.8-0.8c0-0.4,0.3-0.8,0.8-0.8l0,0
		C155.1,73.7,155.4,74,155.4,74.5z"/>
	<path class="st15" d="M140.1,101.1c0,1.2-0.9,2.1-2.1,2.1c-1.2,0-2.1-0.9-2.1-2.1c0-1.2,0.9-2.1,2.1-2.1c0,0,0,0,0,0
		C139.1,99.1,140.1,100,140.1,101.1z"/>
	<path class="st15" d="M122.4,129.5c0,0.6-0.5,1.2-1.1,1.2c-0.6,0-1.2-0.5-1.2-1.1s0.5-1.2,1.1-1.2c0,0,0,0,0,0
		C121.9,128.3,122.4,128.8,122.4,129.5C122.4,129.5,122.4,129.5,122.4,129.5z"/>
	<path class="st15" d="M76.7,162.5c0,0.5-0.4,0.9-0.9,0.9s-0.9-0.4-0.9-0.9s0.4-0.9,0.9-0.9S76.7,162,76.7,162.5z"/>
	<circle class="st15" cx="83.6" cy="131.5" r="0.8"/>
	<path class="st15" d="M94.2,103.3c0,0.5-0.4,0.8-0.8,0.8c-0.5,0-0.8-0.4-0.8-0.8c0-0.5,0.4-0.8,0.8-0.8l0,0
		C93.8,102.5,94.2,102.8,94.2,103.3z"/>
	<path class="st15" d="M90.4,108.9c-0.4-1.2-1.3-2.1-2.5-2.5c-1.4,1.6-3.1,2.9-5,3.7c0,0.8,0.3,1.6,0.8,2.3
		C86.2,111.8,88.5,110.6,90.4,108.9z"/>
	<path class="st15" d="M167.6,110.1c0,0.8-0.6,1.4-1.4,1.4c-0.8,0-1.4-0.6-1.4-1.4s0.6-1.4,1.4-1.4c0,0,0,0,0,0
		C166.9,108.7,167.6,109.3,167.6,110.1C167.6,110.1,167.6,110.1,167.6,110.1z"/>
	<path class="st15" d="M166.9,122c0-1.8-1.3-3.2-3.1-3.4c-0.1,2.6-0.2,4.9-0.4,6.9l0,0C165.3,125.5,166.9,123.9,166.9,122
		C166.9,122,166.9,122,166.9,122z"/>
	<path class="st10" d="M163.9,145.2c1.9-1.9,3.6-4,5-6.4c2.1-3.6,8.8-46.5,4.5-63.6s-9.2-4.6-6.5,6.1S171.8,129,163.9,145.2z"/>
</g>
</svg>
