<svg xmlns="http://www.w3.org/2000/svg" xmlns:xlink="http://www.w3.org/1999/xlink" viewBox="0 0 225 225">
  <defs>
    <style>
      .cls-1, .cls-5 {
        isolation: isolate;
      }

      .cls-2 {
        fill: #e5a1a6;
      }

      .cls-3 {
        opacity: 0.4;
      }

      .cls-4 {
        fill: #d87c9d;
      }

      .cls-5 {
        font-size: 15.68px;
        font-family: Oswald-Regular, Oswald;
        letter-spacing: -0.03em;
      }

      .cls-12, .cls-5 {
        fill: #fff;
      }

      .cls-6 {
        fill: #ededed;
      }

      .cls-7 {
        fill: #b3332d;
      }

      .cls-8 {
        fill: #5e1412;
      }

      .cls-17, .cls-9 {
        mix-blend-mode: multiply;
      }

      .cls-10 {
        fill: #c6c6c6;
      }

      .cls-11, .cls-17 {
        opacity: 0.5;
      }

      .cls-12 {
        opacity: 0.15;
      }

      .cls-13 {
        fill: #ce4038;
      }

      .cls-14 {
        fill: #8e591f;
        opacity: 0.8;
      }

      .cls-15 {
        fill: url(#linear-gradient);
      }

      .cls-16 {
        fill: url(#linear-gradient-2);
      }

      .cls-17 {
        fill: #c2bfb8;
      }

      .cls-18 {
        fill: url(#linear-gradient-3);
      }

      .cls-19 {
        fill: url(#linear-gradient-4);
      }

      .cls-20 {
        fill: url(#linear-gradient-5);
      }

      .cls-21 {
        fill: url(#linear-gradient-6);
      }

      .cls-22 {
        fill: url(#linear-gradient-7);
      }

      .cls-23 {
        fill: url(#linear-gradient-8);
      }

      .cls-24 {
        fill: url(#linear-gradient-9);
      }

      .cls-25 {
        fill: url(#linear-gradient-10);
      }

      .cls-26 {
        fill: url(#linear-gradient-11);
      }

      .cls-27 {
        fill: url(#linear-gradient-12);
      }

      .cls-28 {
        fill: url(#linear-gradient-13);
      }

      .cls-29 {
        fill: url(#linear-gradient-14);
      }

      .cls-30 {
        fill: url(#linear-gradient-15);
      }

      .cls-31 {
        fill: url(#linear-gradient-16);
      }

      .cls-32 {
        fill: #4a231b;
      }

      .cls-33 {
        fill: #552821;
      }

      .cls-34 {
        fill: #602c28;
      }

      .cls-35 {
        fill: #703a39;
      }
    </style>
    <linearGradient id="linear-gradient" x1="135.74" y1="179.71" x2="127.5" y2="152.86" gradientUnits="userSpaceOnUse">
      <stop offset="0" stop-color="#fff" stop-opacity="0.8"/>
      <stop offset="1" stop-color="#fff" stop-opacity="0"/>
    </linearGradient>
    <linearGradient id="linear-gradient-2" x1="84.7" y1="88.58" x2="123.48" y2="49.67" xlink:href="#linear-gradient"/>
    <linearGradient id="linear-gradient-3" x1="116.84" y1="119.43" x2="133.57" y2="118.05" xlink:href="#linear-gradient"/>
    <linearGradient id="linear-gradient-4" x1="77.73" y1="130.75" x2="92.12" y2="129.47" xlink:href="#linear-gradient"/>
    <linearGradient id="linear-gradient-5" x1="130.5" y1="167.34" x2="156.2" y2="165.13" xlink:href="#linear-gradient"/>
    <linearGradient id="linear-gradient-6" x1="83.76" y1="67.63" x2="93.78" y2="59.9" xlink:href="#linear-gradient"/>
    <linearGradient id="linear-gradient-7" x1="112.21" y1="174.06" x2="130.36" y2="165.36" xlink:href="#linear-gradient"/>
    <linearGradient id="linear-gradient-8" x1="93.36" y1="184.77" x2="89.77" y2="166.63" xlink:href="#linear-gradient"/>
    <linearGradient id="linear-gradient-9" x1="78.15" y1="177.52" x2="98.18" y2="175.04" xlink:href="#linear-gradient"/>
    <linearGradient id="linear-gradient-10" x1="89.44" y1="169.08" x2="95.88" y2="168.28" gradientTransform="translate(15.46 1.35) rotate(2.74)" xlink:href="#linear-gradient"/>
    <linearGradient id="linear-gradient-11" x1="5.67" y1="89.09" x2="119.42" y2="79.67" xlink:href="#linear-gradient"/>
    <linearGradient id="linear-gradient-12" x1="117.06" y1="66.35" x2="144.03" y2="64.12" xlink:href="#linear-gradient"/>
    <linearGradient id="linear-gradient-13" x1="47.22" y1="87.46" x2="82.28" y2="84.55" xlink:href="#linear-gradient"/>
    <linearGradient id="linear-gradient-14" x1="81.91" y1="85.6" x2="95.5" y2="84.48" xlink:href="#linear-gradient"/>
    <linearGradient id="linear-gradient-15" x1="173.26" y1="58.25" x2="124.67" y2="54.84" gradientUnits="userSpaceOnUse">
      <stop offset="0" stop-color="#de5b58" stop-opacity="0.8"/>
      <stop offset="0.99" stop-color="#de5b58" stop-opacity="0"/>
    </linearGradient>
    <linearGradient id="linear-gradient-16" x1="54.15" y1="97.65" x2="64.8" y2="92.53" xlink:href="#linear-gradient-15"/>
  </defs>
  <title>CAKE2</title>
  <g class="cls-1">
    <g id="圖層_2" data-name="圖層 2">
      <g id="圖層_1-2" data-name="圖層 1">
        <rect class="cls-2" width="225" height="225"/>
        <g class="cls-3">
          <rect class="cls-4" y="180.5" width="225" height="44.5"/>
        </g>
        <text class="cls-5" transform="translate(90.76 208.67)">POPULAR</text>
        <text class="cls-1"/>        <g>
          <path class="cls-6" d="M49.4,178.52s101.81-13.73,120.74-29.85-6.2-22.1-6.2-22.1Z"/>
          <path class="cls-7" d="M164.26,55.49c-23-18.61-73.32-12-77-8.76-3.19,2.88-37.2,56.82-37.2,56.82s-.64,4.75-.69,5.07c-.11.74,8.07,4.49,19.9,9.5l-22,7c-.19,2.12-.36,4.19-.49,6.21l30.57-9.85c12,5,26.1,10.67,39,15.8L46.86,159.6c.14,2.13.32,4.1.51,5.89l77.28-24.89c16.75,6.65,29.65,11.67,29.65,11.67s14.34-4.86,16.16-11.79S187.24,74.09,164.26,55.49Z"/>
          <path class="cls-8" d="M49.4,178.49c115-24.55,112.38-27,116.07-38.76a74.38,74.38,0,0,0,2.44-13.06L47.37,165.49A104.6,104.6,0,0,0,49.4,178.49Z"/>
          <path class="cls-8" d="M167,86.83c-1.86-9-5.21-15.35-10.61-15.3-11.55.1-107,37.09-107,37.09-.93,5.82-1.59,11.33-2.06,16.54L167,86.83Z"/>
          <path class="cls-8" d="M167.89,92.38h0l-121,39a210.46,210.46,0,0,0,0,28.23l121.6-39A147.85,147.85,0,0,0,167.89,92.38Z"/>
          <g class="cls-9">
            <path class="cls-10" d="M158.4,108c-2.13,0-3,1.56-6.11,3s-3.41.56-6.54,1.84-6.53,1.85-10.08,3.7A67.29,67.29,0,0,1,125,120.43c-1,.25-6,1.31-9.8,2.31s-4.55,2-7.36,3.23-10.12,3.16-14.24,4-4.12,1.28-7.17,2.13-5.47,2.28-9.31,3.31-4.12-.18-7.24,1.24-4.26,3-6.54,3.84-6.1,1.27-9.8,2.37c-2.37.7-4.92,1.69-7.16,2.58,0,1.71,0,3.38,0,5,1.3-.72.68-1.53,1.57-2.17,1.28-.92,5.54-2.2,9.84-2.27s6.07-1.21,7.92-3.94,5.54-1,10.29-2a24.77,24.77,0,0,0,8.76-3.52c2.56-1.42,5.38-1.56,8.08-3.26A31.63,31.63,0,0,1,104,129.41a49.38,49.38,0,0,0,8.41-1.7c4.54-1.28,2.27,1.28,7.24-.43s4.26-2.13,5.54-3.84,3.84-2.41,8.95-3,20.32-7.07,24.16-8.21,5.54-.85,6.25-2.27S160.53,108,158.4,108Z"/>
            <path class="cls-10" d="M65.94,170.11c3.87-.84,4.62-1.81,7.48-2.94s10.23-2.76,14.38-3.45,4.17-1.11,7.26-1.84,5.55-2.06,9.42-2.93,4.11.34,7.29-1,4.38-2.81,6.69-3.57,6.15-1,9.89-2,7.92-2.58,10.65-3.48,3.35-1.84,4.05,2,8.17-.12,2.33-8.58c-2.42-3.51-1.19,1.37-6.48,2s-3.49,2-4.8,2.87-5.63,2-9.92,1.87-6.12,1-8.08,3.63-5.57.75-10.35,1.59a24.61,24.61,0,0,0-8.9,3.17c-2.62,1.32-5.44,1.34-8.21,2.94a31.81,31.81,0,0,1-11.2,3.39A49.25,49.25,0,0,0,69,165.25c-4.59,1.1-2.22-1.37-7.25.14s-4.35,2-5.69,3.62-3.53,2.15-7.9,2.55c.15,1,.29,1.88.42,2.66a77,77,0,0,1,7.5-2.19C57.05,171.82,62.07,171,65.94,170.11Z"/>
            <path class="cls-10" d="M48.06,118.34a24.29,24.29,0,0,1,2.58-.18c4.3-.06,6.08-1.22,7.92-3.94s5.54-1,10.29-2a24.61,24.61,0,0,0,8.76-3.52c2.56-1.43,5.39-1.56,8.09-3.26a31.63,31.63,0,0,1,11.06-3.84,49.47,49.47,0,0,0,8.4-1.7c4.55-1.28,2.27,1.28,7.25-.43s4.26-2.13,5.54-3.84,3.83-2.41,9-3,20.31-7.07,24.15-8.21,5.54-.85,6.25-2.27-4-2-6.11-2-3,1.56-6.11,3-3.41.57-6.53,1.85-6.54,1.85-10.09,3.7a67.64,67.64,0,0,1-10.65,3.94c-1,.24-6,1.31-9.81,2.3s-4.54,2-7.36,3.24-10.11,3.16-14.23,4-4.12,1.28-7.18,2.13-5.47,2.27-9.3,3.3-4.12-.17-7.25,1.25-4.26,3-6.53,3.83c-1.82.69-4.65,1.1-7.6,1.8C48.37,115.78,48.21,117.07,48.06,118.34Z"/>
          </g>
          <g class="cls-9">
            <path class="cls-10" d="M160.58,86.83a7.65,7.65,0,0,0-5.25,2.37c-1.57,1.67-8.1,2.74-13.6,3.18s-4.3,2.68-7.18,4.1-8.51,2.57-13,3.84-4.83.85-8.35,1.27-12.68,4.15-14.66,5S94,109,89.15,109.1s-5.71,1.73-5.71,1.73l-4.54,1.85c-4.55,1.85-14.64,5.11-16.49,5.86s-9.66,3.23-11.5,3.8a29.77,29.77,0,0,0-3.43,1.35c0,.48-.1,1-.14,1.47-.09,1-.17,2-.25,2.94,1.46-.8,3.24-2,5.25-2.94,4.71-2.31,6.52-1.82,10.82-3.1s17.58-6.4,19.29-7.25a18.08,18.08,0,0,1,9.3-2.27c4.44.19,25.65-8.24,28.06-9s4.4-2.66,7.76-2,5.93-.24,10-3.25,21.84-7.68,23.8-8.53,4.57-.85,6.48-2.23-2.19-10.13-3.47-12.68-7.53-5.55-8.95-4.59-6.11,1.17-10.94,2-7.53,1.71-10,3.41-17.44,6.68-22.13,7.2-11.36,4.59-15.48,6.26-3.7,2-6.37,2.6-11.82,2.7-13.24,3.59-4.32,4.22-8.52,4.5-8,1.85-9.66,3.66c-1.55,1.65-8.31,3.26-9.54,3.54-.11.78-.19,1.42-.21,1.53s0,.37-.08.55a61.3,61.3,0,0,0,7.84-.07c5.82-.32,4.12-3.24,6-4.23s5.65-2,9.2-3.28,5.68-1.13,7.25-3.25,14.34-4.7,17.47-6,5.68-.87,10.29-2.43,7.61-4,11.45-5,3.69.74,7.93-.9,5.42-3.9,7.8-5.18,12.25-2.13,14-3.27,6.67-1.42,10.51-1.7,3.41,7.95,5.26,10.37S162.72,86.54,160.58,86.83Z"/>
            <path class="cls-10" d="M168.46,131.37a3.87,3.87,0,0,0-.05-2c.44-.3.61-1,.46-2.72-.38-4.34-.71-2.44-2.42-1.51a5.73,5.73,0,0,1-4.87.83c-2.41-.47-5.26,2.18-8.1,3.48s-4.55,1.82-7.57,3.1-7.35,1.42-10.33,2.13S122.94,140,120.09,141s-3.69.71-4.61,1.58-11.15,2.83-16,4.25-3.3,1.13-5.47,2.55a21.62,21.62,0,0,1-10.71,3.25c-5,.28-3.6.45-8.29,2.1s-6.11,2.47-10.5,3.46-2.86,1.42-8.25,3.13-6.11,2.41-7.68,3.41a1.82,1.82,0,0,1-1.33.14c0,.22.05.45.07.67.08.81.17,1.58.26,2.32.41-.1.83-.1,1.15-.15.85-.14,7.24-1.56,9.23-3.41s9.95-4.4,11.51-4.65,3.69.67,7.81-1,4.73-2.91,7.11-3.89,4.68.91,7.64-.54,4-2,9-4.52,14.94-4.12,17.36-5.21a8.94,8.94,0,0,1,7.39,0c2.7,1,5.82-3,8.24-5.45s9.8-2.7,14.91-2.84,6.54-1.56,8.67-3.09,4.26-3.16,7.1-3.56l.32,0a22.37,22.37,0,0,1-1.74,5.4c-1.56,2.56,0,4.69-1.7,8.67s-3.7,3.13-9.8,7.67-11.8,2.7-18.76,3.5-8.81,2.33-14.77,6-16.91,4.26-23.44,4.05-11.8,2.63-17,5.35-9.38,3.24-13.64,3.89-6.74.51-13.5,2.9a9.46,9.46,0,0,1-1.49.41c.17.78.27,1.19.27,1.19,65.46-14,92.8-20.77,104.9-26.22h0a50.6,50.6,0,0,0,9.61-4.6C166.5,142.58,168.08,133.32,168.46,131.37Z"/>
            <path class="cls-10" d="M170.33,102.59c-.16-.92-2.21-1.7-.44-3.33s2.35-6.71-1-7.39a16.79,16.79,0,0,0-5.16-.78c-2.13,0-3,1.56-6.11,3s-3.41.57-6.53,1.85-6.54,1.84-10.09,3.69a67.29,67.29,0,0,1-10.66,3.94c-1,.25-6,1.32-9.8,2.31s-4.55,2-7.36,3.24a101.21,101.21,0,0,1-14.23,4c-4.12.85-4.12,1.27-7.18,2.13s-5.47,2.27-9.3,3.3-4.12-.18-7.25,1.24-4.26,3-6.53,3.84-6.11,1.28-9.81,2.37-7.81,2.89-10.51,3.9c-.57.22-1,.42-1.43.59,0,.29-.05.59-.07.89-.08,1.25-.14,2.48-.2,3.69a6.31,6.31,0,0,1,2-.64c5.26-.86,3.41-2.13,4.69-3s5.54-2.21,9.84-2.27,6.07-1.22,7.92-3.94,5.54-1,10.29-2a24.77,24.77,0,0,0,8.76-3.52c2.56-1.43,5.39-1.56,8.09-3.27a31.77,31.77,0,0,1,11-3.83,49.45,49.45,0,0,0,8.41-1.71c4.54-1.27,2.27,1.28,7.24-.42s4.27-2.13,5.54-3.85,3.84-2.4,9-3c5-.58,19.39-6.68,23.76-8.08,0,0,3.56-.33,3.79,1.23a37.84,37.84,0,0,1-1,8.31,19.51,19.51,0,0,0-1.49,4.09,5.3,5.3,0,0,0,1.07,2.44c.28.36,1.61,3,1.41,3.77s-2.86,2.94-4.84,4.15c-1.22.54-2.29,1.63-4.53,2.65-3.12,1.42-3.41.56-6.53,1.84s-6.54,1.85-10.09,3.7a67.29,67.29,0,0,1-10.66,3.94c-1,.25-6,1.31-9.8,2.31s-4.55,2-7.36,3.23-10.11,3.16-14.23,4-4.12,1.28-7.18,2.13-5.47,2.28-9.3,3.31-4.12-.18-7.25,1.24-4.26,3-6.53,3.84-6.11,1.27-9.81,2.37-7.81,2.88-10.51,3.9c-.63.24-1.13.46-1.56.63,0,.35,0,.71.07,1,.08,1.14.16,2.23.26,3.27a7,7,0,0,1,1.51-.42c5.26-.85,3.41-2.13,4.69-3s5.54-2.2,9.84-2.26,6.07-1.22,7.92-3.95,5.54-1,10.29-2a24.77,24.77,0,0,0,8.76-3.52c2.56-1.42,5.39-1.56,8.09-3.26a31.77,31.77,0,0,1,11-3.84,49.38,49.38,0,0,0,8.41-1.7c4.54-1.28,2.27,1.28,7.24-.43s4.27-2.13,5.54-3.84,3.84-2.41,9-3,20.31-7.07,24.15-8.21,5.54-.85,6.25-2.27a.58.58,0,0,0,.06-.33,5.68,5.68,0,0,0,.44-2.7,65.68,65.68,0,0,1,0-9.94A20.49,20.49,0,0,0,170.33,102.59Z"/>
          </g>
          <g class="cls-11">
            <path class="cls-12" d="M140.83,117.51c-3.45-19-18.12-27.19-35.32-29.93-27.69,10-56.11,21-56.11,21-.92,5.76-1.58,11.22-2,16.39a202.25,202.25,0,0,0,.55,45c.75,5.52,1.5,8.51,1.5,8.51,40.85-8.72,66.85-14.65,83.58-19.2C139.76,146.87,143.59,132.71,140.83,117.51Z"/>
            <path class="cls-12" d="M116.14,129c-3.31-26.75-37.71-31.37-37.72-31.37-16.51,6.19-29,11-29,11-.92,5.76-1.58,11.22-2,16.39a202.25,202.25,0,0,0,.55,45c.75,5.52,1.5,8.51,1.5,8.51,12.78-2.73,24.1-5.18,34.15-7.41C83.55,171.08,119.45,155.69,116.14,129Z"/>
            <path class="cls-12" d="M87.72,132.84c-1.68-20.69-33-26.28-33-26.28h0l-5.34,2.06c-.92,5.76-1.58,11.22-2,16.39a202.25,202.25,0,0,0,.55,45c.75,5.52,1.5,8.51,1.5,8.51C78.15,164.8,89.4,153.53,87.72,132.84Z"/>
          </g>
          <path class="cls-13" d="M164.26,55.49c-23-18.61-73.32-12-77-8.76-3,2.71-28.83,41.94-37.2,56.82L168.46,59.86A25.22,25.22,0,0,0,164.26,55.49Z"/>
          <path class="cls-14" d="M87.7,53c-9.87,13.78-1,17.71,7.76,15.15s26.62-1.61,21.88,4.86c-7.64,10.41,4.83,4,6.47,6.82,3.47,4.23,2,54.56,3.83,77.35.21,2.72-7.92,4.62-10.37,6.43a4.24,4.24,0,0,0,0,6.76c3,2.7,6.32-1.35,11.93,1s14,0,16.3-2.38c4.16-4.26,2-12.36-4.94-11.43s-9.95-.86-10.12-3.49c-1.11-16.83.56-68.88-2.94-76.61-1.63-3.58,8.62-5.74,11.43-10.15,2.63-4.12-.85-11.37-9.37-11.65s-14.6.31-16.48-4C109.27,43,96.41,40.85,87.7,53Z"/>
          <path class="cls-14" d="M63.4,87.74s-1.58-5,3.29-6.62,5.4-3.69,6.19-5.4,7.5-5.26,13.29,1.32,8.55,5.13,8.29,8.68S89.59,89,89.59,92.44s1,67.71,3.29,72.63,9.83,3,10,7.19-4.39,6.32-7.72,7.55-6.38-1.58-12.14-1.23-3.71-4.39,0-5.79,4.42-2.46,3.89-9.13-1.75-67.14-1.75-69.07A3.93,3.93,0,0,0,81,90.38C77.79,90.38,66,93.36,63.4,87.74Z"/>
          <path class="cls-15" d="M129.9,157.15c2.08-.52,5.41,2.62,8.2,2.45,3.38-.2,8.21,0,7.78,4.26S139.59,173,131.07,170c-5.57-1.95-12.89,3.35-14.3-2.06-1.15-4.41,4.56-4.85,7.91-6.57C128.19,159.6,127.77,157.68,129.9,157.15Z"/>
          <path class="cls-16" d="M115.94,66.37c2.63,1,4.84,4.68,3,7.45-3.84,5.74.85,3.89,3.2,3.79s3,1.65,4.58-2.08,14.07-6,11.83-13.32S121.27,58.8,117,57.1s-7.73-6.08-9.37-7.36c-1.43-1.11-10-6.86-17.26,1.39-7.11,8-8.92,18.79,4,16.3C106.72,65.07,110.61,64.34,115.94,66.37Z"/>
          <path class="cls-17" d="M94.33,46.74c.43-.18,7.79-3.2,12.41-.48,4.77,2.81,4.83,6.61,7.46,8.1s7.12,2.15,12.93,2,9.39.8,12.29,5.71c-1.07-3.22-4.44-6.22-9.86-6.4-8.53-.29-14.6.31-16.48-4C110.16,45.06,101.94,42.24,94.33,46.74Z"/>
          <path class="cls-18" d="M126.35,84.41c.33,3.28,1.13,27.13,1.27,38.07s.43,27.38.71,30.1.79,1.33.64,0-.85-26.76-.85-30.17-.89-35.09-1.31-38S126.27,83.7,126.35,84.41Z"/>
          <path class="cls-19" d="M86.1,95.76c.33,3.28,1.14,27.14,1.28,38.08s.43,27.37.71,30.09.78,1.33.64,0-.85-26.76-.85-30.17-.89-35.09-1.32-38S86,95.05,86.1,95.76Z"/>
          <path class="cls-20" d="M139.56,169.9c1.5-.71,5.41-2.72,5.68-5.47s-.89-2.17-1.24,0-2.45,3.41-4.26,4.3S138,170.64,139.56,169.9Z"/>
          <path class="cls-21" d="M88.66,59.23c-.44,1.18-1.06,3.51.69,4.15s5-2.59,7.3-1.32,1.18,4.63-2.07,5-7.62.45-8.64-2.56.54-6,1.6-8.05S89.3,57.52,88.66,59.23Z"/>
          <path class="cls-22" d="M118.5,167.66c.17.69.74,2.52,6.21,1.21,3.55-.85,5-.5,6.33-.11s.92.91-.15.56-2.94-.55-6,.12-6,1.38-7.36-.89S118.25,166.67,118.5,167.66Z"/>
          <path class="cls-17" d="M140.56,157.56c-6.41.84-9.44-.6-10-2.88h0s.5,3.82,6.6,3.6,7.23-.09,8.77,1.76a6.48,6.48,0,0,1,.66,6.83,10.1,10.1,0,0,1-3.7,3.78A8.58,8.58,0,0,0,145.5,169C149.66,164.73,147.52,156.63,140.56,157.56Z"/>
          <path class="cls-23" d="M90.05,166.87c1.84-.44,3.62,3.18,6.71,3.28s5.38.81,4.77,3.57c-.55,2.46-4.18,4.76-8,5.11-2.89.27-6.87-2-10-1.33s-3.46-2.52-1-3.41C90.08,171.43,87.28,167.54,90.05,166.87Z"/>
          <path class="cls-24" d="M83.19,175.51c0,.4.36.78,2.63.53s4.55,1.35,5.79,1.6-.28.39-1.31,0-3.52-1.35-4.48-1.1-3.66,1.28-4.26-.32S83.12,174.73,83.19,175.51Z"/>
          <path class="cls-25" d="M100.92,172.07c.15.65.59,2.22-2.35,4.51,0,0-1.38,1,.25-.71s1.85-2.53,1.85-3.59S100.92,172.07,100.92,172.07Z"/>
          <path class="cls-26" d="M77.58,75a5.44,5.44,0,0,0-4.69,3.88c-.74,2.13-3.09,3.48-5.75,3.74s-3.84,5.85,1.49,6.7S82,88.1,84,89.59s3.24,1.35,5.72-.66,4.62-4.34,2.06-5.62a21.15,21.15,0,0,1-6.91-6C83.33,75.21,80.67,74.73,77.58,75Z"/>
          <path class="cls-27" d="M135.86,60.29c2,1.41,3.2,5.86-1.81,8.85s-1.38-.54,0-1.6,3.41-4.6,1.28-6.08S134.16,59.12,135.86,60.29Z"/>
          <path class="cls-28" d="M67.35,85.81c.14,1.48,1.33,3.09,5.92,2.56,0,0,2.35,0,0,.53s-7.3.68-7.84-3.09S68.9,84,70.55,82.3s3.14.53,1.86,1.81S67.14,83.52,67.35,85.81Z"/>
          <path class="cls-29" d="M90.51,83.17c.42.22,2.91,1.17,1.24,3s-1.31.53-.81-.43-1.5-.75-2-2S89.52,82.63,90.51,83.17Z"/>
          <path class="cls-17" d="M92.88,165.07c-2.28-4.92-3.29-69.21-3.29-72.63s4.61-3.16,4.87-6.72a6.58,6.58,0,0,0,0-.77,6.94,6.94,0,0,1-2.92,3.72c-2.34,1.49-3.1,2.49-2.72,7.74s.52,38.57,1.37,53.14.6,16.9,6,18.94,6.46,2.09,6.43,5.5a5.14,5.14,0,0,0,.22-1.73C102.71,168.05,95.16,170,92.88,165.07Z"/>
          <path class="cls-17" d="M89.34,179a11.24,11.24,0,0,0-6-.7,8.06,8.06,0,0,1-2.63,0,5.84,5.84,0,0,0,2.3.24c5.76-.35,8.81,2.45,12.14,1.23l.18-.07A12.08,12.08,0,0,1,89.34,179Z"/>
          <path class="cls-30" d="M131.49,45.62c2.78.17,23.27,2.63,28.81,10.13S149.08,61.13,144.53,65s2.27-7.4-4.55-9.28-22.84.39-25.43-7.14C113.16,44.54,127.2,45.37,131.49,45.62Z"/>
          <path class="cls-31" d="M60.21,89.2s-8.86,11.57-7.78,12.33,17.62-6,22.91-8.53c5.61-2.62-6.82-.62-10,.75C62.53,95,56.71,96.52,60.21,89.2Z"/>
          <g>
            <path class="cls-32" d="M132.79,50.92a4,4,0,0,1,1.76-.29,14.64,14.64,0,0,0,2.61-.69,3,3,0,1,0-4.37,1Z"/>
            <path class="cls-33" d="M134.27,45.61h0a2.4,2.4,0,0,0-.48.09h-.06a3.75,3.75,0,0,0-.43.16l-.05,0a3.18,3.18,0,0,0-.4.23l0,0a3.27,3.27,0,0,0-.67.67l0,0a1.9,1.9,0,0,0-.23.39l0,.06a2.73,2.73,0,0,0-.16.43s0,0,0,0a2.41,2.41,0,0,0-.08.48h0a2.52,2.52,0,0,0,2.3,2.37,3.88,3.88,0,0,1,.59,0,2.52,2.52,0,0,0-.23-5Z"/>
            <path class="cls-34" d="M133.87,45.68a2.94,2.94,0,0,0-2.2,2.19,1.77,1.77,0,0,0,3.46-.51A1.74,1.74,0,0,0,133.87,45.68Z"/>
            <circle class="cls-35" cx="132.56" cy="48.56" r="0.53"/>
          </g>
          <g>
            <path class="cls-32" d="M114.6,52.71a4,4,0,0,1,1.76-.3,13.67,13.67,0,0,0,2.61-.68,3,3,0,1,0-5.57-1.39A2.94,2.94,0,0,0,114.6,52.71Z"/>
            <path class="cls-33" d="M116.08,47.4h0a2,2,0,0,0-.48.09h0a3.16,3.16,0,0,0-.43.16l0,0a2.3,2.3,0,0,0-.4.23l0,0a3,3,0,0,0-.67.67l0,0a2.55,2.55,0,0,0-.24.39.08.08,0,0,1,0,.05,2.32,2.32,0,0,0-.16.44s0,0,0,0a3.41,3.41,0,0,0-.09.48h0a2.53,2.53,0,0,0,2.31,2.37,2.26,2.26,0,0,1,.58,0,2.52,2.52,0,0,0-.22-5Z"/>
            <path class="cls-34" d="M115.68,47.46a3,3,0,0,0-2.2,2.2,1.77,1.77,0,1,0,2.2-2.2Z"/>
            <path class="cls-35" d="M114.89,50.35a.53.53,0,1,1-.52-.53A.52.52,0,0,1,114.89,50.35Z"/>
          </g>
          <g>
            <path class="cls-32" d="M77.14,69.83a4,4,0,0,1,1.76-.3,13.67,13.67,0,0,0,2.61-.68,3,3,0,1,0-5.57-1.39A2.94,2.94,0,0,0,77.14,69.83Z"/>
            <path class="cls-33" d="M78.62,64.52h0a2.67,2.67,0,0,0-.48.08l0,0a3.16,3.16,0,0,0-.43.16l-.05,0a2.3,2.3,0,0,0-.4.23l0,0a3,3,0,0,0-.67.67l0,0a3.26,3.26,0,0,0-.24.4s0,0,0,0a2.5,2.5,0,0,0-.16.43s0,0,0,0a3.86,3.86,0,0,0-.09.49h0a2.52,2.52,0,0,0,2.3,2.37,2.35,2.35,0,0,1,.59,0,2.52,2.52,0,0,0-.22-5Z"/>
            <path class="cls-34" d="M78.21,64.58A3,3,0,0,0,76,66.78a1.77,1.77,0,1,0,2.19-2.2Z"/>
            <path class="cls-35" d="M77.43,67.46a.53.53,0,1,1-.52-.52A.52.52,0,0,1,77.43,67.46Z"/>
          </g>
          <g>
            <path class="cls-32" d="M61.4,95.89a4,4,0,0,1,1.76-.3,13.67,13.67,0,0,0,2.61-.68,3,3,0,1,0-5.57-1.39A2.94,2.94,0,0,0,61.4,95.89Z"/>
            <path class="cls-33" d="M62.88,90.57h0l-.48.09,0,0a2.23,2.23,0,0,0-.43.16l0,0a3.26,3.26,0,0,0-.4.24l0,0a3,3,0,0,0-.67.67l0,0a2.3,2.3,0,0,0-.23.4l0,0a2.23,2.23,0,0,0-.16.43s0,0,0,0a2.67,2.67,0,0,0-.08.48h0a2.52,2.52,0,0,0,2.3,2.37,2.26,2.26,0,0,1,.58,0,2.52,2.52,0,0,0-.22-5Z"/>
            <path class="cls-34" d="M62.48,90.64a3,3,0,0,0-2.2,2.19,1.77,1.77,0,1,0,2.2-2.19Z"/>
            <circle class="cls-35" cx="61.17" cy="93.52" r="0.53"/>
          </g>
          <g>
            <path class="cls-32" d="M105.23,70.07a4.41,4.41,0,0,1,1.92-.32c.67.08,1.78-.53,2.85-.75a3.23,3.23,0,1,0-4.77,1.07Z"/>
            <path class="cls-33" d="M106.84,64.27h0a3,3,0,0,0-.52.1h-.06a3.8,3.8,0,0,0-.47.18l-.06,0a3.7,3.7,0,0,0-.43.25l0,0a3.12,3.12,0,0,0-.72.73l0,0a2.58,2.58,0,0,0-.25.42l0,.07a3.27,3.27,0,0,0-.18.47v.05a3.1,3.1,0,0,0-.1.53h0a2.76,2.76,0,0,0,2.51,2.59,2.76,2.76,0,0,1,.64,0,2.76,2.76,0,0,0-.25-5.48Z"/>
            <path class="cls-34" d="M106.41,64.35a3.23,3.23,0,0,0-2.4,2.39,1.93,1.93,0,1,0,2.4-2.39Z"/>
            <path class="cls-35" d="M105.55,67.49a.57.57,0,0,1-.57.58.58.58,0,0,1,0-1.16A.57.57,0,0,1,105.55,67.49Z"/>
          </g>
          <g>
            <path class="cls-32" d="M96.1,80.88A4.39,4.39,0,0,1,98,80.56c.67.08,1.77-.53,2.85-.75a3.23,3.23,0,1,0-4.77,1.07Z"/>
            <path class="cls-33" d="M97.71,75.08h0a3,3,0,0,0-.52.1h-.06a3.8,3.8,0,0,0-.47.18l-.06,0a3.7,3.7,0,0,0-.43.25l0,0a3.12,3.12,0,0,0-.72.73l0,0a2.67,2.67,0,0,0-.25.43l0,.07a3.27,3.27,0,0,0-.18.47.43.43,0,0,0,0,0,3.1,3.1,0,0,0-.1.53h0a2.74,2.74,0,0,0,2.51,2.58,3.43,3.43,0,0,1,.64,0,2.76,2.76,0,0,0-.25-5.48Z"/>
            <path class="cls-34" d="M97.28,75.16a3.23,3.23,0,0,0-2.4,2.39,1.93,1.93,0,1,0,2.4-2.39Z"/>
            <path class="cls-35" d="M96.42,78.3a.57.57,0,0,1-.57.58.58.58,0,0,1,0-1.16A.57.57,0,0,1,96.42,78.3Z"/>
          </g>
          <g>
            <path class="cls-32" d="M143.36,58.65a4.44,4.44,0,0,1,1.92-.32c.67.08,1.78-.53,2.85-.75a3.23,3.23,0,1,0-4.77,1.07Z"/>
            <path class="cls-33" d="M145,52.85h0a3,3,0,0,0-.52.1h-.06a3.8,3.8,0,0,0-.47.18l-.06,0a3.7,3.7,0,0,0-.43.25l0,0a3.16,3.16,0,0,0-.73.73l0,0a2.3,2.3,0,0,0-.25.43l0,.06a3.27,3.27,0,0,0-.18.47v0a3.1,3.1,0,0,0-.1.53h0a2.76,2.76,0,0,0,2.51,2.59,2.76,2.76,0,0,1,.64,0,2.76,2.76,0,0,0-.24-5.48Z"/>
            <path class="cls-34" d="M144.54,52.93a3.24,3.24,0,0,0-2.4,2.39,1.93,1.93,0,1,0,2.4-2.39Z"/>
            <path class="cls-35" d="M143.69,56.07a.58.58,0,0,1-1.16,0,.58.58,0,0,1,1.16,0Z"/>
          </g>
        </g>
      </g>
    </g>
  </g>
</svg>
