<?xml version="1.0" encoding="utf-8"?>
<!-- Generator: Adobe Illustrator 23.1.0, SVG Export Plug-In . SVG Version: 6.00 Build 0)  -->
<svg version="1.1" id="圖層_1" xmlns="http://www.w3.org/2000/svg" xmlns:xlink="http://www.w3.org/1999/xlink" x="0px" y="0px"
	 viewBox="0 0 225.9 225.9" style="enable-background:new 0 0 225.9 225.9;" xml:space="preserve">
<style type="text/css">
	.st0{fill:#E0BAAA;}
	.st1{opacity:0.71;}
	.st2{fill:#DBB58D;}
	.st3{enable-background:new    ;}
	.st4{fill:#633E37;}
	.st5{fill:#A86725;}
	.st6{fill:#E2A66A;}
	.st7{fill:#D48D46;}
	.st8{fill:#FF5842;}
	.st9{fill:#FF6D59;}
	.st10{fill:#FF8A7A;}
	.st11{fill:#FAD850;}
	.st12{fill:#FAEE75;}
	.st13{fill:#FBF5B5;}
	.st14{fill:#FFE36D;}
	.st15{fill:#F1CE58;}
	.st16{fill:#98C04C;}
	.st17{fill:#9B7B93;}
	.st18{fill:#BF91B4;}
	.st19{fill:#DBCED8;}
	.st20{fill:#E0AAD3;}
	.st21{fill:#AB82A1;}
	.st22{fill:#CFAC00;}
	.st23{fill:#F1CD13;}
	.st24{fill:#F8F0D1;}
	.st25{fill:#F0DB51;}
	.st26{fill:#D1C753;}
	.st27{fill:#783723;}
	.st28{fill:#9B472D;}
	.st29{fill:#A16956;}
	.st30{fill:#C48E74;}
	.st31{fill:#C4A287;}
	.st32{fill:#B7DA6F;}
	.st33{fill:#89B543;}
	.st34{fill:#D3EE83;}
	.st35{fill:#E7F0CE;}
	.st36{fill:#FFD359;}
	.st37{fill:url(#SVGID_1_);}
	.st38{fill:#D47028;}
	.st39{fill:#B35E22;}
	.st40{fill:url(#SVGID_2_);}
	.st41{fill:#4A0014;}
	.st42{fill:#A31C20;}
	.st43{fill:#861319;}
	.st44{fill:#50090C;}
	.st45{fill:#C27F5D;}
	.st46{fill:#BB3E3C;}
	.st47{fill:#EFDBDD;}
	.st48{fill:#A91419;}
	.st49{fill:#8C0D13;}
	.st50{fill:#560509;}
	.st51{fill:#C87C56;}
	.st52{fill:#C13634;}
	.st53{fill:#F5D4D7;}
	.st54{fill:#B1151A;}
	.st55{fill:#940E14;}
	.st56{fill:#5E060A;}
	.st57{fill:#D09E85;}
	.st58{fill:#C93836;}
	.st59{fill:#DAB3B3;}
	.st60{fill:#D61920;}
	.st61{fill:#B91219;}
	.st62{fill:#83090E;}
	.st63{fill:#F5BA9D;}
	.st64{fill:#EE4240;}
	.st65{fill:#FFD2D1;}
	.st66{fill:#C4601D;}
	.st67{fill:#FFD6D4;}
	.st68{fill:#FFCFCC;}
	.st69{fill:#F04D54;}
	.st70{fill:#FF999D;}
	.st71{fill:#FF666C;}
	.st72{fill:#FFB5D5;}
	.st73{fill:#FFECEB;}
	.st74{fill:#F2273F;}
	.st75{fill:#DB9B81;}
	.st76{fill:#FFC661;}
	.st77{fill:url(#SVGID_3_);}
	.st78{fill:#C9653E;}
	.st79{fill:#A85231;}
	.st80{fill:url(#SVGID_4_);}
	.st81{fill:#F4E9CE;}
	.st82{fill:#C9714E;}
	.st83{fill:#FEB240;}
	.st84{fill:#D67A24;}
	.st85{fill:#FFD46B;}
	.st86{fill:#FEFF99;}
	.st87{fill:#F06267;}
	.st88{fill:#965B43;}
	.st89{fill:#A8A8A8;}
	.st90{fill:#3C3C3C;}
	.st91{fill:#30302E;}
	.st92{fill:#ED8A40;}
	.st93{fill:#FFB680;}
	.st94{fill:#606060;}
	.st95{fill:#FFFFFF;}
	.st96{fill:#D8D8D8;}
	.st97{fill:#5B9B31;}
	.st98{fill:#8DD35F;}
	.st99{fill:#A83800;}
	.st100{fill:#7D3722;}
	.st101{fill:#C94F67;}
	.st102{fill:#E05873;}
	.st103{fill:#FFD4DC;}
	.st104{fill:#FB7383;}
	.st105{fill:#DE92A0;}
	.st106{fill:#662C1E;}
	.st107{fill:#4D180B;}
	.st108{fill:#C47959;}
	.st109{fill:#FBB0B8;}
	.st110{fill:#FFD9DD;}
	.st111{fill:#FFF0F1;}
	.st112{fill:#CC8E74;}
	.st113{fill:#FFDFBF;}
	.st114{fill:#F4DCD0;}
	.st115{fill:#D9C3B9;}
</style>
<title>P1_1</title>
<rect class="st0" width="225.9" height="225.9"/>
<g class="st1">
	<rect y="181.2" class="st2" width="225.9" height="44.7"/>
</g>
<g class="st3">
	<path class="st4" d="M69.1,205.9l1.6-0.4c0.1,1.4,0.4,2.7,1.8,2.7c0.9,0,1.4-0.5,1.4-1.5c0-1.1-0.6-1.7-1.4-2.5l-2.1-1.9
		c-0.9-0.7-1.2-1.5-1.2-2.8c0-1.9,1.1-2.9,3-2.9c2,0,3,1.1,3.2,3.3l-1.5,0.4c-0.1-1.3-0.4-2.3-1.7-2.3c-0.9,0-1.4,0.5-1.4,1.4
		c0,0.8,0.2,1.2,0.8,1.7l2.2,1.9c1,0.8,1.8,2,1.8,3.6c0,1.9-1.3,3-3.1,3C70.3,209.6,69.3,208.1,69.1,205.9z"/>
	<path class="st4" d="M77.1,196.7h1.7v12.8h-1.7V196.7z"/>
	<path class="st4" d="M80.9,196.7h1.2l3.6,8.5v-8.5h1.5v12.8H86l-3.7-8.7v8.7h-1.5V196.7z"/>
	<path class="st4" d="M88.9,205.3V201c0-2.8,0.7-4.4,3.4-4.4c2.4,0,3.3,1.2,3.3,3.7v0.5H94v-0.4c0-1.7-0.2-2.4-1.6-2.4
		c-1.6,0-1.7,1.2-1.7,2.8v4.7c0,1.8,0.3,2.7,1.7,2.7c1.4,0,1.7-1,1.7-2.9v-0.9h-1.6v-1.3h3.2v6.3h-1.1l-0.2-1.5
		c-0.3,0.9-1,1.6-2.3,1.6C89.8,209.6,88.9,208.1,88.9,205.3z"/>
	<path class="st4" d="M97.6,196.7h1.8v11.5h3.3v1.3h-5V196.7z"/>
	<path class="st4" d="M103.8,196.7h4.9v1.3h-3.2v4.2h2.6v1.3h-2.6v4.7h3.2v1.3h-5V196.7z"/>
	<path class="st4" d="M113.9,196.7h3.2c2.3,0,3.1,1.3,3.1,3.5c0,2-1.1,3.3-3.1,3.3h-1.4v5.9h-1.8V196.7z M116.4,202.3
		c1.5,0,2-0.4,2-2c0-1.8-0.2-2.3-2-2.3h-0.8v4.3H116.4z"/>
	<path class="st4" d="M121.4,196.7h4.9v1.3h-3.2v4.2h2.6v1.3h-2.6v4.7h3.2v1.3h-5V196.7z"/>
	<path class="st4" d="M127.8,196.7h2.6c2.6,0,3.7,1,3.7,3.4c0,1.5-0.4,2.6-1.6,3l1.8,6.4h-1.7l-1.7-6h-1.4v6h-1.8V196.7z
		 M130.3,202.2c1.5,0,2.1-0.5,2.1-2.1c0-1.5-0.4-2.1-2-2.1h-0.8v4.2H130.3z"/>
	<path class="st4" d="M135.6,205.9l1.6-0.4c0.1,1.4,0.4,2.7,1.8,2.7c0.9,0,1.4-0.5,1.4-1.5c0-1.1-0.6-1.7-1.4-2.5l-2.1-1.9
		c-0.9-0.7-1.2-1.5-1.2-2.8c0-1.9,1.1-2.9,3-2.9c2,0,3,1.1,3.2,3.3l-1.5,0.4c-0.1-1.3-0.4-2.3-1.7-2.3c-0.9,0-1.4,0.5-1.4,1.4
		c0,0.8,0.2,1.2,0.8,1.7l2.2,1.9c1,0.8,1.8,2,1.8,3.6c0,1.9-1.3,3-3.1,3C136.8,209.6,135.7,208.1,135.6,205.9z"/>
	<path class="st4" d="M143.2,205.5v-4.8c0-2.5,0.9-4,3.5-4c2.6,0,3.5,1.5,3.5,4v4.8c0,2.5-0.9,4.1-3.5,4.1
		C144.1,209.6,143.2,208,143.2,205.5z M148.4,205.9v-5.6c0-1.4-0.3-2.3-1.7-2.3c-1.4,0-1.7,0.9-1.7,2.3v5.6c0,1.4,0.3,2.3,1.7,2.3
		C148.1,208.2,148.4,207.3,148.4,205.9z"/>
	<path class="st4" d="M151.9,196.7h1.2l3.6,8.5v-8.5h1.5v12.8h-1.1l-3.7-8.7v8.7h-1.5V196.7z"/>
</g>
<g>
	<g>
		<path class="st5" d="M85.5,78.4h-6.3v30.9l0,0c0,0.1,0,0.3,0,0.4c0,1.7,1.4,3.1,3.1,3.1c1.7,0,3.1-1.4,3.1-3.1c0-0.1,0-0.3,0-0.4
			l0,0V78.4z"/>
		<path class="st6" d="M84.6,78.4h-6.3v30.9l0,0c0,0.1,0,0.3,0,0.4c0,1.7,1.4,3.1,3.1,3.1c1.7,0,3.1-1.4,3.1-3.1c0-0.1,0-0.3,0-0.4
			l0,0L84.6,78.4z"/>
		<path class="st7" d="M78.4,81.1c1.4,0.6,3.2,1.7,3.1,3.6c-0.1,3,2,16.3,0.2,28.1c1.6-0.1,2.9-1.5,2.9-3.1c0-0.1,0-0.3,0-0.4l0,0
			V78.4h-6.3V81.1z"/>
	</g>
	<g>
		<path class="st8" d="M81.9,25.8L81.9,25.8c8.9,0,16.2,7.2,16.2,16.2v26.8c0,8.9-7.2,16.2-16.2,16.2l0,0c-8.9,0-16.2-7.2-16.2-16.2
			V42C65.7,33.1,73,25.8,81.9,25.8z"/>
		<path class="st9" d="M78.3,25.9c-7.1,0.5-12.5,6.4-12.5,13.5v32.2c0,7.1,5.5,12.9,12.5,13.4c7-0.5,12.5-6.4,12.5-13.4V39.3
			C90.8,32.2,85.3,26.4,78.3,25.9z"/>
		<path class="st10" d="M71.9,71.2V39c0-5.7,3.6-10.8,9-12.7c-0.8-0.2-1.7-0.4-2.6-0.4c-7.1,0.5-12.5,6.4-12.6,13.5v32.2
			c0,7.1,5.5,12.9,12.5,13.4c1.2-0.1,2.4-0.3,3.5-0.8C75.9,82.6,71.9,77.2,71.9,71.2z"/>
		<path class="st11" d="M98.1,71.5v-5.2c-7.4,3.1-8.5-6-22.1-7.8c-3.4-0.6-6.9-0.3-10.2,0.7v12.3c0,1.2,0.2,2.3,0.4,3.4
			c7.6-2.4,10.7,0,18.7,6.7c1.3,1.1,2.9,2,4.5,2.5C94.6,82.1,98.1,77.1,98.1,71.5z"/>
		<path class="st11" d="M98.1,39.4c-7.4,3.1-8.5-6-22.1-7.8c-2.6-0.4-5.3-0.4-7.9,0.1c-1.5,2.2-2.4,4.9-2.4,7.6v8.8
			c8-2.6,11-0.3,19.1,6.5c4.5,3.8,9.5,3.5,13.2,2.4V39.4z"/>
		<path class="st12" d="M84.8,54.7c1.7,1.4,3.7,2.4,5.9,2.9V39.3c0-0.3,0-0.7-0.1-1c-3.2-2.2-6.9-5.7-14.8-6.7
			c-2.6-0.4-5.3-0.4-7.8,0.1L68,31.9l-0.2,0.4c-0.1,0.2-0.3,0.4-0.4,0.6l-0.2,0.4c-0.1,0.3-0.3,0.6-0.4,0.8c0,0.1-0.1,0.1-0.1,0.2
			c-0.1,0.3-0.3,0.7-0.4,1.1c0,0.1-0.1,0.2-0.1,0.4s-0.1,0.5-0.2,0.8s0,0.3-0.1,0.4l-0.1,0.8c0,0.1,0,0.3,0,0.4
			c0,0.4-0.1,0.8-0.1,1.2v8.8C73.7,45.5,76.7,47.9,84.8,54.7z"/>
		<path class="st12" d="M65.8,72.9c0,0.4,0.1,0.8,0.2,1.1c0,0,0,0.1,0,0.1c0,0.3,0.1,0.5,0.2,0.7c7.6-2.4,10.7,0,18.7,6.7
			c0.2,0.2,0.5,0.4,0.7,0.5c3.3-2.5,5.2-6.5,5.2-10.6v-6.2c-3.2-2.2-6.9-5.7-14.8-6.8c-3.4-0.6-6.9-0.3-10.2,0.7v12.3
			c0,0.4,0,0.8,0.1,1.2L65.8,72.9z"/>
		<path class="st13" d="M65.8,72.9c0,0.2,0,0.3,0.1,0.4s0.1,0.5,0.1,0.7c0,0,0,0.1,0,0.1l0.1,0.3l0.1,0.5c1.9-0.7,4-1,6-0.9
			c-0.2-0.9-0.3-1.9-0.3-2.8v-13c-2.1,0-4.2,0.3-6.1,1v12.3c0,0.4,0,0.8,0.1,1.2L65.8,72.9z"/>
		<path class="st13" d="M71.9,47.1V39c0-2.7,0.8-5.3,2.3-7.6c-2-0.2-4.1-0.1-6.1,0.3L68,31.9l-0.2,0.4c-0.1,0.2-0.3,0.4-0.4,0.6
			s-0.1,0.2-0.2,0.4c-0.1,0.3-0.3,0.6-0.4,0.8c0,0.1-0.1,0.1-0.1,0.2c-0.1,0.2-0.2,0.4-0.2,0.6l-0.2,0.4c0,0.1-0.1,0.2-0.1,0.4
			s-0.1,0.5-0.2,0.8s0,0.3-0.1,0.4l-0.1,0.8c0,0.1,0,0.3,0,0.4l0,0c0,0.4-0.1,0.8-0.1,1.2v8.8C67.7,47.4,69.8,47.1,71.9,47.1z"/>
	</g>
</g>
<g>
	<path class="st14" d="M174.5,146.9c-21.9,1.4-43.9,1.4-65.8,0c-1.7-9.6-2.6-19.4-2.7-29.2h71.3L174.5,146.9z"/>
	<path class="st15" d="M175.2,138.9l1.8-19.1h-71c0.2,6.4,0.6,12.8,1.4,19.1H175.2z"/>
	<path class="st16" d="M175.4,136.9l1.8-19.1h-71.3c0.1,6.4,0.5,12.8,1.3,19.1H175.4z"/>
	<path class="st17" d="M106.3,126.3h70.1l0.8-8.6h-71.3C105.9,120.6,106.1,123.5,106.3,126.3z"/>
	<path class="st18" d="M177.2,117.7h-71.3c0,0-2.3-17.2,19.9-23.7c0.5-0.2,1.1-0.2,1.6,0C132.6,95.8,163.7,106.8,177.2,117.7z"/>
	<path class="st19" d="M177.2,117.7h-71.3c0,1.3,0.1,2.5,0.1,3.8c13,0.3,43.7,2.2,49.5,3.2c8.1,1.4,7,12.4,8.6,18.2
		c0.3,1.5,0.5,3,0.6,4.6c3.3-0.1,6.5-0.3,9.8-0.5L177.2,117.7z"/>
	<path class="st20" d="M114.2,111.5c-1.4-1.6-2.8-9.2,8.5-14.8c-16,6.1-14.2,19.3-14.2,19.3h14.9C119.3,115.1,116,113.6,114.2,111.5
		z"/>
	<path class="st21" d="M140.1,117.1c-0.5,0.1-0.9,0.3-1.2,0.7h38.4c-13.5-11-44.6-21.9-49.8-23.7c-0.5-0.2-1-0.2-1.5,0l-0.7,0.2
		c0.3,0.5,0.8,0.7,1.4,0.6c0.3-0.1,3.9,2.6,4.4,2.9c2.4,1.2,4.7,2.5,6.9,4c2.9,2.2,5.2,2.9,7.2,6.3
		C148.1,113,144.8,116.2,140.1,117.1z"/>
	<path class="st20" d="M154.9,115.7h14.3c-0.6-0.4-1.7-1.6-2.4-2C163.4,114,159.6,115.3,154.9,115.7z"/>
	<path class="st19" d="M154.4,109.9c0,1.9-7.9,3.4-17.6,3.4s-15.1-1.5-15.1-3.4s5.4-3.4,15.1-3.4S154.4,108.1,154.4,109.9z"/>
	<path class="st19" d="M147,109.9c0,1.9-4.6,3.4-10.2,3.4s-10.2-1.5-10.2-3.4s4.6-3.4,10.2-3.4S147,108.1,147,109.9z"/>
	<g>
		<path class="st22" d="M118.2,98.9c0.7,6.5,10.5,14,20.1,12.9s17.5-10.4,16.8-17L118.2,98.9z"/>
		<path class="st23" d="M118.2,98.9c0.7,6.5,10.5,13.4,20.2,12.3s17.5-9.9,16.8-16.4L118.2,98.9z"/>
		<path class="st24" d="M138.1,110c8.8-1,16.1-8.8,16.8-15.2l-36.5,4C120.5,104.9,129.4,111,138.1,110z"/>
		<path class="st25" d="M138,108.4c8-0.9,14.8-7.6,16.4-13.5L119,98.8C121.8,104.3,129.9,109.3,138,108.4z"/>
		<path class="st26" d="M154.4,94.9l-1.3,0.1c-1.7,3.2-4,5.9-6.8,8.2c-1.8,1.4-4.5,2.2-6.7,2.7s-11.1,0.2-13-1.1
			c-2.4-1.7-4.5-3.7-6.3-6l-0.1-0.1l-1.2,0.1c2.9,5.5,11,10.5,19,9.6S152.8,100.9,154.4,94.9z"/>
		<path class="st24" d="M136.4,96.8c-0.1,0-0.7-0.1-0.9,0c-0.6,0-1,0.5-1,1.1c0,0.6,0.5,1,1.1,1c0.2,0.1,0.4,0.1,0.6,0.1
			c0.1,0,0.2,0,0.3-0.1c0.1,0,0.2,0,0.3,0c0.6-0.1,1-0.6,0.9-1.2C137.5,97.1,137,96.7,136.4,96.8z"/>
		<polygon class="st24" points="136.2,108.6 136.1,97.8 138.3,108.4 		"/>
		<polygon class="st24" points="127.5,106.7 136.1,97.8 129.2,108.1 		"/>
		<polygon class="st24" points="121.5,102.1 136.1,97.8 122.4,104.4 		"/>
		<polygon class="st24" points="145.7,106.7 136.1,97.8 147.1,105 		"/>
		<polygon class="st24" points="152.4,101.1 136.1,97.6 152.7,98.7 		"/>
	</g>
</g>
<g>
	<g>
		<path class="st27" d="M98.7,114.1c0,12.9-9.8,23.4-21.8,23.4h-6.8c-12,0-21.8-10.5-21.8-23.4v-6.1h50.4V114.1z"/>
		<path class="st28" d="M101.3,109.9c0,8.3-12.5,15-27.9,15s-27.9-6.7-27.9-15S58.1,95,73.5,95S101.3,101.7,101.3,109.9z"/>
		<path class="st29" d="M70.1,137.4h6.8c10.3,0,19-7.7,21.2-18c-1.4,0.1-2.6,1.8-3.3,4.2c-0.4-0.6-1.1-0.9-1.8-1
			c-1.4,0-2.6,1.5-3.3,3.9c-0.4-0.9-1.3-1.6-2.4-1.7c-1.6,0-3,2.1-3.7,5.2c-0.8-2.2-1.9-3.7-3.3-3.7s-2.7,1.6-3.4,4.1
			c-0.7-2.5-2-4.1-3.4-4.1s-2.9,2-3.6,5c-0.7-3-2.1-5-3.7-5c-1.3,0-2.5,1.4-3.3,3.7c-0.7-3.1-2.1-5.2-3.7-5.2
			c-1,0.1-1.9,0.8-2.4,1.7c-0.8-2.3-2-3.9-3.3-3.9c-0.7,0.1-1.4,0.4-1.8,1c-0.6-2.2-1.7-3.8-2.9-4.1
			C51.1,129.8,59.8,137.4,70.1,137.4z"/>
		<path class="st30" d="M56.5,128.7c0,1.2,0.1,2.1,0.3,2.1s0.3-1,0.3-2.1s-0.1-2.1-0.3-2.1S56.5,127.5,56.5,128.7z"/>
		<path class="st30" d="M94.6,124.8c0,0.7,0.1,1.3,0.3,1.3s0.3-0.6,0.3-1.3s-0.1-1.3-0.3-1.3S94.6,124.1,94.6,124.8z"/>
		<path class="st30" d="M51.4,124.8c0,0.7,0.1,1.3,0.3,1.3s0.3-0.6,0.3-1.3s-0.1-1.3-0.3-1.3S51.4,124.1,51.4,124.8z"/>
		<path class="st30" d="M62.6,132.2c0,1.2,0.1,2.1,0.3,2.1s0.3-1,0.3-2.1s-0.1-2.1-0.3-2.1S62.6,131,62.6,132.2z"/>
		<path class="st30" d="M69.6,133.6c0,1.3,0.1,2.3,0.3,2.3s0.3-1,0.3-2.3s-0.1-2.3-0.3-2.3S69.6,132.3,69.6,133.6z"/>
		<path class="st30" d="M83.2,132.2c0,1.3,0.1,2.3,0.3,2.3s0.3-1,0.3-2.3s-0.1-2.3-0.3-2.3S83.2,130.9,83.2,132.2z"/>
		<path class="st30" d="M89.4,128.7c0,1.3,0.1,2.3,0.3,2.3s0.3-1,0.3-2.3s-0.1-2.3-0.3-2.3S89.4,127.4,89.4,128.7z"/>
		<path class="st30" d="M76.6,133.1c-0.1,0.9,0,1.9,0.3,2.8c0.3-0.9,0.4-1.8,0.3-2.8c0.1-0.9,0-1.9-0.3-2.8
			C76.6,131.2,76.5,132.2,76.6,133.1z"/>
	</g>
	<path class="st31" d="M100.8,107.7c0,7-12.3,12.7-27.4,12.7s-27.4-5.7-27.4-12.7s12.3-10.5,27.4-10.5S100.8,100.7,100.8,107.7z"/>
	<path class="st32" d="M100.9,106.4c0,7-12.3,12.7-27.4,12.7s-27.4-5.7-27.4-12.7s12.3-10.5,27.4-10.5S100.9,99.4,100.9,106.4z"/>
	<path class="st32" d="M98,95.8c0,7-11,12.7-24.5,12.7S49,102.8,49,95.8s11-9.1,24.5-9.1S98,88.8,98,95.8z"/>
	<path class="st32" d="M88.4,88.5c-0.1-5.8-4.8-14.1-11.1-15c-2.4-0.3-4.5-1.5-6.2,0.9c-0.6,0.8-0.2,2.5-0.1,3.2
		c0.6,4.1-0.8,6.3-4.2,8.4c-5.2,3.2,0.3,8.1,4.3,8.6c2,0.4,4,0.6,6.1,0.7c1.3,0,2.6-0.9,3.9-1.1c1.4-0.4,2.7-1.1,3.8-1.9
		c0.1-0.1,0.2-0.2,0.3-0.4c1.2-0.3,2.2-1.3,2.6-2.5C88.1,89.3,88.4,88.9,88.4,88.5z"/>
	<path class="st33" d="M96.5,100.1c1-1.3,1.5-2.8,1.5-4.4c0-4.1-3.8-6.5-9.6-7.8c-0.4-5.7-5-13.5-11-14.4c-0.7-0.1-1.4-0.3-2.1-0.4
		c0.6,0.5,1.3,0.9,2,1.3c1.6,0.9,2.9,2,4.1,3.3c1,1.3,1.9,2.8,2.6,4.4c0.8,1.5,1.4,3,1.8,4.7c0.1,1,0.4,2,1,2.8
		c0.2,0.2,0.5,0.3,0.8,0.3c1,0.3,2,0.7,2.8,1.3c2.3,1.1,3.1,3.8,3.1,6.2c0,0.7-0.1,1.3-0.1,2c-0.1,1.7-1.7,2-3,2.5
		c-0.4,0.2-0.2,0.7,0.2,0.8c0.6,0.1,1.2,0,1.8,0c2,0,2.1,2.1,2.3,3.4c0.3,2.1,0,4.2-0.9,6.1c-1.5,3.5-6.2,4-9.2,5.5
		c-0.2,0.1-0.2,0.2-0.2,0.4c9.8-1.9,16.6-6.4,16.6-11.6C100.9,103.8,99.3,101.7,96.5,100.1z"/>
	<path class="st34" d="M91,106.1c0,4.2-9.7,7.7-21.6,7.7s-21.6-3.4-21.6-7.7s9.7-6.4,21.6-6.4S91,101.9,91,106.1z"/>
	<path class="st34" d="M92.5,94.1c0,5.7-9.7,10.3-21.8,10.3S49,99.8,49,94.1s9.8-7.4,21.8-7.4S92.5,88.4,92.5,94.1z"/>
	<path class="st34" d="M83.3,88.5c-0.1-5.8-3.8-14.1-8.7-15c-1.9-0.3-3.5-1.5-4.9,0.9c-0.4,0.8-0.2,2.5-0.1,3.2
		c0.5,4.1-0.6,6.3-3.3,8.4c-4.1,3.2,0.2,8.1,3.4,8.6c1.6,0.4,3.2,0.6,4.8,0.7c1,0,2-0.9,3-1.1c1.1-0.4,2.1-1.1,3-1.9
		c0.1-0.1,0.2-0.2,0.3-0.4c1-0.5,1.8-1.4,2-2.5C83.1,89.3,83.3,88.9,83.3,88.5z"/>
	<path class="st35" d="M67.7,98.4c-6.4,0-11.2-2.5-11.2-4.7c0-1.9,4.2-3,11.2-3s11.3,1.1,11.3,3C79,96,74.2,98.4,67.7,98.4z"/>
	<path class="st35" d="M71.2,111.6c-6,0-10.4-2.5-10.4-4.7c0-1.9,3.9-3,10.4-3s10.4,1.1,10.4,3C81.6,109.2,77.2,111.6,71.2,111.6z"
		/>
	<path class="st35" d="M71.8,84.4c-0.3,1.4-0.3,2.9-0.1,4.3c0.6,1.9,4.3,1.3,5.4,0.2c1.5-1.5,1.8-3.7,1.9-5.7
		c-1.2-3.3-3.2-6.1-4.9-6.4c-0.4-0.1-0.9-0.2-1.3-0.3c0,0.2,0.1,0.8,0.1,0.8C73.2,79.7,72.9,82.2,71.8,84.4z"/>
	<path class="st32" d="M70.6,95c-1.5-0.2-3-0.3-4.5-0.3c-1.6-0.2-3.1-0.4-4.7-0.8c-0.8-0.1-1.6-0.1-2.4-0.1c-0.6,0-1.2-0.4-1.8-0.4
		c-0.7,0-1.3,0.3-1.8,0.8c-0.7,0.1-1.1,0.7-1.1,1.3c0.1,6.8,10.2,6,15.1,6.1c3,0,5.2-0.2,6.5-2.9C77.6,95.5,72.7,95.3,70.6,95z"/>
	<path class="st33" d="M69.9,95.9c-1.3-0.2-2.6-0.2-3.9-0.2c-1.3-0.1-2.7-0.3-4-0.6c-0.7-0.1-1.4-0.1-2.1-0.1c-0.5,0-1-0.3-1.5-0.3
		c-0.6,0-1.1,0.2-1.5,0.6c-0.6,0-1,0.5-1,1.1c0.1,5.4,8.8,4.8,13,4.8c2.6,0,4.5-0.2,5.6-2.3C75.9,96.4,71.7,96.2,69.9,95.9z"/>
	<g>
		<path class="st22" d="M52,78.4c-3.3,4.2-2,14.1,4.2,19s16.1,4.1,19.5-0.1L52,78.4z"/>
		<path class="st23" d="M52,78.4c-3.3,4.2-1.7,13.8,4.5,18.7s15.8,4.4,19.1,0.2L52,78.4z"/>
		<path class="st24" d="M57.1,96.3c5.6,4.5,14.3,4.2,18.4,0.9L52.1,78.6C49.9,83.2,51.5,91.8,57.1,96.3z"/>
		<path class="st25" d="M57.9,95.3c5.1,4.1,12.9,4.2,17.3,1.7L52.5,78.8C51,83.6,52.7,91.2,57.9,95.3z"/>
		<path class="st26" d="M75.1,97l-0.8-0.6c-2.8,0.8-5.7,1.1-8.7,0.8c-1.9-0.4-3.8-1.2-5.4-2.3c-1.6-1-6.5-6.3-6.9-8.2
			C53,84.4,53,82,53.2,79.6v-0.1l-0.8-0.6c-1.5,4.8,0.3,12.4,5.4,16.5S70.7,99.5,75.1,97z"/>
		<path class="st24" d="M63.7,87.7c-0.1-0.1-0.4-0.4-0.5-0.6c-0.3-0.3-0.9-0.3-1.2,0c-0.3,0.3-0.3,0.9,0,1.2c0,0.1,0.1,0.3,0.3,0.4
			c0.1,0,0.1,0.1,0.2,0.1c0,0.1,0.1,0.1,0.1,0.2c0.4,0.3,0.9,0.2,1.2-0.1S64.1,88,63.7,87.7z"/>
		<polygon class="st24" points="56.8,94.4 62.9,88.1 58.1,95.4 		"/>
		<polygon class="st24" points="52.8,88.3 62.9,88.1 53,90.1 		"/>
		<polygon class="st24" points="52,82.2 62.9,88.1 51.2,84 		"/>
		<polygon class="st24" points="63.3,98.8 62.9,88.1 65.1,98.6 		"/>
		<polygon class="st24" points="70.4,99.4 63,88 72,98.2 		"/>
	</g>
</g>
<g>
	<path class="st36" d="M112.5,150.1H52.3l3.8,21.6c0,1.3,2.1,3.3,6.7,5.1c5.2,1.9,12.2,3,19.6,3s14.4-1.1,19.6-3
		c4.6-1.7,6.7-3.8,6.7-5.1C108.7,171.6,112.5,150.1,112.5,150.1z"/>
	
		<linearGradient id="SVGID_1_" gradientUnits="userSpaceOnUse" x1="52.34" y1="63.435" x2="112.46" y2="63.435" gradientTransform="matrix(1 0 0 -1 0 228)">
		<stop  offset="0" style="stop-color:#F6C953"/>
		<stop  offset="1" style="stop-color:#D66D2A"/>
	</linearGradient>
	<path class="st37" d="M108.7,171.7c0-0.1,3.7-21.6,3.7-21.6H52.3l3.8,21.6c0.1,0.5,0.3,1,0.7,1.4c7.7-2.7,25.6-2.6,34.6,4.4
		c0.7,0.5,1.3,1,2.1,1.4c2.9-0.4,5.8-1.2,8.6-2.2C106.7,175.1,108.7,173,108.7,171.7z"/>
	<path class="st38" d="M82.8,150.1c0.5,0.2,0.9,0.4,1.4,0.5c11.1,3.3,13.1,25.1,12.6,27.4l-0.1,0.4c1.8-0.4,3.6-0.9,5.3-1.6
		c4.6-1.7,6.7-3.8,6.7-5.1c0-0.1,3.7-21.6,3.7-21.6L82.8,150.1z"/>
	<g>
		<path class="st38" d="M61.6,160.8c0.4,5.2,0,7.5-0.9,7.6s-2-2.1-2.3-7.3s0-9.5,0.9-9.6S61.2,155.6,61.6,160.8z"/>
		<path class="st38" d="M70.4,162.4c0.1,5.2-0.6,7.5-1.5,7.5s-1.7-2.2-1.8-7.4s0.6-9.4,1.5-9.5S70.3,157.2,70.4,162.4z"/>
		<path class="st38" d="M79.3,163.5c0.1,5.2-0.6,7.5-1.5,7.5s-1.7-2.2-1.8-7.4s0.6-9.5,1.5-9.5S79.2,158.3,79.3,163.5z"/>
		<path class="st39" d="M102.5,160.8c-0.4,5.2,0,7.5,0.9,7.6s1.9-2.1,2.3-7.3s0-9.5-0.9-9.6S102.9,155.6,102.5,160.8z"/>
		<path class="st39" d="M93.7,162.4c-0.1,5.2,0.6,7.5,1.5,7.5s1.7-2.2,1.8-7.4s-0.6-9.4-1.5-9.5S93.7,157.2,93.7,162.4z"/>
		<path class="st38" d="M84.8,163.5c-0.1,5.2,0.6,7.5,1.5,7.5s1.7-2.2,1.8-7.4s-0.6-9.5-1.5-9.5S84.9,158.3,84.8,163.5z"/>
	</g>
	<path class="st31" d="M82.4,161.8c-8.4,0-16.3-1.2-22.1-3.3c-5.2-1.9-7.5-4.2-7.5-5.6s2.3-3.6,7.5-5.6c5.8-2.1,13.7-3.3,22.1-3.3
		s16.3,1.2,22.1,3.3c5.2,1.9,7.5,4.2,7.5,5.6s-2.3,3.6-7.5,5.6C98.7,160.6,90.8,161.8,82.4,161.8z"/>
	
		<linearGradient id="SVGID_2_" gradientUnits="userSpaceOnUse" x1="50.35" y1="79.35" x2="114.46" y2="79.35" gradientTransform="matrix(1 0 0 -1 0 228)">
		<stop  offset="0" style="stop-color:#FBC16F"/>
		<stop  offset="1" style="stop-color:#EC8940"/>
	</linearGradient>
	<path class="st40" d="M114.5,148.6c0,6.7-14.3,12.1-32.1,12.1s-32-5.4-32-12.1s14.4-12.1,32.1-12.1S114.5,142,114.5,148.6z"/>
	<path class="st41" d="M82.4,157.5c-8.2,0-15.8-1.2-21.5-3.3c-5.1-1.9-7.3-4.2-7.3-5.6s2.3-3.6,7.3-5.6c5.7-2.1,13.4-3.3,21.5-3.3
		s15.8,1.2,21.6,3.3c5.1,1.9,7.3,4.2,7.3,5.6s-2.3,3.6-7.3,5.5C98.2,156.4,90.6,157.5,82.4,157.5z"/>
	<g>
		<g>
			<path class="st42" d="M101,137.4c-3.1,1.4-4.6,0.1-6.7,1.2c-5.4,3.1-3.6,8.1-2,10.2c2,2.8,6,3.1,9.1,2c2.8-1,4.8-3.5,5.2-6.4
				C106.9,140.8,104.3,135.8,101,137.4z"/>
			<path class="st43" d="M102.3,137.1c0,0.1,0.1,0.1,0.1,0.2c0,0,0,0.1,0,0.1c0.2,0.8,0.3,1.6,0.4,2.4c0,0.1-0.1,0.3-0.1,0.4
				c-0.8,2.1-3.7,2.2-5.6,3c-0.9,0.3-1.5,1.1-1.7,2c-1,1.9-0.8,4.1,0.4,5.9c1.8,0.4,3.8,0.3,5.5-0.3c2.8-1,4.8-3.5,5.2-6.4
				C106.9,141.2,104.9,137.1,102.3,137.1z"/>
			<path class="st43" d="M101.2,139.5c-0.1-0.9-1.3-0.7-1.7-0.2c-0.2,0.3-0.6,0.3-0.9,0.3c-0.2,0-0.3,0-0.4-0.1
				c-0.2-0.1-0.5-0.1-0.7,0c-0.8,0.1-0.8,1-0.6,1.6c0.1,0.3,0.4,0.5,0.7,0.6c0.4,0.1,0.8,0.2,1.2,0.1c0.6,0,1.2-0.2,1.7-0.6
				C101.1,141,101.5,140.2,101.2,139.5z"/>
			<path class="st44" d="M100.1,139.9c-0.2-0.3-0.6-0.3-0.8-0.1c-0.1,0-0.2,0.1-0.3,0.2h-0.1h-0.2l0,0c-0.3-0.2-0.6-0.1-0.8,0.2
				c-0.2,0.3-0.1,0.6,0.2,0.8c0.2,0.2,0.5,0.2,0.8,0.2c0.1,0.1,0.3,0.1,0.5,0c0.3-0.1,0.6-0.2,0.8-0.3
				C100.4,140.6,100.4,140.2,100.1,139.9z"/>
			<path class="st44" d="M106.6,144.3c0.1-2-0.4-3.9-1.5-5.5c0.5,3.4,0.5,6.2-2.5,9c-1.4,1.4-3.1,2.5-5,3.2
				c-0.3,0.1-0.5,0.1-0.8,0.3c1.6,0.2,3.2,0,4.7-0.5C104.2,149.7,106.2,147.2,106.6,144.3z"/>
			<path class="st45" d="M94.1,143.5c0,0.2-0.1,0.4-0.3,0.5c-0.2,0-0.4-0.1-0.4-0.4c-0.1-0.2,0.1-0.4,0.3-0.5
				C93.9,143.1,94.1,143.3,94.1,143.5z"/>
			<path class="st46" d="M93.8,147.4c0.3,0.5,0.8,0.3,0.6-0.1l0,0c-0.1-0.3-0.2-0.6-0.3-0.9c-0.6-2.1-0.1-3.6,2-3.5
				c0.6,0,3-0.1,1.2-0.4c-0.3-0.1-0.7-0.2-1-0.3c-0.7-0.2-1-0.3-1.3-0.9c-0.6-1.1,0.3-1.7,1.4-2c0.1-0.1,0.8,0,1-0.2
				s0.2-0.6-0.7-0.5c-1,0-1.9,0.2-2.8,0.7C90.2,142.1,93.7,147.4,93.8,147.4z"/>
		</g>
		<path class="st47" d="M93.9,140.5c-0.6-0.2-1.1,0.4-1,0.9c0.1,0.4,0.4,0.6,0.7,0.6c0.1,0,0.1,0,0.2-0.1c0.1,0.1,0.3,0.1,0.4,0
			c0,0,0.1-0.1,0.1-0.1C94.5,141.3,94.4,140.8,93.9,140.5z"/>
		<path class="st47" d="M93.9,143.7c-0.2-0.5-0.9-0.9-1.2-0.3c-0.2,0.5,0,1.1,0.4,1.4c0.1,0,0.2,0,0.3,0h0.1c0.2,0.1,0.5,0,0.6-0.3
			c0,0,0-0.1,0-0.1C94.1,144.2,94.1,143.9,93.9,143.7z"/>
	</g>
	<g>
		<g>
			<path class="st48" d="M94.4,138.1c-3.3-0.8-3.7-2.8-6-3.3c-6.2-1-7.8,4.1-8,6.7c-0.2,3.5,2.8,6.1,5.8,7.3c2.8,1,5.9,0.3,8.1-1.8
				C96.9,144.4,98,138.9,94.4,138.1z"/>
			<path class="st49" d="M95.6,138.6c0,0.1,0,0.1,0,0.2c0,0,0,0.1,0,0.1c-0.4,0.7-0.8,1.4-1.2,2.2c-0.1,0.1-0.2,0.2-0.4,0.3
				c-2,1.1-4.2-0.6-6.2-1.1c-0.9-0.3-1.8-0.1-2.6,0.5c-1.9,0.8-3.2,2.7-3.3,4.8c1.2,1.5,2.7,2.6,4.5,3.2c2.8,1,5.9,0.3,8.1-1.8
				C96.6,144.8,97.7,140.3,95.6,138.6z"/>
			<path class="st49" d="M93.3,139.9c0.4-0.8-0.6-1.4-1.3-1.2c-0.3,0.1-0.7-0.2-0.9-0.3c-0.1,0-0.2-0.3-0.3-0.4
				c-0.1-0.2-0.3-0.4-0.6-0.5c-0.7-0.4-1.3,0.2-1.5,0.9c-0.1,0.3,0,0.6,0.2,0.9c0.2,0.3,0.5,0.6,0.9,0.8c0.5,0.3,1.1,0.6,1.7,0.6
				C92.2,140.9,93,140.6,93.3,139.9z"/>
			<path class="st50" d="M92.1,139.5c0-0.3-0.3-0.6-0.6-0.6c-0.1,0-0.2,0-0.3,0l-0.1-0.1c-0.1,0-0.1-0.1-0.2-0.1l0,0
				c-0.1-0.3-0.4-0.5-0.8-0.4c-0.3,0.1-0.5,0.4-0.4,0.8c0.1,0.3,0.2,0.5,0.5,0.6c0.1,0.1,0.2,0.2,0.4,0.3c0.3,0.1,0.5,0.2,0.8,0.3
				C91.9,140.2,92.2,139.9,92.1,139.5C92.1,139.5,92.1,139.5,92.1,139.5z"/>
			<path class="st50" d="M94.4,146.9c1.3-1.4,2.1-3.3,2.3-5.2c-1.8,2.9-3.5,5.2-7.6,5.4c-2,0.2-4,0-5.9-0.7
				c-0.2-0.1-0.5-0.2-0.7-0.3c1.1,1.1,2.5,2,3.9,2.5C89.2,149.7,92.3,149,94.4,146.9z"/>
			<path class="st51" d="M85.2,138.5c-0.1,0.2-0.3,0.3-0.5,0.2c-0.2-0.1-0.2-0.3-0.1-0.5c0,0,0,0,0,0c0.1-0.2,0.3-0.3,0.5-0.2
				C85.2,138.1,85.3,138.3,85.2,138.5z"/>
			<path class="st52" d="M82.5,141.4c0,0.6,0.5,0.7,0.6,0.3l0,0c0.1-0.3,0.2-0.6,0.3-0.9c0.8-2,2.2-2.8,3.7-1.5
				c0.5,0.4,2.4,1.8,1.2,0.5c-0.2-0.3-0.4-0.6-0.6-0.9c-0.4-0.6-0.6-0.8-0.4-1.5c0.3-1.2,1.3-1.1,2.4-0.7c0.1,0,0.7,0.5,0.9,0.4
				s0.6-0.3-0.2-0.8c-0.8-0.6-1.7-1-2.6-1.2C83,135,82.5,141.3,82.5,141.4z"/>
		</g>
		<path class="st53" d="M86.9,136.1c-0.3-0.4-0.8-0.5-1.1-0.2c-0.1,0.1-0.2,0.1-0.2,0.2c-0.2,0.3-0.1,0.7,0.2,0.9
			c0.1,0.1,0.2,0.1,0.3,0.1c0,0.2,0.2,0.3,0.3,0.3c0,0,0.1,0,0.1,0C86.8,137.1,87,136.6,86.9,136.1z"/>
		<path class="st53" d="M85,138.6c0.1-0.5-0.2-1.2-0.8-0.9c-0.5,0.3-0.7,0.8-0.6,1.4c0,0.1,0.1,0.2,0.2,0.2c0,0,0,0.1,0,0.1
			c0.1,0.2,0.4,0.3,0.6,0.2c0,0,0.1-0.1,0.1-0.1C84.8,139.1,84.9,138.9,85,138.6z"/>
	</g>
	<g>
		<g>
			<path class="st54" d="M80,134.9c-3.9,1.1-5.4-0.8-8.1,0.1c-7,2.7-5.7,8.8-4.3,11.6c1.9,3.7,6.5,4.7,10.3,4
				c3.5-0.7,6.2-3.2,7.2-6.6C86.3,140,84.1,133.7,80,134.9z"/>
			<path class="st55" d="M81.5,134.8l0.1,0.2c0,0.1,0,0.1,0,0.1c0.1,1,0,1.9,0,2.9c-0.1,0.2-0.1,0.3-0.2,0.5
				c-1.4,2.3-4.7,1.9-7.1,2.5c-1.1,0.2-1.9,1-2.3,2c-1.5,2-1.7,4.7-0.6,6.9c2.1,0.8,4.3,1,6.6,0.6c3.5-0.7,6.3-3.2,7.3-6.6
				C86.1,140.5,84.6,135.3,81.5,134.8z"/>
			<path class="st55" d="M79.8,137.4c0-1-1.4-1.1-2-0.5c-0.2,0.3-0.8,0.2-1.2,0.2c-0.1,0-0.4-0.1-0.5-0.2c-0.3-0.1-0.6-0.2-0.9-0.2
				c-1,0-1.2,1-1,1.8c0.1,0.4,0.4,0.7,0.7,0.8c0.4,0.2,0.9,0.3,1.4,0.4c0.7,0.1,1.4,0,2.1-0.3C79.3,139.2,79.9,138.3,79.8,137.4z"/>
			<path class="st56" d="M78.4,137.7c-0.2-0.3-0.7-0.5-1-0.3c-0.1,0.1-0.2,0.1-0.3,0.2h-0.5c-0.7-0.6-1.6,0.4-1,1.1
				c0.2,0.2,0.6,0.4,0.9,0.4c0.2,0.1,0.4,0.1,0.6,0.1c0.3,0,0.7-0.1,1-0.2C78.5,138.7,78.7,138.2,78.4,137.7
				C78.5,137.7,78.4,137.7,78.4,137.7z"/>
			<path class="st56" d="M85.2,144c0.5-2.3,0.3-4.6-0.8-6.7c-0.1,4.1-0.6,7.4-4.6,10.1c-1.8,1.2-4.4,2.6-6.5,2.8
				c-0.3,0-0.6,0.1-0.9,0.1c1.8,0.5,3.7,0.6,5.5,0.3C81.4,149.9,84.2,147.4,85.2,144z"/>
			<path class="st57" d="M70.7,140.8c0,0.2-0.1,0.4-0.3,0.5c-0.2,0-0.4-0.1-0.5-0.3c0,0,0-0.1,0-0.1c0-0.2,0.1-0.4,0.3-0.5
				c0.2,0,0.4,0.1,0.5,0.3C70.7,140.7,70.7,140.8,70.7,140.8z"/>
			<path class="st58" d="M69.6,145.3c0.3,0.6,0.9,0.5,0.8-0.1l0,0c-0.1-0.4-0.2-0.7-0.2-1.1c-0.3-2.5,0.6-4.2,3-3.7
				c0.7,0.1,3.5,0.4,1.5-0.2c-0.4-0.1-0.8-0.3-1.2-0.6c-0.7-0.4-1.1-0.5-1.3-1.3c-0.4-1.4,0.6-1.9,2-2.1c0.1,0,1,0.1,1.2-0.1
				s0.4-0.7-0.7-0.7c-1.3,0-2.2-0.3-3.4,0.3C66.4,138.5,69.6,145.3,69.6,145.3z"/>
		</g>
		<path class="st59" d="M71,137.3c-0.6-0.4-1.3,0.2-1.4,0.9c0,0.4,0.3,0.8,0.7,0.8c0.1,0,0.2,0,0.3,0c0.1,0.2,0.3,0.2,0.5,0.1
			c0,0,0.1-0.1,0.1-0.1C71.6,138.4,71.5,137.7,71,137.3z"/>
		<path class="st59" d="M70.5,141c-0.2-0.6-0.9-1.2-1.4-0.5c-0.3,0.6-0.2,1.3,0.2,1.8c0.1,0.1,0.2,0.1,0.3,0.1l0.1,0.1
			c0.3,0.2,0.6,0.1,0.8-0.2c0-0.1,0.1-0.1,0.1-0.2C70.6,141.7,70.6,141.3,70.5,141z"/>
	</g>
	<g>
		<g>
			<path class="st56" d="M68.9,138.7c-3.9,1.1-5.5-0.8-8.1,0.1c-7,2.7-5.7,8.8-4.3,11.6c1.8,3.7,6.5,4.7,10.3,4
				c3.5-0.7,6.3-3.2,7.3-6.6C75.2,143.8,73,137.5,68.9,138.7z"/>
			<path class="st60" d="M68.1,138.7c-3.9,1.1-5.4-0.8-8.1,0.1c-7,2.7-5.7,8.8-4.3,11.6c1.9,3.7,6.5,4.7,10.3,4
				c3.5-0.7,6.3-3.2,7.3-6.6C74.4,143.8,72.2,137.5,68.1,138.7z"/>
			<path class="st61" d="M69.6,138.6c0,0.1,0.1,0.2,0.1,0.2c0,0.1,0,0.1,0,0.1c0.1,1,0,2,0,2.9c-0.1,0.2-0.1,0.3-0.2,0.5
				c-1.4,2.3-4.7,1.9-7.1,2.5c-1.1,0.2-1.9,1-2.3,2c-1.5,2-1.7,4.7-0.6,6.9c2.1,0.8,4.3,1,6.6,0.6c3.5-0.7,6.3-3.2,7.3-6.6
				C74.3,144.3,72.7,139.1,69.6,138.6z"/>
			<path class="st61" d="M68,141.2c0-1-1.4-1.1-2-0.5c-0.3,0.3-0.8,0.2-1.2,0.2c-0.1,0-0.4-0.1-0.5-0.2c-0.3-0.1-0.6-0.2-0.9-0.2
				c-1,0-1.2,1-1,1.8c0.1,0.4,0.4,0.6,0.7,0.8c0.4,0.2,0.9,0.3,1.4,0.4c0.7,0.1,1.4,0,2.1-0.3C67.5,142.9,68.1,142.1,68,141.2z"/>
			<path class="st62" d="M66.6,141.5c-0.2-0.3-0.7-0.5-1-0.3c-0.1,0.1-0.2,0.1-0.3,0.2h-0.1c-0.1,0-0.2,0-0.3,0l0,0
				c-0.3-0.3-0.8-0.3-1,0c-0.3,0.3-0.3,0.8,0,1l0,0c0.2,0.2,0.6,0.4,0.9,0.4c0.2,0.1,0.4,0.1,0.5,0.1c0.3,0,0.7-0.1,1-0.2
				C66.7,142.5,66.8,142,66.6,141.5C66.6,141.5,66.6,141.5,66.6,141.5z"/>
			<path class="st62" d="M73.3,147.8c0.5-2.3,0.2-4.6-0.8-6.7c-0.1,4.1-0.6,7.4-4.6,10.1c-1.8,1.2-4.4,2.6-6.5,2.8
				c-0.3,0-0.6,0.1-0.9,0.1c1.8,0.5,3.7,0.6,5.5,0.3C69.5,153.7,72.3,151.2,73.3,147.8z"/>
			<path class="st63" d="M58.8,144.6c0.1,0.2-0.1,0.5-0.3,0.5c-0.2,0.1-0.5-0.1-0.5-0.3c0-0.1,0-0.1,0-0.2c-0.1-0.2,0.1-0.5,0.3-0.5
				c0.2-0.1,0.5,0.1,0.5,0.3C58.8,144.5,58.8,144.5,58.8,144.6z"/>
			<path class="st64" d="M57.7,149.1c0.3,0.6,0.9,0.5,0.8-0.1l0,0c-0.1-0.4-0.2-0.7-0.2-1.1c-0.3-2.5,0.6-4.2,3-3.7
				c0.7,0.1,3.5,0.4,1.5-0.2c-0.4-0.2-0.8-0.3-1.2-0.6c-0.7-0.4-1.1-0.5-1.3-1.3c-0.5-1.4,0.6-1.9,2-2.1c0.1,0,1,0.1,1.2-0.1
				s0.4-0.7-0.7-0.7c-1.2,0-2.2-0.3-3.4,0.3C54.5,142.3,57.7,149.1,57.7,149.1z"/>
		</g>
		<path class="st65" d="M59.2,141.1c-0.6-0.4-1.3,0.2-1.4,0.9c0,0.4,0.3,0.8,0.7,0.8c0.1,0,0.2,0,0.3,0c0.1,0.2,0.3,0.2,0.5,0.1
			c0,0,0.1-0.1,0.1-0.1C59.7,142.2,59.6,141.5,59.2,141.1z"/>
		<path class="st65" d="M58.6,144.8c-0.2-0.6-0.9-1.2-1.4-0.5c-0.3,0.6-0.2,1.3,0.2,1.8c0.1,0.1,0.2,0.1,0.3,0.1l0.1,0.1
			c0.3,0.2,0.6,0.1,0.8-0.2c0-0.1,0.1-0.1,0.1-0.2C58.8,145.5,58.8,145.1,58.6,144.8z"/>
	</g>
	<g>
		<g>
			<path class="st62" d="M76,142.8c-3,1.8-4.7,0.6-6.7,1.9c-5.2,3.8-2.7,8.7-1,10.6c2.4,2.7,6.5,2.5,9.5,1c2.7-1.3,4.5-4.1,4.6-7.1
				C82.4,145.6,79.1,140.9,76,142.8z"/>
			<path class="st60" d="M76.8,142.8c-3,1.8-4.7,0.6-6.7,1.9c-5.2,3.8-2.7,8.7-1,10.6c2.4,2.7,6.5,2.5,9.5,1
				c2.7-1.3,4.5-4.1,4.6-7.1C83.2,145.6,79.9,140.9,76.8,142.8z"/>
			<path class="st61" d="M78,142.4c0,0.1,0.1,0.1,0.1,0.2v0.1c0.3,0.8,0.5,1.6,0.7,2.4c0,0.2,0,0.3-0.1,0.5
				c-0.6,2.2-3.5,2.6-5.3,3.7c-0.8,0.4-1.4,1.3-1.5,2.2c-0.8,2-0.4,4.3,1,5.9c1.9,0.2,3.9-0.1,5.6-0.9c2.7-1.3,4.5-4.1,4.6-7.1
				C83.2,146.1,80.7,142.1,78,142.4z"/>
			<path class="st61" d="M77.2,144.9c-0.2-0.9-1.4-0.6-1.8,0c-0.1,0.3-0.6,0.4-0.9,0.4c-0.2,0-0.3,0-0.4-0.1c-0.2-0.1-0.5-0.1-0.8,0
				c-0.8,0.2-0.7,1.1-0.5,1.7c0.2,0.3,0.4,0.5,0.8,0.5c0.4,0.1,0.8,0.1,1.2,0c0.6-0.1,1.2-0.4,1.7-0.7
				C77.2,146.5,77.5,145.7,77.2,144.9z"/>
			<path class="st62" d="M76.1,145.5c-0.3-0.2-0.6-0.2-0.9,0c-0.1,0.1-0.1,0.1-0.2,0.2h-0.1l-0.3,0.1l0,0c-0.3-0.1-0.7,0-0.8,0.3
				c-0.1,0.3,0,0.6,0.2,0.8c0.2,0.1,0.5,0.2,0.8,0.1c0.2,0,0.3,0,0.5-0.1c0.3-0.1,0.6-0.2,0.8-0.4C76.5,146.2,76.4,145.7,76.1,145.5
				C76.1,145.5,76.1,145.5,76.1,145.5z"/>
			<path class="st62" d="M83.2,149.2c-0.1-2-0.9-3.9-2.2-5.4c0.9,3.4,1.2,6.3-1.6,9.4c-1.3,1.6-2.9,2.9-4.8,3.8
				c-0.3,0.1-0.5,0.2-0.7,0.3c1.6,0,3.2-0.3,4.7-1C81.3,155.1,83.1,152.3,83.2,149.2z"/>
			<path class="st63" d="M70.3,149.8c0.1,0.2,0,0.4-0.2,0.5c-0.2,0.1-0.4,0-0.5-0.2c0,0,0-0.1,0-0.1c-0.1-0.2,0-0.4,0.2-0.5
				c0.2-0.1,0.4,0,0.5,0.2C70.3,149.7,70.3,149.8,70.3,149.8z"/>
			<path class="st64" d="M70.5,153.8c0.4,0.5,0.9,0.2,0.6-0.2l0,0c-0.2-0.3-0.3-0.6-0.4-0.9c-0.8-2-0.5-3.6,1.7-3.8
				c0.6,0,3-0.4,1.2-0.5c-0.4,0-0.7-0.1-1.1-0.2c-0.7-0.1-1-0.2-1.4-0.8c-0.7-1.1,0.1-1.7,1.2-2.2c0.1-0.1,0.8-0.1,1-0.3
				s0.2-0.7-0.7-0.5s-1.9,0.3-2.8,1C66.2,148.8,70.4,153.8,70.5,153.8z"/>
		</g>
		<path class="st65" d="M69.9,146.8c-0.6-0.2-1.1,0.5-1,1c0.1,0.4,0.5,0.6,0.8,0.5c0.1,0,0.1,0,0.2-0.1c0.1,0.1,0.3,0.1,0.4,0
			c0,0,0.1-0.1,0.1-0.1C70.5,147.6,70.3,147,69.9,146.8z"/>
		<path class="st65" d="M70.2,150c-0.3-0.4-1-0.8-1.3-0.1c-0.1,0.5,0.1,1.1,0.6,1.4c0.1,0,0.2,0,0.3,0c0,0,0,0,0.1,0
			c0.2,0.1,0.5-0.1,0.6-0.3c0,0,0-0.1,0-0.2C70.5,150.5,70.4,150.2,70.2,150z"/>
	</g>
	<g>
		<g>
			<path class="st62" d="M103.6,141.4c-3.3,1.1-4.7-0.6-7,0.3c-6,2.4-4.8,7.7-3.5,10.1c1.7,3.1,5.7,3.9,9,3.3c3-0.6,5.4-2.9,6.2-5.8
				C109.1,145.7,107.2,140.3,103.6,141.4z"/>
			<path class="st60" d="M104.4,141.6c-3.3,1-4.7-0.6-7,0.2c-6,2.4-4.8,7.7-3.5,10.1c1.7,3.1,5.7,3.9,9,3.3c3-0.6,5.4-2.9,6.2-5.8
				C109.9,145.9,107.9,140.5,104.4,141.6z"/>
			<path class="st61" d="M105.7,141.5l0.1,0.2c0,0,0,0.1,0,0.1c0,0.8,0,1.7,0.1,2.5c-0.1,0.1-0.1,0.3-0.2,0.4c-1.2,2-4,1.7-6.1,2.3
				c-0.9,0.2-1.7,0.9-2,1.8c-1.3,1.8-1.4,4.1-0.4,6c1.8,0.7,3.8,0.8,5.7,0.4c3-0.6,5.4-2.9,6.2-5.8
				C109.8,146.4,108.4,141.9,105.7,141.5z"/>
			<path class="st61" d="M104.3,143.8c0-0.9-1.3-0.9-1.7-0.4c-0.2,0.2-0.7,0.2-1,0.2c-0.2,0-0.3-0.1-0.4-0.2
				c-0.2-0.1-0.5-0.1-0.8-0.1c-0.8,0-1,0.9-0.9,1.5c0.1,0.3,0.3,0.6,0.6,0.7c0.4,0.2,0.8,0.3,1.2,0.3c0.6,0.1,1.2-0.1,1.8-0.3
				C104,145.4,104.3,144.6,104.3,143.8z"/>
			<path class="st62" d="M103.1,144.1c-0.2-0.3-0.6-0.4-0.9-0.2c-0.1,0.1-0.2,0.1-0.3,0.2h-0.4c-0.6-0.5-1.4,0.4-0.8,0.9
				c0.2,0.2,0.5,0.3,0.8,0.3c0.2,0.1,0.3,0.1,0.5,0c0.3,0,0.6-0.1,0.9-0.2C103.2,144.9,103.3,144.4,103.1,144.1z"/>
			<path class="st62" d="M109.1,149.4c0.4-2,0.1-4-0.8-5.8c0,3.5-0.4,6.4-3.8,8.8c-1.6,1.3-3.5,2.1-5.6,2.6c-0.3,0-0.5,0.1-0.8,0.1
				c1.6,0.4,3.2,0.5,4.8,0.1C105.9,154.7,108.3,152.4,109.1,149.4z"/>
			<path class="st63" d="M96.5,146.9c0,0.2-0.1,0.4-0.3,0.4c-0.2,0-0.4-0.2-0.4-0.4c0,0,0,0,0,0c0-0.2,0.1-0.4,0.3-0.4c0,0,0,0,0,0
				C96.3,146.5,96.5,146.7,96.5,146.9z"/>
			<path class="st64" d="M95.6,150.8c0.3,0.6,0.8,0.4,0.7-0.1l0,0c-0.1-0.3-0.1-0.7-0.2-1c-0.3-2.2,0.4-3.6,2.5-3.3
				c0.6,0.1,3,0.3,1.3-0.2c-0.3-0.1-0.7-0.3-1-0.5c-0.6-0.3-1-0.4-1.2-1.1c-0.4-1.2,0.5-1.7,1.7-1.8c0.1,0,0.8,0.1,1-0.1
				s0.3-0.6-0.6-0.6c-1.1,0-1.9-0.2-2.9,0.3C92.7,145,95.6,150.8,95.6,150.8z"/>
		</g>
		<path class="st65" d="M96.7,143.8c-0.5-0.3-1.2,0.2-1.2,0.8c0,0.4,0.3,0.7,0.7,0.7c0.1,0,0.2,0,0.2,0c0.1,0.1,0.3,0.2,0.4,0.1
			c0,0,0.1-0.1,0.1-0.1C97.2,144.8,97.1,144.2,96.7,143.8z"/>
		<path class="st65" d="M96.3,147c-0.2-0.5-0.8-1-1.2-0.4c-0.3,0.5-0.2,1.1,0.2,1.5c0.1,0.1,0.2,0.1,0.3,0.1c0,0,0,0,0.1,0.1
			c0.2,0.1,0.5,0.1,0.7-0.2c0,0,0-0.1,0.1-0.1C96.4,147.6,96.4,147.3,96.3,147z"/>
	</g>
	<g>
		<g>
			<path class="st62" d="M91.8,143.1c-3.7,0.5-4.9-1.4-7.4-0.9c-6.7,1.5-6.3,7.4-5.4,10c1.2,3.6,5.3,5.1,8.9,5
				c3.3-0.2,6.2-2.1,7.5-5.1C96.9,148.6,95.7,142.5,91.8,143.1z"/>
			<path class="st60" d="M92.6,143.4c-3.7,0.5-4.9-1.4-7.4-0.9c-6.7,1.5-6.3,7.4-5.4,10c1.2,3.6,5.3,5.1,8.9,5
				c3.3-0.1,6.2-2.1,7.5-5.1C97.6,148.9,96.5,142.9,92.6,143.4z"/>
			<path class="st61" d="M94,143.5c0,0.1,0,0.1,0,0.2c0,0,0,0.1,0,0.1c-0.1,0.9-0.2,1.8-0.4,2.7c-0.1,0.1-0.2,0.3-0.3,0.4
				c-1.6,1.9-4.5,1.1-6.8,1.4c-1,0.1-1.9,0.6-2.4,1.5c-1.6,1.6-2.2,4.1-1.5,6.3c1.8,1,3.8,1.5,5.9,1.4c3.3-0.1,6.2-2.1,7.5-5.1
				C97.4,149.4,96.7,144.4,94,143.5z"/>
			<path class="st61" d="M92.1,145.7c0.1-0.9-1.2-1.2-1.8-0.7c-0.3,0.2-0.8,0.1-1.1,0.1c-0.1,0-0.3-0.2-0.4-0.3
				c-0.2-0.2-0.5-0.2-0.8-0.3c-0.9-0.1-1.2,0.8-1.2,1.5c0.1,0.3,0.2,0.6,0.5,0.8c0.4,0.2,0.8,0.4,1.2,0.5c0.6,0.2,1.3,0.2,1.9,0
				C91.5,147.4,92,146.5,92.1,145.7z"/>
			<path class="st62" d="M90.8,145.8c-0.1-0.3-0.5-0.5-0.9-0.4c-0.1,0-0.2,0.1-0.3,0.1h-0.1h-0.3h-0.1c-0.5-0.6-1.5,0.2-1,0.8
				c0.2,0.2,0.5,0.4,0.8,0.5c0.1,0.1,0.3,0.1,0.5,0.1c0.3,0,0.7,0,1-0.1c0.4-0.2,0.6-0.6,0.4-1C90.8,145.9,90.8,145.9,90.8,145.8z"
				/>
			<path class="st62" d="M96.1,152.5c0.8-2,0.8-4.2,0.2-6.2c-0.6,3.7-1.5,6.7-5.6,8.6c-1.8,0.8-4.3,1.8-6.3,1.7c-0.3,0-0.6,0-0.9,0
				c1.6,0.7,3.3,1,5,1C91.9,157.4,94.8,155.5,96.1,152.5z"/>
			<path class="st63" d="M83.3,147.6c-0.1,0.2-0.3,0.3-0.5,0.2s-0.3-0.3-0.2-0.5c0.1-0.2,0.2-0.3,0.4-0.2
				C83.2,147.2,83.4,147.4,83.3,147.6z"/>
			<path class="st64" d="M81.7,151.6c0.2,0.6,0.8,0.6,0.7,0l0,0c0-0.3,0-0.7,0-1c0.1-2.3,1.1-3.8,3.2-3c0.7,0.2,3.2,0.9,1.4,0
				c-0.4-0.2-0.7-0.4-1-0.7c-0.6-0.4-0.9-0.6-1.1-1.4c-0.2-1.3,0.8-1.7,2.2-1.6c0.1,0,0.9,0.2,1.1,0.1s0.4-0.6-0.5-0.8
				c-1.1-0.1-2-0.5-3.1-0.2C79.7,145,81.7,151.6,81.7,151.6z"/>
		</g>
		<path class="st65" d="M84.1,144.5c-0.5-0.4-1.3,0-1.4,0.6c-0.1,0.4,0.2,0.8,0.6,0.8c0.1,0,0.2,0,0.3,0c0.1,0.2,0.3,0.2,0.5,0.1
			c0,0,0.1,0,0.1-0.1C84.5,145.5,84.5,144.9,84.1,144.5z"/>
		<path class="st65" d="M83.1,147.8c-0.1-0.6-0.7-1.2-1.2-0.6c-0.4,0.5-0.4,1.1,0,1.6c0.1,0.1,0.2,0.1,0.3,0.1v0.1
			c0.2,0.2,0.5,0.2,0.7-0.1c0,0,0.1-0.1,0.1-0.1C83.1,148.4,83.2,148.1,83.1,147.8z"/>
	</g>
</g>
<g>
	<g>
		<path class="st66" d="M153,161v7.1c2.3,7.1,13.5,12.4,27,12.4s24.7-5.4,27-12.4V161H153z"/>
		<path class="st67" d="M153,143.2v20.1c2.3,7.1,13.5,12.4,27,12.4s24.7-5.4,27-12.4v-20.1H153z"/>
		<path class="st68" d="M206.9,168.1v-24.8h-17c-1,0.9-2.9,1.9-2.9,3.6c0,10.7-0.4,22.3,0.1,33.1
			C197.2,178.5,205.1,173.9,206.9,168.1z"/>
		<path class="st69" d="M152.5,136l0.4,7.5c2.3,7.1,13.5,12.4,27,12.4s24.7-5.4,27-12.4l0.4-7.5H152.5z"/>
		<path class="st70" d="M207.4,136c0,8.3-12.3,15.1-27.4,15.1s-27.4-6.8-27.4-15.1s12.3-15.1,27.4-15.1S207.4,127.7,207.4,136z"/>
		<path class="st71" d="M207.4,136c0,7.2-11.5,13.1-25.6,13.1s-25.6-5.9-25.6-13.1s11.5-13.1,25.6-13.1S207.4,128.8,207.4,136z"/>
		<path class="st72" d="M206.9,143.5c0-0.3,0-0.5,0-0.8c0-7.2-12.1-13.1-27-13.1s-27,5.9-27,13.1c0,0.3,0,0.5,0.1,0.8
			c2.4,7,13.5,12.3,26.9,12.3S204.5,150.5,206.9,143.5z"/>
		<path class="st73" d="M171,159c0.1-1.6-0.8-3-2.3-3.7c-1-0.6-2.1-0.9-3.2-1.1c-1.6-0.3-2.4-1-3.9-1.4c-3.8-1.1-6,2.8-5.1,5.7
			c0,0.2,0,0.3,0,0.5c-0.2,1.8-0.2,3.7,0,5.5c-0.2,1.2,0,2.5,0.5,3.6c1.4,2.3,4.6,3.4,7,4C171.6,174.2,171,163.6,171,159z"/>
		<path class="st74" d="M196.5,136.7c0,3.4-7.3,6.1-16.4,6.1s-16.4-2.7-16.4-6.1s7.3-6.1,16.4-6.1S196.5,133.4,196.5,136.7z"/>
		<path class="st75" d="M207.3,138.1c0,4.1-9.1,7.5-20.3,7.5s-20.3-3.4-20.3-7.5s9.1-7.5,20.3-7.5S207.3,134,207.3,138.1z"/>
		<path class="st67" d="M180,149.9l-1.4,0.1c-0.4,0-1,0-1.6,0h-1l-1.1-0.1c-1.7-0.1-3.5-0.3-5.2-0.7c-0.9-0.2-1.9-0.4-2.9-0.7
			s-1.9-0.6-2.9-1s-1.9-0.8-2.8-1.3c-0.9-0.5-1.7-1-2.5-1.6c-0.8-0.6-1.5-1.2-2.1-1.9c-0.6-0.6-1.1-1.3-1.5-2
			c-0.4-0.6-0.7-1.2-0.9-1.9c-0.1-0.3-0.2-0.6-0.2-0.9s-0.1-0.5-0.1-0.7c0-0.3,0-0.7,0-1c0-0.2,0-0.4,0-0.4s0,0.1,0,0.4
			c0,0.3,0.1,0.7,0.2,1c0.1,0.2,0.1,0.4,0.2,0.7c0.1,0.2,0.2,0.5,0.3,0.8c0.3,0.6,0.6,1.2,1,1.7c0.5,0.6,1,1.2,1.6,1.8
			c0.7,0.6,1.4,1.1,2.1,1.6c0.8,0.5,1.6,1,2.5,1.4c0.9,0.4,1.8,0.9,2.7,1.2s1.9,0.7,2.8,1s1.9,0.6,2.8,0.8s1.8,0.4,2.6,0.6
			s1.6,0.3,2.4,0.4s1.4,0.2,2,0.3l1.6,0.2L180,149.9z"/>
	</g>
	<g>
		<path class="st23" d="M155.4,124.9c1.5,8.3,14.8,17,27,14.7s21.5-15,20-23.4L155.4,124.9z"/>
		<path class="st24" d="M182,137.3c11.1-2.1,19.8-12.8,20.1-21l-46.4,8.6C159,132.4,170.9,139.3,182,137.3z"/>
		<path class="st25" d="M181.7,135.3c10.2-1.9,18.3-11.1,19.8-18.9l-45.1,8.3C160.6,131.5,171.5,137.1,181.7,135.3z"/>
		<path class="st26" d="M201.5,116.4l-1.6,0.3c-1.9,4.2-4.6,8-8,11.2c-2.2,2-5.6,3.2-8.3,4.1s-14.2,1.3-16.8-0.2
			c-3.2-2-6.1-4.4-8.7-7.2c0-0.1-0.1-0.1-0.1-0.2l-1.5,0.3c4.2,6.8,15.1,12.4,25.3,10.6S200,124.2,201.5,116.4z"/>
		<path class="st24" d="M178.6,120.4c-0.1,0-0.2,0.1-0.4,0.1h-0.1c-0.2-0.1-0.5-0.1-0.7-0.1c-0.7,0.2-1.2,0.9-1,1.6
			c0.1,0.6,0.7,1,1.3,1c0.2,0.1,0.5,0.1,0.7,0.1c0.1,0,0.2-0.1,0.3-0.1c0.1,0,0.2,0,0.3,0c0.7-0.1,1.2-0.8,1.1-1.6
			C180,120.8,179.3,120.3,178.6,120.4z"/>
		<polygon class="st24" points="179.4,135.7 178.3,121.8 182.1,135.2 		"/>
		<polygon class="st24" points="168.1,134 178.3,121.8 170.4,135.6 		"/>
		<polygon class="st24" points="159.9,128.7 178.3,121.8 161.3,131.6 		"/>
		<polygon class="st24" points="191.5,132.4 178.3,121.8 193.1,130 		"/>
		<polygon class="st24" points="199.3,124.5 178.3,121.8 199.4,121.3 		"/>
	</g>
</g>
<g>
	<g>
		<g>
			<path class="st76" d="M73.7,149.8H20.2l4.6,21.6c0,1.3,0.6,3.3,4.7,5c5.6,2.1,11.5,3.1,17.4,3c5.9,0.1,11.9-0.9,17.4-3
				c4.1-1.7,4.7-3.8,4.7-5C69.2,171.3,73.7,149.8,73.7,149.8z"/>
			
				<linearGradient id="SVGID_3_" gradientUnits="userSpaceOnUse" x1="20.2" y1="63.73" x2="73.66" y2="63.73" gradientTransform="matrix(1 0 0 -1 0 228)">
				<stop  offset="0" style="stop-color:#EBBA68"/>
				<stop  offset="1" style="stop-color:#CB613D"/>
			</linearGradient>
			<path class="st77" d="M69.2,171.5c0-0.1,4.5-21.6,4.5-21.6H20.2l4.6,21.6c0,0.5,0.3,1,0.6,1.4c6.8-2.7,21.6-2.6,29.6,4.4
				c0.6,0.5,1.2,1,1.8,1.4c2.6-0.4,5.2-1.2,7.6-2.2C68.5,174.8,69.2,172.7,69.2,171.5z"/>
			<path class="st78" d="M47.3,149.8c0.4,0.2,0.8,0.4,1.2,0.5c9.9,3.3,11.7,25.1,11.2,27.4c0,0.1,0,0.2-0.1,0.4
				c1.6-0.4,3.2-0.9,4.8-1.6c4.1-1.7,4.7-3.8,4.7-5c0-0.1,4.5-21.6,4.5-21.6L47.3,149.8z"/>
			<g>
				<path class="st78" d="M28.4,160.5c0.4,5.2,0,7.5-0.8,7.6s-1.7-2.1-2.1-7.3s0-9.5,0.8-9.6S28,155.3,28.4,160.5z"/>
				<path class="st78" d="M36.3,162.1c0.1,5.2-0.5,7.5-1.3,7.5s-1.5-2.2-1.6-7.4s0.5-9.4,1.3-9.5S36.2,156.9,36.3,162.1z"/>
				<path class="st78" d="M44.1,163.2c0.1,5.2-0.5,7.5-1.3,7.5s-1.5-2.2-1.6-7.4s0.5-9.5,1.3-9.5S44,158,44.1,163.2z"/>
				<path class="st79" d="M64.8,160.5c-0.3,5.2,0,7.5,0.8,7.6s1.7-2.1,2.1-7.3s0-9.5-0.8-9.6S65.2,155.3,64.8,160.5z"/>
				<path class="st79" d="M56.9,162.1c-0.1,5.2,0.5,7.5,1.3,7.5s1.5-2.2,1.6-7.4s-0.5-9.4-1.3-9.5S57,156.9,56.9,162.1z"/>
				<path class="st78" d="M49.1,163.2c-0.1,5.2,0.5,7.5,1.3,7.5s1.5-2.2,1.6-7.4s-0.5-9.5-1.3-9.5S49.2,158,49.1,163.2z"/>
			</g>
			
				<linearGradient id="SVGID_4_" gradientUnits="userSpaceOnUse" x1="19.73" y1="79.64" x2="74.13" y2="79.64" gradientTransform="matrix(1 0 0 -1 0 228)">
				<stop  offset="0" style="stop-color:#F0C283"/>
				<stop  offset="1" style="stop-color:#E15A23"/>
			</linearGradient>
			<path class="st80" d="M74.1,148.4c0,6.7-12.2,12.1-27.2,12.1s-27.2-5.4-27.2-12.1s12.2-12.1,27.2-12.1S74.1,141.7,74.1,148.4z"/>
			<path class="st81" d="M47.3,159.9c-15,0-27.2-5.4-27.2-12.1c0-1.5,0.6-3,1.6-4.1c-1.2,1.2-2,2.9-2,4.6c0,6.7,12.2,12.1,27.2,12.1
				c11.7,0,21.7-3.3,25.5-7.9C68.4,156.8,58.6,159.9,47.3,159.9z"/>
			<path class="st82" d="M46.9,157.2c-7,0-13.5-1.2-18.3-3.3c-4.3-1.9-6.2-4.2-6.2-5.6s1.9-3.6,6.2-5.6c4.8-2.1,11.3-3.3,18.3-3.3
				s13.4,1.2,18.3,3.3c4.3,1.9,6.2,4.2,6.2,5.6s-1.9,3.6-6.2,5.6C60.4,156.1,53.9,157.2,46.9,157.2z"/>
		</g>
		<path class="st83" d="M73.5,143.8c0,6.8-11.9,12.3-26.5,12.3s-26.5-5.5-26.5-12.3s11.9-10.2,26.5-10.2S73.5,137,73.5,143.8z"/>
		<path class="st83" d="M70.6,133.5c0,6.8-10.6,12.3-23.7,12.3s-23.7-5.5-23.7-12.3s10.6-8.8,23.7-8.8S70.6,126.8,70.6,133.5z"/>
		<path class="st83" d="M61.3,126.5c-0.1-5.6-4.6-13.6-10.7-14.5c-2.4-0.3-4.4-1.5-6,0.8c-0.5,0.7-0.2,2.4-0.1,3.1
			c0.6,3.9-0.8,6.1-4.1,8.1c-5,3,0.3,7.8,4.2,8.3c1.9,0.3,3.9,0.6,5.9,0.7c1.3,0,2.5-0.8,3.7-1c1.3-0.4,2.6-1,3.7-1.9
			c0.1-0.1,0.2-0.2,0.3-0.4c1.2-0.3,2.1-1.2,2.5-2.4C61.1,127.3,61.4,126.9,61.3,126.5z"/>
		<path class="st84" d="M69.2,137.8c0.9-1.2,1.4-2.7,1.4-4.2c0-4-3.7-6.3-9.3-7.6c-0.4-5.5-4.8-13.1-10.7-13.9
			c-0.7-0.1-1.4-0.3-2.1-0.4c0.6,0.5,1.3,0.9,2,1.3c1.5,0.8,2.9,1.9,4,3.2c1,1.3,1.8,2.7,2.4,4.2c0.8,1.4,1.3,2.9,1.7,4.5
			c0.1,1,0.4,1.9,1,2.7c0.2,0.2,0.5,0.2,0.8,0.3c1,0.3,1.9,0.7,2.8,1.2c2.3,1.1,3,3.7,3,6c0,0.6-0.1,1.3-0.1,1.9
			c-0.1,1.6-1.6,2-2.9,2.4c-0.4,0.1-0.2,0.7,0.2,0.8c0.6,0,1.2,0,1.8,0c1.9,0,2,2,2.2,3.3c0.3,2,0,4.1-0.9,5.9
			c-1.4,3.4-6,3.9-8.9,5.3c-0.2,0.1-0.2,0.2-0.2,0.4c9.4-1.9,16-6.2,16-11.3C73.5,141.3,71.9,139.3,69.2,137.8z"/>
		<path class="st85" d="M63.9,143.6c0,4.1-9.4,7.4-20.9,7.4s-20.9-3.3-20.9-7.4s9.4-6.2,20.9-6.2S63.9,139.5,63.9,143.6z"/>
		<path class="st85" d="M65.4,131.9c0,5.5-9.4,10-21.1,10s-21.1-4.5-21.1-10s9.4-7.2,21.1-7.2S65.4,126.4,65.4,131.9z"/>
		<path class="st85" d="M56.4,126.5c-0.1-5.6-3.6-13.6-8.4-14.5c-1.9-0.3-3.4-1.5-4.8,0.8c-0.4,0.7-0.2,2.4-0.1,3.1
			c0.5,3.9-0.6,6.1-3.2,8.1c-3.9,3,0.2,7.8,3.3,8.3c1.5,0.3,3.1,0.6,4.6,0.7c1,0,2-0.8,3-1c1.1-0.4,2.1-1.1,2.9-1.9
			c0.1-0.1,0.2-0.2,0.3-0.4c1-0.4,1.8-1.3,2-2.4C56.3,127.3,56.5,126.9,56.4,126.5z"/>
		<path class="st86" d="M41.4,136.1c-6.2,0-10.9-2.4-10.9-4.5c0-1.8,4.1-2.9,10.9-2.9s10.9,1.1,10.9,2.9
			C52.2,133.8,47.6,136.1,41.4,136.1z"/>
		<path class="st86" d="M44.7,148.9c-5.8,0-10.1-2.4-10.1-4.5c0-1.8,3.8-2.9,10.1-2.9s10.1,1.1,10.1,2.9
			C54.8,146.5,50.5,148.9,44.7,148.9z"/>
		<path class="st86" d="M45.3,122.6c-0.3,1.4-0.3,2.8-0.1,4.1c0.5,1.8,4.1,1.3,5.2,0.2c1.5-1.5,1.8-3.5,1.8-5.6
			c-1.2-3.2-3.1-5.9-4.8-6.2c-0.5-0.1-0.9-0.2-1.2-0.3c0,0.2,0.1,0.8,0.1,0.8C46.7,118,46.3,120.4,45.3,122.6z"/>
		<path class="st87" d="M41.2,126.4c0,0.6-0.7,1-1.5,1s-1.5-0.5-1.5-1s0.7-1,1.5-1S41.2,125.8,41.2,126.4z"/>
		<path class="st87" d="M45.8,116.2c0,0.6-0.7,1-1.5,1s-1.5-0.5-1.5-1s0.7-1.1,1.5-1.1S45.8,115.6,45.8,116.2z"/>
		<path class="st87" d="M54.8,124.3c0,0.6-0.7,1-1.5,1s-1.5-0.5-1.5-1s0.7-1,1.5-1S54.8,123.7,54.8,124.3z"/>
		<path class="st87" d="M62.5,132.4c0,0.6-0.7,1-1.5,1s-1.5-0.5-1.5-1s0.7-1,1.5-1S62.5,131.9,62.5,132.4z"/>
		<path class="st87" d="M42.7,135.6c0,0.6-0.7,1.1-1.5,1.1s-1.5-0.5-1.5-1.1s0.7-1,1.5-1S42.7,135,42.7,135.6z"/>
		<path class="st87" d="M28.5,128.7c0,0.6-0.7,1-1.5,1s-1.5-0.5-1.5-1s0.7-1,1.5-1S28.5,128.1,28.5,128.7z"/>
		<path class="st87" d="M29,143c0,0.6-0.7,1.1-1.5,1.1S26,143.6,26,143s0.7-1,1.5-1S29,142.4,29,143z"/>
		<path class="st87" d="M53.3,143.7c0,0.6-0.7,1.1-1.5,1.1s-1.5-0.5-1.5-1.1s0.7-1,1.5-1S53.3,143.1,53.3,143.7z"/>
		<path class="st87" d="M68.4,142.6c0,0.6-0.7,1-1.5,1s-1.5-0.5-1.5-1s0.7-1,1.5-1S68.4,142.1,68.4,142.6z"/>
	</g>
	<g>
		<path class="st88" d="M33.7,130.8"/>
		<path class="st88" d="M34.5,128.3c-0.2-0.7,0.2-1.4-0.5-1.9s-1.2,0.4-1.3,0.9c-0.1,0.2-0.1,0.5-0.1,0.8c-0.1,0.1-0.1,0.2-0.2,0.3
			c-0.1,0.3-0.3,0.7-0.4,1c-0.2,0.5-0.4,1.3,0.2,1.7c0.5,0.1,1,0.1,1.4-0.2h0.2h-0.1c0.1,0,0.3,0,0.4-0.1c0.3-0.1,0.6-0.3,0.7-0.6
			C35.2,129.6,34.7,128.9,34.5,128.3z"/>
	</g>
	<g>
		<path class="st88" d="M61.6,147"/>
		<path class="st88" d="M61.3,144.4c-0.5-0.5-0.4-1.4-1.2-1.5s-0.9,0.8-0.9,1.3c0,0.3,0.1,0.5,0.2,0.8c0,0.1,0,0.2-0.1,0.3
			c0,0.4,0,0.7,0,1.1c0,0.6,0.1,1.4,0.8,1.5c0.5,0.1,0.9-0.4,1.2-0.7c0,0,0.1-0.1,0.1-0.1h-0.1c0.1-0.1,0.3-0.1,0.4-0.2
			c0.2-0.2,0.4-0.5,0.5-0.8C62.5,145.4,61.7,144.9,61.3,144.4z"/>
	</g>
	<g>
		<path class="st88" d="M53.6,131.4"/>
		<path class="st88" d="M55.3,130c0.1-0.6,0.7-1,0.4-1.6s-1-0.2-1.3,0.1c-0.2,0.1-0.3,0.3-0.4,0.5c-0.1,0-0.2,0.1-0.3,0.1
			c-0.3,0.2-0.5,0.4-0.7,0.6c-0.4,0.3-0.9,0.8-0.6,1.3s0.7,0.4,1.1,0.5c0,0,0.1,0,0.1,0l0,0c0.1,0.1,0.2,0.1,0.3,0.1
			c0.3,0.1,0.5,0,0.8-0.1C55.2,131.2,55.1,130.4,55.3,130z"/>
	</g>
	<path class="st88" d="M44.5,124.4l-0.1-0.1c-0.3-0.3-0.5-0.6-0.6-1c0-0.3-0.1-0.7-0.3-1c-0.1-0.2-0.4-0.3-0.7-0.3
		c-0.2,0.1-0.5,0.2-0.6,0.4c-0.1,0.2-0.3,0.3-0.5,0.4c-0.3,0.2-0.8,0.8-0.3,1.3c0.4,0.3,0.8,0.5,1.2,0.7c0.5,0.3,0.9,0.8,1.6,0.6
		c0.3-0.1,0.5-0.4,0.5-0.7C44.7,124.7,44.6,124.5,44.5,124.4z"/>
	<path class="st88" d="M53.1,136.9L53,137c-0.4,0.1-0.8,0.1-1.2,0c-0.3-0.1-0.6-0.3-1-0.3c-0.3,0-0.5,0.2-0.6,0.4
		c-0.1,0.2,0,0.5,0.1,0.7c0.1,0.2,0.1,0.4,0.1,0.6c0,0.4,0.3,1.1,1,0.9c0.4-0.2,0.8-0.4,1.2-0.7c0.5-0.3,1.1-0.4,1.3-1
		C54,137.2,53.6,136.8,53.1,136.9z"/>
	<path class="st88" d="M36.4,145.5l-0.2,0.1c-0.4,0.1-0.8,0.1-1.2,0c-0.3-0.1-0.6-0.3-1-0.3c-0.3,0-0.5,0.2-0.6,0.4
		c-0.1,0.2-0.1,0.5,0.1,0.7c0.1,0.2,0.1,0.4,0.1,0.6c0,0.4,0.3,1.1,1,0.9c0.4-0.2,0.8-0.4,1.2-0.7c0.5-0.3,1.1-0.4,1.3-1
		c0.1-0.3,0-0.7-0.4-0.8C36.7,145.4,36.6,145.4,36.4,145.5z"/>
	<path class="st88" d="M33.6,138.9l-0.1-0.1c-0.2-0.3-0.3-0.7-0.4-1.1c0-0.4,0.1-0.7,0-1.1c-0.1-0.2-0.3-0.4-0.6-0.4
		c-0.3,0-0.5,0.1-0.7,0.3c-0.2,0.1-0.4,0.2-0.6,0.3c-0.3,0.2-0.9,0.7-0.5,1.2c0.3,0.3,0.7,0.6,1,0.9c0.4,0.4,0.7,0.9,1.4,0.9
		c0.3-0.1,0.6-0.4,0.5-0.7C33.7,139,33.7,139,33.6,138.9z"/>
</g>
<g>
	<path class="st89" d="M93,68.7c1.4-0.9,3-1.4,4.6-1.4c1.6,0,3.1,0.5,4.4,1.4l-3.7,3.2L93,68.7z"/>
	<g>
		<path class="st90" d="M84.8,173.7c0,0-2.1,1.6-4.3,3.1c-1.3,0.9-2.1,2.4-2.1,4h13.9c0,0,0.4-5.8-1.1-7.1L84.8,173.7z"/>
		<rect x="78.4" y="179.9" class="st91" width="14" height="0.9"/>
	</g>
	<g>
		<path class="st90" d="M112.5,173.7c0,0,2.1,1.6,4.3,3.1c1.3,0.9,2.1,2.4,2.1,4h-13.9c0,0-0.4-5.8,1.1-7.1L112.5,173.7z"/>
		<rect x="104.9" y="179.9" class="st91" width="14" height="0.9"/>
	</g>
	<g>
		<path class="st92" d="M94.1,67c0.1,1.3,0,2.6-0.2,3.9c-0.2,0.8,4,4.6,4,4.6s3.1-2.5,3.3-4.6c-0.1-1.7-0.4-3.9-0.4-3.9H94.1z"/>
		<g>
			<path class="st93" d="M91.4,58.7c0,0-0.9-0.5-1.4,0.7s0.5,2.9,1.4,3S91.4,58.7,91.4,58.7z"/>
			<path class="st93" d="M104.5,58.7c0,0,0.9-0.3,1.3,0.9s-0.9,2.8-1.9,2.7S104.5,58.7,104.5,58.7z"/>
			<path class="st93" d="M104.3,60c0,4.8-3,8.7-6.6,8.7s-6.6-3.9-6.6-8.7s3-8.7,6.6-8.7S104.3,55.2,104.3,60z"/>
		</g>
	</g>
	<polygon class="st90" points="90.8,58.6 91.5,59.2 93,57.1 90.8,57.1 	"/>
	<polygon class="st90" points="104.7,58.6 104,59.2 102.5,57.1 104.7,57.1 	"/>
	<polygon class="st94" points="83.2,120.4 81.9,175.4 93.6,175.4 97.5,123.1 104.7,175.4 116.1,175.4 111.7,120.4 105.9,113.1 
		90.8,113.1 	"/>
	<path class="st93" d="M130.8,76l4-8.9c0.8-1.7,2.5-3.7,3.7-1.8c1,1.5,1.3,3.3,1,5.1c-0.3,1.4-5.4,7.7-5.4,7.7L130.8,76z"/>
	<path class="st95" d="M121.7,85.8c-2.6-4.3-5.8-9-8-10.7c-2.6-2-12.4-4.3-12.4-4.3s-3.5,3.6-3.8,4.2c-0.4-0.7-3.5-4.2-3.5-4.2
		s-9.5,2.2-12,4c-3.6,2.7-8.8,15.5-11.3,19.7c-0.9,1.7-0.9,3.7,0.2,5.3c2.3,3,12,10,12,10l3.9-6.6l-6.7-6.5l3.1-8.3l0.1,32h28.5
		l0.1-32l3.6,3.8C117.1,89.8,119.5,87.9,121.7,85.8z"/>
	<rect x="89.8" y="75" class="st96" width="14.9" height="45.4"/>
	<rect x="88.5" y="75.9" class="st95" width="15.1" height="44.5"/>
	<path class="st95" d="M104.7,57.7V38c0,0-2.2-2.7-7-2.7S90.8,38,90.8,38v19.7H104.7z"/>
	<path class="st96" d="M92.8,71.1l0.2-2.5c0,0,4.7,3.3,4.5,6.3C95.8,73.9,94.2,72.6,92.8,71.1z"/>
	<path class="st96" d="M102.2,71.1l-0.2-2.5c0,0-4.7,3.3-4.5,6.3C99.2,73.9,100.7,72.6,102.2,71.1z"/>
	<g>
		<path class="st90" d="M93.5,78c0,0.4-0.3,0.8-0.8,0.8S92,78.4,92,78c0-0.4,0.3-0.8,0.8-0.8l0,0C93.2,77.2,93.5,77.6,93.5,78z"/>
		<path class="st90" d="M102.6,78c0,0.4-0.3,0.8-0.8,0.8S101,78.4,101,78c0-0.4,0.3-0.8,0.8-0.8l0,0C102.2,77.2,102.6,77.6,102.6,78
			z"/>
		<path class="st90" d="M93.5,90c0,0.4-0.3,0.8-0.8,0.8S92,90.4,92,90c0-0.4,0.3-0.8,0.8-0.8l0,0C93.2,89.2,93.5,89.6,93.5,90z"/>
		<path class="st90" d="M102.6,90c0,0.4-0.3,0.8-0.8,0.8S101,90.4,101,90c0-0.4,0.3-0.8,0.8-0.8l0,0C102.2,89.2,102.6,89.6,102.6,90
			z"/>
	</g>
	<g>
		<path class="st90" d="M93.5,101c0,0.4-0.3,0.8-0.8,0.8S92,101.4,92,101c0-0.4,0.3-0.8,0.8-0.8l0,0C93.2,100.2,93.5,100.6,93.5,101
			z"/>
		<path class="st90" d="M102.6,101c0,0.4-0.3,0.8-0.8,0.8s-0.8-0.3-0.8-0.8c0-0.4,0.3-0.8,0.8-0.8l0,0
			C102.2,100.2,102.6,100.6,102.6,101z"/>
		<path class="st90" d="M93.5,113c0,0.4-0.3,0.8-0.8,0.8S92,113.4,92,113c0-0.4,0.3-0.8,0.8-0.8l0,0C93.2,112.2,93.5,112.6,93.5,113
			C93.5,113,93.5,113,93.5,113z"/>
		<path class="st90" d="M102.6,113c0,0.4-0.3,0.8-0.8,0.8s-0.8-0.3-0.8-0.8c0-0.4,0.3-0.8,0.8-0.8l0,0
			C102.2,112.2,102.6,112.6,102.6,113C102.6,113,102.6,113,102.6,113z"/>
	</g>
	<polygon class="st97" points="83,107 79.6,150.9 116.1,150.9 111.9,107 	"/>
	<rect x="89.2" y="84.6" class="st97" width="16.6" height="26.3"/>
	<rect x="83" y="105.7" class="st98" width="28.9" height="1.7"/>
	<path class="st95" d="M114.9,91.9c0,0,3.3,4.5,5.7,4.5c2.7,0,4.9-3.8,8.7-8.8c2.4-3.1,4.4-6.5,6.2-10l-4.6-3.7L114.9,91.9z"/>
	<path class="st99" d="M87,95.2l-0.1,0.1c-2.6,5.6-0.3,12.2,5.3,14.9c5.6,2.6,12.2,0.3,14.9-5.3c0,0,0-0.1,0-0.1L87,95.2z"/>
	<path class="st93" d="M84.4,109c1.9,1.5,4,2.8,6.3,3.6c2.6,0.9,5.4,0.7,7.9-0.5c1.1-0.7,0.9-1.5-0.4-1.6s-5.8-1.1-5.8-1.1
		c0.8-0.5,1.5-1.1,2.1-1.8c0.8-0.9,0.4-1.3-0.3-1.2s-2.3,1.2-3,0.9c-1-0.4-4-1.4-4-1.4L84.4,109z"/>
	<path class="st96" d="M129.9,72.5l7.3,5.4L134,85C134,85,126.6,79.1,129.9,72.5z"/>
	<path class="st96" d="M83.1,112.3l5.4-7.3l-5.2-5.8C83.3,99.2,78,107,83.1,112.3z"/>
	<rect x="90.8" y="55.3" class="st96" width="13.9" height="0.8"/>
	<polygon class="st97" points="91.5,85.4 89.4,86.1 85.1,73.3 87.2,72.5 	"/>
	<polygon class="st97" points="103.6,85.4 105.7,86.1 110,73.3 107.9,72.5 	"/>
	<path class="st93" d="M135.9,63.8c-0.3-1-1.1-2.2-1.6-1.8s0.1,1.2,0.1,2.4s-0.6,6.1-0.6,6.1l2.1-3.4
		C136.1,66,136.1,64.9,135.9,63.8z"/>
	<g>
		
			<rect x="135.8" y="49.5" transform="matrix(0.9968 -8.054686e-02 8.054686e-02 0.9968 -4.0938 11.1317)" class="st90" width="0.3" height="13.7"/>
		<path class="st90" d="M137,62.3h-0.3l-0.4-5.1c0-0.7,0.3-1.4,0.8-2c0.8-0.8,1.2-1.9,1.1-3.1c0-0.8-0.3-1.5-0.9-2.1
			c-1.1-0.8-2.7-0.7-3.7,0.4c-0.5,0.7-0.7,1.5-0.5,2.3c0.1,1.1,0.7,2,1.5,2.7c0.6,0.4,1,1.1,1.1,1.8l0.4,5.1h-0.3l-0.4-5.1
			c-0.1-0.6-0.5-1.2-1-1.6c-0.9-0.7-1.5-1.7-1.6-2.8c-0.2-0.9,0-1.8,0.6-2.5c1.1-1.2,2.8-1.4,4.1-0.4c0.6,0.6,1,1.4,1,2.3
			c0,1.2-0.4,2.4-1.2,3.3c-0.5,0.5-0.7,1.1-0.8,1.8L137,62.3z"/>
		<path class="st99" d="M135.6,62.1l0.8,9.7c0,0.6,0.4,1,0.9,1s0.8-0.6,0.7-1.1l-0.8-9.7L135.6,62.1z"/>
	</g>
	<path class="st93" d="M138.1,63.5c0,0-1.5,0.8-1.8,1.5s-0.2,1.2,0.7,0.9c0.8-0.2,1.4-0.6,2-1.2C139.5,64.3,139.1,62.9,138.1,63.5z"
		/>
	<path class="st93" d="M138.4,64.9c0,0-1.5,0.8-1.8,1.5s-0.2,1.2,0.7,0.9c0.8-0.2,1.4-0.6,2-1.2C139.8,65.6,139.4,64.3,138.4,64.9z"
		/>
	<path class="st93" d="M138.6,66.2c0,0-1.5,0.8-1.8,1.5s-0.2,1.2,0.7,0.9c0.8-0.2,1.4-0.6,2-1.2C140,67,139.6,65.6,138.6,66.2z"/>
	<path class="st93" d="M139.1,67.6c0,0-1.5,0.8-1.8,1.5s-0.2,1.2,0.7,0.9c0.8-0.2,1.4-0.6,2-1.2C140.5,68.3,140.1,66.9,139.1,67.6z"
		/>
</g>
<g>
	<g>
		<path class="st27" d="M162,155.9c0,13.5-10.2,24.5-22.9,24.5H132c-12.6,0-22.8-11-22.8-24.5v-6.4H162V155.9z"/>
		<path class="st28" d="M164.8,151.6c0,8.7-13.1,15.7-29.2,15.7s-29.2-7-29.2-15.7s13.1-15.7,29.2-15.7S164.8,142.9,164.8,151.6z"/>
		<path class="st29" d="M132,180.4h7.1c10.8,0,19.9-8.1,22.2-18.9c-1.4,0.1-2.7,1.8-3.5,4.4c-0.5-0.6-1.1-1-1.9-1
			c-1.4,0-2.7,1.6-3.5,4.1c-0.5-1-1.4-1.6-2.5-1.8c-1.7,0-3.2,2.2-3.9,5.5c-0.8-2.4-2-3.9-3.4-3.9s-2.8,1.7-3.6,4.3
			c-0.8-2.6-2.1-4.3-3.6-4.3c-1.7,0-3.1,2.1-3.8,5.2c-0.7-3.1-2.2-5.2-3.8-5.2c-1.4,0-2.7,1.5-3.4,3.9c-0.7-3.2-2.2-5.5-3.9-5.5
			c-1.1,0.1-2,0.8-2.5,1.8c-0.8-2.5-2.1-4.1-3.5-4.1c-0.7,0-1.4,0.4-1.9,1c-0.7-2.3-1.7-3.9-3-4.3
			C112.2,172.4,121.2,180.4,132,180.4z"/>
		<path class="st30" d="M117.9,171.3c0,1.2,0.1,2.2,0.3,2.2s0.3-1,0.3-2.2s-0.1-2.2-0.3-2.2S117.9,170,117.9,171.3z"/>
		<path class="st30" d="M157.7,167.1c0,0.7,0.1,1.3,0.3,1.3s0.3-0.6,0.3-1.3s-0.1-1.3-0.3-1.3S157.7,166.4,157.7,167.1z"/>
		<path class="st30" d="M112.5,167.1c0,0.7,0.1,1.3,0.3,1.3s0.3-0.6,0.3-1.3s-0.1-1.3-0.3-1.3S112.5,166.4,112.5,167.1z"/>
		<path class="st30" d="M124.2,174.9c0,1.2,0.1,2.2,0.3,2.2s0.3-1,0.3-2.2s-0.1-2.2-0.3-2.2S124.2,173.7,124.2,174.9z"/>
		<path class="st30" d="M131.5,176.4c-0.1,0.8,0,1.7,0.3,2.4c0.2,0,0.3-1.1,0.3-2.4s-0.2-2.4-0.3-2.4
			C131.5,174.8,131.4,175.6,131.5,176.4z"/>
		<path class="st30" d="M145.8,174.9c-0.1,0.8,0,1.7,0.3,2.4c0.2,0,0.3-1.1,0.3-2.4s-0.1-2.4-0.3-2.4
			C145.8,173.3,145.7,174.1,145.8,174.9z"/>
		<path class="st30" d="M152.3,171.3c0,1.4,0.1,2.4,0.3,2.4s0.3-1.1,0.3-2.4s-0.1-2.4-0.3-2.4S152.3,169.9,152.3,171.3z"/>
		<path class="st30" d="M138.9,175.9c0,1.6,0.1,2.9,0.3,2.9s0.3-1.3,0.3-2.9s-0.1-2.9-0.3-2.9S138.9,174.3,138.9,175.9z"/>
	</g>
	<path class="st100" d="M109.2,155.9c0,2.1,0.3,4.2,0.8,6.2c0.6-0.3,1.2-0.7,1.6-1.1l0.3-0.3c0.5-0.4,1-0.9,1.4-1.4
		c0.1-0.1,0.2-0.3,0.2-0.4c0-0.1,0.1-0.1,0.1-0.2c0.3,0.1,0.6,0.3,0.8,0.6c0,0.2,0,0.3,0,0.5c0,0.2,0,0.4,0,0.6c0,0.4,0,0.7,0.1,1.1
		c0,0.2,0.1,0.4,0.1,0.6c0.2,1.4,0.5,2.7,1,4c0.5,1.4,1.9,2.4,3.5,2.4c0.9,0,1.8-0.3,2.4-0.9c0.7-0.7,1.3-1.5,1.7-2.4
		c0.2-0.3,0.3-0.6,0.5-0.9c0.1-0.2,0.2-0.3,0.3-0.5c0.1-0.3,0.3-0.5,0.4-0.7h0.1c0.3,0,0.6,0.1,0.8,0.2c0.4,0.3,0.7,0.7,0.9,1.2
		l0.1,0.1c0.6,1.3,1.2,2.6,1.7,4c0.1,0.2,0.1,0.4,0.2,0.5c0.3,1,0.8,2.3,1.9,2.8c0.5,0.2,1.1,0.3,1.7,0.4c0.6,0,1.1-0.2,1.5-0.5
		c0.7-0.8,1.2-1.8,1.3-2.8c0.1-0.3,0.1-0.6,0.2-0.9c0.2-0.5,0.3-1,0.4-1.5c0.2-0.7,0.4-1.5,0.7-2.2l0,0h0.1c0,0.1,0,0.3,0,0.4
		c-0.1,0.3-0.1,0.5-0.1,0.8c0.1,1.1,0.9,2,2,2.1h0.1c1.2-0.1,2.1-1.1,2.3-2.2c0.1-0.3,0.1-0.7,0.1-1c0-0.2,0-0.3,0-0.5
		c0.2-0.1,0.4-0.2,0.6-0.2c0.3,0,0.5,0,0.8,0.1c0.4,0.2,0.7,0.5,0.9,0.9c0.1,0.2,0.3,0.4,0.5,0.5c0.8,0.6,1.7,0.9,2.6,0.9
		c0.2,0,0.4,0,0.7-0.1c1.3-0.2,2.1-1.3,2.7-2.2l0.4-0.5c0.5-0.6,1.2-1.2,1.9-1.6c0.5-0.2,1-0.3,1.5-0.5h0.5c0.3-0.1,0.7,0.1,0.9,0.3
		c0.5,0.6,0.8,1.2,1.1,1.9l0.1,0.3c0.3,0.9,0.9,1.7,1.7,2.3c0.2,0.1,0.4,0.1,0.7,0.1c0.8-0.1,1.6-0.6,1.9-1.4
		c0.3-0.7,0.5-1.3,0.6-2.1c0-0.3,0.1-0.6,0.2-0.9c0.1-0.7,0.2-1.5,0.1-2.2c-0.1-0.7-0.1-1.4,0.2-2l0,0c0.1-0.2,0.2-0.3,0.3-0.4
		c0.1,0.2,0.1,0.4,0.2,0.6v0.2c0.1,0.4,0.3,0.9,0.5,1.3c0.1-1.1,0.2-2.2,0.2-3.3v-6.4h-52.9V155.9z"/>
	<path class="st101" d="M164.9,146.5c-0.3-0.9-0.6-1.7-1-2.5c-3.1-6.8-14.6-11.9-28.4-11.9c-16.1,0-29.2,7-29.2,15.6
		c-0.1,0.7-0.2,1.5-0.1,2.2c0,0.6,0,1.2,0,1.9c0,1.5,0.1,3.1,0.2,4.6c0.1,1.7,0.4,4.7,2.6,5c1,0.1,1.7-0.7,2.3-1.3
		c0.5-0.4,0.9-0.9,1.3-1.3c0.2-0.3,0.4-0.9,0.8-0.9c0.7,0,1.3,0.4,1.7,1c0.3,0.4,0.1,1,0.1,1.6c0,0.5,0.1,1,0.2,1.6
		c0.1,1.3,0.5,2.6,0.9,3.8c0.6,1.5,2.4,2.2,3.8,1.5c0.3-0.1,0.5-0.3,0.7-0.4c0.8-1,1.5-2,2.1-3.2c0.3-0.5,0.6-1.5,1.3-1.6
		c0.5-0.1,1,0.1,1.5,0.3c0.6,0.4,1.1,1,1.3,1.7c0.7,1.3,1.2,2.7,1.8,4c0.4,0.9,0.7,2.5,1.7,2.9c0.6,0.3,1.8,0.5,2.3,0
		c0.9-0.9,0.9-2.2,1.3-3.4s0.8-2.6,1.2-3.9c0-0.1,0.4-0.5,0.5-0.5c0.3,0,0.8-0.2,1,0c0.5,0.4,0.1,1.4,0.2,2s0.5,1.4,1.2,1.4
		c0.9-0.1,1.3-0.8,1.6-1.6c0.2-0.6-0.1-1.4,0.4-1.9c0.7-0.4,1.5-0.5,2.2-0.2c0.9,0.3,1.4,1.4,1.6,1.5c0.8,0.6,1.7,0.8,2.6,0.7
		c1.1-0.2,1.9-1.6,2.6-2.4c0.6-0.7,1.3-1.3,2.2-1.8c0.6-0.2,1.1-0.4,1.6-0.6h0.1c0.8,0,1.5-0.1,2.1,0.6c0.5,0.6,1,1.4,1.3,2.2
		c0.3,0.6,0.7,1.8,1.4,2.1s1.2-0.4,1.4-0.8c0.3-0.9,0.6-1.9,0.7-2.8c0.4-1.4-0.4-3.3,0.4-4.5c0.2-0.3,1-1.6,1.6-0.7
		c0.2,0.4,0.4,0.9,0.5,1.4c0.2,0.5,0.4,1,0.6,1.5c0.3,0.6,1.1,1.1,1.6,0.6c0.8-0.7,0.7-2.2,0.9-3.1c0.4-1.2,0.6-2.4,0.6-3.7
		C165.8,150.8,165.4,148.6,164.9,146.5z"/>
	<path class="st102" d="M162.8,146c0,7.6-12.2,13.7-27.2,13.7s-27.2-6.1-27.2-13.7s12.2-13.7,27.2-13.7S162.8,138.4,162.8,146z"/>
	<path class="st103" d="M164,144c-3.1-6.8-14.6-11.9-28.4-11.9c-3.8,0-7.6,0.4-11.3,1.2c2.5,0.9,4.9,2.1,7.2,3.4
		c1.3,0.9,2.6,2,3.8,3.1c1.3,1.1,2.6,2.1,3.8,3.3c2.2,2.1,3.9,4.6,5.1,7.3c1,2.4,1.6,4.9,2.6,7.3c0.6,1.7,1.4,3.3,2.4,4.8
		c0.6-0.6,1.2-1.1,1.9-1.5c0.6-0.2,1.1-0.4,1.6-0.6h0.1c0.8,0,1.5-0.1,2.1,0.6c0.5,0.6,1,1.4,1.3,2.2c0.3,0.6,0.7,1.8,1.4,2.1
		s1.2-0.4,1.4-0.8c0.3-0.9,0.6-1.9,0.7-2.8c0.4-1.4-0.4-3.3,0.4-4.5c0.2-0.3,1-1.6,1.6-0.7c0.2,0.4,0.4,0.9,0.5,1.4
		c0.2,0.5,0.4,1,0.6,1.5c0.3,0.6,1.1,1.1,1.6,0.6c0.8-0.7,0.7-2.2,0.9-3.1c0.4-1.2,0.6-2.4,0.6-3.7c-0.1-2.2-0.5-4.4-1-6.6
		C164.7,145.6,164.4,144.8,164,144z"/>
	<path class="st104" d="M122.6,162.3L122.6,162.3L122.6,162.3c0-0.1,0-0.1,0-0.1l0,0c0,0,0,0,0-0.1l0,0c0,0,0,0-0.1-0.1l0,0h-0.1
		l0,0h-0.1l0,0l0,0c-0.1,0.1-0.3,0.3-0.4,0.4l0,0v0.1c-0.1,0.1-0.2,0.3-0.3,0.4l-0.1,0.1L121,164c-0.2,0.4-0.4,0.7-0.8,1
		c-0.3,0.3-0.8,0.5-1.3,0.5c-0.5-0.1-0.9-0.6-1.1-1.1c-0.3-0.5-0.5-1.1-0.5-1.7c0-0.3,0-0.7,0-1c0-0.3-0.1-0.7-0.2-1
		c-0.2-0.6-0.3-1.4-0.5-2.1c-0.1-0.4-0.2-0.7-0.4-1.1c-0.2-0.4-0.4-0.7-0.7-1c-0.7-0.6-1.5-0.9-2.4-0.8c-0.5,0-0.9,0.2-1.3,0.4
		l-0.1,0.1l0,0l0,0l0,0l-0.1,0.1l-0.2,0.2c-0.2,0.1-0.3,0.3-0.4,0.4c-0.3,0.3-0.6,0.7-0.7,0.7s-0.1,0-0.2-0.1
		c-0.1-0.1-0.2-0.3-0.2-0.4c-0.1-0.2-0.1-0.3-0.1-0.5l-0.1-0.6c-0.1-0.2-0.1-0.5-0.2-0.7c0,0-0.1-0.2-0.1-0.3s0-0.1,0-0.2
		c0-0.4,0-0.8,0-1.2l0,0c0-0.2,0-0.1,0-0.1l0,0c0,0,0,0,0-0.1c0-0.1,0-0.1-0.1-0.2c0,0-0.1-0.1-0.1-0.1l-0.1-0.1
		c-0.1,0-0.1-0.1-0.2-0.1c-0.1,0-0.3,0-0.4,0.1c-0.1,0.1-0.3,0.2-0.3,0.4c0,0,0,0.1,0,0.1v0.3v0.3c0,0.5,0,0.9,0.1,1.4
		c0.1,0.4,0.3,0.8,0.3,1.2l0.1,0.6c0,0.1,0.1,0.3,0.1,0.4c0,0.1,0.1,0.2,0.2,0.3c0.1,0.1,0.1,0.2,0.2,0.3c0.1,0.1,0.2,0.2,0.3,0.3
		c0.2,0.2,0.5,0.3,0.8,0.3c0.1,0,0.3,0,0.4,0c0.1,0,0.3-0.1,0.4-0.1c0.2-0.1,0.4-0.3,0.6-0.4c0.3-0.3,0.6-0.7,0.8-0.9
		c0.1-0.1,0.3-0.3,0.4-0.4c0.1-0.1,0.1-0.1,0.2-0.1h0.1h0.1c0.2,0,0.3-0.1,0.5-0.1h0.3l0.2,0.1c0.6,0.3,1.1,0.9,1.4,1.5
		c0.1,0.3,0.3,0.7,0.4,1c0,0.2,0.1,0.3,0.1,0.5s0.1,0.4,0.1,0.5c0.1,0.4,0.2,0.7,0.3,1.1c0.1,0.3,0.1,0.7,0.1,1c0,0.2,0,0.4,0.1,0.5
		c0,0.2,0.1,0.3,0.2,0.5c0.1,0.3,0.2,0.6,0.4,0.9c0.3,0.6,0.7,1.1,1.2,1.4l0.4,0.2l0.4,0.1c0.3,0,0.5-0.1,0.8-0.2
		c0.4-0.3,0.7-0.6,1-1.1c0.2-0.3,0.4-0.7,0.6-1.1c0.2-0.5,0.5-0.9,0.9-1.4l0,0l0,0l0,0L122.6,162.3z M122.2,162.7
		C122.2,162.7,122.2,162.7,122.2,162.7C122.2,162.7,122.2,162.7,122.2,162.7z"/>
	<path class="st104" d="M112.3,144.4c0-3,1.5-5.8,4.2-8.1c-5,2.5-8.1,5.9-8.1,9.7c0,7.6,12.2,13.7,27.2,13.7c0.7,0,1.3,0,2,0
		C123.4,159,112.3,152.4,112.3,144.4z"/>
	<path class="st105" d="M135.6,132.1c-11.6,0-21.7,3.6-26.4,8.9c2.9,2.3,7.2,3.1,10.2,4.6c2.7,1.3,15.4,3.5,15.6,1.3
		c0.6-5.2,2.6-9.9,3.7-14.8C137.7,132.1,136.7,132.1,135.6,132.1z"/>
	<g>
		<path class="st106" d="M136,118.5c-3.4-2.5-6.4-1.9-9.6,0.6c-3.4,2.7-3.3,7.7-4.7,11.6c-2.9-2.4-4.9-5.7-9.6-4.4
			c-4.9,1.3-6.1,5.8-4.8,10.1c1.6,5.5,8.6,6.4,13,8.5c2.7,1.3,15.4,3.5,15.6,1.3c0.7-6.1,3.3-11.5,4.3-17.5
			C140.5,124.7,139,121,136,118.5z"/>
		<path class="st107" d="M136,118.5c-0.3-0.2-0.6-0.4-0.9-0.6c0.8,2,1.2,4.2,1,6.4c-0.9,6.9-3.6,13.1-4.2,20.2
			c-0.2,2.5-13.9-0.3-16.8-1.9c-1.4-0.7-2.9-1.4-4.4-2c2.9,1.9,6.8,2.8,9.6,4.2s15.4,3.5,15.6,1.3c0.7-6.1,3.3-11.5,4.3-17.5
			C140.5,124.7,138.9,121,136,118.5z"/>
		<path class="st88" d="M119.6,133c-0.4-0.5-0.8-1-1.3-1.4c-0.2-0.8-0.8-1.4-1.5-1.6c-1.7-0.6-3.5-0.2-4.8,0.9
			c-1.7,1.2-2.1,3.5-0.9,5.1c0.4,0.6,1,1,1.6,1.3c0.6,0.3,1.1,0.7,1.6,1.2c0.6,0.4,1.2,0.7,1.9,0.9c1.3,0.5,3.4,0.8,4.4-0.3
			C122.2,137.4,121.1,134.6,119.6,133z"/>
		<path class="st108" d="M116.3,133.2c-0.2-0.3-0.4-0.5-0.7-0.7c-0.1-0.4-0.4-0.7-0.7-0.8c-0.8-0.3-1.7-0.1-2.4,0.4
			c-0.8,0.6-1,1.7-0.4,2.5c0.2,0.3,0.5,0.5,0.8,0.6c0.3,0.2,0.6,0.4,0.8,0.6c0.3,0.2,0.6,0.3,0.9,0.4c0.7,0.3,1.5,0.3,2.2-0.1
			C117.6,135.3,117.1,134,116.3,133.2z"/>
	</g>
	<path class="st102" d="M138.6,144.2c-1-0.4-2-0.7-3.1-0.8c-1.5,0.1-3,0.4-4.4,0.8c-0.9,0.2-1.8,0.6-2.6,1c-1.5,0.7-2.3,1.8-3.5,2.8
		c-0.2,0.1-0.3,0.4-0.2,0.6c-0.1,0.4,0.2,0.7,0.5,0.8c0.2,0,0.3,0,0.5-0.1c1.5-0.6,3-0.8,4.6-0.7c1.5,0.1,3-0.1,4.4-0.6
		c1.3-0.5,4.1-1.7,4.3-3.2C139.1,144.5,138.9,144.2,138.6,144.2z"/>
	<g>
		<path class="st105" d="M145.5,147.2c-0.4,1.3-2.7,1.7-5.2,1s-4.2-2.4-3.8-3.7s2.7-1.7,5.2-1S145.9,145.9,145.5,147.2z"/>
		<path class="st109" d="M145.1,146.7c-0.4,1.3-2.5,1.8-4.8,1.1s-3.8-2.3-3.4-3.5s2.5-1.8,4.8-1.1S145.5,145.4,145.1,146.7z"/>
		<path class="st110" d="M143.9,146.3c-0.3,1.1-2.1,1.4-4.1,0.9s-3.3-1.9-3-3s2.1-1.4,4.1-0.9S144.2,145.3,143.9,146.3z"/>
		<path class="st111" d="M141,145.4c-0.2,0.5-1.1,0.7-2,0.4s-1.6-0.9-1.4-1.4s1.1-0.7,2-0.4S141.1,144.9,141,145.4z"/>
	</g>
	<g>
		<path class="st105" d="M138.1,147.7c0.6,1.1-0.4,2.9-2.3,4s-3.9,1.1-4.6,0.1s0.4-2.9,2.3-4S137.5,146.6,138.1,147.7z"/>
		<path class="st112" d="M138,147.7c0.6,1-0.4,2.5-2.1,3.5s-3.5,1-4.1,0.1s0.4-2.5,2-3.5S137.5,146.8,138,147.7z"/>
		<path class="st113" d="M137.1,148.2c0.5,0.8-0.3,2.1-1.8,3s-3,0.9-3.5,0.1s0.3-2.1,1.8-3S136.7,147.4,137.1,148.2z"/>
		<path class="st111" d="M135,149.5c0.2,0.4-0.2,1-0.9,1.4s-1.5,0.4-1.7,0.1s0.2-1,0.9-1.4S134.7,149.1,135,149.5z"/>
	</g>
	<g>
		<g>
			<path class="st114" d="M120.9,148.9c-0.2,0.2-0.4,0.2-0.6,0l-1.9-1.9c-0.2-0.1-0.2-0.4,0-0.5c0,0,0,0,0,0c0.2-0.2,0.4-0.2,0.6,0
				l1.9,1.9C121.1,148.5,121.1,148.7,120.9,148.9z"/>
			<path class="st115" d="M118.7,146.7c-0.1-0.1-0.2-0.1-0.3-0.2c-0.1,0.1,0,0.3,0.1,0.4l1.9,1.9c0.1,0.1,0.2,0.1,0.4,0.1
				c0-0.1,0-0.2-0.2-0.4L118.7,146.7z"/>
		</g>
		<g>
			<path class="st114" d="M122.3,152.4c-0.1,0.2-0.3,0.3-0.5,0.3l-2.6-0.7c-0.2-0.1-0.3-0.3-0.3-0.5c0,0,0,0,0,0
				c0.1-0.2,0.3-0.3,0.5-0.3l2.6,0.7C122.3,152,122.4,152.2,122.3,152.4C122.3,152.4,122.3,152.4,122.3,152.4z"/>
			<path class="st115" d="M119.3,151.7c-0.1,0-0.2,0-0.3,0c0,0.2,0.1,0.3,0.3,0.4l2.6,0.7c0.1,0,0.3,0,0.4-0.1
				c-0.1-0.1-0.2-0.2-0.3-0.2L119.3,151.7z"/>
		</g>
		<g>
			<path class="st114" d="M151.5,151.1c-0.1,0.2-0.3,0.3-0.5,0.3l-2.6-0.7c-0.2-0.1-0.3-0.3-0.3-0.5s0.3-0.3,0.5-0.3l0,0l2.6,0.7
				C151.4,150.6,151.5,150.8,151.5,151.1C151.5,151.1,151.5,151.1,151.5,151.1z"/>
			<path class="st115" d="M148.5,150.3c-0.1,0-0.2,0-0.4,0c0,0.2,0.1,0.3,0.3,0.3l2.6,0.7c0.1,0,0.3,0,0.4-0.1
				c-0.1-0.1-0.2-0.2-0.3-0.2L148.5,150.3z"/>
		</g>
		<g>
			<path class="st114" d="M131.4,154c0.1,0.2-0.1,0.4-0.3,0.5l-2.6,0.7c-0.2,0.1-0.4-0.1-0.5-0.3c0,0,0,0,0,0
				c-0.1-0.2,0.1-0.4,0.3-0.5l2.6-0.7C131.2,153.7,131.4,153.8,131.4,154C131.4,154,131.4,154,131.4,154z"/>
			<path class="st115" d="M128.4,154.8c-0.1,0-0.2,0.1-0.3,0.2c0.1,0.1,0.3,0.2,0.4,0.1l2.6-0.7c0.1,0,0.3-0.2,0.3-0.3
				c-0.1-0.1-0.3-0.1-0.4,0L128.4,154.8z"/>
		</g>
		<g>
			<path class="st114" d="M129.4,149.2c0.1,0.2,0.1,0.4-0.1,0.6l-2.1,1.7c-0.2,0.1-0.4,0.1-0.5-0.1c0,0,0,0,0,0
				c-0.1-0.2-0.1-0.4,0.1-0.6l2.1-1.7C129.1,149,129.3,149,129.4,149.2C129.4,149.2,129.4,149.2,129.4,149.2z"/>
			<path class="st115" d="M127,151.1c-0.1,0.1-0.2,0.2-0.2,0.3c0.1,0.1,0.3,0.1,0.4,0l2.1-1.7c0.1-0.1,0.2-0.2,0.1-0.4
				c-0.1,0-0.3,0-0.4,0.1L127,151.1z"/>
		</g>
		<g>
			<path class="st114" d="M142,150.7c0.2-0.1,0.4-0.1,0.5,0.1l1.4,2.3c0.1,0.2,0.1,0.4-0.1,0.5c0,0,0,0,0,0
				c-0.2,0.1-0.4,0.1-0.5-0.1c0,0,0,0,0,0l-1.4-2.3C141.8,151,141.8,150.8,142,150.7z"/>
			<path class="st115" d="M143.6,153.3c0.1,0.1,0.2,0.2,0.3,0.2c0.1-0.1,0.1-0.3,0-0.4l-1.4-2.3c-0.1-0.1-0.2-0.2-0.4-0.2
				c0,0.1,0,0.3,0.1,0.4L143.6,153.3z"/>
		</g>
		<g>
			<path class="st114" d="M139,139.1c0.1-0.2,0.3-0.3,0.5-0.2l2.5,1.1c0.2,0.1,0.3,0.3,0.2,0.5c-0.1,0.2-0.3,0.3-0.5,0.2l-2.5-1.1
				C139,139.5,138.9,139.3,139,139.1z"/>
			<path class="st115" d="M141.9,140.3c0.1,0,0.2,0,0.3,0c0-0.2-0.1-0.3-0.2-0.4l-2.5-1.1c-0.1-0.1-0.3,0-0.4,0.1
				c0,0.1,0.1,0.2,0.3,0.3L141.9,140.3z"/>
		</g>
		<g>
			<path class="st114" d="M136.7,153.7c0.1-0.2,0.3-0.3,0.5-0.2l2.5,1.1c0.2,0.1,0.3,0.3,0.2,0.5c-0.1,0.2-0.3,0.3-0.5,0.2l-2.5-1.1
				C136.7,154.2,136.6,153.9,136.7,153.7z"/>
			<path class="st115" d="M139.6,154.9c0.1,0,0.2,0,0.4,0c0-0.2-0.1-0.3-0.2-0.4l-2.5-1.1c-0.1-0.1-0.2-0.1-0.3-0.1
				c-0.1,0.1-0.1,0.2-0.1,0.3c0.1,0.1,0.2,0.1,0.3,0.1L139.6,154.9z"/>
		</g>
		<g>
			<path class="st114" d="M148.5,146c-0.1-0.2,0-0.4,0.2-0.5c0,0,0,0,0,0l2.5-0.9c0.2-0.1,0.4,0,0.5,0.2c0,0,0,0,0,0
				c0.1,0.2,0,0.4-0.2,0.5c0,0,0,0,0,0l-2.5,0.9C148.8,146.3,148.6,146.2,148.5,146C148.5,146,148.5,146,148.5,146z"/>
			<path class="st115" d="M151.4,145c0.1,0,0.2-0.1,0.3-0.2c-0.1-0.1-0.3-0.2-0.4-0.1l-2.5,0.9c-0.1,0-0.2,0.2-0.3,0.3
				c0.1,0.1,0.3,0.1,0.4,0L151.4,145z"/>
		</g>
		<g>
			<path class="st114" d="M146.4,140.6c0-0.2,0.2-0.4,0.4-0.4c0,0,0,0,0,0l2.7,0.2c0.2,0,0.4,0.2,0.4,0.4c0,0.2-0.2,0.4-0.4,0.4
				l-2.7-0.2C146.5,141,146.4,140.8,146.4,140.6C146.3,140.6,146.3,140.6,146.4,140.6z"/>
			<path class="st115" d="M149.5,140.7c0.1,0,0.2,0,0.3-0.1c0-0.2-0.2-0.3-0.4-0.3l-2.7-0.2c-0.1,0-0.3,0.1-0.4,0.2
				c0.1,0.1,0.2,0.2,0.4,0.2L149.5,140.7z"/>
		</g>
	</g>
</g>
</svg>
