<svg xmlns="http://www.w3.org/2000/svg" xmlns:xlink="http://www.w3.org/1999/xlink" viewBox="0 0 225.89 225.89">
  <defs>
    <style>
      .cls-1, .cls-5 {
        isolation: isolate;
      }

      .cls-2 {
        fill: #e0baaa;
      }

      .cls-3 {
        opacity: 0.71;
      }

      .cls-4 {
        fill: #dbb58d;
      }

      .cls-5 {
        font-size: 15.74px;
        fill: #633e37;
        font-family: Oswald-Regular, Oswald;
      }

      .cls-6 {
        fill: #a86725;
      }

      .cls-7 {
        fill: #e2a66a;
      }

      .cls-8 {
        fill: #d48d46;
      }

      .cls-9 {
        fill: #ff5842;
      }

      .cls-10 {
        fill: #ff6d59;
      }

      .cls-11 {
        fill: #ff8a7a;
      }

      .cls-12 {
        fill: #fad850;
      }

      .cls-13 {
        fill: #faee75;
      }

      .cls-14 {
        fill: #fbf5b5;
      }

      .cls-15 {
        fill: #ffe36d;
      }

      .cls-16 {
        fill: #f1ce58;
      }

      .cls-17 {
        fill: #98c04c;
      }

      .cls-18 {
        fill: #9b7b93;
      }

      .cls-19 {
        fill: #bf91b4;
      }

      .cls-20 {
        fill: #dbced8;
      }

      .cls-104, .cls-106, .cls-20, .cls-32, .cls-69, .cls-73, .cls-76 {
        mix-blend-mode: multiply;
      }

      .cls-21 {
        fill: #e0aad3;
      }

      .cls-22 {
        fill: #ab82a1;
      }

      .cls-23 {
        fill: #cfac00;
      }

      .cls-24 {
        fill: #f1cd13;
      }

      .cls-25 {
        fill: #f8f0d1;
      }

      .cls-26 {
        fill: #f0db51;
      }

      .cls-27 {
        fill: #d1c753;
      }

      .cls-28 {
        fill: #783723;
      }

      .cls-29 {
        fill: #9b472d;
      }

      .cls-30 {
        fill: #a16956;
      }

      .cls-31 {
        fill: #c48e74;
      }

      .cls-32 {
        fill: #c4a287;
      }

      .cls-33 {
        fill: #b7da6f;
      }

      .cls-34 {
        fill: #89b543;
      }

      .cls-35 {
        fill: #d3ee83;
      }

      .cls-36 {
        fill: #e7f0ce;
      }

      .cls-37 {
        fill: #ffd359;
      }

      .cls-38 {
        fill: url(#linear-gradient);
      }

      .cls-39 {
        fill: #d47028;
      }

      .cls-40 {
        fill: #b35e22;
      }

      .cls-41 {
        fill: url(#linear-gradient-2);
      }

      .cls-42 {
        fill: #4a0014;
      }

      .cls-43 {
        fill: #a31c20;
      }

      .cls-44 {
        fill: #861319;
      }

      .cls-45 {
        fill: #50090c;
      }

      .cls-46 {
        fill: #c27f5d;
      }

      .cls-47 {
        fill: #bb3e3c;
      }

      .cls-48 {
        fill: #efdbdd;
      }

      .cls-49 {
        fill: #a91419;
      }

      .cls-50 {
        fill: #8c0d13;
      }

      .cls-51 {
        fill: #560509;
      }

      .cls-52 {
        fill: #c87c56;
      }

      .cls-53 {
        fill: #c13634;
      }

      .cls-54 {
        fill: #f5d4d7;
      }

      .cls-55 {
        fill: #b1151a;
      }

      .cls-56 {
        fill: #940e14;
      }

      .cls-57 {
        fill: #5e060a;
      }

      .cls-58 {
        fill: #d09e85;
      }

      .cls-59 {
        fill: #c93836;
      }

      .cls-60 {
        fill: #dab3b3;
      }

      .cls-61 {
        fill: #d61920;
      }

      .cls-62 {
        fill: #b91219;
      }

      .cls-63 {
        fill: #83090e;
      }

      .cls-64 {
        fill: #f5ba9d;
      }

      .cls-65 {
        fill: #ee4240;
      }

      .cls-66 {
        fill: #ffd2d1;
      }

      .cls-67 {
        fill: #c4601d;
      }

      .cls-68 {
        fill: #ffd6d4;
      }

      .cls-69 {
        fill: #ffcfcc;
      }

      .cls-70 {
        fill: #f04d54;
      }

      .cls-71 {
        fill: #ff999d;
      }

      .cls-72 {
        fill: #ff666c;
      }

      .cls-73 {
        fill: #ffb5d5;
      }

      .cls-74 {
        fill: #ffeceb;
      }

      .cls-75 {
        fill: #f2273f;
      }

      .cls-76 {
        fill: #db9b81;
      }

      .cls-77 {
        fill: #ffc661;
      }

      .cls-78 {
        fill: url(#linear-gradient-3);
      }

      .cls-79 {
        fill: #c9653e;
      }

      .cls-80 {
        fill: #a85231;
      }

      .cls-81 {
        fill: url(#linear-gradient-4);
      }

      .cls-82 {
        fill: #f4e9ce;
      }

      .cls-83 {
        fill: #c9714e;
      }

      .cls-84 {
        fill: #feb240;
      }

      .cls-85 {
        fill: #d67a24;
      }

      .cls-86 {
        fill: #ffd46b;
      }

      .cls-87 {
        fill: #feff99;
      }

      .cls-88 {
        fill: #f06267;
      }

      .cls-89 {
        fill: #965b43;
      }

      .cls-90 {
        fill: #a8a8a8;
      }

      .cls-91 {
        fill: #3c3c3c;
      }

      .cls-92 {
        fill: #30302e;
      }

      .cls-93 {
        fill: #ed8a40;
      }

      .cls-94 {
        fill: #ffb680;
      }

      .cls-95 {
        fill: #606060;
      }

      .cls-96 {
        fill: #fff;
      }

      .cls-97 {
        fill: #d8d8d8;
      }

      .cls-98 {
        fill: #5b9b31;
      }

      .cls-99 {
        fill: #8dd35f;
      }

      .cls-100 {
        fill: #a83800;
      }

      .cls-101 {
        fill: #7d3722;
      }

      .cls-102 {
        fill: #c94f67;
      }

      .cls-103 {
        fill: #e05873;
      }

      .cls-104 {
        fill: #ffd4dc;
      }

      .cls-105 {
        fill: #fb7383;
      }

      .cls-106 {
        fill: #de92a0;
      }

      .cls-107 {
        fill: #662c1e;
      }

      .cls-108 {
        fill: #4d180b;
      }

      .cls-109 {
        fill: #c47959;
      }

      .cls-110 {
        fill: #fbb0b8;
      }

      .cls-111 {
        fill: #ffd9dd;
      }

      .cls-112 {
        fill: #fff0f1;
      }

      .cls-113 {
        fill: #cc8e74;
      }

      .cls-114 {
        fill: #ffdfbf;
      }

      .cls-115 {
        fill: #f4dcd0;
      }

      .cls-116 {
        fill: #d9c3b9;
      }
    </style>
    <linearGradient id="linear-gradient" x1="52.34" y1="164.56" x2="112.46" y2="164.56" gradientUnits="userSpaceOnUse">
      <stop offset="0" stop-color="#f6c953"/>
      <stop offset="1" stop-color="#d66d2a"/>
    </linearGradient>
    <linearGradient id="linear-gradient-2" x1="50.35" y1="148.65" x2="114.46" y2="148.65" gradientUnits="userSpaceOnUse">
      <stop offset="0" stop-color="#fbc16f"/>
      <stop offset="1" stop-color="#ec8940"/>
    </linearGradient>
    <linearGradient id="linear-gradient-3" x1="20.2" y1="164.27" x2="73.66" y2="164.27" gradientUnits="userSpaceOnUse">
      <stop offset="0" stop-color="#ebba68"/>
      <stop offset="1" stop-color="#cb613d"/>
    </linearGradient>
    <linearGradient id="linear-gradient-4" x1="19.73" y1="148.36" x2="74.13" y2="148.36" gradientUnits="userSpaceOnUse">
      <stop offset="0" stop-color="#f0c283"/>
      <stop offset="1" stop-color="#e15a23"/>
    </linearGradient>
  </defs>
  <title>P1_1</title>
  <g class="cls-1">
    <g id="圖層_2" data-name="圖層 2">
      <g id="圖層_1-2" data-name="圖層 1">
        <rect class="cls-2" width="225.89" height="225.89"/>
        <g class="cls-3">
          <rect class="cls-4" y="181.21" width="225.89" height="44.68"/>
        </g>
        <text class="cls-5" transform="translate(68.52 209.49)">SINGLE PERSON</text>
        <g>
          <g>
            <path class="cls-6" d="M85.46,78.43H79.2v30.89h0a2.58,2.58,0,0,0,0,.39,3.13,3.13,0,0,0,6.26,0c0-.13,0-.26,0-.39h0Z"/>
            <path class="cls-7" d="M84.63,78.43H78.37v30.89h0a2.58,2.58,0,0,0,0,.39,3.13,3.13,0,0,0,6.26,0c0-.13,0-.26,0-.39h0Z"/>
            <path class="cls-8" d="M78.37,81.06c1.39.56,3.22,1.67,3.13,3.63-.14,3,2,16.29.19,28.13a3.12,3.12,0,0,0,2.94-3.11c0-.13,0-.26,0-.39h0V78.43H78.37Z"/>
          </g>
          <g>
            <rect class="cls-9" x="65.73" y="25.82" width="32.36" height="59.13" rx="16.18"/>
            <path class="cls-10" d="M78.25,25.86A13.49,13.49,0,0,0,65.73,39.31V71.47A13.49,13.49,0,0,0,78.25,84.92,13.49,13.49,0,0,0,90.76,71.47V39.31A13.49,13.49,0,0,0,78.25,25.86Z"/>
            <path class="cls-11" d="M71.87,71.16V39a13.48,13.48,0,0,1,9-12.7,13.88,13.88,0,0,0-2.59-.44A13.49,13.49,0,0,0,65.73,39.31V71.47A13.49,13.49,0,0,0,78.25,84.92a13.45,13.45,0,0,0,3.54-.75A13.5,13.5,0,0,1,71.87,71.16Z"/>
            <path class="cls-12" d="M98.09,71.47V66.31c-7.36,3.09-8.53-6-22.13-7.83a22.17,22.17,0,0,0-10.23.7V71.47a13.74,13.74,0,0,0,.44,3.41c7.64-2.41,10.67,0,18.68,6.69a13.56,13.56,0,0,0,4.51,2.52A13.49,13.49,0,0,0,98.09,71.47Z"/>
            <path class="cls-12" d="M98.09,39.44c-7.36,3.08-8.53-6-22.13-7.83a24.21,24.21,0,0,0-7.86.08,13.41,13.41,0,0,0-2.37,7.62v8.84c8-2.64,11-.29,19.12,6.55,4.51,3.77,9.46,3.55,13.24,2.42Z"/>
            <path class="cls-13" d="M84.85,54.7a13.23,13.23,0,0,0,5.91,2.89V39.31c0-.33,0-.65-.05-1-3.16-2.15-6.86-5.65-14.75-6.72a24.76,24.76,0,0,0-7.85.07l-.15.21-.23.37q-.2.32-.36.63l-.2.37c-.14.28-.27.56-.39.85,0,.07-.06.13-.08.19-.14.35-.26.71-.38,1.07,0,.12-.06.24-.1.36s-.13.52-.19.78,0,.27-.08.41l-.12.81c0,.13,0,.25,0,.38,0,.4-.06.8-.06,1.2v8.84C73.69,45.51,76.69,47.86,84.85,54.7Z"/>
            <path class="cls-13" d="M65.82,72.93c0,.38.09.75.16,1.12a.29.29,0,0,1,0,.09c0,.25.12.49.18.73,7.63-2.4,10.66,0,18.67,6.7q.34.29.69.54a13.46,13.46,0,0,0,5.22-10.64V65.24c-3.17-2.15-6.87-5.68-14.8-6.76a22.17,22.17,0,0,0-10.23.7V71.47c0,.39,0,.78.06,1.16Z"/>
            <path class="cls-14" d="M65.82,72.93c0,.15,0,.29.06.43s.06.47.1.69a.29.29,0,0,1,0,.09l.06.25.12.48a15.39,15.39,0,0,1,6-.86,13.38,13.38,0,0,1-.31-2.85V58.21a19.51,19.51,0,0,0-6.14,1V71.47c0,.39,0,.78.06,1.16Z"/>
            <path class="cls-14" d="M71.87,47.12V39a13.44,13.44,0,0,1,2.34-7.58,23.64,23.64,0,0,0-6.1.26l-.15.21-.23.37c-.13.21-.25.42-.36.64s-.14.24-.2.36c-.14.28-.27.56-.39.85,0,.07-.06.13-.08.19-.09.21-.15.43-.23.64l-.15.43c0,.12-.06.24-.1.36s-.13.52-.19.78,0,.27-.08.41l-.12.81c0,.13,0,.25,0,.38h0c0,.4-.06.8-.06,1.2v8.84A16.5,16.5,0,0,1,71.87,47.12Z"/>
          </g>
        </g>
        <g>
          <path class="cls-15" d="M174.47,146.93a533.8,533.8,0,0,1-65.85,0,185.49,185.49,0,0,1-2.71-29.19h71.28Z"/>
          <path class="cls-16" d="M175.22,138.9,177,119.78H106a186,186,0,0,0,1.45,19.12Z"/>
          <path class="cls-17" d="M175.41,136.86l1.78-19.12H105.91a183.21,183.21,0,0,0,1.28,19.12Z"/>
          <path class="cls-18" d="M106.25,126.34h70.14l.8-8.6H105.91C105.94,120.62,106.07,123.49,106.25,126.34Z"/>
          <path class="cls-19" d="M177.19,117.74H105.91S103.62,100.5,125.84,94a2.59,2.59,0,0,1,1.56,0C132.63,95.81,163.67,106.78,177.19,117.74Z"/>
          <path class="cls-20" d="M177.19,117.74H105.91c0,1.26.08,2.51.12,3.76,13,.25,43.67,2.21,49.51,3.2,8.15,1.37,7,12.37,8.58,18.18a23.2,23.2,0,0,1,.56,4.55c3.27-.14,6.54-.3,9.79-.5Z"/>
          <path class="cls-21" d="M114.21,111.47c-1.37-1.62-2.8-9.22,8.46-14.81-16,6.1-14.2,19.3-14.2,19.3h14.9C119.28,115.05,116,113.62,114.21,111.47Z"/>
          <path class="cls-22" d="M140.06,117.09a2.92,2.92,0,0,0-1.24.65h38.37c-13.52-11-44.56-21.93-49.79-23.73a2.44,2.44,0,0,0-1.51,0l-.73.22a1.25,1.25,0,0,0,1.36.61c.32-.06,3.89,2.55,4.43,2.87a76.68,76.68,0,0,1,6.89,4c2.92,2.15,5.17,2.86,7.22,6.27C148.06,113,144.79,116.16,140.06,117.09Z"/>
          <path class="cls-21" d="M154.93,115.68h14.26c-.64-.4-1.72-1.63-2.41-2C163.38,114,159.62,115.27,154.93,115.68Z"/>
          <path class="cls-20" d="M154.41,109.93c0,1.87-7.87,3.38-17.58,3.38s-15.11-1.51-15.11-3.38,5.41-3.37,15.11-3.37S154.41,108.07,154.41,109.93Z"/>
          <path class="cls-20" d="M147,109.93c0,1.87-4.56,3.38-10.18,3.38s-10.17-1.51-10.17-3.38,4.55-3.37,10.17-3.37S147,108.07,147,109.93Z"/>
          <g>
            <path class="cls-23" d="M118.21,98.89c.72,6.53,10.5,14,20.12,12.91s17.54-10.45,16.82-17Z"/>
            <path class="cls-24" d="M118.21,98.89c.72,6.53,10.54,13.41,20.16,12.35s17.5-9.89,16.78-16.43Z"/>
            <path class="cls-25" d="M138.13,110c8.75-1,16.06-8.81,16.78-15.15l-36.46,4C120.53,104.88,129.38,111,138.13,110Z"/>
            <path class="cls-26" d="M138,108.42c8-.88,14.81-7.55,16.45-13.53L119,98.8C121.85,104.28,129.94,109.31,138,108.42Z"/>
            <path class="cls-27" d="M154.41,94.89l-1.25.14a27.54,27.54,0,0,1-6.83,8.2c-1.8,1.43-4.49,2.15-6.69,2.74s-11.11.17-13-1.12a33.15,33.15,0,0,1-6.34-6l-.09-.13L119,98.8c2.9,5.48,11,10.51,19,9.62S152.77,100.87,154.41,94.89Z"/>
            <path class="cls-25" d="M136.4,96.75c-.11,0-.7-.06-.92,0a1,1,0,0,0,.08,2.06.91.91,0,0,0,.55.1.77.77,0,0,0,.27-.08,1,1,0,0,0,.25,0A1,1,0,0,0,136.4,96.75Z"/>
            <polygon class="cls-25" points="136.21 108.62 136.06 97.77 138.29 108.39 136.21 108.62"/>
            <polygon class="cls-25" points="127.49 106.68 136.06 97.77 129.24 108.08 127.49 106.68"/>
            <polygon class="cls-25" points="121.47 102.12 136.06 97.77 122.37 104.44 121.47 102.12"/>
            <polygon class="cls-25" points="145.74 106.72 136.06 97.77 147.11 104.96 145.74 106.72"/>
            <polygon class="cls-25" points="152.37 101.13 136.09 97.63 152.71 98.67 152.37 101.13"/>
          </g>
        </g>
        <g>
          <g>
            <path class="cls-28" d="M98.68,114.06c0,12.9-9.76,23.36-21.81,23.36H70.05c-12,0-21.81-10.46-21.81-23.36v-6.13H98.68Z"/>
            <path class="cls-29" d="M101.34,109.92c0,8.25-12.48,15-27.88,15s-27.88-6.7-27.88-15S58.06,95,73.46,95,101.34,101.66,101.34,109.92Z"/>
            <path class="cls-30" d="M70.05,137.42h6.82c10.33,0,19-7.7,21.23-18-1.39.1-2.6,1.75-3.32,4.23a2.45,2.45,0,0,0-1.8-1c-1.38,0-2.59,1.54-3.34,3.89a3,3,0,0,0-2.36-1.69c-1.63,0-3,2.13-3.7,5.21-.75-2.24-1.94-3.69-3.27-3.69s-2.69,1.64-3.43,4.13c-.74-2.49-2-4.13-3.42-4.13s-2.95,2-3.64,5c-.69-3-2.06-5-3.65-5-1.34,0-2.52,1.45-3.27,3.69-.67-3.08-2.07-5.21-3.7-5.21a3,3,0,0,0-2.36,1.69c-.75-2.35-2-3.89-3.34-3.89a2.45,2.45,0,0,0-1.8,1c-.64-2.2-1.66-3.75-2.86-4.14C51.12,129.77,59.75,137.42,70.05,137.42Z"/>
            <path class="cls-31" d="M56.53,128.69c0,1.18.14,2.14.31,2.14s.31-1,.31-2.14-.14-2.13-.31-2.13S56.53,127.51,56.53,128.69Z"/>
            <path class="cls-31" d="M94.59,124.76c0,.69.14,1.25.31,1.25s.31-.56.31-1.25-.14-1.25-.31-1.25S94.59,124.07,94.59,124.76Z"/>
            <path class="cls-31" d="M51.42,124.76c0,.69.14,1.25.31,1.25s.31-.56.31-1.25-.14-1.25-.31-1.25S51.42,124.07,51.42,124.76Z"/>
            <path class="cls-31" d="M62.59,132.18c0,1.18.14,2.14.31,2.14s.31-1,.31-2.14-.14-2.13-.31-2.13S62.59,131,62.59,132.18Z"/>
            <path class="cls-31" d="M69.56,133.57c0,1.29.14,2.33.31,2.33s.31-1,.31-2.33-.14-2.32-.31-2.32S69.56,132.29,69.56,133.57Z"/>
            <path class="cls-31" d="M83.24,132.18c0,1.28.14,2.32.31,2.32s.3-1,.3-2.32-.13-2.32-.3-2.32S83.24,130.9,83.24,132.18Z"/>
            <path class="cls-31" d="M89.42,128.69c0,1.28.14,2.32.31,2.32s.31-1,.31-2.32-.14-2.32-.31-2.32S89.42,127.41,89.42,128.69Z"/>
            <path class="cls-31" d="M76.59,133.13a6.48,6.48,0,0,0,.31,2.77,6.48,6.48,0,0,0,.31-2.77,6.48,6.48,0,0,0-.31-2.77A6.48,6.48,0,0,0,76.59,133.13Z"/>
          </g>
          <path class="cls-32" d="M100.77,107.69c0,7-12.28,12.66-27.42,12.66s-27.41-5.67-27.41-12.66,12.27-10.5,27.41-10.5S100.77,100.69,100.77,107.69Z"/>
          <path class="cls-33" d="M100.89,106.36c0,7-12.28,12.67-27.42,12.67s-27.41-5.67-27.41-12.67S58.33,95.87,73.47,95.87,100.89,99.37,100.89,106.36Z"/>
          <path class="cls-33" d="M98,95.76c0,7-11,12.66-24.48,12.66S49,102.75,49,95.76s11-9.14,24.48-9.14S98,88.76,98,95.76Z"/>
          <path class="cls-33" d="M88.36,88.5c-.09-5.76-4.77-14.09-11.07-15-2.45-.35-4.51-1.53-6.24.86-.56.77-.22,2.47-.11,3.22.63,4.07-.8,6.31-4.24,8.4-5.17,3.15.31,8.08,4.33,8.6a51.58,51.58,0,0,0,6.06.7c1.33,0,2.56-.86,3.87-1.06a12,12,0,0,0,3.79-1.93c.07-.06.19-.2.35-.38a3.75,3.75,0,0,0,2.58-2.5A.9.9,0,0,0,88.36,88.5Z"/>
          <path class="cls-34" d="M96.46,100.12A7.45,7.45,0,0,0,98,95.76c0-4.11-3.77-6.54-9.62-7.85-.38-5.72-5-13.53-11-14.37-.74-.11-1.45-.29-2.13-.42a12.41,12.41,0,0,0,2,1.29,15.58,15.58,0,0,1,4.11,3.34,19.31,19.31,0,0,1,2.57,4.36,19.65,19.65,0,0,1,1.78,4.65,5.34,5.34,0,0,0,1,2.81,1.58,1.58,0,0,0,.84.27,11.92,11.92,0,0,1,2.85,1.28c2.35,1.12,3.11,3.79,3.12,6.2,0,.66-.07,1.29-.1,2-.1,1.7-1.67,2-3,2.52-.42.15-.21.74.16.78.61.05,1.23,0,1.84,0,2,0,2.08,2.11,2.31,3.44a10.55,10.55,0,0,1-.93,6.07c-1.46,3.5-6.23,4-9.23,5.5a.38.38,0,0,0-.21.42c9.75-1.94,16.57-6.42,16.57-11.64C100.89,103.82,99.26,101.74,96.46,100.12Z"/>
          <path class="cls-35" d="M91,106.11c0,4.24-9.66,7.68-21.58,7.68s-21.58-3.44-21.58-7.68,9.66-6.36,21.58-6.36S91,101.87,91,106.11Z"/>
          <path class="cls-35" d="M92.53,94.06c0,5.71-9.74,10.33-21.77,10.33S49,99.77,49,94.06s9.75-7.44,21.77-7.44S92.53,88.36,92.53,94.06Z"/>
          <path class="cls-35" d="M83.29,88.5c-.07-5.76-3.75-14.09-8.71-15-1.93-.35-3.54-1.53-4.91.86-.44.77-.17,2.47-.08,3.22.49,4.07-.63,6.31-3.34,8.4-4.07,3.15.24,8.08,3.41,8.6a32.34,32.34,0,0,0,4.76.7c1,0,2-.86,3-1.06a8.78,8.78,0,0,0,3-1.93,3.11,3.11,0,0,0,.28-.38,3.44,3.44,0,0,0,2-2.5A.9.9,0,0,0,83.29,88.5Z"/>
          <path class="cls-36" d="M67.74,98.45c-6.41,0-11.21-2.46-11.21-4.66,0-1.89,4.19-3,11.21-3S79,91.9,79,93.79C79,96,74.16,98.45,67.74,98.45Z"/>
          <path class="cls-36" d="M71.18,111.62c-6,0-10.43-2.46-10.43-4.66,0-1.89,3.9-3,10.43-3s10.43,1.13,10.43,3C81.61,109.16,77.15,111.62,71.18,111.62Z"/>
          <path class="cls-36" d="M71.8,84.44a10.46,10.46,0,0,0-.08,4.27c.58,1.91,4.26,1.3,5.37.17,1.52-1.54,1.82-3.66,1.86-5.74-1.2-3.28-3.18-6.09-4.93-6.4a11.25,11.25,0,0,1-1.29-.3c0,.23.09.79.09.79A12.28,12.28,0,0,1,71.8,84.44Z"/>
          <path class="cls-33" d="M70.57,95a30.81,30.81,0,0,0-4.5-.27,42.21,42.21,0,0,1-4.68-.76A19.08,19.08,0,0,0,59,93.88c-.63,0-1.15-.4-1.78-.39a2.28,2.28,0,0,0-1.79.76,1.3,1.3,0,0,0-1.11,1.34c.13,6.8,10.24,6,15.11,6.09,3,0,5.19-.21,6.52-2.9C77.55,95.54,72.7,95.27,70.57,95Z"/>
          <path class="cls-34" d="M69.88,95.93A29.49,29.49,0,0,0,66,95.72a40.61,40.61,0,0,1-4-.6,17.71,17.71,0,0,0-2.06-.05c-.55,0-1-.32-1.53-.31a2.07,2.07,0,0,0-1.55.6,1.06,1.06,0,0,0-1,1.06c.11,5.37,8.84,4.75,13,4.81,2.57,0,4.48-.17,5.62-2.29C75.9,96.38,71.72,96.17,69.88,95.93Z"/>
          <g>
            <path class="cls-23" d="M52,78.43c-3.34,4.18-2,14.08,4.15,19s16.1,4.07,19.45-.1Z"/>
            <path class="cls-24" d="M52,78.43c-3.34,4.18-1.65,13.78,4.5,18.7s15.75,4.38,19.1.21Z"/>
            <path class="cls-25" d="M57.07,96.28c5.59,4.47,14.31,4.16,18.37.93L52.14,78.55C49.88,83.21,51.48,91.8,57.07,96.28Z"/>
            <path class="cls-26" d="M57.87,95.28C63,99.38,70.73,99.46,75.12,97L52.47,78.81C51,83.63,52.74,91.17,57.87,95.28Z"/>
            <path class="cls-27" d="M75.12,97l-.8-.64a22.56,22.56,0,0,1-8.65.79,15.57,15.57,0,0,1-5.42-2.27c-1.64-1-6.49-6.3-6.87-8.15a27.05,27.05,0,0,1-.17-7.13l0-.13-.77-.62c-1.49,4.82.27,12.36,5.4,16.47S70.73,99.46,75.12,97Z"/>
            <path class="cls-25" d="M63.69,87.67c-.07-.06-.37-.44-.51-.55A.85.85,0,0,0,62,88.36a.81.81,0,0,0,.26.37.93.93,0,0,0,.2.1.55.55,0,0,0,.14.17A.85.85,0,0,0,63.69,87.67Z"/>
            <polygon class="cls-25" points="56.75 94.38 62.91 88.06 58.08 95.45 56.75 94.38"/>
            <polygon class="cls-25" points="52.85 88.25 62.91 88.06 53.05 90.06 52.85 88.25"/>
            <polygon class="cls-25" points="52.01 82.17 62.91 88.06 51.19 84.02 52.01 82.17"/>
            <polygon class="cls-25" points="63.32 98.78 62.91 88.06 65.13 98.55 63.32 98.78"/>
            <polygon class="cls-25" points="70.36 99.38 63 87.99 71.96 98.16 70.36 99.38"/>
          </g>
        </g>
        <g>
          <path class="cls-37" d="M112.46,150.13H52.34l3.84,21.61c0,1.27,2.07,3.33,6.68,5.06,5.19,1.95,12.15,3,19.6,3s14.42-1.08,19.61-3c4.61-1.73,6.67-3.79,6.67-5.06C108.74,171.63,112.46,150.13,112.46,150.13Z"/>
          <path class="cls-38" d="M108.74,171.74c0-.11,3.72-21.61,3.72-21.61H52.34l3.84,21.61a2.39,2.39,0,0,0,.66,1.43c7.7-2.66,25.65-2.59,34.57,4.43A20.63,20.63,0,0,0,93.47,179a44.93,44.93,0,0,0,8.6-2.19C106.68,175.07,108.74,173,108.74,171.74Z"/>
          <path class="cls-39" d="M82.8,150.13a14.25,14.25,0,0,0,1.38.5c11.09,3.3,13.11,25.1,12.63,27.38l-.09.35a39.88,39.88,0,0,0,5.35-1.56c4.61-1.73,6.67-3.79,6.67-5.06,0-.11,3.72-21.61,3.72-21.61Z"/>
          <g>
            <path class="cls-39" d="M61.56,160.77c.39,5.19,0,7.49-.92,7.58s-2-2.08-2.34-7.28,0-9.48.92-9.56S61.17,155.57,61.56,160.77Z"/>
            <path class="cls-39" d="M70.41,162.42c.08,5.22-.59,7.48-1.5,7.49s-1.7-2.21-1.78-7.43.6-9.45,1.5-9.47S70.33,157.21,70.41,162.42Z"/>
            <path class="cls-39" d="M79.25,163.47c.08,5.22-.59,7.47-1.49,7.49s-1.7-2.21-1.78-7.43.59-9.46,1.49-9.47S79.17,158.25,79.25,163.47Z"/>
            <path class="cls-40" d="M102.51,160.77c-.39,5.19,0,7.49.92,7.58s1.95-2.08,2.35-7.28,0-9.48-.92-9.56S102.91,155.57,102.51,160.77Z"/>
            <path class="cls-40" d="M93.67,162.42c-.08,5.22.59,7.48,1.49,7.49s1.7-2.21,1.78-7.43-.59-9.45-1.5-9.47S93.74,157.21,93.67,162.42Z"/>
            <path class="cls-39" d="M84.82,163.47c-.08,5.22.59,7.47,1.5,7.49s1.7-2.21,1.78-7.43-.6-9.46-1.5-9.47S84.9,158.25,84.82,163.47Z"/>
          </g>
          <path class="cls-32" d="M82.41,161.76c-8.4,0-16.25-1.18-22.1-3.32-5.19-1.91-7.52-4.17-7.52-5.56s2.33-3.65,7.52-5.55C66.16,145.18,74,144,82.41,144s16.25,1.18,22.1,3.33c5.19,1.9,7.52,4.16,7.52,5.55s-2.33,3.65-7.52,5.56C98.66,160.58,90.81,161.76,82.41,161.76Z"/>
          <path class="cls-41" d="M114.46,148.65c0,6.66-14.35,12.06-32.06,12.06s-32.05-5.4-32.05-12.06S64.7,136.59,82.4,136.59,114.46,142,114.46,148.65Z"/>
          <path class="cls-42" d="M82.4,157.53c-8.18,0-15.84-1.18-21.54-3.33-5.07-1.9-7.33-4.16-7.33-5.55s2.26-3.65,7.33-5.55c5.7-2.15,13.36-3.33,21.54-3.33S98.24,141,104,143.1c5.06,1.9,7.33,4.16,7.33,5.55S109,152.3,104,154.2C98.24,156.35,90.59,157.53,82.4,157.53Z"/>
          <g>
            <g>
              <path class="cls-43" d="M101,137.35c-3.07,1.45-4.64.08-6.7,1.16-5.45,3.14-3.56,8.11-2,10.21,2,2.83,6,3.06,9.11,2a7.93,7.93,0,0,0,5.19-6.45C106.93,140.77,104.29,135.8,101,137.35Z"/>
              <path class="cls-44" d="M102.28,137.06a1.54,1.54,0,0,1,.08.19s0,.07,0,.11c.17.81.28,1.63.41,2.44,0,.14-.08.29-.13.44-.85,2.1-3.67,2.18-5.55,3a2.74,2.74,0,0,0-1.69,2,5.54,5.54,0,0,0,.4,5.85,10,10,0,0,0,5.54-.33,7.93,7.93,0,0,0,5.19-6.45C106.88,141.24,104.94,137.09,102.28,137.06Z"/>
              <path class="cls-44" d="M101.24,139.48c-.13-.86-1.34-.74-1.74-.17-.17.25-.64.29-.93.34a1.36,1.36,0,0,1-.44-.11,1.67,1.67,0,0,0-.74,0c-.79.13-.83,1-.62,1.6a1.18,1.18,0,0,0,.68.6,3,3,0,0,0,1.19.11,3.46,3.46,0,0,0,1.69-.55A1.49,1.49,0,0,0,101.24,139.48Z"/>
              <path class="cls-45" d="M100.11,139.89a.61.61,0,0,0-.85-.08A1,1,0,0,0,99,140h-.1l-.24,0h0a.6.6,0,0,0-.67,1,1.1,1.1,0,0,0,.78.2.72.72,0,0,0,.46,0,3.38,3.38,0,0,0,.84-.31A.72.72,0,0,0,100.11,139.89Z"/>
              <path class="cls-45" d="M106.57,144.27a8.46,8.46,0,0,0-1.52-5.49c.48,3.39.5,6.23-2.54,9a13.35,13.35,0,0,1-5,3.19,4.71,4.71,0,0,0-.75.25,10.35,10.35,0,0,0,4.66-.5A7.93,7.93,0,0,0,106.57,144.27Z"/>
              <path class="cls-46" d="M94.07,143.5a.4.4,0,0,1-.28.47c-.18,0-.36-.14-.4-.37a.38.38,0,0,1,.27-.46A.39.39,0,0,1,94.07,143.5Z"/>
              <path class="cls-47" d="M93.76,147.39c.34.5.82.27.64-.15h0a6.68,6.68,0,0,1-.31-.89c-.57-2.06-.08-3.57,2-3.5.62,0,3-.1,1.23-.35a7.33,7.33,0,0,1-1-.31c-.65-.21-1-.27-1.3-.91-.55-1.09.28-1.67,1.44-2,.07-.05.83,0,1-.21s.24-.61-.65-.51a5.71,5.71,0,0,0-2.79.69C90.17,142.13,93.74,147.36,93.76,147.39Z"/>
            </g>
            <path class="cls-48" d="M93.91,140.52c-.56-.23-1.09.36-1,.9a.65.65,0,0,0,.95.48.3.3,0,0,0,.5-.1A1.05,1.05,0,0,0,93.91,140.52Z"/>
            <path class="cls-48" d="M93.94,143.66c-.23-.47-.89-.87-1.2-.25a1.29,1.29,0,0,0,.39,1.44.32.32,0,0,0,.27,0l.06,0a.47.47,0,0,0,.65-.39A1.46,1.46,0,0,0,93.94,143.66Z"/>
          </g>
          <g>
            <g>
              <path class="cls-49" d="M94.43,138.05c-3.3-.78-3.67-2.84-6-3.28-6.21-1-7.85,4.11-8,6.69-.18,3.48,2.78,6.15,5.85,7.26a8,8,0,0,0,8.09-1.79C96.89,144.42,98,138.89,94.43,138.05Z"/>
              <path class="cls-50" d="M95.59,138.62c0,.06,0,.13,0,.2a.49.49,0,0,0,0,.11c-.38.73-.8,1.45-1.21,2.16a3,3,0,0,1-.37.25c-2,1.12-4.24-.58-6.21-1.12a2.73,2.73,0,0,0-2.55.47,5.57,5.57,0,0,0-3.35,4.82,10.07,10.07,0,0,0,4.53,3.21,8,8,0,0,0,8.09-1.79C96.57,144.76,97.65,140.31,95.59,138.62Z"/>
              <path class="cls-50" d="M93.27,139.86c.43-.75-.58-1.42-1.26-1.22-.28.08-.68-.18-.94-.32-.1,0-.21-.27-.27-.36a1.45,1.45,0,0,0-.56-.48c-.69-.4-1.26.24-1.48.86a1.17,1.17,0,0,0,.15.89,3,3,0,0,0,.87.83,3.5,3.5,0,0,0,1.65.63A1.51,1.51,0,0,0,93.27,139.86Z"/>
              <path class="cls-51" d="M92.13,139.47a.63.63,0,0,0-.62-.6.9.9,0,0,0-.28,0l-.08-.06a2.39,2.39,0,0,0-.22-.12l0,0a.6.6,0,0,0-1.15.36,1.18,1.18,0,0,0,.48.65.72.72,0,0,0,.37.29,3.61,3.61,0,0,0,.84.28A.72.72,0,0,0,92.13,139.47Z"/>
              <path class="cls-51" d="M94.43,146.93a8.55,8.55,0,0,0,2.25-5.24c-1.75,2.95-3.51,5.18-7.61,5.44a13.5,13.5,0,0,1-5.93-.66,4.47,4.47,0,0,0-.74-.28,10.34,10.34,0,0,0,3.94,2.53A8,8,0,0,0,94.43,146.93Z"/>
              <path class="cls-52" d="M85.16,138.51a.39.39,0,0,1-.51.19.37.37,0,0,1-.09-.53.39.39,0,0,1,.51-.2A.4.4,0,0,1,85.16,138.51Z"/>
              <path class="cls-53" d="M82.48,141.35c0,.6.48.73.6.28h0a7.28,7.28,0,0,1,.32-.89c.84-2,2.17-2.84,3.74-1.49.47.41,2.39,1.79,1.18.5a6.25,6.25,0,0,1-.62-.9c-.38-.57-.59-.82-.45-1.51.25-1.2,1.26-1.13,2.37-.66.08,0,.67.49.9.45s.57-.33-.19-.81a5.77,5.77,0,0,0-2.61-1.2C83,135,82.49,141.32,82.48,141.35Z"/>
            </g>
            <path class="cls-54" d="M86.89,136.08a.82.82,0,0,0-1.36,0,.65.65,0,0,0,.44,1,.3.3,0,0,0,.45.24A1.06,1.06,0,0,0,86.89,136.08Z"/>
            <path class="cls-54" d="M85,138.55c.11-.5-.15-1.23-.79-.94a1.29,1.29,0,0,0-.59,1.37.31.31,0,0,0,.19.18.26.26,0,0,0,0,.08.47.47,0,0,0,.75.1A1.55,1.55,0,0,0,85,138.55Z"/>
          </g>
          <g>
            <g>
              <path class="cls-55" d="M80,134.87c-3.86,1.14-5.45-.76-8.07.14-7,2.67-5.66,8.84-4.28,11.58,1.86,3.69,6.48,4.69,10.3,4A9.45,9.45,0,0,0,85.19,144C86.25,140,84.08,133.66,80,134.87Z"/>
              <path class="cls-56" d="M81.49,134.77l.06.24c0,.05,0,.09,0,.14.05,1,0,1.95,0,2.93a3.49,3.49,0,0,1-.23.48c-1.38,2.32-4.71,1.89-7.06,2.5a3.24,3.24,0,0,0-2.34,2,6.6,6.6,0,0,0-.61,6.93,11.91,11.91,0,0,0,6.55.64A9.45,9.45,0,0,0,85.19,144C86.11,140.51,84.6,135.3,81.49,134.77Z"/>
              <path class="cls-56" d="M79.83,137.42c0-1-1.43-1.12-2-.52-.24.25-.81.21-1.16.22-.14,0-.37-.15-.49-.2a1.82,1.82,0,0,0-.86-.18c-1,0-1.16,1-1,1.77a1.35,1.35,0,0,0,.68.82,3.7,3.7,0,0,0,1.38.35,4.1,4.1,0,0,0,2.07-.33A1.78,1.78,0,0,0,79.83,137.42Z"/>
              <path class="cls-57" d="M78.43,137.69a.75.75,0,0,0-1-.26,1.75,1.75,0,0,0-.29.18h-.46c-.66-.56-1.63.41-1,1.06a1.43,1.43,0,0,0,.88.38.92.92,0,0,0,.55.07,3.32,3.32,0,0,0,1-.21A.85.85,0,0,0,78.43,137.69Z"/>
              <path class="cls-57" d="M85.19,144a10.07,10.07,0,0,0-.77-6.71c-.06,4.06-.57,7.39-4.63,10.08-1.75,1.16-4.37,2.63-6.5,2.81a4.53,4.53,0,0,0-.92.15,12.38,12.38,0,0,0,5.54.28A9.45,9.45,0,0,0,85.19,144Z"/>
              <path class="cls-58" d="M70.68,140.8a.41.41,0,1,1-.81,0,.41.41,0,1,1,.81,0Z"/>
              <path class="cls-59" d="M69.61,145.31c.3.64.91.47.77-.07h0a8,8,0,0,1-.2-1.11c-.29-2.52.56-4.2,3-3.73.73.14,3.51.43,1.51-.19a7.33,7.33,0,0,1-1.17-.55c-.73-.37-1.09-.5-1.35-1.3-.45-1.38.63-1.91,2-2.07.09,0,1,.12,1.18-.06s.4-.68-.66-.73c-1.25,0-2.23-.27-3.4.31C66.36,138.48,69.58,145.26,69.61,145.31Z"/>
            </g>
            <path class="cls-60" d="M71,137.28c-.6-.37-1.34.22-1.37.86a.76.76,0,0,0,1,.74.36.36,0,0,0,.6,0A1.26,1.26,0,0,0,71,137.28Z"/>
            <path class="cls-60" d="M70.5,141c-.18-.59-.88-1.19-1.36-.52a1.54,1.54,0,0,0,.19,1.77.4.4,0,0,0,.31.07l.07.06a.55.55,0,0,0,.83-.34A1.76,1.76,0,0,0,70.5,141Z"/>
          </g>
          <g>
            <g>
              <path class="cls-57" d="M68.89,138.67c-3.86,1.14-5.45-.76-8.07.14-7,2.67-5.66,8.84-4.27,11.58,1.85,3.69,6.48,4.69,10.3,4a9.47,9.47,0,0,0,7.27-6.61C75.18,143.78,73,137.46,68.89,138.67Z"/>
              <path class="cls-61" d="M68.09,138.67c-3.86,1.14-5.44-.76-8.06.14-7,2.67-5.66,8.84-4.28,11.58,1.86,3.69,6.48,4.69,10.3,4a9.48,9.48,0,0,0,7.28-6.61C74.39,143.78,72.22,137.46,68.09,138.67Z"/>
              <path class="cls-62" d="M69.62,138.57a2.17,2.17,0,0,1,.07.24c0,.05,0,.09,0,.14.05,1,0,2,0,2.93a5.24,5.24,0,0,1-.23.48c-1.38,2.32-4.71,1.89-7.06,2.5a3.24,3.24,0,0,0-2.34,2,6.6,6.6,0,0,0-.61,6.93,11.91,11.91,0,0,0,6.55.64,9.48,9.48,0,0,0,7.28-6.61C74.25,144.31,72.74,139.1,69.62,138.57Z"/>
              <path class="cls-62" d="M68,141.22c0-1-1.44-1.12-2-.52-.25.25-.81.21-1.16.22-.14,0-.37-.15-.49-.2a1.82,1.82,0,0,0-.86-.18c-1,0-1.16,1-1,1.77a1.4,1.4,0,0,0,.69.82,3.61,3.61,0,0,0,1.38.35,4.1,4.1,0,0,0,2.07-.33A1.79,1.79,0,0,0,68,141.22Z"/>
              <path class="cls-63" d="M66.57,141.49a.75.75,0,0,0-1-.26,1.75,1.75,0,0,0-.29.18h-.12c-.09,0-.19,0-.29,0h0a.72.72,0,0,0-1,1.06,1.46,1.46,0,0,0,.88.38.9.9,0,0,0,.54.07,3.32,3.32,0,0,0,1-.21A.85.85,0,0,0,66.57,141.49Z"/>
              <path class="cls-63" d="M73.33,147.81a10.19,10.19,0,0,0-.77-6.71c-.06,4.06-.57,7.39-4.63,10.08-1.76,1.16-4.37,2.63-6.5,2.81a4.53,4.53,0,0,0-.92.15,12.52,12.52,0,0,0,5.54.28A9.48,9.48,0,0,0,73.33,147.81Z"/>
              <path class="cls-64" d="M58.82,144.6a.42.42,0,1,1-.82,0,.42.42,0,1,1,.82,0Z"/>
              <path class="cls-65" d="M57.74,149.11c.31.64.92.47.78-.07h0a8,8,0,0,1-.2-1.11c-.29-2.52.56-4.2,3-3.73.72.14,3.51.43,1.51-.19a7.83,7.83,0,0,1-1.17-.55c-.73-.37-1.1-.5-1.35-1.3-.45-1.38.63-1.91,2.05-2.07.09,0,1,.12,1.18-.06s.4-.68-.67-.73c-1.24,0-2.22-.27-3.39.31C54.5,142.28,57.72,149.06,57.74,149.11Z"/>
            </g>
            <path class="cls-66" d="M59.18,141.08c-.61-.37-1.34.22-1.38.86a.76.76,0,0,0,1,.74.36.36,0,0,0,.6,0A1.25,1.25,0,0,0,59.18,141.08Z"/>
            <path class="cls-66" d="M58.64,144.77c-.19-.59-.88-1.19-1.37-.52a1.56,1.56,0,0,0,.2,1.77.4.4,0,0,0,.31.07l.07.06a.55.55,0,0,0,.83-.34A1.76,1.76,0,0,0,58.64,144.77Z"/>
          </g>
          <g>
            <g>
              <path class="cls-63" d="M76,142.78c-3,1.82-4.72.59-6.71,1.92-5.2,3.79-2.73,8.66-1,10.63,2.38,2.66,6.47,2.46,9.5,1a8.19,8.19,0,0,0,4.6-7.14C82.37,145.63,79.14,140.85,76,142.78Z"/>
              <path class="cls-61" d="M76.76,142.78c-3,1.82-4.72.59-6.7,1.92-5.21,3.79-2.74,8.66-1,10.63,2.38,2.66,6.46,2.46,9.5,1a8.16,8.16,0,0,0,4.59-7.14C83.16,145.63,79.93,140.85,76.76,142.78Z"/>
              <path class="cls-62" d="M78,142.35c0,.07.07.13.1.19l0,.11c.26.8.47,1.62.68,2.44a2.61,2.61,0,0,1-.08.46c-.63,2.24-3.5,2.63-5.33,3.66a2.83,2.83,0,0,0-1.51,2.19,5.69,5.69,0,0,0,1,5.92,10.35,10.35,0,0,0,5.61-.94,8.16,8.16,0,0,0,4.59-7.14C83.16,146.11,80.73,142.09,78,142.35Z"/>
              <path class="cls-62" d="M77.23,144.94c-.24-.87-1.45-.62-1.8,0-.14.26-.62.35-.92.44a1.17,1.17,0,0,1-.45-.06,1.64,1.64,0,0,0-.76,0c-.79.21-.74,1.08-.46,1.7a1.26,1.26,0,0,0,.76.53,3,3,0,0,0,1.23,0,3.49,3.49,0,0,0,1.66-.74A1.54,1.54,0,0,0,77.23,144.94Z"/>
              <path class="cls-63" d="M76.12,145.48a.65.65,0,0,0-.89,0,2,2,0,0,0-.19.22l-.1,0-.25.06,0,0a.62.62,0,0,0-.58,1.09,1.16,1.16,0,0,0,.81.12.73.73,0,0,0,.48-.06,3.12,3.12,0,0,0,.82-.4A.73.73,0,0,0,76.12,145.48Z"/>
              <path class="cls-63" d="M83.18,149.24A8.73,8.73,0,0,0,81,143.81c.86,3.4,1.18,6.29-1.61,9.45a13.9,13.9,0,0,1-4.79,3.8,4.89,4.89,0,0,0-.73.33,10.65,10.65,0,0,0,4.69-1A8.16,8.16,0,0,0,83.18,149.24Z"/>
              <path class="cls-64" d="M70.35,149.81a.36.36,0,1,1-.68.18.36.36,0,1,1,.68-.18Z"/>
              <path class="cls-65" d="M70.46,153.81c.4.47.87.19.64-.22h0a7,7,0,0,1-.42-.87c-.81-2-.47-3.64,1.65-3.79.64,0,3-.43,1.22-.49a7,7,0,0,1-1.11-.21c-.68-.14-1-.16-1.41-.77-.68-1.06.1-1.74,1.24-2.19.07-.06.84-.12,1-.32s.18-.66-.72-.46-1.92.27-2.77,1C66.22,148.84,70.43,153.78,70.46,153.81Z"/>
            </g>
            <path class="cls-66" d="M69.86,146.79c-.59-.17-1.07.49-1,1a.67.67,0,0,0,1,.39.31.31,0,0,0,.5-.15A1.09,1.09,0,0,0,69.86,146.79Z"/>
            <path class="cls-66" d="M70.24,150c-.29-.45-1-.79-1.26-.12a1.33,1.33,0,0,0,.56,1.42.29.29,0,0,0,.27,0s0,0,.08,0a.47.47,0,0,0,.61-.46A1.48,1.48,0,0,0,70.24,150Z"/>
          </g>
          <g>
            <g>
              <path class="cls-63" d="M103.62,141.42c-3.32,1.05-4.72-.57-7,.25-6,2.42-4.75,7.73-3.51,10.08,1.67,3.15,5.68,3.95,9,3.31a8.16,8.16,0,0,0,6.18-5.82C109.14,145.74,107.17,140.31,103.62,141.42Z"/>
              <path class="cls-61" d="M104.39,141.62c-3.32,1-4.72-.58-7,.24-6,2.42-4.75,7.73-3.51,10.08,1.67,3.15,5.68,3.95,9,3.31a8.16,8.16,0,0,0,6.18-5.82C109.91,145.93,107.94,140.5,104.39,141.62Z"/>
              <path class="cls-62" d="M105.71,141.5l.06.21s0,.07,0,.12c0,.84,0,1.69.06,2.53a2.6,2.6,0,0,1-.19.42c-1.15,2-4,1.71-6.06,2.27a2.83,2.83,0,0,0-2,1.76,5.7,5.7,0,0,0-.41,6,10.23,10.23,0,0,0,5.67.44,8.16,8.16,0,0,0,6.18-5.82C109.8,146.39,108.41,141.91,105.71,141.5Z"/>
              <path class="cls-62" d="M104.32,143.82c0-.9-1.25-.95-1.74-.42-.21.22-.7.2-1,.21a1,1,0,0,1-.42-.17,1.63,1.63,0,0,0-.75-.13c-.83,0-1,.87-.86,1.54a1.15,1.15,0,0,0,.61.69,3.06,3.06,0,0,0,1.19.29,3.56,3.56,0,0,0,1.79-.32C104,145.43,104.33,144.55,104.32,143.82Z"/>
              <path class="cls-63" d="M103.12,144.07a.66.66,0,0,0-.86-.21,2.2,2.2,0,0,0-.25.17h-.4c-.58-.48-1.4.38-.83.92a1.28,1.28,0,0,0,.77.32.69.69,0,0,0,.47,0,3.28,3.28,0,0,0,.89-.19A.74.74,0,0,0,103.12,144.07Z"/>
              <path class="cls-63" d="M109.06,149.43a8.76,8.76,0,0,0-.77-5.79c0,3.51-.38,6.4-3.85,8.79A13.89,13.89,0,0,1,98.87,155a4.08,4.08,0,0,0-.79.14,10.67,10.67,0,0,0,4.8.15A8.16,8.16,0,0,0,109.06,149.43Z"/>
              <path class="cls-64" d="M96.47,146.89a.4.4,0,0,1-.35.43.38.38,0,0,1-.35-.42.39.39,0,0,1,.34-.44A.41.41,0,0,1,96.47,146.89Z"/>
              <path class="cls-65" d="M95.61,150.8c.27.55.8.39.67-.07h0a7.76,7.76,0,0,1-.19-1c-.29-2.17.42-3.63,2.52-3.27.63.11,3,.32,1.3-.18a6.7,6.7,0,0,1-1-.47c-.63-.3-1-.41-1.19-1.09-.41-1.19.51-1.66,1.74-1.83.08,0,.85.09,1-.07s.33-.59-.59-.62c-1.07,0-1.92-.2-2.93.32C92.7,145,95.59,150.76,95.61,150.8Z"/>
            </g>
            <path class="cls-66" d="M96.72,143.84c-.52-.31-1.15.21-1.17.76a.67.67,0,0,0,.9.63.31.31,0,0,0,.52,0A1.08,1.08,0,0,0,96.72,143.84Z"/>
            <path class="cls-66" d="M96.32,147c-.17-.5-.78-1-1.19-.42a1.33,1.33,0,0,0,.2,1.52.32.32,0,0,0,.26.06s0,0,.07.05a.48.48,0,0,0,.71-.3A1.57,1.57,0,0,0,96.32,147Z"/>
          </g>
          <g>
            <g>
              <path class="cls-63" d="M91.78,143.1c-3.68.53-4.89-1.41-7.4-.93-6.7,1.53-6.32,7.35-5.41,10,1.21,3.61,5.31,5.13,8.88,5a8.74,8.74,0,0,0,7.52-5.08C96.86,148.59,95.71,142.53,91.78,143.1Z"/>
              <path class="cls-61" d="M92.56,143.43c-3.68.54-4.89-1.4-7.4-.93-6.7,1.54-6.32,7.35-5.42,10,1.22,3.61,5.32,5.13,8.89,5a8.68,8.68,0,0,0,7.51-5.08C97.64,148.92,96.48,142.86,92.56,143.43Z"/>
              <path class="cls-62" d="M94,143.54c0,.07,0,.15,0,.23a.53.53,0,0,1,0,.13c-.09.89-.23,1.79-.36,2.68a2.71,2.71,0,0,1-.28.41c-1.56,1.94-4.54,1.11-6.77,1.36a3,3,0,0,0-2.4,1.51,6.09,6.09,0,0,0-1.46,6.26,11,11,0,0,0,5.9,1.43,8.68,8.68,0,0,0,7.51-5.08C97.44,149.39,96.74,144.42,94,143.54Z"/>
              <path class="cls-62" d="M92.1,145.74c.14-.94-1.16-1.21-1.76-.73-.26.19-.77.09-1.09.05-.13,0-.32-.19-.42-.25a1.62,1.62,0,0,0-.77-.27c-.87-.13-1.18.75-1.16,1.47a1.26,1.26,0,0,0,.52.84,3.14,3.14,0,0,0,1.21.5,3.64,3.64,0,0,0,1.94,0C91.46,147.38,92,146.52,92.1,145.74Z"/>
              <path class="cls-63" d="M90.79,145.81a.69.69,0,0,0-.87-.37,1.43,1.43,0,0,0-.28.13l-.11,0-.27,0h-.05c-.53-.6-1.54.17-1,.84a1.27,1.27,0,0,0,.75.46.84.84,0,0,0,.5.14,3.17,3.17,0,0,0,1-.06A.77.77,0,0,0,90.79,145.81Z"/>
              <path class="cls-63" d="M96.14,152.47a9.28,9.28,0,0,0,.18-6.24c-.59,3.7-1.49,6.68-5.55,8.61-1.75.84-4.34,1.83-6.31,1.72a4.11,4.11,0,0,0-.86,0,11.38,11.38,0,0,0,5,1A8.68,8.68,0,0,0,96.14,152.47Z"/>
              <path class="cls-64" d="M83.3,147.64a.38.38,0,1,1-.3-.51A.42.42,0,0,1,83.3,147.64Z"/>
              <path class="cls-65" d="M81.73,151.62c.19.62.78.55.72,0h0a9,9,0,0,1,0-1c.07-2.34,1.06-3.76,3.21-3,.65.22,3.15.85,1.41,0a6.65,6.65,0,0,1-1-.66c-.61-.43-.93-.59-1.07-1.36-.22-1.32.83-1.66,2.15-1.62.09,0,.87.23,1.09.09s.45-.57-.52-.75c-1.14-.15-2-.54-3.14-.16C79.66,145,81.72,151.58,81.73,151.62Z"/>
            </g>
            <path class="cls-66" d="M84.09,144.47c-.5-.42-1.25,0-1.37.61a.71.71,0,0,0,.84.81.34.34,0,0,0,.56.06A1.16,1.16,0,0,0,84.09,144.47Z"/>
            <path class="cls-66" d="M83.12,147.77c-.1-.56-.65-1.2-1.18-.65a1.41,1.41,0,0,0,0,1.64.36.36,0,0,0,.27.11l0,.06a.52.52,0,0,0,.81-.2A1.65,1.65,0,0,0,83.12,147.77Z"/>
          </g>
        </g>
        <g>
          <g>
            <path class="cls-67" d="M153,161v7.05c2.29,7.06,13.5,12.42,27,12.42s24.68-5.36,27-12.42V161Z"/>
            <path class="cls-68" d="M153,143.24l0,20.07c2.29,7.06,13.5,12.42,27,12.42s24.68-5.36,27-12.42V143.24Z"/>
            <path class="cls-69" d="M206.94,168.09V143.24h-17c-1,.93-2.94,1.87-2.94,3.64,0,10.74-.39,22.32.09,33.11C197.23,178.49,205.06,173.86,206.94,168.09Z"/>
            <path class="cls-70" d="M152.54,136l.44,7.46c2.29,7.06,13.5,12.42,27,12.42s24.68-5.36,27-12.42l.44-7.46Z"/>
            <path class="cls-71" d="M207.38,136c0,8.34-12.28,15.1-27.42,15.1s-27.42-6.76-27.42-15.1,12.28-15.09,27.42-15.09S207.38,127.65,207.38,136Z"/>
            <path class="cls-72" d="M207.38,136c0,7.24-11.46,13.1-25.61,13.1s-25.6-5.86-25.6-13.1,11.46-13.09,25.6-13.09S207.38,128.75,207.38,136Z"/>
            <path class="cls-73" d="M206.9,143.53a6.49,6.49,0,0,0,0-.77c0-7.23-12.08-13.1-27-13.1s-27,5.87-27,13.1a5,5,0,0,0,.06.77c2.36,7,13.51,12.33,26.94,12.33S204.53,150.54,206.9,143.53Z"/>
            <path class="cls-74" d="M171,159a3.9,3.9,0,0,0-2.25-3.7,8.47,8.47,0,0,0-3.17-1.1c-1.6-.32-2.36-1-3.87-1.39-3.81-1.11-6,2.8-5.1,5.69,0,.16,0,.33,0,.5a31.88,31.88,0,0,0,0,5.52,6.06,6.06,0,0,0,.51,3.64c1.35,2.31,4.55,3.38,7,4C171.63,174.18,171,163.6,171,159Z"/>
            <path class="cls-75" d="M196.49,136.7c0,3.35-7.34,6.06-16.4,6.06s-16.4-2.71-16.4-6.06,7.34-6.06,16.4-6.06S196.49,133.35,196.49,136.7Z"/>
            <path class="cls-76" d="M207.31,138.15c0,4.14-9.09,7.51-20.31,7.51s-20.32-3.37-20.32-7.51,9.1-7.51,20.32-7.51S207.31,134,207.31,138.15Z"/>
            <path class="cls-68" d="M180,149.93l-1.39.1c-.44,0-1,0-1.61,0h-1l-1.1-.05a39.05,39.05,0,0,1-5.18-.66c-.94-.2-1.91-.41-2.88-.71s-1.94-.62-2.9-1-1.88-.83-2.78-1.3a26.37,26.37,0,0,1-2.52-1.6,16.68,16.68,0,0,1-2.11-1.86,11.47,11.47,0,0,1-1.54-2,9.18,9.18,0,0,1-.91-1.92c-.1-.3-.17-.58-.24-.85s-.09-.51-.12-.73a6.55,6.55,0,0,1,0-1c0-.24,0-.37,0-.37s0,.13,0,.36a7.88,7.88,0,0,0,.2,1q.09.32.21.69c.1.24.2.51.33.78a11.19,11.19,0,0,0,1,1.71,14.26,14.26,0,0,0,1.6,1.75,22.3,22.3,0,0,0,2.09,1.64,27.92,27.92,0,0,0,2.46,1.45c.87.44,1.77.85,2.69,1.22s1.85.71,2.79,1,1.87.55,2.78.78,1.79.41,2.64.57,1.64.3,2.39.42,1.43.2,2,.27l1.58.18Z"/>
          </g>
          <g>
            <path class="cls-24" d="M155.45,124.87c1.54,8.32,14.76,17,27,14.7s21.52-15,20-23.36Z"/>
            <path class="cls-25" d="M182,137.26c11.13-2.06,19.78-12.81,20.11-21l-46.38,8.55C159,132.35,170.9,139.31,182,137.26Z"/>
            <path class="cls-26" d="M181.66,135.27c10.21-1.88,18.3-11.06,19.84-18.89l-45.1,8.32C160.62,131.46,171.46,137.15,181.66,135.27Z"/>
            <path class="cls-27" d="M201.5,116.38l-1.59.3a35.28,35.28,0,0,1-8,11.15c-2.18,2-5.56,3.17-8.32,4.14s-14.23,1.25-16.84-.22a43.13,43.13,0,0,1-8.7-7.17,1.83,1.83,0,0,0-.13-.16l-1.53.28c4.22,6.76,15.06,12.45,25.26,10.57S200,124.21,201.5,116.38Z"/>
            <path class="cls-25" d="M178.59,120.44a1.29,1.29,0,0,0-.36.14l-.11,0a1.3,1.3,0,0,0-.72-.07,1.34,1.34,0,0,0,.3,2.64,1.27,1.27,0,0,0,.71.08,1.42,1.42,0,0,0,.33-.13,1.26,1.26,0,0,0,.34,0A1.35,1.35,0,0,0,178.59,120.44Z"/>
            <polygon class="cls-25" points="179.44 135.68 178.25 121.78 182.09 135.19 179.44 135.68"/>
            <polygon class="cls-25" points="168.08 134 178.25 121.78 170.45 135.63 168.08 134"/>
            <polygon class="cls-25" points="159.94 128.72 178.25 121.78 161.31 131.61 159.94 128.72"/>
            <polygon class="cls-25" points="191.49 132.37 178.25 121.78 193.09 129.98 191.49 132.37"/>
            <polygon class="cls-25" points="199.29 124.47 178.25 121.78 199.45 121.28 199.29 124.47"/>
          </g>
        </g>
        <g>
          <g>
            <g>
              <path class="cls-77" d="M73.66,149.84H20.2l4.6,21.62c0,1.26.65,3.32,4.74,5a46.31,46.31,0,0,0,17.44,3,46.26,46.26,0,0,0,17.43-3c4.1-1.73,4.74-3.79,4.74-5C69.15,171.34,73.66,149.84,73.66,149.84Z"/>
              <path class="cls-78" d="M69.15,171.46c0-.12,4.51-21.62,4.51-21.62H20.2l4.6,21.62a2.56,2.56,0,0,0,.59,1.42c6.84-2.66,21.61-2.59,29.55,4.43a16.62,16.62,0,0,0,1.83,1.39,36.25,36.25,0,0,0,7.64-2.19C68.51,174.78,69.15,172.72,69.15,171.46Z"/>
              <path class="cls-79" d="M47.28,149.84a10.92,10.92,0,0,0,1.23.5c9.86,3.3,11.66,25.11,11.22,27.38,0,.12,0,.24-.07.35a32.66,32.66,0,0,0,4.75-1.56c4.1-1.73,4.74-3.79,4.74-5,0-.12,4.51-21.62,4.51-21.62Z"/>
              <g>
                <path class="cls-79" d="M28.39,160.48c.35,5.2,0,7.49-.81,7.58s-1.74-2.08-2.09-7.28,0-9.48.82-9.56S28,155.28,28.39,160.48Z"/>
                <path class="cls-79" d="M36.26,162.13c.07,5.22-.52,7.48-1.33,7.49s-1.51-2.21-1.58-7.43.53-9.45,1.33-9.47S36.19,156.92,36.26,162.13Z"/>
                <path class="cls-79" d="M44.12,163.18c.07,5.22-.52,7.48-1.32,7.49s-1.52-2.21-1.59-7.43.53-9.46,1.33-9.47S44.05,158,44.12,163.18Z"/>
                <path class="cls-80" d="M64.81,160.48c-.35,5.2,0,7.49.81,7.58s1.74-2.08,2.09-7.28,0-9.48-.82-9.56S65.16,155.28,64.81,160.48Z"/>
                <path class="cls-80" d="M56.94,162.13c-.07,5.22.52,7.48,1.33,7.49s1.51-2.21,1.58-7.43-.53-9.45-1.33-9.47S57,156.92,56.94,162.13Z"/>
                <path class="cls-79" d="M49.08,163.18c-.07,5.22.52,7.48,1.33,7.49s1.51-2.21,1.58-7.43-.53-9.46-1.33-9.47S49.15,158,49.08,163.18Z"/>
              </g>
              <path class="cls-81" d="M74.13,148.36c0,6.66-12.18,12.06-27.2,12.06s-27.2-5.4-27.2-12.06,12.18-12.06,27.2-12.06S74.13,141.7,74.13,148.36Z"/>
              <path class="cls-82" d="M47.28,159.87c-15,0-27.2-5.4-27.2-12.06a6.47,6.47,0,0,1,1.65-4.14,6.77,6.77,0,0,0-2.05,4.59c0,6.66,12.18,12.06,27.2,12.06,11.74,0,21.74-3.3,25.55-7.91C68.36,156.79,58.63,159.87,47.28,159.87Z"/>
              <path class="cls-83" d="M46.93,157.24c-7,0-13.45-1.18-18.29-3.33-4.29-1.9-6.22-4.16-6.22-5.55s1.93-3.65,6.22-5.55c4.84-2.15,11.34-3.33,18.29-3.33s13.44,1.18,18.28,3.33c4.3,1.9,6.22,4.16,6.22,5.55s-1.92,3.65-6.22,5.55C60.37,156.06,53.88,157.24,46.93,157.24Z"/>
            </g>
            <path class="cls-84" d="M73.46,143.81c0,6.77-11.88,12.26-26.53,12.26s-26.54-5.49-26.54-12.26,11.88-10.16,26.54-10.16S73.46,137,73.46,143.81Z"/>
            <path class="cls-84" d="M70.62,133.54c0,6.77-10.61,12.26-23.69,12.26s-23.7-5.49-23.7-12.26,10.61-8.84,23.7-8.84S70.62,126.77,70.62,133.54Z"/>
            <path class="cls-84" d="M61.34,126.52c-.09-5.58-4.62-13.64-10.72-14.49-2.37-.33-4.36-1.48-6,.84-.54.74-.21,2.39-.1,3.12.6,3.93-.78,6.11-4.1,8.13-5,3,.29,7.82,4.18,8.32a50.73,50.73,0,0,0,5.87.68c1.29,0,2.48-.84,3.74-1a11.28,11.28,0,0,0,3.67-1.87,4.51,4.51,0,0,0,.34-.36,3.65,3.65,0,0,0,2.5-2.43A.87.87,0,0,0,61.34,126.52Z"/>
            <path class="cls-85" d="M69.18,137.76a7.26,7.26,0,0,0,1.44-4.22c0-4-3.65-6.32-9.31-7.59-.37-5.54-4.79-13.1-10.69-13.92-.72-.1-1.4-.27-2.06-.4a11.68,11.68,0,0,0,2,1.25,14.9,14.9,0,0,1,4,3.23A18.74,18.74,0,0,1,57,120.34a18.74,18.74,0,0,1,1.72,4.49,5.25,5.25,0,0,0,.95,2.73c.19.2.55.2.81.25a11.33,11.33,0,0,1,2.75,1.24c2.28,1.09,3,3.67,3,6,0,.64-.06,1.25-.09,1.89-.1,1.65-1.62,2-2.86,2.44-.4.15-.21.72.16.75a17.61,17.61,0,0,0,1.78,0c1.92,0,2,2,2.23,3.33a10.08,10.08,0,0,1-.9,5.88c-1.41,3.38-6,3.92-8.93,5.32a.37.37,0,0,0-.2.41c9.43-1.88,16-6.22,16-11.26C73.46,141.34,71.89,139.33,69.18,137.76Z"/>
            <path class="cls-86" d="M63.88,143.57c0,4.1-9.35,7.43-20.88,7.43s-20.89-3.33-20.89-7.43,9.35-6.16,20.89-6.16S63.88,139.46,63.88,143.57Z"/>
            <path class="cls-86" d="M65.38,131.9c0,5.52-9.44,10-21.08,10s-21.07-4.47-21.07-10,9.43-7.2,21.07-7.2S65.38,126.39,65.38,131.9Z"/>
            <path class="cls-86" d="M56.43,126.52C56.36,120.94,52.8,112.88,48,112c-1.87-.33-3.43-1.48-4.75.84-.43.74-.17,2.39-.08,3.12.47,3.93-.61,6.11-3.23,8.13-3.94,3,.23,7.82,3.29,8.32a31.78,31.78,0,0,0,4.62.68c1,0,1.95-.84,2.95-1a8.31,8.31,0,0,0,2.88-1.87,3.59,3.59,0,0,0,.27-.36,3.36,3.36,0,0,0,2-2.43A.86.86,0,0,0,56.43,126.52Z"/>
            <path class="cls-87" d="M41.38,136.15c-6.21,0-10.85-2.38-10.85-4.51,0-1.83,4.06-2.92,10.85-2.92s10.85,1.09,10.85,2.92C52.23,133.77,47.59,136.15,41.38,136.15Z"/>
            <path class="cls-87" d="M44.71,148.9c-5.78,0-10.1-2.39-10.1-4.52,0-1.82,3.77-2.91,10.1-2.91s10.1,1.09,10.1,2.91C54.81,146.51,50.49,148.9,44.71,148.9Z"/>
            <path class="cls-87" d="M45.31,122.59a10.12,10.12,0,0,0-.07,4.13c.55,1.84,4.11,1.26,5.19.16,1.47-1.49,1.76-3.54,1.8-5.56-1.16-3.17-3.08-5.88-4.78-6.18-.46-.08-.87-.19-1.24-.29,0,.21.09.76.09.76A11.94,11.94,0,0,1,45.31,122.59Z"/>
            <path class="cls-88" d="M41.21,126.41c0,.57-.69,1-1.53,1s-1.54-.47-1.54-1,.69-1,1.54-1S41.21,125.83,41.21,126.41Z"/>
            <path class="cls-88" d="M45.84,116.15c0,.57-.69,1-1.54,1s-1.53-.47-1.53-1,.69-1.05,1.53-1.05S45.84,115.57,45.84,116.15Z"/>
            <path class="cls-88" d="M54.81,124.3c0,.58-.69,1-1.53,1s-1.54-.47-1.54-1,.69-1,1.54-1S54.81,123.73,54.81,124.3Z"/>
            <path class="cls-88" d="M62.55,132.43c0,.58-.69,1-1.54,1s-1.53-.47-1.53-1,.69-1,1.53-1S62.55,131.86,62.55,132.43Z"/>
            <path class="cls-88" d="M42.74,135.6c0,.58-.69,1.05-1.53,1.05s-1.53-.47-1.53-1.05.68-1,1.53-1S42.74,135,42.74,135.6Z"/>
            <path class="cls-88" d="M28.48,128.72c0,.58-.69,1-1.54,1s-1.53-.46-1.53-1,.69-1,1.53-1S28.48,128.14,28.48,128.72Z"/>
            <path class="cls-88" d="M29,143c0,.58-.68,1.05-1.53,1.05S26,143.58,26,143s.68-1,1.53-1S29,142.43,29,143Z"/>
            <path class="cls-88" d="M53.28,143.67c0,.58-.69,1.05-1.54,1.05s-1.53-.47-1.53-1.05.69-1,1.53-1S53.28,143.09,53.28,143.67Z"/>
            <path class="cls-88" d="M68.44,142.63c0,.57-.68,1-1.53,1s-1.53-.47-1.53-1,.68-1,1.53-1S68.44,142.05,68.44,142.63Z"/>
          </g>
          <g>
            <path class="cls-89" d="M33.74,130.83Z"/>
            <path class="cls-89" d="M34.48,128.29c-.23-.67.15-1.43-.54-1.89s-1.15.43-1.31.9a2.76,2.76,0,0,0-.13.77,2.38,2.38,0,0,0-.18.3,8.73,8.73,0,0,0-.38,1c-.21.54-.42,1.33.22,1.67a1.68,1.68,0,0,0,1.41-.19l.17,0h-.06a2.22,2.22,0,0,0,.44-.06,1.38,1.38,0,0,0,.72-.56C35.19,129.62,34.66,128.85,34.48,128.29Z"/>
          </g>
          <g>
            <path class="cls-89" d="M61.64,147Z"/>
            <path class="cls-89" d="M61.35,144.41c-.47-.53-.41-1.38-1.23-1.54s-.89.84-.86,1.34a2.63,2.63,0,0,0,.18.76c0,.12,0,.23-.06.34a7.81,7.81,0,0,0,0,1.08c0,.58.12,1.39.83,1.46.51.05.91-.39,1.24-.71a.41.41,0,0,1,.14-.1l-.06,0a2.22,2.22,0,0,0,.39-.23,1.35,1.35,0,0,0,.45-.79C62.51,145.36,61.73,144.86,61.35,144.41Z"/>
          </g>
          <g>
            <path class="cls-89" d="M53.61,131.45Z"/>
            <path class="cls-89" d="M55.26,130c.13-.58.74-1,.44-1.59s-1-.2-1.34.07a2.35,2.35,0,0,0-.43.5,2.1,2.1,0,0,0-.26.13,5.54,5.54,0,0,0-.71.57c-.4.29-.9.77-.59,1.29s.72.43,1.1.48a.93.93,0,0,1,.14,0l0,0a2.07,2.07,0,0,0,.34.15,1.14,1.14,0,0,0,.77-.09C55.19,131.22,55.14,130.44,55.26,130Z"/>
          </g>
          <path class="cls-89" d="M44.53,124.44l-.12-.11a2.83,2.83,0,0,1-.62-1,2.69,2.69,0,0,0-.25-1,.63.63,0,0,0-.68-.27,1,1,0,0,0-.59.44,2.18,2.18,0,0,1-.49.41c-.3.23-.79.83-.28,1.28a10.3,10.3,0,0,0,1.21.7c.5.34.9.77,1.56.6A.59.59,0,0,0,44.53,124.44Z"/>
          <path class="cls-89" d="M53.14,136.91,53,137a2.81,2.81,0,0,1-1.19,0c-.35-.1-.64-.34-1-.3a.61.61,0,0,0-.58.44,1,1,0,0,0,.08.73,2.25,2.25,0,0,1,.1.64c.05.37.32,1.1,1,.89a11.45,11.45,0,0,0,1.21-.7c.54-.25,1.12-.38,1.31-1C54,137.23,53.56,136.75,53.14,136.91Z"/>
          <path class="cls-89" d="M36.43,145.48l-.15.06a2.81,2.81,0,0,1-1.19,0c-.35-.1-.64-.34-1-.3a.6.6,0,0,0-.57.44.93.93,0,0,0,.07.73,1.9,1.9,0,0,1,.11.63c0,.37.31,1.11,1,.9a9.74,9.74,0,0,0,1.21-.7c.55-.25,1.12-.38,1.32-1A.6.6,0,0,0,36.43,145.48Z"/>
          <path class="cls-89" d="M33.62,138.88l-.11-.13a2.83,2.83,0,0,1-.39-1.12c0-.37.11-.72,0-1.07a.63.63,0,0,0-.61-.4.94.94,0,0,0-.66.31,2.21,2.21,0,0,1-.57.3c-.33.17-.94.66-.53,1.21a13.29,13.29,0,0,0,1.05.92c.42.43.73.93,1.41.9A.6.6,0,0,0,33.62,138.88Z"/>
        </g>
        <g>
          <path class="cls-90" d="M93,68.67a8.67,8.67,0,0,1,4.63-1.42,7.5,7.5,0,0,1,4.4,1.42l-3.71,3.16Z"/>
          <g>
            <path class="cls-91" d="M84.83,173.68s-2.12,1.6-4.29,3.11a5.16,5.16,0,0,0-2.11,4H92.36s.43-5.78-1.14-7.15Z"/>
            <rect class="cls-92" x="78.43" y="179.9" width="13.97" height="0.92"/>
          </g>
          <g>
            <path class="cls-91" d="M112.47,173.68s2.13,1.6,4.29,3.11a5.16,5.16,0,0,1,2.11,4H104.94s-.42-5.78,1.14-7.15Z"/>
            <rect class="cls-92" x="104.9" y="179.9" width="13.97" height="0.92" transform="translate(223.78 360.73) rotate(180)"/>
          </g>
          <g>
            <path class="cls-93" d="M94.13,67a15.41,15.41,0,0,1-.21,3.88c-.22.85,4,4.6,4,4.6s3.07-2.51,3.3-4.6c-.12-1.66-.37-3.88-.37-3.88Z"/>
            <g>
              <path class="cls-94" d="M91.38,58.71s-.87-.46-1.43.66.48,2.9,1.44,3S91.38,58.71,91.38,58.71Z"/>
              <path class="cls-94" d="M104.48,58.66s.92-.33,1.31.86-.89,2.8-1.86,2.71S104.48,58.66,104.48,58.66Z"/>
              <path class="cls-94" d="M104.33,60c0,4.81-3,8.71-6.62,8.71s-6.63-3.9-6.63-8.71,3-8.7,6.63-8.7S104.33,55.16,104.33,60Z"/>
            </g>
          </g>
          <polygon class="cls-91" points="90.79 58.64 91.53 59.16 92.97 57.07 90.81 57.07 90.79 58.64"/>
          <polygon class="cls-91" points="104.7 58.64 103.97 59.16 102.52 57.07 104.69 57.07 104.7 58.64"/>
          <polygon class="cls-95" points="83.22 120.42 81.91 175.42 93.64 175.42 97.5 123.08 104.73 175.42 116.07 175.42 111.68 120.42 105.86 113.09 90.81 113.09 83.22 120.42"/>
          <path class="cls-94" d="M130.82,76l4-8.95c.75-1.66,2.54-3.69,3.66-1.82a7.24,7.24,0,0,1,1,5.11c-.28,1.37-5.42,7.7-5.42,7.7Z"/>
          <path class="cls-96" d="M121.71,85.78c-2.6-4.26-5.76-9-8-10.68-2.61-2-12.44-4.25-12.44-4.25S97.76,74.42,97.46,75c-.43-.68-3.54-4.15-3.54-4.15s-9.53,2.15-12,4c-3.63,2.73-8.81,15.49-11.28,19.73a5.09,5.09,0,0,0,.18,5.27c2.27,3,12,10,12,10l3.92-6.58L80.05,96.8l3.11-8.35.06,32h28.46l.09-32,3.64,3.83C117.14,89.85,119.54,87.89,121.71,85.78Z"/>
          <rect class="cls-97" x="89.8" y="75" width="14.94" height="45.43"/>
          <rect class="cls-96" x="88.49" y="75.92" width="15.12" height="44.5"/>
          <path class="cls-96" d="M104.74,57.69V38s-2.16-2.74-7-2.74S90.79,38,90.79,38V57.69Z"/>
          <path class="cls-97" d="M92.81,71.12,93,68.67S97.65,72,97.46,75A31.94,31.94,0,0,1,92.81,71.12Z"/>
          <path class="cls-97" d="M102.16,71.12,102,68.67S97.32,72,97.51,75A31.94,31.94,0,0,0,102.16,71.12Z"/>
          <g>
            <path class="cls-91" d="M93.53,78a.78.78,0,1,1-.78-.78A.78.78,0,0,1,93.53,78Z"/>
            <path class="cls-91" d="M102.56,78a.78.78,0,1,1-.78-.78A.78.78,0,0,1,102.56,78Z"/>
            <path class="cls-91" d="M93.53,90a.78.78,0,1,1-.78-.78A.78.78,0,0,1,93.53,90Z"/>
            <path class="cls-91" d="M102.56,90a.78.78,0,1,1-.78-.78A.78.78,0,0,1,102.56,90Z"/>
          </g>
          <g>
            <path class="cls-91" d="M93.53,101a.78.78,0,1,1-.78-.78A.78.78,0,0,1,93.53,101Z"/>
            <path class="cls-91" d="M102.56,101a.78.78,0,1,1-.78-.78A.78.78,0,0,1,102.56,101Z"/>
            <path class="cls-91" d="M93.53,113a.78.78,0,1,1-.78-.78A.77.77,0,0,1,93.53,113Z"/>
            <path class="cls-91" d="M102.56,113a.78.78,0,1,1-.78-.78A.77.77,0,0,1,102.56,113Z"/>
          </g>
          <polygon class="cls-98" points="83.02 107.02 79.6 150.88 116.07 150.88 111.89 107.02 83.02 107.02"/>
          <rect class="cls-98" x="89.23" y="84.56" width="16.62" height="26.3"/>
          <rect class="cls-99" x="83.02" y="105.71" width="28.87" height="1.73"/>
          <path class="cls-96" d="M114.88,91.92s3.35,4.49,5.72,4.49c2.7,0,4.91-3.85,8.68-8.81a63.35,63.35,0,0,0,6.16-10l-4.62-3.69Z"/>
          <path class="cls-100" d="M87,95.16l-.06.12a11.18,11.18,0,0,0,20.2,9.59.69.69,0,0,0,0-.13Z"/>
          <path class="cls-94" d="M84.43,109a23.51,23.51,0,0,0,6.28,3.64,10.62,10.62,0,0,0,7.91-.52c1.11-.74.89-1.54-.44-1.63s-5.82-1.14-5.82-1.14a11.79,11.79,0,0,0,2.08-1.75c.75-.95.39-1.35-.35-1.17s-2.34,1.23-3,.94c-1-.41-4-1.45-4-1.45Z"/>
          <path class="cls-97" d="M129.93,72.52l7.32,5.37L134,85S126.59,79.08,129.93,72.52Z"/>
          <path class="cls-97" d="M83.08,112.26l5.41-7.3-5.21-5.79S78,107,83.08,112.26Z"/>
          <rect class="cls-97" x="90.79" y="55.32" width="13.95" height="0.84"/>
          <polygon class="cls-98" points="91.47 85.38 89.39 86.1 85.07 73.25 87.15 72.52 91.47 85.38"/>
          <polygon class="cls-98" points="103.61 85.38 105.69 86.1 110.02 73.25 107.94 72.52 103.61 85.38"/>
          <path class="cls-94" d="M135.93,63.81c-.32-1-1.1-2.19-1.55-1.8s.1,1.15.14,2.41-.6,6.07-.6,6.07L136,67.13A11.73,11.73,0,0,0,135.93,63.81Z"/>
          <g>
            <rect class="cls-91" x="135.78" y="49.47" width="0.29" height="13.7" transform="translate(-4.09 11.12) rotate(-4.62)"/>
            <path class="cls-91" d="M137,62.34l-.28,0-.41-5.1a3,3,0,0,1,.83-1.95,4.38,4.38,0,0,0,1.13-3.07,2.89,2.89,0,0,0-.92-2.09,2.8,2.8,0,0,0-3.7.37,3.06,3.06,0,0,0-.51,2.33,4,4,0,0,0,1.54,2.67,2.72,2.72,0,0,1,1.11,1.78l.41,5.1-.27,0-.41-5.1a2.53,2.53,0,0,0-1-1.6,4.29,4.29,0,0,1-1.62-2.84,3.31,3.31,0,0,1,.57-2.53,3.07,3.07,0,0,1,4.1-.42,3.2,3.2,0,0,1,1,2.29,4.61,4.61,0,0,1-1.18,3.26,2.84,2.84,0,0,0-.79,1.76Z"/>
            <path class="cls-100" d="M135.6,62.14l.78,9.65c0,.59.44,1,.87,1s.75-.55.71-1.14L137.18,62Z"/>
          </g>
          <path class="cls-94" d="M138.1,63.55s-1.52.79-1.84,1.53-.24,1.19.68.89a4.75,4.75,0,0,0,2-1.16C139.51,64.29,139.1,62.91,138.1,63.55Z"/>
          <path class="cls-94" d="M138.41,64.89s-1.52.79-1.84,1.53-.24,1.19.69.89a4.81,4.81,0,0,0,2-1.16C139.82,65.63,139.42,64.25,138.41,64.89Z"/>
          <path class="cls-94" d="M138.63,66.23s-1.52.79-1.84,1.53-.24,1.19.69.89a4.77,4.77,0,0,0,2-1.16C140,67,139.63,65.59,138.63,66.23Z"/>
          <path class="cls-94" d="M139.07,67.57s-1.52.79-1.83,1.53-.24,1.19.68.89a4.65,4.65,0,0,0,2-1.16C140.48,68.31,140.08,66.93,139.07,67.57Z"/>
        </g>
        <g>
          <g>
            <path class="cls-28" d="M162,155.94c0,13.51-10.23,24.46-22.85,24.46H132c-12.62,0-22.85-11-22.85-24.46v-6.42H162Z"/>
            <path class="cls-29" d="M164.8,151.59c0,8.66-13.08,15.67-29.21,15.67s-29.21-7-29.21-15.67,13.08-15.66,29.21-15.66S164.8,142.94,164.8,151.59Z"/>
            <path class="cls-30" d="M132,180.4h7.14c10.82,0,19.88-8.05,22.24-18.87-1.45.11-2.73,1.84-3.47,4.43a2.61,2.61,0,0,0-1.89-1c-1.45,0-2.72,1.61-3.5,4.07a3.17,3.17,0,0,0-2.48-1.77c-1.7,0-3.16,2.23-3.87,5.46-.79-2.35-2-3.87-3.43-3.87s-2.81,1.72-3.58,4.33c-.78-2.61-2.09-4.33-3.59-4.33-1.66,0-3.1,2.12-3.82,5.22-.72-3.1-2.16-5.22-3.81-5.22-1.41,0-2.65,1.52-3.44,3.87-.7-3.23-2.17-5.46-3.87-5.46a3.15,3.15,0,0,0-2.47,1.77c-.78-2.46-2.06-4.07-3.5-4.07a2.61,2.61,0,0,0-1.89,1c-.66-2.3-1.74-3.93-3-4.34C112.19,172.39,121.23,180.4,132,180.4Z"/>
            <path class="cls-31" d="M117.86,171.26c0,1.24.14,2.24.32,2.24s.32-1,.32-2.24-.14-2.23-.32-2.23S117.86,170,117.86,171.26Z"/>
            <path class="cls-31" d="M157.72,167.14c0,.73.15,1.31.33,1.31s.32-.58.32-1.31-.14-1.31-.32-1.31S157.72,166.42,157.72,167.14Z"/>
            <path class="cls-31" d="M112.5,167.14c0,.73.14,1.31.32,1.31s.32-.58.32-1.31-.14-1.31-.32-1.31S112.5,166.42,112.5,167.14Z"/>
            <path class="cls-31" d="M124.2,174.92c0,1.23.14,2.24.32,2.24s.32-1,.32-2.24-.14-2.23-.32-2.23S124.2,173.69,124.2,174.92Z"/>
            <path class="cls-31" d="M131.5,176.38a5,5,0,0,0,.32,2.43c.18,0,.33-1.09.33-2.43S132,174,131.82,174A5,5,0,0,0,131.5,176.38Z"/>
            <path class="cls-31" d="M145.83,174.92a5,5,0,0,0,.32,2.43c.18,0,.33-1.09.33-2.43s-.15-2.43-.33-2.43A5,5,0,0,0,145.83,174.92Z"/>
            <path class="cls-31" d="M152.31,171.26c0,1.35.14,2.44.32,2.44s.32-1.09.32-2.44-.14-2.43-.32-2.43S152.31,169.92,152.31,171.26Z"/>
            <path class="cls-31" d="M138.87,175.91c0,1.6.14,2.9.32,2.9s.33-1.3.33-2.9-.15-2.89-.33-2.89S138.87,174.31,138.87,175.91Z"/>
          </g>
          <path class="cls-101" d="M109.17,155.94a26,26,0,0,0,.75,6.22,4.81,4.81,0,0,0,1.64-1.15l.27-.25a10.63,10.63,0,0,0,1.36-1.45,3.14,3.14,0,0,0,.24-.39,1.18,1.18,0,0,1,.1-.19,1.8,1.8,0,0,1,.81.62,2,2,0,0,1,0,.52,5.2,5.2,0,0,0,0,.59,6,6,0,0,0,.09,1.06c0,.19.06.39.07.57a15.7,15.7,0,0,0,1,4,3.65,3.65,0,0,0,3.49,2.35,3.76,3.76,0,0,0,2.44-.88,8.31,8.31,0,0,0,1.73-2.44c.18-.34.34-.65.52-.93a4.73,4.73,0,0,0,.27-.51,3.18,3.18,0,0,1,.43-.71h.08a2,2,0,0,1,.85.24,2.56,2.56,0,0,1,.87,1.18l.06.13a41.66,41.66,0,0,1,1.72,4c.07.16.13.35.2.54.34,1,.8,2.33,1.93,2.83a4.52,4.52,0,0,0,1.69.36,2.1,2.1,0,0,0,1.52-.53,5.33,5.33,0,0,0,1.29-2.83c.08-.32.15-.62.23-.89.16-.5.3-1,.45-1.5.22-.74.44-1.49.69-2.23a0,0,0,0,0,0,0l.12,0c0,.14,0,.31,0,.42a3.11,3.11,0,0,0-.05.8,2.27,2.27,0,0,0,2,2.15h.15a2.63,2.63,0,0,0,2.32-2.24,3.77,3.77,0,0,0,.09-1,3.45,3.45,0,0,1,0-.49.92.92,0,0,1,.6-.16,3.07,3.07,0,0,1,.76.12,2.36,2.36,0,0,1,.93.9,1.92,1.92,0,0,0,.46.51,4.49,4.49,0,0,0,2.62.88,3.68,3.68,0,0,0,.66-.06c1.26-.19,2.11-1.34,2.73-2.19l.36-.48a8,8,0,0,1,1.85-1.59c.5-.17,1-.34,1.46-.53h.47a1.07,1.07,0,0,1,.94.33,7.14,7.14,0,0,1,1.11,1.92l.13.33a3.87,3.87,0,0,0,1.68,2.25,1.55,1.55,0,0,0,.66.15,2.18,2.18,0,0,0,1.86-1.39,7.52,7.52,0,0,0,.58-2.05,8.3,8.3,0,0,1,.19-.92,6.93,6.93,0,0,0,.08-2.18,3.57,3.57,0,0,1,.19-2l0,0c.11-.17.21-.3.28-.39.07.19.12.41.18.64l0,.16a6.52,6.52,0,0,0,.46,1.25,26.11,26.11,0,0,0,.22-3.33v-6.42H109.17Z"/>
          <path class="cls-102" d="M164.91,146.47a15.69,15.69,0,0,0-1-2.5c-3.15-6.84-14.65-11.91-28.36-11.91-16.1,0-29.15,7-29.21,15.61a8.74,8.74,0,0,0-.14,2.22c0,.62,0,1.24,0,1.86,0,1.54.09,3.11.16,4.65.07,1.71.41,4.71,2.56,5,1,.13,1.66-.73,2.3-1.3a9.92,9.92,0,0,0,1.25-1.34c.19-.25.38-.89.81-.92a2.18,2.18,0,0,1,1.72,1c.32.42.09,1,.08,1.62a13.74,13.74,0,0,0,.16,1.56,15.06,15.06,0,0,0,.94,3.78,2.93,2.93,0,0,0,4.56,1.1,13.32,13.32,0,0,0,2.08-3.18c.31-.49.63-1.5,1.26-1.6a2.52,2.52,0,0,1,1.48.31,3.41,3.41,0,0,1,1.32,1.69c.66,1.31,1.22,2.68,1.75,4,.36.92.7,2.47,1.68,2.9.58.26,1.76.49,2.26,0,.9-.87.95-2.22,1.3-3.36s.76-2.6,1.19-3.87c0-.08.39-.46.49-.46.34,0,.75-.22,1,0,.52.4.12,1.45.16,2s.53,1.42,1.21,1.36c.91-.08,1.34-.79,1.57-1.62.16-.61-.12-1.45.35-1.88a2.4,2.4,0,0,1,2.19-.22c.91.28,1.41,1.37,1.64,1.54a3.58,3.58,0,0,0,2.65.67c1.12-.18,1.92-1.58,2.55-2.37a8.58,8.58,0,0,1,2.16-1.83c.56-.19,1.11-.39,1.64-.6h.07c.84,0,1.49-.1,2.14.58a7.28,7.28,0,0,1,1.27,2.17c.29.65.66,1.82,1.38,2.14s1.17-.36,1.4-.84a14.27,14.27,0,0,0,.7-2.81c.37-1.38-.41-3.26.4-4.47.2-.29,1-1.63,1.6-.74a4.2,4.2,0,0,1,.48,1.38,8.08,8.08,0,0,0,.62,1.52c.26.55,1.05,1.07,1.62.57.81-.71.66-2.16.91-3.13a14.29,14.29,0,0,0,.64-3.7A39.64,39.64,0,0,0,164.91,146.47Z"/>
          <path class="cls-103" d="M162.79,146c0,7.55-12.18,13.68-27.2,13.68s-27.2-6.13-27.2-13.68,12.18-13.67,27.2-13.67S162.79,138.4,162.79,146Z"/>
          <path class="cls-104" d="M164,144c-3.15-6.84-14.65-11.91-28.36-11.91a51.23,51.23,0,0,0-11.3,1.22,41.48,41.48,0,0,1,7.18,3.42,29.62,29.62,0,0,1,3.78,3.13c1.29,1.09,2.6,2.14,3.84,3.28a22.37,22.37,0,0,1,5.12,7.32c1,2.39,1.59,4.94,2.62,7.31a29.18,29.18,0,0,0,2.38,4.78,8.69,8.69,0,0,1,1.87-1.51c.56-.19,1.11-.39,1.64-.6h.07c.84,0,1.49-.1,2.14.58a7.28,7.28,0,0,1,1.27,2.17c.29.65.66,1.82,1.38,2.14s1.17-.36,1.4-.84a14.27,14.27,0,0,0,.7-2.81c.37-1.38-.41-3.26.4-4.47.2-.29,1-1.63,1.6-.74a4.2,4.2,0,0,1,.48,1.38,8.08,8.08,0,0,0,.62,1.52c.26.55,1.05,1.07,1.62.57.81-.71.66-2.16.91-3.13a14.29,14.29,0,0,0,.64-3.7,39.64,39.64,0,0,0-1-6.61A15.69,15.69,0,0,0,164,144Z"/>
          <path class="cls-105" d="M122.6,162.3s0,0,0,0v-.07a.14.14,0,0,0,0-.06h0a.1.1,0,0,0,0-.05h0a.16.16,0,0,0-.08-.06h0l-.07,0h0l-.08,0h0l0,0a3.23,3.23,0,0,0-.38.45l0,0,0,.09a3.91,3.91,0,0,0-.26.44l-.06.1L121,164a3,3,0,0,1-.76,1,1.79,1.79,0,0,1-1.28.54c-.51-.08-.87-.57-1.14-1.07a4.2,4.2,0,0,1-.54-1.7,7.77,7.77,0,0,1,0-1,6,6,0,0,0-.18-1c-.16-.65-.25-1.37-.46-2.09a9.12,9.12,0,0,0-.36-1.08,2.84,2.84,0,0,0-.73-1,3.41,3.41,0,0,0-2.36-.83,2.59,2.59,0,0,0-1.29.44l-.14.1,0,0,0,0h0l-.06.05-.21.22a6.09,6.09,0,0,0-.44.44c-.29.32-.57.67-.73.66s-.11,0-.21-.12a1.29,1.29,0,0,1-.24-.42,2.17,2.17,0,0,1-.14-.53l-.11-.62c-.06-.23-.13-.46-.19-.68,0,0-.07-.21-.08-.27s0-.14,0-.24c0-.36,0-.78,0-1.24v0c0-.18,0-.06,0-.11v0s0,0,0-.05a.6.6,0,0,0-.08-.16.43.43,0,0,0-.11-.12l-.1-.07a.57.57,0,0,0-.22-.07.67.67,0,0,0-.43.08.58.58,0,0,0-.28.4.52.52,0,0,0,0,.11v.29l0,.31a4.35,4.35,0,0,0,.09,1.41c.12.41.26.82.34,1.18l.08.62c0,.12.08.28.13.39a1.8,1.8,0,0,0,.17.34,1.73,1.73,0,0,0,.22.31,1.92,1.92,0,0,0,.29.28,1.48,1.48,0,0,0,.82.3,2.73,2.73,0,0,0,.4,0,2.45,2.45,0,0,0,.39-.15,3.39,3.39,0,0,0,.58-.44c.32-.32.58-.66.84-.94a2.74,2.74,0,0,1,.4-.37.8.8,0,0,1,.21-.13l.09,0,.14,0a2.2,2.2,0,0,1,.51-.09h.25l.24.06a2.73,2.73,0,0,1,1.39,1.53,6.74,6.74,0,0,1,.36,1c0,.18.07.34.12.54s.08.36.13.54c.08.35.21.72.29,1.05a6.54,6.54,0,0,1,.09,1,3.07,3.07,0,0,0,.06.53,2.44,2.44,0,0,0,.15.5,9.22,9.22,0,0,0,.39.91,3,3,0,0,0,1.24,1.38l.4.16.43.07a1.6,1.6,0,0,0,.79-.21,3.31,3.31,0,0,0,1-1.05,11.77,11.77,0,0,0,.63-1.07,7.26,7.26,0,0,1,.89-1.36l0,0v0l0,0Zm-.36.44a.1.1,0,0,1,0-.05A.1.1,0,0,0,122.24,162.74Z"/>
          <path class="cls-105" d="M112.26,144.37c0-3,1.54-5.78,4.2-8.14-5,2.48-8.07,5.92-8.07,9.72,0,7.55,12.18,13.67,27.2,13.67.67,0,1.33,0,2,0C123.43,159,112.26,152.44,112.26,144.37Z"/>
          <path class="cls-106" d="M135.59,132.06c-11.64,0-21.69,3.65-26.38,8.94,2.89,2.25,7.2,3.13,10.22,4.62,2.7,1.34,15.4,3.52,15.64,1.33.59-5.2,2.57-9.87,3.73-14.79C137.74,132.1,136.68,132.06,135.59,132.06Z"/>
          <g>
            <path class="cls-107" d="M136,118.49c-3.42-2.47-6.44-1.91-9.6.6-3.44,2.74-3.25,7.67-4.66,11.55-2.89-2.37-4.91-5.67-9.64-4.45-4.94,1.26-6.05,5.8-4.79,10.07,1.61,5.48,8.62,6.36,13,8.51,2.7,1.33,15.4,3.51,15.64,1.32.69-6.14,3.33-11.53,4.27-17.49A11.85,11.85,0,0,0,136,118.49Z"/>
            <path class="cls-108" d="M136,118.49a10.9,10.9,0,0,0-.94-.58,13.58,13.58,0,0,1,1,6.36c-.87,6.89-3.57,13.09-4.17,20.2-.21,2.54-13.9-.29-16.83-1.91a46.61,46.61,0,0,0-4.4-2c2.86,1.93,6.79,2.79,9.6,4.19s15.4,3.51,15.64,1.32c.69-6.14,3.33-11.53,4.27-17.49A11.85,11.85,0,0,0,136,118.49Z"/>
            <path class="cls-89" d="M119.57,133a6.76,6.76,0,0,0-1.35-1.38,2.39,2.39,0,0,0-1.51-1.62,4.93,4.93,0,0,0-4.83.9,3.69,3.69,0,0,0,.72,6.43,9.52,9.52,0,0,1,1.64,1.19,7,7,0,0,0,1.88.86c1.25.46,3.36.75,4.4-.28C122.22,137.37,121.13,134.63,119.57,133Z"/>
            <path class="cls-109" d="M116.33,133.17a3.21,3.21,0,0,0-.66-.67,1.18,1.18,0,0,0-.74-.8,2.42,2.42,0,0,0-2.36.44,1.81,1.81,0,0,0,.35,3.15,5,5,0,0,1,.81.58,3,3,0,0,0,.91.42,2.23,2.23,0,0,0,2.16-.14C117.63,135.33,117.09,134,116.33,133.17Z"/>
          </g>
          <path class="cls-103" d="M138.63,144.17a11.51,11.51,0,0,0-3.11-.76,21.36,21.36,0,0,0-4.4.77,11.78,11.78,0,0,0-2.58,1c-1.47.71-2.25,1.84-3.46,2.79a.5.5,0,0,0-.19.61.68.68,0,0,0,1,.72,9.66,9.66,0,0,1,4.62-.68,10.39,10.39,0,0,0,4.35-.65c1.3-.48,4.09-1.66,4.28-3.21A.64.64,0,0,0,138.63,144.17Z"/>
          <g>
            <path class="cls-106" d="M145.49,147.21c-.38,1.28-2.71,1.71-5.19,1s-4.19-2.38-3.81-3.66,2.7-1.71,5.19-1S145.87,145.93,145.49,147.21Z"/>
            <path class="cls-110" d="M145.11,146.66c-.39,1.28-2.54,1.77-4.81,1.09s-3.81-2.26-3.43-3.54,2.54-1.77,4.81-1.09S145.49,145.39,145.11,146.66Z"/>
            <path class="cls-111" d="M143.92,146.31c-.31,1.05-2.14,1.44-4.09.86s-3.27-1.91-3-3,2.15-1.44,4.09-.86S144.24,145.26,143.92,146.31Z"/>
            <path class="cls-112" d="M141,145.44c-.16.51-1.05.7-2,.41s-1.6-.93-1.45-1.44,1.05-.7,2-.42S141.14,144.92,141,145.44Z"/>
          </g>
          <g>
            <path class="cls-106" d="M138.1,147.68c.63,1.07-.39,2.85-2.28,4s-3.93,1.13-4.57.05.39-2.85,2.28-4S137.47,146.6,138.1,147.68Z"/>
            <path class="cls-113" d="M138,147.7c.56,1-.36,2.53-2.05,3.53s-3.52,1-4.08.07.36-2.53,2-3.52S137.47,146.75,138,147.7Z"/>
            <path class="cls-114" d="M137.15,148.22c.46.78-.34,2.11-1.79,3s-3,.9-3.46.12.34-2.11,1.79-3S136.69,147.43,137.15,148.22Z"/>
            <path class="cls-112" d="M135,149.5c.23.38-.16,1-.87,1.45s-1.47.44-1.69.06.16-1,.87-1.45S134.74,149.12,135,149.5Z"/>
          </g>
          <g>
            <g>
              <path class="cls-115" d="M120.92,148.89a.39.39,0,0,1-.55,0l-1.9-1.9a.38.38,0,0,1,0-.55.39.39,0,0,1,.55,0l1.9,1.9A.39.39,0,0,1,120.92,148.89Z"/>
              <path class="cls-116" d="M118.7,146.71a.55.55,0,0,0-.31-.16.39.39,0,0,0,.08.44l1.9,1.9a.36.36,0,0,0,.38.09c0-.09,0-.24-.15-.37Z"/>
            </g>
            <g>
              <path class="cls-115" d="M122.33,152.44a.39.39,0,0,1-.48.27l-2.6-.68a.39.39,0,0,1-.28-.48.4.4,0,0,1,.48-.28l2.6.69A.39.39,0,0,1,122.33,152.44Z"/>
              <path class="cls-116" d="M119.31,151.67a.63.63,0,0,0-.34,0,.37.37,0,0,0,.28.35l2.6.68a.38.38,0,0,0,.38-.11.39.39,0,0,0-.32-.24Z"/>
            </g>
            <g>
              <path class="cls-115" d="M151.49,151.06a.39.39,0,0,1-.48.27l-2.59-.68a.39.39,0,1,1,.2-.76l2.59.69A.39.39,0,0,1,151.49,151.06Z"/>
              <path class="cls-116" d="M148.48,150.29a.56.56,0,0,0-.35,0,.38.38,0,0,0,.29.34l2.59.68a.4.4,0,0,0,.39-.11.4.4,0,0,0-.32-.24Z"/>
            </g>
            <g>
              <path class="cls-115" d="M131.44,154a.4.4,0,0,1-.28.48l-2.59.68a.38.38,0,0,1-.48-.27.39.39,0,0,1,.27-.48l2.6-.69A.39.39,0,0,1,131.44,154Z"/>
              <path class="cls-116" d="M128.44,154.8a.49.49,0,0,0-.29.19.37.37,0,0,0,.42.15l2.59-.68a.39.39,0,0,0,.28-.3.43.43,0,0,0-.4,0Z"/>
            </g>
            <g>
              <path class="cls-115" d="M129.44,149.18a.4.4,0,0,1-.07.55l-2.11,1.66a.39.39,0,0,1-.55-.06.4.4,0,0,1,.07-.55l2.11-1.66A.39.39,0,0,1,129.44,149.18Z"/>
              <path class="cls-116" d="M127,151.13a.5.5,0,0,0-.19.28.36.36,0,0,0,.44,0l2.11-1.66a.4.4,0,0,0,.14-.38.42.42,0,0,0-.39.12Z"/>
            </g>
            <g>
              <path class="cls-115" d="M142,150.67a.4.4,0,0,1,.54.13l1.4,2.29a.39.39,0,0,1-.13.54.39.39,0,0,1-.54-.13l-1.4-2.29A.4.4,0,0,1,142,150.67Z"/>
              <path class="cls-116" d="M143.62,153.31a.55.55,0,0,0,.26.23.39.39,0,0,0,0-.45l-1.4-2.29a.38.38,0,0,0-.36-.18.42.42,0,0,0,.07.4Z"/>
            </g>
            <g>
              <path class="cls-115" d="M139,139.07a.39.39,0,0,1,.51-.2l2.47,1.06a.39.39,0,0,1,.21.51.4.4,0,0,1-.51.21l-2.47-1.06A.4.4,0,0,1,139,139.07Z"/>
              <path class="cls-116" d="M141.87,140.27a.48.48,0,0,0,.34,0,.36.36,0,0,0-.23-.38l-2.47-1.06a.37.37,0,0,0-.39.06c0,.09.11.21.28.28Z"/>
            </g>
            <g>
              <path class="cls-115" d="M136.69,153.74a.4.4,0,0,1,.52-.21l2.47,1.06a.4.4,0,0,1,.2.52.39.39,0,0,1-.51.2l-2.47-1.06A.39.39,0,0,1,136.69,153.74Z"/>
              <path class="cls-116" d="M139.56,154.94a.64.64,0,0,0,.35,0,.4.4,0,0,0-.23-.39l-2.47-1.06a.23.23,0,1,0-.12.35Z"/>
            </g>
            <g>
              <path class="cls-115" d="M148.52,146a.39.39,0,0,1,.24-.5l2.53-.9a.38.38,0,0,1,.5.23.39.39,0,0,1-.24.5l-2.53.9A.38.38,0,0,1,148.52,146Z"/>
              <path class="cls-116" d="M151.44,145a.49.49,0,0,0,.28-.21.39.39,0,0,0-.43-.12l-2.53.9a.38.38,0,0,0-.25.31.41.41,0,0,0,.4,0Z"/>
            </g>
            <g>
              <path class="cls-115" d="M146.35,140.57a.39.39,0,0,1,.42-.36l2.68.16a.39.39,0,0,1,0,.78l-2.68-.16A.41.41,0,0,1,146.35,140.57Z"/>
              <path class="cls-116" d="M149.46,140.73a.49.49,0,0,0,.34-.08.4.4,0,0,0-.35-.28l-2.68-.16a.4.4,0,0,0-.36.19.46.46,0,0,0,.37.17Z"/>
            </g>
          </g>
        </g>
      </g>
    </g>
  </g>
</svg>
