<svg xmlns="http://www.w3.org/2000/svg" xmlns:xlink="http://www.w3.org/1999/xlink" viewBox="0 0 62.84 61.18">
  <defs>
    <style>
      .cls-1 {
        isolation: isolate;
      }

      .cls-2 {
        fill: #9b472d;
      }

      .cls-3 {
        fill: url(#linear-gradient);
      }

      .cls-4 {
        fill: url(#linear-gradient-2);
      }

      .cls-5 {
        fill: url(#linear-gradient-3);
      }

      .cls-6 {
        fill: #b6e4f2;
      }

      .cls-6, .cls-8 {
        mix-blend-mode: multiply;
      }

      .cls-7 {
        fill: url(#linear-gradient-4);
      }

      .cls-8 {
        fill: #ffcfe8;
      }

      .cls-9 {
        fill: #e3ffeb;
      }

      .cls-10 {
        fill: #feee7b;
      }

      .cls-11 {
        fill: #6c3c2d;
      }

      .cls-12 {
        fill: #f18604;
      }

      .cls-13 {
        fill: #f0383e;
      }
    </style>
    <linearGradient id="linear-gradient" y1="30.59" x2="62.84" y2="30.59" gradientUnits="userSpaceOnUse">
      <stop offset="0" stop-color="#cbffec"/>
      <stop offset="1" stop-color="#05b0ab"/>
    </linearGradient>
    <linearGradient id="linear-gradient-2" x1="1.19" y1="30.59" x2="61.65" y2="30.59" gradientUnits="userSpaceOnUse">
      <stop offset="0" stop-color="#a7e8cf"/>
      <stop offset="1" stop-color="#86ebeb"/>
    </linearGradient>
    <linearGradient id="linear-gradient-3" x1="3.51" y1="32.06" x2="59.34" y2="32.06" gradientUnits="userSpaceOnUse">
      <stop offset="0" stop-color="#b3ffe1"/>
      <stop offset="0.2" stop-color="#a4f6dc"/>
      <stop offset="0.58" stop-color="#7ddecf"/>
      <stop offset="1" stop-color="#4cbfbe"/>
    </linearGradient>
    <linearGradient id="linear-gradient-4" x1="14.5" y1="32.19" x2="48.34" y2="32.19" gradientUnits="userSpaceOnUse">
      <stop offset="0" stop-color="#72e8bd"/>
      <stop offset="1" stop-color="#05b0ab"/>
    </linearGradient>
  </defs>
  <title>P1_2</title>
  <g class="cls-1">
    <g id="圖層_2" data-name="圖層 2">
      <g id="圖層_1-2" data-name="圖層 1">
        <g>
          <path class="cls-2" d="M31.42,3.92A28.07,28.07,0,0,0,3.51,32.15,28.07,28.07,0,0,0,31.42,60.38a28.23,28.23,0,0,0,0-56.46Zm0,37.38c-5.4,0-9.79-4.1-9.79-9.15S26,23,31.42,23s9.79,4.1,9.79,9.15S36.82,41.3,31.42,41.3Z"/>
          <path class="cls-3" d="M31.42,0C14.1,0,0,14.42,0,32.15,0,38.5,1.75,49,4.93,49.41c1.42.2,2.62-5.79,7.82-1s2.38-2.11,5.66-1.93,2.2,2.71,2.74,5.61,1.65,7.57,4.21,7.47,3.83-5.14,5.84-5,2.2,6.6,5.12,6.6,4.34-7,8-9.12,5.51.16,6.7,1.52c2.33,2.67,6.9-4.29,7.32-4.93a32.54,32.54,0,0,0,4.46-16.5C62.84,14.42,48.75,0,31.42,0Zm0,45.26c-8,0-14.54-5.88-14.54-13.11a12.15,12.15,0,0,1,2.65-7.53h0s2.76,6.47,5.67,3.83,1.06-4.64,2.78-7.81c.47-.86.27-1.59,1.83-1.52.77,0,1.3,1.21,1.61,1.52.53.53.53,4.63,4.24,6.09s7.22-2.64,7.22-2.64h0A12.31,12.31,0,0,1,46,32.15C46,39.38,39.44,45.26,31.42,45.26Z"/>
          <path class="cls-4" d="M36.32,60c-.81,0-1.47-1.66-2-3-.68-1.7-1.38-3.45-3-3.61h-.23c-1.53,0-2.52,1.39-3.47,2.73-.74,1-1.57,2.19-2.31,2.22h0c-.55,0-1.88-.64-3-6.5a14.29,14.29,0,0,1-.18-2c-.07-1.84-.17-4.35-3.66-4.55h-.19c-2.2,0-2.69,2-2.95,3,0,.15-.09.34-.14.5a9.84,9.84,0,0,1-1.65-1.29,6.71,6.71,0,0,0-4.38-2.15,5,5,0,0,0-3.85,2.3c-.14.16-.31.37-.45.5-1.63-.86-3.68-8.5-3.68-16,0-17.07,13.56-31,30.23-31s30.23,13.89,30.23,31A31.38,31.38,0,0,1,57.36,48c-1.58,2.45-3.89,5-5,5h0c-.1,0-.2,0-.36-.2l-.08-.08C51,51.7,49.53,50,47.13,50a6.74,6.74,0,0,0-3.37,1c-2,1.19-3.38,3.49-4.58,5.52C38.24,58.16,37.17,60,36.32,60ZM19.53,23.43a1.21,1.21,0,0,0-.94.46,13.36,13.36,0,0,0-2.9,8.26c0,7.89,7.06,14.3,15.73,14.3S47.15,40,47.15,32.15a13.39,13.39,0,0,0-3.37-8.84,1.21,1.21,0,0,0-.9-.41h0a1.19,1.19,0,0,0-.91.42s-2.22,2.53-4.66,2.53a3.39,3.39,0,0,1-1.22-.23c-2.21-.87-2.77-2.94-3.15-4.3a3.12,3.12,0,0,0-.68-1.52l-.16-.23a3.05,3.05,0,0,0-2.24-1.64h-.25a2.34,2.34,0,0,0-2.5,1.72,2.31,2.31,0,0,1-.18.42,9.18,9.18,0,0,0-1,4,4.25,4.25,0,0,1-1.5,3.47c-.36.33-.58.33-.65.33-1,0-2.45-2.17-3.13-3.74a1.2,1.2,0,0,0-.94-.71Z"/>
          <path class="cls-5" d="M59.34,32.15A28.08,28.08,0,0,0,31.42,3.92,28.07,28.07,0,0,0,3.51,32.15,28.35,28.35,0,0,0,7.68,47c1.11-.72,2.66-.82,5.07,1.38,5.3,4.85,2.38-2.11,5.66-1.93s2.2,2.71,2.74,5.61,1.65,7.57,4.21,7.47,3.83-5.14,5.84-5c1.52.15,2,3.81,3.38,5.61a26,26,0,0,0,4.25-.83c1.58-2.21,3-5.85,5.53-7.3,3-1.76,4.83-.48,6,.79A28.33,28.33,0,0,0,59.34,32.15ZM31.42,45.26c-8,0-14.54-5.88-14.54-13.11a12.15,12.15,0,0,1,2.65-7.53s2.76,6.47,5.67,3.83,1.06-4.64,2.78-7.81c.47-.86.27-1.59,1.83-1.52.77,0,1.3,1.21,1.61,1.52.53.53.53,4.63,4.24,6.09s7.22-2.64,7.22-2.64A12.31,12.31,0,0,1,46,32.15C46,39.38,39.44,45.26,31.42,45.26Z"/>
          <path class="cls-6" d="M31.2,54.58c2,.2,2.2,6.6,5.12,6.6s4.34-7,8-9.12,5.51.16,6.7,1.52c2.33,2.67,6.9-4.29,7.32-4.93a32.54,32.54,0,0,0,4.46-16.5,33.07,33.07,0,0,0-.66-6.58C56.49,35.27,39,56.75,1,41.53c.83,4.13,2.17,7.62,4,7.88,1.42.2,2.62-5.79,7.82-1s2.38-2.11,5.66-1.93,2.2,2.71,2.74,5.61,1.65,7.57,4.21,7.47S29.19,54.39,31.2,54.58Z"/>
          <path class="cls-7" d="M31.42,47.64c9.33,0,16.92-7,16.92-15.49a14.74,14.74,0,0,0-3.66-9.62l-1.81-2.08-1.8,2.09c-.48.54-2.21,2.12-3.76,2.12a2.08,2.08,0,0,1-.78-.15c-1.53-.6-2-1.94-2.44-3.51a4.51,4.51,0,0,0-.9-2l-.1-.14a4.21,4.21,0,0,0-3.17-2.16h-.31A3.5,3.5,0,0,0,26,19.23a2.07,2.07,0,0,1-.11.27A10.34,10.34,0,0,0,24.71,24a3.07,3.07,0,0,1-1,2.6,8.71,8.71,0,0,1-2-2.91L20.14,20l-2.49,3.19a14.52,14.52,0,0,0-3.15,9C14.5,40.69,22.09,47.64,31.42,47.64Zm-11.89-23s2.76,6.47,5.67,3.83,1.06-4.64,2.78-7.81c.47-.86.27-1.59,1.83-1.52.77,0,1.3,1.21,1.61,1.52.53.53.53,4.63,4.24,6.09s7.22-2.64,7.22-2.64A12.31,12.31,0,0,1,46,32.15c0,7.23-6.52,13.11-14.54,13.11S16.88,39.38,16.88,32.15A12.15,12.15,0,0,1,19.53,24.62Z"/>
          <g>
            <path class="cls-8" d="M58.38,48.65a32.5,32.5,0,0,0,2.7-5.9,30.73,30.73,0,0,1-11.34,9.48,11,11,0,0,1,1.32,1.35C53.39,56.25,58,49.29,58.38,48.65Z"/>
            <path class="cls-8" d="M25.36,59.53c1.29-.05,2.25-1.36,3.15-2.61-2.14,0-4.18,0-6.05-.11C23.12,58.38,24.05,59.58,25.36,59.53Z"/>
            <path class="cls-8" d="M36.32,61.18c2,0,3.26-3.17,5-5.9a54.3,54.3,0,0,1-8.45,1.39C33.72,58.61,34.47,61.18,36.32,61.18Z"/>
          </g>
          <path class="cls-9" d="M12.16,10.8C8.35,13,5,18.25,4.4,23.67c-.07.66,1.08.75,1.4.18,1.92-3.35,5.48-8.27,7.26-11.7a1.34,1.34,0,0,0,.07-.18A.78.78,0,0,0,12.16,10.8Z"/>
          <ellipse class="cls-9" cx="3.93" cy="31.68" rx="1.29" ry="3.1"/>
          <path class="cls-10" d="M20.72,15.22c-1,.9-2.08,1.29-2.45.88s.13-1.46,1.11-2.35,2.08-1.29,2.45-.88S21.7,14.34,20.72,15.22Z"/>
          <path class="cls-10" d="M27.78,52.36c-1.22.52-2.38.54-2.6,0s.59-1.34,1.81-1.87,2.38-.54,2.6,0S29,51.83,27.78,52.36Z"/>
          <path class="cls-10" d="M11.82,40.71c-1,.44-2,.39-2.26-.11S10,39.32,11,38.87s2.05-.39,2.26.12S12.85,40.27,11.82,40.71Z"/>
          <path class="cls-10" d="M36.07,9.37C35,9.1,34.2,8.45,34.33,7.92s1.12-.76,2.21-.49,1.87.91,1.74,1.45S37.16,9.63,36.07,9.37Z"/>
          <path class="cls-11" d="M11.82,27.71c-1,.44-2,.39-2.26-.12S10,26.31,11,25.87s2.05-.39,2.26.11S12.85,27.26,11.82,27.71Z"/>
          <path class="cls-11" d="M27.6,10.44c-1.09.25-2.08,0-2.2-.52s.67-1.18,1.76-1.43,2.08,0,2.2.53S28.7,10.2,27.6,10.44Z"/>
          <path class="cls-11" d="M47.4,19.47c-1-.4-1.75-1.13-1.56-1.65s1.21-.62,2.26-.23,1.75,1.13,1.55,1.65S48.45,19.86,47.4,19.47Z"/>
          <path class="cls-11" d="M51.33,38.33c-1-.39-1.75-1.13-1.55-1.65s1.2-.61,2.25-.22,1.75,1.13,1.55,1.65S52.38,38.72,51.33,38.33Z"/>
          <path class="cls-12" d="M39.76,14c0,.71-1.2,1.28-2.68,1.28S34.4,14.71,34.4,14s1.2-1.29,2.68-1.29S39.76,13.29,39.76,14Z"/>
          <path class="cls-12" d="M56.3,28.58c0,.71-1.2,1.28-2.68,1.28s-2.68-.57-2.68-1.28,1.2-1.29,2.68-1.29S56.3,27.87,56.3,28.58Z"/>
          <path class="cls-12" d="M11.43,33.49c0,.71-.78,1.28-1.74,1.28S8,34.2,8,33.49s.77-1.29,1.74-1.29S11.43,32.78,11.43,33.49Z"/>
          <path class="cls-12" d="M38.86,50.12c0,.71-.78,1.28-1.74,1.28s-1.74-.57-1.74-1.28.78-1.29,1.74-1.29S38.86,49.41,38.86,50.12Z"/>
          <path class="cls-12" d="M22.46,9.26c0,.71-.79,1.28-1.75,1.28S19,10,19,9.26,19.75,8,20.71,8,22.46,8.55,22.46,9.26Z"/>
          <path class="cls-13" d="M15.83,19.74c0,.58-.69,1.05-1.53,1.05s-1.54-.47-1.54-1.05.69-1,1.54-1S15.83,19.17,15.83,19.74Z"/>
          <path class="cls-13" d="M46.89,12.71c0,.58-.69,1-1.53,1s-1.53-.47-1.53-1,.68-1,1.53-1S46.89,12.13,46.89,12.71Z"/>
          <path class="cls-13" d="M55.15,22.62c0,.58-.69,1.05-1.53,1.05s-1.54-.47-1.54-1.05.69-1,1.54-1S55.15,22.05,55.15,22.62Z"/>
          <path class="cls-13" d="M47.34,45.94c0,.58-.68,1.05-1.53,1.05s-1.53-.47-1.53-1.05.69-1,1.53-1S47.34,45.37,47.34,45.94Z"/>
          <path class="cls-13" d="M17.57,43.37c0,.58-.69,1.05-1.53,1.05S14.5,44,14.5,43.37s.69-1,1.54-1S17.57,42.8,17.57,43.37Z"/>
        </g>
      </g>
    </g>
  </g>
</svg>
