<svg xmlns="http://www.w3.org/2000/svg" xmlns:xlink="http://www.w3.org/1999/xlink" viewBox="0 0 225 225">
  <defs>
    <style>
      .cls-1 {
        mask: url(#mask);
        filter: url(#luminosity-noclip-3);
      }

      .cls-2, .cls-4, .cls-66, .cls-88, .cls-90 {
        mix-blend-mode: multiply;
      }

      .cls-2 {
        fill: url(#linear-gradient);
      }

      .cls-3 {
        mask: url(#mask-2);
        filter: url(#luminosity-noclip-4);
      }

      .cls-4 {
        fill: url(#linear-gradient-2);
      }

      .cls-5, .cls-9 {
        isolation: isolate;
      }

      .cls-6 {
        fill: #e5a1a6;
      }

      .cls-7 {
        opacity: 0.4;
      }

      .cls-8 {
        fill: #d87c9d;
      }

      .cls-9 {
        font-size: 15.68px;
        font-family: Oswald-Regular, Oswald;
      }

      .cls-25, .cls-9 {
        fill: #fff;
      }

      .cls-10 {
        letter-spacing: -0.03em;
      }

      .cls-11 {
        fill: #ffc75c;
      }

      .cls-12 {
        fill: #ffe8a3;
      }

      .cls-13 {
        fill: url(#linear-gradient-3);
      }

      .cls-14 {
        fill: url(#linear-gradient-4);
      }

      .cls-15 {
        fill: url(#linear-gradient-5);
      }

      .cls-16 {
        fill: #7a4231;
      }

      .cls-17 {
        fill: #662d1c;
      }

      .cls-18 {
        fill: #fea4be;
      }

      .cls-19 {
        fill: #a4effe;
      }

      .cls-20 {
        fill: #6fa938;
      }

      .cls-21 {
        fill: #dbf3c3;
      }

      .cls-22 {
        fill: #c7e6a3;
      }

      .cls-23 {
        fill: #90ae72;
      }

      .cls-24 {
        fill: #ecffd9;
      }

      .cls-26 {
        fill: #edb779;
      }

      .cls-27 {
        fill: url(#linear-gradient-6);
      }

      .cls-28 {
        fill: url(#linear-gradient-7);
      }

      .cls-29 {
        fill: #ffb8d9;
      }

      .cls-30 {
        fill: #ff9cca;
      }

      .cls-31 {
        fill: #ffdfee;
      }

      .cls-32 {
        fill: #ffc4e0;
      }

      .cls-33 {
        fill: #a86725;
      }

      .cls-34 {
        fill: #e2a66a;
      }

      .cls-35 {
        fill: #d48d46;
      }

      .cls-36 {
        fill: #a35842;
      }

      .cls-37 {
        fill: url(#linear-gradient-8);
      }

      .cls-38 {
        fill: #f6aced;
      }

      .cls-39 {
        fill: url(#linear-gradient-9);
      }

      .cls-40 {
        fill: #ffcef9;
      }

      .cls-41 {
        fill: url(#linear-gradient-10);
      }

      .cls-42 {
        fill: #fec1f9;
      }

      .cls-43 {
        fill: #f699eb;
      }

      .cls-44 {
        fill: url(#linear-gradient-11);
      }

      .cls-45 {
        fill: #ffbaf7;
      }

      .cls-46 {
        fill: #feadf8;
      }

      .cls-47 {
        fill: #ffd1f9;
      }

      .cls-48 {
        fill: #7566a1;
      }

      .cls-49 {
        fill: #57398a;
      }

      .cls-50 {
        mask: url(#mask-3);
      }

      .cls-51, .cls-55 {
        mix-blend-mode: overlay;
      }

      .cls-51 {
        fill: url(#linear-gradient-12);
      }

      .cls-52 {
        fill: #b073b5;
      }

      .cls-53 {
        fill: #cd9dd1;
      }

      .cls-54 {
        mask: url(#mask-4);
      }

      .cls-55 {
        fill: url(#linear-gradient-13);
      }

      .cls-56 {
        fill: #6a68a1;
      }

      .cls-57 {
        fill: #9a75b5;
      }

      .cls-58 {
        fill: #bc9fd1;
      }

      .cls-59 {
        fill: #52508c;
      }

      .cls-60 {
        fill: #3f3d7a;
      }

      .cls-61 {
        fill: #de7631;
      }

      .cls-62 {
        fill: #cc3b41;
      }

      .cls-63 {
        fill: #a21d22;
      }

      .cls-64 {
        fill: #cc9660;
      }

      .cls-65 {
        fill: #6e2c18;
      }

      .cls-66 {
        fill: #d6bdab;
      }

      .cls-67 {
        fill: #85181c;
      }

      .cls-68 {
        fill: #9b472d;
      }

      .cls-69 {
        fill: #c48341;
      }

      .cls-70 {
        fill: #b85435;
      }

      .cls-71 {
        fill: #d46b4a;
      }

      .cls-72 {
        fill: #4d1909;
      }

      .cls-73 {
        fill: #7a280f;
      }

      .cls-74 {
        fill: #8f0a25;
      }

      .cls-75 {
        fill: #750513;
      }

      .cls-76 {
        fill: #51040a;
      }

      .cls-77 {
        fill: #f5ba9d;
      }

      .cls-78 {
        fill: #ac3c52;
      }

      .cls-79 {
        fill: #9f6e54;
      }

      .cls-80 {
        fill: #d45b73;
      }

      .cls-81 {
        fill: #f4dcd0;
      }

      .cls-82 {
        fill: #d9c3b9;
      }

      .cls-83 {
        fill: #a36e39;
      }

      .cls-84 {
        fill: #e89a82;
      }

      .cls-85 {
        fill: url(#linear-gradient-14);
      }

      .cls-86 {
        fill: url(#linear-gradient-15);
      }

      .cls-87 {
        fill: url(#linear-gradient-16);
      }

      .cls-88 {
        fill: #b6e4f2;
      }

      .cls-89 {
        fill: url(#linear-gradient-17);
      }

      .cls-90 {
        fill: #ffcfe8;
      }

      .cls-91 {
        fill: #e3ffeb;
      }

      .cls-92 {
        fill: #feee7b;
      }

      .cls-93 {
        fill: #6c3c2d;
      }

      .cls-94 {
        fill: #f18604;
      }

      .cls-95 {
        fill: #f0383e;
      }

      .cls-96 {
        fill: #ffc661;
      }

      .cls-97 {
        fill: url(#linear-gradient-18);
      }

      .cls-98 {
        fill: #c9653e;
      }

      .cls-99 {
        fill: #a85231;
      }

      .cls-100 {
        fill: url(#linear-gradient-19);
      }

      .cls-101 {
        fill: #f4e9ce;
      }

      .cls-102 {
        fill: #c9714e;
      }

      .cls-103 {
        fill: #feb240;
      }

      .cls-104 {
        fill: #d67a24;
      }

      .cls-105 {
        fill: #ffd46b;
      }

      .cls-106 {
        fill: #feff99;
      }

      .cls-107 {
        fill: #f06267;
      }

      .cls-108 {
        fill: #965b43;
      }

      .cls-109 {
        fill: #d8d8d8;
      }

      .cls-110 {
        fill: #ed8a40;
      }

      .cls-111 {
        fill: #ffb680;
      }

      .cls-112 {
        fill: #3c3c3c;
      }

      .cls-113 {
        fill: #a8a8a8;
      }

      .cls-114 {
        fill: #606060;
      }

      .cls-115 {
        fill: #5b9b31;
      }

      .cls-116 {
        fill: #8dd35f;
      }

      .cls-117 {
        fill: #ff364a;
      }

      .cls-118 {
        fill: #fde875;
      }

      .cls-119 {
        fill: #ce5119;
      }

      .cls-120 {
        fill: #a83800;
      }

      .cls-121 {
        fill: #e25c27;
      }

      .cls-122 {
        fill: #8c2b00;
      }

      .cls-123 {
        filter: url(#luminosity-noclip-2);
      }

      .cls-124 {
        filter: url(#luminosity-noclip);
      }
    </style>
    <filter id="luminosity-noclip" x="15.95" y="-8304" width="12.04" height="32766" filterUnits="userSpaceOnUse" color-interpolation-filters="sRGB">
      <feFlood flood-color="#fff" result="bg"/>
      <feBlend in="SourceGraphic" in2="bg"/>
    </filter>
    <mask id="mask" x="15.95" y="-8304" width="12.04" height="32766" maskUnits="userSpaceOnUse">
      <g class="cls-124"/>
    </mask>
    <linearGradient id="linear-gradient" x1="-3.71" y1="104.95" x2="5.09" y2="113.75" gradientTransform="translate(-47.04 46.42) rotate(-38.68)" gradientUnits="userSpaceOnUse">
      <stop offset="0" stop-color="#fff"/>
      <stop offset="1"/>
    </linearGradient>
    <filter id="luminosity-noclip-2" x="35.05" y="-8304" width="11.23" height="32766" filterUnits="userSpaceOnUse" color-interpolation-filters="sRGB">
      <feFlood flood-color="#fff" result="bg"/>
      <feBlend in="SourceGraphic" in2="bg"/>
    </filter>
    <mask id="mask-2" x="35.05" y="-8304" width="11.23" height="32766" maskUnits="userSpaceOnUse">
      <g class="cls-123"/>
    </mask>
    <linearGradient id="linear-gradient-2" x1="33.82" y1="148.4" x2="42.62" y2="157.2" gradientTransform="translate(48.35 -19.47) rotate(16.74)" xlink:href="#linear-gradient"/>
    <linearGradient id="linear-gradient-3" x1="131.94" y1="138.1" x2="163.68" y2="138.1" gradientUnits="userSpaceOnUse">
      <stop offset="0" stop-color="#ffc75c"/>
      <stop offset="1" stop-color="#e69133"/>
    </linearGradient>
    <linearGradient id="linear-gradient-4" x1="132.26" y1="131.14" x2="163.26" y2="131.14" gradientUnits="userSpaceOnUse">
      <stop offset="0" stop-color="#ffcd6e"/>
      <stop offset="1" stop-color="#ffaf57"/>
    </linearGradient>
    <linearGradient id="linear-gradient-5" x1="150.03" y1="150.75" x2="154.88" y2="150.75" xlink:href="#linear-gradient-4"/>
    <linearGradient id="linear-gradient-6" x1="18" y1="123.88" x2="59.04" y2="123.88" gradientTransform="translate(-51.99 34.76) rotate(-33.75)" xlink:href="#linear-gradient-3"/>
    <linearGradient id="linear-gradient-7" x1="18" y1="113.32" x2="59.04" y2="113.32" gradientTransform="translate(-51.99 34.76) rotate(-33.75)" gradientUnits="userSpaceOnUse">
      <stop offset="0" stop-color="#e8aa33"/>
      <stop offset="1" stop-color="#cc7310"/>
    </linearGradient>
    <linearGradient id="linear-gradient-8" x1="23.43" y1="165.28" x2="64.46" y2="165.28" xlink:href="#linear-gradient-3"/>
    <linearGradient id="linear-gradient-9" x1="-68.39" y1="25.94" x2="-31.71" y2="25.94" gradientTransform="matrix(0.85, -0.38, 0.41, 0.91, 71.69, 89.53)" gradientUnits="userSpaceOnUse">
      <stop offset="0" stop-color="#ffccfc"/>
      <stop offset="1" stop-color="#f05bcb"/>
    </linearGradient>
    <linearGradient id="linear-gradient-10" x1="33.92" y1="144.76" x2="70.59" y2="144.76" gradientTransform="matrix(1, 0, 0, 1, 0, 0)" xlink:href="#linear-gradient-9"/>
    <linearGradient id="linear-gradient-11" x1="18.37" y1="148.74" x2="53.19" y2="148.74" gradientUnits="userSpaceOnUse">
      <stop offset="0" stop-color="#ffb8fb"/>
      <stop offset="1" stop-color="#f05acb"/>
    </linearGradient>
    <filter id="luminosity-noclip-3" x="15.95" y="124.83" width="12.04" height="12.83" filterUnits="userSpaceOnUse" color-interpolation-filters="sRGB">
      <feFlood flood-color="#fff" result="bg"/>
      <feBlend in="SourceGraphic" in2="bg"/>
    </filter>
    <mask id="mask-3" x="15.95" y="124.83" width="12.04" height="12.83" maskUnits="userSpaceOnUse">
      <g class="cls-1">
        <path class="cls-2" d="M21.15,126.57a4.25,4.25,0,0,0-.3-.79c-.58-1.12-1-1.08-1.7-.74s-.72,1.52-.15,2.64l.19.32a2.23,2.23,0,0,0-.27-.26c-1-.8-2.13-1-2.61-.43s-.61,1,.36,1.82a3.51,3.51,0,0,0,.67.44,5.61,5.61,0,1,0,3.81-3Z"/>
      </g>
    </mask>
    <linearGradient id="linear-gradient-12" x1="-3.71" y1="104.95" x2="5.09" y2="113.75" gradientTransform="translate(-47.04 46.42) rotate(-38.68)" gradientUnits="userSpaceOnUse">
      <stop offset="0" stop-color="#ff9264"/>
      <stop offset="1"/>
    </linearGradient>
    <filter id="luminosity-noclip-4" x="35.05" y="131" width="11.23" height="13.31" filterUnits="userSpaceOnUse" color-interpolation-filters="sRGB">
      <feFlood flood-color="#fff" result="bg"/>
      <feBlend in="SourceGraphic" in2="bg"/>
    </filter>
    <mask id="mask-4" x="35.05" y="131" width="11.23" height="13.31" maskUnits="userSpaceOnUse">
      <g class="cls-3">
        <path class="cls-4" d="M44.47,134.58a3.63,3.63,0,0,0,.49-.7c.59-1.11.3-1.46-.35-1.81s-1.67.26-2.26,1.37c-.06.11-.11.22-.16.33a2.08,2.08,0,0,0,.06-.36c.11-1.25-.39-2.32-1.13-2.39s-1.18.06-1.29,1.32a3.12,3.12,0,0,0,0,.81,5.61,5.61,0,1,0,4.62,1.43Z"/>
      </g>
    </mask>
    <linearGradient id="linear-gradient-13" x1="33.82" y1="148.4" x2="42.62" y2="157.2" gradientTransform="translate(48.35 -19.47) rotate(16.74)" xlink:href="#linear-gradient-12"/>
    <linearGradient id="linear-gradient-14" x1="143.76" y1="148.11" x2="206.6" y2="148.11" gradientUnits="userSpaceOnUse">
      <stop offset="0" stop-color="#cbffec"/>
      <stop offset="1" stop-color="#05b0ab"/>
    </linearGradient>
    <linearGradient id="linear-gradient-15" x1="144.95" y1="148.11" x2="205.41" y2="148.11" gradientUnits="userSpaceOnUse">
      <stop offset="0" stop-color="#a7e8cf"/>
      <stop offset="1" stop-color="#86ebeb"/>
    </linearGradient>
    <linearGradient id="linear-gradient-16" x1="147.26" y1="149.58" x2="203.1" y2="149.58" gradientUnits="userSpaceOnUse">
      <stop offset="0" stop-color="#b3ffe1"/>
      <stop offset="0.2" stop-color="#a4f6dc"/>
      <stop offset="0.58" stop-color="#7ddecf"/>
      <stop offset="1" stop-color="#4cbfbe"/>
    </linearGradient>
    <linearGradient id="linear-gradient-17" x1="158.26" y1="149.72" x2="192.1" y2="149.72" gradientUnits="userSpaceOnUse">
      <stop offset="0" stop-color="#72e8bd"/>
      <stop offset="1" stop-color="#05b0ab"/>
    </linearGradient>
    <linearGradient id="linear-gradient-18" x1="57.78" y1="118.06" x2="111.24" y2="118.06" gradientUnits="userSpaceOnUse">
      <stop offset="0" stop-color="#ebba68"/>
      <stop offset="1" stop-color="#cb613d"/>
    </linearGradient>
    <linearGradient id="linear-gradient-19" x1="57.31" y1="102.15" x2="111.71" y2="102.15" gradientUnits="userSpaceOnUse">
      <stop offset="0" stop-color="#f0c283"/>
      <stop offset="1" stop-color="#e15a23"/>
    </linearGradient>
  </defs>
  <title>P2_1</title>
  <g class="cls-5">
    <g id="圖層_2" data-name="圖層 2">
      <g id="圖層_1-2" data-name="圖層 1">
        <rect class="cls-6" width="225" height="225"/>
        <g class="cls-7">
          <rect class="cls-8" y="180.5" width="225" height="44.5"/>
        </g>
        <text class="cls-9" transform="translate(37.48 208.67)">PROFESSIONAL EDUC<tspan class="cls-10" x="120.84" y="0">A</tspan><tspan x="128.06" y="0">TION</tspan></text>
        <g>
          <g>
            <g>
              <path class="cls-11" d="M147.81,117.45H131.94c7.45,39.35,12.47,41.46,15.87,41.46s8.42-2.11,15.87-41.46Z"/>
              <path class="cls-12" d="M152.78,117.45l-5.25,5.67-5.26-5.67h-8.42l-1.59,1.71c.27,1.37.53,2.69.79,4l5-5.41,7.24,7.81-7.24,7.81-3.71-4c.86,3.87,1.67,7.24,2.46,10.17l1.25-1.35L145.3,146l-4.74,5.11c.53,1.25,1,2.31,1.51,3.19l5.46-5.89,5.8,6.27a32.07,32.07,0,0,0,1.55-3.15L149.76,146l7.23-7.81,1.69,1.82c.32-1.18.65-2.43,1-3.76l-.44-.47.75-.81q.72-2.94,1.47-6.4l-4.45,4.8-7.23-7.81,7.23-7.81,5.48,5.91c.26-1.28.52-2.6.79-4l-2-2.21Zm2,18.3-7.23,7.81-7.24-7.81,7.24-7.81Z"/>
              <path class="cls-13" d="M163.68,117.45H131.94c.29,1.54.58,3,.86,4.46,3.76,2.21,10.74,2.06,17.23,7.41,3.35,2.76-.12,20.75-.94,29.44C152.44,157.88,157.12,152.12,163.68,117.45Z"/>
              <g>
                <path class="cls-14" d="M132.33,119.5c0,.23.09.46.13.69l.3,1.49,0,.23c.3.17.61.32.94.47l4.32-4.66,7.24,7.81-.5.54a23.31,23.31,0,0,1,5.23,3.25,4.31,4.31,0,0,1,1.15,2.56l3.58,3.87-3.45,3.72c-.11,1.72-.29,3.53-.5,5.37l6.18-6.68,1.69,1.82c.32-1.18.65-2.43,1-3.76l-.44-.47.75-.81q.72-2.94,1.47-6.4l-4.45,4.8-7.23-7.81,7.23-7.81,5.48,5.91c.26-1.27.52-2.59.78-3.95v0l-2-2.21h-8.43l-5.25,5.67-5.26-5.67h-8.42l-1.59,1.71C132.29,119.27,132.31,119.39,132.33,119.5Z"/>
                <path class="cls-15" d="M153.34,154.64a33.12,33.12,0,0,0,1.54-3.14l-4.31-4.65c-.17,1.43-.36,2.85-.54,4.23l3.3,3.57Z"/>
              </g>
            </g>
            <g>
              <path class="cls-16" d="M147.81,117.45H131.94c1.26,6.7,2.46,12.31,3.59,17,1.37.24,2.89-.32,3.62-3.47,1.49-6.45,3.72,5.57,8.19,7s4.47-10.26,7.08-10.26,1.91,3.32,6.35,3.77c.92-4.07,1.89-8.74,2.91-14.11Z"/>
              <path class="cls-17" d="M132.78,121.8l0,.11c3.76,2.21,10.74,2.06,17.23,7.41.85.7,1.26,2.38,1.38,4.64,1-2.88,1.62-6.17,3-6.17,2.53,0,1.91,3.32,6.35,3.77.22-1,.46-2.05.69-3.13l0-.07c.34-1.6.7-3.28,1.05-5.05,0-.12.05-.24.07-.36q.14-.66.27-1.35c0-.17.07-.34.11-.52.08-.42.17-.85.25-1.29,0-.17.07-.34.1-.52.12-.6.23-1.2.35-1.82H131.94c.14.77.29,1.53.44,2.28S132.65,121.12,132.78,121.8Z"/>
              <path class="cls-18" d="M141.53,123.38c-.33.33-1.4-.21-2.38-1.19s-1.52-2-1.19-2.38,1.39.21,2.38,1.19S141.85,123.05,141.53,123.38Z"/>
              <path class="cls-18" d="M148.54,130.84c.4.23.17,1.4-.53,2.6s-1.59,2-2,1.76-.16-1.39.53-2.6S148.14,130.61,148.54,130.84Z"/>
              <path class="cls-19" d="M146.23,127.1c.09.46-.94,1-2.31,1.31s-2.55.11-2.63-.35.94-1,2.31-1.3S146.15,126.65,146.23,127.1Z"/>
              <path class="cls-19" d="M157,121.11c.43-.16,1.18.77,1.67,2.07s.52,2.49.09,2.66-1.18-.77-1.67-2.07S156.57,121.27,157,121.11Z"/>
              <path class="cls-11" d="M151.27,122.1c.25.38-.48,1.32-1.65,2.08s-2.31,1.06-2.57.67.49-1.32,1.65-2.08S151,121.71,151.27,122.1Z"/>
              <path class="cls-11" d="M136.19,124.09c.46,0,.84,1.13.84,2.52s-.38,2.52-.84,2.52-.84-1.12-.84-2.52S135.72,124.09,136.19,124.09Z"/>
            </g>
          </g>
          <g>
            <path class="cls-20" d="M140.56,79.1c3.88,3.88,2.65,11.41,2.65,11.41s-7.52,1.23-11.4-2.65-2.65-11.4-2.65-11.4S136.68,75.22,140.56,79.1Z"/>
            <path class="cls-21" d="M133,80.27c1,.74,1.87,1.54,2.77,2.35s1.76,1.65,2.62,2.5,1.69,1.72,2.49,2.62,1.61,1.8,2.35,2.77c-1-.74-1.88-1.53-2.77-2.35s-1.76-1.65-2.62-2.5-1.69-1.72-2.5-2.62S133.72,81.24,133,80.27Z"/>
            <path class="cls-21" d="M132.3,84.5a6.09,6.09,0,0,1,1.23-.29,8.61,8.61,0,0,1,1.24-.08,8.48,8.48,0,0,1,1.23.09,5.52,5.52,0,0,1,1.23.3,5.6,5.6,0,0,1-1.24.3,8.94,8.94,0,0,1-2.46,0A5,5,0,0,1,132.3,84.5Z"/>
            <path class="cls-21" d="M135,87.23a5.6,5.6,0,0,1,1.24-.3,8.94,8.94,0,0,1,2.46,0,5,5,0,0,1,1.23.31,6.09,6.09,0,0,1-1.23.29,8.7,8.7,0,0,1-1.24.08,8.48,8.48,0,0,1-1.23-.09A5.52,5.52,0,0,1,135,87.23Z"/>
            <path class="cls-21" d="M138,85.3a6.09,6.09,0,0,1-.29-1.23,8.94,8.94,0,0,1,0-2.46,5.52,5.52,0,0,1,.3-1.23,5.52,5.52,0,0,1,.3,1.23,8.94,8.94,0,0,1,0,2.46A5,5,0,0,1,138,85.3Z"/>
            <path class="cls-21" d="M135.42,82.74a5.74,5.74,0,0,1-.3-1.24,10.16,10.16,0,0,1-.08-1.23,8.48,8.48,0,0,1,.09-1.23,5,5,0,0,1,.31-1.23,5.52,5.52,0,0,1,.3,1.23,8.46,8.46,0,0,1,.07,1.23,8.62,8.62,0,0,1-.09,1.24A5.52,5.52,0,0,1,135.42,82.74Z"/>
          </g>
          <g>
            <path class="cls-22" d="M165.92,116.47a.51.51,0,0,0,0-.13,1.87,1.87,0,0,0,0-.25.75.75,0,0,0-.05-.16l-.06-.22a1.11,1.11,0,0,0-.07-.16,1.8,1.8,0,0,0-.08-.21l-.09-.17-.1-.19c0-.06-.07-.12-.11-.17a2.14,2.14,0,0,0-.13-.19l-.13-.17-.14-.18-.15-.17-.16-.17a1.37,1.37,0,0,0-.17-.17l-.17-.16-.2-.18-.18-.15-.22-.17-.19-.14-.25-.18-.2-.13-.27-.18-.2-.12a3.07,3.07,0,0,0-.31-.17l-.19-.11-.34-.18-.17-.08-.4-.2h0A34.55,34.55,0,0,0,147.46,109c-10.25-.1-18.6,3.25-18.65,7.5a3.56,3.56,0,0,0,.48,1.76.41.41,0,0,0,.05.09c0,.08.09.16.14.24a1,1,0,0,1,.08.11l.16.22a.52.52,0,0,0,.1.11l.18.22.1.11.21.22.11.09.24.23.06,0a8.63,8.63,0,0,0,1,.74l.14.1.29.18a1.18,1.18,0,0,1,.19.11l.3.17.21.11.3.16.23.11.32.15.25.11.32.14.27.11.36.14c.18.08.37.15.57.22l.32.1.33.12.34.1.35.11.34.1.37.1.34.09.39.1.34.08.42.09.33.07.49.1.29.06.78.13.19,0,.62.1.31,0,.53.06.33,0,.51.06.36,0,.51,0,.36,0,.54,0,.34,0,.6,0h.29l.9,0c10.26.1,18.6-3.25,18.65-7.5C165.94,116.72,165.93,116.59,165.92,116.47Z"/>
            <path class="cls-23" d="M163,112.65l-.27-.18-.2-.12a3.07,3.07,0,0,0-.31-.17l-.19-.11-.34-.18-.17-.08-.4-.2A34.55,34.55,0,0,0,147.46,109c-7.46-.08-13.9,1.68-16.88,4.27,5.7,7.52,17.18,9.9,26.16,5.26a18.49,18.49,0,0,0,6.61-5.62l-.14-.1Z"/>
            <circle class="cls-21" cx="146.84" cy="100.38" r="19.1" transform="translate(-24.24 51.72) rotate(-18.48)"/>
            <path class="cls-22" d="M132.6,113.1a19.1,19.1,0,1,0,19.84-31c-.33,4.65.26,9.38-.57,14a18,18,0,0,1-4.08,9,27.91,27.91,0,0,1-9.2,6.12A21.79,21.79,0,0,1,132.6,113.1Z"/>
            <path class="cls-24" d="M139.76,87a.71.71,0,0,0-.38.47A16.47,16.47,0,0,0,131.77,97c-.43,1.48-.73,3.23.68,4.28s3.49.75,5,.33a12.64,12.64,0,0,0,8.32-9.27C146.31,88.86,143.37,85.07,139.76,87Z"/>
            <path class="cls-25" d="M137.5,88.88a.35.35,0,0,0-.19.23,8.27,8.27,0,0,0-3.81,4.77c-.21.74-.36,1.61.34,2.14a3,3,0,0,0,2.49.16,6.31,6.31,0,0,0,4.16-4.63C140.77,89.82,139.3,87.93,137.5,88.88Z"/>
            <path class="cls-26" d="M139.09,87.39l-5.24-3.79c-.46-.34-.91.13-.87.59a.59.59,0,0,0-.14.36,18.69,18.69,0,0,0,0,3.26,1.73,1.73,0,0,0,.76,1.45,3.45,3.45,0,0,0,2.11,0,18.45,18.45,0,0,0,3.18-.78A.62.62,0,0,0,139.09,87.39Z"/>
            <path class="cls-26" d="M159,82.62q-2.64,1.86-5.3,3.7c-.47.33-.17.9.27,1a.63.63,0,0,0,.3.25,17.48,17.48,0,0,0,3.09,1,1.7,1.7,0,0,0,1.62-.23,3.49,3.49,0,0,0,.72-2,19.77,19.77,0,0,0,.31-3.26A.63.63,0,0,0,159,82.62Z"/>
            <path class="cls-26" d="M141.17,85c.77-1,1.55-2.05,2.32-3.07a.36.36,0,0,0-.25-.58.25.25,0,0,0-.17-.11,7.43,7.43,0,0,0-1.69-.15.85.85,0,0,0-.81.39,2.56,2.56,0,0,0-.15,1.32,13.81,13.81,0,0,0,.18,2A.31.31,0,0,0,141.17,85Z"/>
            <path class="cls-26" d="M148.74,89.93,145.4,88a.36.36,0,0,0-.55.32.3.3,0,0,0-.08.19,7.37,7.37,0,0,0,.07,1.69.86.86,0,0,0,.49.75,2.61,2.61,0,0,0,1.33,0,13.19,13.19,0,0,0,2-.45A.3.3,0,0,0,148.74,89.93Z"/>
            <path class="cls-26" d="M148.16,78.59l-1.47,5c-.14.44.37.59.73.41a.64.64,0,0,0,.33,0,18.26,18.26,0,0,0,2.6-1.16,1.56,1.56,0,0,0,.94-1c.08-.55-.34-1-.61-1.48a13.35,13.35,0,0,0-1.58-2A.58.58,0,0,0,148.16,78.59Z"/>
          </g>
        </g>
        <g>
          <g>
            <g>
              <path class="cls-11" d="M23.18,114.84,42.8,132.48c2,2.92,9,1.63,15.71-2.86s10.61-10.51,8.66-13.43L57.3,92Z"/>
              <path class="cls-27" d="M67.17,116.19,57.3,92l-34.12,22.8,3.19,2.87c4.56,1,14.55-1.4,22.46-6.69,4.59-3.07,11.25,6.67,15.31,13.81C67.17,121.49,68.48,118.15,67.17,116.19Z"/>
            </g>
            <path class="cls-28" d="M57.3,92l-34.12,22.8,6,5.42a34.26,34.26,0,0,0,3.56-2.61,18.17,18.17,0,0,0,1.57,1.62,30,30,0,0,0,6.92-5.67l.08.09a27.06,27.06,0,0,0,8.9-6.35,7.13,7.13,0,0,0,3.17-1.49,29.69,29.69,0,0,0,6.69-7Z"/>
          </g>
          <g>
            <path class="cls-29" d="M29.08,84c-14.19-3.72-10.7-11-10.7-11l-.08.08c-.11,0-1,.09-2.87,4.08-2,4.27,5.74,6.62,5.88,8.27s-1.79,3.06-4.77,4.47-4.5,8.94,1,11.4c7,3.12,17.79-2.41,20-3.55h0l.34-.18h0l.06,0,0-.06,0,0S43.26,87.73,29.08,84Z"/>
            <path class="cls-30" d="M31.42,79.24C16.9,80.18,17.56,72,17.56,72l0,.1c-.11,0-.92.41-1.23,4.84-.34,4.75,7.69,4.55,8.41,6.09s-.6,3.52-2.87,5.82-3.62,10.36,5,10.66c7.64.27,15.72-8,17.4-9.81h0l.25-.28,0,0,0-.05a.24.24,0,0,0,0-.07l0,0S46,78.3,31.42,79.24Z"/>
            <g>
              <path class="cls-31" d="M17.28,70s.5,9,16.42,5.24,16,8.43,16,8.43S41.2,96.68,31.67,98s-9.26-7.71-7.1-10.63,3.31-5.3,2.28-6.84-9.87.18-10.22-5S17.28,70,17.28,70Z"/>
              <path class="cls-32" d="M31.69,97.84c9.53-1.28,18.05-14.32,18.05-14.32s-.1-12.17-16-8.44S17.3,69.85,17.3,69.85s-2.75,7.29,14.92,9.73c6.53.91-8.79,10.85-3.62,18.29A11.08,11.08,0,0,0,31.69,97.84Z"/>
              <path class="cls-29" d="M35.57,74.82c.16.09,12.39,7.23,4.09,19.56h0A47.45,47.45,0,0,0,49.72,83.63S49.62,72.45,35.57,74.82Z"/>
            </g>
            <path class="cls-31" d="M32.83,87.78c-6.3.56-23.27,6.31-14.62,20.25,0,0,22.57,3.56,20.25-16C38.46,92,39.19,87.22,32.83,87.78Z"/>
            <path class="cls-32" d="M52.86,104.66c5.07-3.77,16.46-15.44,1.79-22.78,0,0-21,6.67-8.81,22.12C45.84,104,47.74,108.47,52.86,104.66Z"/>
            <path class="cls-29" d="M35.42,87.87c-2.48-.3-6.68,5.84-6.68,5.84S8.58,106.92,21.4,118.77c0,0,16.54-8.11,15.76-27.07h0C37.23,88.22,36.46,87.43,35.42,87.87Z"/>
            <path class="cls-30" d="M36.37,84.88S17.29,99.6,31,110.43c0,0,15.87-9.36,13.62-28.2h0C44.41,78.75,36.37,84.88,36.37,84.88Z"/>
            <path class="cls-29" d="M47.89,79.87c-5.71,2.72-19.6,14-6.62,24.09,0,0,22.39-4.56,13.38-22.08C54.65,81.88,53.65,77.12,47.89,79.87Z"/>
            <g>
              <path class="cls-31" d="M34.56,98.19s-22,9.86-11.19,23.58A34.64,34.64,0,0,0,43.19,97.53C46.58,82.85,34.56,98.19,34.56,98.19Z"/>
              <path class="cls-30" d="M43.19,97.53c1.79-9.81,1.12-8-1.63-5.17a34,34,0,0,1-5.16,6.19s-16.14,8.28-13,23.22A32.32,32.32,0,0,0,43.19,97.53Z"/>
            </g>
            <g>
              <path class="cls-31" d="M40.9,93s-20,13.39-7.11,25.12a196.9,196.9,0,0,0,15.5-27.21C54.17,80.73,40.9,93,40.9,93Z"/>
              <path class="cls-32" d="M49.29,90.87c.14-10-6.52,2.14-6.52,2.14s-14.53,10.86-9,25.07A32.33,32.33,0,0,0,49.29,90.87Z"/>
            </g>
            <g>
              <path class="cls-31" d="M48.59,86.45S27.78,98.56,40.78,112.5A28.7,28.7,0,0,0,57.24,85.15C56.94,74.73,48.59,86.45,48.59,86.45Z"/>
              <path class="cls-30" d="M57.24,85.15c-.3-10.64-6.72,1.56-6.72,1.56s-15.12,10-9.74,25.79C40.78,112.5,57.83,106,57.24,85.15Z"/>
            </g>
          </g>
          <g>
            <g>
              <path class="cls-11" d="M21.1,94.48a2.49,2.49,0,1,1-2.87-2A2.49,2.49,0,0,1,21.1,94.48Z"/>
              <path class="cls-12" d="M17.57,92.65a2.48,2.48,0,0,0,.78,4.71,2.48,2.48,0,0,0-.78-4.71Z"/>
            </g>
            <g>
              <path class="cls-11" d="M27.14,84a2.49,2.49,0,1,1-2.87-2A2.49,2.49,0,0,1,27.14,84Z"/>
              <path class="cls-12" d="M23.61,82.15a2.48,2.48,0,0,0,.78,4.71,2.48,2.48,0,0,0-.78-4.71Z"/>
            </g>
            <g>
              <path class="cls-11" d="M26.34,75.6a2.5,2.5,0,1,1-2.88-2A2.5,2.5,0,0,1,26.34,75.6Z"/>
              <path class="cls-12" d="M22.81,73.77a2.48,2.48,0,0,0,.78,4.71,2.48,2.48,0,0,0-.78-4.71Z"/>
            </g>
            <g>
              <circle class="cls-11" cx="36.35" cy="78.91" r="2.5"/>
              <path class="cls-12" d="M35.28,76.66a2.48,2.48,0,0,0,.78,4.72,2.48,2.48,0,0,0-.78-4.72Z"/>
            </g>
            <g>
              <path class="cls-11" d="M36.15,91.54a2.5,2.5,0,1,1-2.87-2.06A2.51,2.51,0,0,1,36.15,91.54Z"/>
              <path class="cls-12" d="M32.62,89.7a2.48,2.48,0,0,0,.78,4.72,2.49,2.49,0,0,0-.78-4.72Z"/>
            </g>
            <g>
              <path class="cls-11" d="M22.05,106.63a2.49,2.49,0,1,1-2.87-2A2.49,2.49,0,0,1,22.05,106.63Z"/>
              <path class="cls-12" d="M18.52,104.8a2.48,2.48,0,0,0,.78,4.71,2.48,2.48,0,0,0-.78-4.71Z"/>
            </g>
            <g>
              <path class="cls-11" d="M51.08,84.26a2.49,2.49,0,1,1-2.87-2.05A2.49,2.49,0,0,1,51.08,84.26Z"/>
              <path class="cls-12" d="M47.55,82.43a2.48,2.48,0,0,0,.78,4.71,2.48,2.48,0,0,0-.78-4.71Z"/>
            </g>
            <g>
              <path class="cls-11" d="M34.43,102.25a2.49,2.49,0,1,1-2.87-2A2.49,2.49,0,0,1,34.43,102.25Z"/>
              <path class="cls-12" d="M30.9,100.41a2.49,2.49,0,0,0,.78,4.72,2.48,2.48,0,0,0-.78-4.72Z"/>
            </g>
            <g>
              <path class="cls-11" d="M45.93,95.41a2.49,2.49,0,1,1-2.87-2A2.49,2.49,0,0,1,45.93,95.41Z"/>
              <path class="cls-12" d="M42.4,93.58a2.48,2.48,0,0,0,.78,4.71,2.48,2.48,0,0,0-.78-4.71Z"/>
            </g>
          </g>
        </g>
        <g>
          <g>
            <path class="cls-33" d="M68.84,69.24l-6,1.64,5.63,20.76h0a2.53,2.53,0,0,0,.07.38,3.12,3.12,0,1,0,6-1.64,2.24,2.24,0,0,0-.14-.36h0Z"/>
            <path class="cls-34" d="M68,69.46,62,71.1l5.63,20.75h0c0,.13,0,.26.06.39a3.13,3.13,0,0,0,6-1.64,2.35,2.35,0,0,0-.14-.37h0Z"/>
            <path class="cls-35" d="M62.69,73.63c1.49.18,3.55.78,4,2.69.66,3,3.71,6.15,5.11,18a3.12,3.12,0,0,0,2-3.77,2.35,2.35,0,0,0-.14-.37h0L68,69.46,62,71.1Z"/>
          </g>
          <path class="cls-16" d="M76.58,44.45c3.6,13.24-1.36,26.1-10.37,28.55S46.42,66.85,42.83,53.62,41.73,18.46,50.74,16,73,31.22,76.58,44.45Z"/>
          <path class="cls-17" d="M50.74,16a7.85,7.85,0,0,0-3.92,2.68c8,4.56,14,12.76,14.36,22.11s-5.8,18.57-14.56,21.57c5,8,12.78,12.47,19.59,10.62,9-2.45,14-15.31,10.37-28.55S59.75,13.57,50.74,16Z"/>
          <path class="cls-36" d="M48.73,27.66a.76.76,0,0,0-.94.07,1,1,0,0,0-1.29.55A26.19,26.19,0,0,0,45,37.81c.07,2,.19,4.09,2,5.23a.88.88,0,0,0,1.27-.57C49.61,38.83,53.34,30.45,48.73,27.66Z"/>
          <g>
            <path class="cls-11" d="M62.05,19.27A2.5,2.5,0,1,1,60,16.41,2.51,2.51,0,0,1,62.05,19.27Z"/>
            <path class="cls-12" d="M59.29,16.4a2.48,2.48,0,0,0-.76,4.72,2.48,2.48,0,0,0,.76-4.72Z"/>
          </g>
          <g>
            <path class="cls-11" d="M56.2,27.4a2.5,2.5,0,1,1-2.07-2.86A2.5,2.5,0,0,1,56.2,27.4Z"/>
            <path class="cls-12" d="M53.43,24.54a2.48,2.48,0,0,0-.75,4.72,2.48,2.48,0,0,0,.75-4.72Z"/>
          </g>
          <g>
            <path class="cls-11" d="M71.39,28.86A2.5,2.5,0,1,1,69.33,26,2.5,2.5,0,0,1,71.39,28.86Z"/>
            <path class="cls-12" d="M68.63,26a2.48,2.48,0,0,0-.76,4.72A2.48,2.48,0,0,0,68.63,26Z"/>
          </g>
          <g>
            <path class="cls-11" d="M77.57,46.09a2.5,2.5,0,1,1-2.07-2.86A2.5,2.5,0,0,1,77.57,46.09Z"/>
            <path class="cls-12" d="M74.81,43.23a2.48,2.48,0,0,0-.76,4.71,2.48,2.48,0,0,0,.76-4.71Z"/>
          </g>
          <g>
            <path class="cls-11" d="M51.15,19.56a2.5,2.5,0,1,1-2.07-2.86A2.51,2.51,0,0,1,51.15,19.56Z"/>
            <path class="cls-12" d="M48.39,16.69a2.48,2.48,0,0,0-.76,4.72,2.48,2.48,0,0,0,.76-4.72Z"/>
          </g>
          <g>
            <path class="cls-11" d="M50.71,45.73a2.5,2.5,0,1,1-2.07-2.86A2.5,2.5,0,0,1,50.71,45.73Z"/>
            <path class="cls-12" d="M47.94,42.87a2.48,2.48,0,0,0-.75,4.72,2.48,2.48,0,0,0,.75-4.72Z"/>
          </g>
          <g>
            <path class="cls-11" d="M45.83,56.13a2.5,2.5,0,1,1-2.07-2.86A2.49,2.49,0,0,1,45.83,56.13Z"/>
            <path class="cls-12" d="M43.07,53.26A2.48,2.48,0,0,0,42.31,58a2.48,2.48,0,0,0,.76-4.72Z"/>
          </g>
          <g>
            <path class="cls-11" d="M65,39.49a2.5,2.5,0,1,1-2.07-2.86A2.51,2.51,0,0,1,65,39.49Z"/>
            <path class="cls-12" d="M62.19,36.62a2.48,2.48,0,0,0-.75,4.72,2.48,2.48,0,0,0,.75-4.72Z"/>
          </g>
          <g>
            <path class="cls-11" d="M63.5,53.48a2.5,2.5,0,1,1-2.07-2.86A2.5,2.5,0,0,1,63.5,53.48Z"/>
            <path class="cls-12" d="M60.74,50.62A2.48,2.48,0,0,0,60,55.34a2.48,2.48,0,0,0,.76-4.72Z"/>
          </g>
          <g>
            <path class="cls-11" d="M45.65,35.48a2.5,2.5,0,1,1-2.07-2.86A2.51,2.51,0,0,1,45.65,35.48Z"/>
            <path class="cls-12" d="M42.89,32.61a2.48,2.48,0,0,0-.76,4.72,2.48,2.48,0,0,0,.76-4.72Z"/>
          </g>
        </g>
        <g>
          <g>
            <path class="cls-11" d="M23.43,151.5l6.51,22.05c0,3.51,6.56,6.35,14.66,6.35s14.65-2.84,14.65-6.35l5.21-22.05Z"/>
            <path class="cls-37" d="M59.25,173.55l5.21-22.05h-41l1.05,4.16c3.27,3.33,12.88,6.92,22.4,6.92,5.52,0,5.64,8.28,5,16.47C56.31,178,59.25,175.9,59.25,173.55Z"/>
          </g>
          <g>
            <g>
              <ellipse class="cls-38" cx="38.87" cy="130.1" rx="17.04" ry="16.83" transform="translate(-50.02 27.46) rotate(-24.26)"/>
              <path class="cls-39" d="M54.4,123.1a16.85,16.85,0,0,0-17.54-9.73,15.68,15.68,0,0,1,3,1.85c4.74,3.76,6.54,10.48,2,14.77-5,4.76-12.15,6.51-19,5.7a14.26,14.26,0,0,0,.56,1.41s6.73,17.39,11,16.26c2.65-.7,1.75-4.24.69-6.79a17.14,17.14,0,0,0,10.76-1.12c.43-.19.85-.41,1.25-.63,4.72,5.19,8.12,1.6,5-4.17A16.82,16.82,0,0,0,54.4,123.1Z"/>
              <path class="cls-40" d="M32.51,117.44a.73.73,0,0,0-.53.32c-3,1.54-6.16,4.86-6.14,8.69,0,3.55,3.59,5.24,6.45,4.46,3.26-.9,6.32-4.17,6.15-8C38.29,119.65,35.55,117,32.51,117.44Z"/>
            </g>
            <g>
              <ellipse class="cls-38" cx="52.31" cy="142.33" rx="18.28" ry="16.83"/>
              <path class="cls-41" d="M70.59,142.33c0-7.56-5.41-14-12.87-16.08a16.28,16.28,0,0,1,2.08,2.9c3,5.38,1.77,12.24-4.54,14.3-7,2.28-14.76.94-21.16-2.63a15.11,15.11,0,0,0-.08,1.51S33,161,37.61,161.67c2.91.45,3.58-3.15,3.68-5.91a19.26,19.26,0,0,0,11,3.4q.75,0,1.5-.06c2.32,6.67,7.24,4.8,6.73-1.74A16.76,16.76,0,0,0,70.59,142.33Z"/>
              <path class="cls-40" d="M48.14,131.77a1,1,0,0,0-.74.3c-4.18,1.31-9,4.75-9.72,9.4-.68,4.32,3.64,7,7.52,6.6,4.42-.48,9.06-3.89,9.58-8.54A6.92,6.92,0,0,0,48.14,131.77Z"/>
              <path class="cls-42" d="M37.62,142.5c.1,3.71,4,6,7.58,5.57a11.86,11.86,0,0,0,7.52-4A26.71,26.71,0,0,1,37.62,142.5Z"/>
            </g>
            <g>
              <ellipse class="cls-43" cx="35.83" cy="145.73" rx="17.36" ry="15.98"/>
              <path class="cls-43" d="M18.47,145.73s-1,17.68,3.4,18.36,3.41-8.47,3.41-8.47Z"/>
              <path class="cls-43" d="M36.74,148.62s-1,17.68,3.41,18.36,3.4-8.47,3.4-8.47Z"/>
              <path class="cls-44" d="M53.19,145.73c0-7.18-5.15-13.25-12.22-15.27a15.77,15.77,0,0,1,2,2.75c2.83,5.11,1.69,11.63-4.3,13.58-6.66,2.16-14,.89-20.09-2.5,0,.48-.07,1-.07,1.44,0,0-1,17.68,3.4,18.36,2.77.43,3.41-3,3.5-5.61a18.31,18.31,0,0,0,10.46,3.23c.48,0,1,0,1.42-.06.5,2.85,1.37,5.1,2.9,5.33,3.29.51,3.57-4.42,3.49-7A15.91,15.91,0,0,0,53.19,145.73Z"/>
              <path class="cls-45" d="M31.87,135.71a.93.93,0,0,0-.71.28c-4,1.25-8.52,4.51-9.22,8.92-.64,4.1,3.45,6.67,7.14,6.27,4.19-.46,8.59-3.69,9.09-8.11A6.56,6.56,0,0,0,31.87,135.71Z"/>
              <path class="cls-46" d="M21.89,145.89c.09,3.52,3.8,5.66,7.19,5.29a11.26,11.26,0,0,0,7.13-3.76A25.4,25.4,0,0,1,21.89,145.89Z"/>
              <path class="cls-47" d="M29.67,137.91a.48.48,0,0,0-.38.15c-2.14.67-4.61,2.44-5,4.83-.35,2.21,1.87,3.6,3.86,3.39,2.27-.25,4.65-2,4.92-4.39A3.55,3.55,0,0,0,29.67,137.91Z"/>
            </g>
            <g>
              <path class="cls-48" d="M21.15,126.57a4.25,4.25,0,0,0-.3-.79c-.58-1.12-1-1.08-1.7-.74s-.72,1.52-.15,2.64l.19.32a2.23,2.23,0,0,0-.27-.26c-1-.8-2.13-1-2.61-.43s-.61,1,.36,1.82a3.51,3.51,0,0,0,.67.44,5.61,5.61,0,1,0,3.81-3Z"/>
              <path class="cls-49" d="M22.92,126.47c2.15,2.67,1.46,5.69-.14,9.22-.29.65-.61,1.3-.94,1.94a5.61,5.61,0,1,0,1.08-11.16Z"/>
              <g class="cls-50">
                <path class="cls-51" d="M21.15,126.57a4.25,4.25,0,0,0-.3-.79c-.58-1.12-1-1.08-1.7-.74s-.72,1.52-.15,2.64l.19.32a2.23,2.23,0,0,0-.27-.26c-1-.8-2.13-1-2.61-.43s-.61,1,.36,1.82a3.51,3.51,0,0,0,.67.44,5.61,5.61,0,1,0,3.81-3Z"/>
              </g>
              <path class="cls-52" d="M22.17,131.52a2,2,0,0,0-2-1.45,2.18,2.18,0,0,0-1.77,3.37,2,2,0,0,0,2,1.44A2.17,2.17,0,0,0,22.17,131.52Z"/>
              <path class="cls-53" d="M19.33,131.77a.89.89,0,0,0-.88-.65,1,1,0,0,0-.79,1.5.88.88,0,0,0,.88.64A1,1,0,0,0,19.33,131.77Z"/>
            </g>
            <g>
              <path class="cls-48" d="M44.47,134.58a3.63,3.63,0,0,0,.49-.7c.59-1.11.3-1.46-.35-1.81s-1.67.26-2.26,1.37c-.06.11-.11.22-.16.33a2.08,2.08,0,0,0,.06-.36c.11-1.25-.39-2.32-1.13-2.39s-1.18.06-1.29,1.32a3.12,3.12,0,0,0,0,.81,5.61,5.61,0,1,0,4.62,1.43Z"/>
              <path class="cls-49" d="M45.56,136c-1,3.29-3.85,4.43-7.67,5.12-.7.12-1.41.23-2.13.32A5.61,5.61,0,0,0,46,140.31,5.55,5.55,0,0,0,45.56,136Z"/>
              <g class="cls-54">
                <path class="cls-55" d="M44.47,134.58a3.63,3.63,0,0,0,.49-.7c.59-1.11.3-1.46-.35-1.81s-1.67.26-2.26,1.37c-.06.11-.11.22-.16.33a2.08,2.08,0,0,0,.06-.36c.11-1.25-.39-2.32-1.13-2.39s-1.18.06-1.29,1.32a3.12,3.12,0,0,0,0,.81,5.61,5.61,0,1,0,4.62,1.43Z"/>
              </g>
              <path class="cls-52" d="M41,138.22a2,2,0,0,0,.07-2.44,2.17,2.17,0,0,0-3.77.45,2,2,0,0,0-.07,2.45A2.17,2.17,0,0,0,41,138.22Z"/>
              <path class="cls-53" d="M39.17,136a.89.89,0,0,0,0-1.09,1,1,0,0,0-1.68.2.88.88,0,0,0,0,1.09A1,1,0,0,0,39.17,136Z"/>
            </g>
            <g>
              <path class="cls-56" d="M53.14,121.07a3.54,3.54,0,0,0,.44-.49c.56-.8.37-1.11-.11-1.44s-1.31,0-1.87.85a1.65,1.65,0,0,0-.15.25,2.29,2.29,0,0,0,.07-.28c.21-1-.08-1.83-.64-2s-.92,0-1.13.9a2.79,2.79,0,0,0-.06.63,4.37,4.37,0,1,0,3.45,1.54Z"/>
              <path class="cls-57" d="M50.23,123.63a1.54,1.54,0,0,0,.28-1.89,1.69,1.69,0,0,0-3,0,1.54,1.54,0,0,0-.28,1.89A1.69,1.69,0,0,0,50.23,123.63Z"/>
              <path class="cls-58" d="M49,121.76a.69.69,0,0,0,.12-.84.75.75,0,0,0-1.32,0,.69.69,0,0,0-.12.84A.76.76,0,0,0,49,121.76Z"/>
              <path class="cls-59" d="M53.14,121.07a3.54,3.54,0,0,0,.44-.49c.56-.8.37-1.11-.11-1.44a1,1,0,0,0-1.07.1c-.33,3.64-.88,8.5-5.46,7.58a1.43,1.43,0,0,0-.41,0,4.37,4.37,0,0,0,6.61-5.73Z"/>
              <path class="cls-60" d="M53.52,121.6a8,8,0,0,1-3.8,6.58l-.17.09a4.37,4.37,0,0,0,4-6.67Z"/>
            </g>
            <g>
              <path class="cls-56" d="M37.84,109.62a2.69,2.69,0,0,0,.08-.65c0-1-.31-1.13-.89-1.14s-1.06.78-1.07,1.76a2.81,2.81,0,0,0,0,.29l-.09-.27c-.37-.91-1.1-1.48-1.64-1.26s-.79.47-.42,1.38a2.42,2.42,0,0,0,.3.55,4.37,4.37,0,1,0,3.72-.66Z"/>
              <path class="cls-57" d="M36.86,113.37a1.53,1.53,0,0,0-.82-1.72,1.7,1.7,0,0,0-2.46,1.66,1.55,1.55,0,0,0,.83,1.72A1.69,1.69,0,0,0,36.86,113.37Z"/>
              <path class="cls-58" d="M34.82,112.49a.69.69,0,0,0-.37-.76.75.75,0,0,0-1.09.74.67.67,0,0,0,.37.76A.75.75,0,0,0,34.82,112.49Z"/>
              <path class="cls-59" d="M37.84,109.62a2.69,2.69,0,0,0,.08-.65c0-1-.31-1.13-.89-1.14a1,1,0,0,0-.84.69c1.77,3.2,4.05,7.53-.26,9.34a1.71,1.71,0,0,0-.35.21,4.25,4.25,0,0,0,1.88.07,4.38,4.38,0,0,0,.38-8.52Z"/>
              <path class="cls-60" d="M38.45,109.85a8,8,0,0,1,.54,7.57,1.3,1.3,0,0,1-.08.17,4.36,4.36,0,0,0-.46-7.74Z"/>
            </g>
            <g>
              <path class="cls-56" d="M70.48,133.45a3.39,3.39,0,0,0,.64-.17c.91-.36.92-.72.71-1.25s-1.12-.69-2-.33l-.26.12.22-.19c.7-.68.94-1.57.54-2s-.73-.55-1.43.13a2.6,2.6,0,0,0-.4.49,4.38,4.38,0,1,0,0,7.38A4.35,4.35,0,0,0,70.48,133.45Z"/>
              <path class="cls-57" d="M66.64,134a1.53,1.53,0,0,0,1.28-1.41,1.7,1.7,0,0,0-2.47-1.65,1.53,1.53,0,0,0-1.27,1.42A1.69,1.69,0,0,0,66.64,134Z"/>
              <path class="cls-58" d="M66.67,131.75a.68.68,0,0,0,.57-.63.75.75,0,0,0-1.09-.73.67.67,0,0,0-.57.63A.75.75,0,0,0,66.67,131.75Z"/>
              <path class="cls-59" d="M70.48,133.45a3.39,3.39,0,0,0,.64-.17c.91-.36.92-.72.71-1.25a1,1,0,0,0-1-.52c-2.28,2.85-5.43,6.61-8.73,3.3a1.51,1.51,0,0,0-.34-.24,4.48,4.48,0,0,0,.65,1.76,4.38,4.38,0,0,0,8-2.88Z"/>
              <path class="cls-60" d="M70.5,134.1a8,8,0,0,1-6.8,3.38l-.19,0a4.37,4.37,0,0,0,7-3.36Z"/>
            </g>
          </g>
        </g>
        <g>
          <path class="cls-61" d="M171.22,116.9a125.9,125.9,0,0,0,1.26,26.18l31.4-33.93a2.61,2.61,0,0,0,.7-1.78V87.63Z"/>
          <path class="cls-62" d="M204.58,92.66a1,1,0,0,0-.68.25l-23.3,20.45a6.89,6.89,0,0,0-2.36,5.06c-.06,3.25,0,6.55.18,9.79a2.15,2.15,0,0,0,2.14,2,2.11,2.11,0,0,0,1.56-.69l22.46-24.27Z"/>
          <path class="cls-63" d="M181.37,128.85a1.11,1.11,0,0,1-1.92-.69c-.22-3.86-.23-7.25-.19-9.72a5.94,5.94,0,0,1,2-4.31l23.31-20.45v10.09Z"/>
          <path class="cls-64" d="M181.39,125.8c-.09-2.44-.12-4.89-.07-7.32a3.83,3.83,0,0,1,1.31-2.8L204.21,97.6v4.28Z"/>
          <path class="cls-65" d="M171.22,116.9s-19.82-.47-26.9-20v21.25s-2.21,12.55,28.16,24.92Z"/>
          <path class="cls-66" d="M204.58,107.37V87.63l-20.52,18a39.64,39.64,0,0,1,4.87-1.38,26.53,26.53,0,0,1,4.8-.19,5.64,5.64,0,0,1,5.06,2.46,17.05,17.05,0,0,1,2.91,5l2.18-2.36A2.61,2.61,0,0,0,204.58,107.37Z"/>
          <path class="cls-67" d="M204.58,93.68l-11.84,10.39c.34,0,.67,0,1,0a5.64,5.64,0,0,1,5.06,2.46,17.39,17.39,0,0,1,1.42,2l4.37-4.72Z"/>
          <path class="cls-68" d="M204.58,87.63s-57.27,6.14-60.26,9.28c0,0,1.74,19,26.9,20Z"/>
          <path class="cls-69" d="M204.21,97.6l-8.13,6.81a6.43,6.43,0,0,1,2.71,2.12l.45.56,5-5.21Z"/>
          <path class="cls-70" d="M171.65,113,200,88.13c-11.18,1.26-40,4.63-51.24,7.23a2.13,2.13,0,0,0-.52.33S149.8,112.16,171.65,113Z"/>
          <path class="cls-71" d="M167.22,106.87a67,67,0,0,1-9.87-4.3,17.47,17.47,0,0,1-6.7-5.47c1,3.79,5,12.93,20.27,13.85l7.61-6.68C175,105.73,171.1,108.16,167.22,106.87Z"/>
          <path class="cls-72" d="M171.22,116.9s-19.82-.47-26.9-20v11c.45.72.92,1.39,1.29,2a33.18,33.18,0,0,0,4.58,5.9c2.23,2.14,4.48,3.65,6.08,6.4a43.29,43.29,0,0,1,4.21,9.63A45,45,0,0,1,161.8,138a101.79,101.79,0,0,0,10.68,5Z"/>
          <path class="cls-73" d="M174.12,101a9.06,9.06,0,0,0,7-6.35,9.36,9.36,0,0,0,0-4.28c-6,.75-12.27,1.59-18,2.44a10,10,0,0,0,1.05,4.32C166,100.68,170.45,101.65,174.12,101Z"/>
          <g>
            <path class="cls-74" d="M177.11,85.88c-3.71,1.09-5.24-.73-7.75.13-6.69,2.56-5.44,8.5-4.11,11.13,1.78,3.54,6.23,4.51,9.9,3.87a9.08,9.08,0,0,0,7-6.35C183.16,90.79,181.08,84.71,177.11,85.88Z"/>
            <path class="cls-75" d="M178.58,85.78l.06.23,0,.13c0,.94,0,1.88,0,2.82a3.31,3.31,0,0,1-.22.47c-1.33,2.22-4.52,1.81-6.78,2.39a3.09,3.09,0,0,0-2.25,1.92,6.31,6.31,0,0,0-.59,6.66,11.48,11.48,0,0,0,6.3.61,9.08,9.08,0,0,0,7-6.35C183,91.3,181.57,86.29,178.58,85.78Z"/>
            <path class="cls-75" d="M177,88.33c0-1-1.38-1.08-1.93-.5-.24.24-.78.2-1.12.21a1.22,1.22,0,0,1-.47-.2,1.77,1.77,0,0,0-.82-.16c-.92,0-1.12.95-1,1.69a1.3,1.3,0,0,0,.66.79,3.35,3.35,0,0,0,1.32.34,3.94,3.94,0,0,0,2-.32C176.56,90.11,177,89.14,177,88.33Z"/>
            <path class="cls-76" d="M175.64,88.59a.71.71,0,0,0-.95-.25,2.46,2.46,0,0,0-.27.17h-.12a2.72,2.72,0,0,0-.28,0H174c-.64-.54-1.56.4-.94,1a1.32,1.32,0,0,0,.84.37.86.86,0,0,0,.53.07,3.42,3.42,0,0,0,1-.2A.8.8,0,0,0,175.64,88.59Z"/>
            <path class="cls-76" d="M182.14,94.66a9.68,9.68,0,0,0-.74-6.45c-.06,3.9-.55,7.1-4.45,9.69-1.69,1.12-4.2,2.53-6.25,2.7a4.9,4.9,0,0,0-.88.14,11.87,11.87,0,0,0,5.33.27A9.08,9.08,0,0,0,182.14,94.66Z"/>
            <path class="cls-77" d="M168.19,91.58a.44.44,0,0,1-.39.48.45.45,0,0,1-.39-.48.44.44,0,0,1,.39-.48A.44.44,0,0,1,168.19,91.58Z"/>
            <path class="cls-78" d="M167.16,95.91c.29.61.88.45.75-.06h0a7.62,7.62,0,0,1-.2-1.06c-.27-2.42.54-4,2.87-3.59.7.13,3.37.42,1.45-.18a8.28,8.28,0,0,1-1.13-.53c-.69-.36-1.05-.48-1.29-1.25-.43-1.32.6-1.83,2-2,.08,0,.94.11,1.14-.06s.37-.65-.64-.7c-1.2,0-2.14-.26-3.27.3C164,89.34,167.14,95.87,167.16,95.91Z"/>
            <path class="cls-79" d="M168.28,75.39a4.48,4.48,0,0,0-5,1.12c-.91,1.26-1.15,3.24.13,4.27.35.27.84-.22.49-.5-1.78-1.42.08-4.23,2-4.38,2.42-.19,4.06,1.07,5.4,2.95,2.1,3,2.74,6.94,2.82,10.48a.35.35,0,0,0,.69,0C174.7,84.23,173.35,77.77,168.28,75.39Z"/>
          </g>
          <path class="cls-70" d="M183.68,95c-.85.75-1.71,1.52-2.61,2.23-1.74.28-4-.06-5.16.22a20,20,0,0,0-3.25.69c-1.07.43-2.17,1-3.27,1.46-1.67-.07-3.43-.21-4.72,1a1.8,1.8,0,0,0-.28,2.18c1,1.51,2.72,1.75,4.4,1.75,1.1,0,2-.44,3.11-.38a11.39,11.39,0,0,0,3.25-.2,24,24,0,0,0,7.4-3.53,5.26,5.26,0,0,0,4.13-3.72A1.81,1.81,0,0,0,183.68,95Z"/>
          <polygon class="cls-65" points="204.58 87.63 204.58 89.11 171.32 118.89 171.22 116.9 204.58 87.63"/>
          <path class="cls-80" d="M167.45,89.44c-.34.93-.35,1.78,0,1.91s.88-.54,1.22-1.46.35-1.79,0-1.91S167.79,88.51,167.45,89.44Z"/>
          <g>
            <g>
              <path class="cls-81" d="M156.42,97.82a.39.39,0,0,1-.53,0L154.08,96a.37.37,0,0,1,.52-.52l1.82,1.81A.39.39,0,0,1,156.42,97.82Z"/>
              <path class="cls-82" d="M154.3,95.74a.52.52,0,0,0-.3-.16.37.37,0,0,0,.08.42l1.81,1.82a.36.36,0,0,0,.37.08c0-.08,0-.22-.15-.35Z"/>
            </g>
            <g>
              <path class="cls-81" d="M162.26,99.62a.38.38,0,0,1-.46.27l-2.47-.65a.38.38,0,0,1-.27-.46.37.37,0,0,1,.45-.27l2.48.66A.37.37,0,0,1,162.26,99.62Z"/>
              <path class="cls-82" d="M159.38,98.9a.46.46,0,0,0-.33,0,.38.38,0,0,0,.28.33l2.47.65a.38.38,0,0,0,.37-.11.4.4,0,0,0-.31-.23Z"/>
            </g>
            <g>
              <path class="cls-81" d="M161.49,94.94a.38.38,0,0,1-.27.46l-2.47.66a.38.38,0,0,1-.46-.27.37.37,0,0,1,.26-.45l2.48-.66A.37.37,0,0,1,161.49,94.94Z"/>
              <path class="cls-82" d="M158.63,95.73a.51.51,0,0,0-.28.18.38.38,0,0,0,.4.15l2.47-.66a.38.38,0,0,0,.27-.28.41.41,0,0,0-.38-.05Z"/>
            </g>
            <g>
              <path class="cls-81" d="M166.61,100.87a.38.38,0,0,1-.06.53l-2,1.58a.37.37,0,1,1-.47-.58l2-1.59A.37.37,0,0,1,166.61,100.87Z"/>
              <path class="cls-82" d="M164.3,102.73a.54.54,0,0,0-.19.27.36.36,0,0,0,.43,0l2-1.58a.38.38,0,0,0,.13-.36.42.42,0,0,0-.37.1Z"/>
            </g>
            <g>
              <path class="cls-81" d="M171.05,101.45a.38.38,0,0,1,.52.12l1.33,2.19a.36.36,0,0,1-.12.51.37.37,0,0,1-.51-.12L170.93,102A.37.37,0,0,1,171.05,101.45Z"/>
              <path class="cls-82" d="M172.63,104a.45.45,0,0,0,.24.22.34.34,0,0,0,0-.42l-1.33-2.19a.38.38,0,0,0-.35-.17.44.44,0,0,0,.07.38Z"/>
            </g>
            <g>
              <path class="cls-81" d="M176.51,99.94a.37.37,0,0,1,.49-.2l2.36,1a.38.38,0,0,1,.19.49.37.37,0,0,1-.49.2l-2.36-1A.37.37,0,0,1,176.51,99.94Z"/>
              <path class="cls-82" d="M179.25,101.08a.54.54,0,0,0,.32,0,.36.36,0,0,0-.21-.37l-2.36-1a.35.35,0,0,0-.38.06c0,.09.11.2.27.27Z"/>
            </g>
            <g>
              <path class="cls-81" d="M183.65,95.58a.38.38,0,0,1,.22-.48l2.42-.86a.38.38,0,0,1,.25.71l-2.41.86A.37.37,0,0,1,183.65,95.58Z"/>
              <path class="cls-82" d="M186.43,94.56a.49.49,0,0,0,.27-.2.38.38,0,0,0-.41-.12l-2.42.86a.38.38,0,0,0-.23.3c.06.07.21.08.38,0Z"/>
            </g>
            <g>
              <path class="cls-81" d="M186.15,91a.37.37,0,0,1,.39-.35l2.56.15a.37.37,0,0,1,.35.4.38.38,0,0,1-.39.35l-2.56-.16A.37.37,0,0,1,186.15,91Z"/>
              <path class="cls-82" d="M189.11,91.15a.47.47,0,0,0,.32-.08.38.38,0,0,0-.33-.27l-2.56-.15a.35.35,0,0,0-.33.18.39.39,0,0,0,.34.16Z"/>
            </g>
          </g>
          <path class="cls-83" d="M188.39,116a1.09,1.09,0,1,1-1.09-1.09A1.09,1.09,0,0,1,188.39,116Z"/>
          <path class="cls-83" d="M189.68,113a.52.52,0,0,1-.53.52.52.52,0,1,1,0-1A.52.52,0,0,1,189.68,113Z"/>
          <path class="cls-83" d="M197.75,107.62a.52.52,0,1,1-.52-.53A.52.52,0,0,1,197.75,107.62Z"/>
          <path class="cls-84" d="M173.46,108.72l-1.15.43c-2,.72-10.1-1.09-11.91-2s-4.17-1.69-5.75-3.17a.25.25,0,0,0-.3,0c2.92,3.32,8,6.45,16.57,7Z"/>
        </g>
        <g>
          <path class="cls-68" d="M175.18,121.45a28.23,28.23,0,1,0,27.92,28.23A28.08,28.08,0,0,0,175.18,121.45Zm0,37.38c-5.4,0-9.79-4.11-9.79-9.15s4.39-9.16,9.79-9.16,9.79,4.11,9.79,9.16S180.58,158.83,175.18,158.83Z"/>
          <path class="cls-85" d="M175.18,117.53c-17.33,0-31.42,14.42-31.42,32.15,0,6.34,1.75,16.8,4.93,17.25,1.42.2,2.62-5.78,7.82-1s2.37-2.12,5.66-1.93,2.2,2.7,2.74,5.61,1.65,7.56,4.21,7.46,3.83-5.13,5.84-4.94,2.2,6.59,5.12,6.59,4.34-7,8-9.11,5.51.16,6.7,1.52c2.33,2.67,6.9-4.29,7.32-4.94a32.5,32.5,0,0,0,4.46-16.49C206.6,132,192.51,117.53,175.18,117.53Zm0,45.26c-8,0-14.54-5.88-14.54-13.11a12.15,12.15,0,0,1,2.65-7.53h0s2.76,6.47,5.67,3.82,1.06-4.63,2.78-7.8c.47-.87.27-1.59,1.83-1.52.76,0,1.3,1.2,1.61,1.52.53.53.53,4.63,4.23,6.08s7.22-2.63,7.22-2.63h0a12.24,12.24,0,0,1,3.09,8.06C189.72,156.91,183.19,162.79,175.18,162.79Z"/>
          <path class="cls-86" d="M180.08,177.51c-.81,0-1.47-1.65-2-3-.68-1.7-1.38-3.46-3-3.62h-.23c-1.53,0-2.52,1.39-3.48,2.73-.73,1-1.56,2.2-2.3,2.22h0c-.55,0-1.88-.63-3-6.49a14.29,14.29,0,0,1-.18-2c-.07-1.84-.17-4.36-3.66-4.55h-.19c-2.2,0-2.69,2-3,3,0,.15-.09.35-.14.51a9.84,9.84,0,0,1-1.65-1.29,6.73,6.73,0,0,0-4.38-2.16c-1.93,0-3.09,1.39-3.86,2.3a5.57,5.57,0,0,1-.44.51c-1.64-.86-3.68-8.5-3.68-16,0-17.07,13.56-31,30.23-31s30.23,13.89,30.23,31a31.38,31.38,0,0,1-4.29,15.87c-1.58,2.45-3.9,5-5,5h0a.41.41,0,0,1-.36-.19l-.08-.09c-.88-1-2.36-2.7-4.75-2.7a6.74,6.74,0,0,0-3.37,1c-2,1.18-3.39,3.48-4.58,5.51C182,175.69,180.93,177.51,180.08,177.51ZM163.29,141a1.16,1.16,0,0,0-.94.46,13.28,13.28,0,0,0-2.9,8.26c0,7.88,7.06,14.3,15.73,14.3s15.73-6.42,15.73-14.3a13.33,13.33,0,0,0-3.38-8.84,1.18,1.18,0,0,0-.9-.41h0a1.21,1.21,0,0,0-.9.41s-2.23,2.53-4.66,2.53a3.19,3.19,0,0,1-1.22-.23c-2.21-.86-2.78-2.93-3.15-4.3a3.3,3.3,0,0,0-.68-1.52l-.16-.22a3,3,0,0,0-2.24-1.64h-.25a2.34,2.34,0,0,0-2.5,1.73,4.08,4.08,0,0,1-.18.42,9.15,9.15,0,0,0-1,4,4.25,4.25,0,0,1-1.5,3.47.94.94,0,0,1-.66.33c-1,0-2.44-2.17-3.12-3.74a1.16,1.16,0,0,0-.94-.71Z"/>
          <path class="cls-87" d="M203.1,149.68a27.92,27.92,0,1,0-51.66,14.85c1.11-.73,2.66-.83,5.07,1.38,5.3,4.84,2.37-2.12,5.66-1.93s2.2,2.7,2.74,5.61,1.65,7.56,4.21,7.46,3.83-5.13,5.84-4.94c1.52.15,2,3.81,3.38,5.61a28.27,28.27,0,0,0,4.25-.83c1.58-2.21,3-5.85,5.53-7.3,3-1.76,4.83-.48,6,.78A28.29,28.29,0,0,0,203.1,149.68Zm-27.92,13.11c-8,0-14.54-5.88-14.54-13.11a12.15,12.15,0,0,1,2.65-7.53s2.76,6.47,5.67,3.82,1.06-4.63,2.78-7.8c.47-.87.27-1.59,1.83-1.52.76,0,1.3,1.2,1.61,1.52.53.53.53,4.63,4.23,6.08s7.22-2.63,7.22-2.63a12.24,12.24,0,0,1,3.09,8.06C189.72,156.91,183.19,162.79,175.18,162.79Z"/>
          <path class="cls-88" d="M175,172.11c2,.19,2.2,6.59,5.12,6.59s4.34-7,8-9.11,5.51.16,6.7,1.52c2.33,2.67,6.9-4.29,7.32-4.94a32.5,32.5,0,0,0,4.46-16.49,33.25,33.25,0,0,0-.66-6.59c-5.69,9.71-23.2,31.19-61.23,16,.82,4.13,2.17,7.61,4,7.87,1.42.2,2.62-5.78,7.82-1s2.37-2.12,5.66-1.93,2.2,2.7,2.74,5.61,1.65,7.56,4.21,7.46S173,171.92,175,172.11Z"/>
          <path class="cls-89" d="M175.18,165.17c9.33,0,16.92-6.95,16.92-15.49a14.68,14.68,0,0,0-3.67-9.62l-1.8-2.09-1.8,2.1c-.48.54-2.21,2.11-3.76,2.11a2.39,2.39,0,0,1-.79-.14c-1.52-.61-2-1.95-2.43-3.51a4.51,4.51,0,0,0-.9-2,.78.78,0,0,1-.1-.15,4.2,4.2,0,0,0-3.17-2.15h-.31a3.5,3.5,0,0,0-3.61,2.5,2.07,2.07,0,0,1-.11.27,10.2,10.2,0,0,0-1.18,4.5,3.1,3.1,0,0,1-1,2.6,8.92,8.92,0,0,1-2-2.92l-1.58-3.71-2.49,3.18a14.53,14.53,0,0,0-3.15,9C158.26,158.22,165.85,165.17,175.18,165.17Zm-11.89-23s2.76,6.47,5.67,3.82,1.06-4.63,2.78-7.8c.47-.87.27-1.59,1.83-1.52.76,0,1.3,1.2,1.61,1.52.53.53.53,4.63,4.23,6.08s7.22-2.63,7.22-2.63a12.24,12.24,0,0,1,3.09,8.06c0,7.23-6.53,13.11-14.54,13.11s-14.54-5.88-14.54-13.11A12.15,12.15,0,0,1,163.29,142.15Z"/>
          <g>
            <path class="cls-90" d="M202.14,166.17a33.1,33.1,0,0,0,2.7-5.89,30.7,30.7,0,0,1-11.34,9.47,11.86,11.86,0,0,1,1.32,1.36C197.15,173.78,201.72,166.82,202.14,166.17Z"/>
            <path class="cls-90" d="M169.12,177.05c1.29,0,2.25-1.35,3.15-2.61-2.14.05-4.18,0-6.06-.1C166.88,175.91,167.81,177.1,169.12,177.05Z"/>
            <path class="cls-90" d="M180.08,178.7c2,0,3.26-3.17,5-5.89a54,54,0,0,1-8.44,1.39C177.47,176.13,178.23,178.7,180.08,178.7Z"/>
          </g>
          <path class="cls-91" d="M155.92,128.33c-3.81,2.2-7.16,7.44-7.76,12.86-.07.66,1.08.76,1.4.19,1.92-3.36,5.47-8.27,7.26-11.7a1.46,1.46,0,0,0,.07-.19A.77.77,0,0,0,155.92,128.33Z"/>
          <ellipse class="cls-91" cx="147.69" cy="149.2" rx="1.29" ry="3.1"/>
          <path class="cls-92" d="M164.48,132.75c-1,.89-2.08,1.28-2.45.88s.13-1.47,1.11-2.36,2.08-1.28,2.45-.87S165.46,131.86,164.48,132.75Z"/>
          <path class="cls-92" d="M171.54,169.88c-1.22.53-2.38.54-2.6,0s.59-1.35,1.8-1.87,2.39-.54,2.6,0S172.75,169.36,171.54,169.88Z"/>
          <path class="cls-92" d="M155.58,158.24c-1,.44-2,.39-2.26-.12s.44-1.27,1.47-1.72,2-.39,2.26.11S156.61,157.79,155.58,158.24Z"/>
          <path class="cls-92" d="M179.83,126.89c-1.09-.26-1.87-.91-1.74-1.45s1.12-.75,2.21-.49,1.87.92,1.74,1.45S180.92,127.16,179.83,126.89Z"/>
          <path class="cls-93" d="M155.58,145.23c-1,.45-2,.4-2.26-.11s.44-1.28,1.47-1.72,2-.4,2.26.11S156.61,144.79,155.58,145.23Z"/>
          <path class="cls-93" d="M171.36,128c-1.09.25-2.08,0-2.2-.53s.67-1.17,1.76-1.42,2.08,0,2.2.53S172.46,127.72,171.36,128Z"/>
          <path class="cls-93" d="M191.16,137c-1-.39-1.75-1.13-1.56-1.64s1.21-.62,2.26-.23,1.74,1.13,1.55,1.65S192.21,137.39,191.16,137Z"/>
          <path class="cls-93" d="M195.09,155.86c-1.05-.39-1.75-1.13-1.56-1.65s1.21-.62,2.26-.22,1.75,1.13,1.55,1.64S196.14,156.25,195.09,155.86Z"/>
          <path class="cls-94" d="M183.51,131.52c0,.71-1.19,1.29-2.67,1.29s-2.68-.58-2.68-1.29,1.2-1.28,2.68-1.28S183.51,130.81,183.51,131.52Z"/>
          <path class="cls-94" d="M200.05,146.1c0,.71-1.2,1.29-2.67,1.29s-2.68-.58-2.68-1.29,1.2-1.28,2.68-1.28S200.05,145.39,200.05,146.1Z"/>
          <path class="cls-94" d="M155.19,151c0,.71-.78,1.29-1.74,1.29s-1.75-.58-1.75-1.29.78-1.28,1.75-1.28S155.19,150.3,155.19,151Z"/>
          <path class="cls-94" d="M182.62,167.64c0,.71-.78,1.29-1.74,1.29s-1.74-.58-1.74-1.29.78-1.28,1.74-1.28S182.62,166.94,182.62,167.64Z"/>
          <path class="cls-94" d="M166.21,126.78c0,.71-.78,1.29-1.74,1.29s-1.74-.58-1.74-1.29.78-1.28,1.74-1.28S166.21,126.07,166.21,126.78Z"/>
          <path class="cls-95" d="M159.59,137.27c0,.58-.69,1-1.53,1s-1.54-.47-1.54-1,.69-1,1.54-1S159.59,136.7,159.59,137.27Z"/>
          <path class="cls-95" d="M190.65,130.24c0,.57-.69,1-1.53,1s-1.54-.47-1.54-1,.69-1.05,1.54-1.05S190.65,129.66,190.65,130.24Z"/>
          <path class="cls-95" d="M198.91,140.15c0,.58-.69,1-1.53,1s-1.54-.46-1.54-1,.69-1,1.54-1S198.91,139.57,198.91,140.15Z"/>
          <path class="cls-95" d="M191.1,163.47c0,.58-.68,1-1.53,1s-1.53-.46-1.53-1,.68-1.05,1.53-1.05S191.1,162.89,191.1,163.47Z"/>
          <path class="cls-95" d="M161.33,160.9c0,.57-.69,1-1.54,1s-1.53-.47-1.53-1,.69-1.05,1.53-1.05S161.33,160.32,161.33,160.9Z"/>
        </g>
        <g>
          <g>
            <g>
              <path class="cls-96" d="M111.24,103.63H57.78l4.61,21.62c0,1.27.64,3.32,4.74,5.05,4.62,2,10.81,3,17.43,3s12.82-1.07,17.44-3c4.09-1.73,4.74-3.78,4.74-5.05C106.74,125.13,111.24,103.63,111.24,103.63Z"/>
              <path class="cls-97" d="M106.74,125.25c0-.12,4.5-21.62,4.5-21.62H57.78l4.61,21.62a2.53,2.53,0,0,0,.58,1.43c6.85-2.66,21.62-2.59,29.55,4.43a16.24,16.24,0,0,0,1.83,1.38A36.52,36.52,0,0,0,102,130.3C106.09,128.57,106.74,126.52,106.74,125.25Z"/>
              <path class="cls-98" d="M84.86,103.63a10.12,10.12,0,0,0,1.24.51c9.85,3.29,11.65,25.1,11.22,27.38,0,.12,0,.23-.08.35A32.39,32.39,0,0,0,102,130.3c4.09-1.73,4.74-3.78,4.74-5.05,0-.12,4.5-21.62,4.5-21.62Z"/>
              <g>
                <path class="cls-98" d="M66,114.27c.35,5.2,0,7.5-.82,7.58s-1.73-2.07-2.08-7.27,0-9.48.81-9.57S65.63,109.07,66,114.27Z"/>
                <path class="cls-98" d="M73.85,115.93c.07,5.21-.53,7.47-1.33,7.49S71,121.21,70.93,116s.53-9.46,1.33-9.48S73.78,110.71,73.85,115.93Z"/>
                <path class="cls-98" d="M81.71,117c.07,5.21-.53,7.47-1.33,7.49s-1.51-2.22-1.58-7.43.52-9.46,1.33-9.48S81.64,111.76,81.71,117Z"/>
                <path class="cls-99" d="M102.39,114.27c-.35,5.2,0,7.5.82,7.58s1.73-2.07,2.08-7.27,0-9.48-.81-9.57S102.74,109.07,102.39,114.27Z"/>
                <path class="cls-99" d="M94.52,115.93c-.07,5.21.53,7.47,1.33,7.49s1.51-2.21,1.58-7.43-.52-9.46-1.32-9.48S94.59,110.71,94.52,115.93Z"/>
                <path class="cls-98" d="M86.66,117c-.07,5.21.53,7.47,1.33,7.49s1.51-2.22,1.58-7.43-.52-9.46-1.33-9.48S86.73,111.76,86.66,117Z"/>
              </g>
              <path class="cls-100" d="M111.71,102.15c0,6.66-12.18,12.06-27.2,12.06s-27.2-5.4-27.2-12.06S69.49,90.1,84.51,90.1,111.71,95.5,111.71,102.15Z"/>
              <path class="cls-101" d="M84.86,113.67c-15,0-27.2-5.4-27.2-12.06a6.45,6.45,0,0,1,1.65-4.14,6.76,6.76,0,0,0-2,4.59c0,6.65,12.17,12,27.19,12,11.74,0,21.74-3.29,25.56-7.91C105.94,110.58,96.21,113.67,84.86,113.67Z"/>
              <path class="cls-102" d="M84.51,111c-7,0-13.44-1.19-18.28-3.33-4.3-1.91-6.22-4.16-6.22-5.56s1.92-3.64,6.22-5.55c4.84-2.15,11.33-3.33,18.28-3.33S98,94.45,102.8,96.6c4.29,1.91,6.22,4.16,6.22,5.55s-1.93,3.65-6.22,5.56C98,109.85,91.46,111,84.51,111Z"/>
            </g>
            <path class="cls-103" d="M111.05,97.6c0,6.77-11.88,12.26-26.54,12.26S58,104.37,58,97.6,69.86,87.44,84.51,87.44,111.05,90.83,111.05,97.6Z"/>
            <path class="cls-103" d="M108.21,87.33c0,6.78-10.61,12.27-23.7,12.27s-23.7-5.49-23.7-12.27,10.61-8.84,23.7-8.84S108.21,80.56,108.21,87.33Z"/>
            <path class="cls-103" d="M98.92,80.31c-.09-5.57-4.61-13.63-10.71-14.48-2.38-.33-4.37-1.48-6,.83-.54.74-.22,2.4-.1,3.12.6,3.94-.78,6.11-4.11,8.13-5,3,.29,7.82,4.19,8.33a48.22,48.22,0,0,0,5.86.67c1.29,0,2.49-.83,3.75-1A11.13,11.13,0,0,0,95.42,84a3.22,3.22,0,0,0,.34-.36,3.66,3.66,0,0,0,2.51-2.42A.88.88,0,0,0,98.92,80.31Z"/>
            <path class="cls-104" d="M106.76,91.56a7.23,7.23,0,0,0,1.45-4.23c0-4-3.65-6.32-9.31-7.59-.38-5.53-4.8-13.09-10.69-13.91-.72-.1-1.41-.28-2.06-.41a11,11,0,0,0,2,1.25,15.31,15.31,0,0,1,4,3.23,19.08,19.08,0,0,1,2.48,4.23,18.84,18.84,0,0,1,1.73,4.5,5.15,5.15,0,0,0,.94,2.72,1.44,1.44,0,0,0,.81.25,11.6,11.6,0,0,1,2.76,1.25c2.27,1.08,3,3.66,3,6,0,.64-.06,1.24-.1,1.88-.09,1.65-1.61,2-2.86,2.45-.4.14-.2.71.16.75.6,0,1.19,0,1.79,0,1.91,0,2,2,2.22,3.33a10,10,0,0,1-.9,5.87c-1.4,3.39-6,3.92-8.92,5.33a.35.35,0,0,0-.21.4c9.43-1.88,16-6.21,16-11.26C111.05,95.14,109.47,93.12,106.76,91.56Z"/>
            <path class="cls-105" d="M101.47,97.36c0,4.1-9.36,7.43-20.89,7.43s-20.89-3.33-20.89-7.43S69,91.2,80.58,91.2,101.47,93.26,101.47,97.36Z"/>
            <path class="cls-105" d="M103,85.7c0,5.51-9.43,10-21.07,10s-21.08-4.48-21.08-10,9.44-7.21,21.08-7.21S103,80.18,103,85.7Z"/>
            <path class="cls-105" d="M94,80.31c-.08-5.57-3.63-13.63-8.43-14.48-1.87-.33-3.44-1.48-4.76.83-.42.74-.16,2.4-.08,3.12.48,3.94-.61,6.11-3.22,8.13-4,3,.23,7.82,3.29,8.33a30.32,30.32,0,0,0,4.61.67c1,0,2-.83,2.95-1A8.31,8.31,0,0,0,91.26,84a2,2,0,0,0,.27-.36,3.32,3.32,0,0,0,2-2.42A.9.9,0,0,0,94,80.31Z"/>
            <path class="cls-106" d="M79,89.94c-6.21,0-10.86-2.38-10.86-4.51,0-1.82,4.06-2.91,10.86-2.91s10.84,1.09,10.84,2.91C89.81,87.56,85.18,89.94,79,89.94Z"/>
            <path class="cls-106" d="M82.29,102.69c-5.78,0-10.1-2.38-10.1-4.51,0-1.83,3.78-2.92,10.1-2.92s10.1,1.09,10.1,2.92C92.39,100.31,88.07,102.69,82.29,102.69Z"/>
            <path class="cls-106" d="M82.89,76.38a10.13,10.13,0,0,0-.07,4.13c.56,1.85,4.12,1.26,5.2.17,1.47-1.5,1.75-3.55,1.79-5.56C88.66,72,86.73,69.23,85,68.93c-.46-.08-.88-.19-1.25-.29,0,.22.1.77.1.77A11.91,11.91,0,0,1,82.89,76.38Z"/>
            <path class="cls-107" d="M78.79,80.2c0,.58-.68,1-1.53,1s-1.53-.47-1.53-1,.68-1,1.53-1S78.79,79.62,78.79,80.2Z"/>
            <path class="cls-107" d="M83.42,69.94c0,.58-.69,1-1.53,1s-1.54-.47-1.54-1,.69-1,1.54-1S83.42,69.37,83.42,69.94Z"/>
            <path class="cls-107" d="M92.39,78.1c0,.58-.68,1-1.53,1s-1.53-.46-1.53-1,.68-1,1.53-1S92.39,77.52,92.39,78.1Z"/>
            <path class="cls-107" d="M100.13,86.23c0,.58-.69,1-1.53,1s-1.54-.46-1.54-1,.69-1,1.54-1S100.13,85.65,100.13,86.23Z"/>
            <path class="cls-107" d="M80.33,89.4c0,.57-.69,1-1.54,1s-1.53-.47-1.53-1,.69-1.05,1.53-1.05S80.33,88.82,80.33,89.4Z"/>
            <path class="cls-107" d="M66.06,82.52c0,.57-.69,1-1.53,1s-1.54-.47-1.54-1,.69-1,1.54-1S66.06,81.94,66.06,82.52Z"/>
            <path class="cls-107" d="M66.62,96.8c0,.58-.69,1-1.54,1s-1.53-.46-1.53-1,.69-1,1.53-1S66.62,96.22,66.62,96.8Z"/>
            <path class="cls-107" d="M90.86,97.47c0,.57-.69,1-1.53,1s-1.53-.47-1.53-1,.68-1,1.53-1S90.86,96.89,90.86,97.47Z"/>
            <path class="cls-107" d="M106,96.42c0,.58-.69,1-1.54,1S103,97,103,96.42s.69-1,1.53-1S106,95.85,106,96.42Z"/>
          </g>
          <g>
            <path class="cls-108" d="M71.32,84.62Z"/>
            <path class="cls-108" d="M72.06,82.09c-.22-.67.16-1.44-.54-1.9s-1.15.44-1.31.91a2.76,2.76,0,0,0-.13.77l-.18.29a7.3,7.3,0,0,0-.37,1c-.21.54-.43,1.33.21,1.66a1.68,1.68,0,0,0,1.41-.18.54.54,0,0,1,.17,0h-.06a2.12,2.12,0,0,0,.44-.06,1.31,1.31,0,0,0,.73-.56C72.77,83.41,72.24,82.64,72.06,82.09Z"/>
          </g>
          <g>
            <path class="cls-108" d="M99.22,100.83Z"/>
            <path class="cls-108" d="M98.93,98.21c-.46-.53-.41-1.38-1.22-1.54s-.9.84-.87,1.33a3.07,3.07,0,0,0,.18.77q0,.18-.06.33a8,8,0,0,0,.05,1.09c0,.58.12,1.39.84,1.46.5,0,.91-.39,1.23-.72a.63.63,0,0,1,.14-.1l0,0a3,3,0,0,0,.38-.23,1.25,1.25,0,0,0,.45-.8C100.1,99.16,99.31,98.65,98.93,98.21Z"/>
          </g>
          <g>
            <path class="cls-108" d="M91.19,85.25Z"/>
            <path class="cls-108" d="M92.84,83.75c.13-.58.74-1,.44-1.6s-1-.19-1.33.07a2.36,2.36,0,0,0-.44.5l-.25.13a6.68,6.68,0,0,0-.72.57c-.39.3-.89.77-.58,1.29s.71.43,1.1.49a.34.34,0,0,1,.13,0l0,0a1.54,1.54,0,0,0,.35.15,1.05,1.05,0,0,0,.76-.08C92.77,85,92.73,84.23,92.84,83.75Z"/>
          </g>
          <path class="cls-108" d="M82.12,78.23l-.13-.1a2.84,2.84,0,0,1-.61-1c-.09-.35,0-.72-.26-1a.62.62,0,0,0-.67-.28,1,1,0,0,0-.59.44,2,2,0,0,1-.5.41c-.29.23-.79.84-.28,1.29a12,12,0,0,0,1.22.69c.49.34.89.77,1.56.61A.61.61,0,0,0,82.12,78.23Z"/>
          <path class="cls-108" d="M90.72,90.7l-.15.06a2.81,2.81,0,0,1-1.19,0,2.68,2.68,0,0,0-1-.31.62.62,0,0,0-.57.45,1,1,0,0,0,.07.73,1.85,1.85,0,0,1,.11.63c.05.37.31,1.1,1,.9a9.74,9.74,0,0,0,1.21-.7c.55-.25,1.12-.38,1.32-1A.6.6,0,0,0,90.72,90.7Z"/>
          <path class="cls-108" d="M74,99.28l-.15,0a3,3,0,0,1-1.19,0c-.35-.11-.64-.35-1-.31a.62.62,0,0,0-.58.44,1,1,0,0,0,.07.73,2,2,0,0,1,.11.64c0,.37.32,1.1,1,.9.45-.15.79-.51,1.22-.7s1.12-.39,1.31-1A.6.6,0,0,0,74,99.28Z"/>
          <path class="cls-108" d="M71.2,92.67a1.47,1.47,0,0,1-.1-.13,2.85,2.85,0,0,1-.4-1.12,2.75,2.75,0,0,0,0-1.07.61.61,0,0,0-.6-.4,1,1,0,0,0-.67.31,1.85,1.85,0,0,1-.57.31c-.33.16-.94.66-.53,1.2a10.44,10.44,0,0,0,1.06.92c.41.43.72.93,1.4.9A.6.6,0,0,0,71.2,92.67Z"/>
        </g>
        <g>
          <g>
            <path class="cls-109" d="M124.93,47.15a6.55,6.55,0,0,0-3.75-4.7c-4.74-2.39-11.58-1.13-16,1.47-1.4.83-3,2.25-2.52,4.09.29,1.2,1.66,3.67,9.53,3.61,3.27,0,6.55.26,9.67-.78C123.73,50.23,125.18,49.31,124.93,47.15Z"/>
            <g>
              <g>
                <path class="cls-110" d="M114.16,70.51a5.24,5.24,0,0,0,2.64-2.17,18.94,18.94,0,0,1-.13-4.58l-5.83-.9s-.2,3.88-.52,5.57A3.69,3.69,0,0,0,114.16,70.51Z"/>
                <g>
                  <path class="cls-111" d="M121.05,57.23c-.19-.9-1.1-.77-1.42-.7-.44-3.8-2.62-6.63-5.59-6.73s-5.44,2.46-6.07,6.31c-.3-.1-1.22-.3-1.48.59a2.72,2.72,0,0,0,1.38,3.16h0a6.68,6.68,0,0,0,.46,1.91c1.19,2.83,3.44,5,5.08,5.06s3.89-1.84,5.26-4.68a10.72,10.72,0,0,0,.7-1.86h.06A2.72,2.72,0,0,0,121.05,57.23Z"/>
                  <path class="cls-112" d="M115.09,52.31c-1.26,1.89-5.42,4.63-8.33,3.89-.35-2.69,1.33-5.39,2.27-6.45,2.64-3,7.52-2.56,9-.94,3.2,3.5,3.12,6,2.19,7.75C118.7,57.25,115.83,54.12,115.09,52.31Z"/>
                </g>
              </g>
              <path class="cls-25" d="M133.11,90c-1.64-8.17-3.45-16.21-5.86-17.69s-10.56-4.15-10.56-4.15l-3.13,2.33-3.14-2.33s-8.15,2.66-10.56,4.15S95.65,81.85,94,90c-.37,1.83-.81,3.88-1.26,5.94a16.51,16.51,0,0,1,7.09,1.68l3-13.79,2,13.79h17.26l2-13.79,3.06,13.79A16.51,16.51,0,0,1,134.37,96C133.91,93.9,133.48,91.85,133.11,90Z"/>
              <path class="cls-113" d="M122,44.42a5.51,5.51,0,0,0-3.49.78,6.47,6.47,0,0,0-2,2.86S120.43,44.91,122,44.42Z"/>
              <path class="cls-113" d="M110.17,42.61A15.15,15.15,0,0,1,112,46.45c.15,1.2.93-.49.5-1.72A2.86,2.86,0,0,0,110.17,42.61Z"/>
              <path class="cls-113" d="M105.69,44.79a26.4,26.4,0,0,1,2.15,2.13,5.29,5.29,0,0,0,1.33,1.14s.38-1.92-.8-2.71A4.14,4.14,0,0,0,105.69,44.79Z"/>
              <path class="cls-109" d="M91.19,93.81l1.34,3.83a8.13,8.13,0,0,1,5.74,1.8,26.5,26.5,0,0,0,3.39-2.69,7.64,7.64,0,0,0-4.82-3.66A7.14,7.14,0,0,0,91.19,93.81Z"/>
              <path class="cls-109" d="M135.69,93.81l-1.34,3.83a8.12,8.12,0,0,0-5.74,1.8,25.75,25.75,0,0,1-3.39-2.69A7.64,7.64,0,0,1,130,93.09,7.14,7.14,0,0,1,135.69,93.81Z"/>
              <rect class="cls-109" x="107.62" y="70.93" width="12.37" height="41.53"/>
              <rect class="cls-25" x="106.4" y="72.03" width="12.52" height="40.68"/>
              <g>
                <path class="cls-25" d="M103,171.94s-6.85,3.33-8.74,4.54S93,178.85,93,178.85h13.84s.2-5.39-.19-6.56S103,171.94,103,171.94Z"/>
                <path class="cls-112" d="M101.72,131.67s-.27,12.6-.81,17.75c-.86,8.28-2,23.82-2,23.82h8.75s1.73-19.74,2.7-27.61c.67-5.51,2-14,2-14Z"/>
                <rect class="cls-114" x="92.9" y="178.32" width="13.98" height="1.06"/>
              </g>
              <g>
                <path class="cls-25" d="M124.89,171.94s6.85,3.33,8.75,4.54,1.16,2.37,1.16,2.37H121s-.2-5.39.19-6.56S124.89,171.94,124.89,171.94Z"/>
                <path class="cls-112" d="M126.12,131.67s.28,12.6.81,17.75c.87,8.28,2,23.82,2,23.82h-8.74s-1.74-19.74-2.7-27.61c-.68-5.51-2-14-2-14Z"/>
                <rect class="cls-114" x="120.96" y="178.32" width="13.98" height="1.06" transform="translate(255.9 357.7) rotate(180)"/>
              </g>
              <path class="cls-115" d="M127.43,118.72c-.6-10.47-5.05-21.08-5.05-21.08H104.93s-4.45,10.61-5.06,21.08-1.6,21.71-1.6,21.71H129S128,129.18,127.43,118.72Z"/>
              <rect class="cls-116" x="104.75" y="96.4" width="17.83" height="1.74"/>
              <path class="cls-109" d="M109.23,68.58V66.15s4.45,1.12,4.33,4.36A36.14,36.14,0,0,1,109.23,68.58Z"/>
              <path class="cls-109" d="M117.89,68.58V66.15s-4.46,1.12-4.33,4.36A37,37,0,0,0,117.89,68.58Z"/>
              <g>
                <path class="cls-112" d="M110.94,73.9a.73.73,0,0,1-.72.73.73.73,0,0,1-.73-.73.73.73,0,0,1,.73-.72A.72.72,0,0,1,110.94,73.9Z"/>
                <path class="cls-112" d="M117.64,73.9a.73.73,0,0,1-.72.73.73.73,0,0,1-.73-.73.73.73,0,0,1,.73-.72A.72.72,0,0,1,117.64,73.9Z"/>
              </g>
              <g>
                <path class="cls-117" d="M110.08,82.91a.73.73,0,0,1-.73.73.73.73,0,0,1-.72-.73.72.72,0,0,1,.72-.72A.73.73,0,0,1,110.08,82.91Z"/>
                <path class="cls-117" d="M117.64,82.91a.73.73,0,0,1-.72.73.73.73,0,0,1-.73-.73.73.73,0,0,1,.73-.72A.72.72,0,0,1,117.64,82.91Z"/>
              </g>
              <g>
                <path class="cls-117" d="M110.08,93.09a.73.73,0,0,1-.73.72.72.72,0,0,1-.72-.72.73.73,0,0,1,.72-.73A.73.73,0,0,1,110.08,93.09Z"/>
                <path class="cls-117" d="M117.64,93.09a.72.72,0,0,1-.72.72.73.73,0,0,1-.73-.72.73.73,0,0,1,.73-.73A.73.73,0,0,1,117.64,93.09Z"/>
              </g>
            </g>
            <path class="cls-25" d="M120.78,46.88s-1.76-1.82-7-1.82c-4.87,0-7,1.82-7,1.82v7.65h14Z"/>
            <polygon class="cls-116" points="108.83 77.24 107.31 77.24 107.31 69.25 108.83 68.72 108.83 77.24"/>
            <polygon class="cls-116" points="118.47 77.24 119.99 77.24 119.99 69.25 118.47 68.72 118.47 77.24"/>
            <polygon class="cls-115" points="104.75 96.4 107.27 77.11 119.99 77.11 122.58 96.4 104.75 96.4"/>
            <path class="cls-116" d="M106.6,107.75v4.32a7,7,0,0,0,13.92,0v-4.32Z"/>
            <path class="cls-118" d="M134.37,111.63c-1.14-1.4-4.2-1.35-5.8-1.39-.72,0-19.63-.45-29.49.14-4,.24-5.06,1.61-5.39,2.08-.49.68,8.08.57,17.73.45,9.19-.1,19.38-.2,22.75-.27C134.67,112.63,134.65,112,134.37,111.63Z"/>
            <path class="cls-119" d="M128.66,106.9H132c1.26,0,2.72-1.12,4.42-1.12s1.82,1.3,1.82,2a1.7,1.7,0,0,1-1.82,2c-1.7,0-3.16-1.12-4.42-1.12h-3.36l-.32-.86Z"/>
            <path class="cls-119" d="M127.62,110.55H100a2.5,2.5,0,0,1-2.49-2.5h0a2.5,2.5,0,0,1,2.49-2.49h27.64a2.51,2.51,0,0,1,2.5,2.49h0A2.51,2.51,0,0,1,127.62,110.55Z"/>
            <path class="cls-119" d="M98.77,106.9H95.4c-1.26,0-2.71-1.12-4.41-1.12s-1.82,1.3-1.82,2a1.7,1.7,0,0,0,1.82,2c1.7,0,3.15-1.12,4.41-1.12h3.37l.31-.86Z"/>
            <path class="cls-111" d="M92.53,97.64S88,102,86.67,103.57a3.86,3.86,0,0,0,0,5.12c1.26,1.33,2.59,3,3.85,2.94A8.55,8.55,0,0,0,94.1,110c.42-.35-1.82-5-1.82-5l6-5.53A5.36,5.36,0,0,0,92.53,97.64Z"/>
            <path class="cls-111" d="M90.38,104.53s1.76.23,3.51.3,2.94,0,2.94,0a2,2,0,0,1-2,1.75H88.65Z"/>
            <path class="cls-111" d="M134.38,97.64s4.53,4.39,5.86,5.93a3.86,3.86,0,0,1,0,5.12c-1.26,1.33-2.59,3-3.85,2.94a8.49,8.49,0,0,1-3.58-1.61c-.42-.35,1.82-5,1.82-5l-6-5.53A5.36,5.36,0,0,1,134.38,97.64Z"/>
            <path class="cls-111" d="M136.53,104.53s-1.76.23-3.51.3-2.94,0-2.94,0a2,2,0,0,0,2,1.75h6.15Z"/>
          </g>
          <g>
            <g>
              <path class="cls-119" d="M76.89,159A165.11,165.11,0,0,0,57,172.1V180H172.59V128.66C139.35,133.4,106.09,142.54,76.89,159Z"/>
              <path class="cls-120" d="M57,115.73V172.1A165.11,165.11,0,0,1,76.89,159c29.2-16.44,62.46-25.58,95.7-30.32V115.73Z"/>
            </g>
            <rect class="cls-121" x="54.36" y="112.56" width="120.82" height="3.17"/>
            <rect class="cls-122" x="56.96" y="115.73" width="115.63" height="10.33"/>
          </g>
          <path class="cls-118" d="M150,108.44a4.34,4.34,0,0,0-4.16-.51c-1.32.72-2.46,2-2.15,3.35a1.81,1.81,0,0,0,1.62,1.3,12.13,12.13,0,0,0,3.94-.1C151.62,112,151.52,109.83,150,108.44Z"/>
          <path class="cls-118" d="M159.19,108.44a4.34,4.34,0,0,0-4.16-.51c-1.32.72-2.46,2-2.15,3.35a1.81,1.81,0,0,0,1.62,1.3,12.12,12.12,0,0,0,3.94-.1C160.8,112,160.7,109.83,159.19,108.44Z"/>
          <path class="cls-118" d="M168.58,108.44a4.34,4.34,0,0,0-4.16-.51c-1.32.72-2.46,2-2.15,3.35a1.82,1.82,0,0,0,1.63,1.3,12.06,12.06,0,0,0,3.93-.1C170.19,112,170.09,109.83,168.58,108.44Z"/>
          <g>
            <path class="cls-118" d="M79.86,98.14c-2.35-1.84-4.11-.87-7.57,0a63.39,63.39,0,0,0-7.61,2.42,3,3,0,0,0-2.11,1.79c-.56,2,1.59,2.86,3.13,3.14a28.53,28.53,0,0,0,10,0c2.06-.39,4.76-1,5.48-3.26A3.46,3.46,0,0,0,79.86,98.14Z"/>
            <g>
              <path class="cls-25" d="M57.54,100.87c.27,6.33,6.19,11.4,13.47,11.4s13.2-5.07,13.48-11.4Z"/>
              <rect class="cls-109" x="65.86" y="111.36" width="10.31" height="1.32"/>
            </g>
          </g>
        </g>
      </g>
    </g>
  </g>
</svg>
