<svg xmlns="http://www.w3.org/2000/svg" viewBox="0 0 59.72 63.51">
  <defs>
    <style>
      .cls-1 {
        isolation: isolate;
      }

      .cls-2 {
        fill: #783723;
      }

      .cls-3 {
        fill: #9b472d;
      }

      .cls-4 {
        fill: #a16956;
      }

      .cls-5 {
        fill: #c48e74;
      }

      .cls-6 {
        fill: #7d3722;
      }

      .cls-7 {
        fill: #c94f67;
      }

      .cls-8 {
        fill: #e05873;
      }

      .cls-9 {
        fill: #ffd4dc;
      }

      .cls-11, .cls-9 {
        mix-blend-mode: multiply;
      }

      .cls-10 {
        fill: #fb7383;
      }

      .cls-11 {
        fill: #de92a0;
      }

      .cls-12 {
        fill: #662c1e;
      }

      .cls-13 {
        fill: #4d180b;
      }

      .cls-14 {
        fill: #965b43;
      }

      .cls-15 {
        fill: #c47959;
      }

      .cls-16 {
        fill: #fbb0b8;
      }

      .cls-17 {
        fill: #ffd9dd;
      }

      .cls-18 {
        fill: #fff0f1;
      }

      .cls-19 {
        fill: #cc8e74;
      }

      .cls-20 {
        fill: #ffdfbf;
      }

      .cls-21 {
        fill: #f4dcd0;
      }

      .cls-22 {
        fill: #d9c3b9;
      }
    </style>
  </defs>
  <title>P2_2</title>
  <g class="cls-1">
    <g id="圖層_2" data-name="圖層 2">
      <g id="圖層_1-2" data-name="圖層 1">
        <g>
          <g>
            <path class="cls-2" d="M55.78,39c0,13.51-10.23,24.47-22.85,24.47H25.79c-12.62,0-22.85-11-22.85-24.47V32.62H55.78Z"/>
            <path class="cls-3" d="M58.57,34.7c0,8.65-13.08,15.66-29.21,15.66S.15,43.35.15,34.7,13.23,19,29.36,19,58.57,26,58.57,34.7Z"/>
            <path class="cls-4" d="M25.79,63.51h7.14c10.82,0,19.88-8.06,22.25-18.88-1.46.11-2.74,1.84-3.48,4.43a2.61,2.61,0,0,0-1.89-1c-1.45,0-2.72,1.61-3.5,4.07a3.17,3.17,0,0,0-2.48-1.77c-1.7,0-3.16,2.23-3.87,5.46-.78-2.34-2-3.87-3.43-3.87S33.72,53.67,33,56.28C32.17,53.67,30.86,52,29.36,52c-1.66,0-3.09,2.12-3.82,5.22-.72-3.1-2.16-5.22-3.81-5.22-1.41,0-2.65,1.53-3.44,3.87-.7-3.23-2.17-5.46-3.87-5.46A3.15,3.15,0,0,0,12,52.13c-.78-2.46-2.06-4.07-3.5-4.07a2.61,2.61,0,0,0-1.89,1c-.66-2.3-1.74-3.92-3-4.34C6,55.49,15,63.51,25.79,63.51Z"/>
            <path class="cls-5" d="M11.63,54.37c0,1.23.14,2.23.32,2.23s.32-1,.32-2.23-.14-2.24-.32-2.24S11.63,53.13,11.63,54.37Z"/>
            <path class="cls-5" d="M51.49,50.25c0,.72.15,1.31.33,1.31s.32-.59.32-1.31-.14-1.31-.32-1.31S51.49,49.52,51.49,50.25Z"/>
            <path class="cls-5" d="M6.27,50.25c0,.72.14,1.31.32,1.31s.32-.59.32-1.31-.14-1.31-.32-1.31S6.27,49.52,6.27,50.25Z"/>
            <path class="cls-5" d="M18,58c0,1.24.14,2.24.32,2.24s.32-1,.32-2.24-.14-2.23-.32-2.23S18,56.79,18,58Z"/>
            <path class="cls-5" d="M25.27,59.48a5,5,0,0,0,.32,2.43c.18,0,.33-1.09.33-2.43s-.15-2.43-.33-2.43A5,5,0,0,0,25.27,59.48Z"/>
            <path class="cls-5" d="M39.6,58a5,5,0,0,0,.32,2.43c.18,0,.33-1.08.33-2.43s-.15-2.43-.33-2.43A5,5,0,0,0,39.6,58Z"/>
            <path class="cls-5" d="M46.08,54.37c0,1.34.14,2.43.32,2.43s.32-1.09.32-2.43-.14-2.43-.32-2.43S46.08,53,46.08,54.37Z"/>
            <path class="cls-5" d="M32.64,59c0,1.6.14,2.89.32,2.89s.33-1.29.33-2.89-.15-2.9-.33-2.9S32.64,57.42,32.64,59Z"/>
          </g>
          <path class="cls-6" d="M2.94,39a25.91,25.91,0,0,0,.75,6.22,4.56,4.56,0,0,0,1.64-1.15l.27-.25A10.63,10.63,0,0,0,7,42.41,3.14,3.14,0,0,0,7.2,42c0-.05.06-.12.1-.18a1.67,1.67,0,0,1,.81.62,1.94,1.94,0,0,1,0,.51,5.2,5.2,0,0,0-.05.59,5.9,5.9,0,0,0,.09,1.06c0,.2.06.39.07.58a15.73,15.73,0,0,0,1,4,3.65,3.65,0,0,0,3.49,2.35,3.71,3.71,0,0,0,2.44-.88,8.18,8.18,0,0,0,1.73-2.44c.18-.33.35-.65.52-.93a5.65,5.65,0,0,0,.27-.5,3.26,3.26,0,0,1,.43-.72h.08a1.94,1.94,0,0,1,.85.25,2.53,2.53,0,0,1,.87,1.17l.06.13c.65,1.28,1.19,2.61,1.72,4,.07.17.13.35.2.55.34,1,.8,2.32,1.93,2.82a4.33,4.33,0,0,0,1.69.36A2.1,2.1,0,0,0,27,54.8,5.39,5.39,0,0,0,28.28,52c.07-.32.14-.62.22-.89.16-.5.3-1,.45-1.5.22-.73.44-1.49.69-2.22l0,0,.11,0c0,.14,0,.31-.05.42a3.18,3.18,0,0,0-.05.81,2.26,2.26,0,0,0,2,2.14h.15a2.64,2.64,0,0,0,2.32-2.25,3.77,3.77,0,0,0,.09-1,3.25,3.25,0,0,1,0-.48.86.86,0,0,1,.6-.16,2.66,2.66,0,0,1,.76.12c.37.11.71.58.93.89a2.16,2.16,0,0,0,.46.52,4.47,4.47,0,0,0,2.62.87,4.89,4.89,0,0,0,.66-.05A4.68,4.68,0,0,0,43,47l.36-.47a8.06,8.06,0,0,1,1.85-1.6c.5-.16,1-.34,1.46-.52h.47a1.07,1.07,0,0,1,.94.33,6.85,6.85,0,0,1,1.11,1.92l.13.32A3.89,3.89,0,0,0,51,49.19a1.71,1.71,0,0,0,.67.14,2.18,2.18,0,0,0,1.85-1.39,7.46,7.46,0,0,0,.58-2c.06-.33.11-.64.19-.93a6.93,6.93,0,0,0,.08-2.18,3.54,3.54,0,0,1,.19-2l0-.06c.11-.17.21-.3.28-.39.07.2.12.42.18.65l0,.15a6.62,6.62,0,0,0,.46,1.26A26.39,26.39,0,0,0,55.78,39V32.62H2.94Z"/>
          <path class="cls-7" d="M58.68,29.57a16.1,16.1,0,0,0-1-2.5c-3.15-6.84-14.65-11.91-28.36-11.91-16.1,0-29.15,7-29.21,15.62A8.65,8.65,0,0,0,0,33c0,.62,0,1.24,0,1.86C0,36.4.1,38,.17,39.51c.07,1.7.41,4.7,2.56,5,1,.14,1.66-.73,2.3-1.3a10.47,10.47,0,0,0,1.25-1.33c.19-.25.38-.89.81-.93a2.21,2.21,0,0,1,1.72,1c.32.43.09,1,.08,1.63a13.57,13.57,0,0,0,.16,1.55A15.06,15.06,0,0,0,10,48.92,2.92,2.92,0,0,0,14.55,50a13.46,13.46,0,0,0,2.08-3.17c.31-.49.63-1.51,1.26-1.61a2.6,2.6,0,0,1,1.48.31,3.45,3.45,0,0,1,1.32,1.69c.66,1.31,1.22,2.69,1.75,4,.36.91.7,2.46,1.68,2.9.58.25,1.76.48,2.26,0,.9-.87.95-2.23,1.3-3.37s.76-2.59,1.19-3.87c0-.08.39-.45.49-.45.34,0,.75-.23,1,0,.52.4.12,1.45.16,2s.53,1.41,1.21,1.35c.91-.08,1.34-.79,1.57-1.61.16-.62-.12-1.46.35-1.89a2.4,2.4,0,0,1,2.19-.22c.91.28,1.41,1.38,1.64,1.54a3.54,3.54,0,0,0,2.65.67c1.12-.17,1.92-1.57,2.55-2.36a8.6,8.6,0,0,1,2.16-1.84c.56-.19,1.11-.39,1.64-.59h.07c.84,0,1.49-.1,2.14.58A7.28,7.28,0,0,1,50,46.26c.29.66.66,1.82,1.38,2.14s1.17-.35,1.4-.84a14.27,14.27,0,0,0,.7-2.81c.37-1.37-.41-3.25.4-4.46.2-.3,1-1.64,1.6-.75a4.28,4.28,0,0,1,.48,1.38,8.08,8.08,0,0,0,.62,1.52c.26.56,1.05,1.07,1.62.57.81-.7.66-2.16.91-3.13a14.29,14.29,0,0,0,.64-3.7A39.64,39.64,0,0,0,58.68,29.57Z"/>
          <path class="cls-8" d="M56.56,29.05c0,7.56-12.17,13.68-27.2,13.68S2.16,36.61,2.16,29.05s12.18-13.67,27.2-13.67S56.56,21.5,56.56,29.05Z"/>
          <path class="cls-9" d="M57.72,27.07c-3.15-6.84-14.65-11.91-28.36-11.91a51.91,51.91,0,0,0-11.3,1.22,42.22,42.22,0,0,1,7.18,3.42A30.48,30.48,0,0,1,29,22.93c1.29,1.09,2.6,2.15,3.84,3.29A22.27,22.27,0,0,1,38,33.54c1,2.39,1.59,4.93,2.62,7.3A29.18,29.18,0,0,0,43,45.62a9,9,0,0,1,1.87-1.51c.56-.19,1.11-.39,1.64-.59h.07c.84,0,1.49-.1,2.14.58A7.28,7.28,0,0,1,50,46.26c.29.66.66,1.82,1.38,2.14s1.17-.35,1.4-.84a14.27,14.27,0,0,0,.7-2.81c.37-1.37-.41-3.25.4-4.46.2-.3,1-1.64,1.6-.75a4.28,4.28,0,0,1,.48,1.38,8.08,8.08,0,0,0,.62,1.52c.26.56,1.05,1.07,1.62.57.81-.7.66-2.16.91-3.13a14.29,14.29,0,0,0,.64-3.7,39.64,39.64,0,0,0-1-6.61A16.1,16.1,0,0,0,57.72,27.07Z"/>
          <path class="cls-10" d="M16.37,45.4v-.11a.14.14,0,0,0,0-.06h0a.1.1,0,0,0,0,0h0a.16.16,0,0,0-.08-.06h0l-.07,0h0a.11.11,0,0,0-.08,0h0l0,0a3.23,3.23,0,0,0-.38.45l0,0a.41.41,0,0,1,0,.09,3.91,3.91,0,0,0-.26.44l-.06.1-.44.89a2.93,2.93,0,0,1-.76,1,1.75,1.75,0,0,1-1.28.54c-.51-.08-.87-.57-1.14-1.07a4.2,4.2,0,0,1-.54-1.7,7.77,7.77,0,0,1,0-1,6,6,0,0,0-.18-1c-.16-.65-.25-1.37-.46-2.09a9.12,9.12,0,0,0-.36-1.08,2.8,2.8,0,0,0-.73-1A3.36,3.36,0,0,0,7,38.87a2.59,2.59,0,0,0-1.29.44l-.14.11,0,0,0,0h0l-.06.05-.21.22a4.7,4.7,0,0,0-.44.45c-.29.32-.57.66-.73.65s-.11,0-.21-.11a1.54,1.54,0,0,1-.24-.42,2.17,2.17,0,0,1-.14-.53l-.11-.63c-.06-.22-.12-.45-.19-.68a1.63,1.63,0,0,1-.07-.26A1.42,1.42,0,0,1,3,38c0-.37,0-.79,0-1.24v0c0-.19,0-.07,0-.11v0l0-.06A.55.55,0,0,0,3,36.36a.47.47,0,0,0-.11-.13l-.1-.07a.57.57,0,0,0-.22-.07.62.62,0,0,0-.43.09.58.58,0,0,0-.28.39.5.5,0,0,0,0,.12v.6a4,4,0,0,0,.08,1.4c.12.41.26.82.34,1.19l.08.61c0,.13.08.28.13.4a2.06,2.06,0,0,0,.17.33,2.27,2.27,0,0,0,.22.32,1.56,1.56,0,0,0,.3.27,1.35,1.35,0,0,0,.81.3,1.37,1.37,0,0,0,.4,0,2.45,2.45,0,0,0,.39-.15,2.94,2.94,0,0,0,.58-.44c.32-.32.58-.65.84-.94a3.37,3.37,0,0,1,.4-.37A1.2,1.2,0,0,1,6.71,40l.09,0,.14-.05a2.2,2.2,0,0,1,.51-.09H7.7l.24.06a2.73,2.73,0,0,1,1.39,1.53,6.74,6.74,0,0,1,.36,1c.05.18.07.34.12.54s.08.36.13.54c.08.36.21.72.29,1a6.67,6.67,0,0,1,.09,1,3.07,3.07,0,0,0,.06.52,2.44,2.44,0,0,0,.15.5,8.3,8.3,0,0,0,.39.91A3,3,0,0,0,12.16,49l.4.16a3.21,3.21,0,0,0,.43.07,1.6,1.6,0,0,0,.79-.21,3.21,3.21,0,0,0,1-1,11.7,11.7,0,0,0,.63-1.06,7.06,7.06,0,0,1,.89-1.37l0,0v0l0,0Zm-.36.44,0-.05Z"/>
          <path class="cls-10" d="M6,27.48c0-3,1.54-5.79,4.2-8.14-5,2.47-8.07,5.91-8.07,9.71,0,7.55,12.18,13.68,27.2,13.68.67,0,1.33,0,2,0C17.2,42.14,6,35.54,6,27.48Z"/>
          <path class="cls-11" d="M29.36,15.16C17.72,15.16,7.67,18.82,3,24.1c2.89,2.25,7.2,3.13,10.22,4.63,2.7,1.33,15.4,3.51,15.64,1.32.59-5.2,2.57-9.86,3.73-14.79C31.51,15.2,30.45,15.16,29.36,15.16Z"/>
          <g>
            <path class="cls-12" d="M29.79,1.59c-3.41-2.47-6.44-1.91-9.6.61-3.44,2.73-3.25,7.66-4.66,11.54-2.89-2.36-4.91-5.67-9.64-4.45C1,10.55-.16,15.09,1.1,19.36c1.61,5.49,8.62,6.36,13,8.51,2.7,1.33,15.4,3.51,15.64,1.32C30.39,23.05,33,17.66,34,11.71A11.87,11.87,0,0,0,29.79,1.59Z"/>
            <path class="cls-13" d="M29.79,1.59A10.9,10.9,0,0,0,28.85,1a13.58,13.58,0,0,1,1,6.36c-.87,6.9-3.57,13.09-4.17,20.2-.21,2.54-13.9-.29-16.83-1.91a44.22,44.22,0,0,0-4.4-2c2.86,1.92,6.79,2.79,9.6,4.18s15.4,3.51,15.64,1.32C30.39,23.05,33,17.66,34,11.71A11.87,11.87,0,0,0,29.79,1.59Z"/>
            <path class="cls-14" d="M13.34,16.07A6.29,6.29,0,0,0,12,14.69a2.38,2.38,0,0,0-1.51-1.63,5,5,0,0,0-4.83.9,3.69,3.69,0,0,0,.72,6.43A9.52,9.52,0,0,1,8,21.58a7,7,0,0,0,1.88.86c1.25.46,3.36.75,4.4-.28C16,20.47,14.9,17.73,13.34,16.07Z"/>
            <path class="cls-15" d="M10.1,16.28a3,3,0,0,0-.66-.68,1.15,1.15,0,0,0-.74-.79,2.4,2.4,0,0,0-2.36.44,1.8,1.8,0,0,0,.35,3.14A5,5,0,0,1,7.5,19a3.07,3.07,0,0,0,.92.42,2.24,2.24,0,0,0,2.15-.13C11.4,18.43,10.86,17.09,10.1,16.28Z"/>
          </g>
          <path class="cls-8" d="M32.4,27.27a11.89,11.89,0,0,0-3.11-.76,20.73,20.73,0,0,0-4.4.78,10.87,10.87,0,0,0-2.58,1c-1.47.7-2.25,1.84-3.46,2.78a.5.5,0,0,0-.19.61.69.69,0,0,0,1,.73,9.66,9.66,0,0,1,4.62-.68,10.55,10.55,0,0,0,4.35-.65c1.3-.48,4.09-1.67,4.28-3.22A.66.66,0,0,0,32.4,27.27Z"/>
          <g>
            <path class="cls-11" d="M39.26,30.31c-.38,1.28-2.71,1.72-5.19,1s-4.19-2.37-3.81-3.65,2.7-1.72,5.19-1S39.64,29,39.26,30.31Z"/>
            <path class="cls-16" d="M38.88,29.77c-.39,1.28-2.54,1.76-4.81,1.09s-3.81-2.27-3.43-3.55,2.54-1.77,4.81-1.09S39.26,28.49,38.88,29.77Z"/>
            <path class="cls-17" d="M37.69,29.41c-.31,1.06-2.14,1.44-4.09.86s-3.27-1.91-3-3,2.15-1.43,4.1-.85S38,28.36,37.69,29.41Z"/>
            <path class="cls-18" d="M34.76,28.54c-.15.51-1,.7-2,.42s-1.6-.93-1.45-1.45,1.05-.7,2-.42S34.91,28,34.76,28.54Z"/>
          </g>
          <g>
            <path class="cls-11" d="M31.87,30.78c.63,1.08-.39,2.85-2.28,4s-3.93,1.13-4.57,0,.39-2.85,2.28-4S31.24,29.7,31.87,30.78Z"/>
            <path class="cls-19" d="M31.8,30.8c.56,1-.36,2.54-2.05,3.53s-3.52,1-4.08.07.36-2.53,2-3.52S31.24,29.85,31.8,30.8Z"/>
            <path class="cls-20" d="M30.92,31.32c.46.79-.34,2.11-1.79,3s-3,.91-3.46.12.34-2.11,1.79-3S30.46,30.54,30.92,31.32Z"/>
            <path class="cls-18" d="M28.73,32.6c.23.39-.16,1-.87,1.45s-1.47.44-1.69.06.16-1,.87-1.45S28.51,32.22,28.73,32.6Z"/>
          </g>
          <g>
            <g>
              <path class="cls-21" d="M14.69,32a.38.38,0,0,1-.55,0l-1.9-1.9a.38.38,0,0,1,0-.55.39.39,0,0,1,.55,0l1.9,1.9A.39.39,0,0,1,14.69,32Z"/>
              <path class="cls-22" d="M12.47,29.82a.51.51,0,0,0-.31-.17.38.38,0,0,0,.08.44l1.9,1.9a.38.38,0,0,0,.39.1.41.41,0,0,0-.16-.37Z"/>
            </g>
            <g>
              <path class="cls-21" d="M16.1,35.54a.4.4,0,0,1-.48.28L13,35.13a.39.39,0,1,1,.2-.75l2.6.68A.39.39,0,0,1,16.1,35.54Z"/>
              <path class="cls-22" d="M13.08,34.78a.48.48,0,0,0-.34,0,.37.37,0,0,0,.28.34l2.6.69A.41.41,0,0,0,16,35.7a.43.43,0,0,0-.32-.24Z"/>
            </g>
            <g>
              <path class="cls-21" d="M45.26,34.16a.39.39,0,0,1-.48.28l-2.59-.69a.39.39,0,1,1,.2-.75l2.59.68A.39.39,0,0,1,45.26,34.16Z"/>
              <path class="cls-22" d="M42.25,33.4a.51.51,0,0,0-.35,0,.38.38,0,0,0,.29.34l2.59.69a.4.4,0,0,0,.39-.12c0-.09-.15-.19-.32-.24Z"/>
            </g>
            <g>
              <path class="cls-21" d="M25.21,37.08a.4.4,0,0,1-.28.48l-2.59.69a.39.39,0,0,1-.21-.76l2.6-.69A.4.4,0,0,1,25.21,37.08Z"/>
              <path class="cls-22" d="M22.21,37.91a.54.54,0,0,0-.29.18.39.39,0,0,0,.42.16l2.59-.69a.39.39,0,0,0,.28-.29.42.42,0,0,0-.4-.05Z"/>
            </g>
            <g>
              <path class="cls-21" d="M23.21,32.28a.4.4,0,0,1-.07.55L21,34.5a.39.39,0,0,1-.48-.62l2.11-1.66A.39.39,0,0,1,23.21,32.28Z"/>
              <path class="cls-22" d="M20.78,34.23a.49.49,0,0,0-.19.29.39.39,0,0,0,.44,0l2.11-1.67a.39.39,0,0,0,.14-.37c-.09-.05-.24,0-.39.11Z"/>
            </g>
            <g>
              <path class="cls-21" d="M35.74,33.78a.38.38,0,0,1,.54.13l1.4,2.29a.38.38,0,0,1-.13.53A.39.39,0,0,1,37,36.6l-1.4-2.29A.39.39,0,0,1,35.74,33.78Z"/>
              <path class="cls-22" d="M37.39,36.41a.5.5,0,0,0,.26.23.38.38,0,0,0,0-.44l-1.4-2.29a.41.41,0,0,0-.36-.19.42.42,0,0,0,.07.4Z"/>
            </g>
            <g>
              <path class="cls-21" d="M32.77,22.18a.4.4,0,0,1,.52-.21L35.75,23a.39.39,0,1,1-.3.72L33,22.69A.39.39,0,0,1,32.77,22.18Z"/>
              <path class="cls-22" d="M35.64,23.37a.48.48,0,0,0,.34,0,.37.37,0,0,0-.23-.38L33.29,22a.39.39,0,0,0-.4.06c0,.1.11.21.28.28Z"/>
            </g>
            <g>
              <path class="cls-21" d="M30.46,36.84a.39.39,0,0,1,.52-.2l2.47,1.06a.39.39,0,0,1,.2.51.38.38,0,0,1-.51.2l-2.47-1A.4.4,0,0,1,30.46,36.84Z"/>
              <path class="cls-22" d="M33.33,38a.5.5,0,0,0,.35,0,.38.38,0,0,0-.23-.38L31,36.64a.39.39,0,0,0-.4.06.45.45,0,0,0,.28.28Z"/>
            </g>
            <g>
              <path class="cls-21" d="M42.29,29.12a.39.39,0,0,1,.24-.5l2.53-.9a.39.39,0,0,1,.5.24.4.4,0,0,1-.24.5l-2.53.9A.4.4,0,0,1,42.29,29.12Z"/>
              <path class="cls-22" d="M45.21,28.05a.49.49,0,0,0,.28-.21.39.39,0,0,0-.43-.12l-2.53.9a.39.39,0,0,0-.25.31.41.41,0,0,0,.4,0Z"/>
            </g>
            <g>
              <path class="cls-21" d="M40.12,23.68a.4.4,0,0,1,.42-.37l2.68.16a.39.39,0,0,1,0,.78l-2.68-.16A.4.4,0,0,1,40.12,23.68Z"/>
              <path class="cls-22" d="M43.23,23.83a.49.49,0,0,0,.34-.08.4.4,0,0,0-.35-.28l-2.68-.16a.4.4,0,0,0-.36.19.43.43,0,0,0,.37.17Z"/>
            </g>
          </g>
        </g>
      </g>
    </g>
  </g>
</svg>
