<svg xmlns="http://www.w3.org/2000/svg" xmlns:xlink="http://www.w3.org/1999/xlink" viewBox="0 0 226.61 225">
  <defs>
    <style>
      .cls-1, .cls-5 {
        isolation: isolate;
      }

      .cls-2 {
        fill: #d7736b;
      }

      .cls-3 {
        opacity: 0.5;
      }

      .cls-4 {
        fill: #e0884c;
      }

      .cls-5 {
        font-size: 15.68px;
        font-family: Oswald-Regular, Oswald;
      }

      .cls-5, .cls-75 {
        fill: #fff;
      }

      .cls-6 {
        fill: #d4832c;
      }

      .cls-7 {
        fill: #ffc75c;
      }

      .cls-8 {
        fill: #e3a836;
      }

      .cls-9 {
        fill: url(#linear-gradient);
      }

      .cls-10 {
        fill: url(#linear-gradient-2);
      }

      .cls-11 {
        fill: url(#linear-gradient-3);
      }

      .cls-12 {
        fill: #cc4651;
      }

      .cls-13 {
        fill: #ffe8a3;
      }

      .cls-14 {
        fill: url(#linear-gradient-4);
      }

      .cls-15 {
        fill: #e89030;
      }

      .cls-16 {
        fill: url(#linear-gradient-5);
      }

      .cls-17 {
        fill: url(#linear-gradient-6);
      }

      .cls-18 {
        fill: url(#linear-gradient-7);
      }

      .cls-19 {
        fill: url(#linear-gradient-8);
      }

      .cls-20 {
        fill: url(#linear-gradient-9);
      }

      .cls-21 {
        fill: #ffc7cc;
      }

      .cls-22 {
        fill: #bf662e;
      }

      .cls-23 {
        fill: url(#linear-gradient-10);
      }

      .cls-24 {
        fill: url(#linear-gradient-11);
      }

      .cls-25 {
        fill: url(#linear-gradient-12);
      }

      .cls-26 {
        fill: #7a4231;
      }

      .cls-27 {
        fill: #662d1c;
      }

      .cls-28 {
        fill: #591e0c;
      }

      .cls-29 {
        fill: #9ae48f;
      }

      .cls-30 {
        fill: #ebfea4;
      }

      .cls-31 {
        fill: #8fc4e4;
      }

      .cls-32 {
        fill: #a4effe;
      }

      .cls-33 {
        fill: #ff8581;
      }

      .cls-34 {
        fill: #ffbdb0;
      }

      .cls-35 {
        fill: #fea4be;
      }

      .cls-36 {
        fill: url(#linear-gradient-13);
      }

      .cls-37 {
        fill: url(#linear-gradient-14);
      }

      .cls-38 {
        fill: #ffb8d9;
      }

      .cls-39 {
        fill: #ff9cca;
      }

      .cls-40 {
        fill: #ffdfee;
      }

      .cls-41 {
        fill: #ffc4e0;
      }

      .cls-42 {
        fill: #c4601d;
      }

      .cls-43 {
        fill: #ffef9a;
      }

      .cls-44 {
        fill: #ffe46e;
      }

      .cls-44, .cls-48, .cls-50, .cls-66 {
        mix-blend-mode: multiply;
      }

      .cls-45 {
        fill: #f2cb27;
      }

      .cls-46 {
        fill: #ffe36d;
      }

      .cls-47 {
        fill: #fff2bd;
      }

      .cls-48 {
        fill: #fff1b5;
      }

      .cls-49 {
        fill: #fff6cf;
      }

      .cls-50 {
        fill: #ffcab5;
      }

      .cls-51 {
        fill: #d9730d;
      }

      .cls-52 {
        fill: #fff5cc;
      }

      .cls-53 {
        fill: #377335;
      }

      .cls-54 {
        fill: #489545;
      }

      .cls-55 {
        fill: url(#linear-gradient-15);
      }

      .cls-56 {
        fill: #c22e2b;
      }

      .cls-57 {
        fill: #8c1211;
      }

      .cls-58 {
        fill: #e6a250;
      }

      .cls-59 {
        fill: #f2b0ac;
        opacity: 0.7;
        mix-blend-mode: overlay;
      }

      .cls-60 {
        fill: #fea49b;
      }

      .cls-61 {
        fill: #f5c17d;
      }

      .cls-62 {
        fill: #cc3b41;
      }

      .cls-63 {
        fill: #a21d22;
      }

      .cls-64 {
        fill: #ff9488;
      }

      .cls-65 {
        fill: #ff8c94;
      }

      .cls-66 {
        fill: #d6bdab;
      }

      .cls-67 {
        fill: #85181c;
      }

      .cls-68 {
        fill: #c47269;
      }

      .cls-69 {
        fill: #ffb8bd;
      }

      .cls-70 {
        fill: #ffd6d9;
      }

      .cls-71 {
        fill: #db4d57;
      }

      .cls-72 {
        fill: url(#linear-gradient-16);
      }

      .cls-73 {
        fill: #c7734a;
      }

      .cls-74 {
        fill: #7a3c20;
      }

      .cls-76 {
        fill: #a8a8a8;
      }

      .cls-77 {
        fill: #3c3c3c;
      }

      .cls-78 {
        fill: #30302e;
      }

      .cls-79 {
        fill: #ed8a40;
      }

      .cls-80 {
        fill: #ffb680;
      }

      .cls-81 {
        fill: #606060;
      }

      .cls-82 {
        fill: #d8d8d8;
      }

      .cls-83 {
        fill: #5b9b31;
      }

      .cls-84 {
        fill: #ce5119;
      }

      .cls-85 {
        fill: #a83800;
      }

      .cls-86 {
        fill: #e25c27;
      }

      .cls-87 {
        fill: #8c2b00;
      }

      .cls-88 {
        fill: #fde875;
      }

      .cls-89 {
        fill: #ff6c81;
      }

      .cls-90 {
        fill: #ff364a;
      }

      .cls-91 {
        fill: #fc8c06;
      }

      .cls-92 {
        fill: #545454;
      }

      .cls-93 {
        fill: #e21a37;
      }
    </style>
    <linearGradient id="linear-gradient" x1="43.45" y1="102.47" x2="96.19" y2="102.47" gradientUnits="userSpaceOnUse">
      <stop offset="0" stop-color="#ffc75c"/>
      <stop offset="1" stop-color="#e69133"/>
    </linearGradient>
    <linearGradient id="linear-gradient-2" x1="30.6" y1="96.65" x2="94.73" y2="96.65" gradientUnits="userSpaceOnUse">
      <stop offset="0" stop-color="#f6c4c5"/>
      <stop offset="1" stop-color="#e24a56"/>
    </linearGradient>
    <linearGradient id="linear-gradient-3" x1="30.6" y1="95.87" x2="94.73" y2="95.87" gradientUnits="userSpaceOnUse">
      <stop offset="0" stop-color="#f6a7a9"/>
      <stop offset="1" stop-color="#d12e3b"/>
    </linearGradient>
    <linearGradient id="linear-gradient-4" x1="43.45" y1="83.52" x2="93.81" y2="83.52" xlink:href="#linear-gradient"/>
    <linearGradient id="linear-gradient-5" x1="80.67" y1="75.8" x2="83.5" y2="75.8" gradientUnits="userSpaceOnUse">
      <stop offset="0" stop-color="#d17941"/>
      <stop offset="1" stop-color="#c25b02"/>
    </linearGradient>
    <linearGradient id="linear-gradient-6" x1="84.71" y1="80.79" x2="87.54" y2="80.79" xlink:href="#linear-gradient-5"/>
    <linearGradient id="linear-gradient-7" x1="80.42" y1="85.58" x2="83.26" y2="85.58" xlink:href="#linear-gradient-5"/>
    <linearGradient id="linear-gradient-8" x1="75.41" y1="90.35" x2="78.25" y2="90.35" xlink:href="#linear-gradient-5"/>
    <linearGradient id="linear-gradient-9" x1="84.46" y1="90.58" x2="87.3" y2="90.58" xlink:href="#linear-gradient-5"/>
    <linearGradient id="linear-gradient-10" x1="75.66" y1="173.68" x2="107.4" y2="173.68" gradientTransform="matrix(0.85, -0.53, 0.53, 0.85, -39.75, 39.15)" gradientUnits="userSpaceOnUse">
      <stop offset="0" stop-color="#bf662e"/>
      <stop offset="1" stop-color="#874734"/>
    </linearGradient>
    <linearGradient id="linear-gradient-11" x1="75.98" y1="166.72" x2="106.98" y2="166.72" gradientTransform="matrix(0.85, -0.53, 0.53, 0.85, -39.75, 39.15)" xlink:href="#linear-gradient-5"/>
    <linearGradient id="linear-gradient-12" x1="93.75" y1="186.33" x2="98.6" y2="186.33" gradientTransform="matrix(0.85, -0.53, 0.53, 0.85, -39.75, 39.15)" xlink:href="#linear-gradient-5"/>
    <linearGradient id="linear-gradient-13" x1="135.29" y1="162.2" x2="176.32" y2="162.2" xlink:href="#linear-gradient"/>
    <linearGradient id="linear-gradient-14" x1="135.29" y1="151.63" x2="176.32" y2="151.63" gradientUnits="userSpaceOnUse">
      <stop offset="0" stop-color="#e8aa33"/>
      <stop offset="1" stop-color="#cc7310"/>
    </linearGradient>
    <linearGradient id="linear-gradient-15" x1="804.01" y1="590.9" x2="831.94" y2="590.9" gradientTransform="matrix(-0.65, -0.76, 0.76, -0.65, 124.45, 1128.95)" gradientUnits="userSpaceOnUse">
      <stop offset="0" stop-color="#940f10"/>
      <stop offset="1" stop-color="#d42d26"/>
    </linearGradient>
    <linearGradient id="linear-gradient-16" x1="281.3" y1="-422.71" x2="300.4" y2="-422.71" gradientTransform="translate(552.01 -229.52) rotate(-171.63)" xlink:href="#linear-gradient-15"/>
  </defs>
  <title>資產 1</title>
  <g class="cls-1">
    <g id="圖層_2" data-name="圖層 2">
      <g id="圖層_1-2" data-name="圖層 1">
        <rect class="cls-2" width="225" height="225"/>
        <g class="cls-3">
          <rect class="cls-4" y="180.5" width="225" height="44.5"/>
        </g>
        <text class="cls-5" transform="translate(72.93 209.14)">WITH FRIEND</text>
        <g>
          <g>
            <path class="cls-6" d="M47.79,90.11C41,91.68,27.28,97.53,29.05,111.32s56.2,8.13,61.51,4.24,10.25-23,0-24.74S59.07,87.52,47.79,90.11Z"/>
            <path class="cls-7" d="M48.67,88.7c-6.81,1.56-20.5,7.42-18.73,21.21S84,118,89.32,114.15s11.66-23,1.41-24.74S60,86.11,48.67,88.7Z"/>
            <path class="cls-8" d="M91.69,111.52c4.45-6.54,7.77-20.61-1-22.11C80.48,87.64,60,86.11,48.67,88.7a31.59,31.59,0,0,0-12.39,5.87,15.83,15.83,0,0,0-3.35,12.34C34.64,120.27,83.81,115.37,91.69,111.52Z"/>
            <path class="cls-9" d="M89.32,114.15c5.3-3.89,11.66-23,1.41-24.74S60,86.11,48.67,88.7a33.32,33.32,0,0,0-5.22,1.68c11.6-.56,30.92-.48,33.5,6,2.08,5.23.26,14.18-3,21.26C81.61,116.71,87.69,115.34,89.32,114.15Z"/>
          </g>
          <path class="cls-10" d="M94.39,89l0-.51a1.64,1.64,0,0,1,0-.22c0-.23,0-.46-.08-.69s0-.2-.05-.3-.07-.38-.11-.57,0-.21-.07-.31-.09-.36-.15-.53a1.4,1.4,0,0,0-.09-.29c-.06-.18-.12-.35-.19-.52a2.44,2.44,0,0,0-.1-.24,5.76,5.76,0,0,0-.3-.61.73.73,0,0,0,0-.09,5.89,5.89,0,0,0-.42-.64c0-.06-.09-.11-.13-.16s-.23-.28-.36-.41l-.2-.18a3.73,3.73,0,0,0-.36-.32l-.23-.17c-.13-.09-.27-.17-.41-.25l-.26-.14a3.61,3.61,0,0,0-.49-.21l-.24-.1a6.39,6.39,0,0,0-.81-.21c-2.42-.48-5.46-.94-8.81-1.31-1.68-.19-3.44-.36-5.24-.5s-3.64-.25-5.49-.33c-2.32-.09-4.65-.13-6.92-.09q-.68,0-1.35,0a66.43,66.43,0,0,0-8.79.77c-1.15.18-2.22.41-3.23.67-.32.08-.66.18-1,.29l-.15,0-.09,0h0l-.95.32-.2.08c-.37.13-.74.27-1.13.43l-.17.07a27.39,27.39,0,0,0-8,5h0c-1.69,1.56-4-1-5,1.24-2,3.22-2.36,11.71-1.79,16.75,1.67,14.8,53.22,8.73,58.24,4.55C92.53,106.52,95.82,95.93,94.39,89Z"/>
          <path class="cls-11" d="M94.39,89l0-.51a1.64,1.64,0,0,1,0-.22c0-.23,0-.46-.08-.69s0-.2-.05-.3-.07-.38-.11-.57,0-.21-.07-.31-.09-.36-.15-.53a1.4,1.4,0,0,0-.09-.29c-.06-.18-.12-.35-.19-.52a2.44,2.44,0,0,0-.1-.24,5.76,5.76,0,0,0-.3-.61.73.73,0,0,0,0-.09,5.89,5.89,0,0,0-.42-.64c0-.06-.09-.11-.13-.16s-.23-.28-.36-.41l-.2-.18a3.73,3.73,0,0,0-.36-.32l-.23-.17c-.13-.09-.27-.17-.41-.25l-.26-.14a3.61,3.61,0,0,0-.49-.21l-.24-.1a6.39,6.39,0,0,0-.81-.21c-2.42-.48-5.46-.94-8.81-1.31-1.68-.19-3.44-.36-5.24-.5s-3.64-.25-5.49-.33c-2.32-.09-4.65-.13-6.92-.09q-.68,0-1.35,0a66.43,66.43,0,0,0-8.79.77c-1.15.18-2.22.41-3.23.67-.32.08-.66.18-1,.29l-.15,0-.09,0h0l-.95.32-.2.08c-.37.13-.74.27-1.13.43l-.17.07a27.39,27.39,0,0,0-8,5h0c-1.69,1.56-4-1-5,1.24-1.38,2.25-2,7-2,11.47a35.74,35.74,0,0,0,12.73,4.12c8.14,1.17,17.3-.73,25.06,2.22a20.4,20.4,0,0,1,8.72,6.78c6.06-1,10.64-2.18,12-3.29C92.53,106.52,95.82,95.93,94.39,89Z"/>
          <path class="cls-12" d="M94.39,89l0-.51a1.64,1.64,0,0,1,0-.22c0-.23,0-.46-.08-.69s0-.2-.05-.3-.07-.38-.11-.57,0-.21-.07-.31-.09-.36-.15-.53a1.4,1.4,0,0,0-.09-.29c-.06-.18-.12-.35-.19-.52a2.44,2.44,0,0,0-.1-.24,5.76,5.76,0,0,0-.3-.61.73.73,0,0,0,0-.09,5.89,5.89,0,0,0-.42-.64c0-.06-.09-.11-.13-.16s-.23-.28-.36-.41l-.2-.18a3.73,3.73,0,0,0-.36-.32l-.23-.17c-.13-.09-.27-.17-.41-.25l-.26-.14a3.61,3.61,0,0,0-.49-.21l-.24-.1a6.39,6.39,0,0,0-.81-.21c-2.42-.48-5.46-.94-8.81-1.31-1.68-.19-3.44-.36-5.24-.5s-3.64-.25-5.49-.33c-2.32-.09-4.65-.13-6.92-.09q-.68,0-1.35,0a66.43,66.43,0,0,0-8.79.77c-1.15.18-2.22.41-3.23.67-.32.08-.66.18-1,.29l-.15,0-.09,0h0l-.95.32-.2.08c-.37.13-.74.27-1.13.43l-.17.07a27.39,27.39,0,0,0-8,5h0c-1.69,1.56-4-1-5,1.24-1.12,1.81-1.72,5.29-1.94,8.89,9.37,9.59,55,4.58,59.87,1,1.53-1.12,3-3.52,4.15-6.4A18,18,0,0,0,94.39,89Z"/>
          <g>
            <path class="cls-6" d="M47.79,71.37C41,72.94,27.28,78.19,29.05,92s56.2,8.13,61.51,4.24,7.2-21.75-3-23.52S59.07,68.78,47.79,71.37Z"/>
            <path class="cls-7" d="M48.67,70c-6.81,1.56-20.5,6.81-18.73,20.6S84,98.69,89.32,94.8s7.21-22-1.63-23.52C77.43,69.53,60,67.37,48.67,70Z"/>
            <path class="cls-13" d="M33.93,84.94a40,40,0,0,1,.94,4.46l.08.5c0,.17,0,.34.08.35s.08-.1,0-.34-.19-.4-.17-.41.17.09.27.16l.35.2c.23.15.48.27.72.4,1,.52,2.07,1,3.31,1.61a25.44,25.44,0,0,1,4,2.24l.06,0a.13.13,0,0,1,0,.18.13.13,0,0,1-.1.06,25.27,25.27,0,0,1-4.42-.3,14.47,14.47,0,0,1-4.26-1.34A10.7,10.7,0,0,1,33,91.45a1.75,1.75,0,0,1-.38-.53,1.82,1.82,0,0,1-.11-.63c0-.41.06-.76.1-1.13A17.9,17.9,0,0,1,33,87a19.33,19.33,0,0,1,.67-2.12.12.12,0,0,1,.16-.07.11.11,0,0,1,.08.08Z"/>
            <path class="cls-14" d="M89.32,94.8c5.3-3.89,7.21-22-1.63-23.52C77.43,69.53,60,67.37,48.67,70a33.32,33.32,0,0,0-5.22,1.68C55.05,71.08,74.37,70.55,77,77c2.08,5.24.26,14.18-3,21.26C81.61,97.36,87.69,96,89.32,94.8Z"/>
            <g>
              <g>
                <path class="cls-15" d="M49.26,75a1.42,1.42,0,1,1-1.38-1.45A1.42,1.42,0,0,1,49.26,75Z"/>
                <path class="cls-15" d="M57.82,75.19a1.42,1.42,0,1,1-1.38-1.45A1.42,1.42,0,0,1,57.82,75.19Z"/>
                <path class="cls-15" d="M66.38,75.4A1.42,1.42,0,1,1,65,74,1.42,1.42,0,0,1,66.38,75.4Z"/>
                <path class="cls-15" d="M74.94,75.62a1.42,1.42,0,1,1-1.38-1.46A1.42,1.42,0,0,1,74.94,75.62Z"/>
                <path class="cls-16" d="M83.5,75.83a1.42,1.42,0,1,1-1.38-1.45A1.42,1.42,0,0,1,83.5,75.83Z"/>
              </g>
              <g>
                <path class="cls-15" d="M44.24,79.75a1.42,1.42,0,1,1-1.38-1.45A1.42,1.42,0,0,1,44.24,79.75Z"/>
                <path class="cls-15" d="M52.81,80a1.42,1.42,0,1,1-1.39-1.45A1.43,1.43,0,0,1,52.81,80Z"/>
                <path class="cls-15" d="M61.37,80.18A1.42,1.42,0,1,1,60,78.72,1.42,1.42,0,0,1,61.37,80.18Z"/>
                <path class="cls-15" d="M69.93,80.39a1.42,1.42,0,1,1-1.38-1.45A1.42,1.42,0,0,1,69.93,80.39Z"/>
                <path class="cls-15" d="M78.49,80.6a1.42,1.42,0,1,1-1.38-1.45A1.42,1.42,0,0,1,78.49,80.6Z"/>
                <path class="cls-17" d="M87.54,80.83a1.42,1.42,0,1,1-1.38-1.46A1.42,1.42,0,0,1,87.54,80.83Z"/>
              </g>
              <g>
                <path class="cls-15" d="M49,84.76a1.42,1.42,0,1,1-1.39-1.45A1.42,1.42,0,0,1,49,84.76Z"/>
                <path class="cls-15" d="M57.58,85a1.42,1.42,0,1,1-1.39-1.46A1.42,1.42,0,0,1,57.58,85Z"/>
                <path class="cls-15" d="M66.14,85.19a1.42,1.42,0,1,1-1.38-1.45A1.42,1.42,0,0,1,66.14,85.19Z"/>
                <path class="cls-15" d="M74.7,85.4A1.42,1.42,0,1,1,73.32,84,1.42,1.42,0,0,1,74.7,85.4Z"/>
                <path class="cls-18" d="M83.26,85.62a1.42,1.42,0,1,1-1.38-1.46A1.42,1.42,0,0,1,83.26,85.62Z"/>
              </g>
              <g>
                <path class="cls-15" d="M44,89.54a1.42,1.42,0,1,1-1.38-1.46A1.42,1.42,0,0,1,44,89.54Z"/>
                <path class="cls-15" d="M52.56,89.75a1.42,1.42,0,1,1-1.38-1.45A1.42,1.42,0,0,1,52.56,89.75Z"/>
                <path class="cls-15" d="M61.12,90a1.42,1.42,0,1,1-1.38-1.45A1.42,1.42,0,0,1,61.12,90Z"/>
                <path class="cls-15" d="M69.68,90.17a1.42,1.42,0,1,1-1.38-1.45A1.41,1.41,0,0,1,69.68,90.17Z"/>
                <path class="cls-19" d="M78.25,90.39a1.42,1.42,0,1,1-1.39-1.46A1.42,1.42,0,0,1,78.25,90.39Z"/>
                <path class="cls-20" d="M87.3,90.61a1.42,1.42,0,1,1-1.38-1.45A1.42,1.42,0,0,1,87.3,90.61Z"/>
              </g>
            </g>
          </g>
          <path class="cls-21" d="M46.94,106.46a7,7,0,0,0-4.86-2.83c-1.54-.28-3.92-.61-5.37.13a1.11,1.11,0,0,0-.48.3l0,0a1.94,1.94,0,0,0-.69,1.18c-.81,2.44,2.25,4.72,5.23,5.36,1.71.36,4.32.89,5.72-.26A3,3,0,0,0,46.94,106.46Z"/>
        </g>
        <g>
          <g>
            <path class="cls-22" d="M119.12,120.12l-13.45,8.44c27.23,29.37,32.6,28.49,35.48,26.68s6-6.26-8.59-43.56Z"/>
            <path class="cls-15" d="M123.33,117.48l-1.44,7.59-7.46-2-7.14,4.48-.43,2.29c1,1,1.88,2,2.77,2.95l1.37-7.25,10.28,2.77-2,10.46L114,137.34c2.78,2.83,5.27,5.26,7.49,7.32l.34-1.81,10.28,2.77-1.29,6.84a32.81,32.81,0,0,0,3,1.9l1.49-7.89,8.25,2.23a30.67,30.67,0,0,0-.37-3.49l-7.27-2,2-10.47,2.41.65c-.36-1.17-.75-2.4-1.18-3.71l-.62-.16.21-1.08q-1-2.88-2.16-6.2l-1.22,6.42-10.28-2.77,2-10.46,7.78,2.1q-.69-1.83-1.44-3.78l-2.92-.79Zm11.4,14.45-2,10.46-10.28-2.77,2-10.46Z"/>
            <path class="cls-23" d="M132.56,111.68l-13.44,8.44-13.45,8.44,3.1,3.31c4.37-.11,10.2-4,18.53-2.87,4.31.56,10.94,17.64,14.86,25.43C144.53,151.91,145.43,144.55,132.56,111.68Z"/>
            <g>
              <path class="cls-24" d="M107.1,130.09l.48.51,1,1.11.16.16a9.53,9.53,0,0,0,1-.09l1.18-6.25,10.28,2.77-.13.72a23.8,23.8,0,0,1,6.15,0,4.3,4.3,0,0,1,2.34,1.56l5.09,1.37-.94,5c.81,1.51,1.63,3.14,2.43,4.81l1.68-8.95,2.41.65c-.36-1.17-.75-2.4-1.18-3.71l-.62-.16.21-1.08q-1-2.88-2.16-6.2l-1.22,6.42-10.28-2.77,2-10.46,7.78,2.1c-.46-1.22-.94-2.47-1.44-3.77h0l-2.92-.79-7.13,4.48-1.44,7.59-7.46-2-7.14,4.48-.43,2.29Z"/>
              <path class="cls-25" d="M143.57,148.69a30.29,30.29,0,0,0-.37-3.48l-6.12-1.65c.61,1.3,1.21,2.61,1.79,3.87l4.7,1.27Z"/>
            </g>
          </g>
          <g>
            <path class="cls-26" d="M126.71,94.22a20.82,20.82,0,0,0-35.27,22.12A21,21,0,0,0,95,120.63c4.8,6.43,10.55,15.79,14.64,16.41,1.8.27,3-2.32,2.09-5.66-2-6.85,7.32,2.4,13.15.58s-.79-12.38,2.13-14.21,6.93,4.35,9.24-1.07c1.38-3.23-4.07-11.74-7.42-18A20.75,20.75,0,0,0,126.71,94.22Z"/>
            <path class="cls-27" d="M126.71,94.22a20.84,20.84,0,0,0-33.37-2.58,25.17,25.17,0,0,1,12.08,15A23.16,23.16,0,0,1,100.35,128c3.33,4.55,6.66,8.6,9.3,9,1.8.27,3-2.32,2.09-5.66-2-6.85,7.32,2.4,13.15.58s-.79-12.38,2.13-14.21,6.93,4.35,9.24-1.07c1.38-3.23-4.07-11.74-7.42-18A20.75,20.75,0,0,0,126.71,94.22Z"/>
            <path class="cls-28" d="M136.26,116.68c1.38-3.23-4.07-11.74-7.42-18a20.85,20.85,0,0,0-28.22-12.46c13.18,6.31,26.22,16.57,28.36,31.24C131.52,118.06,134.44,120.94,136.26,116.68Z"/>
          </g>
          <g>
            <path class="cls-29" d="M88.63,92.66c2.23.2,3.8,2.89,3.51,6s-2.32,5.47-4.55,5.26-3.8-2.89-3.51-6S86.4,92.45,88.63,92.66Z"/>
            <path class="cls-30" d="M85.1,98c.27-2.87,2-5.09,4-5.26a2.3,2.3,0,0,0-.51-.1c-2.23-.21-4.27,2.15-4.55,5.27s1.29,5.8,3.51,6a3,3,0,0,0,.52,0C86.16,103.39,84.84,100.89,85.1,98Z"/>
          </g>
          <g>
            <path class="cls-31" d="M118.12,85.69c-.35,2.49-3.45,4.11-6.92,3.62s-6-2.89-5.67-5.38,3.45-4.11,6.93-3.62S118.47,83.2,118.12,85.69Z"/>
            <path class="cls-32" d="M112.3,81.45c3.2.45,5.6,2.53,5.68,4.8a3.53,3.53,0,0,0,.14-.56c.35-2.49-2.19-4.9-5.66-5.38s-6.58,1.13-6.93,3.62a3.75,3.75,0,0,0,0,.58C106.21,82.35,109.09,81,112.3,81.45Z"/>
          </g>
          <g>
            <path class="cls-33" d="M100,100.28c2.34.91,3.22,4.29,2,7.57s-4.17,5.2-6.52,4.3-3.22-4.29-2-7.56S97.69,99.38,100,100.28Z"/>
            <path class="cls-34" d="M94.59,105c1.16-3,3.73-4.89,6-4.46-.17-.09-.34-.18-.52-.26-2.34-.9-5.26,1-6.52,4.31s-.38,6.66,2,7.56a3.56,3.56,0,0,0,.56.15C94.09,111.13,93.43,108,94.59,105Z"/>
          </g>
          <g>
            <path class="cls-35" d="M101.7,95.49c-.11.45-1.29.56-2.65.25s-2.37-.93-2.27-1.38,1.29-.56,2.65-.25S101.8,95,101.7,95.49Z"/>
            <path class="cls-35" d="M124.17,104c-.11.45-1.29.56-2.65.25s-2.37-.93-2.27-1.38,1.29-.57,2.65-.26S124.27,103.55,124.17,104Z"/>
            <path class="cls-35" d="M113.11,99.45c.47,0,.88,1.09.94,2.48s-.29,2.54-.75,2.55-.88-1.09-.93-2.48S112.65,99.46,113.11,99.45Z"/>
            <path class="cls-32" d="M123.09,92.74c.32.34-.25,1.38-1.27,2.33s-2.1,1.44-2.41,1.11.25-1.39,1.27-2.34S122.77,92.4,123.09,92.74Z"/>
            <path class="cls-32" d="M105.77,110.52c.28-.37,1.41,0,2.51.87s1.77,1.83,1.49,2.2-1.41,0-2.51-.87S105.49,110.89,105.77,110.52Z"/>
            <path class="cls-7" d="M108.21,94.45c.42.19.29,1.37-.3,2.64s-1.39,2.13-1.81,1.93-.29-1.37.29-2.64S107.78,94.25,108.21,94.45Z"/>
            <path class="cls-7" d="M100.34,116.72c.39-.25,1.31.51,2,1.68s1,2.34.63,2.59-1.31-.51-2-1.69S100,117,100.34,116.72Z"/>
          </g>
        </g>
        <g>
          <g>
            <g>
              <path class="cls-7" d="M135.29,146.67l6.51,25.56c0,3.51,6.56,6.35,14.66,6.35s14.65-2.84,14.65-6.35l5.21-25.56Z"/>
              <path class="cls-36" d="M171.11,172.23l5.21-25.56h-41l1.05,4.15c3.27,3.33,12.88,6.92,22.4,6.92,5.52,0,5.64,11.8,5,20C168.17,176.63,171.11,174.58,171.11,172.23Z"/>
            </g>
            <path class="cls-37" d="M176.32,146.67h-41l2,7.85a32.87,32.87,0,0,0,4.41-.19,16.14,16.14,0,0,0,.41,2.22,30.3,30.3,0,0,0,8.9-.87s0,.08,0,.12a27.26,27.26,0,0,0,10.93-.33,7.23,7.23,0,0,0,3.47.52,29.29,29.29,0,0,0,9.43-2.08Z"/>
          </g>
          <g>
            <path class="cls-38" d="M157.32,124.31c-9.73-11-2.76-15.12-2.76-15.12l-.11,0c-.09-.07-.9-.5-4.65,1.79-4,2.45,1.09,8.7.29,10.15s-3.19,1.55-6.45,1.06-8.71,4.94-5.5,10c4.09,6.49,16.13,7.88,18.63,8.17h0l.38,0h.09l.06,0h0S167.05,135.28,157.32,124.31Z"/>
            <path class="cls-39" d="M161.92,121.65c-12.6-7.29-7.52-13.7-7.52-13.71l-.1.06c-.1,0-1-.17-3.71,3.34-2.92,3.76,3.87,8.06,3.61,9.74s-2.45,2.6-5.62,3.24-8.76,6.61-1.79,11.62c6.2,4.47,17.5,2.09,19.91,1.52h0l.36-.09h0l.06,0,.05-.05h0S174.52,128.94,161.92,121.65Z"/>
            <g>
              <path class="cls-40" d="M155.31,106.07s-4.55,7.74,10.75,13.48,8.63,15.91,8.63,15.91-14.33,6.11-23,1.88-3.42-11.56,0-12.78,5.7-2.57,5.7-4.42-8.3-5.34-5.7-9.87S155.31,106.07,155.31,106.07Z"/>
              <path class="cls-41" d="M151.81,137.26c8.63,4.23,23-1.88,23-1.88s6.68-10.17-8.63-15.91S155.39,106,155.39,106s-6.33,4.54,7,16.38c4.93,4.38-13.33,4.14-13.16,13.2A11.3,11.3,0,0,0,151.81,137.26Z"/>
              <path class="cls-38" d="M167.82,120.28c.08.16,6.29,12.89-7.46,18.52h0a47.23,47.23,0,0,0,14.33-3.34S180.82,126.11,167.82,120.28Z"/>
            </g>
            <path class="cls-40" d="M158.35,129.53c-5.55-3-22.86-7.68-23.42,8.71,0,0,16.8,15.5,25.74-2.05C160.67,136.19,164,132.6,158.35,129.53Z"/>
            <path class="cls-41" d="M165.62,154.69c6.32-.32,22.27-3.69,14.14-17.95,0,0-21.2-6.14-19.61,13.5C160.15,150.24,159.24,155,165.62,154.69Z"/>
            <path class="cls-38" d="M160.44,131c-1.88-1.62-8.79,1.15-8.79,1.15s-24.1-.22-20,16.75c0,0,18.26,2.45,28.13-13.75h0C161.76,132.34,161.56,131.25,160.44,131Z"/>
            <path class="cls-39" d="M162.9,129.08s-24.05,1.64-18.67,18.25c0,0,18.39,1,27-15.88h0C173,128.45,162.9,129.08,162.9,129.08Z"/>
            <path class="cls-38" d="M175.26,131.32c-6.26-.91-24.1.79-18.89,16.34,0,0,21.15,8.66,23.39-10.92C179.76,136.74,181.58,132.23,175.26,131.32Z"/>
            <g>
              <path class="cls-40" d="M154,139.14s-23.76-4-22.41,13.39a34.65,34.65,0,0,0,29.95-9.14C172.51,133.07,154,139.14,154,139.14Z"/>
              <path class="cls-39" d="M161.54,143.39c6.94-7.16,5.39-6,1.52-5.2a34.52,34.52,0,0,1-7.72,2.28s-18-2.08-23.75,12.06A32.32,32.32,0,0,0,161.54,143.39Z"/>
            </g>
            <g>
              <path class="cls-40" d="M162.18,138.31s-24.11,0-19.87,16.94a197,197,0,0,0,28-14C180,135.52,162.18,138.31,162.18,138.31Z"/>
              <path class="cls-41" d="M170.32,141.24c5.64-8.21-6.61-1.84-6.61-1.84s-18.12.95-21.4,15.85A32.31,32.31,0,0,0,170.32,141.24Z"/>
            </g>
            <g>
              <path class="cls-40" d="M172.19,137.18s-24-1.5-21,17.32a28.71,28.71,0,0,0,28.89-13.6C185.64,132.08,172.19,137.18,172.19,137.18Z"/>
              <path class="cls-39" d="M180.11,140.9c5.65-9-6.46-2.43-6.46-2.43s-18.13-.09-22.43,16C151.22,154.5,169,158.53,180.11,140.9Z"/>
            </g>
          </g>
          <g>
            <g>
              <path class="cls-7" d="M144.87,128.58a2.5,2.5,0,1,1-1.25-3.3A2.49,2.49,0,0,1,144.87,128.58Z"/>
              <path class="cls-13" d="M143,125.1a2.48,2.48,0,1,0,.67,2.92A2.48,2.48,0,0,0,143,125.1Z"/>
            </g>
            <g>
              <path class="cls-7" d="M155.73,123.21a2.5,2.5,0,1,1-1.25-3.3A2.51,2.51,0,0,1,155.73,123.21Z"/>
              <path class="cls-13" d="M153.81,119.72a2.48,2.48,0,1,0,.67,2.93A2.51,2.51,0,0,0,153.81,119.72Z"/>
            </g>
            <g>
              <path class="cls-7" d="M159.71,115.79a2.5,2.5,0,1,1-1.24-3.3A2.49,2.49,0,0,1,159.71,115.79Z"/>
              <path class="cls-13" d="M157.8,112.31a2.48,2.48,0,1,0,.66,2.92A2.49,2.49,0,0,0,157.8,112.31Z"/>
            </g>
            <g>
              <circle class="cls-7" cx="166.2" cy="124.1" r="2.5"/>
              <path class="cls-13" d="M166.56,121.64a2.49,2.49,0,1,0,.66,2.93A2.52,2.52,0,0,0,166.56,121.64Z"/>
            </g>
            <g>
              <path class="cls-7" d="M159,134.49a2.5,2.5,0,1,1-1.25-3.3A2.5,2.5,0,0,1,159,134.49Z"/>
              <path class="cls-13" d="M157.1,131a2.48,2.48,0,1,0,.67,2.92A2.48,2.48,0,0,0,157.1,131Z"/>
            </g>
            <g>
              <path class="cls-7" d="M138.91,139.21a2.5,2.5,0,1,1-1.25-3.3A2.49,2.49,0,0,1,138.91,139.21Z"/>
              <path class="cls-13" d="M137,135.73a2.48,2.48,0,1,0,.67,2.92A2.48,2.48,0,0,0,137,135.73Z"/>
            </g>
            <g>
              <path class="cls-7" d="M175.47,136.74a2.49,2.49,0,1,1-1.24-3.3A2.49,2.49,0,0,1,175.47,136.74Z"/>
              <path class="cls-13" d="M173.56,133.25a2.48,2.48,0,1,0,.67,2.93A2.51,2.51,0,0,0,173.56,133.25Z"/>
            </g>
            <g>
              <path class="cls-7" d="M151.64,142.45a2.5,2.5,0,1,1-1.25-3.31A2.5,2.5,0,0,1,151.64,142.45Z"/>
              <path class="cls-13" d="M149.72,139a2.48,2.48,0,1,0,.67,2.92A2.48,2.48,0,0,0,149.72,139Z"/>
            </g>
            <g>
              <path class="cls-7" d="M165,143.15a2.5,2.5,0,1,1-1.25-3.3A2.49,2.49,0,0,1,165,143.15Z"/>
              <path class="cls-13" d="M163.08,139.67a2.48,2.48,0,1,0,.67,2.92A2.48,2.48,0,0,0,163.08,139.67Z"/>
            </g>
          </g>
        </g>
        <g>
          <g>
            <path class="cls-42" d="M7.26,157.91v7.28c2.38,7.29,14,12.83,27.88,12.83s25.5-5.54,27.88-12.83v-7.35Z"/>
            <path class="cls-43" d="M7.25,139.52v20.74c2.38,7.29,14,12.83,27.88,12.83s25.5-5.54,27.88-12.83V139.52Z"/>
            <path class="cls-44" d="M63,165.19V139.52H45.44c-1,1-3,1.93-3,3.76,0,11.1-.41,23.06.09,34.21C53,175.94,61.08,171.15,63,165.19Z"/>
            <path class="cls-45" d="M6.81,132l.45,7.7c2.38,7.3,14,12.83,27.88,12.83S60.64,147,63,139.72l.45-7.7Z"/>
            <path class="cls-46" d="M63.47,132c0,8.62-12.68,15.6-28.33,15.6s-28.33-7-28.33-15.6,12.68-15.59,28.33-15.59S63.47,123.41,63.47,132Z"/>
            <path class="cls-47" d="M63.47,132c0,7.48-11.84,13.53-26.45,13.53S10.56,139.5,10.56,132,22.41,118.49,37,118.49,63.47,124.55,63.47,132Z"/>
            <path class="cls-48" d="M63,139.82A7,7,0,0,0,63,139c0-7.47-12.49-13.53-27.89-13.53S7.25,131.55,7.25,139a7,7,0,0,0,0,.8c2.44,7.24,14,12.73,27.84,12.73S60.53,147.07,63,139.82Z"/>
            <path class="cls-49" d="M25.87,155.79A4,4,0,0,0,23.55,152a8.52,8.52,0,0,0-3.27-1.13c-1.66-.33-2.44-1-4-1.45-3.94-1.14-6.25,2.9-5.27,5.88a4.41,4.41,0,0,0,0,.52c0,2-.35,3.92,0,5.7a6.28,6.28,0,0,0,.53,3.76c1.4,2.39,4.71,3.49,7.21,4.16C26.54,171.49,25.87,160.56,25.87,155.79Z"/>
            <path class="cls-45" d="M52.22,132.76c0,3.46-7.59,6.26-16.94,6.26s-16.94-2.8-16.94-6.26,7.58-6.26,16.94-6.26S52.22,129.3,52.22,132.76Z"/>
            <path class="cls-50" d="M63.4,134.26c0,4.28-9.39,7.76-21,7.76s-21-3.48-21-7.76,9.39-7.76,21-7.76S63.4,130,63.4,134.26Z"/>
            <path class="cls-51" d="M47.72,131.94c-4.17,3.61-11.85,4.82-18,5.16a7.68,7.68,0,0,1-8-6.21c-.26,9,13.73,7.59,19.19,7.34,3.64-.16,7.83-2.38,9.6-5.71a12.17,12.17,0,0,0,1.16-5.42A16.08,16.08,0,0,1,47.72,131.94Z"/>
            <path class="cls-52" d="M35.14,146.43s-.52,0-1.44.1c-.45,0-1,0-1.65,0H31l-1.13-.05a38.5,38.5,0,0,1-5.36-.68c-1-.21-2-.42-3-.73s-2-.64-3-1-1.94-.86-2.87-1.35a25.16,25.16,0,0,1-2.61-1.65,17.68,17.68,0,0,1-2.17-1.92,13.14,13.14,0,0,1-1.6-2.05,10.09,10.09,0,0,1-.94-2,9,9,0,0,1-.24-.88c-.05-.28-.1-.53-.13-.76a6.92,6.92,0,0,1,0-1.07c0-.25,0-.38,0-.38s0,.13.05.38a8.44,8.44,0,0,0,.19,1c.07.22.15.45.23.71s.2.52.33.8a11.76,11.76,0,0,0,1.08,1.78,15.18,15.18,0,0,0,1.66,1.8,19,19,0,0,0,2.16,1.69c.79.54,1.65,1,2.53,1.5s1.83.88,2.78,1.26,1.92.74,2.89,1,1.93.57,2.86.81,1.86.43,2.73.59,1.71.31,2.47.43,1.48.21,2.11.28l1.64.19Z"/>
          </g>
          <g>
            <g>
              <path class="cls-53" d="M46,113.1c3.16-2.73,4.85-6,3.78-7.19s-4.5,0-7.66,2.71-4.85,5.95-3.78,7.19S42.88,115.83,46,113.1Z"/>
              <path class="cls-53" d="M49.64,118.92c3.61-2.11,5.86-5,5-6.38s-4.42-.85-8,1.26-5.86,5-5,6.38S46,121,49.64,118.92Z"/>
              <path class="cls-54" d="M49.52,115c3.16-2.74,4.85-6,3.78-7.2s-4.5,0-7.66,2.72-4.85,6-3.78,7.19S46.36,117.69,49.52,115Z"/>
              <path class="cls-54" d="M51.87,120.65c3.73-1.89,6.15-4.61,5.41-6.07s-4.36-1.11-8.09.78S43,120,43.79,121.43,48.15,122.54,51.87,120.65Z"/>
              <path class="cls-54" d="M40.47,107.47c2.4-3.42,5.44-5.43,6.78-4.48s.47,4.47-1.94,7.89-5.44,5.42-6.78,4.48S38.06,110.88,40.47,107.47Z"/>
            </g>
            <g>
              <path class="cls-55" d="M29.43,110.82c7.68-6.65,13.78-3.65,18.83,2.18s7.14,12.3-.54,18.94c-4.17,3.61-11.85,4.82-18,5.16a7.68,7.68,0,0,1-8-9.2C23,121.86,25.26,114.43,29.43,110.82Z"/>
              <path class="cls-56" d="M30.17,110.18c5.61-4.85,10.06-2.66,13.74,1.6s5.22,9-.39,13.83c-3.05,2.63-8.65,3.51-13.15,3.76a5.61,5.61,0,0,1-5.81-6.72C25.45,118.25,27.12,112.82,30.17,110.18Z"/>
              <g>
                <path class="cls-57" d="M45.36,125a.91.91,0,0,1-.14-1,3.28,3.28,0,0,1,.82-1.31c1.07-.92,1.79-.25,2,0s.75,1-.31,2a3.25,3.25,0,0,1-1.41.63A.93.93,0,0,1,45.36,125Z"/>
                <path class="cls-57" d="M41.8,129.74a1,1,0,0,1-.14-1,3.31,3.31,0,0,1,.83-1.3,1.28,1.28,0,0,1,2,0,1.29,1.29,0,0,1-.3,2,3.42,3.42,0,0,1-1.42.63A1,1,0,0,1,41.8,129.74Z"/>
                <path class="cls-57" d="M40.53,124.12a1,1,0,0,1-.14-1,3.56,3.56,0,0,1,.83-1.31,1.3,1.3,0,1,1,1.68,2,3.37,3.37,0,0,1-1.41.63A1,1,0,0,1,40.53,124.12Z"/>
                <path class="cls-57" d="M41.47,118a1,1,0,0,1-.14-1,3.29,3.29,0,0,1,.83-1.31,1.3,1.3,0,1,1,1.68,1.94,3.31,3.31,0,0,1-1.41.64A1,1,0,0,1,41.47,118Z"/>
                <path class="cls-57" d="M36.48,113.55a.93.93,0,0,1-.14-1,3.18,3.18,0,0,1,.83-1.31c1.06-.92,1.79-.25,2,0s.76,1-.3,2a3.18,3.18,0,0,1-1.42.63A.94.94,0,0,1,36.48,113.55Z"/>
                <path class="cls-57" d="M35.78,123.46a.93.93,0,0,1-.14-1,3.18,3.18,0,0,1,.83-1.31c1.06-.92,1.79-.25,2,0s.76,1-.3,2a3.3,3.3,0,0,1-1.42.63A.94.94,0,0,1,35.78,123.46Z"/>
                <path class="cls-57" d="M35.37,130.49a.93.93,0,0,1-.14-1,3.18,3.18,0,0,1,.83-1.31c1.06-.93,1.78-.25,2,0s.76,1-.3,2a3.48,3.48,0,0,1-1.42.63A.93.93,0,0,1,35.37,130.49Z"/>
                <path class="cls-57" d="M29.57,132.49a1,1,0,0,1,.12-1,3.24,3.24,0,0,1,1.13-1.06c1.26-.62,1.79.21,1.92.48s.47,1.2-.79,1.83a3.33,3.33,0,0,1-1.53.25A.94.94,0,0,1,29.57,132.49Z"/>
                <path class="cls-57" d="M26.49,128.52a1,1,0,0,0,1,0,3.23,3.23,0,0,0,1.2-1,1.28,1.28,0,0,0-.19-2c-.25-.17-1.12-.64-1.92.52a3.19,3.19,0,0,0-.47,1.48A.93.93,0,0,0,26.49,128.52Z"/>
                <path class="cls-57" d="M29.68,121.89a.93.93,0,0,1-.14-1,3.18,3.18,0,0,1,.83-1.31c1.06-.92,1.79-.25,2,0s.76,1-.3,2a3.3,3.3,0,0,1-1.42.63A.93.93,0,0,1,29.68,121.89Z"/>
                <path class="cls-57" d="M31.6,116.61a1,1,0,0,1-.14-1,3.44,3.44,0,0,1,.83-1.31,1.3,1.3,0,1,1,1.68,2,3.42,3.42,0,0,1-1.42.63A1,1,0,0,1,31.6,116.61Z"/>
                <path class="cls-57" d="M30.57,128.33a1,1,0,0,1-.13-1,3.28,3.28,0,0,1,.82-1.31c1.07-.92,1.79-.25,2,0s.76,1-.31,2a3.37,3.37,0,0,1-1.41.63A1,1,0,0,1,30.57,128.33Z"/>
                <g>
                  <path class="cls-58" d="M46.33,123c.62-.54,1-.38,1.36,0s.42.81-.2,1.34a3,3,0,0,1-1.36.53.44.44,0,0,1-.51-.59A3,3,0,0,1,46.33,123Z"/>
                  <path class="cls-58" d="M42.78,127.72c.62-.54,1-.37,1.36,0s.42.81-.21,1.35a3,3,0,0,1-1.36.52.42.42,0,0,1-.5-.58A2.93,2.93,0,0,1,42.78,127.72Z"/>
                  <path class="cls-58" d="M41.51,122.1c.62-.53,1-.37,1.36,0s.42.8-.2,1.34a3,3,0,0,1-1.37.52.42.42,0,0,1-.5-.58A2.93,2.93,0,0,1,41.51,122.1Z"/>
                  <path class="cls-58" d="M42.45,116c.62-.54,1-.38,1.36,0s.42.81-.2,1.35a3,3,0,0,1-1.37.52.43.43,0,0,1-.5-.58A2.93,2.93,0,0,1,42.45,116Z"/>
                  <path class="cls-58" d="M37.46,111.54c.62-.54,1-.38,1.36,0s.41.81-.21,1.34a2.9,2.9,0,0,1-1.36.53.43.43,0,0,1-.5-.59A3,3,0,0,1,37.46,111.54Z"/>
                  <path class="cls-58" d="M36.76,121.44c.62-.53,1-.37,1.36,0s.42.8-.21,1.34a2.85,2.85,0,0,1-1.36.52.42.42,0,0,1-.5-.58A3,3,0,0,1,36.76,121.44Z"/>
                  <path class="cls-58" d="M36.35,128.47c.62-.53,1-.37,1.36,0s.41.8-.21,1.34a3,3,0,0,1-1.36.52.43.43,0,0,1-.51-.58A3.11,3.11,0,0,1,36.35,128.47Z"/>
                  <path class="cls-58" d="M31,130.78c.73-.36,1.1-.1,1.31.34s.21.89-.53,1.25a2.94,2.94,0,0,1-1.45.16.43.43,0,0,1-.35-.69A3.05,3.05,0,0,1,31,130.78Z"/>
                  <path class="cls-58" d="M28.39,127.33c.46-.68.26-1.08-.15-1.36s-.84-.32-1.31.36a3,3,0,0,0-.37,1.41.43.43,0,0,0,.64.44A3,3,0,0,0,28.39,127.33Z"/>
                  <path class="cls-58" d="M30.66,119.88c.62-.54,1-.38,1.36,0s.41.81-.21,1.34a2.89,2.89,0,0,1-1.36.52.43.43,0,0,1-.51-.58A3,3,0,0,1,30.66,119.88Z"/>
                  <path class="cls-58" d="M32.58,114.59c.62-.54,1-.38,1.36,0s.42.81-.21,1.35a3,3,0,0,1-1.36.52.42.42,0,0,1-.5-.58A3,3,0,0,1,32.58,114.59Z"/>
                  <path class="cls-58" d="M31.55,126.31c.62-.53,1-.37,1.36,0s.42.8-.2,1.34a2.93,2.93,0,0,1-1.36.52.43.43,0,0,1-.51-.58A3.09,3.09,0,0,1,31.55,126.31Z"/>
                  <path class="cls-57" d="M25.79,132.47a.93.93,0,0,1-.14-1,3.28,3.28,0,0,1,.82-1.31c1.07-.92,1.79-.25,2,0s.76,1-.31,2a3.14,3.14,0,0,1-1.41.63A.92.92,0,0,1,25.79,132.47Z"/>
                  <path class="cls-58" d="M26.76,130.46c.63-.54,1-.38,1.37,0s.41.81-.21,1.35a3,3,0,0,1-1.36.52.44.44,0,0,1-.51-.59A3.06,3.06,0,0,1,26.76,130.46Z"/>
                </g>
              </g>
              <path class="cls-59" d="M30.46,111.37c4.42-3.83,7.92-2.1,10.83,1.26s4.11,7.07-.31,10.89c-2.4,2.08-6.82,2.77-10.36,3A4.41,4.41,0,0,1,26,121.2C26.74,117.72,28.06,113.45,30.46,111.37Z"/>
              <path class="cls-60" d="M33.86,110.55c-1.17-.9-6.17,5.63-5,6.53S35,111.45,33.86,110.55Z"/>
            </g>
          </g>
        </g>
        <g>
          <path class="cls-61" d="M184.08,160.69a121.54,121.54,0,0,0-18.4,17.46l44.71,1.59a2.5,2.5,0,0,0,1.75-.61l14.47-12.47Z"/>
          <path class="cls-62" d="M222.93,169.83a1,1,0,0,0-.62-.33l-29.72-4.17a6.72,6.72,0,0,0-5.2,1.46c-2.42,2-4.8,4.14-7.06,6.33a2.08,2.08,0,0,0-.13,2.85,2,2,0,0,0,1.48.7l32,1.14Z"/>
          <path class="cls-63" d="M181.72,175.68a1.07,1.07,0,0,1-.7-1.85c2.69-2.59,5.17-4.74,7-6.27a5.7,5.7,0,0,1,4.42-1.25l29.72,4.17-7.39,6.37Z"/>
          <path class="cls-64" d="M184,173.77c1.72-1.61,3.51-3.18,5.32-4.68a3.72,3.72,0,0,1,2.88-.81l26.89,4.41-3.14,2.7Z"/>
          <path class="cls-65" d="M184.08,160.69s-12.18-14.84-2.35-32.36l-15.57,13.43s-10.6,6.31-.48,36.39Z"/>
          <path class="cls-66" d="M212.14,179.13l14.47-12.47L200.45,163a36.92,36.92,0,0,1,4.08,2.7,25.53,25.53,0,0,1,3.17,3.4,5.47,5.47,0,0,1,1.4,5.27,16.54,16.54,0,0,1-1.82,5.27l3.11.11A2.5,2.5,0,0,0,212.14,179.13Z"/>
          <path class="cls-67" d="M222.17,170.48l-15.09-2.12c.21.25.41.5.62.73a5.47,5.47,0,0,1,1.4,5.27,18.91,18.91,0,0,1-.54,2.27l6.22.22Z"/>
          <path class="cls-65" d="M226.61,166.66s-40.68-38.12-44.88-38.33c0,0-12.8,13.27,2.35,32.36Z"/>
          <path class="cls-68" d="M219.07,172.69,208.94,171a6.2,6.2,0,0,1,.16,3.33c0,.22-.08.44-.13.68l7,.35Z"/>
          <path class="cls-69" d="M187.17,158.57l36.21,5.08c-8-7.41-28.66-26.41-37.68-33a1.92,1.92,0,0,0-.57-.17S174,142,187.17,158.57Z"/>
          <path class="cls-70" d="M188.9,151.42a64.32,64.32,0,0,1-3.08-9.95,17,17,0,0,1-.23-8.37c-2.14,3.12-6.33,11.81,2.66,23.61l9.7,1.36C194.66,156.41,190.41,155.08,188.9,151.42Z"/>
          <path class="cls-71" d="M184.08,160.69s-12.18-14.84-2.35-32.36l-8.06,6.95c-.24.79-.44,1.56-.61,2.19a32.25,32.25,0,0,0-1.44,7.08c-.16,3,.16,5.59-.85,8.5a42.22,42.22,0,0,1-4.39,9.17,44.52,44.52,0,0,1-3.76,4.92,98.62,98.62,0,0,0,3.06,11Z"/>
          <path class="cls-65" d="M204.72,155.14a37.75,37.75,0,0,0,4.2-4.72c-4.91-4.42-10.13-9-14.7-12.92a10.88,10.88,0,0,0-1.37,4.15c-.55,3.73,1.58,8.6,3.64,12.27A5.25,5.25,0,0,0,204.72,155.14Z"/>
          <g>
            <g>
              <path class="cls-53" d="M203.24,136.32c.42-2.83-.14-5.25-1.25-5.42s-2.34,2-2.76,4.83.15,5.25,1.25,5.41S202.83,139.14,203.24,136.32Z"/>
              <path class="cls-53" d="M207.71,137.72c.92-2.7.82-5.18-.24-5.55s-2.67,1.54-3.6,4.24-.82,5.19.24,5.55S206.78,140.43,207.71,137.72Z"/>
              <path class="cls-54" d="M205.88,135.72c.41-2.82-.15-5.25-1.26-5.41s-2.34,2-2.75,4.82.14,5.26,1.25,5.42S205.46,138.55,205.88,135.72Z"/>
              <path class="cls-54" d="M209.63,137.62c1.09-2.64,1.13-5.13.1-5.56s-2.76,1.38-3.85,4-1.12,5.13-.09,5.56S208.55,140.26,209.63,137.62Z"/>
              <path class="cls-54" d="M197.84,135.89c-.28-2.85.4-5.24,1.51-5.35s2.25,2.11,2.53,5-.4,5.24-1.52,5.35S198.12,138.73,197.84,135.89Z"/>
            </g>
            <g>
              <path class="cls-72" d="M193.62,142.55c1-6.87,5.51-8,10.73-7.27s9.18,3.18,8.17,10.05c-.55,3.73-4,7.78-7,10.71a5.25,5.25,0,0,1-8.23-1.21C195.2,151.15,193.07,146.28,193.62,142.55Z"/>
              <path class="cls-56" d="M193.72,141.89c.74-5,4-5.87,7.83-5.31s6.71,2.32,6,7.34c-.4,2.73-2.91,5.68-5.13,7.82a3.83,3.83,0,0,1-6-.88C194.87,148.17,193.32,144.61,193.72,141.89Z"/>
              <g>
                <path class="cls-57" d="M208.18,142.77a.66.66,0,0,1-.51-.45,2.22,2.22,0,0,1-.15-1c.14-1,.81-.92,1-.89s.85.2.71,1.15a2.27,2.27,0,0,1-.45,1A.65.65,0,0,1,208.18,142.77Z"/>
                <path class="cls-57" d="M208.47,146.83a.65.65,0,0,1-.51-.45,2.2,2.2,0,0,1-.15-1c.14-1,.81-.93,1-.89s.85.2.71,1.15a2.27,2.27,0,0,1-.45,1A.65.65,0,0,1,208.47,146.83Z"/>
                <path class="cls-57" d="M205.31,144.48a.64.64,0,0,1-.51-.44,2.26,2.26,0,0,1-.16-1c.14-1,.82-.93,1-.9s.86.2.72,1.15a2.17,2.17,0,0,1-.45,1A.65.65,0,0,1,205.31,144.48Z"/>
                <path class="cls-57" d="M203.07,140.9a.63.63,0,0,1-.51-.45,2.26,2.26,0,0,1-.16-1c.14-1,.82-.93,1-.9s.86.21.72,1.16a2.54,2.54,0,0,1-.45,1A.67.67,0,0,1,203.07,140.9Z"/>
                <path class="cls-57" d="M198.49,140.82a.66.66,0,0,1-.51-.45,2.22,2.22,0,0,1-.15-1.05c.14-.95.81-.92,1-.89s.85.2.71,1.15a2.27,2.27,0,0,1-.45,1A.65.65,0,0,1,198.49,140.82Z"/>
                <path class="cls-57" d="M202.55,146.26a.65.65,0,0,1-.51-.44,2.39,2.39,0,0,1-.16-1c.14-1,.82-.93,1-.9s.85.2.71,1.15a2.17,2.17,0,0,1-.45,1A.63.63,0,0,1,202.55,146.26Z"/>
                <path class="cls-57" d="M205.48,150.09a.63.63,0,0,1-.51-.45,2.24,2.24,0,0,1-.16-1c.14-1,.81-.92,1-.89s.86.2.72,1.15a2.4,2.4,0,0,1-.45,1A.67.67,0,0,1,205.48,150.09Z"/>
                <path class="cls-57" d="M203.37,153.71a.66.66,0,0,1-.39-.56,2.33,2.33,0,0,1,.12-1.05c.37-.89,1-.7,1.21-.61s.78.41.4,1.29a2.18,2.18,0,0,1-.67.81A.65.65,0,0,1,203.37,153.71Z"/>
                <path class="cls-57" d="M200,153a.63.63,0,0,0,.53-.43,2.26,2.26,0,0,0,.19-1c-.1-.95-.78-1-1-.93s-.87.17-.76,1.12a2.26,2.26,0,0,0,.41,1A.66.66,0,0,0,200,153Z"/>
                <path class="cls-57" d="M198.69,148.17a.65.65,0,0,1-.51-.44,2.26,2.26,0,0,1-.16-1c.14-1,.82-.93,1-.9s.86.2.72,1.16a2.19,2.19,0,0,1-.45.95A.64.64,0,0,1,198.69,148.17Z"/>
                <path class="cls-57" d="M197.33,144.58a.62.62,0,0,1-.51-.45,2.22,2.22,0,0,1-.16-1c.14-1,.82-.92,1-.89s.86.2.72,1.15a2.22,2.22,0,0,1-.45,1A.67.67,0,0,1,197.33,144.58Z"/>
                <path class="cls-57" d="M202,151.11a.63.63,0,0,1-.51-.45,2.22,2.22,0,0,1-.16-1c.14-1,.82-.92,1-.89s.86.2.72,1.15a2.22,2.22,0,0,1-.45,1A.64.64,0,0,1,202,151.11Z"/>
                <g>
                  <path class="cls-58" d="M207.79,141.29c.08-.56.37-.66.7-.61s.58.23.5.78a2.12,2.12,0,0,1-.48.88.29.29,0,0,1-.52-.07A2.13,2.13,0,0,1,207.79,141.29Z"/>
                  <path class="cls-58" d="M208.08,145.35c.08-.56.37-.66.7-.61s.58.23.5.78a2.06,2.06,0,0,1-.48.88.29.29,0,0,1-.52-.07A2.13,2.13,0,0,1,208.08,145.35Z"/>
                  <path class="cls-58" d="M204.92,143c.08-.55.37-.66.7-.61s.57.23.49.79a2,2,0,0,1-.47.88.29.29,0,0,1-.52-.08A2,2,0,0,1,204.92,143Z"/>
                  <path class="cls-58" d="M202.67,139.42c.08-.56.37-.66.7-.61s.58.23.5.78a2,2,0,0,1-.47.88.3.3,0,0,1-.53-.08A2.09,2.09,0,0,1,202.67,139.42Z"/>
                  <path class="cls-58" d="M198.1,139.34c.08-.56.37-.66.7-.61s.58.23.5.78a2.06,2.06,0,0,1-.48.88.29.29,0,0,1-.52-.07A2.13,2.13,0,0,1,198.1,139.34Z"/>
                  <path class="cls-58" d="M202.16,144.78c.08-.55.37-.66.7-.61s.58.23.5.79a2.18,2.18,0,0,1-.48.88.29.29,0,0,1-.52-.08A2.1,2.1,0,0,1,202.16,144.78Z"/>
                  <path class="cls-58" d="M205.08,148.61c.09-.56.37-.66.71-.61s.57.23.49.78a1.94,1.94,0,0,1-.47.88.3.3,0,0,1-.53-.07A2.13,2.13,0,0,1,205.08,148.61Z"/>
                  <path class="cls-58" d="M203.36,152.18c.22-.52.52-.55.83-.41s.5.36.28.88a2,2,0,0,1-.68.73.29.29,0,0,1-.48-.2A2,2,0,0,1,203.36,152.18Z"/>
                  <path class="cls-58" d="M200.45,151.57c-.06-.56-.35-.68-.68-.64s-.58.21-.52.77a2.1,2.1,0,0,0,.44.9.29.29,0,0,0,.52-.06A2.14,2.14,0,0,0,200.45,151.57Z"/>
                  <path class="cls-58" d="M198.3,146.69c.08-.55.37-.66.7-.61s.58.23.5.79a2.12,2.12,0,0,1-.48.88.29.29,0,0,1-.52-.08A2,2,0,0,1,198.3,146.69Z"/>
                  <path class="cls-58" d="M196.93,143.1c.09-.56.38-.66.71-.61s.57.23.49.78a1.94,1.94,0,0,1-.47.88.29.29,0,0,1-.52-.07A2,2,0,0,1,196.93,143.1Z"/>
                  <path class="cls-58" d="M201.64,149.63c.08-.56.37-.66.7-.61s.57.23.49.79a2,2,0,0,1-.47.87.29.29,0,0,1-.52-.07A2,2,0,0,1,201.64,149.63Z"/>
                  <path class="cls-57" d="M201.4,155.39a.64.64,0,0,1-.51-.44,2.26,2.26,0,0,1-.16-1c.14-1,.82-.93,1-.9s.86.2.72,1.16a2.19,2.19,0,0,1-.45,1A.65.65,0,0,1,201.4,155.39Z"/>
                  <path class="cls-58" d="M201,153.91c.08-.55.37-.66.7-.61s.57.23.49.79a2,2,0,0,1-.47.88.29.29,0,0,1-.52-.08A2,2,0,0,1,201,153.91Z"/>
                </g>
              </g>
              <path class="cls-59" d="M194.4,142.37c.58-4,3.17-4.62,6.17-4.18s5.29,1.83,4.71,5.78c-.32,2.15-2.3,4.48-4.05,6.17a3,3,0,0,1-4.73-.7C195.31,147.32,194.08,144.52,194.4,142.37Z"/>
              <path class="cls-60" d="M195.8,140.43c-1,.06-.69,5.68.32,5.62S196.8,140.37,195.8,140.43Z"/>
            </g>
          </g>
          <path class="cls-69" d="M208,156c-1.08-.14-2.19-.29-3.28-.5-1.3-1.1-2.51-3-3.42-3.65a19.42,19.42,0,0,0-2.56-1.95c-1-.5-2.09-1-3.14-1.47-1-1.27-2-2.64-3.75-2.79a1.74,1.74,0,0,0-1.78,1.17c-.48,1.67.44,3.09,1.5,4.33.7.8,1.6,1.2,2.25,2a10.53,10.53,0,0,0,2.2,2.27,22.91,22.91,0,0,0,7.26,3.19,5.09,5.09,0,0,0,5.34.68A1.76,1.76,0,0,0,208,156Z"/>
          <polygon class="cls-71" points="226.61 166.66 225.53 167.59 182.68 162.02 184.08 160.69 226.61 166.66"/>
          <g>
            <g>
              <path class="cls-73" d="M188.71,137.78a.37.37,0,0,1-.33-.39l.18-2.48a.37.37,0,0,1,.39-.33.36.36,0,0,1,.33.39l-.18,2.47A.37.37,0,0,1,188.71,137.78Z"/>
              <path class="cls-74" d="M188.9,134.91a.46.46,0,0,0-.07-.31.38.38,0,0,0-.27.31l-.18,2.48a.36.36,0,0,0,.17.33.4.4,0,0,0,.16-.33Z"/>
            </g>
            <g>
              <path class="cls-73" d="M191.08,143.2a.35.35,0,0,1-.48-.16l-1.09-2.23a.36.36,0,1,1,.65-.32l1.09,2.23A.35.35,0,0,1,191.08,143.2Z"/>
              <path class="cls-74" d="M189.8,140.64a.48.48,0,0,0-.22-.24.36.36,0,0,0-.07.41L190.6,143a.34.34,0,0,0,.31.19c.06-.06.05-.21,0-.36Z"/>
            </g>
            <g>
              <path class="cls-73" d="M194,139.68a.37.37,0,0,1-.51.09l-2-1.4a.36.36,0,1,1,.4-.59l2.05,1.4A.36.36,0,0,1,194,139.68Z"/>
              <path class="cls-74" d="M191.64,138.08a.59.59,0,0,0-.3-.1.35.35,0,0,0,.14.39l2,1.4a.35.35,0,0,0,.37,0c0-.09-.06-.21-.2-.31Z"/>
            </g>
            <g>
              <path class="cls-73" d="M192.92,147.18a.36.36,0,0,1-.43.29l-2.43-.47a.36.36,0,0,1-.29-.43.36.36,0,0,1,.42-.28l2.44.47A.37.37,0,0,1,192.92,147.18Z"/>
              <path class="cls-74" d="M190.09,146.66a.52.52,0,0,0-.32,0,.36.36,0,0,0,.29.3l2.43.47a.35.35,0,0,0,.35-.13c0-.09-.15-.17-.31-.2Z"/>
            </g>
            <g>
              <path class="cls-73" d="M195.3,150.8a.37.37,0,0,1,.23.46l-.76,2.36a.36.36,0,1,1-.68-.22l.75-2.36A.37.37,0,0,1,195.3,150.8Z"/>
              <path class="cls-74" d="M194.45,153.55a.51.51,0,0,0,0,.32.35.35,0,0,0,.33-.25l.76-2.36a.36.36,0,0,0-.09-.36c-.08,0-.18.12-.23.28Z"/>
            </g>
            <g>
              <path class="cls-73" d="M199.85,153.85a.36.36,0,0,1,.46.23l.75,2.37a.36.36,0,0,1-.24.45.35.35,0,0,1-.45-.23l-.75-2.37A.35.35,0,0,1,199.85,153.85Z"/>
              <path class="cls-74" d="M200.75,156.58a.48.48,0,0,0,.18.26.36.36,0,0,0,.13-.39l-.75-2.37a.38.38,0,0,0-.28-.24.37.37,0,0,0,0,.37Z"/>
            </g>
            <g>
              <path class="cls-73" d="M207.56,156.33a.36.36,0,0,1,.49-.13l2.16,1.22a.37.37,0,0,1,.13.5.36.36,0,0,1-.49.13l-2.16-1.22A.37.37,0,0,1,207.56,156.33Z"/>
              <path class="cls-74" d="M210.07,157.73a.49.49,0,0,0,.31.07.36.36,0,0,0-.17-.38l-2.16-1.22a.35.35,0,0,0-.37,0,.38.38,0,0,0,.23.29Z"/>
            </g>
            <g>
              <path class="cls-73" d="M212.5,155.27a.37.37,0,0,1,.51.07l1.5,2a.37.37,0,0,1-.07.51.35.35,0,0,1-.5-.07l-1.51-2A.37.37,0,0,1,212.5,155.27Z"/>
              <path class="cls-74" d="M214.26,157.54a.54.54,0,0,0,.26.19.38.38,0,0,0,0-.42l-1.5-2a.35.35,0,0,0-.35-.13.38.38,0,0,0,.1.35Z"/>
            </g>
          </g>
          <path class="cls-62" d="M195.59,172.7a1,1,0,0,1-1.49-.11,1.06,1.06,0,0,1,1.6-1.38A1,1,0,0,1,195.59,172.7Z"/>
          <path class="cls-62" d="M198.58,171.77a.51.51,0,1,1,0-.71A.51.51,0,0,1,198.58,171.77Z"/>
          <path class="cls-62" d="M207.65,174.28a.51.51,0,1,1-.66-.77.5.5,0,0,1,.71.06A.51.51,0,0,1,207.65,174.28Z"/>
          <path class="cls-75" d="M191.48,157.16l-1-.57c-1.77-1-5.59-8.1-6.09-10s-1.39-4.13-1.3-6.22a.24.24,0,0,0-.18-.24c-.58,4.23.3,9.9,5.37,16.55Z"/>
        </g>
        <g>
          <g>
            <g>
              <path class="cls-76" d="M68.16,67.76a8.65,8.65,0,0,1,4.62-1.42,7.45,7.45,0,0,1,4.39,1.42l-3.7,3.15Z"/>
              <g>
                <path class="cls-77" d="M60,172.55s-2.12,1.59-4.28,3.1a5.14,5.14,0,0,0-2.11,4h13.9s.43-5.76-1.14-7.13Z"/>
                <rect class="cls-78" x="53.65" y="178.76" width="13.94" height="0.92"/>
              </g>
              <g>
                <path class="cls-77" d="M87.62,172.55s2.12,1.59,4.28,3.1a5.14,5.14,0,0,1,2.11,4H80.11s-.43-5.76,1.13-7.13Z"/>
                <rect class="cls-78" x="80.07" y="178.76" width="13.94" height="0.92" transform="translate(174.08 358.44) rotate(180)"/>
              </g>
              <g>
                <path class="cls-79" d="M69.32,66.06a15.42,15.42,0,0,1-.21,3.88c-.22.84,4,4.59,4,4.59s3.06-2.51,3.3-4.59c-.13-1.67-.38-3.88-.38-3.88Z"/>
                <g>
                  <path class="cls-80" d="M66.57,57.82s-.86-.46-1.42.66.47,2.89,1.43,2.94S66.57,57.82,66.57,57.82Z"/>
                  <path class="cls-80" d="M79.64,57.77s.92-.33,1.31.86-.89,2.79-1.85,2.7S79.64,57.77,79.64,57.77Z"/>
                  <path class="cls-80" d="M79.5,59.07c0,4.8-3,8.69-6.62,8.69s-6.61-3.89-6.61-8.69,3-8.69,6.61-8.69S79.5,54.27,79.5,59.07Z"/>
                </g>
              </g>
              <polygon class="cls-77" points="65.98 57.75 66.72 58.27 68.16 56.18 66 56.18 65.98 57.75"/>
              <polygon class="cls-77" points="79.87 57.75 79.13 58.27 77.69 56.18 79.85 56.18 79.87 57.75"/>
              <polygon class="cls-81" points="58.43 119.41 57.13 174.29 68.83 174.29 72.68 122.06 79.9 174.29 91.21 174.29 86.83 119.41 81.02 112.09 66 112.09 58.43 119.41"/>
              <path class="cls-75" d="M96.84,84.84c-2.59-4.26-5.74-9-8-10.67-2.6-2-12.4-4.23-12.4-4.23s-3.51,3.55-3.81,4.13c-.43-.67-3.53-4.13-3.53-4.13s-9.51,2.14-12,4c-3.63,2.72-8.8,15.46-11.26,19.69a5.05,5.05,0,0,0,.18,5.25c3.79-3.85,9.22-3,9.22-3l3.09-8.33.07,31.9h28.4l.09-31.9,3.63,3.82C92.27,88.9,94.68,86.94,96.84,84.84Z"/>
              <rect class="cls-82" x="64.99" y="74.07" width="14.91" height="45.34"/>
              <rect class="cls-75" x="63.69" y="74.99" width="15.09" height="44.41"/>
              <path class="cls-75" d="M79.9,56.8V37.11s-2.15-2.73-7-2.73S66,37.11,66,37.11V56.8Z"/>
              <path class="cls-82" d="M68,70.2l.16-2.44s4.67,3.33,4.48,6.31A31.76,31.76,0,0,1,68,70.2Z"/>
              <path class="cls-82" d="M77.33,70.2l-.16-2.44s-4.67,3.33-4.48,6.31A31.76,31.76,0,0,0,77.33,70.2Z"/>
              <g>
                <path class="cls-77" d="M68.72,77a.78.78,0,0,1-.78.78.78.78,0,0,1,0-1.56A.78.78,0,0,1,68.72,77Z"/>
                <path class="cls-77" d="M77.73,77a.78.78,0,1,1-.78-.78A.78.78,0,0,1,77.73,77Z"/>
                <path class="cls-77" d="M68.72,89a.78.78,0,0,1-.78.78.78.78,0,1,1,.78-.78Z"/>
                <path class="cls-77" d="M77.73,89a.78.78,0,1,1-.78-.77A.78.78,0,0,1,77.73,89Z"/>
              </g>
              <g>
                <path class="cls-77" d="M68.72,100a.77.77,0,0,1-.78.77.76.76,0,0,1-.77-.77.77.77,0,0,1,.77-.78A.78.78,0,0,1,68.72,100Z"/>
                <path class="cls-77" d="M77.73,100a.78.78,0,0,1-1.56,0,.78.78,0,0,1,1.56,0Z"/>
                <path class="cls-77" d="M68.72,112a.78.78,0,0,1-.78.78.78.78,0,0,1,0-1.56A.78.78,0,0,1,68.72,112Z"/>
                <path class="cls-77" d="M77.73,112a.78.78,0,1,1-.78-.78A.78.78,0,0,1,77.73,112Z"/>
              </g>
              <polygon class="cls-83" points="58.23 106.03 54.82 149.8 91.21 149.8 87.04 106.03 58.23 106.03"/>
              <rect class="cls-83" x="64.43" y="83.62" width="16.59" height="26.24"/>
            </g>
            <rect class="cls-82" x="65.98" y="54.44" width="13.92" height="0.84"/>
            <polygon class="cls-83" points="66.67 84.43 64.59 85.15 60.27 72.33 62.35 71.6 66.67 84.43"/>
            <polygon class="cls-83" points="78.78 84.43 80.86 85.15 85.17 72.33 83.09 71.6 78.78 84.43"/>
          </g>
          <g>
            <g>
              <path class="cls-84" d="M55,159a166.92,166.92,0,0,0-19.87,13.08v7.85H150.39V128.77C117.26,133.49,84.11,142.6,55,159Z"/>
              <path class="cls-85" d="M35.14,115.88v56.18A166.92,166.92,0,0,1,55,159c29.1-16.38,62.25-25.49,95.38-30.21V115.88Z"/>
            </g>
            <rect class="cls-86" x="32.56" y="112.72" width="120.42" height="3.16"/>
            <rect class="cls-87" x="35.14" y="115.88" width="115.25" height="10.29"/>
          </g>
          <g>
            <path class="cls-80" d="M46.05,98.88s4.53,6.3,7.21,9.27,3.87,4.22,3.87,4.22l4-4.22L55.27,95.83A6.91,6.91,0,0,0,46.05,98.88Z"/>
            <g>
              <path class="cls-88" d="M80.68,91.32s-1.29,1.29-1.06,2,1.64.74,1.84.23C81.72,92.91,81.14,92.53,80.68,91.32Z"/>
              <path class="cls-88" d="M76.61,91.32s-1.3,1.29-1.07,2,1.64.74,1.84.23C77.64,92.91,77.07,92.53,76.61,91.32Z"/>
              <path class="cls-88" d="M64.51,91.32s-1.29,1.29-1.07,2,1.64.74,1.84.23C65.54,92.91,65,92.53,64.51,91.32Z"/>
              <path class="cls-88" d="M72.68,91.32s-1.29,1.29-1.07,2,1.65.74,1.84.23C73.71,92.91,73.14,92.53,72.68,91.32Z"/>
              <path class="cls-88" d="M68.62,91.32s-1.3,1.29-1.07,2,1.64.74,1.84.23C69.65,92.91,69.08,92.53,68.62,91.32Z"/>
            </g>
            <path class="cls-89" d="M88.33,107.68c-.92-.43-.5,1-.84,1.89-.45,1.21-1.35.29-1.31-.67,0-.5.22-1.45-.67-1.14s-.23,1.76-.86,2.1c-.92.49-.31-1.24-1-1.71s-1.23.77-1.78,1a1.78,1.78,0,0,1-2-1c-.55-.94-1,1.65-1.68,1.71s-.7-1.35-1-1.22c-.67.26-.83,1-1.69.56s-.87-1.2-1.31-1,0,1.67-.57,1.88-.24-2-.72-2.43-.85,1-1.32,1.6c-.28.34-.94.29-1.24-.56a1.36,1.36,0,0,0-1.6-.88c-.56.08-.61.94-1.71.88s-1-1.35-1.49-1.19-.41.78-.86,2-1.17,0-1.14-1.06-.74-1.45-1-1-.47,1-1.41.7-1.1-1.1-1.41-.7.06,2-.67,2.07-.27-2.39-.59-2.54-.7.15-1.33.7a1.15,1.15,0,0,1-1.19,0v3.4h34v-3.34A2.15,2.15,0,0,1,88.33,107.68Z"/>
            <g>
              <path class="cls-89" d="M82,97.29a1.75,1.75,0,0,1-2-1c-.56-.94-1,1.65-1.68,1.71s-.71-1.34-1-1.21c-.68.25-.83,1-1.7.55s-.86-1.2-1.3-1,0,1.67-.58,1.89-.23-2-.71-2.43-.85,1-1.33,1.59c-.28.34-.94.29-1.23-.55a1.37,1.37,0,0,0-1.6-.89c-.56.08-.61,1-1.71.89s-1-1.36-1.49-1.2-.41.79-.86,2-1.18,0-1.14-1.06-.75-1.45-1-1a1.78,1.78,0,0,1-.49.68v3.27H83.68V96.29C83.07,96,82.52,97.12,82,97.29Z"/>
              <path class="cls-90" d="M62.15,93.64v2.67a1.78,1.78,0,0,0,.49-.68c.23-.47,1-.15,1,1s.67,2.36,1.14,1.06.39-1.88.86-2,.39,1.14,1.49,1.2,1.15-.81,1.71-.89a1.37,1.37,0,0,1,1.6.89c.29.84,1,.89,1.23.55.48-.57.86-2.06,1.33-1.59s.09,2.64.71,2.43.13-1.73.58-1.89.44.6,1.3,1,1-.3,1.7-.55c.34-.13.34,1.27,1,1.21s1.12-2.65,1.68-1.71a1.75,1.75,0,0,0,2,1c.53-.17,1.08-1.29,1.69-1V93.64Z"/>
            </g>
            <g>
              <path class="cls-88" d="M72.78,97.2s-1.3,1.29-1.07,2,1.64.74,1.84.23C73.81,98.79,73.24,98.41,72.78,97.2Z"/>
              <path class="cls-88" d="M77.06,97.2s-1.29,1.29-1.06,2,1.64.74,1.84.23C78.1,98.79,77.52,98.41,77.06,97.2Z"/>
              <path class="cls-88" d="M85.23,97.2s-1.29,1.29-1.06,2,1.64.74,1.84.23C86.27,98.79,85.7,98.41,85.23,97.2Z"/>
              <path class="cls-88" d="M81.17,97.2s-1.29,1.29-1.07,2,1.65.74,1.84.23C82.2,98.79,81.63,98.41,81.17,97.2Z"/>
              <path class="cls-88" d="M60.68,97.2s-1.3,1.29-1.07,2,1.64.74,1.84.23C61.71,98.79,61.14,98.41,60.68,97.2Z"/>
              <path class="cls-88" d="M68.85,97.2s-1.29,1.29-1.07,2,1.64.74,1.84.23C69.88,98.79,69.31,98.41,68.85,97.2Z"/>
              <path class="cls-88" d="M64.78,97.2s-1.29,1.29-1.06,2,1.64.74,1.84.23C65.82,98.79,65.25,98.41,64.78,97.2Z"/>
            </g>
            <g>
              <path class="cls-89" d="M85,100.94c-.23-.47-1-.16-1,1s-.67,2.35-1.14,1.06-.39-1.88-.86-2-.39,1.14-1.49,1.2-1.15-.81-1.71-.89a1.36,1.36,0,0,0-1.6.89c-.29.84-1,.89-1.24.55-.47-.57-.85-2.06-1.32-1.59s-.09,2.64-.71,2.43-.13-1.73-.58-1.89-.44.6-1.31,1-1-.3-1.69-.55c-.34-.13-.34,1.27-1,1.21s-1.12-2.65-1.68-1.71a1.76,1.76,0,0,1-2,1c-.55-.18-1.13-1.43-1.78-1s0,2.2-1,1.71c-.63-.33,0-1.79-.86-2.1s-.69.65-.67,1.14c0,1-.86,1.88-1.31.68-.34-.91.08-2.32-.84-1.9a1.77,1.77,0,0,1-.59.17v3.93H87.18v-4a2.26,2.26,0,0,1-.73.42C85.51,102,85.28,101.41,85,100.94Z"/>
              <path class="cls-90" d="M58.66,99.33v2a1.77,1.77,0,0,0,.59-.17c.92-.42.5,1,.84,1.9.45,1.2,1.35.28,1.31-.68,0-.49-.22-1.45.67-1.14s.23,1.77.86,2.1c.92.49.32-1.23,1-1.71s1.23.78,1.78,1a1.76,1.76,0,0,0,2-1c.56-.94,1,1.65,1.68,1.71s.71-1.34,1-1.21c.68.25.83,1,1.69.55s.87-1.2,1.31-1,0,1.67.58,1.89.23-2,.71-2.43.85,1,1.32,1.59c.29.34,1,.29,1.24-.55a1.36,1.36,0,0,1,1.6-.89c.56.08.61.94,1.71.89s1-1.36,1.49-1.2.41.79.86,2,1.18,0,1.14-1.06.75-1.45,1-1,.47,1,1.41.7a2.26,2.26,0,0,0,.73-.42V99.33Z"/>
            </g>
            <g>
              <path class="cls-88" d="M70.56,103s-1.3,1.3-1.07,2,1.64.74,1.84.23C71.59,104.59,71,104.21,70.56,103Z"/>
              <path class="cls-88" d="M74.84,103s-1.29,1.3-1.06,2,1.64.74,1.84.23C75.88,104.59,75.31,104.21,74.84,103Z"/>
              <path class="cls-88" d="M87.09,103s-1.29,1.3-1.06,2,1.64.74,1.84.23C88.13,104.59,87.55,104.21,87.09,103Z"/>
              <path class="cls-88" d="M83,103s-1.3,1.3-1.07,2,1.64.74,1.84.23C84.05,104.59,83.48,104.21,83,103Z"/>
              <path class="cls-88" d="M79,103s-1.29,1.3-1.06,2,1.64.74,1.84.23C80,104.59,79.41,104.21,79,103Z"/>
              <path class="cls-88" d="M58.46,103s-1.29,1.3-1.07,2,1.64.74,1.84.23C59.49,104.59,58.92,104.21,58.46,103Z"/>
              <path class="cls-88" d="M66.63,103s-1.29,1.3-1.07,2,1.65.74,1.84.23C67.66,104.59,67.09,104.21,66.63,103Z"/>
              <path class="cls-88" d="M62.57,103s-1.3,1.3-1.07,2,1.64.74,1.84.23C63.6,104.59,63,104.21,62.57,103Z"/>
            </g>
            <path class="cls-90" d="M55.94,105.18v2.54a1.15,1.15,0,0,0,1.19,0c.63-.55,1-.86,1.33-.7s-.14,2.65.59,2.54.36-1.68.67-2.07.47.38,1.41.7,1.18-.23,1.41-.7,1-.16,1,1,.67,2.35,1.14,1.06.39-1.89.86-2,.39,1.14,1.49,1.19,1.15-.8,1.71-.88a1.36,1.36,0,0,1,1.6.88c.3.85,1,.9,1.24.56.47-.58.85-2.07,1.32-1.6s.09,2.65.72,2.43.12-1.73.57-1.88.44.6,1.31,1,1-.3,1.69-.56c.35-.13.35,1.28,1,1.22s1.13-2.65,1.68-1.71a1.78,1.78,0,0,0,2,1c.55-.19,1.13-1.43,1.78-1s0,2.2,1,1.71c.63-.34,0-1.79.86-2.1s.7.64.67,1.14c0,1,.86,1.88,1.31.67.34-.91-.08-2.32.84-1.89a2.15,2.15,0,0,0,1.56.1v-2.6Z"/>
          </g>
          <path class="cls-89" d="M131.43,83.52c-.16-.93,1.2-1.37,1-2.42,1.13.16,1.42,1.42,1.42,2.42s-.82.8-.82.8Z"/>
          <path class="cls-89" d="M128.21,83.52c-.16-.93,1.21-1.37,1-2.42.69-.08,1.42,1.42,1.42,2.42s-.82.8-.82.8Z"/>
          <path class="cls-75" d="M108.6,102.47a8.71,8.71,0,0,1-.47,2.06c-.39,1.06.31,2.46,1.57,2.06S110.48,103.43,108.6,102.47Z"/>
          <path class="cls-75" d="M104.6,102.47a8.71,8.71,0,0,1-.47,2.06c-.39,1.06.31,2.46,1.57,2.06S106.48,103.43,104.6,102.47Z"/>
          <path class="cls-75" d="M101,102.47a8.71,8.71,0,0,1-.47,2.06c-.39,1.06.32,2.46,1.57,2.06S102.83,103.43,101,102.47Z"/>
          <g>
            <g>
              <path class="cls-91" d="M134.08,86.85c-.06,1.52-1,1.1-1.11.63-.17-1.26-.71-2.46-1.7-2.52a2.39,2.39,0,0,0-2.15,1.26c-.23.56-.29,2.09-.93,1.82s-.53-1.86-1-3a2,2,0,0,0-.17-.33v5h8V85.6A1.53,1.53,0,0,0,134.08,86.85Z"/>
              <path class="cls-88" d="M127.07,83.44v1.32a2,2,0,0,1,.17.33c.42,1.09.31,2.68,1,3s.7-1.26.93-1.82A2.39,2.39,0,0,1,131.27,85c1,.06,1.53,1.26,1.7,2.52.07.47,1.05.89,1.11-.63a1.53,1.53,0,0,1,1-1.25V83.44Z"/>
            </g>
            <path class="cls-91" d="M139.37,103.52c-.6.27-.08,3.29-.82,3.84s-1-.73-1-1.59a5.48,5.48,0,0,0-.67-2.93,1.58,1.58,0,0,0-2.86.47c-.49,1.26-.35,3.08-1.09,3.39s-.8-1.45-1.07-2.09a2.75,2.75,0,0,0-2.46-1.45c-1.14.07-1.76,1.45-2,2.9-.08.53-1.21,1-1.27-.73,0-.73-1.05-1.92-1.61-1.23-.79,1-.06,2.72-1.09,3.2s-.92-2-.92-3.2c0-.68-.62-1.13-1.14-1.4v8.37h19.29v-7.58A2.71,2.71,0,0,0,139.37,103.52Z"/>
            <g>
              <path class="cls-91" d="M136.88,92.82c-.48,1.25-.35,3.08-1.09,3.39s-.8-1.45-1.07-2.09a2.74,2.74,0,0,0-2.46-1.45c-1.14.07-1.76,1.45-2,2.9-.07.53-1.2,1-1.27-.73,0-.73-1-1.92-1.61-1.23-.78,1-.06,2.71-1.09,3.2s-.92-2-.92-3.2a1.55,1.55,0,0,0-.84-1.23v8.1h13V91.91A2.06,2.06,0,0,0,136.88,92.82Z"/>
              <path class="cls-88" d="M124.57,89.48v2.9a1.55,1.55,0,0,1,.84,1.23c0,1.15,0,3.63.92,3.2s.31-2.23,1.09-3.2c.56-.69,1.58.5,1.61,1.23.07,1.75,1.2,1.26,1.27.73.2-1.45.82-2.83,2-2.9a2.74,2.74,0,0,1,2.46,1.45c.27.64.34,2.4,1.07,2.09s.61-2.14,1.09-3.39a2.06,2.06,0,0,1,.68-.91V89.48Z"/>
            </g>
            <path class="cls-88" d="M121.42,99.6v3.1c.52.27,1.14.72,1.14,1.4,0,1.15,0,3.63.92,3.2s.3-2.23,1.09-3.2c.56-.69,1.58.5,1.61,1.23.06,1.75,1.19,1.26,1.27.73.2-1.45.82-2.83,2-2.9a2.75,2.75,0,0,1,2.46,1.45c.27.64.33,2.4,1.07,2.09s.6-2.13,1.09-3.39a1.58,1.58,0,0,1,2.86-.47,5.48,5.48,0,0,1,.67,2.93c0,.86.25,2.14,1,1.59s.22-3.57.82-3.84a2.71,2.71,0,0,1,1.34,0V99.6Z"/>
          </g>
          <path class="cls-80" d="M145.79,78s4.28,5,7,6.28A69.55,69.55,0,0,0,161,86.71l-1.15,4.77s-8.71-.92-10-2.72-6.73-8.33-6.73-8.33Z"/>
          <rect class="cls-82" x="96.84" y="110.75" width="17.09" height="1.94"/>
          <rect class="cls-82" x="119.15" y="110.75" width="23.34" height="1.94"/>
          <rect class="cls-82" x="53.26" y="110.78" width="39.32" height="1.94"/>
          <path class="cls-80" d="M81.92,80.55S93.82,83,96.84,84.84s2.55,9.11-3.25,8.45c-4.3-.49-13.74-8.24-14.09-8.61C79.67,82.5,81.92,80.55,81.92,80.55Z"/>
          <g>
            <path class="cls-89" d="M134.82,75.1s5.36-5.36,10.35-5.34c5.9,0,8.27,5.76,2.46,8.7s-8.47,0-10.55-.28a4.61,4.61,0,0,0-3.55,1l-1.48-1.76Z"/>
            <polygon class="cls-88" points="132.05 77.45 130.45 79.09 131.55 80.37 133.53 79.21 132.05 77.45 132.05 77.45"/>
          </g>
          <path class="cls-91" d="M71.58,82.14s5-7,10.62-7.89c6.6-1,10.32,4.94,4.34,9.3s-9.47,1.6-11.85,1.62a5.27,5.27,0,0,0-3.8,1.8l-2-1.7Z"/>
          <path class="cls-80" d="M135.84,74.43s1.15,2.13,1.94,4A34.38,34.38,0,0,0,142,85.94l6.68,7.83,3.42-6.22s-8.33-7.84-9-9.9a42,42,0,0,1-.85-7.27,5,5,0,0,0-4.46,0C135.59,71.61,135.84,74.43,135.84,74.43Z"/>
          <path class="cls-82" d="M152.46,82.39s-1.4,1.83-2.07,2.93,1.67,4.35,2.07,4.45,6.15-5,6.15-5Z"/>
          <rect class="cls-88" x="98.67" y="106.03" width="13.26" height="4.75"/>
          <g>
            <g>
              <path class="cls-80" d="M153.5,63c.37-.75.65-1.13.29-2.06a5.47,5.47,0,0,1,.43-4.19c1.37-2.07,2.08-2,2.08-2,1.89-.17,7.06,3.56,7.6,4.57a33.68,33.68,0,0,1,2.44,5.06,10.55,10.55,0,0,1,.47,1.68s.16.36.39.79a27.38,27.38,0,0,1-5.68,3.24A2.68,2.68,0,0,0,160,68.65a9,9,0,0,0-2.67,1c-.79.22-2-.11-2-.85,0-.58-.16-.57-.36-.67s-.44-.27-.29-.6c-.32-.13-.7-.18-.45-.6s.18-.63-.44-.91c-.35-.17-1.22-.09-1.24-.55A8.55,8.55,0,0,1,153.5,63Z"/>
              <path class="cls-77" d="M154.88,55.87a20.53,20.53,0,0,0,2.9,3.87A5.26,5.26,0,0,0,161,61c.43-1.22,1.3-1.56,1.78-1.45a2,2,0,0,1,1.32,1.64,5.55,5.55,0,0,1-.26,1.93,41.84,41.84,0,0,1,3,3.13,4.82,4.82,0,0,1,1.19-2.53,7.25,7.25,0,0,0,1.08-5A7.38,7.38,0,0,0,166,53.46C164.12,52,159.47,50.38,154.88,55.87Z"/>
            </g>
            <g>
              <path class="cls-77" d="M166.74,171.12s-8.2,4-10.46,5.42-1.4,2.85-1.4,2.85h16.57s.24-6.46-.23-7.85S166.74,171.12,166.74,171.12Z"/>
              <rect class="cls-78" x="154.71" y="178.45" width="16.74" height="0.93"/>
            </g>
            <g>
              <path class="cls-77" d="M177.17,171.12s-8.2,4-10.47,5.42-1.4,2.85-1.4,2.85h16.58s.23-6.46-.23-7.85S177.17,171.12,177.17,171.12Z"/>
              <rect class="cls-78" x="165.14" y="178.45" width="16.74" height="0.93"/>
            </g>
            <polygon class="cls-92" points="162.17 172.6 162.78 125.31 172.66 130.61 173.9 172.6 162.17 172.6"/>
            <polygon class="cls-81" points="171.9 172.6 169.52 125.31 179.31 129.3 183.11 172.6 171.9 172.6"/>
            <path class="cls-75" d="M167.2,66.84a94.7,94.7,0,0,1,8.59,9.37c3.64,4.72,4.48,14.79,5.32,19.43s.2,12.48.2,12.48l-14.37-1s-1.35-13-4.22-16.41c-1.92-2.25-3.59-3.14-2.89-8.36s1.48-10.74,1.48-10.74Z"/>
            <path class="cls-90" d="M181.16,102.73c1.07.41,6.16,1.28,9.93,4.53s2.71,7.11-1.48,6.69-9.37-8-9.37-8v-1.76s4.29,5.86,7.41,7.09,5.07.16,2.94-2.09-9.43-5-9.43-5Z"/>
            <path class="cls-90" d="M180.65,103c1-.61,4.72-4.16,9.58-5.23s7.31,2.1,4.46,5.2-12,2.68-12,2.68l-1.41-1.06s7.26.08,10.11-1.67,3.18-4,.1-3.61-9.66,4.55-9.66,4.55Z"/>
            <path class="cls-90" d="M160.58,144c0-6.38.88-20,1.46-23.63a131.7,131.7,0,0,1,4.34-17.49l15.16-.82a70.49,70.49,0,0,1,4.87,21.87c.26,7.12.61,15.11.83,20.07Z"/>
            <path class="cls-82" d="M169.19,68.82,168,65.7s-9.15,4.14-7.13,8.35C162.72,71.93,169.19,68.82,169.19,68.82Z"/>
            <path class="cls-90" d="M168.9,101.51s-3.91-10.66-4.66-14-1.05-15.62,6-17.64l-1.05-1.05a15.09,15.09,0,0,0-6.4,4.05c-1.93,2.09-3.29,5.57-3.92,8.78-1.89,9.57,7.24,19.62,7.24,19.62Z"/>
            <path class="cls-75" d="M170.6,72.4c-2.88-.94-5.74,2.79-9.43,7.41a38,38,0,0,1-8.71,7.67L148.2,86l-2.83,6.2s6.81,4.78,9.55,4.15,19.49-8.58,18.87-14A29.37,29.37,0,0,0,170.6,72.4Z"/>
            <path class="cls-82" d="M165.35,91.31s4.77-2.19,6.28-6.17a67,67,0,0,0,2.17-7.66A19.06,19.06,0,0,1,174,85.7c-.94,4.27-8,7.29-8,7.29Z"/>
            <rect class="cls-93" x="166.11" y="101.27" width="15.97" height="2.55" transform="translate(348.18 205.09) rotate(180)"/>
            <path class="cls-82" d="M151.83,86.06a20.06,20.06,0,0,1-1.37,4.11c-.76,1.36-3.12,4.86-3.12,4.86l-3.7-2.77s1.75-4,2.24-5.22a4.92,4.92,0,0,1,2.62-2.7Z"/>
            <path class="cls-76" d="M149.48,89.13s-.71,1.74-1.36,2.92a3.37,3.37,0,0,1-1.82,1.24,15.08,15.08,0,0,1,1.15-2.59A6.39,6.39,0,0,1,149.48,89.13Z"/>
          </g>
          <path class="cls-80" d="M71.56,79.3c-.91.83.7,2.08,1.24,2.59.76.72,1.58-.19,1-1.26S72.61,78.35,71.56,79.3Z"/>
          <path class="cls-80" d="M73.9,85.1l1.61-2.39a1.9,1.9,0,0,1,.63,2.41,7.75,7.75,0,0,0,2.1.74,2.11,2.11,0,0,1-2.07,1.28A2.33,2.33,0,0,1,73.9,85.1Z"/>
          <path class="cls-80" d="M72.79,78.09c-.92.83.69,2.08,1.24,2.6.75.71,1.57-.19,1-1.27S73.84,77.15,72.79,78.09Z"/>
          <path class="cls-80" d="M74.14,76.78c-.91.83.7,2.08,1.24,2.6s1.58-.18,1-1.27S75.19,75.83,74.14,76.78Z"/>
          <path class="cls-80" d="M75.32,75.41c-.92.83.69,2.07,1.24,2.59s1.58-.17,1-1.27S76.37,74.46,75.32,75.41Z"/>
          <polygon class="cls-88" points="68.92 85.27 67.42 87.41 68.89 88.64 70.89 86.97 68.92 85.27 68.92 85.27"/>
          <path class="cls-75" d="M154.22,56.71a45.56,45.56,0,0,0,1.3-6.33c.47-4.79,4.79-5.26,8.91-3.07s11.64,7.13,8.28,11.76a15.89,15.89,0,0,1-4.66,4.61,66.52,66.52,0,0,1-7.42-2.25,17.11,17.11,0,0,1-6.41-4.72Z"/>
          <path class="cls-82" d="M169.84,53.66a16,16,0,0,1-1,3.38c-.47.7-1.65,2.09-1.65,2.09s2.8-.29,3.4-1.62S169.84,53.66,169.84,53.66Z"/>
          <path class="cls-82" d="M161.93,57.51s1.6-2.67,2.5-3.85,2.22-2.82,2.22-2.82a3.79,3.79,0,0,1-.31,3.41C165.25,55.82,161.93,57.51,161.93,57.51Z"/>
          <path class="cls-82" d="M162.66,48.72A5.84,5.84,0,0,0,159.49,51a12.63,12.63,0,0,0-.88,4.49s1.45-1.85,2.85-3.54A10.44,10.44,0,0,0,162.66,48.72Z"/>
          <path class="cls-90" d="M153.91,57.22a32.73,32.73,0,0,0,6.72,5.19A42.86,42.86,0,0,0,167.2,65l1.78-2s-6.15-1.83-8-3.11c-2.39-1.65-6.31-5.07-6.31-5.07l-.78,2.35Z"/>
        </g>
      </g>
    </g>
  </g>
</svg>
