<?xml version="1.0" encoding="utf-8"?>
<!-- Generator: Adobe Illustrator 23.1.0, SVG Export Plug-In . SVG Version: 6.00 Build 0)  -->
<svg version="1.1" id="圖層_1" xmlns="http://www.w3.org/2000/svg" xmlns:xlink="http://www.w3.org/1999/xlink" x="0px" y="0px"
	 viewBox="0 0 226.6 225" style="enable-background:new 0 0 226.6 225;" xml:space="preserve">
<style type="text/css">
	.st0{fill:#D7736B;}
	.st1{opacity:0.5;}
	.st2{fill:#E0884C;}
	.st3{enable-background:new    ;}
	.st4{fill:#FFFFFF;}
	.st5{fill:#D4832C;}
	.st6{fill:#FFC75C;}
	.st7{fill:#E3A836;}
	.st8{fill:url(#SVGID_1_);}
	.st9{fill:url(#SVGID_2_);}
	.st10{fill:url(#SVGID_3_);}
	.st11{fill:#CC4651;}
	.st12{fill:#FFE8A3;}
	.st13{fill:url(#SVGID_4_);}
	.st14{fill:#E89030;}
	.st15{fill:url(#SVGID_5_);}
	.st16{fill:url(#SVGID_6_);}
	.st17{fill:url(#SVGID_7_);}
	.st18{fill:url(#SVGID_8_);}
	.st19{fill:url(#SVGID_9_);}
	.st20{fill:#FFC7CC;}
	.st21{fill:#BF662E;}
	.st22{fill:url(#SVGID_10_);}
	.st23{fill:url(#SVGID_11_);}
	.st24{fill:url(#SVGID_12_);}
	.st25{fill:#7A4231;}
	.st26{fill:#662D1C;}
	.st27{fill:#591E0C;}
	.st28{fill:#9AE48F;}
	.st29{fill:#EBFEA4;}
	.st30{fill:#8FC4E4;}
	.st31{fill:#A4EFFE;}
	.st32{fill:#FF8581;}
	.st33{fill:#FFBDB0;}
	.st34{fill:#FEA4BE;}
	.st35{fill:url(#SVGID_13_);}
	.st36{fill:url(#SVGID_14_);}
	.st37{fill:#FFB8D9;}
	.st38{fill:#FF9CCA;}
	.st39{fill:#FFDFEE;}
	.st40{fill:#FFC4E0;}
	.st41{fill:#C4601D;}
	.st42{fill:#FFEF9A;}
	.st43{fill:#FFE46E;}
	.st44{fill:#F2CB27;}
	.st45{fill:#FFE36D;}
	.st46{fill:#FFF2BD;}
	.st47{fill:#FFF1B5;}
	.st48{fill:#FFF6CF;}
	.st49{fill:#FFCAB5;}
	.st50{fill:#D9730D;}
	.st51{fill:#FFF5CC;}
	.st52{fill:#377335;}
	.st53{fill:#489545;}
	.st54{fill:url(#SVGID_15_);}
	.st55{fill:#C22E2B;}
	.st56{fill:#8C1211;}
	.st57{fill:#E6A250;}
	.st58{opacity:0.7;fill:#F2B0AC;enable-background:new    ;}
	.st59{fill:#FEA49B;}
	.st60{fill:#F5C17D;}
	.st61{fill:#CC3B41;}
	.st62{fill:#A21D22;}
	.st63{fill:#FF9488;}
	.st64{fill:#FF8C94;}
	.st65{fill:#D6BDAB;}
	.st66{fill:#85181C;}
	.st67{fill:#C47269;}
	.st68{fill:#FFB8BD;}
	.st69{fill:#FFD6D9;}
	.st70{fill:#DB4D57;}
	.st71{fill:url(#SVGID_16_);}
	.st72{fill:#C7734A;}
	.st73{fill:#7A3C20;}
	.st74{fill:#A8A8A8;}
	.st75{fill:#3C3C3C;}
	.st76{fill:#30302E;}
	.st77{fill:#ED8A40;}
	.st78{fill:#FFB680;}
	.st79{fill:#606060;}
	.st80{fill:#D8D8D8;}
	.st81{fill:#5B9B31;}
	.st82{fill:#CE5119;}
	.st83{fill:#A83800;}
	.st84{fill:#E25C27;}
	.st85{fill:#8C2B00;}
	.st86{fill:#FDE875;}
	.st87{fill:#FF6C81;}
	.st88{fill:#FF364A;}
	.st89{fill:#FC8C06;}
	.st90{fill:#545454;}
	.st91{fill:#E21A37;}
</style>
<title>資產 1</title>
<rect class="st0" width="225" height="225"/>
<g class="st1">
	<rect y="180.5" class="st2" width="225" height="44.5"/>
</g>
<g class="st3">
	<path class="st4" d="M73.5,196.4H75l1.4,9.1l1.7-9.1h1.3l1.7,9.1l1.3-9.2h1.4l-2,12.7h-1.3l-1.8-9.4l-1.8,9.4h-1.3L73.5,196.4z"/>
	<path class="st4" d="M85.4,196.4h1.7v12.7h-1.7V196.4z"/>
	<path class="st4" d="M90.6,197.8h-2.1v-1.3h6v1.3h-2.1v11.4h-1.8V197.8z"/>
	<path class="st4" d="M95.7,196.4h1.8v5.5h3.3v-5.5h1.8v12.7h-1.8v-5.9h-3.3v5.9h-1.8V196.4z"/>
	<path class="st4" d="M108.1,196.4h4.9v1.3h-3.1v4.2h2.4v1.3h-2.4v5.9h-1.8V196.4z"/>
	<path class="st4" d="M114.2,196.4h2.6c2.5,0,3.7,1,3.7,3.4c0,1.5-0.4,2.6-1.6,3l1.8,6.4H119l-1.7-6H116v6h-1.8V196.4z M116.7,201.9
		c1.5,0,2.1-0.5,2.1-2.1c0-1.5-0.4-2.1-2-2.1H116v4.2H116.7z"/>
	<path class="st4" d="M122.5,196.4h1.7v12.7h-1.7V196.4z"/>
	<path class="st4" d="M126.3,196.4h4.9v1.3H128v4.2h2.6v1.3H128v4.7h3.2v1.3h-5V196.4z"/>
	<path class="st4" d="M132.6,196.4h1.2l3.6,8.4v-8.4h1.5v12.7h-1.1l-3.7-8.7v8.7h-1.5V196.4z"/>
	<path class="st4" d="M140.9,196.4h2.8c2.8,0,3.8,1.3,3.8,3.9v4.7c0,2.7-1,4.2-3.6,4.2h-2.9V196.4z M143.7,207.9c1.9,0,2-1.2,2-3.2
		v-4.1c0-2-0.2-2.8-2-2.8h-1v10.1H143.7z"/>
</g>
<g>
	<g>
		<path class="st5" d="M47.8,90.1C41,91.7,27.3,97.5,29,111.3s56.2,8.1,61.5,4.2s10.3-23,0-24.7S59.1,87.5,47.8,90.1z"/>
		<path class="st6" d="M48.7,88.7c-6.8,1.6-20.5,7.4-18.7,21.2s54.1,8.1,59.4,4.2s11.7-23,1.4-24.7S60,86.1,48.7,88.7z"/>
		<path class="st7" d="M91.7,111.5c4.4-6.5,7.8-20.6-1-22.1c-10.2-1.8-30.7-3.3-42-0.7c-4.5,1-8.7,3-12.4,5.9
			c-2.8,3.5-4,7.9-3.3,12.3C34.6,120.3,83.8,115.4,91.7,111.5z"/>
		
			<linearGradient id="SVGID_1_" gradientUnits="userSpaceOnUse" x1="43.45" y1="123.5163" x2="96.1916" y2="123.5163" gradientTransform="matrix(1 0 0 -1 0 226)">
			<stop  offset="0" style="stop-color:#FFC75C"/>
			<stop  offset="1" style="stop-color:#E69133"/>
		</linearGradient>
		<path class="st8" d="M89.3,114.2c5.3-3.9,11.7-23,1.4-24.7S60,86.1,48.7,88.7c-1.8,0.4-3.5,1-5.2,1.7c11.6-0.6,30.9-0.5,33.5,6
			c2.1,5.2,0.3,14.2-3,21.3C81.6,116.7,87.7,115.3,89.3,114.2z"/>
	</g>
	
		<linearGradient id="SVGID_2_" gradientUnits="userSpaceOnUse" x1="30.6" y1="129.3959" x2="94.73" y2="129.3959" gradientTransform="matrix(1 0 0 -1 0 226)">
		<stop  offset="0" style="stop-color:#F6C4C5"/>
		<stop  offset="1" style="stop-color:#E24A56"/>
	</linearGradient>
	<path class="st9" d="M94.4,89v-0.5c0-0.1,0-0.1,0-0.2c0-0.2,0-0.5-0.1-0.7s0-0.2-0.1-0.3s-0.1-0.4-0.1-0.6s0-0.2-0.1-0.3
		S94,86,93.9,85.9c0-0.1,0-0.2-0.1-0.3c-0.1-0.2-0.1-0.3-0.2-0.5c0-0.1-0.1-0.2-0.1-0.2c-0.1-0.2-0.2-0.4-0.3-0.6c0,0,0-0.1,0-0.1
		c-0.1-0.2-0.3-0.4-0.4-0.6c0-0.1-0.1-0.1-0.1-0.2s-0.2-0.3-0.4-0.4l-0.2-0.2c-0.1-0.1-0.2-0.2-0.4-0.3l-0.2-0.2
		c-0.1-0.1-0.3-0.2-0.4-0.3l-0.3-0.1c-0.2-0.1-0.3-0.2-0.5-0.2l-0.2-0.1c-0.3-0.1-0.5-0.2-0.8-0.2c-2.4-0.5-5.5-0.9-8.8-1.3
		c-1.7-0.2-3.4-0.4-5.2-0.5s-3.6-0.3-5.5-0.3c-2.3-0.1-4.7-0.1-6.9-0.1c-0.5,0-0.9,0-1.3,0c-2.9,0.1-5.9,0.3-8.8,0.8
		c-1.2,0.2-2.2,0.4-3.2,0.7c-0.3,0.1-0.7,0.2-1,0.3h-0.2h-0.1l0,0l-1,0.3l-0.2,0.1c-0.4,0.1-0.7,0.3-1.1,0.4l-0.2,0.1
		c-2.9,1.2-5.6,2.9-8,5l0,0c-1.7,1.6-4-1-5,1.2c-2,3.2-2.4,11.7-1.8,16.8c1.7,14.8,53.2,8.7,58.2,4.6C92.5,106.5,95.8,95.9,94.4,89z
		"/>
	
		<linearGradient id="SVGID_3_" gradientUnits="userSpaceOnUse" x1="30.6" y1="130.1777" x2="94.73" y2="130.1777" gradientTransform="matrix(1 0 0 -1 0 226)">
		<stop  offset="0" style="stop-color:#F6A7A9"/>
		<stop  offset="1" style="stop-color:#D12E3B"/>
	</linearGradient>
	<path class="st10" d="M94.4,89v-0.5c0-0.1,0-0.1,0-0.2c0-0.2,0-0.5-0.1-0.7s0-0.2-0.1-0.3s-0.1-0.4-0.1-0.6s0-0.2-0.1-0.3
		S94,86,93.9,85.9c0-0.1,0-0.2-0.1-0.3c-0.1-0.2-0.1-0.3-0.2-0.5c0-0.1-0.1-0.2-0.1-0.2c-0.1-0.2-0.2-0.4-0.3-0.6c0,0,0-0.1,0-0.1
		c-0.1-0.2-0.3-0.4-0.4-0.6c0-0.1-0.1-0.1-0.1-0.2s-0.2-0.3-0.4-0.4l-0.2-0.2c-0.1-0.1-0.2-0.2-0.4-0.3l-0.2-0.2
		c-0.1-0.1-0.3-0.2-0.4-0.3l-0.3-0.1c-0.2-0.1-0.3-0.2-0.5-0.2l-0.2-0.1c-0.3-0.1-0.5-0.2-0.8-0.2c-2.4-0.5-5.5-0.9-8.8-1.3
		c-1.7-0.2-3.4-0.4-5.2-0.5s-3.6-0.3-5.5-0.3c-2.3-0.1-4.7-0.1-6.9-0.1c-0.5,0-0.9,0-1.3,0c-2.9,0.1-5.9,0.3-8.8,0.8
		c-1.2,0.2-2.2,0.4-3.2,0.7c-0.3,0.1-0.7,0.2-1,0.3h-0.2h-0.1l0,0l-1,0.3l-0.2,0.1c-0.4,0.1-0.7,0.3-1.1,0.4l-0.2,0.1
		c-2.9,1.2-5.6,2.9-8,5l0,0c-1.7,1.6-4-1-5,1.2c-1.4,2.3-2,7-2,11.5c3.9,2.2,8.3,3.6,12.7,4.1c8.1,1.2,17.3-0.7,25.1,2.2
		c3.5,1.4,6.5,3.8,8.7,6.8c6.1-1,10.6-2.2,12-3.3C92.5,106.5,95.8,95.9,94.4,89z"/>
	<path class="st11" d="M94.4,89v-0.5c0-0.1,0-0.1,0-0.2c0-0.2,0-0.5-0.1-0.7s0-0.2-0.1-0.3s-0.1-0.4-0.1-0.6s0-0.2-0.1-0.3
		S94,86,93.9,85.9c0-0.1,0-0.2-0.1-0.3c-0.1-0.2-0.1-0.3-0.2-0.5c0-0.1-0.1-0.2-0.1-0.2c-0.1-0.2-0.2-0.4-0.3-0.6c0,0,0-0.1,0-0.1
		c-0.1-0.2-0.3-0.4-0.4-0.6c0-0.1-0.1-0.1-0.1-0.2s-0.2-0.3-0.4-0.4l-0.2-0.2c-0.1-0.1-0.2-0.2-0.4-0.3l-0.2-0.2
		c-0.1-0.1-0.3-0.2-0.4-0.3l-0.3-0.1c-0.2-0.1-0.3-0.2-0.5-0.2l-0.2-0.1c-0.3-0.1-0.5-0.2-0.8-0.2c-2.4-0.5-5.5-0.9-8.8-1.3
		c-1.7-0.2-3.4-0.4-5.2-0.5s-3.6-0.3-5.5-0.3c-2.3-0.1-4.7-0.1-6.9-0.1c-0.5,0-0.9,0-1.3,0c-2.9,0.1-5.9,0.3-8.8,0.8
		c-1.2,0.2-2.2,0.4-3.2,0.7c-0.3,0.1-0.7,0.2-1,0.3h-0.2h-0.1l0,0l-1,0.3l-0.2,0.1c-0.4,0.1-0.7,0.3-1.1,0.4l-0.2,0.1
		c-2.9,1.2-5.6,2.9-8,5l0,0c-1.7,1.6-4-1-5,1.2c-1.1,1.8-1.7,5.3-1.9,8.9c9.4,9.6,55,4.6,59.9,1c1.5-1.1,3-3.5,4.2-6.4
		C94.8,90.6,94.6,89.8,94.4,89z"/>
	<g>
		<path class="st5" d="M47.8,71.4C41,72.9,27.3,78.2,29,92s56.2,8.1,61.5,4.2s7.2-21.8-3-23.5S59.1,68.8,47.8,71.4z"/>
		<path class="st6" d="M48.7,70c-6.8,1.6-20.5,6.8-18.7,20.6s54.1,8.1,59.4,4.2s7.2-22-1.6-23.5C77.4,69.5,60,67.4,48.7,70z"/>
		<path class="st12" d="M33.9,84.9c0.4,1.5,0.7,3,0.9,4.5l0.1,0.5c0,0.2,0,0.3,0.1,0.3s0.1-0.1,0-0.3s-0.2-0.4-0.2-0.4
			s0.2,0.1,0.3,0.2l0.3,0.2c0.2,0.2,0.5,0.3,0.7,0.4c1,0.5,2.1,1,3.3,1.6c1.4,0.6,2.7,1.4,4,2.2h0.1c0,0.1,0,0.1,0,0.2
			c0,0-0.1,0.1-0.1,0.1c-1.5,0-3-0.1-4.4-0.3c-1.5-0.2-2.9-0.7-4.3-1.3c-0.6-0.4-1.2-0.8-1.8-1.3c-0.2-0.2-0.3-0.3-0.4-0.5
			c-0.1-0.2-0.1-0.4-0.1-0.6c0-0.4,0.1-0.8,0.1-1.1c0.1-0.7,0.2-1.4,0.4-2.2c0.2-0.7,0.4-1.4,0.7-2.1c0-0.1,0.1-0.1,0.2-0.1
			c0,0,0,0,0,0C33.9,84.8,33.9,84.9,33.9,84.9L33.9,84.9z"/>
		
			<linearGradient id="SVGID_4_" gradientUnits="userSpaceOnUse" x1="43.45" y1="142.483" x2="93.808" y2="142.483" gradientTransform="matrix(1 0 0 -1 0 226)">
			<stop  offset="0" style="stop-color:#FFC75C"/>
			<stop  offset="1" style="stop-color:#E69133"/>
		</linearGradient>
		<path class="st13" d="M89.3,94.8c5.3-3.9,7.2-22-1.6-23.5c-10.3-1.8-27.7-3.9-39-1.3c-1.8,0.4-3.5,1-5.2,1.7
			C55,71.1,74.4,70.6,77,77c2.1,5.2,0.3,14.2-3,21.3C81.6,97.4,87.7,96,89.3,94.8z"/>
		<g>
			<g>
				<path class="st14" d="M49.3,75c0,0.8-0.7,1.4-1.5,1.4c-0.8,0-1.4-0.7-1.4-1.5c0-0.8,0.7-1.4,1.5-1.4c0,0,0,0,0,0
					C48.7,73.6,49.3,74.2,49.3,75z"/>
				<path class="st14" d="M57.8,75.2c0,0.8-0.7,1.4-1.5,1.4c-0.8,0-1.4-0.7-1.4-1.5c0-0.8,0.7-1.4,1.5-1.4c0,0,0,0,0,0
					C57.2,73.8,57.8,74.4,57.8,75.2z"/>
				<path class="st14" d="M66.4,75.4c0,0.8-0.6,1.4-1.4,1.4s-1.4-0.6-1.4-1.4s0.6-1.4,1.4-1.4c0,0,0,0,0.1,0
					C65.8,74,66.4,74.6,66.4,75.4z"/>
				<path class="st14" d="M74.9,75.6c0,0.8-0.7,1.4-1.5,1.4c-0.8,0-1.4-0.7-1.4-1.5c0-0.8,0.7-1.4,1.5-1.4
					C74.3,74.2,75,74.8,74.9,75.6C74.9,75.6,74.9,75.6,74.9,75.6z"/>
				
					<linearGradient id="SVGID_5_" gradientUnits="userSpaceOnUse" x1="80.67" y1="150.2005" x2="83.5" y2="150.2005" gradientTransform="matrix(1 0 0 -1 0 226)">
					<stop  offset="0" style="stop-color:#D17941"/>
					<stop  offset="1" style="stop-color:#C25B02"/>
				</linearGradient>
				<path class="st15" d="M83.5,75.8c0,0.8-0.7,1.4-1.5,1.4c-0.8,0-1.4-0.7-1.4-1.5c0-0.8,0.7-1.4,1.5-1.4c0,0,0,0,0,0
					C82.9,74.4,83.5,75,83.5,75.8z"/>
			</g>
			<g>
				<path class="st14" d="M44.2,79.8c0,0.8-0.7,1.4-1.5,1.4c-0.8,0-1.4-0.7-1.4-1.5c0-0.8,0.7-1.4,1.5-1.4c0,0,0,0,0,0
					C43.6,78.3,44.3,79,44.2,79.8z"/>
				<path class="st14" d="M52.8,80c0,0.8-0.7,1.4-1.4,1.4c-0.8,0-1.4-0.7-1.4-1.4c0-0.8,0.7-1.4,1.4-1.4
					C52.2,78.6,52.8,79.2,52.8,80z"/>
				<path class="st14" d="M61.4,80.2c0,0.8-0.7,1.4-1.5,1.4c-0.8,0-1.4-0.7-1.4-1.5c0-0.8,0.7-1.4,1.5-1.4c0,0,0,0,0,0
					C60.8,78.7,61.4,79.4,61.4,80.2z"/>
				<path class="st14" d="M69.9,80.4c0,0.8-0.7,1.4-1.5,1.4c-0.8,0-1.4-0.7-1.4-1.5c0-0.8,0.7-1.4,1.5-1.4c0,0,0,0,0,0
					C69.3,79,69.9,79.6,69.9,80.4z"/>
				<path class="st14" d="M78.5,80.6c0,0.8-0.7,1.4-1.5,1.4c-0.8,0-1.4-0.7-1.4-1.5c0-0.8,0.7-1.4,1.5-1.4c0,0,0,0,0,0
					C77.9,79.2,78.5,79.8,78.5,80.6z"/>
				
					<linearGradient id="SVGID_6_" gradientUnits="userSpaceOnUse" x1="84.71" y1="145.2105" x2="87.54" y2="145.2105" gradientTransform="matrix(1 0 0 -1 0 226)">
					<stop  offset="0" style="stop-color:#D17941"/>
					<stop  offset="1" style="stop-color:#C25B02"/>
				</linearGradient>
				<path class="st16" d="M87.5,80.8c0,0.8-0.7,1.4-1.5,1.4c-0.8,0-1.4-0.7-1.4-1.5c0-0.8,0.7-1.4,1.5-1.4
					C86.9,79.4,87.6,80,87.5,80.8C87.5,80.8,87.5,80.8,87.5,80.8z"/>
			</g>
			<g>
				<path class="st14" d="M49,84.8c0,0.8-0.7,1.4-1.4,1.4c-0.8,0-1.4-0.7-1.4-1.4c0-0.8,0.7-1.4,1.4-1.4C48.4,83.3,49,84,49,84.8
					C49,84.8,49,84.8,49,84.8z"/>
				<path class="st14" d="M57.6,85c0,0.8-0.7,1.4-1.5,1.4c-0.8,0-1.4-0.7-1.4-1.5c0-0.8,0.7-1.4,1.4-1.4C57,83.6,57.6,84.2,57.6,85
					C57.6,85,57.6,85,57.6,85z"/>
				<path class="st14" d="M66.1,85.2c0,0.8-0.7,1.4-1.5,1.4c-0.8,0-1.4-0.7-1.4-1.5c0-0.8,0.7-1.4,1.5-1.4c0,0,0,0,0,0
					C65.5,83.8,66.2,84.4,66.1,85.2z"/>
				<path class="st14" d="M74.7,85.4c0,0.8-0.6,1.4-1.4,1.4s-1.4-0.6-1.4-1.4c0-0.8,0.6-1.4,1.4-1.4c0,0,0,0,0.1,0
					C74.1,84,74.7,84.6,74.7,85.4z"/>
				
					<linearGradient id="SVGID_7_" gradientUnits="userSpaceOnUse" x1="80.4206" y1="140.4205" x2="83.2606" y2="140.4205" gradientTransform="matrix(1 0 0 -1 0 226)">
					<stop  offset="0" style="stop-color:#D17941"/>
					<stop  offset="1" style="stop-color:#C25B02"/>
				</linearGradient>
				<path class="st17" d="M83.3,85.6c0,0.8-0.7,1.4-1.5,1.4c-0.8,0-1.4-0.7-1.4-1.5c0-0.8,0.7-1.4,1.5-1.4
					C82.7,84.2,83.3,84.8,83.3,85.6C83.3,85.6,83.3,85.6,83.3,85.6z"/>
			</g>
			<g>
				<path class="st14" d="M44,89.5c0,0.8-0.7,1.4-1.5,1.4s-1.4-0.7-1.4-1.5c0-0.8,0.7-1.4,1.5-1.4C43.4,88.1,44,88.8,44,89.5
					C44,89.5,44,89.5,44,89.5z"/>
				<path class="st14" d="M52.6,89.8c0,0.8-0.7,1.4-1.5,1.4c-0.8,0-1.4-0.7-1.4-1.5c0-0.8,0.7-1.4,1.5-1.4c0,0,0,0,0,0
					C52,88.3,52.6,89,52.6,89.8z"/>
				<path class="st14" d="M61.1,90c0,0.8-0.7,1.4-1.5,1.4c-0.8,0-1.4-0.7-1.4-1.5c0-0.8,0.7-1.4,1.5-1.4c0,0,0,0,0,0
					C60.5,88.6,61.1,89.2,61.1,90z"/>
				<path class="st14" d="M69.7,90.2c0,0.8-0.7,1.4-1.5,1.4c-0.8,0-1.4-0.7-1.4-1.5c0-0.8,0.7-1.4,1.5-1.4c0,0,0,0,0,0
					C69.1,88.7,69.7,89.4,69.7,90.2C69.7,90.2,69.7,90.2,69.7,90.2z"/>
				
					<linearGradient id="SVGID_8_" gradientUnits="userSpaceOnUse" x1="75.4106" y1="135.6503" x2="78.2506" y2="135.6503" gradientTransform="matrix(1 0 0 -1 0 226)">
					<stop  offset="0" style="stop-color:#D17941"/>
					<stop  offset="1" style="stop-color:#C25B02"/>
				</linearGradient>
				<path class="st18" d="M78.3,90.4c0,0.8-0.7,1.4-1.5,1.4c-0.8,0-1.4-0.7-1.4-1.5c0-0.8,0.7-1.4,1.4-1.4
					C77.6,88.9,78.3,89.6,78.3,90.4C78.3,90.4,78.3,90.4,78.3,90.4z"/>
				
					<linearGradient id="SVGID_9_" gradientUnits="userSpaceOnUse" x1="84.4603" y1="135.4205" x2="87.3003" y2="135.4205" gradientTransform="matrix(1 0 0 -1 0 226)">
					<stop  offset="0" style="stop-color:#D17941"/>
					<stop  offset="1" style="stop-color:#C25B02"/>
				</linearGradient>
				<path class="st19" d="M87.3,90.6c0,0.8-0.7,1.4-1.5,1.4c-0.8,0-1.4-0.7-1.4-1.5c0-0.8,0.7-1.4,1.5-1.4c0,0,0,0,0,0
					C86.7,89.2,87.3,89.8,87.3,90.6z"/>
			</g>
		</g>
	</g>
	<path class="st20" d="M46.9,106.5c-1.2-1.6-2.9-2.6-4.9-2.8c-1.5-0.3-3.9-0.6-5.4,0.1c-0.2,0.1-0.3,0.2-0.5,0.3l0,0
		c-0.4,0.3-0.6,0.7-0.7,1.2c-0.8,2.4,2.3,4.7,5.2,5.4c1.7,0.4,4.3,0.9,5.7-0.3C47.6,109.3,47.8,107.7,46.9,106.5z"/>
</g>
<g>
	<g>
		<path class="st21" d="M119.1,120.1l-13.4,8.4c27.2,29.4,32.6,28.5,35.5,26.7s6-6.3-8.6-43.6L119.1,120.1z"/>
		<path class="st14" d="M123.3,117.5l-1.4,7.6l-7.5-2l-7.1,4.5l-0.4,2.3c1,1,1.9,2,2.8,2.9l1.4-7.3l10.3,2.8l-2,10.5l-5.3-1.4
			c2.8,2.8,5.3,5.3,7.5,7.3l0.3-1.8l10.3,2.8l-1.3,6.8c1,0.7,2,1.3,3,1.9l1.5-7.9l8.3,2.2c-0.1-1.2-0.2-2.3-0.4-3.5l-7.3-2l2-10.5
			l2.4,0.6c-0.4-1.2-0.8-2.4-1.2-3.7l-0.6-0.2l0.2-1.1c-0.7-1.9-1.4-4-2.2-6.2l-1.2,6.4l-10.3-2.8l2-10.5l7.8,2.1
			c-0.5-1.2-0.9-2.5-1.4-3.8l-2.9-0.8L123.3,117.5z M134.7,131.9l-2,10.5l-10.3-2.8l2-10.5L134.7,131.9z"/>
		
			<linearGradient id="SVGID_10_" gradientUnits="userSpaceOnUse" x1="-279.2198" y1="-328.6798" x2="-247.4798" y2="-328.6798" gradientTransform="matrix(0.85 -0.53 -0.53 -0.85 179.44 -281.18)">
			<stop  offset="0" style="stop-color:#BF662E"/>
			<stop  offset="1" style="stop-color:#874734"/>
		</linearGradient>
		<path class="st22" d="M132.6,111.7l-13.4,8.4l-13.4,8.4l3.1,3.3c4.4-0.1,10.2-4,18.5-2.9c4.3,0.6,10.9,17.6,14.9,25.4
			C144.5,151.9,145.4,144.6,132.6,111.7z"/>
		<g>
			
				<linearGradient id="SVGID_11_" gradientUnits="userSpaceOnUse" x1="-278.8998" y1="-321.729" x2="-247.8998" y2="-321.729" gradientTransform="matrix(0.85 -0.53 -0.53 -0.85 179.44 -281.18)">
				<stop  offset="0" style="stop-color:#D17941"/>
				<stop  offset="1" style="stop-color:#C25B02"/>
			</linearGradient>
			<path class="st23" d="M107.1,130.1l0.5,0.5l1,1.1l0.2,0.2c0.3,0,0.7,0,1-0.1l1.2-6.3l10.3,2.8l-0.1,0.7c2-0.3,4.1-0.3,6.2,0
				c0.9,0.2,1.8,0.8,2.3,1.6l5.1,1.4l-0.9,5c0.8,1.5,1.6,3.1,2.4,4.8l1.7-8.9l2.4,0.6c-0.4-1.2-0.8-2.4-1.2-3.7l-0.6-0.2l0.2-1.1
				c-0.7-1.9-1.4-4-2.2-6.2l-1.2,6.4L125,126l2-10.5l7.8,2.1c-0.5-1.2-0.9-2.5-1.4-3.8l0,0l-2.9-0.8l-7.1,4.5l-1.4,7.6l-7.5-2
				l-7.1,4.5l-0.4,2.3L107.1,130.1z"/>
			
				<linearGradient id="SVGID_12_" gradientUnits="userSpaceOnUse" x1="-261.1298" y1="-341.3221" x2="-256.2798" y2="-341.3221" gradientTransform="matrix(0.85 -0.53 -0.53 -0.85 179.44 -281.18)">
				<stop  offset="0" style="stop-color:#D17941"/>
				<stop  offset="1" style="stop-color:#C25B02"/>
			</linearGradient>
			<path class="st24" d="M143.6,148.7c-0.1-1.2-0.2-2.3-0.4-3.5l-6.1-1.6c0.6,1.3,1.2,2.6,1.8,3.9L143.6,148.7L143.6,148.7z"/>
		</g>
	</g>
	<g>
		<path class="st25" d="M126.7,94.2c-6.3-9.6-19.2-12.3-28.8-6c-9.4,6.1-12.2,18.6-6.5,28.2c1,1.6,2.2,3,3.6,4.3
			c4.8,6.4,10.6,15.8,14.6,16.4c1.8,0.3,3-2.3,2.1-5.7c-2-6.8,7.3,2.4,13.2,0.6c5.8-1.8-0.8-12.4,2.1-14.2s6.9,4.3,9.2-1.1
			c1.4-3.2-4.1-11.7-7.4-18C128.3,97.1,127.6,95.6,126.7,94.2z"/>
		<path class="st26" d="M126.7,94.2c-6.1-9.7-19-12.7-28.7-6.5c-1.7,1.1-3.3,2.4-4.6,4c5.9,3.2,10.2,8.6,12.1,15
			c2,7.5,0.1,15.5-5.1,21.4c3.3,4.6,6.7,8.6,9.3,9c1.8,0.3,3-2.3,2.1-5.7c-2-6.8,7.3,2.4,13.2,0.6s-0.8-12.4,2.1-14.2
			c2.9-1.8,6.9,4.3,9.2-1.1c1.4-3.2-4.1-11.7-7.4-18C128.3,97.1,127.6,95.6,126.7,94.2z"/>
		<path class="st27" d="M136.3,116.7c1.4-3.2-4.1-11.7-7.4-18c-3.6-10.9-15.5-16.8-26.4-13.2c-0.6,0.2-1.2,0.4-1.8,0.7
			c13.2,6.3,26.2,16.6,28.4,31.2C131.5,118.1,134.4,120.9,136.3,116.7z"/>
	</g>
	<g>
		<path class="st28" d="M88.6,92.7c2.2,0.2,3.8,2.9,3.5,6s-2.3,5.5-4.6,5.3s-3.8-2.9-3.5-6S86.4,92.4,88.6,92.7z"/>
		<path class="st29" d="M85.1,98c0.3-2.9,2-5.1,4-5.3c-0.2-0.1-0.3-0.1-0.5-0.1c-2.2-0.2-4.3,2.2-4.6,5.3s1.3,5.8,3.5,6
			c0.2,0,0.3,0,0.5,0C86.2,103.4,84.8,100.9,85.1,98z"/>
	</g>
	<g>
		<path class="st30" d="M118.1,85.7c-0.3,2.5-3.4,4.1-6.9,3.6s-6-2.9-5.7-5.4s3.4-4.1,6.9-3.6S118.5,83.2,118.1,85.7z"/>
		<path class="st31" d="M112.3,81.4c3.2,0.4,5.6,2.5,5.7,4.8c0.1-0.2,0.1-0.4,0.1-0.6c0.3-2.5-2.2-4.9-5.7-5.4s-6.6,1.1-6.9,3.6
			c0,0.2,0,0.4,0,0.6C106.2,82.3,109.1,81,112.3,81.4z"/>
	</g>
	<g>
		<path class="st32" d="M100,100.3c2.3,0.9,3.2,4.3,2,7.6s-4.2,5.2-6.5,4.3s-3.2-4.3-2-7.6S97.7,99.4,100,100.3z"/>
		<path class="st33" d="M94.6,105c1.2-3,3.7-4.9,6-4.5c-0.2-0.1-0.3-0.2-0.5-0.3c-2.3-0.9-5.3,1-6.5,4.3s-0.4,6.7,2,7.6
			c0.2,0.1,0.4,0.1,0.6,0.2C94.1,111.1,93.4,108,94.6,105z"/>
	</g>
	<g>
		<path class="st34" d="M101.7,95.5c-0.1,0.4-1.3,0.6-2.7,0.3s-2.4-0.9-2.3-1.4s1.3-0.6,2.7-0.3S101.8,95,101.7,95.5z"/>
		<path class="st34" d="M124.2,104c-0.1,0.4-1.3,0.6-2.7,0.3s-2.4-0.9-2.3-1.4s1.3-0.6,2.7-0.3S124.3,103.6,124.2,104z"/>
		<path class="st34" d="M113.1,99.4c0.5,0,0.9,1.1,0.9,2.5s-0.3,2.5-0.8,2.6s-0.9-1.1-0.9-2.5S112.7,99.5,113.1,99.4z"/>
		<path class="st31" d="M123.1,92.7c0.3,0.3-0.3,1.4-1.3,2.3s-2.1,1.4-2.4,1.1s0.3-1.4,1.3-2.3S122.8,92.4,123.1,92.7z"/>
		<path class="st31" d="M105.8,110.5c0.3-0.4,1.4,0,2.5,0.9s1.8,1.8,1.5,2.2s-1.4,0-2.5-0.9S105.5,110.9,105.8,110.5z"/>
		<path class="st6" d="M108.2,94.4c0.4,0.2,0.3,1.4-0.3,2.6s-1.4,2.1-1.8,1.9s-0.3-1.4,0.3-2.6S107.8,94.3,108.2,94.4z"/>
		<path class="st6" d="M100.3,116.7c0.4-0.3,1.3,0.5,2,1.7s1,2.3,0.6,2.6s-1.3-0.5-2-1.7S100,117,100.3,116.7z"/>
	</g>
</g>
<g>
	<g>
		<g>
			<path class="st6" d="M135.3,146.7l6.5,25.6c0,3.5,6.6,6.4,14.7,6.4s14.6-2.8,14.6-6.4l5.2-25.6H135.3z"/>
			
				<linearGradient id="SVGID_13_" gradientUnits="userSpaceOnUse" x1="135.32" y1="63.795" x2="176.32" y2="63.795" gradientTransform="matrix(1 0 0 -1 0 226)">
				<stop  offset="0" style="stop-color:#FFC75C"/>
				<stop  offset="1" style="stop-color:#E69133"/>
			</linearGradient>
			<path class="st35" d="M171.1,172.2l5.2-25.6h-41l1.1,4.1c3.3,3.3,12.9,6.9,22.4,6.9c5.5,0,5.6,11.8,5,20
				C168.2,176.6,171.1,174.6,171.1,172.2z"/>
		</g>
		
			<linearGradient id="SVGID_14_" gradientUnits="userSpaceOnUse" x1="135.32" y1="74.3706" x2="176.32" y2="74.3706" gradientTransform="matrix(1 0 0 -1 0 226)">
			<stop  offset="0" style="stop-color:#E8AA33"/>
			<stop  offset="1" style="stop-color:#CC7310"/>
		</linearGradient>
		<path class="st36" d="M176.3,146.7h-41l2,7.9c1.5,0,2.9,0,4.4-0.2c0.1,0.7,0.2,1.5,0.4,2.2c3,0.2,6-0.1,8.9-0.9c0,0,0,0.1,0,0.1
			c3.6,0.6,7.3,0.5,10.9-0.3c1.1,0.5,2.3,0.6,3.5,0.5c3.2-0.2,6.4-0.9,9.4-2.1L176.3,146.7z"/>
	</g>
	<g>
		<path class="st37" d="M157.3,124.3c-9.7-11-2.8-15.1-2.8-15.1h-0.1c-0.1-0.1-0.9-0.5-4.6,1.8c-4,2.4,1.1,8.7,0.3,10.2
			s-3.2,1.6-6.4,1.1s-8.7,4.9-5.5,10c4.1,6.5,16.1,7.9,18.6,8.2l0,0h0.4h0.1h0.1l0,0C157.3,140.4,167.1,135.3,157.3,124.3z"/>
		<path class="st38" d="M161.9,121.7c-12.6-7.3-7.5-13.7-7.5-13.7l-0.1,0.1c-0.1,0-1-0.2-3.7,3.3c-2.9,3.8,3.9,8.1,3.6,9.7
			s-2.4,2.6-5.6,3.2s-8.8,6.6-1.8,11.6c6.2,4.5,17.5,2.1,19.9,1.5l0,0l0.4-0.1l0,0h0.1l0.1-0.1l0,0
			C167.2,137.3,174.5,128.9,161.9,121.7z"/>
		<g>
			<path class="st39" d="M155.3,106.1c0,0-4.6,7.7,10.8,13.5s8.6,15.9,8.6,15.9s-14.3,6.1-23,1.9s-3.4-11.6,0-12.8s5.7-2.6,5.7-4.4
				s-8.3-5.3-5.7-9.9S155.3,106.1,155.3,106.1z"/>
			<path class="st40" d="M151.8,137.3c8.6,4.2,23-1.9,23-1.9s6.7-10.2-8.6-15.9S155.4,106,155.4,106s-6.3,4.5,7,16.4
				c4.9,4.4-13.3,4.1-13.2,13.2C150,136.3,150.9,136.8,151.8,137.3z"/>
			<path class="st37" d="M167.8,120.3c0.1,0.2,6.3,12.9-7.5,18.5l0,0c4.9-0.4,9.8-1.5,14.3-3.3C174.7,135.5,180.8,126.1,167.8,120.3
				z"/>
		</g>
		<path class="st39" d="M158.4,129.5c-5.6-3-22.9-7.7-23.4,8.7c0,0,16.8,15.5,25.7-2.1C160.7,136.2,164,132.6,158.4,129.5z"/>
		<path class="st40" d="M165.6,154.7c6.3-0.3,22.3-3.7,14.1-17.9c0,0-21.2-6.1-19.6,13.5C160.1,150.2,159.2,155,165.6,154.7z"/>
		<path class="st37" d="M160.4,131c-1.9-1.6-8.8,1.1-8.8,1.1s-24.1-0.2-20,16.8c0,0,18.3,2.4,28.1-13.8l0,0
			C161.8,132.3,161.6,131.3,160.4,131z"/>
		<path class="st38" d="M162.9,129.1c0,0-24.1,1.6-18.7,18.3c0,0,18.4,1,27-15.9l0,0C173,128.4,162.9,129.1,162.9,129.1z"/>
		<path class="st37" d="M175.3,131.3c-6.3-0.9-24.1,0.8-18.9,16.3c0,0,21.1,8.7,23.4-10.9C179.8,136.7,181.6,132.2,175.3,131.3z"/>
		<g>
			<path class="st39" d="M154,139.1c0,0-23.8-4-22.4,13.4c10.9,1.9,22-1.5,29.9-9.1C172.5,133.1,154,139.1,154,139.1z"/>
			<path class="st38" d="M161.5,143.4c6.9-7.2,5.4-6,1.5-5.2c-2.5,1.1-5.1,1.8-7.7,2.3c0,0-18-2.1-23.8,12.1
				C142.5,154.8,153.8,151.4,161.5,143.4z"/>
		</g>
		<g>
			<path class="st39" d="M162.2,138.3c0,0-24.1,0-19.9,16.9c9.7-3.9,19.1-8.6,28-14C180,135.5,162.2,138.3,162.2,138.3z"/>
			<path class="st40" d="M170.3,141.2c5.6-8.2-6.6-1.8-6.6-1.8s-18.1,0.9-21.4,15.9C153.4,155.7,164,150.4,170.3,141.2z"/>
		</g>
		<g>
			<path class="st39" d="M172.2,137.2c0,0-24-1.5-21,17.3c11.5,1.7,22.9-3.6,28.9-13.6C185.6,132.1,172.2,137.2,172.2,137.2z"/>
			<path class="st38" d="M180.1,140.9c5.6-9-6.5-2.4-6.5-2.4s-18.1-0.1-22.4,16C151.2,154.5,169,158.5,180.1,140.9z"/>
		</g>
	</g>
	<g>
		<g>
			<path class="st6" d="M144.9,128.6c-0.6,1.3-2,1.8-3.3,1.3c-1.3-0.6-1.8-2-1.3-3.3c0.6-1.3,2-1.8,3.3-1.3c0,0,0,0,0,0
				C144.9,125.8,145.4,127.3,144.9,128.6C144.9,128.6,144.9,128.6,144.9,128.6z"/>
			<path class="st12" d="M143,125.1c-1.1-0.9-2.6-0.7-3.5,0.3c-0.9,1.1-0.7,2.6,0.3,3.5s2.6,0.7,3.5-0.3c0.1-0.2,0.3-0.4,0.4-0.6
				C144.1,127,143.9,125.8,143,125.1z"/>
		</g>
		<g>
			<path class="st6" d="M155.7,123.2c-0.6,1.3-2,1.8-3.3,1.3s-1.8-2-1.3-3.3c0.6-1.3,2-1.8,3.3-1.3c0,0,0,0,0,0
				C155.7,120.5,156.3,122,155.7,123.2z"/>
			<path class="st12" d="M153.8,119.7c-1.1-0.9-2.6-0.7-3.5,0.3c-0.9,1.1-0.7,2.6,0.3,3.5s2.6,0.7,3.5-0.3c0.1-0.2,0.3-0.4,0.4-0.6
				C154.9,121.6,154.7,120.4,153.8,119.7z"/>
		</g>
		<g>
			<path class="st6" d="M159.7,115.8c-0.6,1.3-2,1.8-3.3,1.3c-1.3-0.6-1.8-2-1.3-3.3s2-1.8,3.3-1.3c0,0,0,0,0,0
				C159.7,113.1,160.3,114.5,159.7,115.8C159.7,115.8,159.7,115.8,159.7,115.8z"/>
			<path class="st12" d="M157.8,112.3c-1-0.9-2.6-0.7-3.5,0.3s-0.7,2.6,0.3,3.5c1,0.9,2.6,0.7,3.5-0.3c0.1-0.2,0.3-0.4,0.4-0.6
				C158.9,114.2,158.6,113,157.8,112.3z"/>
		</g>
		<g>
			<circle class="st6" cx="166.2" cy="124.1" r="2.5"/>
			<path class="st12" d="M166.6,121.6c-1.1-0.9-2.6-0.8-3.5,0.3c-0.9,1.1-0.8,2.6,0.3,3.5c1.1,0.9,2.6,0.8,3.5-0.3
				c0.1-0.2,0.3-0.4,0.4-0.6C167.7,123.6,167.4,122.4,166.6,121.6z"/>
		</g>
		<g>
			<path class="st6" d="M159,134.5c-0.6,1.3-2,1.8-3.3,1.3c-1.3-0.6-1.8-2-1.3-3.3s2-1.8,3.3-1.3c0,0,0,0,0,0
				C159,131.8,159.6,133.2,159,134.5z"/>
			<path class="st12" d="M157.1,131c-1.1-0.9-2.6-0.7-3.5,0.3s-0.7,2.6,0.3,3.5c1.1,0.9,2.6,0.7,3.5-0.3c0.1-0.2,0.3-0.4,0.4-0.6
				C158.2,132.9,158,131.7,157.1,131z"/>
		</g>
		<g>
			<path class="st6" d="M138.9,139.2c-0.6,1.3-2,1.8-3.3,1.3c-1.3-0.6-1.8-2-1.3-3.3s2-1.8,3.3-1.3c0,0,0,0,0,0
				C138.9,136.5,139.5,137.9,138.9,139.2C138.9,139.2,138.9,139.2,138.9,139.2z"/>
			<path class="st12" d="M137,135.7c-1.1-0.9-2.6-0.7-3.5,0.3s-0.7,2.6,0.3,3.5c1.1,0.9,2.6,0.7,3.5-0.3c0.1-0.2,0.3-0.4,0.4-0.6
				C138.1,137.6,137.9,136.4,137,135.7z"/>
		</g>
		<g>
			<path class="st6" d="M175.5,136.7c-0.6,1.3-2,1.8-3.3,1.2s-1.8-2-1.2-3.3c0.6-1.2,2-1.8,3.3-1.2C175.5,134,176,135.5,175.5,136.7
				C175.5,136.7,175.5,136.7,175.5,136.7z"/>
			<path class="st12" d="M173.6,133.3c-1.1-0.9-2.6-0.7-3.5,0.3s-0.7,2.6,0.3,3.5s2.6,0.7,3.5-0.3c0.1-0.2,0.3-0.4,0.4-0.6
				C174.7,135.2,174.4,134,173.6,133.3z"/>
		</g>
		<g>
			<path class="st6" d="M151.6,142.4c-0.6,1.3-2.1,1.8-3.3,1.2c-1.3-0.6-1.8-2.1-1.2-3.3c0.6-1.3,2-1.8,3.3-1.2
				C151.6,139.7,152.2,141.2,151.6,142.4C151.6,142.4,151.6,142.4,151.6,142.4z"/>
			<path class="st12" d="M149.7,139c-1.1-0.9-2.6-0.7-3.5,0.3s-0.7,2.6,0.3,3.5c1.1,0.9,2.6,0.7,3.5-0.3c0.1-0.2,0.3-0.4,0.4-0.6
				C150.8,140.9,150.6,139.7,149.7,139z"/>
		</g>
		<g>
			<path class="st6" d="M165,143.1c-0.6,1.3-2,1.8-3.3,1.3c-1.3-0.6-1.8-2-1.3-3.3s2-1.8,3.3-1.3c0,0,0,0,0,0
				C165,140.4,165.6,141.9,165,143.1C165,143.1,165,143.1,165,143.1z"/>
			<path class="st12" d="M163.1,139.7c-1.1-0.9-2.6-0.7-3.5,0.3s-0.7,2.6,0.3,3.5c1.1,0.9,2.6,0.7,3.5-0.3c0.1-0.2,0.3-0.4,0.4-0.6
				C164.2,141.6,163.9,140.4,163.1,139.7z"/>
		</g>
	</g>
</g>
<g>
	<g>
		<path class="st41" d="M7.3,157.9v7.3c2.4,7.3,14,12.8,27.9,12.8s25.5-5.5,27.9-12.8v-7.4L7.3,157.9z"/>
		<path class="st42" d="M7.3,139.5v20.7c2.4,7.3,14,12.8,27.9,12.8s25.5-5.5,27.9-12.8v-20.7H7.3z"/>
		<path class="st43" d="M63,165.2v-25.7H45.4c-1,1-3,1.9-3,3.8c0,11.1-0.4,23.1,0.1,34.2C53,175.9,61.1,171.1,63,165.2z"/>
		<path class="st44" d="M6.8,132l0.4,7.7c2.4,7.3,14,12.8,27.9,12.8S60.6,147,63,139.7l0.5-7.7L6.8,132z"/>
		<path class="st45" d="M63.5,132c0,8.6-12.7,15.6-28.3,15.6s-28.3-7-28.3-15.6s12.7-15.6,28.3-15.6S63.5,123.4,63.5,132z"/>
		<path class="st46" d="M63.5,132c0,7.5-11.8,13.5-26.5,13.5s-26.5-6-26.5-13.5s11.8-13.5,26.4-13.5S63.5,124.6,63.5,132z"/>
		<path class="st47" d="M63,139.8c0-0.3,0-0.5,0-0.8c0-7.5-12.5-13.5-27.9-13.5S7.3,131.6,7.3,139c0,0.3,0,0.5,0,0.8
			c2.4,7.2,14,12.7,27.8,12.7S60.5,147.1,63,139.8z"/>
		<path class="st48" d="M25.9,155.8c0.1-1.6-0.9-3.1-2.3-3.8c-1-0.6-2.1-1-3.3-1.1c-1.7-0.3-2.4-1-4-1.4c-3.9-1.1-6.3,2.9-5.3,5.9
			c0,0.2,0,0.3,0,0.5c0,2-0.4,3.9,0,5.7c-0.2,1.3,0,2.6,0.5,3.8c1.4,2.4,4.7,3.5,7.2,4.2C26.5,171.5,25.9,160.6,25.9,155.8z"/>
		<path class="st44" d="M52.2,132.8c0,3.5-7.6,6.3-16.9,6.3s-16.9-2.8-16.9-6.3s7.6-6.3,16.9-6.3S52.2,129.3,52.2,132.8z"/>
		<path class="st49" d="M63.4,134.3c0,4.3-9.4,7.8-21,7.8s-21-3.5-21-7.8s9.4-7.8,21-7.8S63.4,130,63.4,134.3z"/>
		<path class="st50" d="M47.7,131.9c-4.2,3.6-11.8,4.8-18,5.2c-3.8,0.2-7.3-2.4-8-6.2c-0.3,9,13.7,7.6,19.2,7.3
			c3.6-0.2,7.8-2.4,9.6-5.7c0.8-1.7,1.2-3.5,1.2-5.4C50.7,129,49.3,130.6,47.7,131.9z"/>
		<path class="st51" d="M35.1,146.4c0,0-0.5,0-1.4,0.1c-0.5,0-1,0-1.7,0h-1l-1.1-0.1c-1.8-0.1-3.6-0.3-5.4-0.7c-1-0.2-2-0.4-3-0.7
			s-2-0.6-3-1s-1.9-0.9-2.9-1.4c-0.9-0.5-1.8-1-2.6-1.6c-0.8-0.6-1.5-1.2-2.2-1.9c-0.6-0.6-1.1-1.3-1.6-2.1c-0.4-0.6-0.7-1.3-0.9-2
			c-0.1-0.3-0.2-0.6-0.2-0.9C8,133.9,8,133.7,8,133.5c0-0.4,0-0.7,0-1.1c0-0.3,0-0.4,0-0.4s0,0.1,0.1,0.4c0,0.3,0.1,0.7,0.2,1
			c0.1,0.2,0.1,0.4,0.2,0.7s0.2,0.5,0.3,0.8c0.3,0.6,0.7,1.2,1.1,1.8c0.5,0.6,1.1,1.2,1.7,1.8c0.7,0.6,1.4,1.2,2.2,1.7
			c0.8,0.5,1.6,1,2.5,1.5s1.8,0.9,2.8,1.3s1.9,0.7,2.9,1s1.9,0.6,2.9,0.8s1.9,0.4,2.7,0.6s1.7,0.3,2.5,0.4s1.5,0.2,2.1,0.3l1.6,0.2
			L35.1,146.4z"/>
	</g>
	<g>
		<g>
			<path class="st52" d="M46,113.1c3.2-2.7,4.8-6,3.8-7.2s-4.5,0-7.7,2.7s-4.8,5.9-3.8,7.2S42.9,115.8,46,113.1z"/>
			<path class="st52" d="M49.6,118.9c3.6-2.1,5.9-5,5-6.4s-4.4-0.8-8,1.3s-5.9,5-5,6.4S46,121,49.6,118.9z"/>
			<path class="st53" d="M49.5,115c3.2-2.7,4.8-6,3.8-7.2s-4.5,0-7.7,2.7s-4.8,6-3.8,7.2S46.4,117.7,49.5,115z"/>
			<path class="st53" d="M51.9,120.7c3.7-1.9,6.2-4.6,5.4-6.1s-4.4-1.1-8.1,0.8s-6.2,4.6-5.4,6.1S48.2,122.5,51.9,120.7z"/>
			<path class="st53" d="M40.5,107.5c2.4-3.4,5.4-5.4,6.8-4.5s0.5,4.5-1.9,7.9s-5.4,5.4-6.8,4.5S38.1,110.9,40.5,107.5z"/>
		</g>
		<g>
			
				<linearGradient id="SVGID_15_" gradientUnits="userSpaceOnUse" x1="-916.3226" y1="-298.3709" x2="-888.385" y2="-298.3709" gradientTransform="matrix(-0.65 -0.76 -0.76 0.65 -775.17 -365.46)">
				<stop  offset="0" style="stop-color:#940F10"/>
				<stop  offset="1" style="stop-color:#D42D26"/>
			</linearGradient>
			<path class="st54" d="M29.4,110.8c7.7-6.7,13.8-3.7,18.8,2.2s7.1,12.3-0.5,18.9c-4.2,3.6-11.8,4.8-18,5.2c-4.2,0.3-7.9-3-8.1-7.2
				c0-0.7,0-1.3,0.1-2C23,121.9,25.3,114.4,29.4,110.8z"/>
			<path class="st55" d="M30.2,110.2c5.6-4.8,10.1-2.7,13.7,1.6s5.2,9-0.4,13.8c-3,2.6-8.6,3.5-13.1,3.8c-3.1,0.2-5.7-2.2-5.9-5.3
				c0-0.5,0-1,0.1-1.4C25.5,118.3,27.1,112.8,30.2,110.2z"/>
			<g>
				<path class="st56" d="M45.4,125c-0.2-0.3-0.3-0.7-0.1-1c0.2-0.5,0.4-0.9,0.8-1.3c1.1-0.9,1.8-0.3,2,0s0.8,1-0.3,2
					c-0.4,0.3-0.9,0.5-1.4,0.6C46,125.4,45.6,125.3,45.4,125z"/>
				<path class="st56" d="M41.8,129.7c-0.2-0.3-0.3-0.7-0.1-1c0.2-0.5,0.5-0.9,0.8-1.3c0.4-0.6,1.2-0.6,1.8-0.2
					c0.1,0.1,0.1,0.1,0.2,0.2c0.5,0.5,0.5,1.3-0.1,1.8c-0.1,0.1-0.2,0.1-0.2,0.2c-0.4,0.3-0.9,0.5-1.4,0.6
					C42.4,130.1,42,130,41.8,129.7z"/>
				<path class="st56" d="M40.5,124.1c-0.2-0.3-0.3-0.7-0.1-1c0.2-0.5,0.5-0.9,0.8-1.3c0.6-0.5,1.4-0.4,1.8,0.2
					c0.5,0.6,0.4,1.4-0.2,1.8l0,0c-0.4,0.3-0.9,0.5-1.4,0.6C41.1,124.5,40.8,124.4,40.5,124.1z"/>
				<path class="st56" d="M41.5,118c-0.2-0.3-0.3-0.7-0.1-1c0.2-0.5,0.5-0.9,0.8-1.3c0.5-0.6,1.3-0.6,1.8-0.2
					c0.6,0.5,0.6,1.3,0.2,1.8c-0.1,0.1-0.2,0.2-0.3,0.3c-0.4,0.3-0.9,0.5-1.4,0.6C42.1,118.4,41.7,118.3,41.5,118z"/>
				<path class="st56" d="M36.5,113.6c-0.2-0.3-0.3-0.7-0.1-1c0.2-0.5,0.4-0.9,0.8-1.3c1.1-0.9,1.8-0.3,2,0s0.8,1-0.3,2
					c-0.4,0.3-0.9,0.5-1.4,0.6C37.1,114,36.7,113.8,36.5,113.6z"/>
				<path class="st56" d="M35.8,123.5c-0.2-0.3-0.3-0.7-0.1-1c0.2-0.5,0.4-0.9,0.8-1.3c1.1-0.9,1.8-0.3,2,0s0.8,1-0.3,2
					c-0.4,0.3-0.9,0.5-1.4,0.6C36.4,123.9,36,123.7,35.8,123.5z"/>
				<path class="st56" d="M35.4,130.5c-0.2-0.3-0.3-0.7-0.1-1c0.2-0.5,0.4-0.9,0.8-1.3c1.1-0.9,1.8-0.3,2,0s0.8,1-0.3,2
					c-0.4,0.3-0.9,0.5-1.4,0.6C36,130.9,35.6,130.8,35.4,130.5z"/>
				<path class="st56" d="M29.6,132.5c-0.1-0.3-0.1-0.7,0.1-1c0.3-0.4,0.7-0.8,1.1-1.1c1.3-0.6,1.8,0.2,1.9,0.5s0.5,1.2-0.8,1.8
					c-0.5,0.2-1,0.3-1.5,0.3C30.1,133,29.7,132.8,29.6,132.5z"/>
				<path class="st56" d="M26.5,128.5c0.3,0.2,0.7,0.2,1,0c0.5-0.2,0.9-0.6,1.2-1c0.5-0.5,0.5-1.3,0-1.8c-0.1-0.1-0.1-0.1-0.2-0.2
					c-0.3-0.2-1.1-0.6-1.9,0.5c-0.3,0.4-0.4,1-0.5,1.5C26,127.9,26.2,128.3,26.5,128.5z"/>
				<path class="st56" d="M29.7,121.9c-0.2-0.3-0.3-0.7-0.1-1c0.2-0.5,0.4-0.9,0.8-1.3c1.1-0.9,1.8-0.3,2,0s0.8,1-0.3,2
					c-0.4,0.3-0.9,0.5-1.4,0.6C30.3,122.3,29.9,122.2,29.7,121.9z"/>
				<path class="st56" d="M31.6,116.6c-0.2-0.3-0.3-0.7-0.1-1c0.2-0.5,0.5-0.9,0.8-1.3c0.6-0.5,1.4-0.4,1.8,0.2
					c0.5,0.6,0.4,1.4-0.2,1.8l0,0c-0.4,0.3-0.9,0.5-1.4,0.6C32.2,117,31.8,116.9,31.6,116.6z"/>
				<path class="st56" d="M30.6,128.3c-0.2-0.3-0.3-0.7-0.1-1c0.2-0.5,0.4-0.9,0.8-1.3c1.1-0.9,1.8-0.3,2,0s0.8,1-0.3,2
					c-0.4,0.3-0.9,0.5-1.4,0.6C31.2,128.7,30.8,128.6,30.6,128.3z"/>
				<g>
					<path class="st57" d="M46.3,123c0.6-0.5,1-0.4,1.4,0s0.4,0.8-0.2,1.3c-0.4,0.3-0.9,0.5-1.4,0.5c-0.2,0.1-0.5-0.1-0.5-0.3
						c0-0.1,0-0.2,0-0.3C45.7,123.8,46,123.4,46.3,123z"/>
					<path class="st57" d="M42.8,127.7c0.6-0.5,1-0.4,1.4,0c0.4,0.4,0.4,0.8-0.2,1.4c-0.4,0.3-0.9,0.5-1.4,0.5
						c-0.2,0.1-0.5-0.1-0.5-0.3c0-0.1,0-0.2,0-0.3C42.2,128.5,42.4,128.1,42.8,127.7z"/>
					<path class="st57" d="M41.5,122.1c0.6-0.5,1-0.4,1.4,0s0.4,0.8-0.2,1.3c-0.4,0.3-0.9,0.5-1.4,0.5c-0.2,0.1-0.5-0.1-0.5-0.3
						c0-0.1,0-0.2,0-0.3C40.9,122.9,41.2,122.5,41.5,122.1z"/>
					<path class="st57" d="M42.5,116c0.6-0.5,1-0.4,1.4,0s0.4,0.8-0.2,1.3c-0.4,0.3-0.9,0.5-1.4,0.5c-0.2,0.1-0.5-0.1-0.5-0.3
						c0-0.1,0-0.2,0-0.3C41.9,116.8,42.1,116.4,42.5,116z"/>
					<path class="st57" d="M37.5,111.5c0.6-0.5,1-0.4,1.4,0s0.4,0.8-0.2,1.3c-0.4,0.3-0.9,0.5-1.4,0.5c-0.2,0.1-0.5-0.1-0.5-0.3
						c0-0.1,0-0.2,0-0.3C36.9,112.3,37.1,111.9,37.5,111.5z"/>
					<path class="st57" d="M36.8,121.4c0.6-0.5,1-0.4,1.4,0s0.4,0.8-0.2,1.3c-0.4,0.3-0.9,0.5-1.4,0.5c-0.2,0.1-0.5-0.1-0.5-0.3
						c0-0.1,0-0.2,0-0.3C36.2,122.2,36.4,121.8,36.8,121.4z"/>
					<path class="st57" d="M36.3,128.5c0.6-0.5,1-0.4,1.4,0s0.4,0.8-0.2,1.3c-0.4,0.3-0.9,0.5-1.4,0.5c-0.2,0.1-0.5-0.1-0.5-0.3
						c0-0.1,0-0.2,0-0.3C35.8,129.3,36,128.8,36.3,128.5z"/>
					<path class="st57" d="M31,130.8c0.7-0.4,1.1-0.1,1.3,0.3s0.2,0.9-0.5,1.3c-0.5,0.2-1,0.2-1.5,0.2c-0.2,0-0.4-0.2-0.4-0.4
						c0-0.1,0-0.2,0.1-0.3C30.2,131.4,30.6,131,31,130.8z"/>
					<path class="st57" d="M28.4,127.3c0.5-0.7,0.3-1.1-0.1-1.4s-0.8-0.3-1.3,0.4c-0.2,0.4-0.4,0.9-0.4,1.4c0,0.2,0.1,0.5,0.4,0.5
						c0.1,0,0.2,0,0.3-0.1C27.7,128,28.1,127.7,28.4,127.3z"/>
					<path class="st57" d="M30.7,119.9c0.6-0.5,1-0.4,1.4,0s0.4,0.8-0.2,1.3c-0.4,0.3-0.9,0.5-1.4,0.5c-0.2,0.1-0.5-0.1-0.5-0.3
						c0-0.1,0-0.2,0-0.3C30.1,120.7,30.3,120.2,30.7,119.9z"/>
					<path class="st57" d="M32.6,114.6c0.6-0.5,1-0.4,1.4,0s0.4,0.8-0.2,1.3c-0.4,0.3-0.9,0.5-1.4,0.5c-0.2,0.1-0.5-0.1-0.5-0.3
						c0-0.1,0-0.2,0-0.3C32,115.4,32.2,115,32.6,114.6z"/>
					<path class="st57" d="M31.5,126.3c0.6-0.5,1-0.4,1.4,0s0.4,0.8-0.2,1.3c-0.4,0.3-0.9,0.5-1.4,0.5c-0.2,0.1-0.5-0.1-0.5-0.3
						c0-0.1,0-0.2,0-0.3C31,127.1,31.2,126.7,31.5,126.3z"/>
					<path class="st56" d="M25.8,132.5c-0.2-0.3-0.3-0.7-0.1-1c0.2-0.5,0.4-0.9,0.8-1.3c1.1-0.9,1.8-0.3,2,0s0.8,1-0.3,2
						c-0.4,0.3-0.9,0.5-1.4,0.6C26.4,132.9,26,132.8,25.8,132.5z"/>
					<path class="st57" d="M26.8,130.5c0.6-0.5,1-0.4,1.4,0s0.4,0.8-0.2,1.4c-0.4,0.3-0.9,0.5-1.4,0.5c-0.2,0.1-0.5-0.1-0.5-0.3
						c0-0.1,0-0.2,0-0.3C26.2,131.3,26.4,130.8,26.8,130.5z"/>
				</g>
			</g>
			<path class="st58" d="M30.5,111.4c4.4-3.8,7.9-2.1,10.8,1.3s4.1,7.1-0.3,10.9c-2.4,2.1-6.8,2.8-10.4,3c-2.4,0.2-4.5-1.7-4.7-4.1
				c0-0.4,0-0.8,0.1-1.2C26.7,117.7,28.1,113.4,30.5,111.4z"/>
			<path class="st59" d="M33.9,110.6c-1.2-0.9-6.2,5.6-5,6.5S35,111.4,33.9,110.6z"/>
		</g>
	</g>
</g>
<g>
	<path class="st60" d="M184.1,160.7c-6.7,5.2-12.9,11-18.4,17.5l44.7,1.6c0.6,0,1.3-0.2,1.8-0.6l14.5-12.5L184.1,160.7z"/>
	<path class="st61" d="M222.9,169.8c-0.2-0.2-0.4-0.3-0.6-0.3l-29.7-4.2c-1.9-0.3-3.7,0.3-5.2,1.5c-2.4,2-4.8,4.1-7.1,6.3
		c-0.8,0.8-0.8,2-0.1,2.9c0.4,0.4,0.9,0.7,1.5,0.7l32,1.1L222.9,169.8z"/>
	<path class="st62" d="M181.7,175.7c-0.6,0-1.1-0.5-1-1.1c0-0.3,0.1-0.6,0.3-0.7c2.7-2.6,5.2-4.7,7-6.3c1.2-1,2.8-1.5,4.4-1.3
		l29.7,4.2l-7.4,6.4L181.7,175.7z"/>
	<path class="st63" d="M184,173.8c1.7-1.6,3.5-3.2,5.3-4.7c0.8-0.7,1.8-1,2.9-0.8l26.9,4.4l-3.1,2.7L184,173.8z"/>
	<path class="st64" d="M184.1,160.7c0,0-12.2-14.8-2.4-32.4l-15.6,13.4c0,0-10.6,6.3-0.5,36.4L184.1,160.7z"/>
	<path class="st65" d="M212.1,179.1l14.5-12.5l-26.2-3.7c1.4,0.8,2.8,1.7,4.1,2.7c1.2,1,2.2,2.2,3.2,3.4c1.4,1.4,1.9,3.4,1.4,5.3
		c-0.3,1.8-0.9,3.6-1.8,5.3l3.1,0.1C211,179.8,211.7,179.6,212.1,179.1z"/>
	<path class="st66" d="M222.2,170.5l-15.1-2.1c0.2,0.3,0.4,0.5,0.6,0.7c1.4,1.4,1.9,3.4,1.4,5.3c-0.1,0.8-0.3,1.5-0.5,2.3l6.2,0.2
		L222.2,170.5z"/>
	<path class="st64" d="M226.6,166.7c0,0-40.7-38.1-44.9-38.3c0,0-12.8,13.3,2.4,32.4L226.6,166.7z"/>
	<path class="st67" d="M219.1,172.7l-10.1-1.7c0.4,1.1,0.4,2.2,0.2,3.3c0,0.2-0.1,0.4-0.1,0.7l7,0.4L219.1,172.7z"/>
	<path class="st68" d="M187.2,158.6l36.2,5.1c-8-7.4-28.7-26.4-37.7-33c-0.2-0.1-0.4-0.1-0.6-0.2C185.1,130.5,174,142,187.2,158.6z"
		/>
	<path class="st69" d="M188.9,151.4c-1.3-3.2-2.3-6.6-3.1-9.9c-0.8-2.7-0.9-5.6-0.2-8.4c-2.1,3.1-6.3,11.8,2.7,23.6l9.7,1.4
		C194.7,156.4,190.4,155.1,188.9,151.4z"/>
	<path class="st70" d="M184.1,160.7c0,0-12.2-14.8-2.4-32.4l-8.1,6.9c-0.2,0.8-0.4,1.6-0.6,2.2c-0.7,2.3-1.2,4.7-1.4,7.1
		c-0.2,3,0.2,5.6-0.9,8.5c-1.1,3.2-2.6,6.3-4.4,9.2c-1.1,1.7-2.4,3.4-3.8,4.9c0.8,3.7,1.8,7.4,3.1,11L184.1,160.7z"/>
	<path class="st64" d="M204.7,155.1c1.5-1.5,2.9-3,4.2-4.7c-4.9-4.4-10.1-9-14.7-12.9c-0.7,1.3-1.2,2.7-1.4,4.1
		c-0.6,3.7,1.6,8.6,3.6,12.3c1.4,2.5,4.6,3.4,7.1,2C204,155.7,204.4,155.5,204.7,155.1z"/>
	<g>
		<g>
			<path class="st52" d="M203.2,136.3c0.4-2.8-0.1-5.3-1.3-5.4s-2.3,2-2.8,4.8s0.1,5.3,1.3,5.4S202.8,139.1,203.2,136.3z"/>
			<path class="st52" d="M207.7,137.7c0.9-2.7,0.8-5.2-0.2-5.6s-2.7,1.5-3.6,4.2s-0.8,5.2,0.2,5.6S206.8,140.4,207.7,137.7z"/>
			<path class="st53" d="M205.9,135.7c0.4-2.8-0.1-5.3-1.3-5.4s-2.3,2-2.8,4.8s0.1,5.3,1.3,5.4S205.5,138.6,205.9,135.7z"/>
			<path class="st53" d="M209.6,137.6c1.1-2.6,1.1-5.1,0.1-5.6s-2.8,1.4-3.9,4s-1.1,5.1-0.1,5.6S208.6,140.3,209.6,137.6z"/>
			<path class="st53" d="M197.8,135.9c-0.3-2.9,0.4-5.2,1.5-5.4s2.3,2.1,2.5,5s-0.4,5.2-1.5,5.4S198.1,138.7,197.8,135.9z"/>
		</g>
		<g>
			
				<linearGradient id="SVGID_16_" gradientUnits="userSpaceOnUse" x1="-1463.8362" y1="1375.033" x2="-1444.7329" y2="1375.033" gradientTransform="matrix(-0.9893 -0.1456 -0.1456 0.9893 -1035.925 -1425.7126)">
				<stop  offset="0" style="stop-color:#940F10"/>
				<stop  offset="1" style="stop-color:#D42D26"/>
			</linearGradient>
			<path class="st71" d="M193.6,142.6c1-6.9,5.5-8,10.7-7.3s9.2,3.2,8.2,10.1c-0.6,3.7-4,7.8-7,10.7c-2.1,2-5.4,2-7.4-0.1
				c-0.3-0.3-0.6-0.7-0.8-1.1C195.2,151.1,193.1,146.3,193.6,142.6z"/>
			<path class="st55" d="M193.7,141.9c0.7-5,4-5.9,7.8-5.3s6.7,2.3,6,7.3c-0.4,2.7-2.9,5.7-5.1,7.8c-1.5,1.5-3.9,1.4-5.4-0.1
				c-0.2-0.2-0.4-0.5-0.6-0.8C194.9,148.2,193.3,144.6,193.7,141.9z"/>
			<g>
				<path class="st56" d="M208.2,142.8c-0.2,0-0.4-0.2-0.5-0.4c-0.1-0.3-0.2-0.7-0.1-1c0.1-1,0.8-0.9,1-0.9s0.9,0.2,0.7,1.1
					c-0.1,0.4-0.2,0.7-0.4,1C208.6,142.7,208.4,142.8,208.2,142.8z"/>
				<path class="st56" d="M208.5,146.8c-0.2,0-0.4-0.2-0.5-0.4c-0.1-0.3-0.2-0.7-0.1-1c0.1-1,0.8-0.9,1-0.9s0.9,0.2,0.7,1.1
					c-0.1,0.4-0.2,0.7-0.4,1C208.9,146.8,208.7,146.9,208.5,146.8z"/>
				<path class="st56" d="M205.3,144.5c-0.2,0-0.4-0.2-0.5-0.4c-0.1-0.3-0.2-0.7-0.2-1c0.1-1,0.8-0.9,1-0.9s0.9,0.2,0.7,1.1
					c-0.1,0.4-0.2,0.7-0.4,1C205.8,144.5,205.5,144.5,205.3,144.5z"/>
				<path class="st56" d="M203.1,140.9c-0.2,0-0.4-0.2-0.5-0.4c-0.1-0.3-0.2-0.7-0.2-1c0.1-1,0.8-0.9,1-0.9s0.9,0.2,0.7,1.2
					c-0.1,0.4-0.2,0.7-0.4,1C203.5,140.9,203.3,140.9,203.1,140.9z"/>
				<path class="st56" d="M198.5,140.8c-0.2,0-0.4-0.2-0.5-0.4c-0.1-0.3-0.2-0.7-0.1-1.1c0.1-0.9,0.8-0.9,1-0.9s0.9,0.2,0.7,1.1
					c-0.1,0.4-0.2,0.7-0.4,1C198.9,140.8,198.7,140.9,198.5,140.8z"/>
				<path class="st56" d="M202.6,146.3c-0.2,0-0.4-0.2-0.5-0.4c-0.1-0.3-0.2-0.7-0.2-1c0.1-1,0.8-0.9,1-0.9s0.9,0.2,0.7,1.1
					c-0.1,0.4-0.2,0.7-0.4,1C203,146.2,202.8,146.3,202.6,146.3z"/>
				<path class="st56" d="M205.5,150.1c-0.2,0-0.4-0.2-0.5-0.4c-0.1-0.3-0.2-0.7-0.2-1c0.1-1,0.8-0.9,1-0.9s0.9,0.2,0.7,1.1
					c-0.1,0.4-0.2,0.7-0.4,1C205.9,150.1,205.7,150.1,205.5,150.1z"/>
				<path class="st56" d="M203.4,153.7c-0.2-0.1-0.4-0.3-0.4-0.6c0-0.4,0-0.7,0.1-1.1c0.4-0.9,1-0.7,1.2-0.6s0.8,0.4,0.4,1.3
					c-0.2,0.3-0.4,0.6-0.7,0.8C203.9,153.8,203.6,153.8,203.4,153.7z"/>
				<path class="st56" d="M200,153c0.2,0,0.5-0.2,0.5-0.4c0.1-0.3,0.2-0.7,0.2-1c-0.1-0.9-0.8-1-1-0.9s-0.9,0.2-0.8,1.1
					c0.1,0.4,0.2,0.7,0.4,1C199.5,152.9,199.8,153,200,153z"/>
				<path class="st56" d="M198.7,148.2c-0.2,0-0.4-0.2-0.5-0.4c-0.1-0.3-0.2-0.7-0.2-1c0.1-1,0.8-0.9,1-0.9s0.9,0.2,0.7,1.2
					c-0.1,0.3-0.2,0.7-0.4,0.9C199.1,148.1,198.9,148.2,198.7,148.2z"/>
				<path class="st56" d="M197.3,144.6c-0.2,0-0.4-0.2-0.5-0.4c-0.1-0.3-0.2-0.7-0.2-1c0.1-1,0.8-0.9,1-0.9s0.9,0.2,0.7,1.1
					c-0.1,0.4-0.2,0.7-0.4,1C197.8,144.5,197.5,144.6,197.3,144.6z"/>
				<path class="st56" d="M202,151.1c-0.2,0-0.4-0.2-0.5-0.4c-0.1-0.3-0.2-0.7-0.2-1c0.1-1,0.8-0.9,1-0.9s0.9,0.2,0.7,1.1
					c-0.1,0.4-0.2,0.7-0.4,1C202.4,151.1,202.2,151.2,202,151.1z"/>
				<g>
					<path class="st57" d="M207.8,141.3c0.1-0.6,0.4-0.7,0.7-0.6s0.6,0.2,0.5,0.8c-0.1,0.3-0.3,0.6-0.5,0.9
						c-0.1,0.1-0.3,0.2-0.4,0.1c-0.1,0-0.1-0.1-0.1-0.2C207.8,142,207.8,141.6,207.8,141.3z"/>
					<path class="st57" d="M208.1,145.4c0.1-0.6,0.4-0.7,0.7-0.6s0.6,0.2,0.5,0.8c-0.1,0.3-0.2,0.6-0.5,0.9
						c-0.1,0.1-0.3,0.2-0.4,0.1c-0.1,0-0.1-0.1-0.1-0.2C208.1,146,208.1,145.7,208.1,145.4z"/>
					<path class="st57" d="M204.9,143c0.1-0.6,0.4-0.7,0.7-0.6s0.6,0.2,0.5,0.8c-0.1,0.3-0.2,0.6-0.5,0.9c-0.1,0.1-0.3,0.2-0.4,0.1
						c-0.1,0-0.1-0.1-0.1-0.2C205,143.7,204.9,143.3,204.9,143z"/>
					<path class="st57" d="M202.7,139.4c0.1-0.6,0.4-0.7,0.7-0.6s0.6,0.2,0.5,0.8c-0.1,0.3-0.2,0.6-0.5,0.9
						c-0.1,0.1-0.3,0.2-0.4,0.1c-0.1,0-0.1-0.1-0.1-0.2C202.7,140.1,202.7,139.8,202.7,139.4z"/>
					<path class="st57" d="M198.1,139.3c0.1-0.6,0.4-0.7,0.7-0.6s0.6,0.2,0.5,0.8c-0.1,0.3-0.2,0.6-0.5,0.9
						c-0.1,0.1-0.3,0.2-0.4,0.1c-0.1,0-0.1-0.1-0.1-0.2C198.2,140,198.1,139.7,198.1,139.3z"/>
					<path class="st57" d="M202.2,144.8c0.1-0.6,0.4-0.7,0.7-0.6s0.6,0.2,0.5,0.8c-0.1,0.3-0.3,0.6-0.5,0.9
						c-0.1,0.1-0.3,0.2-0.4,0.1c-0.1,0-0.1-0.1-0.1-0.2C202.2,145.5,202.1,145.1,202.2,144.8z"/>
					<path class="st57" d="M205.1,148.6c0.1-0.6,0.4-0.7,0.7-0.6s0.6,0.2,0.5,0.8c-0.1,0.3-0.2,0.6-0.5,0.9
						c-0.1,0.1-0.3,0.2-0.4,0.1c-0.1,0-0.1-0.1-0.1-0.1C205.1,149.3,205.1,148.9,205.1,148.6z"/>
					<path class="st57" d="M203.4,152.2c0.2-0.5,0.5-0.6,0.8-0.4s0.5,0.4,0.3,0.9c-0.2,0.3-0.4,0.5-0.7,0.7c-0.1,0.1-0.3,0.1-0.4,0
						c0,0-0.1-0.1-0.1-0.2C203.2,152.8,203.3,152.5,203.4,152.2z"/>
					<path class="st57" d="M200.4,151.6c-0.1-0.6-0.4-0.7-0.7-0.6s-0.6,0.2-0.5,0.8c0.1,0.3,0.2,0.6,0.4,0.9
						c0.1,0.1,0.3,0.2,0.4,0.1c0.1,0,0.1-0.1,0.1-0.2C200.4,152.2,200.4,151.9,200.4,151.6z"/>
					<path class="st57" d="M198.3,146.7c0.1-0.6,0.4-0.7,0.7-0.6s0.6,0.2,0.5,0.8c-0.1,0.3-0.3,0.6-0.5,0.9
						c-0.1,0.1-0.3,0.2-0.4,0.1c-0.1,0-0.1-0.1-0.1-0.2C198.4,147.4,198.3,147,198.3,146.7z"/>
					<path class="st57" d="M196.9,143.1c0.1-0.6,0.4-0.7,0.7-0.6s0.6,0.2,0.5,0.8c-0.1,0.3-0.2,0.6-0.5,0.9
						c-0.1,0.1-0.3,0.2-0.4,0.1c-0.1,0-0.1-0.1-0.1-0.2C197,143.8,196.9,143.4,196.9,143.1z"/>
					<path class="st57" d="M201.6,149.6c0.1-0.6,0.4-0.7,0.7-0.6s0.6,0.2,0.5,0.8c-0.1,0.3-0.2,0.6-0.5,0.9
						c-0.1,0.1-0.3,0.2-0.4,0.1c-0.1,0-0.1-0.1-0.1-0.2C201.7,150.3,201.6,150,201.6,149.6z"/>
					<path class="st56" d="M201.4,155.4c-0.2,0-0.4-0.2-0.5-0.4c-0.1-0.3-0.2-0.7-0.2-1c0.1-1,0.8-0.9,1-0.9s0.9,0.2,0.7,1.2
						c-0.1,0.4-0.2,0.7-0.4,1C201.8,155.4,201.6,155.4,201.4,155.4z"/>
					<path class="st57" d="M201,153.9c0.1-0.6,0.4-0.7,0.7-0.6s0.6,0.2,0.5,0.8c-0.1,0.3-0.2,0.6-0.5,0.9c-0.1,0.1-0.3,0.2-0.4,0.1
						c-0.1,0-0.1-0.1-0.1-0.2C201.1,154.6,201,154.2,201,153.9z"/>
				</g>
			</g>
			<path class="st58" d="M194.4,142.4c0.6-4,3.2-4.6,6.2-4.2s5.3,1.8,4.7,5.8c-0.3,2.1-2.3,4.5-4.1,6.2c-1.2,1.2-3.1,1.1-4.2,0
				c-0.2-0.2-0.4-0.4-0.5-0.7C195.3,147.3,194.1,144.5,194.4,142.4z"/>
			<path class="st59" d="M195.8,140.4c-1,0.1-0.7,5.7,0.3,5.6S196.8,140.4,195.8,140.4z"/>
		</g>
	</g>
	<path class="st68" d="M208,156c-1.1-0.1-2.2-0.3-3.3-0.5c-1.3-1.1-2.5-3-3.4-3.6c-0.8-0.7-1.7-1.4-2.6-1.9c-1-0.5-2.1-1-3.1-1.5
		c-1-1.3-2-2.6-3.8-2.8c-0.8-0.1-1.5,0.4-1.8,1.2c-0.5,1.7,0.4,3.1,1.5,4.3c0.7,0.8,1.6,1.2,2.3,2c0.6,0.9,1.4,1.6,2.2,2.3
		c2.2,1.5,4.7,2.6,7.3,3.2c1.5,1.2,3.6,1.5,5.3,0.7c0.8-0.5,1.2-1.5,0.7-2.4C209,156.4,208.5,156.1,208,156z"/>
	<polygon class="st70" points="226.6,166.7 225.5,167.6 182.7,162 184.1,160.7 	"/>
	<g>
		<g>
			<path class="st72" d="M188.7,137.8c-0.2,0-0.3-0.2-0.3-0.4l0.2-2.5c0-0.2,0.2-0.3,0.4-0.3c0.2,0,0.3,0.2,0.3,0.4c0,0,0,0,0,0
				l-0.2,2.5C189.1,137.6,188.9,137.8,188.7,137.8z"/>
			<path class="st73" d="M188.9,134.9c0-0.1,0-0.2-0.1-0.3c-0.1,0-0.2,0.2-0.3,0.3l-0.2,2.5c0,0.1,0.1,0.3,0.2,0.3
				c0.1-0.1,0.2-0.2,0.2-0.3L188.9,134.9z"/>
		</g>
		<g>
			<path class="st72" d="M191.1,143.2c-0.2,0.1-0.4,0-0.5-0.1c0,0,0,0,0,0l-1.1-2.2c-0.1-0.2,0-0.4,0.2-0.5s0.4,0,0.5,0.2l0,0
				l1.1,2.2C191.3,142.9,191.3,143.1,191.1,143.2C191.1,143.2,191.1,143.2,191.1,143.2z"/>
			<path class="st73" d="M189.8,140.6c0-0.1-0.1-0.2-0.2-0.2c-0.1,0.1-0.1,0.3-0.1,0.4l1.1,2.2c0.1,0.1,0.2,0.2,0.3,0.2
				c0.1-0.1,0.1-0.2,0-0.4L189.8,140.6z"/>
		</g>
		<g>
			<path class="st72" d="M194,139.7c-0.1,0.2-0.3,0.2-0.5,0.1l-2-1.4c-0.2-0.1-0.3-0.3-0.2-0.5c0.1-0.2,0.3-0.3,0.5-0.2
				c0,0,0.1,0,0.1,0.1l2.1,1.4C194.1,139.3,194.1,139.5,194,139.7z"/>
			<path class="st73" d="M191.6,138.1c-0.1-0.1-0.2-0.1-0.3-0.1c0,0.1,0,0.3,0.1,0.4l2,1.4c0.1,0.1,0.3,0.1,0.4,0
				c0-0.1-0.1-0.2-0.2-0.3L191.6,138.1z"/>
		</g>
		<g>
			<path class="st72" d="M192.9,147.2c0,0.2-0.2,0.3-0.4,0.3c0,0,0,0,0,0l-2.4-0.5c-0.2,0-0.3-0.2-0.3-0.4c0,0,0,0,0,0
				c0-0.2,0.2-0.3,0.4-0.3l2.4,0.5C192.8,146.8,193,147,192.9,147.2z"/>
			<path class="st73" d="M190.1,146.7c-0.1,0-0.2,0-0.3,0c0,0.2,0.1,0.3,0.3,0.3l2.4,0.5c0.1,0,0.3,0,0.4-0.1c0-0.1-0.1-0.2-0.3-0.2
				L190.1,146.7z"/>
		</g>
		<g>
			<path class="st72" d="M195.3,150.8c0.2,0.1,0.3,0.3,0.2,0.5l-0.8,2.4c0,0.2-0.2,0.3-0.4,0.3c-0.2,0-0.3-0.2-0.3-0.4
				c0,0,0-0.1,0-0.1l0.8-2.4C194.9,150.8,195.1,150.7,195.3,150.8z"/>
			<path class="st73" d="M194.4,153.6c0,0.1,0,0.2,0,0.3c0.2,0,0.3-0.1,0.3-0.3l0.8-2.4c0-0.1,0-0.3-0.1-0.4c-0.1,0-0.2,0.1-0.2,0.3
				L194.4,153.6z"/>
		</g>
		<g>
			<path class="st72" d="M199.9,153.9c0.2-0.1,0.4,0,0.5,0.2c0,0,0,0,0,0l0.8,2.4c0.1,0.2,0,0.4-0.2,0.4c0,0,0,0,0,0
				c-0.2,0.1-0.4,0-0.4-0.2c0,0,0,0,0,0l-0.8-2.4C199.6,154.1,199.7,153.9,199.9,153.9C199.8,153.9,199.8,153.9,199.9,153.9z"/>
			<path class="st73" d="M200.8,156.6c0,0.1,0.1,0.2,0.2,0.3c0.1-0.1,0.2-0.2,0.1-0.4l-0.8-2.4c0-0.1-0.2-0.2-0.3-0.2
				c-0.1,0.1-0.1,0.3,0,0.4L200.8,156.6z"/>
		</g>
		<g>
			<path class="st72" d="M207.6,156.3c0.1-0.2,0.3-0.2,0.5-0.1l2.2,1.2c0.2,0.1,0.2,0.3,0.1,0.5c-0.1,0.2-0.3,0.2-0.5,0.1l-2.2-1.2
				C207.5,156.7,207.5,156.5,207.6,156.3z"/>
			<path class="st73" d="M210.1,157.7c0.1,0.1,0.2,0.1,0.3,0.1c0-0.1,0-0.3-0.2-0.4l-2.2-1.2c-0.1-0.1-0.3-0.1-0.4,0
				c0,0.1,0.1,0.2,0.2,0.3L210.1,157.7z"/>
		</g>
		<g>
			<path class="st72" d="M212.5,155.3c0.2-0.1,0.4-0.1,0.5,0.1l1.5,2c0.1,0.2,0.1,0.4-0.1,0.5c-0.2,0.1-0.4,0.1-0.5-0.1c0,0,0,0,0,0
				l-1.5-2C212.3,155.6,212.3,155.4,212.5,155.3z"/>
			<path class="st73" d="M214.3,157.5c0.1,0.1,0.2,0.2,0.3,0.2c0.1-0.1,0.1-0.3,0-0.4l-1.5-2c-0.1-0.1-0.2-0.2-0.4-0.1
				c0,0.1,0,0.3,0.1,0.4L214.3,157.5z"/>
		</g>
	</g>
	<path class="st61" d="M195.6,172.7c-0.4,0.4-1,0.4-1.4,0c0,0-0.1-0.1-0.1-0.1c-0.3-0.5-0.2-1.1,0.2-1.5c0.4-0.3,1-0.3,1.4,0.1
		C196.1,171.6,196.1,172.2,195.6,172.7C195.7,172.7,195.6,172.7,195.6,172.7z"/>
	<path class="st61" d="M198.6,171.8c-0.2,0.2-0.5,0.2-0.7,0s-0.2-0.5,0-0.7s0.5-0.2,0.7,0c0,0,0,0,0,0
		C198.8,171.3,198.8,171.6,198.6,171.8z"/>
	<path class="st61" d="M207.6,174.3c-0.2,0.2-0.5,0.2-0.7,0c-0.2-0.2-0.2-0.5,0-0.7c0,0,0.1-0.1,0.1-0.1c0.2-0.2,0.5-0.2,0.7,0.1
		c0,0,0,0,0,0C207.9,173.8,207.9,174.1,207.6,174.3z"/>
	<path class="st4" d="M191.5,157.2l-1-0.6c-1.8-1-5.6-8.1-6.1-10s-1.4-4.1-1.3-6.2c0-0.1-0.1-0.2-0.2-0.2c-0.6,4.2,0.3,9.9,5.4,16.6
		L191.5,157.2z"/>
</g>
<g>
	<g>
		<g>
			<path class="st74" d="M68.2,67.8c1.4-0.9,3-1.4,4.6-1.4c1.6,0,3.1,0.5,4.4,1.4l-3.7,3.2L68.2,67.8z"/>
			<g>
				<path class="st75" d="M60,172.6c0,0-2.1,1.6-4.3,3.1c-1.3,0.9-2.1,2.4-2.1,4h13.9c0,0,0.4-5.8-1.1-7.1L60,172.6z"/>
				<rect x="53.7" y="178.8" class="st76" width="13.9" height="0.9"/>
			</g>
			<g>
				<path class="st75" d="M87.6,172.6c0,0,2.1,1.6,4.3,3.1c1.3,0.9,2.1,2.4,2.1,4H80.1c0,0-0.4-5.8,1.1-7.1L87.6,172.6z"/>
				<rect x="80.1" y="178.8" class="st76" width="13.9" height="0.9"/>
			</g>
			<g>
				<path class="st77" d="M69.3,66.1c0.1,1.3,0,2.6-0.2,3.9c-0.2,0.8,4,4.6,4,4.6s3.1-2.5,3.3-4.6c-0.1-1.7-0.4-3.9-0.4-3.9
					L69.3,66.1z"/>
				<g>
					<path class="st78" d="M66.6,57.8c0,0-0.9-0.5-1.4,0.7s0.5,2.9,1.4,2.9S66.6,57.8,66.6,57.8z"/>
					<path class="st78" d="M79.6,57.8c0,0,0.9-0.3,1.3,0.9s-0.9,2.8-1.8,2.7S79.6,57.8,79.6,57.8z"/>
					<path class="st78" d="M79.5,59.1c0,4.8-3,8.7-6.6,8.7s-6.6-3.9-6.6-8.7s3-8.7,6.6-8.7S79.5,54.3,79.5,59.1z"/>
				</g>
			</g>
			<polygon class="st75" points="66,57.8 66.7,58.3 68.2,56.2 66,56.2 			"/>
			<polygon class="st75" points="79.9,57.8 79.1,58.3 77.7,56.2 79.8,56.2 			"/>
			<polygon class="st79" points="58.4,119.4 57.1,174.3 68.8,174.3 72.7,122.1 79.9,174.3 91.2,174.3 86.8,119.4 81,112.1 66,112.1 
							"/>
			<path class="st4" d="M96.8,84.8c-2.6-4.3-5.7-9-8-10.7c-2.6-2-12.4-4.2-12.4-4.2s-3.5,3.6-3.8,4.1c-0.4-0.7-3.5-4.1-3.5-4.1
				s-9.5,2.1-12,4c-3.6,2.7-8.8,15.5-11.3,19.7c-0.9,1.6-0.9,3.7,0.2,5.3c3.8-3.8,9.2-3,9.2-3l3.1-8.3l0.1,31.9h28.4l0.1-31.9
				l3.6,3.8C92.3,88.9,94.7,86.9,96.8,84.8z"/>
			<rect x="65" y="74.1" class="st80" width="14.9" height="45.3"/>
			<rect x="63.7" y="75" class="st4" width="15.1" height="44.4"/>
			<path class="st4" d="M79.9,56.8V37.1c0,0-2.2-2.7-7-2.7S66,37.1,66,37.1v19.7H79.9z"/>
			<path class="st80" d="M68,70.2l0.2-2.4c0,0,4.7,3.3,4.5,6.3C71,72.9,69.4,71.6,68,70.2z"/>
			<path class="st80" d="M77.3,70.2l-0.2-2.4c0,0-4.7,3.3-4.5,6.3C74.4,72.9,75.9,71.6,77.3,70.2z"/>
			<g>
				<path class="st75" d="M68.7,77c0,0.4-0.3,0.8-0.8,0.8c-0.4,0-0.8-0.4-0.8-0.8c0-0.4,0.3-0.8,0.8-0.8
					C68.4,76.2,68.7,76.6,68.7,77z"/>
				<path class="st75" d="M77.7,77c0,0.4-0.3,0.8-0.8,0.8s-0.8-0.3-0.8-0.8c0-0.4,0.3-0.8,0.8-0.8l0,0C77.4,76.2,77.7,76.6,77.7,77z
					"/>
				<path class="st75" d="M68.7,89c0,0.4-0.3,0.8-0.8,0.8s-0.8-0.3-0.8-0.8s0.3-0.8,0.8-0.8C68.4,88.2,68.7,88.6,68.7,89L68.7,89z"
					/>
				<path class="st75" d="M77.7,89c0,0.4-0.3,0.8-0.8,0.8c-0.4,0-0.8-0.3-0.8-0.8c0-0.4,0.3-0.8,0.8-0.8c0,0,0,0,0,0
					C77.4,88.2,77.7,88.6,77.7,89z"/>
			</g>
			<g>
				<path class="st75" d="M68.7,100c0,0.4-0.3,0.8-0.8,0.8c0,0,0,0,0,0c-0.4,0-0.8-0.3-0.8-0.7c0,0,0,0,0,0c0-0.4,0.3-0.8,0.8-0.8
					c0,0,0,0,0,0C68.4,99.2,68.7,99.6,68.7,100z"/>
				<path class="st75" d="M77.7,100c0,0.4-0.4,0.8-0.8,0.8c-0.4,0-0.8-0.3-0.8-0.8c0-0.4,0.4-0.8,0.8-0.8
					C77.4,99.2,77.7,99.6,77.7,100z"/>
				<path class="st75" d="M68.7,112c0,0.4-0.3,0.8-0.8,0.8c-0.4,0-0.8-0.4-0.8-0.8c0-0.4,0.3-0.8,0.8-0.8
					C68.4,111.2,68.7,111.6,68.7,112z"/>
				<path class="st75" d="M77.7,112c0,0.4-0.3,0.8-0.8,0.8s-0.8-0.3-0.8-0.8c0-0.4,0.3-0.8,0.8-0.8l0,0
					C77.4,111.2,77.7,111.6,77.7,112z"/>
			</g>
			<polygon class="st81" points="58.2,106 54.8,149.8 91.2,149.8 87,106 			"/>
			<rect x="64.4" y="83.6" class="st81" width="16.6" height="26.2"/>
		</g>
		<rect x="66" y="54.4" class="st80" width="13.9" height="0.8"/>
		<polygon class="st81" points="66.7,84.4 64.6,85.2 60.3,72.3 62.3,71.6 		"/>
		<polygon class="st81" points="78.8,84.4 80.9,85.2 85.2,72.3 83.1,71.6 		"/>
	</g>
	<g>
		<g>
			<path class="st82" d="M55,159c-6.9,3.9-13.6,8.3-19.9,13.1v7.9h115.3v-51.2C117.3,133.5,84.1,142.6,55,159z"/>
			<path class="st83" d="M35.1,115.9v56.2c6.3-4.8,12.9-9.2,19.9-13.1c29.1-16.4,62.3-25.5,95.4-30.2v-12.9H35.1z"/>
		</g>
		<rect x="32.6" y="112.7" class="st84" width="120.4" height="3.2"/>
		<rect x="35.1" y="115.9" class="st85" width="115.3" height="10.3"/>
	</g>
	<g>
		<path class="st78" d="M46,98.9c0,0,4.5,6.3,7.2,9.3s3.9,4.2,3.9,4.2l4-4.2l-5.9-12.3C51.9,94.2,47.8,95.5,46,98.9z"/>
		<g>
			<path class="st86" d="M80.7,91.3c0,0-1.3,1.3-1.1,2s1.6,0.7,1.8,0.2C81.7,92.9,81.1,92.5,80.7,91.3z"/>
			<path class="st86" d="M76.6,91.3c0,0-1.3,1.3-1.1,2s1.6,0.7,1.8,0.2C77.6,92.9,77.1,92.5,76.6,91.3z"/>
			<path class="st86" d="M64.5,91.3c0,0-1.3,1.3-1.1,2s1.6,0.7,1.8,0.2C65.5,92.9,65,92.5,64.5,91.3z"/>
			<path class="st86" d="M72.7,91.3c0,0-1.3,1.3-1.1,2s1.7,0.7,1.8,0.2C73.7,92.9,73.1,92.5,72.7,91.3z"/>
			<path class="st86" d="M68.6,91.3c0,0-1.3,1.3-1.1,2s1.6,0.7,1.8,0.2C69.7,92.9,69.1,92.5,68.6,91.3z"/>
		</g>
		<path class="st87" d="M88.3,107.7c-0.9-0.4-0.5,1-0.8,1.9c-0.4,1.2-1.3,0.3-1.3-0.7c0-0.5,0.2-1.4-0.7-1.1s-0.2,1.8-0.9,2.1
			c-0.9,0.5-0.3-1.2-1-1.7s-1.2,0.8-1.8,1c-0.8,0.2-1.7-0.2-2-1c-0.6-0.9-1,1.7-1.7,1.7s-0.7-1.3-1-1.2c-0.7,0.3-0.8,1-1.7,0.6
			s-0.9-1.2-1.3-1s0,1.7-0.6,1.9s-0.2-2-0.7-2.4s-0.8,1-1.3,1.6c-0.3,0.3-0.9,0.3-1.2-0.6c-0.2-0.7-0.9-1-1.6-0.9
			c-0.6,0.1-0.6,0.9-1.7,0.9s-1-1.3-1.5-1.2s-0.4,0.8-0.9,2s-1.2,0-1.1-1.1s-0.7-1.4-1-1s-0.5,1-1.4,0.7s-1.1-1.1-1.4-0.7
			s0.1,2-0.7,2.1s-0.3-2.4-0.6-2.5s-0.7,0.2-1.3,0.7c-0.4,0.2-0.8,0.2-1.2,0v3.4h34v-3.3C89.4,107.9,88.8,107.9,88.3,107.7z"/>
		<g>
			<path class="st87" d="M82,97.3c-0.8,0.2-1.7-0.2-2-1c-0.6-0.9-1,1.7-1.7,1.7s-0.7-1.3-1-1.2c-0.7,0.3-0.8,1-1.7,0.6
				s-0.9-1.2-1.3-1s0,1.7-0.6,1.9s-0.2-2-0.7-2.4s-0.8,1-1.3,1.6c-0.3,0.3-0.9,0.3-1.2-0.6c-0.2-0.7-0.9-1-1.6-0.9
				c-0.6,0.1-0.6,1-1.7,0.9s-1-1.4-1.5-1.2s-0.4,0.8-0.9,2s-1.2,0-1.1-1.1s-0.8-1.4-1-1c-0.1,0.3-0.3,0.5-0.5,0.7v3.3h21.5v-3.2
				C83.1,96,82.5,97.1,82,97.3z"/>
			<path class="st88" d="M62.2,93.6v2.7c0.2-0.2,0.4-0.4,0.5-0.7c0.2-0.5,1-0.2,1,1s0.7,2.4,1.1,1.1s0.4-1.9,0.9-2s0.4,1.1,1.5,1.2
				s1.2-0.8,1.7-0.9c0.7-0.2,1.4,0.2,1.6,0.9c0.3,0.8,1,0.9,1.2,0.6c0.5-0.6,0.9-2.1,1.3-1.6s0.1,2.6,0.7,2.4s0.1-1.7,0.6-1.9
				s0.4,0.6,1.3,1s1-0.3,1.7-0.6c0.3-0.1,0.3,1.3,1,1.2s1.1-2.7,1.7-1.7c0.3,0.8,1.2,1.2,2,1c0.5-0.2,1.1-1.3,1.7-1v-2.7H62.2z"/>
		</g>
		<g>
			<path class="st86" d="M72.8,97.2c0,0-1.3,1.3-1.1,2s1.6,0.7,1.8,0.2C73.8,98.8,73.2,98.4,72.8,97.2z"/>
			<path class="st86" d="M77.1,97.2c0,0-1.3,1.3-1.1,2s1.6,0.7,1.8,0.2C78.1,98.8,77.5,98.4,77.1,97.2z"/>
			<path class="st86" d="M85.2,97.2c0,0-1.3,1.3-1.1,2s1.6,0.7,1.8,0.2C86.3,98.8,85.7,98.4,85.2,97.2z"/>
			<path class="st86" d="M81.2,97.2c0,0-1.3,1.3-1.1,2s1.7,0.7,1.8,0.2C82.2,98.8,81.6,98.4,81.2,97.2z"/>
			<path class="st86" d="M60.7,97.2c0,0-1.3,1.3-1.1,2s1.6,0.7,1.8,0.2C61.7,98.8,61.1,98.4,60.7,97.2z"/>
			<path class="st86" d="M68.8,97.2c0,0-1.3,1.3-1.1,2s1.6,0.7,1.8,0.2C69.9,98.8,69.3,98.4,68.8,97.2z"/>
			<path class="st86" d="M64.8,97.2c0,0-1.3,1.3-1.1,2s1.6,0.7,1.8,0.2C65.8,98.8,65.3,98.4,64.8,97.2z"/>
		</g>
		<g>
			<path class="st87" d="M85,100.9c-0.2-0.5-1-0.2-1,1s-0.7,2.3-1.1,1.1s-0.4-1.9-0.9-2s-0.4,1.1-1.5,1.2s-1.2-0.8-1.7-0.9
				c-0.7-0.2-1.4,0.2-1.6,0.9c-0.3,0.8-1,0.9-1.2,0.6c-0.5-0.6-0.8-2.1-1.3-1.6s-0.1,2.6-0.7,2.4s-0.1-1.7-0.6-1.9s-0.4,0.6-1.3,1
				s-1-0.3-1.7-0.6c-0.3-0.1-0.3,1.3-1,1.2s-1.1-2.7-1.7-1.7c-0.3,0.8-1.2,1.2-2,1c-0.6-0.2-1.1-1.4-1.8-1s0,2.2-1,1.7
				c-0.6-0.3,0-1.8-0.9-2.1s-0.7,0.7-0.7,1.1c0,1-0.9,1.9-1.3,0.7c-0.3-0.9,0.1-2.3-0.8-1.9c-0.2,0.1-0.4,0.1-0.6,0.2v3.9h28.6v-4
				c-0.2,0.2-0.5,0.3-0.7,0.4C85.5,102,85.3,101.4,85,100.9z"/>
			<path class="st88" d="M58.7,99.3v2c0.2,0,0.4-0.1,0.6-0.2c0.9-0.4,0.5,1,0.8,1.9c0.5,1.2,1.3,0.3,1.3-0.7c0-0.5-0.2-1.4,0.7-1.1
				s0.2,1.8,0.9,2.1c0.9,0.5,0.3-1.2,1-1.7s1.2,0.8,1.8,1c0.8,0.2,1.7-0.2,2-1c0.6-0.9,1,1.7,1.7,1.7s0.7-1.3,1-1.2
				c0.7,0.3,0.8,1,1.7,0.6s0.9-1.2,1.3-1s0,1.7,0.6,1.9s0.2-2,0.7-2.4s0.8,1,1.3,1.6c0.3,0.3,1,0.3,1.2-0.6c0.2-0.7,0.9-1.1,1.6-0.9
				c0.6,0.1,0.6,0.9,1.7,0.9s1-1.4,1.5-1.2s0.4,0.8,0.9,2s1.2,0,1.1-1.1s0.8-1.4,1-1s0.5,1,1.4,0.7c0.3-0.1,0.5-0.2,0.7-0.4v-1.9
				H58.7z"/>
		</g>
		<g>
			<path class="st86" d="M70.6,103c0,0-1.3,1.3-1.1,2s1.6,0.7,1.8,0.2C71.6,104.6,71,104.2,70.6,103z"/>
			<path class="st86" d="M74.8,103c0,0-1.3,1.3-1.1,2s1.6,0.7,1.8,0.2C75.9,104.6,75.3,104.2,74.8,103z"/>
			<path class="st86" d="M87.1,103c0,0-1.3,1.3-1.1,2s1.6,0.7,1.8,0.2C88.1,104.6,87.6,104.2,87.1,103z"/>
			<path class="st86" d="M83,103c0,0-1.3,1.3-1.1,2s1.6,0.7,1.8,0.2C84.1,104.6,83.5,104.2,83,103z"/>
			<path class="st86" d="M79,103c0,0-1.3,1.3-1.1,2s1.6,0.7,1.8,0.2C80,104.6,79.4,104.2,79,103z"/>
			<path class="st86" d="M58.5,103c0,0-1.3,1.3-1.1,2s1.6,0.7,1.8,0.2C59.5,104.6,58.9,104.2,58.5,103z"/>
			<path class="st86" d="M66.6,103c0,0-1.3,1.3-1.1,2s1.7,0.7,1.8,0.2C67.7,104.6,67.1,104.2,66.6,103z"/>
			<path class="st86" d="M62.6,103c0,0-1.3,1.3-1.1,2s1.6,0.7,1.8,0.2C63.6,104.6,63,104.2,62.6,103z"/>
		</g>
		<path class="st88" d="M55.9,105.2v2.5c0.4,0.2,0.8,0.2,1.2,0c0.6-0.6,1-0.9,1.3-0.7s-0.1,2.7,0.6,2.5s0.4-1.7,0.7-2.1
			s0.5,0.4,1.4,0.7s1.2-0.2,1.4-0.7s1-0.2,1,1s0.7,2.3,1.1,1.1s0.4-1.9,0.9-2s0.4,1.1,1.5,1.2s1.2-0.8,1.7-0.9
			c0.7-0.2,1.4,0.2,1.6,0.9c0.3,0.8,1,0.9,1.2,0.6c0.5-0.6,0.8-2.1,1.3-1.6s0.1,2.7,0.7,2.4s0.1-1.7,0.6-1.9s0.4,0.6,1.3,1
			s1-0.3,1.7-0.6c0.3-0.1,0.3,1.3,1,1.2s1.1-2.7,1.7-1.7c0.3,0.8,1.2,1.2,2,1c0.6-0.2,1.1-1.4,1.8-1s0,2.2,1,1.7
			c0.6-0.3,0-1.8,0.9-2.1s0.7,0.6,0.7,1.1c0,1,0.9,1.9,1.3,0.7c0.3-0.9-0.1-2.3,0.8-1.9c0.5,0.2,1,0.3,1.6,0.1v-2.6L55.9,105.2z"/>
	</g>
	<path class="st87" d="M131.4,83.5c-0.2-0.9,1.2-1.4,1-2.4c1.1,0.2,1.4,1.4,1.4,2.4s-0.8,0.8-0.8,0.8L131.4,83.5z"/>
	<path class="st87" d="M128.2,83.5c-0.2-0.9,1.2-1.4,1-2.4c0.7-0.1,1.4,1.4,1.4,2.4s-0.8,0.8-0.8,0.8L128.2,83.5z"/>
	<path class="st4" d="M108.6,102.5c-0.1,0.7-0.2,1.4-0.5,2.1c-0.4,1.1,0.3,2.5,1.6,2.1S110.5,103.4,108.6,102.5z"/>
	<path class="st4" d="M104.6,102.5c-0.1,0.7-0.2,1.4-0.5,2.1c-0.4,1.1,0.3,2.5,1.6,2.1S106.5,103.4,104.6,102.5z"/>
	<path class="st4" d="M101,102.5c-0.1,0.7-0.2,1.4-0.5,2.1c-0.4,1.1,0.3,2.5,1.6,2.1S102.8,103.4,101,102.5z"/>
	<g>
		<g>
			<path class="st89" d="M134.1,86.8c-0.1,1.5-1,1.1-1.1,0.6c-0.2-1.3-0.7-2.5-1.7-2.5c-0.9,0-1.7,0.5-2.1,1.3
				c-0.2,0.6-0.3,2.1-0.9,1.8s-0.5-1.9-1-3c0-0.1-0.1-0.2-0.2-0.3v5h8v-4.1C134.5,85.8,134.1,86.3,134.1,86.8z"/>
			<path class="st86" d="M127.1,83.4v1.3c0.1,0.1,0.1,0.2,0.2,0.3c0.4,1.1,0.3,2.7,1,3c0.7,0.3,0.7-1.3,0.9-1.8
				c0.4-0.8,1.2-1.3,2.1-1.3c1,0.1,1.5,1.3,1.7,2.5c0.1,0.5,1.1,0.9,1.1-0.6c0.1-0.6,0.5-1.1,1-1.3v-2.2H127.1z"/>
		</g>
		<path class="st89" d="M139.4,103.5c-0.6,0.3-0.1,3.3-0.8,3.8s-1-0.7-1-1.6c0.1-1-0.2-2-0.7-2.9c-0.5-0.7-1.5-0.9-2.2-0.5
			c-0.3,0.2-0.6,0.6-0.7,0.9c-0.5,1.3-0.4,3.1-1.1,3.4s-0.8-1.4-1.1-2.1c-0.5-0.9-1.4-1.5-2.5-1.4c-1.1,0.1-1.8,1.4-2,2.9
			c-0.1,0.5-1.2,1-1.3-0.7c0-0.7-1.1-1.9-1.6-1.2c-0.8,1-0.1,2.7-1.1,3.2s-0.9-2-0.9-3.2c0-0.7-0.6-1.1-1.1-1.4v8.4h19.3v-7.6
			C140.2,103.4,139.8,103.4,139.4,103.5z"/>
		<g>
			<path class="st89" d="M136.9,92.8c-0.5,1.3-0.4,3.1-1.1,3.4s-0.8-1.4-1.1-2.1c-0.5-0.9-1.4-1.5-2.5-1.4c-1.1,0.1-1.8,1.4-2,2.9
				c-0.1,0.5-1.2,1-1.3-0.7c0-0.7-1-1.9-1.6-1.2c-0.8,1-0.1,2.7-1.1,3.2s-0.9-2-0.9-3.2c-0.1-0.5-0.4-1-0.8-1.2v8.1h13v-8.6
				C137.2,92.1,137,92.5,136.9,92.8z"/>
			<path class="st86" d="M124.6,89.5v2.9c0.5,0.2,0.8,0.7,0.8,1.2c0,1.2,0,3.6,0.9,3.2s0.3-2.2,1.1-3.2c0.6-0.7,1.6,0.5,1.6,1.2
				c0.1,1.8,1.2,1.3,1.3,0.7c0.2-1.4,0.8-2.8,2-2.9c1,0,2,0.5,2.5,1.4c0.3,0.6,0.3,2.4,1.1,2.1s0.6-2.1,1.1-3.4
				c0.1-0.4,0.4-0.7,0.7-0.9v-2.4H124.6z"/>
		</g>
		<path class="st86" d="M121.4,99.6v3.1c0.5,0.3,1.1,0.7,1.1,1.4c0,1.2,0,3.6,0.9,3.2s0.3-2.2,1.1-3.2c0.6-0.7,1.6,0.5,1.6,1.2
			c0.1,1.8,1.2,1.3,1.3,0.7c0.2-1.4,0.8-2.8,2-2.9c1,0,2,0.5,2.5,1.4c0.3,0.6,0.3,2.4,1.1,2.1s0.6-2.1,1.1-3.4
			c0.2-0.8,1.1-1.4,1.9-1.1c0.4,0.1,0.7,0.3,0.9,0.7c0.5,0.9,0.7,1.9,0.7,2.9c0,0.9,0.3,2.1,1,1.6s0.2-3.6,0.8-3.8
			c0.4-0.1,0.9-0.1,1.3,0v-3.9H121.4z"/>
	</g>
	<path class="st78" d="M145.8,78c0,0,4.3,5,7,6.3c2.7,1,5.4,1.8,8.2,2.4l-1.1,4.8c0,0-8.7-0.9-10-2.7s-6.7-8.3-6.7-8.3L145.8,78z"/>
	<rect x="96.8" y="110.8" class="st80" width="17.1" height="1.9"/>
	<rect x="119.2" y="110.8" class="st80" width="23.3" height="1.9"/>
	<rect x="53.3" y="110.8" class="st80" width="39.3" height="1.9"/>
	<path class="st78" d="M81.9,80.6c0,0,11.9,2.4,14.9,4.3s2.6,9.1-3.3,8.4c-4.3-0.5-13.7-8.2-14.1-8.6C79.7,82.5,81.9,80.6,81.9,80.6
		z"/>
	<g>
		<path class="st87" d="M134.8,75.1c0,0,5.4-5.4,10.4-5.3c5.9,0,8.3,5.8,2.5,8.7s-8.5,0-10.6-0.3c-1.3-0.2-2.6,0.2-3.6,1l-1.5-1.8
			L134.8,75.1z"/>
		<polygon class="st86" points="132.1,77.4 130.4,79.1 131.6,80.4 133.5,79.2 132.1,77.4 		"/>
	</g>
	<path class="st89" d="M71.6,82.1c0,0,5-7,10.6-7.9c6.6-1,10.3,4.9,4.3,9.3s-9.5,1.6-11.8,1.6c-1.5,0-2.8,0.7-3.8,1.8l-2-1.7
		L71.6,82.1z"/>
	<path class="st78" d="M135.8,74.4c0,0,1.1,2.1,1.9,4c1.1,2.7,2.5,5.2,4.2,7.5l6.7,7.8l3.4-6.2c0,0-8.3-7.8-9-9.9
		c-0.5-2.4-0.8-4.8-0.9-7.3c-1.4-0.7-3.1-0.7-4.5,0C135.6,71.6,135.8,74.4,135.8,74.4z"/>
	<path class="st80" d="M152.5,82.4c0,0-1.4,1.8-2.1,2.9s1.7,4.3,2.1,4.4s6.1-5,6.1-5L152.5,82.4z"/>
	<rect x="98.7" y="106" class="st86" width="13.3" height="4.8"/>
	<g>
		<g>
			<path class="st78" d="M153.5,63c0.4-0.8,0.6-1.1,0.3-2.1c-0.4-1.4-0.3-2.9,0.4-4.2c1.4-2.1,2.1-2,2.1-2c1.9-0.2,7.1,3.6,7.6,4.6
				c1,1.6,1.8,3.3,2.4,5.1c0.2,0.5,0.4,1.1,0.5,1.7c0,0,0.2,0.4,0.4,0.8c-1.8,1.3-3.7,2.4-5.7,3.2c-0.3-0.7-0.8-1.2-1.5-1.4
				c-0.9,0.2-1.8,0.5-2.7,1c-0.8,0.2-2-0.1-2-0.8c0-0.6-0.2-0.6-0.4-0.7s-0.4-0.3-0.3-0.6c-0.3-0.1-0.7-0.2-0.4-0.6s0.2-0.6-0.4-0.9
				c-0.4-0.2-1.2-0.1-1.2-0.6C152.7,64.6,153.1,63.8,153.5,63z"/>
			<path class="st75" d="M154.9,55.9c0.8,1.4,1.8,2.7,2.9,3.9c0.9,0.8,2,1.2,3.2,1.3c0.4-1.2,1.3-1.6,1.8-1.5
				c0.7,0.3,1.2,0.9,1.3,1.6c0,0.7-0.1,1.3-0.3,1.9c1.1,1,2.1,2,3,3.1c0.1-0.9,0.6-1.8,1.2-2.5c1-1.5,1.3-3.3,1.1-5
				c-0.2-2.1-1.4-4-3.1-5.3C164.1,52,159.5,50.4,154.9,55.9z"/>
		</g>
		<g>
			<path class="st75" d="M166.7,171.1c0,0-8.2,4-10.5,5.4s-1.4,2.9-1.4,2.9h16.6c0,0,0.2-6.5-0.2-7.9S166.7,171.1,166.7,171.1z"/>
			<rect x="154.7" y="178.4" class="st76" width="16.7" height="0.9"/>
		</g>
		<g>
			<path class="st75" d="M177.2,171.1c0,0-8.2,4-10.5,5.4s-1.4,2.9-1.4,2.9h16.6c0,0,0.2-6.5-0.2-7.9S177.2,171.1,177.2,171.1z"/>
			<rect x="165.1" y="178.4" class="st76" width="16.7" height="0.9"/>
		</g>
		<polygon class="st90" points="162.2,172.6 162.8,125.3 172.7,130.6 173.9,172.6 		"/>
		<polygon class="st79" points="171.9,172.6 169.5,125.3 179.3,129.3 183.1,172.6 		"/>
		<path class="st4" d="M167.2,66.8c3.1,2.9,5.9,6.1,8.6,9.4c3.6,4.7,4.5,14.8,5.3,19.4s0.2,12.5,0.2,12.5l-14.4-1
			c0,0-1.4-13-4.2-16.4c-1.9-2.3-3.6-3.1-2.9-8.4s1.5-10.7,1.5-10.7L167.2,66.8z"/>
		<path class="st88" d="M181.2,102.7c1.1,0.4,6.2,1.3,9.9,4.5s2.7,7.1-1.5,6.7s-9.4-8-9.4-8v-1.8c0,0,4.3,5.9,7.4,7.1
			s5.1,0.2,2.9-2.1s-9.4-5-9.4-5V102.7z"/>
		<path class="st88" d="M180.6,103c1-0.6,4.7-4.2,9.6-5.2s7.3,2.1,4.5,5.2s-12,2.7-12,2.7l-1.4-1.1c0,0,7.3,0.1,10.1-1.7
			s3.2-4,0.1-3.6s-9.7,4.6-9.7,4.6L180.6,103z"/>
		<path class="st88" d="M160.6,144c0-6.4,0.9-20,1.5-23.6c1-5.9,2.5-11.8,4.3-17.5l15.2-0.8c2.8,7,4.4,14.4,4.9,21.9
			c0.3,7.1,0.6,15.1,0.8,20.1H160.6z"/>
		<path class="st80" d="M169.2,68.8l-1.2-3.1c0,0-9.1,4.1-7.1,8.3C162.7,71.9,169.2,68.8,169.2,68.8z"/>
		<path class="st88" d="M168.9,101.5c0,0-3.9-10.7-4.7-14s-1.1-15.6,6-17.6l-1.1-1.1c-2.4,0.8-4.6,2.2-6.4,4.1
			c-1.9,2.1-3.3,5.6-3.9,8.8c-1.9,9.6,7.2,19.6,7.2,19.6L168.9,101.5z"/>
		<path class="st4" d="M170.6,72.4c-2.9-0.9-5.7,2.8-9.4,7.4c-2.5,3-5.4,5.6-8.7,7.7l-4.3-1.5l-2.8,6.2c0,0,6.8,4.8,9.6,4.2
			s19.5-8.6,18.9-14C173.3,78.9,172.2,75.5,170.6,72.4z"/>
		<path class="st80" d="M165.4,91.3c0,0,4.8-2.2,6.3-6.2c0.9-2.5,1.6-5.1,2.2-7.7c0.7,2.7,0.7,5.5,0.2,8.2c-0.9,4.3-8,7.3-8,7.3
			L165.4,91.3z"/>
		<rect x="166.1" y="101.3" class="st91" width="16" height="2.6"/>
		<path class="st80" d="M151.8,86.1c-0.3,1.4-0.8,2.8-1.4,4.1c-0.8,1.4-3.1,4.9-3.1,4.9l-3.7-2.8c0,0,1.8-4,2.2-5.2
			c0.5-1.2,1.4-2.2,2.6-2.7L151.8,86.1z"/>
		<path class="st74" d="M149.5,89.1c0,0-0.7,1.7-1.4,2.9c-0.5,0.6-1.1,1-1.8,1.2c0.3-0.9,0.7-1.8,1.1-2.6
			C148,90,148.7,89.5,149.5,89.1z"/>
	</g>
	<path class="st78" d="M71.6,79.3c-0.9,0.8,0.7,2.1,1.2,2.6c0.8,0.7,1.6-0.2,1-1.3S72.6,78.3,71.6,79.3z"/>
	<path class="st78" d="M73.9,85.1l1.6-2.4c0.8,0.5,1,1.6,0.6,2.4c0.7,0.3,1.4,0.6,2.1,0.7c-0.3,0.8-1.2,1.3-2.1,1.3
		C75,87.1,74,86.2,73.9,85.1z"/>
	<path class="st78" d="M72.8,78.1c-0.9,0.8,0.7,2.1,1.2,2.6c0.8,0.7,1.6-0.2,1-1.3S73.8,77.2,72.8,78.1z"/>
	<path class="st78" d="M74.1,76.8c-0.9,0.8,0.7,2.1,1.2,2.6s1.6-0.2,1-1.3S75.2,75.8,74.1,76.8z"/>
	<path class="st78" d="M75.3,75.4c-0.9,0.8,0.7,2.1,1.2,2.6s1.6-0.2,1-1.3S76.4,74.5,75.3,75.4z"/>
	<polygon class="st86" points="68.9,85.3 67.4,87.4 68.9,88.6 70.9,87 68.9,85.3 	"/>
	<path class="st4" d="M154.2,56.7c0.6-2.1,1-4.2,1.3-6.3c0.5-4.8,4.8-5.3,8.9-3.1s11.6,7.1,8.3,11.8c-1.2,1.8-2.8,3.4-4.7,4.6
		c-2.5-0.6-5-1.4-7.4-2.3C158.2,60.4,156,58.8,154.2,56.7z"/>
	<path class="st80" d="M169.8,53.7c-0.2,1.2-0.5,2.3-1,3.4c-0.5,0.7-1.6,2.1-1.6,2.1s2.8-0.3,3.4-1.6S169.8,53.7,169.8,53.7z"/>
	<path class="st80" d="M161.9,57.5c0,0,1.6-2.7,2.5-3.8s2.2-2.8,2.2-2.8c0.4,1.1,0.3,2.4-0.3,3.4C165.3,55.8,161.9,57.5,161.9,57.5z
		"/>
	<path class="st80" d="M162.7,48.7c-1.3,0.4-2.4,1.2-3.2,2.3c-0.6,1.4-0.9,3-0.9,4.5c0,0,1.4-1.8,2.9-3.5
		C162,50.9,162.4,49.9,162.7,48.7z"/>
	<path class="st88" d="M153.9,57.2c2,2,4.3,3.8,6.7,5.2c2.1,1,4.3,1.9,6.6,2.6l1.8-2c0,0-6.1-1.8-8-3.1c-2.4-1.7-6.3-5.1-6.3-5.1
		L153.9,57.2L153.9,57.2z"/>
</g>
</svg>
