<svg xmlns="http://www.w3.org/2000/svg" xmlns:xlink="http://www.w3.org/1999/xlink" viewBox="0 0 64.67 50.06">
  <defs>
    <style>
      .cls-1 {
        fill: url(#linear-gradient);
      }

      .cls-2 {
        fill: #c42e4e;
      }

      .cls-3 {
        fill: url(#linear-gradient-2);
      }

      .cls-4 {
        fill: #f0e5cd;
      }

      .cls-5 {
        fill: url(#linear-gradient-3);
      }

      .cls-6 {
        fill: url(#linear-gradient-4);
      }

      .cls-7 {
        fill: #ff6f5e;
      }

      .cls-8 {
        fill: #fb9789;
      }

      .cls-9 {
        fill: #ff8475;
      }

      .cls-10 {
        fill: #d63a3a;
      }
    </style>
    <linearGradient id="linear-gradient" x1="8.38" y1="-34.84" x2="66.78" y2="-34.84" gradientTransform="matrix(0.97, 0.24, 0.24, -0.97, 2.06, -7.85)" gradientUnits="userSpaceOnUse">
      <stop offset="0" stop-color="#ff5846"/>
      <stop offset="1" stop-color="#e02550"/>
    </linearGradient>
    <linearGradient id="linear-gradient-2" x1="5.42" y1="-20.16" x2="69.74" y2="-20.16" gradientTransform="translate(-9.69 38.92) rotate(14.11)" gradientUnits="userSpaceOnUse">
      <stop offset="0" stop-color="#f98271"/>
      <stop offset="1" stop-color="#fe4548"/>
    </linearGradient>
    <linearGradient id="linear-gradient-3" x1="5.42" y1="-28.26" x2="69.74" y2="-28.26" xlink:href="#linear-gradient-2"/>
    <linearGradient id="linear-gradient-4" x1="8.38" y1="-34.15" x2="66.78" y2="-34.15" gradientTransform="translate(-9.69 38.92) rotate(14.11)" xlink:href="#linear-gradient"/>
  </defs>
  <title>資產 2</title>
  <g id="圖層_2" data-name="圖層 2">
    <g id="圖層_1-2" data-name="圖層 1">
      <g>
        <path class="cls-1" d="M58.67,40.91c1.7-6.77-9.6-15.44-25.24-19.37S3.73,19.91,2,26.68s8.94,18,24.58,22S57,47.68,58.67,40.91Z"/>
        <path class="cls-2" d="M59.75,38.43c-1.7,6.77-17,10-32.12,6.15S-.18,30.87,1.52,24.1s18-11,33.08-7.24S61.45,31.66,59.75,38.43Z"/>
        <path class="cls-3" d="M62.53,37.66c-1.7,6.78-17,8.76-34.27,4.43S-1.55,28.76.15,22s17.7-11.36,34.93-7S64.23,30.89,62.53,37.66Z"/>
        <path class="cls-4" d="M60.69,32.86C59,39.63,44.93,41.93,29.29,38S2.35,25.39,4.05,18.62,20.47,6.94,36.11,10.87,62.39,26.08,60.69,32.86Z"/>
        <path class="cls-5" d="M64.51,29.81c-1.7,6.77-17.05,8.75-34.27,4.42S.43,20.9,2.13,14.13s17.7-11.35,34.92-7S66.21,23,64.51,29.81Z"/>
        <path class="cls-6" d="M63.07,23.38c-1.7,6.77-15.76,9.08-31.4,5.14S4.73,15.92,6.43,9.15,22.85-2.53,38.49,1.4,64.77,16.61,63.07,23.38Z"/>
        <path class="cls-2" d="M44.09,3.19a1.68,1.68,0,0,0,.43.33C63.22,14,57.2,30.49,27.18,27.23c1.45.47,2.95.91,4.49,1.29,15.64,3.94,29.7,1.63,31.4-5.14C64.56,17.45,56.59,8.07,44.09,3.19Z"/>
        <path class="cls-7" d="M34.42,4.28c-1.6-2.54-5-2.22-7.69-2.11-.57,0-1.14,0-1.71.05a15.74,15.74,0,0,0-2.28.25,28.36,28.36,0,0,0-3.14.65c-1.92.49-5.6,1.49-5.82,4.4s1.23,4.11,3.16,4.63a18.09,18.09,0,0,0,4.55.92A20.65,20.65,0,0,0,31,12.28C33.81,11.3,36.47,7.53,34.42,4.28Z"/>
        <path class="cls-8" d="M4.54,15.28c-3.2,1.87,6.31,9.69,7.37,9.07C15.11,22.47,5.61,14.65,4.54,15.28Z"/>
        <path class="cls-8" d="M2.78,23.74c-3.69.34,1.16,6.56,2.38,6.45C8.85,29.84,4,23.63,2.78,23.74Z"/>
        <path class="cls-9" d="M7.79,9.66C7,15.33,15,21.41,26.71,24.7c-6.38-2.78-15-9.62-17-15.64a3.74,3.74,0,0,1,.08-3.24A7.58,7.58,0,0,0,7.79,9.66Z"/>
        <g>
          <path class="cls-10" d="M39.77,31a.94.94,0,0,0-.46,1.83A.94.94,0,0,0,39.77,31Z"/>
          <path class="cls-10" d="M53.32,40.37a.94.94,0,0,0-.46,1.83A.94.94,0,0,0,53.32,40.37Z"/>
          <path class="cls-10" d="M55.44,31.93A.94.94,0,0,0,55,33.75.94.94,0,0,0,55.44,31.93Z"/>
          <path class="cls-10" d="M33.13,31.23a.65.65,0,0,0-.32,1.26A.65.65,0,0,0,33.13,31.23Z"/>
          <path class="cls-10" d="M47.63,41.54a.65.65,0,0,0-.31,1.26A.65.65,0,0,0,47.63,41.54Z"/>
          <path class="cls-10" d="M46.05,33.19a1,1,0,0,0-.49,2A1,1,0,0,0,46.05,33.19Z"/>
          <path class="cls-10" d="M48.35,32A.7.7,0,0,0,48,33.35.7.7,0,0,0,48.35,32Z"/>
          <path class="cls-10" d="M41.4,41.12a1,1,0,0,0-1.92.6A1,1,0,0,0,41.4,41.12Z"/>
          <path class="cls-10" d="M43.62,42.46a.69.69,0,0,0-1.32.42A.69.69,0,0,0,43.62,42.46Z"/>
        </g>
      </g>
    </g>
  </g>
</svg>
