<?xml version="1.0" encoding="utf-8"?>
<!-- Generator: Adobe Illustrator 23.1.0, SVG Export Plug-In . SVG Version: 6.00 Build 0)  -->
<svg version="1.1" id="圖層_1" xmlns="http://www.w3.org/2000/svg" xmlns:xlink="http://www.w3.org/1999/xlink" x="0px" y="0px"
	 viewBox="0 0 225 225" style="enable-background:new 0 0 225 225;" xml:space="preserve">
<style type="text/css">
	.st0{fill:#EDDAB7;}
	.st1{opacity:0.5;}
	.st2{fill:#FCD988;}
	.st3{enable-background:new    ;}
	.st4{fill:#633E37;}
	.st5{fill:#FFC75C;}
	.st6{fill:url(#SVGID_1_);}
	.st7{fill:#FFE8A3;}
	.st8{fill:url(#SVGID_2_);}
	.st9{fill:#FFDE7D;}
	.st10{fill:url(#SVGID_3_);}
	.st11{fill:url(#SVGID_4_);}
	.st12{fill:url(#SVGID_5_);}
	.st13{fill:#CF764E;}
	.st14{fill:url(#SVGID_6_);}
	.st15{fill:#B7DA6F;}
	.st16{fill:#89B543;}
	.st17{fill:#D3EE83;}
	.st18{fill:#E7F0CE;}
	.st19{fill:#CFAC00;}
	.st20{fill:#F1CD13;}
	.st21{fill:#F8F0D1;}
	.st22{fill:#F0DB51;}
	.st23{fill:#D1C753;}
	.st24{fill:url(#SVGID_7_);}
	.st25{fill:url(#SVGID_8_);}
	.st26{fill:url(#SVGID_9_);}
	.st27{fill:#7A4231;}
	.st28{fill:#662D1C;}
	.st29{fill:#FEA4BE;}
	.st30{fill:#A4EFFE;}
	.st31{fill:#6FA938;}
	.st32{fill:#DBF3C3;}
	.st33{fill:#C7E6A3;}
	.st34{fill:#90AE72;}
	.st35{fill:#ECFFD9;}
	.st36{fill:#FFFFFF;}
	.st37{fill:#EDB779;}
	.st38{fill:#95BFB1;}
	.st39{fill:#DCE6E8;}
	.st40{fill:#B2D6CA;}
	.st41{fill:#C3DBD3;}
	.st42{fill:#E8CFAE;}
	.st43{fill:#EFFAFC;}
	.st44{fill:#C6CFD1;}
	.st45{fill:#FEE8CB;}
	.st46{fill:#FED8A5;}
	.st47{fill:#83090E;}
	.st48{fill:#D61920;}
	.st49{fill:#B91219;}
	.st50{fill:#F5BA9D;}
	.st51{fill:#EE4240;}
	.st52{fill:#FFD2D1;}
	.st53{fill:#591E0C;}
	.st54{fill:#9F6E54;}
	.st55{fill:url(#SVGID_10_);}
	.st56{fill:#F6ACED;}
	.st57{fill:url(#SVGID_11_);}
	.st58{fill:#FFCEF9;}
	.st59{fill:url(#SVGID_12_);}
	.st60{fill:#FEC1F9;}
	.st61{fill:#F699EB;}
	.st62{fill:url(#SVGID_13_);}
	.st63{fill:#FFBAF7;}
	.st64{fill:#FEADF8;}
	.st65{fill:#FFD1F9;}
	.st66{fill:#7566A1;}
	.st67{fill:#57398A;}
	.st68{fill:url(#SVGID_14_);}
	.st69{fill:#B073B5;}
	.st70{fill:#CD9DD1;}
	.st71{fill:url(#SVGID_15_);}
	.st72{fill:#6A68A1;}
	.st73{fill:#9A75B5;}
	.st74{fill:#BC9FD1;}
	.st75{fill:#52508C;}
	.st76{fill:#3F3D7A;}
	.st77{fill:#FFD359;}
	.st78{fill:url(#SVGID_16_);}
	.st79{fill:#D47028;}
	.st80{fill:#B35E22;}
	.st81{fill:#C4A287;}
	.st82{fill:url(#SVGID_17_);}
	.st83{fill:#740042;}
	.st84{fill:#470029;}
	.st85{fill:#626698;}
	.st86{fill:#413C86;}
	.st87{fill:url(#SVGID_18_);}
	.st88{fill:#796095;}
	.st89{fill:#87759A;}
	.st90{fill:#4B3E8A;}
	.st91{fill:url(#SVGID_19_);}
	.st92{fill:url(#SVGID_20_);}
	.st93{fill:url(#SVGID_21_);}
	.st94{fill:url(#SVGID_22_);}
	.st95{fill:url(#SVGID_23_);}
	.st96{fill:#50558C;}
	.st97{fill:#3D427A;}
	.st98{fill:#6C6A9E;}
	.st99{fill:#5D4E8C;}
	.st100{fill:#4B3C7A;}
	.st101{fill:url(#SVGID_24_);}
	.st102{fill:url(#SVGID_25_);}
	.st103{fill:#494949;}
	.st104{fill:#3C3C3C;}
	.st105{fill:#2D2D2D;}
	.st106{fill:#606060;}
	.st107{fill:#FFB680;}
	.st108{fill:#FDE875;}
	.st109{fill:#F2C300;}
	.st110{fill:#D8D8D8;}
	.st111{fill:#C1C1C1;}
	.st112{fill:#E8E8E8;}
	.st113{fill:#C6C6C6;}
	.st114{fill:#FC8C06;}
	.st115{fill:#FF364A;}
	.st116{fill:#5B9B31;}
	.st117{fill:#8DD35F;}
	.st118{fill:#FFA748;}
	.st119{fill:#A83800;}
	.st120{fill:#892A00;}
	.st121{fill:#E21A37;}
	.st122{fill:#A8A8A8;}
	.st123{fill:#ED8A40;}
</style>
<title>P4_1</title>
<rect class="st0" width="225" height="225"/>
<g class="st1">
	<rect y="180.5" class="st2" width="225" height="44.5"/>
</g>
<g class="st3">
	<path class="st4" d="M67.6,205v-4.3c0-2.8,0.7-4.4,3.4-4.4c2.4,0,3.3,1.2,3.3,3.7v0.5h-1.7v-0.4c0-1.6-0.2-2.4-1.6-2.4
		c-1.6,0-1.7,1.2-1.7,2.7v4.7c0,1.8,0.3,2.7,1.7,2.7c1.4,0,1.7-1,1.7-2.9v-0.9h-1.6v-1.3h3.2v6.3h-1.1l-0.2-1.5
		c-0.3,0.9-1,1.6-2.3,1.6C68.4,209.3,67.6,207.7,67.6,205z"/>
	<path class="st4" d="M75.9,196.4h2.6c2.5,0,3.7,1,3.7,3.4c0,1.5-0.4,2.6-1.6,3l1.8,6.4h-1.7l-1.7-6h-1.4v6h-1.8V196.4z M78.3,201.9
		c1.5,0,2.1-0.5,2.1-2.1c0-1.5-0.4-2.1-2-2.1h-0.8v4.2H78.3z"/>
	<path class="st4" d="M83.5,205.2v-4.8c0-2.5,0.9-4,3.5-4c2.6,0,3.5,1.5,3.5,4v4.8c0,2.5-0.9,4.1-3.5,4.1
		C84.4,209.3,83.5,207.7,83.5,205.2z M88.6,205.5V200c0-1.4-0.3-2.3-1.7-2.3c-1.4,0-1.7,0.9-1.7,2.3v5.6c0,1.4,0.3,2.3,1.7,2.3
		C88.4,207.9,88.6,207,88.6,205.5z"/>
	<path class="st4" d="M91.7,204.9v-8.4h1.7v8.5c0,1.6,0.2,2.9,1.7,2.9s1.7-1.3,1.7-2.9v-8.5h1.7v8.4c0,2.7-0.6,4.4-3.4,4.4
		C92.3,209.3,91.7,207.5,91.7,204.9z"/>
	<path class="st4" d="M100,196.4h3.2c2.3,0,3.1,1.3,3.1,3.5c0,2-1.1,3.3-3.1,3.3h-1.4v5.9H100V196.4z M102.6,202c1.5,0,2-0.4,2-2
		c0-1.8-0.2-2.3-2-2.3h-0.8v4.3H102.6z"/>
	<path class="st4" d="M110.3,205.1v-4.5c0-2.6,0.7-4.3,3.4-4.3c2.4,0,3.2,1.4,3.2,3.7v1h-1.7v-0.9c0-1.4,0-2.4-1.5-2.4
		c-1.5,0-1.6,1-1.6,2.6v5c0,1.9,0.4,2.5,1.6,2.5c1.4,0,1.5-1,1.5-2.5v-0.9h1.7v0.9c0,2.3-0.7,3.9-3.2,3.9
		C111,209.3,110.3,207.4,110.3,205.1z"/>
	<path class="st4" d="M118.1,205.2v-4.8c0-2.5,0.9-4,3.5-4c2.6,0,3.5,1.5,3.5,4v4.8c0,2.5-0.9,4.1-3.5,4.1
		C118.9,209.3,118.1,207.7,118.1,205.2z M123.2,205.5V200c0-1.4-0.3-2.3-1.7-2.3c-1.4,0-1.7,0.9-1.7,2.3v5.6c0,1.4,0.3,2.3,1.7,2.3
		C122.9,207.9,123.2,207,123.2,205.5z"/>
	<path class="st4" d="M126.3,204.9v-8.4h1.7v8.5c0,1.6,0.2,2.9,1.7,2.9s1.7-1.3,1.7-2.9v-8.5h1.7v8.4c0,2.7-0.6,4.4-3.4,4.4
		C126.9,209.3,126.3,207.5,126.3,204.9z"/>
	<path class="st4" d="M134.6,196.4h2.6c2.5,0,3.7,1,3.7,3.4c0,1.5-0.4,2.6-1.6,3l1.8,6.4h-1.7l-1.7-6h-1.4v6h-1.8V196.4z
		 M137.1,201.9c1.5,0,2.1-0.5,2.1-2.1c0-1.5-0.4-2.1-2-2.1h-0.8v4.2H137.1z"/>
	<path class="st4" d="M142.1,205.6l1.6-0.4c0.1,1.4,0.4,2.7,1.8,2.7c0.9,0,1.4-0.5,1.4-1.5c0-1.1-0.6-1.7-1.4-2.4l-2.1-1.9
		c-0.8-0.7-1.2-1.5-1.2-2.8c0-1.9,1.1-2.9,3-2.9c2,0,3,1.1,3.2,3.3l-1.5,0.4c-0.1-1.3-0.4-2.3-1.7-2.3c-0.9,0-1.4,0.5-1.4,1.4
		c0,0.8,0.2,1.2,0.8,1.7l2.1,1.9c1,0.8,1.8,2,1.8,3.6c0,1.9-1.3,3-3,3C143.2,209.3,142.2,207.8,142.1,205.6z"/>
	<path class="st4" d="M149.6,196.4h4.9v1.3h-3.2v4.2h2.6v1.3h-2.6v4.7h3.2v1.3h-5V196.4z"/>
</g>
<g>
	<g>
		<path class="st5" d="M18.9,149.5l1.8,23c0,3.1,5.9,5.7,13.2,5.7s13.2-2.6,13.2-5.7l1.8-23H18.9z"/>
		
			<linearGradient id="SVGID_1_" gradientUnits="userSpaceOnUse" x1="18.93" y1="62.44" x2="48.85" y2="62.44" gradientTransform="matrix(1 0 0 -1 0 226)">
			<stop  offset="0" style="stop-color:#FFC75C"/>
			<stop  offset="1" style="stop-color:#E69133"/>
		</linearGradient>
		<path class="st6" d="M47.1,172.6l1.8-23H18.9l0.3,3.6c2.9,3,8.2,6.4,16.7,6.4c5,0,5.1,10.6,4.6,18
			C44.4,176.5,47.1,174.7,47.1,172.6z"/>
		<g>
			<path class="st7" d="M42.4,176.2l4.8-4.8l0.3-4.2l-5.1-5.1l5.4-5.4l0.5,0.5l0.3-4.6l-0.8,0.8l-3.9-3.9h-6.3l-3.9,3.9l-3.9-3.9
				h-6.3l-3.9,3.9l-0.4-0.5l0.3,3.9l0.1-0.1l5.4,5.4l-4.7,4.8l0.4,5l4.4,4.3l-0.4,0.4c1.8,0.7,3.6,1.2,5.5,1.4l-1.8-1.8l5.4-5.4
				l5.4,5.4l-1.9,1.9c2-0.2,3.9-0.7,5.7-1.4L42.4,176.2z M40.7,149.7l5.4,5.4l-5.4,5.4l-5.4-5.4L40.7,149.7z M21.3,155.1l5.4-5.4
				l5.3,5.4l-5.4,5.4L21.3,155.1z M26.7,174.6l-5.4-5.4l5.4-5.4l5.3,5.4L26.7,174.6z M28.3,162.1l5.4-5.4l5.4,5.4l-5.4,5.4
				L28.3,162.1z M35.3,169.1l5.4-5.4l5.4,5.4l-5.4,5.4L35.3,169.1z"/>
			
				<linearGradient id="SVGID_2_" gradientUnits="userSpaceOnUse" x1="19.2" y1="62.47" x2="48.61" y2="62.47" gradientTransform="matrix(1 0 0 -1 0 226)">
				<stop  offset="0" style="stop-color:#FFCD6E"/>
				<stop  offset="1" style="stop-color:#FFAF57"/>
			</linearGradient>
			<path class="st8" d="M19.2,153L19.2,153c0.7,0.8,1.4,1.4,2.2,2l5.3-5.3l5.3,5.4l-3.4,3.4c0.9,0.2,1.8,0.4,2.7,0.6l2.4-2.4
				l2.8,2.8c1.8,0.3,3,2.3,3.6,4.9l0.7-0.7l5.4,5.4l-5.4,5.4l-0.1-0.1c0,1-0.1,2.1-0.2,3h0.2l0.5-0.1l0.3-0.1l0.4-0.1l0.3-0.1
				l0.4-0.1l0.3-0.1l0.2-0.1l-0.5-0.5l4.8-4.8l0.3-4.2l-5.1-5.1l5.4-5.4l0.5,0.5l0.3-4.6l-0.8,0.8l-3.9-3.9h-6.2l-3.9,3.9l-3.9-3.9
				h-6.3l-3.9,3.9L19.2,153z M40.7,149.7l5.4,5.4l-5.4,5.4l-5.4-5.4L40.7,149.7z"/>
		</g>
		<path class="st9" d="M13.4,132l1.8,15.1c0,3.2,8.4,5.7,18.8,5.7s18.8-2.6,18.8-5.7l1.8-15.1H13.4z"/>
		
			<linearGradient id="SVGID_3_" gradientUnits="userSpaceOnUse" x1="13.36" y1="83.63" x2="54.42" y2="83.63" gradientTransform="matrix(1 0 0 -1 0 226)">
			<stop  offset="0" style="stop-color:#FFCD6E"/>
			<stop  offset="1" style="stop-color:#FFAF57"/>
		</linearGradient>
		<path class="st10" d="M13.8,135.7c4.3,1.2,12.6,5.1,18.2,17c0.6,0,1.2,0,1.9,0c10.4,0,18.8-2.6,18.8-5.7l1.8-15H13.4L13.8,135.7z"
			/>
		
			<linearGradient id="SVGID_4_" gradientUnits="userSpaceOnUse" x1="13.36" y1="90.385" x2="54.42" y2="90.385" gradientTransform="matrix(1 0 0 -1 0 226)">
			<stop  offset="0" style="stop-color:#FFC75C"/>
			<stop  offset="1" style="stop-color:#E69133"/>
		</linearGradient>
		<path class="st11" d="M13.8,135.5c3,2.2,10.9,3.8,20.1,3.8s17.1-1.6,20.1-3.8l0.4-3.6H13.4L13.8,135.5z"/>
		
			<linearGradient id="SVGID_5_" gradientUnits="userSpaceOnUse" x1="12.48" y1="94.7949" x2="55.3" y2="94.7949" gradientTransform="matrix(1 0 0 -1 0 226)">
			<stop  offset="0" style="stop-color:#FFE6B8"/>
			<stop  offset="1" style="stop-color:#FFDD63"/>
		</linearGradient>
		<path class="st12" d="M49.8,127.4c-5.2-1.4-10.6-2-16-1.9c-5.4-0.1-10.7,0.5-16,1.9h-5.4v3.8c0,3.2,9.6,5.7,21.4,5.7
			s21.4-2.6,21.4-5.7v-3.8H49.8z"/>
		<ellipse class="st13" cx="33.9" cy="127.4" rx="21.4" ry="5.7"/>
		
			<linearGradient id="SVGID_6_" gradientUnits="userSpaceOnUse" x1="12.48" y1="95.4728" x2="55.3" y2="95.4728" gradientTransform="matrix(1 0 0 -1 0 226)">
			<stop  offset="0" style="stop-color:#FFC75C"/>
			<stop  offset="1" style="stop-color:#E69133"/>
		</linearGradient>
		<path class="st14" d="M33.9,125.5c-5.4-0.1-10.7,0.5-16,1.9h-5.5v2c4.3,3.9,12.5,6.4,21.9,6.2c8.9-0.2,16.6-2.8,20.9-6.5v-1.6
			h-5.5C44.6,126,39.3,125.4,33.9,125.5z"/>
	</g>
	<g>
		<path class="st15" d="M58.9,121.6c0.2,7.1-10.8,13.1-24.5,13.4s-24.9-5.2-25.1-12.3s10.9-10.9,24.5-11.2S58.7,114.5,58.9,121.6z"
			/>
		<path class="st15" d="M56,110.9c0.2,7.1-9.6,13-21.8,13.3s-22.3-5.2-22.5-12.3s9.7-9.5,21.9-9.8S55.8,103.8,56,110.9z"/>
		<path class="st15" d="M47.1,103.8c-0.2-5.8-4.6-14.2-10.4-14.9c-2.2-0.3-4.1-1.5-5.6,1c-0.5,0.8-0.1,2.5,0,3.3
			c0.7,4.1-0.6,6.4-3.6,8.6c-4.6,3.3,0.5,8.2,4.1,8.6c1.8,0.3,3.7,0.5,5.5,0.6c1.2,0,2.3-0.9,3.5-1.2c1.2-0.4,2.4-1.1,3.4-2
			c0.1-0.1,0.2-0.3,0.3-0.4c1.1-0.4,2-1.4,2.3-2.6C47,104.6,47.2,104.2,47.1,103.8z"/>
		<path class="st16" d="M54.7,115.3c0.8-1.3,1.3-2.9,1.3-4.4c-0.1-4.2-3.6-6.5-8.9-7.8c-0.5-5.8-4.8-13.6-10.3-14.3
			c-0.7-0.1-1.3-0.3-1.9-0.4c0.6,0.5,1.2,0.9,1.9,1.3c1.5,0.9,2.7,2,3.8,3.3c1,1.4,1.8,2.8,2.4,4.4c0.8,1.5,1.3,3,1.7,4.6
			c0.1,1,0.4,2,0.9,2.8c0.2,0.2,0.5,0.2,0.8,0.3c0.9,0.3,1.8,0.7,2.6,1.3c2.2,1.1,2.9,3.8,3,6.2c0,0.7,0,1.3,0,2
			c0,1.7-1.5,2.1-2.6,2.6c-0.4,0.2-0.2,0.8,0.2,0.8c0.6,0,1.1,0,1.7,0c1.8,0,1.9,2.1,2.2,3.4c0.3,2.1,0.1,4.2-0.7,6.2
			c-1.2,3.6-5.5,4.2-8.2,5.8c-0.2,0.1-0.2,0.3-0.2,0.4c8.8-2.2,14.8-6.8,14.7-12.1C58.8,119,57.3,116.9,54.7,115.3z"/>
		<path class="st17" d="M49.9,121.5c0.1,4.3-8.6,8-19.3,8.2s-19.6-3-19.7-7.3s8.6-6.6,19.4-6.9S49.8,117.2,49.9,121.5z"/>
		<path class="st17" d="M51,109.3c0.1,5.8-8.6,10.7-19.5,10.9s-19.8-4.2-19.9-10s8.6-7.7,19.5-8S50.9,103.5,51,109.3z"/>
		<path class="st17" d="M42.6,103.8c-0.2-5.8-3.7-14.2-8.2-15c-1.8-0.3-3.3-1.5-4.4,1c-0.4,0.8-0.1,2.5,0,3.3
			c0.5,4.1-0.4,6.4-2.8,8.6c-3.6,3.3,0.4,8.2,3.3,8.6c1.4,0.3,2.9,0.5,4.3,0.6c1,0,1.8-0.9,2.7-1.1c1-0.5,1.9-1.2,2.7-2
			c0-0.1,0.1-0.2,0.2-0.4c1-0.5,1.6-1.5,1.8-2.6C42.4,104.6,42.6,104.2,42.6,103.8z"/>
		<path class="st18" d="M28.7,114.3c-5.8,0.1-10.2-2.3-10.3-4.5c0-1.9,3.7-3.1,10.1-3.3s10.2,0.9,10.2,2.8
			C38.8,111.5,34.5,114.1,28.7,114.3z"/>
		<path class="st18" d="M32.1,127.5c-5.4,0.1-9.5-2.3-9.5-4.5c0-1.9,3.5-3.1,9.4-3.3s9.5,0.9,9.5,2.8
			C41.5,124.8,37.5,127.4,32.1,127.5z"/>
		<path class="st18" d="M32.1,100c-0.3,1.4-0.3,2.9,0,4.3c0.6,1.9,3.9,1.2,4.9,0.1c1.3-1.6,1.6-3.8,1.5-5.9c-1.2-3.3-3-6.1-4.6-6.4
			c-0.4-0.1-0.8-0.2-1.2-0.3c0,0.2,0.1,0.8,0.1,0.8C33.2,95.1,33,97.7,32.1,100z"/>
		<path class="st15" d="M31.2,110.7c-1.4-0.2-2.7-0.2-4.1-0.2c-1.4-0.1-2.9-0.4-4.3-0.7c-0.7,0-1.4,0-2.1,0c-0.6,0-1.1-0.4-1.6-0.4
			c-0.6,0-1.2,0.3-1.6,0.8c-0.6,0.1-1.1,0.7-1,1.4c0.3,6.9,9.4,5.9,13.8,5.9c2.7,0,4.7-0.3,5.8-3.1
			C37.5,111.1,33.1,110.9,31.2,110.7z"/>
		<path class="st16" d="M30.6,111.7c-1.2-0.1-2.3-0.2-3.5-0.1c-1.2-0.1-2.5-0.3-3.7-0.5c-0.6,0-1.2,0-1.9,0c-0.5,0-0.9-0.3-1.4-0.3
			c-0.5,0-1,0.2-1.4,0.6c-0.5,0.1-0.9,0.6-0.8,1.1c0.2,5.4,8.1,4.6,11.9,4.6c2.3,0,4-0.3,5-2.4C36.1,112,32.3,111.9,30.6,111.7z"/>
		<g>
			<path class="st19" d="M11.7,94.4c-3.3,4.3-1.7,14.3,4.6,19.2s16.4,3.8,19.7-0.5L11.7,94.4z"/>
			<path class="st20" d="M11.7,94.4c-3.3,4.3-1.4,14,5,18.8s16,4.1,19.3-0.2L11.7,94.4z"/>
			<path class="st21" d="M17.3,112.3c5.8,4.4,14.6,3.9,18.6,0.5l-24-18.3C9.7,99.3,11.5,107.9,17.3,112.3z"/>
			<path class="st22" d="M18,111.3c5.3,4,13.1,3.9,17.5,1.3L12.2,94.7C10.8,99.7,12.8,107.2,18,111.3z"/>
			<path class="st23" d="M35.5,112.6l-0.8-0.6c-2.8,0.9-5.8,1.3-8.7,1c-2-0.4-3.9-1.1-5.5-2.2c-1.7-0.9-6.7-6.2-7.1-8.1
				c-0.4-2.4-0.5-4.8-0.3-7.3v-0.1l-0.8-0.6c-1.4,4.9,0.6,12.5,5.8,16.5S31.2,115.2,35.5,112.6z"/>
			<path class="st21" d="M23.8,103.4c-0.1-0.1-0.4-0.4-0.5-0.5c-0.4-0.3-0.9-0.2-1.2,0.2c-0.2,0.3-0.2,0.8,0.1,1.1
				c0.1,0.1,0.1,0.3,0.3,0.4c0.1,0,0.1,0.1,0.2,0.1c0,0.1,0.1,0.1,0.1,0.2c0.4,0.3,0.9,0.2,1.2-0.2
				C24.2,104.3,24.1,103.7,23.8,103.4L23.8,103.4z"/>
			<polygon class="st21" points="16.9,110.4 23,103.9 18.3,111.4 			"/>
			<polygon class="st21" points="12.8,104.3 23,103.9 13,106.1 			"/>
			<polygon class="st21" points="11.8,98.2 23,103.9 11,100 			"/>
			<polygon class="st21" points="23.6,114.7 23,103.9 25.5,114.4 			"/>
			<polygon class="st21" points="30.8,115.1 23.1,103.8 32.4,113.9 			"/>
		</g>
	</g>
</g>
<g>
	<g>
		<g>
			<path class="st5" d="M197,110.8l-14.8-5.6c-7,39.4-3.1,43.2,0.1,44.4s8.6,1,29.6-33.1L197,110.8z"/>
			<path class="st7" d="M201.6,112.5l-6.9,3.5l-2.9-7.2l-7.9-3l-2.1,1c-0.2,1.4-0.5,2.7-0.7,4l6.6-3.3l4,9.9l-9.5,4.7l-2-5.1
				c-0.6,3.9-1,7.4-1.3,10.4l1.7-0.8l4,9.9l-6.2,3.1c0,1.2,0.1,2.4,0.3,3.5l7.2-3.6l3.2,7.9c0.9-0.7,1.8-1.5,2.6-2.4l-2.8-7l9.5-4.7
				l0.9,2.3c0.7-1,1.5-2.1,2.3-3.2l-0.2-0.6l1-0.5c1.2-1.7,2.4-3.5,3.6-5.5l-5.9,2.9l-4-9.9l9.5-4.7l3,7.5c0.7-1.1,1.4-2.2,2.1-3.4
				l-1.1-2.8L201.6,112.5z M197,130.3l-9.5,4.7l-4-9.9l9.5-4.7L197,130.3z"/>
			
				<linearGradient id="SVGID_7_" gradientUnits="userSpaceOnUse" x1="284.0352" y1="473.6829" x2="315.7852" y2="473.6829" gradientTransform="matrix(0.9348 0.3553 0.3553 -0.9348 -258.9966 466.2545)">
				<stop  offset="0" style="stop-color:#FFC75C"/>
				<stop  offset="1" style="stop-color:#E69133"/>
			</linearGradient>
			<path class="st24" d="M211.8,116.4l-14.8-5.6l-14.8-5.6c-0.3,1.6-0.5,3-0.8,4.5c2.7,3.4,9.3,5.8,13.5,13
				c2.2,3.8-7.5,19.4-11.3,27.2C186.9,150.2,193.4,146.5,211.8,116.4z"/>
			<g>
				
					<linearGradient id="SVGID_8_" gradientUnits="userSpaceOnUse" x1="284.3759" y1="480.6028" x2="315.3659" y2="480.6028" gradientTransform="matrix(0.9348 0.3553 0.3553 -0.9348 -258.9966 466.2545)">
					<stop  offset="0" style="stop-color:#FFCD6E"/>
					<stop  offset="1" style="stop-color:#FFAF57"/>
				</linearGradient>
				<path class="st25" d="M181.8,107.2l-0.1,0.7c-0.1,0.5-0.2,1-0.3,1.5v0.2c0.2,0.3,0.5,0.5,0.7,0.8l5.7-2.8l4,9.9l-0.7,0.3
					c1.5,1.5,2.7,3.1,3.7,4.9c0.4,0.9,0.4,1.9,0.2,2.8l2,4.9l-4.6,2.3c-0.7,1.6-1.5,3.2-2.4,4.8l8.2-4l0.9,2.3
					c0.7-1,1.5-2.1,2.3-3.2l-0.2-0.6l1-0.5c1.2-1.7,2.4-3.5,3.6-5.5l-5.9,2.9l-4-9.9l9.5-4.7l3,7.5c0.7-1.1,1.4-2.2,2.1-3.4l0,0
					l-1.1-2.8l-7.9-3l-7,3.4l-2.9-7.2l-7.9-3l-2.1,1L181.8,107.2z"/>
				
					<linearGradient id="SVGID_9_" gradientUnits="userSpaceOnUse" x1="302.1352" y1="461.0092" x2="306.9733" y2="461.0092" gradientTransform="matrix(0.9348 0.3553 0.3553 -0.9348 -258.9966 466.2545)">
					<stop  offset="0" style="stop-color:#FFCD6E"/>
					<stop  offset="1" style="stop-color:#FFAF57"/>
				</linearGradient>
				<path class="st26" d="M188.9,147.5c0.9-0.8,1.8-1.5,2.6-2.4l-2.4-5.9l-2,3.8L188.9,147.5L188.9,147.5z"/>
			</g>
		</g>
		<g>
			<path class="st27" d="M197,110.8l-14.8-5.6c-1.2,6.7-2.1,12.4-2.7,17.2c1.2,0.7,2.8,0.7,4.6-2c3.7-5.5,1.5,6.5,5.2,9.5
				s7.8-8,10.3-7.1s0.6,3.8,4.6,5.8c2.3-3.5,4.9-7.5,7.7-12.2L197,110.8z"/>
			<path class="st28" d="M181.4,109.5v0.1c2.7,3.4,9.3,5.8,13.5,13c0.6,1,0.3,2.7-0.4,4.8c1.9-2.3,3.7-5.2,5-4.7
				c2.4,0.9,0.6,3.8,4.6,5.8c0.6-0.9,1.2-1.8,1.8-2.7l0.1-0.1c0.9-1.4,1.8-2.8,2.8-4.3c0.1-0.1,0.1-0.2,0.2-0.3
				c0.2-0.4,0.5-0.8,0.7-1.2l0.3-0.4l0.7-1.1c0.1-0.2,0.2-0.3,0.3-0.4l1-1.6l-14.8-5.6l-14.8-5.6c-0.1,0.8-0.3,1.5-0.4,2.3
				S181.5,108.8,181.4,109.5z"/>
			<path class="st29" d="M189,114.1c-0.4,0.2-1.2-0.7-1.8-2s-0.7-2.4-0.3-2.6s1.2,0.7,1.8,2S189.4,113.9,189,114.1z"/>
			<path class="st29" d="M192.9,123.5c0.3,0.4-0.4,1.4-1.4,2.3s-2.2,1.3-2.5,0.9s0.3-1.4,1.4-2.2S192.6,123.2,192.9,123.5z"/>
			<path class="st30" d="M192.1,119.2c-0.1,0.5-1.3,0.6-2.6,0.4s-2.4-0.8-2.3-1.3s1.3-0.6,2.6-0.4S192.1,118.8,192.1,119.2z"/>
			<path class="st30" d="M204.3,117.4c0.5,0,0.8,1.1,0.8,2.5s-0.4,2.5-0.9,2.5s-0.8-1.1-0.8-2.5S203.8,117.4,204.3,117.4z"/>
			<path class="st5" d="M198.6,116.3c0.1,0.4-0.9,1.1-2.3,1.4s-2.5,0.2-2.6-0.3s0.9-1.1,2.3-1.4S198.4,115.9,198.6,116.3z"/>
			<path class="st5" d="M183.7,112.8c0.4,0.2,0.4,1.3-0.1,2.7s-1.3,2.2-1.7,2.1s-0.4-1.3,0.1-2.7S183.3,112.7,183.7,112.8z"/>
		</g>
	</g>
	<g>
		<path class="st31" d="M203.8,72.3c2.2,5-1.6,11.6-1.6,11.6s-7.5-1.5-9.7-6.5s1.6-11.6,1.6-11.6S201.6,67.3,203.8,72.3z"/>
		<path class="st32" d="M196.3,70.7c0.6,1,1.2,2.1,1.8,3.2s1.1,2.2,1.6,3.3s1,2.2,1.4,3.3s0.9,2.3,1.2,3.4c-0.6-1-1.2-2.1-1.8-3.2
			s-1.1-2.2-1.6-3.3s-1-2.2-1.4-3.3S196.7,71.9,196.3,70.7z"/>
		<path class="st32" d="M194.2,74.4c0.4,0,0.8,0.1,1.3,0.2c0.4,0.1,0.8,0.2,1.2,0.4c0.4,0.1,0.8,0.3,1.1,0.5c0.4,0.2,0.7,0.4,1,0.7
			c-0.4,0-0.8-0.1-1.3-0.2c-0.4-0.1-0.8-0.2-1.2-0.4c-0.4-0.2-0.8-0.3-1.1-0.5C194.8,75,194.5,74.7,194.2,74.4z"/>
		<path class="st32" d="M195.8,78c0.4,0,0.8,0.1,1.3,0.2c0.4,0.1,0.8,0.2,1.2,0.4c0.4,0.1,0.8,0.3,1.1,0.5c0.4,0.2,0.7,0.4,1,0.7
			c-0.4,0-0.8-0.1-1.3-0.2c-0.4-0.1-0.8-0.2-1.2-0.4c-0.4-0.1-0.8-0.3-1.1-0.5C196.4,78.5,196.1,78.3,195.8,78z"/>
		<path class="st32" d="M199.2,77.2c0-0.4,0.1-0.8,0.2-1.3c0.1-0.4,0.2-0.8,0.4-1.2c0.1-0.4,0.3-0.8,0.5-1.1c0.2-0.4,0.4-0.7,0.7-1
			c0,0.4-0.1,0.8-0.2,1.3c-0.1,0.4-0.2,0.8-0.4,1.2c-0.2,0.4-0.3,0.8-0.5,1.1C199.7,76.6,199.5,76.9,199.2,77.2z"/>
		<path class="st32" d="M197.7,73.9c0-0.4,0.1-0.8,0.2-1.3c0.1-0.4,0.2-0.8,0.4-1.2c0.1-0.4,0.3-0.8,0.5-1.1c0.2-0.4,0.4-0.7,0.7-1
			c0,0.4-0.1,0.8-0.2,1.3c-0.1,0.4-0.2,0.8-0.4,1.2c-0.2,0.4-0.3,0.8-0.5,1.1C198.2,73.3,198,73.6,197.7,73.9z"/>
	</g>
	<g>
		<path class="st33" d="M214.3,116.3c0,0,0-0.1,0-0.1s0-0.2,0-0.3s0-0.1,0-0.2s0-0.2,0-0.2c0-0.1,0-0.1,0-0.2c0-0.1,0-0.1,0-0.2
			c0-0.1,0-0.1,0-0.2c0-0.1,0-0.1,0-0.2c0-0.1,0-0.1,0-0.2c0-0.1,0-0.1-0.1-0.2c0-0.1,0-0.1-0.1-0.2c0-0.1,0-0.1-0.1-0.2
			c0-0.1,0-0.1-0.1-0.2c0-0.1,0-0.1-0.1-0.2l-0.1-0.2l-0.1-0.2l-0.1-0.2l-0.1-0.2c0-0.1-0.1-0.2-0.1-0.2l-0.1-0.2
			c-0.1-0.1-0.1-0.2-0.2-0.3l-0.1-0.2l-0.2-0.3l-0.1-0.2c-0.1-0.1-0.1-0.2-0.2-0.3l-0.1-0.2l-0.3-0.3l-0.1-0.1l-0.3-0.3l0,0
			c-3.4-3.2-7.4-5.7-11.9-7.3c-9.6-3.7-18.5-3.6-20.1,0.4c-0.2,0.6-0.3,1.2-0.2,1.8c0,0,0,0.1,0,0.1c0,0.1,0,0.2,0.1,0.3v0.1
			c0,0.1,0.1,0.2,0.1,0.3s0,0.1,0,0.1l0.1,0.3l0.1,0.1l0.1,0.3l0.1,0.1l0.1,0.3v0.1c0.2,0.3,0.4,0.7,0.7,1l0.1,0.1
			c0.1,0.1,0.1,0.2,0.2,0.3l0.1,0.2l0.2,0.3l0.1,0.2c0.1,0.1,0.2,0.2,0.2,0.3l0.2,0.2l0.2,0.3l0.2,0.2l0.3,0.3l0.2,0.2l0.3,0.3
			l0.5,0.4c0.1,0.1,0.2,0.2,0.3,0.2l0.3,0.2l0.3,0.2l0.3,0.2l0.3,0.2l0.3,0.2l0.3,0.2l0.3,0.2l0.3,0.2l0.4,0.2l0.3,0.2l0.4,0.3
			l0.2,0.2l0.7,0.4l0.2,0.1l0.6,0.3l0.3,0.1l0.5,0.3l0.3,0.2l0.4,0.2l0.3,0.2l0.5,0.2l0.3,0.2l0.5,0.2l0.3,0.2l0.6,0.2l0.3,0.1
			l0.8,0.3c9.6,3.7,18.6,3.6,20.1-0.4L214.3,116.3z"/>
		<path class="st34" d="M212.9,111.7l-0.2-0.3l-0.1-0.2c-0.1-0.1-0.1-0.2-0.2-0.3l-0.1-0.2l-0.3-0.3l-0.1-0.1l-0.3-0.3
			c-3.4-3.2-7.4-5.7-11.9-7.3c-6.9-2.7-13.6-3.4-17.3-2c2.7,9,12.6,15.3,22.6,14.2c2.9-0.3,5.7-1.3,8.2-2.9l-0.1-0.2L212.9,111.7z"
			/>
		<circle class="st32" cx="202.1" cy="94.4" r="19.1"/>
		<path class="st33" d="M184.3,101.3c3.8,9.9,14.8,14.8,24.7,11s14.8-14.8,11-24.7c-1.2-3.3-3.4-6.1-6.1-8.2
			c-2,4.2-3.1,8.9-5.5,12.9c-1.6,2.9-4.1,5.4-7,7c-3.3,1.7-7.1,2.2-10.8,2.5C188.5,101.9,186.4,101.7,184.3,101.3z"/>
		<path class="st35" d="M200.3,79.4c-0.2,0-0.4,0.1-0.5,0.3c-4.2,0.6-7.9,2.9-10.5,6.2c-0.9,1.2-1.8,2.8-0.9,4.2s3,1.9,4.5,2.1
			c4.5,0.2,8.7-2,11.1-5.7C205.7,83.5,204.3,78.9,200.3,79.4z"/>
		<path class="st36" d="M197.5,80.4c-0.1,0-0.2,0.1-0.3,0.2c-2.1,0.3-4,1.4-5.3,3.1c-0.5,0.6-0.9,1.4-0.4,2.1c0.6,0.6,1.4,1,2.3,1
			c2.2,0.1,4.3-1,5.5-2.9C200.2,82.4,199.5,80.1,197.5,80.4z"/>
		<path class="st37" d="M199.5,79.6c-1.2-1.8-2.4-3.6-3.6-5.4c-0.3-0.5-0.9-0.2-1,0.2c-0.1,0.1-0.2,0.2-0.3,0.3
			c-0.5,1-0.8,2-1.1,3.1c-0.2,0.5-0.1,1.2,0.2,1.6c0.6,0.5,1.3,0.7,2,0.8c1.1,0.2,2.2,0.4,3.3,0.4c0.3,0,0.6-0.3,0.6-0.6
			C199.6,79.8,199.6,79.7,199.5,79.6z"/>
		<path class="st37" d="M219.8,82.2l-6.3,1.6c-0.3,0.1-0.4,0.4-0.3,0.7c0,0.1,0.1,0.2,0.2,0.3c0,0.1,0.1,0.3,0.2,0.3
			c0.8,0.8,1.6,1.5,2.5,2.1c0.4,0.4,1,0.5,1.6,0.3c0.7-0.3,1-1,1.4-1.6c0.6-0.9,1-1.9,1.4-2.9c0.1-0.3,0-0.7-0.3-0.8
			C220.1,82.1,220,82.1,219.8,82.2z"/>
		<path class="st37" d="M202.3,78.1l3.3-2c0.2-0.1,0.2-0.3,0.2-0.5c0-0.1-0.1-0.1-0.2-0.2c0-0.1-0.1-0.1-0.1-0.2
			c-0.5-0.3-1-0.6-1.5-0.8c-0.3-0.1-0.6-0.1-0.9,0.1c-0.3,0.3-0.5,0.7-0.6,1.2c-0.2,0.7-0.4,1.3-0.6,2c0,0.2,0.1,0.3,0.3,0.3
			C202.2,78.1,202.2,78.1,202.3,78.1z"/>
		<path class="st37" d="M207.6,85.4l-2.4-3c-0.1-0.2-0.3-0.2-0.5-0.1c-0.1,0-0.1,0.1-0.1,0.2c-0.1,0-0.1,0.1-0.1,0.2
			c-0.2,0.5-0.4,1.1-0.5,1.6c-0.1,0.3,0,0.6,0.2,0.9c0.4,0.3,0.8,0.4,1.3,0.4c0.7,0.1,1.3,0.2,2,0.3c0.2,0,0.3-0.1,0.4-0.2
			C207.7,85.5,207.7,85.4,207.6,85.4z"/>
		<path class="st37" d="M211.1,74.6c-1,1.4-2.1,2.7-3.1,4.1c-0.3,0.4,0.1,0.7,0.5,0.6c0.1,0.1,0.2,0.1,0.3,0.1c0.9,0,1.9,0,2.8-0.2
			c0.5,0,0.9-0.2,1.2-0.6c0.2-0.5,0.2-1.1,0-1.6c-0.2-0.8-0.4-1.6-0.8-2.4c-0.1-0.3-0.5-0.4-0.7-0.3
			C211.3,74.4,211.2,74.4,211.1,74.6z"/>
	</g>
</g>
<g>
	<path class="st37" d="M101.2,76.9l-6.3,1.2c-0.6,0.1-0.5,0.8-0.2,1c0,0.1,0.1,0.2,0.2,0.3c0.7,0.8,1.5,1.6,2.4,2.2
		c0.4,0.4,1,0.6,1.6,0.4c0.7-0.2,1.1-1,1.5-1.5c0.6-0.9,1.2-1.9,1.6-2.8c0.1-0.3,0-0.7-0.3-0.8C101.4,76.9,101.3,76.9,101.2,76.9z"
		/>
	<g>
		<g>
			<path class="st38" d="M82.5,159.4c-1.8,4.1-8.8,4.9-15.4,1.9s-10.6-8.8-8.7-12.9s9.2-5.8,15.8-2.8S84.3,155.3,82.5,159.4z"/>
			<path class="st39" d="M82.9,158.6c-1.9,4.1-8.8,4.9-15.4,1.9s-10.6-8.8-8.7-12.9s9.2-5.8,15.8-2.8S84.7,154.5,82.9,158.6z"/>
			<path class="st40" d="M74.5,144.8c-2.9-1.3-6-1.8-9.2-1.4c5.2,4.7,7.7,11.6,6.6,18.5c5,1,9.5-0.2,10.9-3.4
				C84.7,154.5,81.2,147.9,74.5,144.8z"/>
			<path class="st38" d="M70.5,153.3L70.5,153.3c-1.8-0.8-2.6-3-1.8-4.8c0,0,0,0,0,0l1.3-2.8c0.8-1.8,3-2.6,4.8-1.8c0,0,0,0,0,0l0,0
				c1.8,0.8,2.6,3,1.8,4.8l-1.3,2.8C74.5,153.3,72.3,154.1,70.5,153.3z"/>
			<path class="st39" d="M70.9,152.4L70.9,152.4c-1.8-0.8-2.6-3-1.8-4.8l1.3-2.8c0.8-1.8,3-2.6,4.8-1.8l0,0c1.8,0.8,2.6,3,1.8,4.8
				l-1.3,2.8C74.9,152.4,72.7,153.2,70.9,152.4C70.9,152.4,70.9,152.4,70.9,152.4z"/>
			<path class="st41" d="M75.7,150.6l2.8-6.1l-6.1-2.8l-0.5-0.2l-2.3,5c1,0.8,2.1,1.4,3.4,1.9c1.1,0.3,0.3,2.5-0.6,4.3
				C73.8,152.7,75.1,151.9,75.7,150.6z"/>
			<path class="st39" d="M80.8,131c-13.1-5.9-22.2-14.8-21.8-20.8c-2.8,11.3,1.6,30.5,14.7,36.4s30.5-3.4,37.2-13
				C106.7,138,94,137,80.8,131z"/>
			<path class="st42" d="M74.5,144.8c-9.6-4.4-13.8-19.5-14.1-29.6c3.8,5.1,11.4,11.7,20.3,15.7s18.8,5.4,25.2,5
				C98.2,142.3,84,149.1,74.5,144.8z"/>
			<path class="st40" d="M80.8,131c-13.1-5.9-22.2-14.8-21.8-20.8c-0.1,0.6-0.3,1.3-0.4,1.9c0.6,6,9.4,14.2,21.8,19.8
				s24.4,6.8,29.3,3.3c0.4-0.5,0.8-1.1,1.2-1.6C106.7,138,94,137,80.8,131z"/>
			<path class="st39" d="M112.2,128.8c-1.1-5.9-9.7-13.8-21.7-19.2s-23.5-6.7-28.7-3.7l-1-0.5l-1.5,3.3l0,0
				c-2.2,6,7.3,15.9,21.5,22.3c14.2,6.5,27.9,7.1,31,1.5l0,0l1.5-3.3L112.2,128.8z"/>
			
				<ellipse transform="matrix(0.4131 -0.9107 0.9107 0.4131 -55.7726 148.0814)" class="st42" cx="87" cy="117.3" rx="11.8" ry="28.8"/>
			<path class="st43" d="M63.3,150.3c-0.5-0.7-0.3-1.4,0.6-1.4c1.9-0.1,1.6-3-0.3-2.9c-2.1,0.1-3.7,1.9-3.5,3.9
				c0,0.8,0.3,1.5,0.8,2.1C62.1,153.5,64.5,151.8,63.3,150.3z"/>
			<path class="st44" d="M64.3,123.9c-0.1-0.6-0.3-1.2-0.7-1.7c-0.1-0.5-0.4-0.9-0.8-1.1c-0.2-0.1-0.5-0.1-0.7-0.1
				c-0.5-0.1-1,0.1-1.3,0.5c-0.3,0.4-0.4,0.8-0.3,1.3c-0.1,0.6-0.2,1.1-0.1,1.7c0.2,1.2,1.1,2.5,2.5,2C63.9,126,64.5,125,64.3,123.9
				z"/>
			<path class="st44" d="M66.8,132.2c-0.6-1.4-1.3-5-3.6-4.2c-2.5,0.8-0.8,3.6-0.1,5c0.1,0.2,0.2,0.3,0.3,0.4
				c0.3,0.6,0.6,1.2,0.9,1.7c0.5,0.8,1.6,1,2.4,0.4c0.1-0.1,0.2-0.2,0.3-0.3C67.8,134.3,67.2,133.1,66.8,132.2z"/>
		</g>
		<g>
			<path class="st45" d="M120.4,120.4c-1.2-3.4-6.6-7.7-4.7-11.3c0.6-1.1,1.7-1.5,1.5-3c-0.2-1-0.7-1.8-1.5-2.4
				c-2.6-2.5-5.9-4.4-9.4-5.3c-1.8-0.5-3.7-0.8-5.6-0.8c-2.9,0-5.8,1-8.8-0.3c-2.8-1.1-5-3.5-7.3-5.3c-1.8-1.4-3.7-2.8-5.6-4.2
				c-2.7-1.9-6-4.6-9.2-2.8c-2.9,1.6-3.1,5-2.9,8c-5-0.6-9.2,3.2-7.5,8.3c0.5,1.2,1.2,2.4,2,3.5c1.3,2.2,0.9,3.5,0.9,5.7
				c0,2.4,1.6,4.4,3.7,5.9c1.2,0.8,2.4,1.4,3.8,1.8c2.1,0.7,4.8,0.7,5.2,3.3c0.4,2.3-0.2,3.8,2,5.7c1.6,1.4,3.8,2.1,6,1.7
				c0.5-0.1,1-0.3,1.4-0.5c2.5-0.8,4.2-1.2,5.8,1.3c0.9,1.3,1.3,2.8,2.2,4.1c3.9,5.4,11.1,3.1,13.6-1.4c0.6-1.3,1.1-2.7,1.5-4.1
				c0.6-1.8,0.7-3.7,4-1.9c0.3,0.1,1,1.1,1.3,1.3c2.1,1.2,4.8,0.8,6.6-0.9C121.2,125.1,121.2,122.6,120.4,120.4z"/>
			<path class="st46" d="M101.3,97.8c-3-0.1-5.8,0.9-8.8-0.3c-2.8-1.1-5-3.5-7.3-5.3c-1.8-1.4-3.7-2.8-5.6-4.2
				c-0.7-0.5-1.5-1.1-2.3-1.6c-0.3,0.4-0.5,0.9-0.7,1.3c-0.4,0.8-0.7,1.7-0.8,2.6l0,0c-0.1,0.4-0.1,0.7-0.2,1.1
				c-0.2,0.7-0.5,1.3-0.7,2c-0.2,0.5-0.4,1.1-0.6,1.6c-0.3,0.9-0.7,1.8-1,2.6l-0.2,0.5c-0.3,0.9-0.6,1.7-0.8,2.6
				c-0.1,0.5-0.3,1-0.3,1.4c-0.4,1.3-0.4,2.7,0.1,4c0.4,0.6,1,0.9,1.7,0.8c1.1-0.1,2.1-0.7,2.8-1.5c1.2-1.3,1.7-1,2.1-0.1
				c0.3,1,0.6,2,0.8,3c0.1,0.4,0.2,0.9,0.4,1.4c0.1,0.3,0.2,0.6,0.3,0.9s0.2,0.6,0.4,0.9c0.4,0.8,0.9,1.6,1.6,2.1
				c1.6,1.3,3.3,0.5,4.7-0.7c0.4-0.3,0.8-0.7,1.2-1.1c0.2-0.2,0.4-0.4,0.6-0.5c1.2-1.1,2.3-1.9,3.2-1.5c0.6,0.3,1,0.8,1.2,1.4
				l0.2,0.4c0,0.2,0.1,0.3,0.1,0.5s0.1,0.5,0.2,0.7s0.1,0.3,0.1,0.5c0.1,0.5,0.4,1,0.8,1.3l0.2,0.1c0.1,0,0.1,0.1,0.2,0.1
				c0.6,0.2,1.2,0.3,1.9,0.2c0.3,0,0.5-0.1,0.7-0.2c0.1,0,0.2-0.1,0.3-0.2c0.3-0.2,0.5-0.4,0.8-0.6c0.3-0.3,0.5-0.5,0.8-0.8
				c0.3-0.3,0.5-0.7,0.8-1l0.2-0.4c0.2-0.3,0.3-0.5,0.5-0.8s0.5-0.8,0.7-1.3c0.3-0.6,0.7-1.2,1-1.8l0.2-0.4c0.5-0.9,0.9-1.8,1.4-2.6
				c0.2-0.3,0.3-0.6,0.4-0.8c0.6-0.7,1-1.4,1.4-2.1c0.1-0.2,0.3-0.5,0.4-0.8l0,0c0.1-0.2,0.2-0.4,0.3-0.7c0-0.1,0.1-0.2,0.1-0.2
				s0.1-0.3,0.2-0.4s0-0.2,0.1-0.3l0.1-0.4c0-0.1,0-0.2,0.1-0.3s0-0.1,0-0.1l-0.3-0.1C105,98.1,103.2,97.8,101.3,97.8z"/>
			<path class="st46" d="M119.6,126.7c1.6-1.7,1.6-4.1,0.8-6.3c-1.2-3.4-6.6-7.7-4.7-11.3c0.6-1.1,1.7-1.5,1.5-3
				c-0.2-1-0.7-1.8-1.5-2.4c-1.6-1.6-3.6-2.9-5.7-3.9c0,0.1,0.1,0.1,0.1,0.2c0.1,3.3-0.4,6.7-1.6,9.8c-0.8,2-2.3,3.8-4.1,5
				c-1.2,0.7-2.4,1.6-3.4,2.6c-1.3,1.6-1.7,4.2-3.8,5.2c-1.7,0.8-3.8,0-5.4-0.7c-2.7-1.2-5.3-3.3-8.5-3.2c-1.7,0.1-2.8,1-4.4,0.6
				c-2-0.5-2.8-2.2-4.2-3.6c-2.6-2.6-6.2-3-9.3-4.7c-1.2-0.7-2.3-1.4-3.3-2.3c0,0.5,0,1.1,0,1.7c0,2.4,1.6,4.4,3.7,5.9
				c1.2,0.8,2.4,1.4,3.8,1.8c2.1,0.7,4.8,0.7,5.2,3.3c0.4,2.3-0.2,3.8,2,5.7c1.6,1.4,3.8,2.1,6,1.7c0.5-0.1,1-0.3,1.4-0.5
				c2.5-0.8,4.2-1.2,5.8,1.3c0.9,1.3,1.3,2.8,2.2,4.1c3.9,5.4,11.1,3.1,13.6-1.4c0.6-1.3,1.1-2.7,1.5-4.1c0.6-1.8,0.7-3.7,4-1.9
				c0.3,0.1,1,1.1,1.3,1.3C115.2,128.8,117.9,128.5,119.6,126.7z"/>
			<path class="st37" d="M115.8,109.2c0.6-1.1,1.7-1.5,1.5-3c-0.2-1-0.7-1.8-1.5-2.4c-0.9-1-2-1.8-3.1-2.5c0.2,0.3,0.4,0.5,0.7,0.7
				c0.4,2.2,0.3,4.4-0.3,6.6c-0.6,2.5-1,5.1-1.1,7.8c0,2.7,0,4.6-3,5.6c-0.8,0.2-1.6,0.4-2.4,0.7c-1.8,0.8-3.2,2.3-3.9,4.1
				c-0.8,1.8-0.6,4.4-3.5,4.3c-1.2,0-2.4-1.2-3.3-1.9c-1.5-1.2-3.2-2.4-5.3-2.1c-0.8,0.1-1.5,0.4-2.2,0.9c0.9,0.3,1.6,1,2.1,1.8
				c0.9,1.3,1.3,2.8,2.2,4.1c3.9,5.4,11.1,3.1,13.6-1.4c0.6-1.3,1.1-2.7,1.5-4.1c0.6-1.8,0.7-3.7,4-1.9c0.3,0.1,1,1.1,1.3,1.3
				c2.1,1.2,4.8,0.8,6.6-0.9c1.6-1.7,1.6-4.1,0.8-6.3C119.2,117,113.8,112.7,115.8,109.2z"/>
		</g>
		<g>
			<path class="st27" d="M106.9,99.4c3.3-7.2-0.7-16.1-8.9-19.8s-17.5-0.9-20.7,6.3c-0.5,1.2-0.9,2.4-1,3.7
				c-1.8,5.2-5,12.1-3.6,14.8c0.7,1.2,2.8,1,4.4-0.8c3.3-3.7,1.8,5.3,5.6,8.2s7.3-4.9,9.8-3.8s0.4,5.8,4.8,5.2
				c2.6-0.3,5.4-6.7,7.8-11C105.8,101.4,106.4,100.4,106.9,99.4z"/>
			<path class="st28" d="M106.9,99.4c3.2-6.9-0.4-15.4-8-19.3c0.9,4-1,8.2-4.8,10C88.8,93,82,91.6,76.4,88.6
				c-0.1,0.4-0.1,0.7-0.2,1.1c-1.8,5.2-5,12.1-3.6,14.8c0.7,1.2,2.8,1,4.4-0.8c3.4-3.7,1.9,5.3,5.6,8.2s7.3-4.9,9.8-3.8
				s0.4,5.8,4.8,5.2c2.6-0.3,5.4-6.7,7.8-11C105.8,101.4,106.4,100.4,106.9,99.4z"/>
		</g>
		<path class="st28" d="M84.3,87.8H85h0.4l0,0h0.2h0.3H86l0.2-0.1h0.2h0.2l0,0l0.2-0.1h0.1l0.3-0.1l0,0h0.2h0.1
			c0.2-0.1,0.3-0.1,0.5-0.2c2.4-1,4.1-3.3,4.3-5.9c0-0.2,0-0.4,0-0.6l0,0c0-0.1,0-0.1,0-0.2s0-0.2,0-0.4s0-0.1,0-0.1v-0.2L92,79.5
			v-0.2v-0.1l-0.1-0.3l-0.1-0.2l0,0l-0.1-0.3c0-0.1-0.1-0.1-0.1-0.2c0-0.1-0.1-0.2-0.2-0.4c0-0.1-0.1-0.1-0.1-0.2
			c-0.1-0.2-0.2-0.3-0.3-0.5L91,76.9c-0.1-0.1-0.1-0.2-0.2-0.3l-0.2-0.2l-0.2-0.2L90.2,76L90,75.8l-0.2-0.2l-0.2-0.2l-0.2-0.1
			l-0.2-0.1c-0.1,0-0.1-0.1-0.2-0.1l-0.3-0.1h-0.3h-0.3H88c-0.6-0.1-1.2,0-1.7,0.3c-2.7,1.4-4.1,0.3-5.9,1.3c-4.7,3-2.8,7.3-1.4,9.1
			c1.1,1.3,2.8,2.1,4.6,2.1h0.2h0.4L84.3,87.8z"/>
		<g>
			<g>
				<path class="st47" d="M85.8,74.1c-2.7,1.4-4.1,0.3-5.9,1.3c-4.7,3-2.8,7.3-1.4,9.1c1.9,2.4,5.5,2.5,8.2,1.4
					c2.4-1,4.1-3.3,4.3-5.9C91.2,76.9,88.7,72.6,85.8,74.1z"/>
				<path class="st48" d="M86.5,74.1c-2.7,1.4-4.1,0.3-5.9,1.3c-4.7,3-2.8,7.3-1.4,9.1c1.9,2.5,5.5,2.5,8.2,1.5c2.5-1,4.1-3.3,4.3-6
					C91.9,76.9,89.4,72.6,86.5,74.1z"/>
				<path class="st49" d="M87.6,73.8c0,0,0.1,0.1,0.1,0.2c0,0,0,0.1,0,0.1c0.2,0.7,0.3,1.4,0.5,2.2c0,0.1-0.1,0.3-0.1,0.4
					c-0.7,1.9-3.2,2.1-4.8,2.9c-0.7,0.3-1.3,1-1.4,1.8c-0.8,1.7-0.6,3.7,0.6,5.2c1.7,0.3,3.4,0.1,4.9-0.5c2.5-1,4.1-3.3,4.3-6
					C91.9,77.3,90,73.7,87.6,73.8z"/>
				<path class="st49" d="M86.8,76c-0.2-0.8-1.2-0.6-1.6-0.1c-0.1,0.2-0.6,0.3-0.8,0.3c-0.1,0-0.3,0-0.4-0.1c-0.2-0.1-0.4-0.1-0.7,0
					c-0.7,0.1-0.7,0.9-0.5,1.4c0.1,0.2,0.4,0.4,0.6,0.5c0.3,0.1,0.7,0.1,1.1,0c0.5-0.1,1-0.2,1.5-0.6C86.7,77.3,87,76.6,86.8,76z"/>
				<path class="st47" d="M85.8,76.4c-0.2-0.2-0.5-0.2-0.8-0.1c-0.1,0.1-0.1,0.1-0.2,0.2h-0.1h-0.2l0,0c-0.3-0.1-0.6,0-0.7,0.3
					c-0.1,0.2,0,0.5,0.1,0.6c0.2,0.1,0.5,0.2,0.7,0.2c0.1,0,0.3,0,0.4,0c0.3-0.1,0.5-0.2,0.7-0.3C86.1,77,86.1,76.6,85.8,76.4z"/>
				<path class="st47" d="M91.7,80c0-1.7-0.5-3.4-1.6-4.8c0.6,3,0.7,5.5-1.9,8.1c-1.2,1.3-2.7,2.3-4.3,3c-0.2,0.1-0.4,0.1-0.7,0.2
					c1.4,0.1,2.8-0.1,4.1-0.6C89.8,84.9,91.5,82.6,91.7,80z"/>
				<path class="st50" d="M80.6,79.8c0,0.2-0.1,0.3-0.2,0.4c-0.2,0-0.3-0.1-0.4-0.2c-0.1-0.2,0-0.4,0.2-0.4
					C80.4,79.5,80.6,79.7,80.6,79.8z"/>
				<path class="st51" d="M80.5,83.3c0.3,0.4,0.7,0.2,0.6-0.2l0,0c-0.1-0.3-0.2-0.5-0.3-0.8c-0.6-1.8-0.2-3.2,1.6-3.2
					c0.6,0,2.6-0.2,1.1-0.4c-0.3-0.1-0.6-0.1-0.9-0.2c-0.6-0.2-0.9-0.2-1.2-0.8c-0.5-0.9,0.2-1.5,1.2-1.8c0.1-0.1,0.7-0.1,0.9-0.2
					s0.2-0.6-0.6-0.4c-0.9,0-1.7,0.3-2.4,0.7C77.1,78.8,80.5,83.3,80.5,83.3z"/>
			</g>
			<path class="st52" d="M80.3,77.2c-0.5-0.2-0.9,0.4-0.9,0.8c0.1,0.3,0.3,0.5,0.7,0.5c0.1,0,0.1,0,0.2-0.1c0.1,0.1,0.3,0.1,0.4,0
				c0,0,0-0.1,0.1-0.1C80.9,77.9,80.7,77.4,80.3,77.2z"/>
			<path class="st52" d="M80.5,80c-0.2-0.4-0.8-0.7-1.1-0.2c-0.1,0.5,0,1,0.4,1.3c0.1,0,0.2,0,0.2,0h0.1c0.2,0.1,0.4,0,0.5-0.2
				c0,0,0-0.1,0-0.1C80.7,80.5,80.6,80.2,80.5,80z"/>
		</g>
		<g>
			<path class="st53" d="M105.8,106.9l0.2-0.1l0.3-0.2l0.1-0.1l0.1-0.1c0.1-0.1,0.2-0.1,0.3-0.2l0.1-0.1l0.1-0.1l0.3-0.2l0.2-0.1
				l0,0c0.1-0.1,0.2-0.2,0.3-0.3c0.1-0.1,0.1-0.1,0.2-0.2l0.3-0.3c0,0,0.1-0.1,0.1-0.2s0.2-0.3,0.3-0.5l0.1-0.2l0.2-0.3
				c0-0.1,0.1-0.2,0.1-0.2c0-0.1,0.1-0.2,0.1-0.3l0.1-0.2c0-0.1,0.1-0.2,0.1-0.3c0-0.1,0.1-0.2,0.1-0.3c0-0.1,0-0.2,0-0.3
				c0-0.1,0-0.2,0-0.2c0-0.1,0-0.2,0-0.3c0-0.1,0-0.2,0-0.2c0-0.1,0-0.2-0.1-0.3c0-0.1,0-0.2-0.1-0.3c0-0.1-0.1-0.2-0.1-0.3l0,0
				l-0.1-0.1c-0.1-0.6-0.5-1.1-0.9-1.4c-2.4-1.8-2-3.6-3.7-4.8c-4.7-3-7.8,0.6-8.9,2.6c-0.7,1.6-0.7,3.4,0.1,5c0,0,0,0.1,0,0.1l0,0
				l0,0c0,0.1,0.1,0.2,0.1,0.3l0.1,0.2c0,0.1,0.1,0.2,0.2,0.3l0.1,0.2l0.2,0.3c0,0.1,0.1,0.1,0.1,0.2l0.2,0.2l0,0l0,0l0.1,0.2
				l0.2,0.3l0.1,0.2l0.1,0.1l0,0l0.2,0.2c0,0.1,0.1,0.1,0.1,0.1c0.1,0.1,0.3,0.3,0.4,0.4c1.9,1.8,4.7,2.3,7.2,1.4
				c0.2-0.1,0.3-0.1,0.5-0.2L105.8,106.9z"/>
			<g>
				<g>
					<path class="st47" d="M109.3,99.8c-2.4-1.8-2-3.6-3.7-4.8c-4.7-3-7.8,0.5-8.9,2.6c-1.4,2.8,0.1,6,2.2,8
						c1.9,1.8,4.7,2.3,7.2,1.4C109,105.9,111.8,101.7,109.3,99.8z"/>
					<path class="st48" d="M109.5,100.4c-2.4-1.8-2-3.6-3.7-4.8c-4.7-3-7.8,0.5-8.9,2.6c-1.4,2.8,0.1,6,2.2,8
						c1.9,1.8,4.7,2.3,7.2,1.4C109.3,106.5,112.1,102.4,109.5,100.4z"/>
					<path class="st49" d="M110.3,101.3l-0.1,0.1l-0.1,0.1c-0.6,0.5-1.2,0.9-1.7,1.3c-0.1,0-0.3,0.1-0.4,0.1c-2,0.2-3.2-2-4.6-3.1
						c-0.6-0.5-1.5-0.7-2.2-0.5c-1.9,0-3.6,1-4.4,2.7c0.4,1.6,1.3,3.1,2.5,4.2c1.9,1.8,4.7,2.3,7.2,1.4
						C108.9,106.7,111.3,103.4,110.3,101.3z"/>
					<path class="st49" d="M107.9,101.5c0.6-0.5,0-1.4-0.6-1.4c-0.3,0-0.5-0.4-0.7-0.6c-0.1-0.1-0.1-0.3-0.1-0.4
						c0-0.2-0.1-0.4-0.3-0.6c-0.4-0.6-1.1-0.3-1.5,0.2c-0.2,0.2-0.2,0.5-0.2,0.8c0.1,0.4,0.2,0.7,0.4,1c0.3,0.5,0.7,0.8,1.1,1.1
						C106.7,102,107.4,102,107.9,101.5z"/>
					<path class="st47" d="M107.2,100.8c0.1-0.3,0-0.6-0.3-0.7l-0.2-0.1v-0.1l-0.1-0.2l0,0c0-0.3-0.2-0.6-0.5-0.6
						c-0.3,0-0.6,0.2-0.6,0.5c0,0.2,0,0.5,0.2,0.7c0,0.1,0.1,0.3,0.2,0.4c0.2,0.2,0.4,0.4,0.6,0.5
						C106.7,101.3,107,101.1,107.2,100.8z"/>
					<path class="st47" d="M106.4,107.7c1.6-0.7,2.9-1.9,3.7-3.4c-2.5,1.8-4.7,3-8.1,1.7c-1.7-0.5-3.3-1.4-4.6-2.7
						c-0.2-0.2-0.3-0.3-0.5-0.5c0.5,1.3,1.3,2.5,2.3,3.4C101.1,108,103.9,108.6,106.4,107.7z"/>
					<path class="st50" d="M101.8,97.5c-0.1,0.1-0.3,0.1-0.5,0c0,0,0,0,0,0c-0.1-0.2,0-0.4,0.1-0.5c0,0,0,0,0,0
						c0.1-0.1,0.3-0.1,0.5,0C102,97.2,102,97.4,101.8,97.5C101.8,97.5,101.8,97.5,101.8,97.5z"/>
					<path class="st51" d="M98.6,98.9c-0.3,0.5,0.1,0.8,0.4,0.4l0,0c0.2-0.2,0.4-0.4,0.6-0.6c1.4-1.3,2.8-1.5,3.6,0.1
						c0.2,0.5,1.3,2.3,0.8,0.8c-0.1-0.3-0.1-0.7-0.2-1c-0.1-0.6-0.2-0.9,0.2-1.4c0.6-0.9,1.4-0.5,2.2,0.3c0.1,0,0.4,0.6,0.6,0.7
						s0.6-0.1,0.1-0.7s-0.8-1.5-1.7-1.9C101.3,93.9,98.7,98.8,98.6,98.9z"/>
				</g>
				<path class="st52" d="M104.1,96.2c-0.1-0.4-0.5-0.6-0.9-0.6c-0.1,0-0.2,0.1-0.3,0.1c-0.3,0.2-0.3,0.5-0.1,0.8
					c0,0.1,0.1,0.1,0.1,0.1c-0.1,0.1,0,0.3,0.2,0.3c0,0,0.1,0,0.1,0C103.7,97,104.1,96.6,104.1,96.2z"/>
				<path class="st52" d="M101.6,97.5c0.3-0.4,0.3-1.1-0.3-1c-0.5,0.1-0.9,0.4-1,0.9c0,0.1,0,0.2,0.1,0.2v0.1c0,0.2,0.2,0.4,0.5,0.4
					c0,0,0.1,0,0.1,0C101.3,97.9,101.5,97.7,101.6,97.5z"/>
			</g>
			<path class="st54" d="M116.5,94.1c1.5,0.3,2.6,1.5,2.9,3c0.2,1.3-0.7,2.4-1.9,2.7c-0.3,0-0.5-0.5-0.1-0.5
				c1.8-0.1,1.8-2.7,0.6-3.7c-1.4-1.1-3.3-1.3-4.9-0.6c-2.7,0.9-4.8,3.2-6.4,5.4c-0.2,0.3-0.7,0-0.5-0.3
				C108.4,96.8,112,93.3,116.5,94.1z"/>
		</g>
		<path class="st37" d="M90.5,88.7c-0.2,2-0.3,4.1-0.5,6.1c-0.1,0.6,0.6,0.7,0.9,0.4c0.1,0,0.2,0,0.4-0.1c0.9-0.5,1.8-1,2.7-1.7
			c0.5-0.3,0.8-0.8,0.8-1.3c-0.1-0.7-0.5-1.3-1-1.7c-0.7-0.8-1.4-1.5-2.2-2.2c-0.2-0.2-0.6-0.2-0.8,0C90.5,88.4,90.5,88.5,90.5,88.7
			z"/>
		<path class="st37" d="M109.1,89.6l-4.1-2.4c-0.4-0.2-0.5,0.3-0.3,0.7c0,0.1,0,0.2,0,0.3c0.3,1,0.7,2,1.1,2.9
			c0.1,0.5,0.5,0.9,0.9,1.2c0.4,0.2,0.8-0.2,1.2-0.4c0.6-0.4,1.1-0.8,1.5-1.3C109.5,90.3,109.4,89.8,109.1,89.6z"/>
		<path class="st37" d="M79.6,92.1l-4.4-0.3c-0.4,0-0.2,0.4,0.1,0.7c0,0.1,0.1,0.2,0.2,0.3c0.7,0.7,1.5,1.4,2.3,2
			c0.3,0.3,0.8,0.5,1.3,0.6c0.5,0,0.6-0.5,0.8-0.8c0.3-0.5,0.5-1.1,0.6-1.7C80.3,92.5,79.9,92.1,79.6,92.1z"/>
	</g>
</g>
<g>
	<g>
		<path class="st5" d="M36.3,72.1L34,94.9c-1.3,3.3,3.7,8.4,11.2,11.4s14.6,2.9,16-0.4l13.1-18.5L36.3,72.1z"/>
		
			<linearGradient id="SVGID_10_" gradientUnits="userSpaceOnUse" x1="132.0768" y1="478.943" x2="173.09" y2="478.943" gradientTransform="matrix(0.9265 0.3762 0.3762 -0.9265 -271.4247 478.8752)">
			<stop  offset="0" style="stop-color:#FFC75C"/>
			<stop  offset="1" style="stop-color:#E69133"/>
		</linearGradient>
		<path class="st55" d="M61.2,106l13.1-18.5l-38-15.4l-0.6,4.2c1.8,4.3,9.3,11.3,18.1,14.8c5.1,2.1,2.1,9.8-1.5,17.2
			C56.8,108.9,60.3,108.1,61.2,106z"/>
	</g>
	<g>
		<g>
			
				<ellipse transform="matrix(0.9993 -3.769244e-02 3.769244e-02 0.9993 -2.1455 2.2521)" class="st56" cx="58.7" cy="58" rx="17" ry="16.8"/>
			
				<linearGradient id="SVGID_11_" gradientUnits="userSpaceOnUse" x1="15.5144" y1="222.3769" x2="52.2169" y2="222.3769" gradientTransform="matrix(0.93 -4.000000e-02 -4.000000e-02 -1 36.05 284.23)">
				<stop  offset="0" style="stop-color:#FFCCFC"/>
				<stop  offset="1" style="stop-color:#F05BCB"/>
			</linearGradient>
			<path class="st57" d="M75.7,57.4c-0.3-7.4-5.4-13.7-12.6-15.6c0.8,0.9,1.4,1.8,2,2.8c3,5.3,2.1,12.2-3.7,14.5
				c-6.4,2.5-13.7,1.5-19.8-1.9c0,0.5,0,1,0,1.5c0,0-0.3,18.6,4.1,19.2c2.7,0.3,3.2-3.3,3.2-6c3,2.1,6.7,3.1,10.4,3
				c0.5,0,0.9-0.1,1.4-0.1c2.4,6.6,6.9,4.5,6.2-2C72.5,69.7,75.9,63.8,75.7,57.4z"/>
			<path class="st58" d="M57.5,43.9c-0.2-0.1-0.4,0-0.6,0.1c-3.3,0.3-7.5,2.2-9,5.7c-1.3,3.3,1.3,6.2,4.3,6.6
				c3.3,0.4,7.4-1.5,8.7-5.1C62,48.1,60.5,44.7,57.5,43.9z"/>
		</g>
		<g>
			
				<ellipse transform="matrix(0.3762 -0.9265 0.9265 0.3762 -27.4535 108.0447)" class="st56" cx="66.5" cy="74.4" rx="16.8" ry="18.3"/>
			
				<linearGradient id="SVGID_12_" gradientUnits="userSpaceOnUse" x1="142.541" y1="499.4596" x2="179.2204" y2="499.4596" gradientTransform="matrix(0.9265 0.3762 0.3762 -0.9265 -271.4247 478.8752)">
				<stop  offset="0" style="stop-color:#FFCCFC"/>
				<stop  offset="1" style="stop-color:#F05BCB"/>
			</linearGradient>
			<path class="st59" d="M83.4,81.3c2.8-7,0.2-15-5.9-19.7c0.4,1.1,0.7,2.3,0.8,3.4c0.7,6.1-3,12-9.6,11.5
				c-7.3-0.5-14-4.7-18.6-10.4c-0.2,0.4-0.5,0.9-0.6,1.4c0,0-8,16.8-4,19.3c2.5,1.5,4.5-1.6,5.6-4.1c2.2,3.3,5.3,5.8,9,7.3
				c0.5,0.2,0.9,0.3,1.4,0.5c-0.4,7.1,4.9,7.2,6.9,0.9C75,91.3,80.9,87.3,83.4,81.3z"/>
			<path class="st58" d="M66.6,63.1c-0.3-0.1-0.5-0.1-0.8,0c-4.4-0.4-10.1,1-12.5,5c-2.3,3.8,0.7,7.9,4.5,9
				c4.3,1.2,9.9-0.2,12.1-4.3c1.9-3.3,0.7-7.6-2.7-9.4C67,63.2,66.8,63.1,66.6,63.1z"/>
			<path class="st60" d="M52.8,69c-1.3,3.5,1.5,7,4.9,8c2.8,0.8,5.8,0.5,8.5-0.8C61.2,75.1,56.5,72.6,52.8,69z"/>
		</g>
		<g>
			<ellipse transform="matrix(0.3762 -0.9265 0.9265 0.3762 -34.9586 90.81)" class="st61" cx="50" cy="71.4" rx="16" ry="17.4"/>
			<path class="st61" d="M33.9,64.8c0,0-7.6,16-3.8,18.3s6.4-6.6,6.4-6.6L33.9,64.8z"/>
			<path class="st61" d="M49.7,74.4c0,0-7.6,16-3.8,18.3s6.3-6.6,6.3-6.6L49.7,74.4z"/>
			
				<linearGradient id="SVGID_13_" gradientUnits="userSpaceOnUse" x1="126.9792" y1="495.4897" x2="161.7733" y2="495.4897" gradientTransform="matrix(0.9265 0.3762 0.3762 -0.9265 -271.4247 478.8752)">
				<stop  offset="0" style="stop-color:#FFB8FB"/>
				<stop  offset="1" style="stop-color:#F05ACB"/>
			</linearGradient>
			<path class="st62" d="M66,77.9c2.7-6.7,0.2-14.2-5.6-18.7c0.4,1.1,0.7,2.2,0.8,3.3c0.7,5.8-2.8,11.4-9.1,11
				c-7-0.5-13.3-4.4-17.7-9.9c-0.2,0.4-0.4,0.9-0.6,1.3c0,0-7.6,16-3.8,18.3c2.4,1.4,4.3-1.5,5.4-3.9c2.1,3.1,5.1,5.5,8.6,6.9
				c0.4,0.2,0.9,0.3,1.3,0.5c-0.6,2.8-0.6,5.2,0.7,6c2.9,1.7,5-2.8,5.9-5.2C58.1,87.3,63.6,83.6,66,77.9z"/>
			<path class="st63" d="M50.1,60.6c-0.2-0.1-0.5-0.1-0.8,0c-4.1-0.3-9.6,1-11.9,4.8c-2.1,3.6,0.7,7.5,4.3,8.5
				c4,1.1,9.3-0.2,11.5-4.1c1.8-3.2,0.6-7.2-2.5-8.9C50.4,60.8,50.3,60.7,50.1,60.6z"/>
			<path class="st64" d="M37,66.3c-1.2,3.3,1.4,6.7,4.7,7.6c2.7,0.7,5.5,0.4,8-0.8C44.9,72.1,40.5,69.7,37,66.3z"/>
			<path class="st65" d="M47.2,61.8c-0.1-0.1-0.3-0.1-0.4,0c-2.2-0.2-5.2,0.5-6.4,2.6c-1.2,1.9,0.4,4,2.3,4.6
				c2.2,0.6,5.1-0.1,6.2-2.2c1-1.7,0.3-3.9-1.4-4.8C47.4,61.9,47.3,61.8,47.2,61.8z"/>
		</g>
		<g>
			<path class="st66" d="M43.6,48.1c0-0.3,0-0.6,0-0.8c-0.1-1.2-0.6-1.4-1.3-1.3S41,47,41.2,48.3l0.1,0.4l-0.2-0.3
				c-0.6-1.1-1.6-1.7-2.3-1.4s-1,0.7-0.4,1.8c0.1,0.2,0.3,0.5,0.5,0.7c-2.3,2.1-2.5,5.6-0.5,7.9c2.1,2.3,5.6,2.5,7.9,0.5
				c2.3-2.1,2.5-5.6,0.5-7.9C46,48.9,44.8,48.3,43.6,48.1z"/>
			<path class="st67" d="M45.3,48.7c1,3.3-0.8,5.8-3.6,8.5c-0.5,0.5-1.1,1-1.6,1.4c1.3,0.7,2.8,0.8,4.2,0.4c3-0.9,4.7-4,3.8-6.9
				C47.6,50.6,46.6,49.4,45.3,48.7z"/>
			<g>
				
					<linearGradient id="SVGID_14_" gradientUnits="userSpaceOnUse" x1="-110.3228" y1="-56.1735" x2="-101.5228" y2="-64.9734" gradientTransform="matrix(0.9584 -0.2855 -0.2855 -0.9584 126.6167 -35.5192)">
					<stop  offset="0" style="stop-color:#FF9264"/>
					<stop  offset="1" style="stop-color:#000000"/>
				</linearGradient>
				<path class="st68" d="M43.6,48.1c0-0.3,0-0.6,0-0.8c-0.1-1.2-0.6-1.4-1.3-1.3S41,47,41.2,48.3l0.1,0.4l-0.2-0.3
					c-0.6-1.1-1.6-1.7-2.3-1.4s-1,0.7-0.4,1.8c0.1,0.2,0.3,0.5,0.5,0.7c-2.3,2.1-2.5,5.6-0.5,7.9c2.1,2.3,5.6,2.5,7.9,0.5
					c2.3-2.1,2.5-5.6,0.5-7.9C46,48.9,44.8,48.3,43.6,48.1z"/>
			</g>
			<path class="st69" d="M42.7,53c0.1-0.9-0.4-1.7-1.3-2c-1.1-0.4-2.4,0.1-2.8,1.2c-0.1,0.4-0.2,0.8-0.1,1.2
				c-0.1,0.9,0.4,1.8,1.3,2.1c1.1,0.4,2.4-0.1,2.8-1.2C42.7,53.9,42.7,53.5,42.7,53z"/>
			<path class="st70" d="M39.9,52.2c0-0.4-0.2-0.8-0.6-0.9c-0.5-0.2-1.1,0.1-1.3,0.7c0,0.1-0.1,0.3,0,0.4c0,0.4,0.2,0.8,0.6,0.9
				c0.5,0.2,1.1-0.1,1.3-0.6C39.9,52.5,40,52.4,39.9,52.2z"/>
		</g>
		<g>
			<path class="st66" d="M62.2,64.3c0.3-0.1,0.5-0.3,0.7-0.5c1-0.8,0.8-1.3,0.4-1.8s-1.6-0.4-2.6,0.4c-0.1,0.1-0.2,0.2-0.3,0.3
				l0.2-0.3c0.6-1.1,0.5-2.3-0.2-2.6s-1.1-0.4-1.7,0.7c-0.1,0.2-0.2,0.5-0.3,0.8c-3-0.7-6,1.1-6.8,4.1c-0.7,3,1.1,6,4.1,6.8
				s6-1.1,6.8-4.1C62.8,66.7,62.7,65.4,62.2,64.3z"/>
			<path class="st67" d="M62.7,66c-2.1,2.7-5.2,2.7-9,1.9c-0.7-0.2-1.4-0.3-2.1-0.5c0.1,3.1,2.7,5.5,5.8,5.4
				c3.1-0.1,5.5-2.7,5.4-5.8C62.8,66.7,62.7,66.3,62.7,66z"/>
			<g>
				
					<linearGradient id="SVGID_15_" gradientUnits="userSpaceOnUse" x1="104.4861" y1="771.4388" x2="113.2833" y2="762.6416" gradientTransform="matrix(0.7789 0.6271 0.6271 -0.7789 -508.1889 595.1461)">
					<stop  offset="0" style="stop-color:#FF9264"/>
					<stop  offset="1" style="stop-color:#000000"/>
				</linearGradient>
				<path class="st71" d="M62.2,64.3c0.3-0.1,0.5-0.3,0.7-0.5c1-0.8,0.8-1.3,0.4-1.8s-1.6-0.4-2.6,0.4c-0.1,0.1-0.2,0.2-0.3,0.3
					l0.2-0.3c0.6-1.1,0.5-2.3-0.2-2.6s-1.1-0.4-1.7,0.7c-0.1,0.2-0.2,0.5-0.3,0.8c-3-0.7-6,1.1-6.8,4.1c-0.7,3,1.1,6,4.1,6.8
					s6-1.1,6.8-4.1C62.8,66.7,62.7,65.4,62.2,64.3z"/>
			</g>
			<path class="st69" d="M57.6,66.3c0.8-0.4,1.2-1.4,1-2.2c-0.3-1.2-1.4-1.9-2.6-1.6c-0.4,0.1-0.8,0.3-1.1,0.6
				c-0.8,0.4-1.2,1.4-1,2.2c0.3,1.2,1.5,1.9,2.6,1.6C56.9,66.8,57.3,66.6,57.6,66.3z"/>
			<path class="st70" d="M56.7,63.6c0.4-0.2,0.5-0.6,0.4-1c-0.2-0.5-0.7-0.8-1.3-0.7c-0.1,0-0.3,0.1-0.4,0.2c-0.4,0.2-0.5,0.6-0.4,1
				c0.2,0.5,0.7,0.8,1.3,0.7C56.5,63.8,56.6,63.7,56.7,63.6z"/>
		</g>
		<g>
			<path class="st72" d="M75.3,55c0.2-0.1,0.4-0.2,0.6-0.3c0.8-0.5,0.8-0.9,0.4-1.4s-1.2-0.4-2,0.1c-0.1,0.1-0.2,0.1-0.2,0.2
				l0.2-0.2c0.6-0.8,0.6-1.7,0.1-2.1s-0.8-0.4-1.4,0.4c-0.1,0.2-0.2,0.4-0.3,0.6c-2.3-0.9-4.8,0.2-5.7,2.5c-0.9,2.3,0.2,4.8,2.5,5.7
				s4.8-0.2,5.7-2.5C75.6,57,75.6,56,75.3,55z"/>
			<path class="st73" d="M71.6,56.3c0.7-0.2,1.1-0.9,1-1.6c-0.1-0.9-1-1.6-1.9-1.5c-0.3,0-0.6,0.2-0.9,0.4c-0.7,0.2-1.1,0.9-1,1.6
				c0.1,0.9,0.9,1.6,1.9,1.5C71.1,56.6,71.4,56.5,71.6,56.3z"/>
			<path class="st74" d="M71.2,54.1c0.3-0.1,0.5-0.4,0.4-0.7c0-0.4-0.4-0.7-0.8-0.7c-0.1,0-0.3,0.1-0.4,0.2
				c-0.3,0.1-0.5,0.4-0.4,0.7c0,0.4,0.4,0.7,0.8,0.7C71,54.3,71.1,54.2,71.2,54.1z"/>
			<path class="st75" d="M75.3,55c0.2-0.1,0.4-0.2,0.6-0.3c0.8-0.5,0.8-0.9,0.4-1.4c-0.2-0.3-0.6-0.4-1-0.3c-1.7,3.3-4,7.5-7.9,5
				c-0.1-0.1-0.2-0.1-0.4-0.2c0.2,0.6,0.6,1.1,1,1.6c1.7,1.7,4.5,1.7,6.2,0C75.4,58.3,75.8,56.6,75.3,55z"/>
			<path class="st76" d="M75.4,55.7c-1.1,2.5-3.3,4.2-6,4.7c-0.1,0-0.1,0-0.2,0c2.2,1,4.8,0.1,5.8-2.1
				C75.5,57.4,75.6,56.5,75.4,55.7L75.4,55.7z"/>
		</g>
		<g>
			<path class="st72" d="M65.4,38.7c0.1-0.2,0.2-0.4,0.3-0.6c0.4-0.9,0.1-1.2-0.4-1.4s-1.3,0.3-1.7,1.2c0,0.1-0.1,0.2-0.1,0.3
				c0-0.1,0-0.2,0-0.3c0-1-0.5-1.8-1-1.8s-0.9,0.1-0.9,1.1c0,0.2,0,0.4,0.1,0.6c-2.4,0.6-3.8,2.9-3.2,5.3c0.6,2.4,2.9,3.8,5.3,3.2
				c2.4-0.6,3.8-2.9,3.2-5.3C66.7,40.1,66.2,39.3,65.4,38.7L65.4,38.7z"/>
			<path class="st73" d="M63.1,41.8c0.4-0.6,0.4-1.4-0.1-1.9c-0.6-0.7-1.7-0.8-2.4-0.2c-0.2,0.2-0.4,0.5-0.5,0.8
				c-0.4,0.6-0.4,1.4,0.1,1.9c0.6,0.7,1.7,0.8,2.4,0.2C62.8,42.4,63,42.1,63.1,41.8z"/>
			<path class="st74" d="M61.5,40.2c0.2-0.3,0.2-0.6,0-0.8c-0.3-0.3-0.7-0.4-1.1-0.1c-0.1,0.1-0.2,0.2-0.2,0.4
				c-0.2,0.3-0.2,0.6,0,0.8c0.3,0.3,0.7,0.4,1.1,0.1C61.4,40.5,61.5,40.3,61.5,40.2z"/>
			<path class="st75" d="M65.4,38.7c0.1-0.2,0.2-0.4,0.3-0.6c0.4-0.9,0.1-1.2-0.4-1.4c-0.4-0.1-0.8,0-1,0.3c0.4,3.6,0.9,8.5-3.8,8.6
				c-0.1,0-0.3,0-0.4,0.1c1.9,1.5,4.7,1.1,6.1-0.9C67.8,42.8,67.4,40.1,65.4,38.7L65.4,38.7L65.4,38.7z"/>
			<path class="st76" d="M65.9,39.1c0.5,2.6-0.4,5.4-2.3,7.2c0,0-0.1,0.1-0.1,0.1c2.4-0.4,4-2.6,3.7-5
				C66.9,40.6,66.5,39.8,65.9,39.1z"/>
		</g>
		<g>
			<path class="st72" d="M86.7,73c0.2,0.1,0.4,0.1,0.7,0.1c1,0,1.1-0.3,1.1-0.9s-0.8-1.1-1.8-1.1h-0.3l0.3-0.1
				c0.9-0.4,1.5-1.1,1.3-1.6s-0.5-0.8-1.4-0.4c-0.2,0.1-0.4,0.2-0.6,0.3c-1.4-2-4.2-2.4-6.1-1c-2,1.4-2.4,4.2-1,6.1s4.2,2.4,6.1,1
				C85.8,74.8,86.4,74,86.7,73z"/>
			<path class="st73" d="M82.9,72.1c0.7,0.2,1.4-0.2,1.7-0.8c0.4-0.8,0.1-1.8-0.7-2.3c-0.3-0.1-0.6-0.2-0.9-0.2
				c-0.7-0.2-1.4,0.2-1.7,0.8c-0.4,0.8-0.1,1.8,0.7,2.3C82.3,72,82.6,72.1,82.9,72.1z"/>
			<path class="st74" d="M83.8,70c0.3,0.1,0.6-0.1,0.8-0.4c0.2-0.4,0-0.8-0.4-1c-0.1-0.1-0.3-0.1-0.4-0.1c-0.3-0.1-0.6,0.1-0.8,0.4
				c-0.2,0.4,0,0.8,0.3,1C83.5,70,83.7,70,83.8,70z"/>
			<path class="st75" d="M86.7,73c0.2,0.1,0.4,0.1,0.7,0.1c1,0,1.1-0.3,1.1-0.9c0-0.3-0.3-0.6-0.7-0.8c-3.2,1.8-7.5,4.1-9.3-0.2
				c-0.1-0.1-0.1-0.2-0.2-0.3c-0.2,0.6-0.2,1.3-0.1,1.9c0.4,2.4,2.7,3.9,5.1,3.5C84.9,75.8,86.2,74.6,86.7,73z"/>
			<path class="st76" d="M86.5,73.6c-2.3,1.5-5.1,1.7-7.6,0.6l-0.2-0.1c1.2,2.1,3.9,2.7,6,1.5C85.5,75.1,86.1,74.5,86.5,73.6z"/>
		</g>
	</g>
</g>
<g>
	<g>
		<path class="st77" d="M218.9,148.3h-62.1l4,22.3c0,1.3,2.1,3.4,6.9,5.2c5.4,2,12.6,3.1,20.3,3.1s14.9-1.1,20.3-3.1
			c4.8-1.8,6.9-3.9,6.9-5.2C215,170.5,218.9,148.3,218.9,148.3z"/>
		
			<linearGradient id="SVGID_16_" gradientUnits="userSpaceOnUse" x1="156.75" y1="62.82" x2="218.85" y2="62.82" gradientTransform="matrix(1 0 0 -1 0 226)">
			<stop  offset="0" style="stop-color:#F6C953"/>
			<stop  offset="1" style="stop-color:#D66D2A"/>
		</linearGradient>
		<path class="st78" d="M215,170.6c0-0.1,3.9-22.3,3.9-22.3h-62.1l4,22.3c0.1,0.6,0.3,1.1,0.7,1.5c8-2.8,26.5-2.7,35.7,4.6
			c0.7,0.5,1.4,1,2.1,1.4c3-0.5,6-1.2,8.9-2.3C212.9,174,215,171.9,215,170.6z"/>
		<path class="st79" d="M188.2,148.3c0.5,0.2,0.9,0.4,1.4,0.5c11.4,3.4,13.5,25.9,13,28.3c0,0.1-0.1,0.2-0.1,0.4
			c1.9-0.4,3.7-0.9,5.5-1.6c4.8-1.8,6.9-3.9,6.9-5.2c0-0.1,3.9-22.3,3.9-22.3L188.2,148.3z"/>
		<g>
			<path class="st79" d="M166.3,159.3c0.4,5.4,0,7.7-0.9,7.8s-2-2.1-2.4-7.5s0-9.8,1-9.9S165.9,153.9,166.3,159.3z"/>
			<path class="st79" d="M175.4,161c0.1,5.4-0.6,7.7-1.6,7.7s-1.8-2.3-1.8-7.7s0.6-9.8,1.5-9.8S175.3,155.6,175.4,161z"/>
			<path class="st79" d="M184.6,162.1c0.1,5.4-0.6,7.7-1.6,7.7s-1.8-2.3-1.8-7.7s0.6-9.8,1.6-9.8S184.5,156.7,184.6,162.1z"/>
			<path class="st80" d="M208.6,159.3c-0.4,5.4,0,7.7,0.9,7.8s2-2.1,2.4-7.5s0-9.8-1-9.9S209,153.9,208.6,159.3z"/>
			<path class="st80" d="M199.4,161c-0.1,5.4,0.6,7.7,1.5,7.7s1.8-2.3,1.8-7.7s-0.6-9.8-1.6-9.8S199.5,155.6,199.4,161z"/>
			<path class="st79" d="M190.3,162.1c-0.1,5.4,0.6,7.7,1.5,7.7s1.8-2.3,1.8-7.7s-0.6-9.8-1.5-9.8S190.4,156.7,190.3,162.1z"/>
		</g>
		<path class="st81" d="M187.8,160.3c-8.7,0-16.8-1.2-22.8-3.4c-5.4-2-7.8-4.3-7.8-5.7s2.4-3.8,7.8-5.7c6-2.2,14.1-3.4,22.8-3.4
			s16.8,1.2,22.8,3.4c5.4,2,7.8,4.3,7.8,5.7s-2.4,3.8-7.8,5.7C204.6,159.1,196.5,160.3,187.8,160.3z"/>
		
			<linearGradient id="SVGID_17_" gradientUnits="userSpaceOnUse" x1="154.7" y1="79.255" x2="220.92" y2="79.255" gradientTransform="matrix(1 0 0 -1 0 226)">
			<stop  offset="0" style="stop-color:#FBC16F"/>
			<stop  offset="1" style="stop-color:#EC8940"/>
		</linearGradient>
		<path class="st82" d="M220.9,146.8c0,6.9-14.8,12.4-33.1,12.4s-33.1-5.6-33.1-12.4s14.8-12.5,33.1-12.5S220.9,139.9,220.9,146.8z"
			/>
		<path class="st83" d="M187.8,155.9c-8.5,0-16.4-1.2-22.3-3.4c-5.2-2-7.6-4.3-7.6-5.7s2.3-3.8,7.6-5.7c5.9-2.2,13.8-3.4,22.3-3.4
			s16.4,1.2,22.3,3.4c5.2,2,7.6,4.3,7.6,5.7s-2.3,3.8-7.6,5.7C204.2,154.7,196.3,155.9,187.8,155.9z"/>
	</g>
	<path class="st84" d="M216,146.3c0-0.2,0.1-0.3,0.1-0.5l0,0c0.2-1.8-0.5-3.7-1.8-4.9c0.2-0.2,0.4-0.5,0.5-0.7
		c0.7-1.2,0.4-1.6-0.3-1.9s-1.8,0.3-2.4,1.4c-0.1,0.1-0.1,0.2-0.2,0.4c0-0.1,0.1-0.3,0.1-0.4c0.1-1.3-0.4-2.5-1.1-2.6
		s-1.3,0.1-1.4,1.4c0,0.3,0,0.6,0,0.9c-0.5,0.1-1,0.2-1.5,0.4c0,0,0,0,0-0.1c0-0.1-0.1-0.1-0.1-0.2c0.1-0.3,0-0.5-0.2-0.7
		c-0.4-0.5-0.8-0.7-1.7,0c-0.1,0.1-0.2,0.1-0.2,0.2c0,0,0-0.1,0-0.1l-0.1-0.2c0-0.1,0-0.1-0.1-0.2l-0.1-0.2c0-0.1,0-0.1-0.1-0.2
		c0,0,0-0.1,0-0.1c-0.1-0.3-0.3-0.6-0.4-0.8l0,0l-0.2-0.3l0,0c-0.1-0.1-0.1-0.2-0.2-0.3l0,0c-0.5-0.7-1.2-1.2-2-1.6
		c0.1-0.3,0.2-0.6,0.3-0.8c0.3-1.3-0.1-1.6-0.9-1.7h-0.2h-0.2h-0.1l0,0c-0.7,0.4-1.2,1.2-1.4,2c0,0.1,0,0.3-0.1,0.4
		c0-0.1,0-0.3-0.1-0.4c-0.3-1.3-1.1-2.2-1.9-2.1s-1.2,0.4-0.9,1.7c0.1,0.3,0.1,0.5,0.3,0.8c-1.1,0.5-2,1.3-2.6,2.4
		c-0.1-0.3-0.3-0.5-0.4-0.8l0,0c-0.5-0.7-1.1-1.2-1.9-1.6c0.1-0.2,0.2-0.5,0.2-0.7c0.2-1.1-0.1-1.3-0.7-1.4h-0.3
		c-0.1,0-0.1,0-0.2,0.1h-0.1l-0.1,0.1l-0.1,0.1l-0.1,0.1c-0.4,0.4-0.6,0.9-0.7,1.4c0,0.1,0,0.2,0,0.3c0-0.1,0-0.2,0-0.3
		c-0.2-1.1-0.9-1.8-1.5-1.7s-1,0.4-0.7,1.4c0,0.2,0.1,0.5,0.2,0.7c-0.9,0.4-1.7,1.1-2.2,2c-0.6-1.1-1.5-2.1-2.7-2.6
		c0.1-0.3,0.2-0.6,0.3-0.9c0.3-1.3-0.1-1.6-0.9-1.7s-1.6,0.8-1.9,2.1c0,0.1,0,0.3-0.1,0.4c0-0.1,0-0.3-0.1-0.4
		c-0.3-1.3-1.1-2.3-1.9-2.1s-1.2,0.4-0.9,1.7c0.1,0.3,0.2,0.6,0.3,0.8c-0.9,0.4-1.6,1-2.2,1.8c-0.5-0.5-1-1-1.6-1.3
		c0.1-0.2,0.2-0.5,0.3-0.8c0.2-1.1-0.1-1.4-0.8-1.5s-1.4,0.7-1.6,1.8c0,0.1,0,0.2-0.1,0.3c0-0.1,0-0.2,0-0.3c-0.2-1.1-1-2-1.6-1.8
		s-1,0.4-0.8,1.5c0,0.2,0.1,0.5,0.2,0.7c-1,0.5-1.8,1.2-2.3,2.1c-0.2-0.2-0.5-0.4-0.8-0.4c-0.8-0.1-1.6,0.8-1.9,2.1
		c0,0.1,0,0.3-0.1,0.4c0-0.1,0-0.3-0.1-0.4c-0.3-1.3-1.1-2.2-1.9-2.1s-1.2,0.4-0.9,1.7c0.1,0.3,0.1,0.6,0.3,0.8c-3,1.4-4.2,5-2.8,8
		c0.6,1.3,1.7,2.3,3,2.9l0,0c0.2,0.1,0.3,0.1,0.5,0.2h0.1l0.4,0.1h0.3l0.3,0.1c0.2,0,0.4,0,0.6,0c0.5,0,1.1-0.1,1.6-0.2
		c0.5,1.2,1.4,2.2,2.7,2.7l0,0c0.1,0.1,0.3,0.1,0.4,0.1h0.1l0.4,0.1h0.2h0.3c0.2,0,0.3,0,0.5,0c1.8,0,3.4-1,4.3-2.5
		c0.6,1.3,1.7,2.4,3.1,2.9l0,0l0.5,0.1l0,0l0.5,0.1h0.1c0.2,0,0.4,0,0.6,0c0.1,0,0.3,0,0.4,0h0.4c0.6,0,1.2-0.1,1.8-0.3l0,0
		c0.5-0.2,0.9-0.4,1.3-0.7l0,0l0,0c0.6,0.7,1.3,1.4,2.1,1.8l0,0c0.2,0.1,0.4,0.1,0.6,0.2c0,0,0.1,0,0.1,0c0.2,0.1,0.3,0.1,0.5,0.1
		h0.3c0.1,0,0.3,0.1,0.4,0.1s0.4,0,0.7,0c1.4,0,2.7-0.4,3.8-1.2c0.7,0.7,1.7,1.1,2.6,1.2l0,0c0.2,0,0.3,0,0.5,0.1h0.1
		c0.2,0,0.3,0,0.5,0h0.1l0.4-0.1h0.3h0.2h0.3c0.2,0,0.4-0.1,0.5-0.1c1.5-0.3,2.7-1.3,3.4-2.6c0.3,0.2,0.6,0.3,1,0.5l0,0
		c0.2,0.1,0.3,0.1,0.5,0.1h0.1l0.4,0.1h0.1c0.2,0,0.4,0,0.5,0c1.1,0,2.1-0.3,3-1l0,0l0.3-0.2l0,0c0.2-0.2,0.4-0.4,0.5-0.6l0.4,0.1
		c3.2,1,6.5-0.7,7.5-3.9C215.8,146.7,215.9,146.5,216,146.3L216,146.3z M193.8,142.5L193.8,142.5c0.1-0.1,0.3-0.3,0.4-0.5
		c0,0,0,0,0-0.1c0.1,0.3,0.2,0.7,0.4,1c-0.3-0.2-0.7-0.3-1-0.1c-0.1,0-0.2,0.1-0.3,0.2h-0.1l0.2-0.2l0.1-0.1L193.8,142.5z"/>
	<g>
		<g>
			<path class="st85" d="M173,142.5c0.1-0.2,0.2-0.5,0.2-0.7c0.2-1.1-0.1-1.3-0.7-1.4s-1.3,0.6-1.5,1.7c0,0.1,0,0.2-0.1,0.3
				c0-0.1,0-0.2,0-0.3c-0.2-1.1-0.9-1.8-1.5-1.7s-1,0.4-0.7,1.4c0,0.2,0.1,0.5,0.2,0.7c-2.4,1.2-3.5,4.1-2.3,6.5
				c1.2,2.4,4.1,3.5,6.5,2.3c2.4-1.2,3.5-4.1,2.3-6.5C174.9,143.8,174.1,143,173,142.5L173,142.5z"/>
			<path class="st86" d="M174.3,143.4c0,3-2.1,4.6-5.1,6.2c-0.5,0.3-1.1,0.6-1.7,0.8c0.9,0.9,2.1,1.4,3.4,1.4c2.7,0,4.9-2.2,4.9-4.9
				C175.8,145.6,175.2,144.3,174.3,143.4z"/>
			<g>
				
					<linearGradient id="SVGID_18_" gradientUnits="userSpaceOnUse" x1="167.1102" y1="83.6934" x2="174.7502" y2="76.0634" gradientTransform="matrix(1 0 0 -1 0 226)">
					<stop  offset="0" style="stop-color:#FF7267"/>
					<stop  offset="1" style="stop-color:#000000"/>
				</linearGradient>
				<path class="st87" d="M173,142.5c0.1-0.2,0.2-0.5,0.2-0.7c0.2-1.1-0.1-1.3-0.7-1.4s-1.3,0.6-1.5,1.7c0,0.1,0,0.2-0.1,0.3
					c0-0.1,0-0.2,0-0.3c-0.2-1.1-0.9-1.8-1.5-1.7s-1,0.4-0.7,1.4c0,0.2,0.1,0.5,0.2,0.7c-2.4,1.2-3.5,4.1-2.3,6.5
					c1.2,2.4,4.1,3.5,6.5,2.3c2.4-1.2,3.5-4.1,2.3-6.5C174.9,143.8,174.1,143,173,142.5L173,142.5z"/>
			</g>
			<path class="st88" d="M171.1,146.4c0.3-0.7,0.1-1.5-0.6-2c-0.8-0.6-2-0.5-2.6,0.4c-0.2,0.3-0.3,0.6-0.4,0.9
				c-0.3,0.7-0.1,1.5,0.6,2c0.8,0.6,2,0.5,2.6-0.4C170.9,147.1,171,146.8,171.1,146.4z"/>
			<path class="st89" d="M169,145.1c0.1-0.3,0-0.7-0.3-0.9c-0.4-0.3-0.9-0.2-1.2,0.2c-0.1,0.1-0.1,0.3-0.2,0.4
				c-0.1,0.3,0,0.7,0.2,0.9c0.4,0.3,0.9,0.2,1.2-0.2C168.9,145.4,169,145.2,169,145.1z"/>
		</g>
		<g>
			<path class="st72" d="M214.2,139.6c0.2-0.2,0.4-0.5,0.5-0.7c0.7-1.2,0.4-1.6-0.3-1.9s-1.8,0.3-2.4,1.4c-0.1,0.1-0.1,0.2-0.2,0.4
				c0-0.1,0.1-0.3,0.1-0.4c0.1-1.3-0.4-2.5-1.1-2.6s-1.3,0.1-1.4,1.4c0,0.3,0,0.6,0,0.9c-3.3,0.4-5.6,3.4-5.2,6.7
				c0.4,3.3,3.4,5.6,6.7,5.2c3.3-0.4,5.6-3.4,5.2-6.7C215.8,141.8,215.2,140.5,214.2,139.6L214.2,139.6z"/>
			<path class="st90" d="M215.4,141.1c-1.1,3.5-4.2,4.6-8.3,5.3c-0.7,0.1-1.5,0.2-2.3,0.3c1.3,3,4.8,4.4,7.9,3.1s4.4-4.8,3.1-7.9
				C215.7,141.6,215.5,141.3,215.4,141.1L215.4,141.1z"/>
			<g>
				
					<linearGradient id="SVGID_19_" gradientUnits="userSpaceOnUse" x1="355.7097" y1="378.6454" x2="365.0996" y2="369.2554" gradientTransform="matrix(0.95 0.31 0.31 -0.95 -247.85 386.7)">
					<stop  offset="0" style="stop-color:#FF7E67"/>
					<stop  offset="1" style="stop-color:#000000"/>
				</linearGradient>
				<path class="st91" d="M214.2,139.6c0.2-0.2,0.4-0.5,0.5-0.7c0.7-1.2,0.4-1.6-0.3-1.9s-1.8,0.3-2.4,1.4c-0.1,0.1-0.1,0.2-0.2,0.4
					c0-0.1,0.1-0.3,0.1-0.4c0.1-1.3-0.4-2.5-1.1-2.6s-1.3,0.1-1.4,1.4c0,0.3,0,0.6,0,0.9c-3.3,0.4-5.6,3.4-5.2,6.7
					c0.4,3.3,3.4,5.6,6.7,5.2c3.3-0.4,5.6-3.4,5.2-6.7C215.8,141.8,215.2,140.5,214.2,139.6L214.2,139.6z"/>
			</g>
			<path class="st73" d="M210.4,143.4c0.6-0.7,0.7-1.8,0.1-2.6c-0.7-1-2.2-1.3-3.2-0.6c-0.3,0.2-0.6,0.6-0.8,1
				c-0.6,0.7-0.7,1.8-0.1,2.6c0.7,1,2.2,1.3,3.2,0.5C210,144.1,210.3,143.8,210.4,143.4z"/>
			<path class="st74" d="M208.5,141c0.3-0.3,0.3-0.8,0.1-1.2c-0.3-0.5-0.9-0.6-1.4-0.3c-0.2,0.1-0.4,0.3-0.4,0.5
				c-0.3,0.3-0.3,0.8,0,1.2c0.3,0.5,0.9,0.6,1.4,0.2C208.3,141.3,208.5,141.2,208.5,141z"/>
		</g>
		<g>
			<path class="st72" d="M167.4,137.6c0.1-0.3,0.2-0.6,0.3-0.9c0.3-1.3-0.1-1.6-0.9-1.7s-1.6,0.8-1.9,2.1c0,0.1,0,0.3-0.1,0.4
				c0-0.1,0-0.3-0.1-0.4c-0.3-1.3-1.1-2.2-1.9-2.1s-1.2,0.4-0.9,1.7c0.1,0.3,0.1,0.6,0.3,0.8c-3,1.4-4.3,5-2.8,8s5,4.3,8,2.8
				c3-1.4,4.3-5,2.8-8C169.6,139.1,168.6,138.1,167.4,137.6L167.4,137.6z"/>
			<path class="st90" d="M168.9,138.7c0,3.6-2.6,5.7-6.3,7.6c-0.7,0.3-1.4,0.7-2.1,1c2.1,2.6,5.9,2.9,8.4,0.9
				c2.6-2.1,2.9-5.9,0.9-8.4C169.6,139.3,169.3,139,168.9,138.7L168.9,138.7z"/>
			<g>
				
					<linearGradient id="SVGID_20_" gradientUnits="userSpaceOnUse" x1="160.1068" y1="88.6705" x2="169.4568" y2="79.3105" gradientTransform="matrix(1 0 0 -1 0 226)">
					<stop  offset="0" style="stop-color:#FF7E67"/>
					<stop  offset="1" style="stop-color:#000000"/>
				</linearGradient>
				<path class="st92" d="M167.4,137.6c0.1-0.3,0.2-0.6,0.3-0.9c0.3-1.3-0.1-1.6-0.9-1.7s-1.6,0.8-1.9,2.1c0,0.1,0,0.3-0.1,0.4
					c0-0.1,0-0.3-0.1-0.4c-0.3-1.3-1.1-2.2-1.9-2.1s-1.2,0.4-0.9,1.7c0.1,0.3,0.1,0.6,0.3,0.8c-3,1.4-4.3,5-2.8,8s5,4.3,8,2.8
					c3-1.4,4.3-5,2.8-8C169.6,139.1,168.6,138.1,167.4,137.6L167.4,137.6z"/>
			</g>
			<path class="st73" d="M165,142.4c0.4-0.9,0.1-1.9-0.7-2.5c-1-0.8-2.5-0.6-3.2,0.4c-0.3,0.3-0.4,0.8-0.5,1.2
				c-0.4,0.9-0.1,1.9,0.7,2.5c1,0.8,2.5,0.6,3.2-0.4C164.8,143.2,165,142.8,165,142.4z"/>
			<path class="st74" d="M162.4,140.7c0.2-0.4,0.1-0.9-0.3-1.1c-0.4-0.4-1.1-0.3-1.4,0.1c-0.1,0.2-0.2,0.4-0.2,0.6
				c-0.2,0.4-0.1,0.9,0.3,1.1c0.4,0.4,1.1,0.3,1.4-0.1C162.3,141.1,162.4,140.9,162.4,140.7z"/>
		</g>
		<g>
			<path class="st72" d="M190.7,129.3c0.1-0.3,0.2-0.5,0.3-0.8c0.3-1.2-0.1-1.5-0.9-1.6s-1.5,0.7-1.8,2c0,0.1,0,0.2,0,0.4
				c0-0.1,0-0.2-0.1-0.4c-0.3-1.2-1.1-2.1-1.8-2s-1.1,0.4-0.9,1.6c0.1,0.3,0.1,0.5,0.3,0.8c-2.8,1.3-4,4.7-2.6,7.5
				c1.3,2.8,4.7,4,7.5,2.6s4-4.7,2.6-7.5C192.9,130.7,191.9,129.8,190.7,129.3L190.7,129.3z"/>
			<path class="st90" d="M192.2,130.3c0,3.4-2.4,5.3-5.9,7.1c-0.6,0.3-1.3,0.6-1.9,0.9c2.1,2.3,5.6,2.4,7.9,0.3
				c2.3-2.1,2.4-5.6,0.3-7.9C192.5,130.6,192.3,130.4,192.2,130.3L192.2,130.3z"/>
			<g>
				
					<linearGradient id="SVGID_21_" gradientUnits="userSpaceOnUse" x1="183.9373" y1="96.9973" x2="192.7273" y2="88.1973" gradientTransform="matrix(1 0 0 -1 0 226)">
					<stop  offset="0" style="stop-color:#FF7E67"/>
					<stop  offset="1" style="stop-color:#000000"/>
				</linearGradient>
				<path class="st93" d="M190.7,129.3c0.1-0.3,0.2-0.5,0.3-0.8c0.3-1.2-0.1-1.5-0.9-1.6s-1.5,0.7-1.8,2c0,0.1,0,0.2,0,0.4
					c0-0.1,0-0.2-0.1-0.4c-0.3-1.2-1.1-2.1-1.8-2s-1.1,0.4-0.9,1.6c0.1,0.3,0.1,0.5,0.3,0.8c-2.8,1.3-4,4.7-2.6,7.5
					c1.3,2.8,4.7,4,7.5,2.6s4-4.7,2.6-7.5C192.9,130.7,191.9,129.8,190.7,129.3L190.7,129.3z"/>
			</g>
			<path class="st73" d="M188.4,133.8c0.3-0.8,0.1-1.8-0.6-2.4c-1-0.7-2.3-0.5-3,0.4c-0.2,0.3-0.4,0.7-0.4,1.1
				c-0.3,0.8-0.1,1.8,0.6,2.4c1,0.7,2.3,0.5,3-0.4C188.3,134.6,188.4,134.2,188.4,133.8z"/>
			<path class="st74" d="M186.1,132.2c0.2-0.4,0-0.8-0.3-1.1c-0.5-0.3-1.1-0.2-1.4,0.3c-0.1,0.1-0.1,0.3-0.2,0.4
				c-0.2,0.4,0,0.8,0.3,1.1c0.5,0.3,1.1,0.2,1.4-0.3C186,132.5,186.1,132.3,186.1,132.2z"/>
		</g>
		<g>
			<path class="st72" d="M174.4,133.3c0.1-0.2,0.2-0.5,0.3-0.8c0.2-1.1-0.1-1.4-0.8-1.5s-1.4,0.7-1.6,1.8c0,0.1,0,0.2-0.1,0.3
				c0-0.1,0-0.2,0-0.3c-0.2-1.1-1-1.9-1.6-1.8s-1,0.4-0.8,1.5c0,0.2,0.1,0.5,0.2,0.7c-2.6,1.2-3.7,4.3-2.4,6.9
				c1.2,2.6,4.3,3.7,6.9,2.4c2.6-1.2,3.7-4.3,2.4-6.9C176.3,134.7,175.5,133.8,174.4,133.3L174.4,133.3z"/>
			<path class="st90" d="M175.7,134.3c0,3.1-2.2,4.9-5.4,6.5c-0.6,0.3-1.2,0.6-1.8,0.8c2,2.1,5.2,2.2,7.3,0.2s2.2-5.2,0.2-7.3
				C175.9,134.5,175.8,134.4,175.7,134.3L175.7,134.3z"/>
			<g>
				
					<linearGradient id="SVGID_22_" gradientUnits="userSpaceOnUse" x1="168.0816" y1="92.9316" x2="176.1813" y2="84.8319" gradientTransform="matrix(1 0 0 -1 0 226)">
					<stop  offset="0" style="stop-color:#FF7E67"/>
					<stop  offset="1" style="stop-color:#000000"/>
				</linearGradient>
				<path class="st94" d="M174.4,133.3c0.1-0.2,0.2-0.5,0.3-0.8c0.2-1.1-0.1-1.4-0.8-1.5s-1.4,0.7-1.6,1.8c0,0.1,0,0.2-0.1,0.3
					c0-0.1,0-0.2,0-0.3c-0.2-1.1-1-1.9-1.6-1.8s-1,0.4-0.8,1.5c0,0.2,0.1,0.5,0.2,0.7c-2.6,1.2-3.7,4.3-2.4,6.9
					c1.2,2.6,4.3,3.7,6.9,2.4c2.6-1.2,3.7-4.3,2.4-6.9C176.3,134.7,175.5,133.8,174.4,133.3L174.4,133.3z"/>
			</g>
			<path class="st73" d="M172.3,137.4c0.3-0.8,0.1-1.7-0.6-2.2c-0.9-0.7-2.1-0.5-2.8,0.4c-0.2,0.3-0.4,0.6-0.4,1
				c-0.3,0.8-0.1,1.7,0.6,2.2c0.9,0.7,2.1,0.5,2.8-0.4C172.1,138.2,172.2,137.8,172.3,137.4z"/>
			<path class="st74" d="M170.1,136c0.2-0.4,0.1-0.8-0.3-1c-0.4-0.3-1-0.2-1.3,0.2c-0.1,0.1-0.2,0.3-0.2,0.4c-0.2,0.4-0.1,0.8,0.3,1
				c0.4,0.3,0.9,0.2,1.2-0.2C170,136.3,170,136.2,170.1,136z"/>
		</g>
		<g>
			<path class="st85" d="M183.4,132.9c0.1-0.3,0.2-0.6,0.3-0.9c0.3-1.3-0.1-1.6-0.9-1.7s-1.6,0.8-1.9,2.1c0,0.1,0,0.3-0.1,0.4
				c0-0.1,0-0.3-0.1-0.4c-0.3-1.3-1.1-2.3-1.9-2.1s-1.2,0.4-0.9,1.7c0.1,0.3,0.2,0.6,0.3,0.8c-3,1.4-4.3,5-2.8,8s5,4.3,8,2.8
				c3-1.4,4.3-5,2.8-8C185.6,134.4,184.6,133.4,183.4,132.9L183.4,132.9z"/>
			<path class="st86" d="M184.9,134c0,3.6-2.6,5.7-6.3,7.6c-0.7,0.4-1.4,0.7-2.1,1c2.1,2.6,5.9,2.9,8.4,0.9c2.6-2.1,2.9-5.9,0.9-8.4
				C185.6,134.6,185.2,134.3,184.9,134L184.9,134z"/>
			<g>
				
					<linearGradient id="SVGID_23_" gradientUnits="userSpaceOnUse" x1="176.0735" y1="93.3937" x2="185.4235" y2="84.0337" gradientTransform="matrix(1 0 0 -1 0 226)">
					<stop  offset="0" style="stop-color:#FF7267"/>
					<stop  offset="1" style="stop-color:#000000"/>
				</linearGradient>
				<path class="st95" d="M183.4,132.9c0.1-0.3,0.2-0.6,0.3-0.9c0.3-1.3-0.1-1.6-0.9-1.7s-1.6,0.8-1.9,2.1c0,0.1,0,0.3-0.1,0.4
					c0-0.1,0-0.3-0.1-0.4c-0.3-1.3-1.1-2.3-1.9-2.1s-1.2,0.4-0.9,1.7c0.1,0.3,0.2,0.6,0.3,0.8c-3,1.4-4.3,5-2.8,8s5,4.3,8,2.8
					c3-1.4,4.3-5,2.8-8C185.6,134.4,184.6,133.4,183.4,132.9L183.4,132.9z"/>
			</g>
			<path class="st69" d="M180.9,137.6c0.4-0.9,0.1-1.9-0.7-2.5c-1-0.8-2.5-0.6-3.2,0.4c-0.3,0.3-0.4,0.8-0.5,1.2
				c-0.4,0.9-0.1,1.9,0.7,2.5c1,0.8,2.5,0.6,3.2-0.4C180.7,138.5,180.9,138.1,180.9,137.6z"/>
			<path class="st74" d="M178.4,136c0.2-0.4,0-0.9-0.3-1.1c-0.4-0.4-1.1-0.3-1.4,0.1c-0.1,0.2-0.2,0.4-0.2,0.6
				c-0.2,0.4-0.1,0.9,0.3,1.1c0.4,0.4,1.1,0.3,1.4-0.1C178.3,136.4,178.4,136.2,178.4,136z"/>
		</g>
		<g>
			<path class="st85" d="M206.2,142c0.1-0.2,0.2-0.5,0.2-0.7c0.2-1.1-0.1-1.3-0.8-1.4s-1.3,0.6-1.5,1.7c0,0.1,0,0.2,0,0.3
				c0-0.1,0-0.2,0-0.3c-0.2-1.1-0.9-1.8-1.5-1.7s-1,0.4-0.8,1.4c0,0.2,0.1,0.5,0.2,0.7c-2.4,1.2-3.4,4.1-2.3,6.5
				c1.2,2.4,4.1,3.4,6.5,2.3c2.4-1.2,3.4-4.1,2.3-6.5C208.1,143.3,207.3,142.4,206.2,142L206.2,142z"/>
			<path class="st88" d="M204.4,145.9c0.3-0.7,0.1-1.5-0.6-2c-0.8-0.6-2-0.5-2.6,0.4c-0.2,0.3-0.3,0.6-0.4,0.9
				c-0.3,0.7-0.1,1.5,0.6,2c0.8,0.6,2,0.5,2.6-0.4C204.2,146.6,204.4,146.3,204.4,145.9z"/>
			<path class="st89" d="M202.3,144.6c0.1-0.3,0-0.7-0.3-0.9c-0.4-0.3-0.9-0.2-1.2,0.1c-0.1,0.1-0.2,0.3-0.2,0.4
				c-0.1,0.3,0,0.7,0.2,0.9c0.4,0.3,0.9,0.2,1.2-0.2C202.3,144.9,202.3,144.7,202.3,144.6z"/>
			<path class="st96" d="M206.2,142c0.1-0.2,0.2-0.5,0.2-0.7c0.2-1.1-0.1-1.3-0.8-1.4c-0.4,0-0.8,0.2-1,0.6
				c1.3,3.9,2.9,9.1-2.2,10.2c-0.2,0-0.3,0.1-0.4,0.2c0.6,0.3,1.3,0.5,2.1,0.4c2.7,0,4.9-2.2,4.9-4.9
				C209,144.5,207.9,142.8,206.2,142L206.2,142z"/>
			<path class="st97" d="M206.9,142.4c1.1,2.8,0.8,5.9-0.9,8.4l-0.1,0.2c2.5-0.9,3.8-3.7,2.9-6.2C208.3,143.8,207.7,143,206.9,142.4
				L206.9,142.4z"/>
		</g>
		<path class="st98" d="M194,141.3c0.1-0.1,0.3-0.3,0.4-0.5c0,0,0.1-0.1,0.1-0.1l0.1-0.2c0-0.1,0.1-0.1,0.1-0.2
			c0-0.1,0.1-0.1,0.1-0.2l0.1-0.2l0.1-0.2c0.1-0.1,0.1-0.3,0.1-0.4c0,0,0-0.1,0-0.1c0-0.1,0.1-0.2,0.1-0.3v-0.2c0-0.1,0-0.2,0-0.3
			c0,0,0-0.1,0-0.1c0-0.2,0-0.3,0-0.5c0-0.2,0-0.4,0-0.6v-0.1c0-0.2-0.1-0.4-0.1-0.5c0,0,0-0.1,0-0.1c0-0.2-0.1-0.4-0.2-0.5l0,0
			c-0.1-0.4-0.3-0.7-0.6-1.1l0,0c-0.5-0.7-1.2-1.3-2-1.7c0.1-0.2,0.2-0.5,0.2-0.7c0.2-1.1-0.1-1.4-0.8-1.5c-0.1,0-0.1,0-0.2,0h-0.1
			c-0.1,0-0.1,0-0.2,0.1h-0.1l-0.1,0.1l-0.1,0.1l-0.1,0.1c-0.4,0.4-0.6,0.9-0.7,1.5c0,0.1,0,0.2-0.1,0.3c0-0.1,0-0.2,0-0.3
			c-0.2-1.1-1-1.9-1.6-1.8s-1,0.4-0.8,1.5c0,0.2,0.1,0.5,0.2,0.7c-2.6,1.2-3.7,4.3-2.5,6.9c0.6,1.3,1.7,2.2,3,2.7l0,0l0.5,0.1l0,0
			l0.5,0.1h0.1c0.8,0.1,1.6,0,2.4-0.3l0,0c0.5-0.2,0.9-0.4,1.3-0.7l0,0l0.3-0.2l0.1-0.1l0.2-0.2C193.8,141.4,194,141.3,194,141.3z"
			/>
		<g>
			<path class="st85" d="M202.4,133.6c0.1-0.3,0.2-0.6,0.3-0.8c0.3-1.3-0.1-1.6-0.9-1.7s-1.6,0.8-1.9,2.1c0,0.1,0,0.3-0.1,0.4
				c0-0.1,0-0.3-0.1-0.4c-0.3-1.3-1.1-2.2-1.9-2.1s-1.2,0.4-0.9,1.7c0.1,0.3,0.1,0.5,0.3,0.8c-2.9,1.4-4.2,4.9-2.8,7.9
				c1.4,2.9,4.9,4.2,7.9,2.8s4.2-4.9,2.8-7.9C204.6,135.1,203.6,134.1,202.4,133.6L202.4,133.6z"/>
			<path class="st88" d="M200.2,138.3c0.4-0.9,0.1-1.9-0.7-2.5c-1-0.8-2.4-0.6-3.2,0.4c-0.3,0.3-0.4,0.8-0.5,1.2
				c-0.4,0.9-0.1,1.9,0.7,2.5c1,0.8,2.4,0.6,3.2-0.4C200,139.1,200.1,138.7,200.2,138.3z"/>
			<path class="st89" d="M197.7,136.6c0.2-0.4,0-0.9-0.3-1.1c-0.4-0.3-1.1-0.3-1.4,0.2c-0.1,0.2-0.2,0.3-0.2,0.6
				c-0.2,0.4,0,0.8,0.3,1.1c0.4,0.3,1.1,0.3,1.4-0.2C197.6,137,197.7,136.8,197.7,136.6z"/>
			<path class="st96" d="M202.4,133.6c0.1-0.3,0.2-0.6,0.3-0.8c0.3-1.3-0.1-1.6-0.9-1.7c-0.5,0-1,0.2-1.3,0.7
				c1.6,4.7,3.5,11-2.6,12.3c-0.2,0-0.4,0.1-0.5,0.2c3,1.3,6.5-0.1,7.7-3.1C206.3,138.3,205.1,135,202.4,133.6L202.4,133.6z"/>
			<path class="st97" d="M203.1,134c1.4,3.4,0.9,7.2-1.1,10.2l-0.2,0.2c3-1.1,4.6-4.5,3.5-7.6C204.9,135.7,204.1,134.7,203.1,134
				L203.1,134z"/>
		</g>
		<path class="st98" d="M201,147.1c0.2,0.1,0.4,0.1,0.6,0.1h0.1h0.2h0.4h0.3h0.2l0.4-0.1h0.1l0.3-0.1l0.2-0.1l0.3-0.1h0.1l0.4-0.2
			c0.2-0.1,0.3-0.2,0.5-0.3l0.1-0.1l0.4-0.4l0.1-0.1c0.1-0.1,0.3-0.3,0.4-0.4l0,0c0.3-0.3,0.5-0.6,0.6-1l0,0
			c0.4-0.8,0.6-1.7,0.5-2.5c0.3,0,0.5-0.1,0.8-0.1c1.1-0.4,1.1-0.8,0.9-1.4c0-0.1-0.1-0.1-0.1-0.2l0,0c0-0.1-0.1-0.1-0.1-0.1h-0.1
			l-0.1-0.1l-0.2-0.1h-0.1c-0.5-0.1-1.1-0.1-1.6,0.1c-0.1,0-0.2,0.1-0.3,0.1c0.1-0.1,0.2-0.1,0.3-0.2c0.9-0.8,1.2-1.8,0.8-2.3
			s-0.8-0.7-1.7,0c-0.2,0.2-0.4,0.3-0.5,0.5c-2.3-1.7-5.5-1.2-7.2,1.1c-0.8,1.1-1.2,2.6-0.9,3.9l0,0c0,0.2,0.1,0.3,0.1,0.5
			c0,0,0,0,0,0.1s0.1,0.3,0.2,0.4v0.1c0.1,0.2,0.1,0.3,0.2,0.5c0.3,0.5,0.7,1,1.2,1.4l0,0c0.4,0.3,0.8,0.6,1.3,0.8l0,0l0.3,0.1h0.1
			l0.3,0.1L201,147.1z"/>
		<g>
			<path class="st72" d="M192.4,133.5c0.1-0.2,0.2-0.5,0.2-0.7c0.2-1.1-0.1-1.3-0.7-1.4s-1.3,0.6-1.5,1.7c0,0.1,0,0.2,0,0.3
				c0-0.1,0-0.2,0-0.3c-0.2-1.1-0.9-1.8-1.5-1.7s-1,0.4-0.7,1.4c0,0.2,0.1,0.5,0.2,0.7c-2.4,1.2-3.5,4.1-2.3,6.5
				c1.2,2.4,4.1,3.5,6.5,2.3c2.4-1.2,3.5-4.1,2.3-6.5C194.3,134.8,193.5,134,192.4,133.5L192.4,133.5z"/>
			<path class="st73" d="M190.6,137.4c0.3-0.7,0.1-1.5-0.6-2c-0.8-0.6-2-0.5-2.6,0.4c-0.2,0.3-0.3,0.6-0.4,0.9
				c-0.3,0.7-0.1,1.6,0.6,2.1c0.8,0.6,2,0.5,2.6-0.4C190.4,138.1,190.6,137.8,190.6,137.4z"/>
			<path class="st74" d="M188.5,136.1c0.1-0.3,0-0.7-0.3-0.9c-0.4-0.3-0.9-0.2-1.2,0.2c-0.1,0.1-0.1,0.3-0.2,0.4
				c-0.1,0.3,0,0.7,0.2,0.9c0.4,0.3,0.9,0.2,1.2-0.2C188.5,136.4,188.5,136.2,188.5,136.1z"/>
			<path class="st75" d="M192.4,133.5c0.1-0.2,0.2-0.5,0.2-0.7c0.2-1.1-0.1-1.3-0.7-1.4c-0.4,0-0.8,0.2-1.1,0.6
				c1.3,3.9,2.9,9.1-2.2,10.2c-0.2,0-0.3,0.1-0.4,0.2c2.5,1.1,5.3-0.1,6.4-2.5C195.6,137.4,194.7,134.7,192.4,133.5L192.4,133.5z"/>
			<path class="st76" d="M193,133.9c1.1,2.8,0.8,5.9-0.9,8.4l-0.1,0.2c2.5-0.9,3.8-3.7,2.9-6.2C194.5,135.3,193.8,134.5,193,133.9z"
				/>
		</g>
		<path class="st98" d="M176.9,146.1c0.1-0.2,0.2-0.4,0.3-0.6c0,0,0-0.1,0.1-0.1c0-0.1,0.1-0.2,0.1-0.2c0-0.1,0-0.1,0.1-0.2l0.1-0.2
			c0-0.1,0-0.2,0.1-0.3c0-0.1,0-0.1,0-0.2c0-0.1,0-0.3,0.1-0.4c0,0,0-0.1,0-0.1c0-0.1,0-0.2,0-0.3c0-0.1,0-0.1,0-0.2
			c0-0.1,0-0.2,0-0.3s0-0.1,0-0.1c0-0.2,0-0.3-0.1-0.5c-0.1-0.2-0.1-0.4-0.2-0.6v-0.1c-0.1-0.2-0.1-0.4-0.2-0.5c0,0,0-0.1-0.1-0.1
			c-0.1-0.2-0.2-0.3-0.3-0.5l0,0c-0.2-0.3-0.5-0.6-0.8-0.9l0,0c-0.6-0.6-1.4-1-2.3-1.2c0.1-0.3,0.1-0.5,0.1-0.8
			c0-1.1-0.4-1.3-1.1-1.3c-0.1,0-0.1,0-0.2,0l0,0c-0.1,0-0.1,0.1-0.2,0.1l-0.1,0.1l-0.1,0.1c-0.1,0-0.1,0.1-0.1,0.1v0.1
			c-0.3,0.5-0.4,1-0.4,1.6v0.3c0-0.1-0.1-0.2-0.1-0.3c-0.5-1-1.4-1.7-2-1.4s-0.9,0.6-0.4,1.6c0.1,0.2,0.2,0.4,0.4,0.6
			c-2.2,1.8-2.6,5-0.9,7.2c0.9,1.1,2.1,1.8,3.5,2l0,0c0.2,0,0.3,0,0.5,0h0.1h0.5h0.1c0.2,0,0.4-0.1,0.6-0.1c0.6-0.1,1.2-0.4,1.7-0.7
			l0,0c0.4-0.3,0.8-0.6,1.1-1l0,0l0.2-0.3l0.1-0.1L176.9,146.1L176.9,146.1z"/>
		<g>
			<path class="st66" d="M207.5,142.5c0.2,0,0.5,0,0.7-0.1c1.1-0.3,1.1-0.7,0.9-1.3s-1.1-0.9-2.2-0.6l-0.3,0.1l0.3-0.2
				c0.9-0.7,1.2-1.6,0.8-2.1s-0.7-0.7-1.6,0c-0.2,0.1-0.4,0.3-0.5,0.5c-2.1-1.7-5.2-1.3-6.8,0.8s-1.3,5.2,0.8,6.8
				c2.1,1.7,5.2,1.3,6.8-0.8C207.1,144.7,207.5,143.6,207.5,142.5L207.5,142.5z"/>
			<path class="st69" d="M203.2,142.6c0.8-0.1,1.4-0.6,1.6-1.4c0.2-1-0.5-2-1.5-2.2c-0.3-0.1-0.7,0-1,0.1c-0.8,0-1.4,0.6-1.6,1.4
				c-0.2,1,0.5,2,1.5,2.2C202.5,142.7,202.9,142.7,203.2,142.6z"/>
			<path class="st70" d="M203.5,140.1c0.4,0,0.6-0.3,0.7-0.6c0.1-0.5-0.2-0.9-0.7-1c-0.2,0-0.3,0-0.5,0c-0.4,0-0.6,0.3-0.7,0.6
				c-0.1,0.5,0.2,0.9,0.7,1C203.2,140.2,203.4,140.2,203.5,140.1z"/>
			<path class="st99" d="M207.5,142.5c0.2,0,0.5,0,0.7-0.1c1.1-0.3,1.1-0.7,0.9-1.3c-0.2-0.4-0.6-0.7-1-0.7
				c-2.9,2.9-6.8,6.6-10.1,2.6c-0.1-0.1-0.2-0.2-0.3-0.3c0,0.7,0.2,1.4,0.5,2c1.2,2.4,4.1,3.4,6.5,2.2
				C206.5,146,207.5,144.3,207.5,142.5L207.5,142.5z"/>
			<path class="st100" d="M207.5,143.2c-2,2.2-5,3.3-7.9,2.9h-0.2c2,1.8,5,1.8,6.9-0.2C206.9,145.2,207.3,144.2,207.5,143.2
				L207.5,143.2z"/>
		</g>
		<g>
			<path class="st66" d="M174,138.4c0-0.2,0-0.5,0-0.7c-0.1-1.1-0.4-1.2-1.1-1.2s-1.1,1-1,2.1c0,0.1,0,0.2,0,0.3
				c0-0.1-0.1-0.2-0.1-0.3c-0.5-1-1.4-1.5-1.9-1.2s-0.8,0.6-0.4,1.6c0.1,0.2,0.2,0.4,0.4,0.6c-2,1.7-2.3,4.8-0.6,6.9
				c1.7,2,4.8,2.3,6.9,0.6c2-1.7,2.3-4.8,0.6-6.9C176,139.1,175,138.6,174,138.4L174,138.4z"/>
			<path class="st69" d="M173.3,142.6c0.1-0.8-0.3-1.5-1.1-1.8c-1-0.4-2.1,0.1-2.5,1c-0.1,0.3-0.2,0.7-0.1,1
				c-0.1,0.8,0.3,1.5,1.1,1.8c1,0.4,2.1-0.1,2.5-1C173.3,143.3,173.3,143,173.3,142.6z"/>
			<path class="st70" d="M170.9,141.8c0.1-0.3-0.1-0.7-0.5-0.8c-0.4-0.2-0.9,0-1.1,0.5c-0.1,0.1-0.1,0.3-0.1,0.5
				c0,0.4,0.2,0.7,0.5,0.8c0.4,0.2,0.9,0,1.1-0.5C170.9,142.1,170.9,142,170.9,141.8z"/>
			<path class="st99" d="M174,138.4c0-0.2,0-0.5,0-0.7c-0.1-1.1-0.4-1.2-1.1-1.2c-0.4,0-0.7,0.4-0.9,0.8c2.3,3.4,5.2,8,0.6,10.4
				c-0.1,0.1-0.3,0.2-0.4,0.3c0.7,0.1,1.4,0.1,2.1-0.1c2.6-0.7,4.1-3.4,3.4-6C177.2,140.1,175.8,138.7,174,138.4L174,138.4z"/>
			<path class="st100" d="M174.7,138.6c1.8,2.4,2.3,5.5,1.3,8.4c0,0.1,0,0.1-0.1,0.2c2.2-1.6,2.7-4.6,1.1-6.8
				C176.5,139.5,175.6,138.9,174.7,138.6L174.7,138.6z"/>
		</g>
		<g>
			<path class="st66" d="M191.6,140.8c0.1-0.3,0.2-0.7,0.3-1c0.3-1.4-0.2-1.8-1-1.9s-1.8,0.9-2.1,2.3c0,0.1,0,0.3-0.1,0.4
				c0-0.1,0-0.3-0.1-0.4c-0.3-1.4-1.2-2.5-2.1-2.3s-1.3,0.5-1,1.9c0.1,0.3,0.2,0.6,0.3,0.9c-3.3,1.6-4.7,5.5-3.1,8.8
				c1.6,3.3,5.5,4.7,8.8,3.1c3.3-1.6,4.7-5.5,3.1-8.8C194.1,142.4,193,141.3,191.6,140.8L191.6,140.8z"/>
			<path class="st67" d="M193.3,142c0,4-2.9,6.3-6.9,8.4c-0.8,0.4-1.5,0.7-2.3,1.1c2.5,2.6,6.7,2.7,9.3,0.2c2.6-2.5,2.7-6.7,0.2-9.3
				C193.6,142.2,193.5,142.1,193.3,142L193.3,142z"/>
			<g>
				
					<linearGradient id="SVGID_24_" gradientUnits="userSpaceOnUse" x1="183.607" y1="85.5806" x2="193.977" y2="75.2106" gradientTransform="matrix(1 0 0 -1 0 226)">
					<stop  offset="0" style="stop-color:#FF9264"/>
					<stop  offset="1" style="stop-color:#000000"/>
				</linearGradient>
				<path class="st101" d="M191.6,140.8c0.1-0.3,0.2-0.7,0.3-1c0.3-1.4-0.2-1.8-1-1.9s-1.8,0.9-2.1,2.3c0,0.1,0,0.3-0.1,0.4
					c0-0.1,0-0.3-0.1-0.4c-0.3-1.4-1.2-2.5-2.1-2.3s-1.3,0.5-1,1.9c0.1,0.3,0.2,0.6,0.3,0.9c-3.3,1.6-4.7,5.5-3.1,8.8
					c1.6,3.3,5.5,4.7,8.8,3.1c3.3-1.6,4.7-5.5,3.1-8.8C194.1,142.4,193,141.3,191.6,140.8L191.6,140.8z"/>
			</g>
			<path class="st69" d="M188.9,146.1c0.4-1,0.1-2.1-0.8-2.8c-1.1-0.9-2.7-0.7-3.6,0.5c-0.3,0.4-0.5,0.8-0.5,1.3
				c-0.4,1-0.1,2.1,0.8,2.8c1.1,0.9,2.7,0.7,3.6-0.5C188.7,147,188.9,146.5,188.9,146.1z"/>
			<path class="st70" d="M186.1,144.2c0.2-0.4,0.1-1-0.3-1.2c-0.5-0.4-1.2-0.3-1.6,0.2c-0.1,0.2-0.2,0.4-0.2,0.6
				c-0.2,0.4-0.1,1,0.3,1.2c0.5,0.4,1.2,0.3,1.6-0.2C186,144.6,186.1,144.4,186.1,144.2z"/>
		</g>
		<path class="st98" d="M184.5,150.8c0.1-0.1,0.3-0.3,0.4-0.5l0.1-0.1l0.1-0.2c0-0.1,0.1-0.1,0.1-0.2l0.1-0.2c0-0.1,0.1-0.2,0.1-0.2
			c0-0.1,0.1-0.1,0.1-0.2l0.1-0.4c0,0,0-0.1,0-0.1c0-0.1,0-0.2,0.1-0.3v-0.2c0-0.1,0-0.2,0.1-0.3c0,0,0-0.1,0-0.1c0-0.1,0-0.3,0-0.5
			c0-0.2,0-0.4,0-0.6c0,0,0-0.1,0-0.1c0-0.2-0.1-0.4-0.1-0.6c0,0,0-0.1,0-0.1c0-0.2-0.1-0.4-0.2-0.5l0,0c-0.2-0.4-0.3-0.7-0.6-1.1
			l0,0c-0.5-0.7-1.2-1.3-2-1.7c0.1-0.2,0.2-0.5,0.2-0.7c0.2-1.1-0.1-1.4-0.8-1.5c-0.1,0-0.2,0-0.2,0h-0.1c-0.1,0-0.1,0-0.2,0.1h-0.1
			l-0.1,0.1l-0.2,0.1v0.1c-0.4,0.4-0.6,0.9-0.7,1.5c0,0.1,0,0.2-0.1,0.3c0-0.1,0-0.2,0-0.3c-0.2-1.1-1-1.9-1.6-1.8s-1,0.4-0.8,1.5
			c0.1,0.2,0.1,0.5,0.2,0.7c-2.6,1.2-3.7,4.3-2.5,6.8c0.6,1.3,1.7,2.3,3,2.7l0,0l0.5,0.1l0,0l0.5,0.1h0.1c0.2,0,0.4,0,0.6,0
			c0.6,0,1.2-0.1,1.8-0.3l0,0c0.5-0.2,0.9-0.4,1.3-0.7l0,0c0.1-0.1,0.2-0.1,0.3-0.2l0.1-0.1L184.5,150.8L184.5,150.8z"/>
		<path class="st98" d="M200.2,151c0.1-0.2,0.2-0.4,0.3-0.5c0-0.1,0.1-0.1,0.1-0.1l0.1-0.2l0.1-0.2c0-0.1,0-0.1,0.1-0.2l0.1-0.3
			c0-0.1,0-0.1,0.1-0.2c0-0.1,0-0.3,0.1-0.4c0,0,0-0.1,0-0.1c0-0.1,0-0.2,0-0.3c0-0.1,0-0.1,0-0.2c0-0.1,0-0.2,0-0.3
			c0,0,0-0.1,0-0.1c0-0.1,0-0.3-0.1-0.5c0-0.2-0.1-0.4-0.1-0.6c0,0,0-0.1,0-0.1c-0.1-0.2-0.1-0.4-0.2-0.5c0,0,0-0.1,0-0.1
			c-0.1-0.2-0.2-0.3-0.3-0.5l0,0c-0.2-0.3-0.5-0.7-0.8-0.9l0,0c-0.6-0.6-1.4-1.1-2.2-1.3c0.1-0.3,0.1-0.5,0.1-0.8
			c0-1.2-0.4-1.3-1-1.3c-0.1,0-0.1,0-0.2,0h-0.1l-0.2,0.1l-0.1,0.1c0,0-0.1,0.1-0.1,0.1c0,0-0.1,0.1-0.1,0.1v0.1
			c-0.3,0.5-0.5,1-0.4,1.6c0,0.1,0,0.2,0,0.3c0-0.1-0.1-0.2-0.1-0.3c-0.4-1.1-1.3-1.7-1.9-1.5s-0.9,0.6-0.5,1.6
			c0.1,0.2,0.2,0.5,0.4,0.7c-2.3,1.7-2.8,4.9-1.2,7.2c0.8,1.1,2.1,1.9,3.4,2.1l0,0c0.2,0,0.3,0,0.5,0h0.1c0.2,0,0.3,0,0.5,0h0.1
			c0.2,0,0.4,0,0.6-0.1c0.6-0.1,1.2-0.3,1.7-0.6l0,0c0.4-0.3,0.8-0.6,1.2-1l0,0l0.2-0.3l0.1-0.1c0.1-0.1,0.1-0.2,0.2-0.3L200.2,151z
			"/>
		<g>
			<path class="st72" d="M182.2,142.6c0.1-0.2,0.2-0.5,0.2-0.7c0.2-1.1-0.1-1.4-0.8-1.5s-1.4,0.7-1.6,1.8c0,0.1,0,0.2-0.1,0.3
				c0-0.1,0-0.2,0-0.3c-0.2-1.1-1-1.9-1.6-1.8s-1,0.4-0.8,1.5c0.1,0.2,0.1,0.5,0.2,0.7c-2.6,1.2-3.7,4.3-2.4,6.9
				c1.2,2.6,4.3,3.7,6.9,2.4s3.7-4.3,2.4-6.9C184.2,143.9,183.3,143,182.2,142.6L182.2,142.6z"/>
			<path class="st73" d="M180.3,146.7c0.3-0.8,0.1-1.7-0.6-2.2c-0.9-0.7-2.1-0.5-2.8,0.4c-0.2,0.3-0.4,0.7-0.4,1
				c-0.3,0.8-0.1,1.7,0.6,2.2c0.9,0.7,2.1,0.5,2.8-0.4C180.1,147.4,180.2,147.1,180.3,146.7z"/>
			<path class="st74" d="M178.1,145.3c0.2-0.4,0.1-0.8-0.3-1c-0.4-0.3-0.9-0.2-1.2,0.2c-0.1,0.1-0.2,0.3-0.2,0.5
				c-0.2,0.4,0,0.8,0.3,1c0.4,0.3,1,0.2,1.2-0.2C178,145.6,178.1,145.4,178.1,145.3z"/>
			<path class="st75" d="M182.2,142.6c0.1-0.2,0.2-0.5,0.2-0.7c0.2-1.1-0.1-1.4-0.8-1.5c-0.5,0-0.9,0.2-1.1,0.6
				c1.4,4.1,3.1,9.6-2.3,10.8c-0.2,0-0.3,0.1-0.5,0.2c0.7,0.3,1.4,0.5,2.2,0.5c2.8,0,5.2-2.3,5.2-5.2
				C185.1,145.2,184,143.4,182.2,142.6z"/>
			<path class="st76" d="M182.9,143c1.2,2.9,0.8,6.3-1,8.9l-0.1,0.2c2.7-1,4-4,3-6.6C184.4,144.5,183.7,143.6,182.9,143z"/>
		</g>
		<g>
			<path class="st72" d="M198.1,142.9c0.1-0.3,0.1-0.5,0.1-0.8c0-1.2-0.4-1.3-1.1-1.3s-1.2,1-1.2,2.2c0,0.1,0,0.2,0,0.4
				c0-0.1-0.1-0.2-0.1-0.3c-0.5-1.1-1.4-1.7-2-1.4s-0.9,0.6-0.4,1.7c0.1,0.2,0.2,0.5,0.4,0.7c-2.3,1.8-2.7,5.1-0.9,7.4
				s5.1,2.7,7.4,0.9c2.3-1.8,2.7-5.1,0.9-7.4C200.3,143.8,199.3,143.2,198.1,142.9L198.1,142.9z"/>
			<path class="st90" d="M199.6,143.5c0.7,3.1-1.1,5.4-3.9,7.8c-0.5,0.4-1,0.9-1.6,1.3c2.4,1.7,5.7,1,7.3-1.3c1.7-2.4,1-5.7-1.3-7.3
				C200,143.8,199.8,143.7,199.6,143.5L199.6,143.5z"/>
			<g>
				
					<linearGradient id="SVGID_25_" gradientUnits="userSpaceOnUse" x1="32.2769" y1="-96.5057" x2="40.55" y2="-104.7788" gradientTransform="matrix(0.9738 -0.2273 -0.2273 -0.9738 138.4007 57.5033)">
					<stop  offset="0" style="stop-color:#FF7E67"/>
					<stop  offset="1" style="stop-color:#000000"/>
				</linearGradient>
				<path class="st102" d="M198.1,142.9c0.1-0.3,0.1-0.5,0.1-0.8c0-1.2-0.4-1.3-1.1-1.3s-1.2,1-1.2,2.2c0,0.1,0,0.2,0,0.4
					c0-0.1-0.1-0.2-0.1-0.3c-0.5-1.1-1.4-1.7-2-1.4s-0.9,0.6-0.4,1.7c0.1,0.2,0.2,0.5,0.4,0.7c-2.3,1.8-2.7,5.1-0.9,7.4
					s5.1,2.7,7.4,0.9c2.3-1.8,2.7-5.1,0.9-7.4C200.3,143.8,199.3,143.2,198.1,142.9L198.1,142.9z"/>
			</g>
			<path class="st73" d="M197,147.5c0.1-0.8-0.3-1.7-1.1-2c-1-0.5-2.2-0.1-2.7,0.9c-0.2,0.4-0.3,0.8-0.2,1.3c-0.1,0.8,0.3,1.7,1.1,2
				c1,0.5,2.2,0.1,2.7-0.9C197,148.4,197.1,147.9,197,147.5z"/>
			<path class="st74" d="M194.4,146.6c0.1-0.4-0.1-0.7-0.5-0.9c-0.5-0.2-1,0-1.2,0.4c-0.1,0.2-0.1,0.3-0.1,0.5
				c-0.1,0.4,0.1,0.7,0.5,0.9c0.5,0.2,1,0,1.2-0.5C194.4,146.9,194.5,146.7,194.4,146.6z"/>
		</g>
	</g>
</g>
<g>
	<g>
		<rect x="134" y="72.4" class="st103" width="47.9" height="107.4"/>
		<rect x="134" y="92.9" class="st104" width="47.9" height="1.4"/>
		<rect x="148.1" y="81.4" class="st105" width="19.6" height="4.4"/>
		<rect x="148.1" y="78.8" class="st106" width="19.6" height="1.2"/>
		<path class="st36" d="M138.4,104.9L138.4,104.9c0.6,0,0.9,0.4,0.9,0.9v24c0,0.5-0.4,0.9-0.9,0.9h-0.1c-0.5,0-0.9-0.4-0.9-0.9v-24
			C137.6,105.3,137.9,104.9,138.4,104.9z"/>
		<g>
			<rect x="56" y="124.1" class="st104" width="78" height="55.7"/>
			<rect x="94.5" y="124.1" class="st106" width="1.1" height="55"/>
			<rect x="56" y="123.9" class="st106" width="78" height="2.7"/>
			<g>
				<path class="st107" d="M128.6,117.7c0,0,0.7,4.3-3.2,5.2c-2.8,0.6-5.6,1.1-8.5,1.4v-3.5c0,0,7-3.3,7.8-3.4
					c1.4,0.1,2.7,0.3,4.1,0.7L128.6,117.7z"/>
				<path class="st107" d="M98.1,118.1c0,0,0.2,4.1,4.1,5c2.6,0.6,5.2,1,7.8,1.2v-3.5c0,0-7-3.3-7.8-3.4
					C100.8,117.5,99.4,117.7,98.1,118.1L98.1,118.1z"/>
				<g>
					<g>
						<g>
							<path class="st107" d="M113.9,99.3c0.8-0.3,1.5-0.9,2-1.6c-0.2-1.1-0.2-2.3-0.1-3.4l-4.3-0.7c0,0-0.2,2.9-0.4,4.1
								C111.6,98.8,112.7,99.4,113.9,99.3z"/>
							<g>
								<path class="st107" d="M119,89.5c-0.1-0.7-0.8-0.6-1-0.5c-0.3-2.8-1.9-4.9-4.1-5s-4,1.8-4.5,4.7c-0.2-0.1-0.9-0.2-1.1,0.4
									c-0.3,0.9,0.1,1.9,1,2.3l0,0c0,0.5,0.2,1,0.3,1.4c0.9,2.1,2.6,3.7,3.8,3.7s2.9-1.4,3.9-3.5c0.2-0.4,0.4-0.9,0.5-1.4l0,0
									C118.7,91.3,119.2,90.4,119,89.5z"/>
								<path class="st104" d="M108.4,88.7c-0.1-1.7,0.5-3.5,1.7-4.8c2-2.2,5.6-1.9,6.7-0.7c2.4,2.6,2.3,4.5,1.6,5.7
									c-0.5,2-1.2,5.3-4.8,5.3C111.3,94.2,109.2,91,108.4,88.7z"/>
							</g>
						</g>
						<path class="st36" d="M127.9,113.7c-1.2-6-2.6-12-4.3-13.1s-7.8-3.1-7.8-3.1h-4.6c0,0-6,2-7.8,3.1s-3.1,7-4.3,13.1
							c-0.3,1.3-0.6,2.9-0.9,4.4c2.3,3.7,5.2,1.2,5.2,1.2l2.3-10.2l1.5,10.2h12.8l1.5-10.2l1.4,9.3c0,0,3.7,3.7,5.7,0.7
							C128.9,117.1,128.2,115.1,127.9,113.7z"/>
						<g>
							<path class="st36" d="M105.6,174.3c0,0-5.1,2.5-6.5,3.4s-0.9,1.8-0.9,1.8h10.2c0.1-1.6,0-3.2-0.2-4.9
								C108.1,173.7,105.6,174.3,105.6,174.3z"/>
							<path class="st106" d="M104.7,144.5c0,0-0.2,9.3-0.6,13.1c-0.6,6.1-1.5,17.6-1.5,17.6h6.5c0,0,1.3-14.6,2-20.4
								c0.5-4.1,1.5-10.3,1.5-10.3L104.7,144.5z"/>
							<rect x="98.2" y="179" class="st106" width="10.3" height="0.8"/>
						</g>
						<g>
							<path class="st36" d="M121.8,174.3c0,0,5.1,2.5,6.5,3.4c1.4,0.9,0.9,1.8,0.9,1.8h-10.2c-0.1-1.6,0-3.2,0.2-4.9
								C119.4,173.7,121.8,174.3,121.8,174.3z"/>
							<path class="st106" d="M122.7,144.5c0,0,0.2,9.3,0.6,13.1c0.6,6.1,1.5,17.6,1.5,17.6h-6.5c0,0-1.3-14.6-2-20.4
								c-0.5-4.1-1.5-10.3-1.5-10.3L122.7,144.5z"/>
							<rect x="118.9" y="179" class="st106" width="10.3" height="0.8"/>
						</g>
						<path class="st108" d="M123.7,134.9c-0.5-5.3-1.7-10.6-3.7-15.6h-12.9c-2,5-3.3,10.2-3.7,15.6c-0.4,7.7-1.2,16-1.2,16h22.7
							C124.9,150.9,124.2,142.7,123.7,134.9z"/>
						<rect x="108.4" y="80.9" class="st36" width="10.4" height="6.9"/>
						<rect x="106.9" y="118.4" class="st109" width="13.2" height="1.3"/>
					</g>
					<path class="st110" d="M113.2,95.4c-2.2,0-4.5,3-4.5,3l9.3-0.1C118,98.3,115.5,95.4,113.2,95.4z"/>
				</g>
			</g>
		</g>
		<g>
			<path class="st111" d="M59.5,108.8c-0.7-0.3-1.4-0.5-2.2-0.6c-0.8,0-1.1,0.9,0,1.4c0.9,0.4,1.8,0.7,2.7,0.9L59.5,108.8z"/>
			<path class="st111" d="M73.4,108.8c0.7-0.3,1.4-0.5,2.2-0.6c0.8,0,1.1,0.9,0,1.4c-0.9,0.4-1.8,0.7-2.7,0.9L73.4,108.8z"/>
			<rect x="59" y="107" class="st110" width="14.7" height="16.9"/>
			<path class="st111" d="M74.2,107.3H58.7c-0.2,0-0.4-0.2-0.4-0.4l0,0c0-0.2,0.2-0.4,0.4-0.4h15.5c0.2,0,0.4,0.2,0.4,0.4l0,0
				C74.6,107.1,74.4,107.3,74.2,107.3z"/>
		</g>
		<rect x="58.9" y="157.3" class="st106" width="33.6" height="20"/>
		<rect x="58.9" y="135.2" class="st106" width="33.6" height="20"/>
		<g>
			<g>
				<path class="st36" d="M91.3,130.6c0,0.9-0.7,1.6-1.6,1.6s-1.6-0.7-1.6-1.6s0.7-1.6,1.6-1.6c0,0,0,0,0,0
					C90.6,129,91.3,129.7,91.3,130.6C91.3,130.6,91.3,130.6,91.3,130.6z"/>
				<path class="st106" d="M90.4,130.6c0,0.4-0.3,0.7-0.7,0.7c-0.4,0-0.7-0.3-0.7-0.7s0.3-0.7,0.7-0.7
					C90.1,129.9,90.4,130.2,90.4,130.6z"/>
			</g>
			<g>
				<path class="st36" d="M84.4,130.6c0,0.9-0.7,1.6-1.6,1.6s-1.6-0.7-1.6-1.6c0-0.9,0.7-1.6,1.6-1.6
					C83.6,129,84.4,129.7,84.4,130.6C84.4,130.6,84.4,130.6,84.4,130.6z"/>
				<path class="st106" d="M83.5,130.6c0,0.4-0.3,0.7-0.7,0.7c-0.4,0-0.7-0.3-0.7-0.7c0-0.4,0.3-0.7,0.7-0.7h0
					C83.1,129.9,83.5,130.2,83.5,130.6z"/>
			</g>
			<g>
				<path class="st36" d="M76.9,130.6c0,0.9-0.7,1.6-1.6,1.6s-1.6-0.7-1.6-1.6c0-0.9,0.7-1.6,1.6-1.6
					C76.2,129,76.9,129.7,76.9,130.6C76.9,130.6,76.9,130.6,76.9,130.6z"/>
				<path class="st106" d="M76,130.6c0,0.4-0.3,0.7-0.7,0.7c-0.4,0-0.7-0.3-0.7-0.7c0-0.4,0.3-0.7,0.7-0.7h0
					C75.7,129.9,76,130.2,76,130.6z"/>
			</g>
			<g>
				<path class="st36" d="M70,130.6c0,0.9-0.7,1.6-1.6,1.6s-1.6-0.7-1.6-1.6c0-0.9,0.7-1.6,1.6-1.6C69.2,129,70,129.7,70,130.6
					C70,130.6,70,130.6,70,130.6z"/>
				<path class="st106" d="M69,130.6c0,0.4-0.2,0.7-0.6,0.8s-0.7-0.2-0.8-0.6c0-0.1,0-0.1,0-0.2c0-0.4,0.2-0.7,0.6-0.8
					s0.7,0.2,0.8,0.6C69,130.5,69,130.6,69,130.6z"/>
			</g>
			<g>
				<path class="st36" d="M63.3,130.6c0,0.9-0.7,1.6-1.6,1.6s-1.6-0.7-1.6-1.6c0-0.9,0.7-1.6,1.6-1.6
					C62.6,129,63.3,129.7,63.3,130.6C63.3,130.6,63.3,130.6,63.3,130.6z"/>
				<path class="st106" d="M62.4,130.6c0,0.4-0.2,0.7-0.6,0.8s-0.7-0.2-0.8-0.6c0-0.1,0-0.1,0-0.2c0-0.4,0.2-0.7,0.6-0.8
					s0.7,0.2,0.8,0.6C62.4,130.5,62.4,130.6,62.4,130.6z"/>
			</g>
		</g>
		<path class="st112" d="M80.2,160.5h-8.9c-0.4,0-0.6-0.3-0.7-0.6l0,0c0-0.4,0.3-0.6,0.7-0.6h8.9c0.4,0,0.7,0.3,0.7,0.6l0,0
			C80.8,160.2,80.5,160.5,80.2,160.5z"/>
		<g>
			<circle class="st112" cx="68" cy="147.2" r="7.8"/>
			<circle class="st113" cx="68" cy="147.2" r="3.8"/>
		</g>
		<g>
			<circle class="st112" cx="76.8" cy="148.1" r="6.9"/>
			<path class="st113" d="M80.1,148.1c0,1.8-1.5,3.3-3.3,3.3c-1.8,0-3.3-1.5-3.3-3.3c0-1.8,1.5-3.3,3.3-3.3c0,0,0,0,0,0
				C78.6,144.8,80.1,146.3,80.1,148.1z"/>
		</g>
		<g>
			<path class="st112" d="M91.4,149c0,3.3-2.7,6-6,6s-6-2.7-6-6s2.7-6,6-6S91.4,145.7,91.4,149z"/>
			<path class="st113" d="M88.3,149c0,1.6-1.3,2.9-2.9,2.9s-2.9-1.3-2.9-2.9c0-1.6,1.3-2.9,2.9-2.9c0,0,0,0,0,0
				C87,146.1,88.3,147.4,88.3,149z"/>
		</g>
		<g>
			<path class="st111" d="M70.1,113.3c-0.7-0.3-1.4-0.5-2.2-0.6c-0.8,0-1.1,0.9,0,1.3c0.9,0.4,1.8,0.7,2.7,0.9L70.1,113.3z"/>
			<path class="st111" d="M86.2,113.3c0.7-0.3,1.4-0.5,2.2-0.6c0.8,0,1.1,0.9,0,1.3c-0.9,0.4-1.8,0.7-2.7,0.9L86.2,113.3z"/>
			<rect x="69.8" y="111.9" class="st36" width="16.7" height="11.9"/>
			<path class="st111" d="M86.9,112.4H69.4c-0.2,0-0.4-0.2-0.4-0.4l0,0c0-0.2,0.2-0.4,0.4-0.4h17.5c0.2,0,0.4,0.2,0.4,0.4l0,0
				C87.3,112.2,87.2,112.4,86.9,112.4z"/>
		</g>
		<g>
			<g>
				<rect x="85.5" y="144.9" class="st36" width="0.5" height="10.1"/>
				<rect x="82.5" y="144.9" class="st36" width="0.5" height="10.1"/>
				<rect x="79.5" y="144.9" class="st36" width="0.5" height="10.1"/>
				<rect x="76.6" y="144.9" class="st36" width="0.5" height="10.1"/>
				<rect x="73.6" y="144.9" class="st36" width="0.5" height="10.1"/>
				<rect x="70.6" y="144.9" class="st36" width="0.5" height="10.1"/>
				<rect x="67.7" y="144.9" class="st36" width="0.5" height="10.1"/>
				<rect x="64.7" y="144.9" class="st36" width="0.5" height="10.1"/>
			</g>
			<path class="st36" d="M89.4,155.1H61.3v-7.5c0-1.7,1.3-3,3-3h22.1c1.7,0,3,1.3,3,3L89.4,155.1z M61.7,154.7h27.2v-7
				c0-1.4-1.1-2.6-2.6-2.6H64.3c-1.4,0-2.6,1.1-2.6,2.6L61.7,154.7z"/>
		</g>
		<g>
			<rect x="58.6" y="97.1" class="st106" width="41" height="1.5"/>
			<g>
				<path class="st114" d="M82.7,76.5h-0.8c-0.1,0-0.2,0.1-0.2,0.2v1.7c0,0.1,0.1,0.2,0.2,0.2c0,0,0,0,0,0h0.8
					c0.1,0,0.2-0.1,0.2-0.2c0,0,0,0,0,0v-1.7C82.9,76.6,82.8,76.5,82.7,76.5z"/>
				<path class="st115" d="M83,82.7v-4.9h-1.4v4.9c-1,0.3-1.8,1.2-1.8,2.3c0,0,0,0.1,0,0.1v11.7c0,0.1,0,0.2,0.1,0.2c0,0,0,0,0.1,0
					h4.6c0.1,0,0.2-0.1,0.2-0.2l0,0V94h-2.5v-7.3h2.5v-1.5c0,0,0-0.1,0-0.1C84.7,84,84,83,83,82.7z"/>
				<polygon class="st108" points="82.3,86.7 79.8,86.7 79.8,94 82.3,94 84.7,94 84.7,86.7 				"/>
				<path class="st115" d="M83.1,77.7L83.1,77.7c0-0.1-0.1-0.2-0.2-0.2h-1.2c-0.1,0-0.2,0.1-0.2,0.2l0,0c0,0-0.1,0.1-0.1,0.1
					c0,0,0,0.1,0.1,0.1l0,0c0,0.1,0.1,0.2,0.2,0.2h1.2c0.1,0,0.2-0.1,0.2-0.2l0,0C83.1,77.9,83.2,77.8,83.1,77.7
					C83.2,77.8,83.1,77.7,83.1,77.7z"/>
				<path class="st36" d="M84.1,90.1c0-1.4-0.8-2.6-1.8-2.7l0,0h-0.1l0,0c-1,0.1-1.8,1.3-1.8,2.7s0.8,2.6,1.8,2.7l0,0h0.1l0,0
					C83.3,92.7,84.1,91.5,84.1,90.1z"/>
			</g>
			<g>
				<path class="st114" d="M76.1,76.5h-0.8c-0.1,0-0.2,0.1-0.2,0.2v1.7c0,0.1,0.1,0.2,0.2,0.2c0,0,0,0,0,0h0.8
					c0.1,0,0.2-0.1,0.2-0.2c0,0,0,0,0,0v-1.7C76.2,76.6,76.2,76.5,76.1,76.5z"/>
				<path class="st108" d="M76.3,82.7v-4.9H75v4.9c-1.1,0.3-1.8,1.2-1.8,2.3c0,0,0,0.1,0,0.1v11.7c0,0.1,0.1,0.2,0.2,0.2l0,0h4.6
					c0.1,0,0.2-0.1,0.2-0.2l0,0V94h-2.4v-7.3h2.5v-1.5c0,0,0-0.1,0-0.1C78.1,83.9,77.4,83,76.3,82.7z"/>
				<polygon class="st114" points="75.6,86.7 73.2,86.7 73.2,94 75.6,94 78.1,94 78.1,86.7 				"/>
				<path class="st108" d="M76.5,77.7L76.5,77.7c0-0.1-0.1-0.2-0.2-0.2h-1.2c-0.1,0-0.2,0.1-0.2,0.2l0,0c0,0-0.1,0.1-0.1,0.1
					c0,0,0,0.1,0.1,0.1l0,0c0,0.1,0.1,0.2,0.2,0.2h1.2c0.1,0,0.2-0.1,0.2-0.2l0,0C76.5,77.9,76.5,77.8,76.5,77.7
					C76.5,77.8,76.5,77.7,76.5,77.7z"/>
				<path class="st36" d="M77.4,90.1c0-1.4-0.8-2.6-1.8-2.7l0,0h-0.1l0,0c-1,0.1-1.8,1.3-1.8,2.7s0.8,2.6,1.8,2.7l0,0h0.1l0,0
					C76.6,92.7,77.4,91.5,77.4,90.1z"/>
			</g>
			<g>
				<g>
					<path class="st36" d="M93.3,94.1H87v2.6c0,0.2,0.2,0.4,0.4,0.4h0h6.3c0.2,0,0.4-0.2,0.4-0.4v-2.6H93.3z"/>
					<path class="st114" d="M93.3,89.2H87v4.9h7.2v-4.9H93.3z M93.6,93.6h-6.2v-3.9h6.2L93.6,93.6z"/>
					<path class="st115" d="M93.3,89.7h-5.9v3.8h6.2v-3.8H93.3z M90.5,92.9c-1.1,0-2.1-0.6-2.1-1.3s0.9-1.3,2.1-1.3s2.1,0.6,2.1,1.3
						S91.7,92.9,90.5,92.9z"/>
					<ellipse class="st36" cx="90.5" cy="91.6" rx="2.1" ry="1.3"/>
				</g>
				<path class="st36" d="M93.7,87.3c-0.7-0.2-1.9-0.5-2-1s0-2.1,0-2.1h-2.4c0,0,0,1.5,0,2.1s-1.2,0.8-1.9,1
					c-0.2,0.1-0.4,0.2-0.4,0.4v1.5h7.2v-1.5C94.1,87.5,93.9,87.4,93.7,87.3z"/>
				<path class="st115" d="M91.9,83.9h-2.8c-0.1,0-0.2,0.1-0.2,0.2V85c0,0.1,0.1,0.2,0.2,0.2h2.8c0.1,0,0.2-0.1,0.2-0.2v-0.9
					C92.1,84,92.1,83.9,91.9,83.9C92,83.9,91.9,83.9,91.9,83.9z"/>
			</g>
			<g>
				<g>
					<path class="st110" d="M70.2,94.1h-6.4v2.6c0,0.2,0.2,0.4,0.4,0.4h0h6.3c0.2,0,0.4-0.2,0.4-0.4v-2.6H70.2z"/>
					<path class="st116" d="M70.2,89.2h-6.4v4.9H71v-4.9H70.2z M70.5,93.6h-6.2v-3.9h6.2L70.5,93.6z"/>
					<path class="st117" d="M70.2,89.7h-5.9v3.8h6.2v-3.8H70.2z M67.4,92.9c-1.1,0-2.1-0.6-2.1-1.3s0.9-1.3,2.1-1.3s2.1,0.6,2.1,1.3
						S68.5,92.9,67.4,92.9z"/>
					<ellipse class="st36" cx="67.4" cy="91.6" rx="2.1" ry="1.3"/>
				</g>
				<path class="st110" d="M70.6,87.3c-0.7-0.2-1.9-0.5-2-1s0-2.1,0-2.1h-2.4c0,0,0,1.5,0,2.1s-1.2,0.8-2,1
					c-0.2,0.1-0.4,0.2-0.4,0.4v1.5H71v-1.5C71,87.5,70.8,87.4,70.6,87.3z"/>
				<path class="st116" d="M68.8,83.9H66c-0.1,0-0.2,0.1-0.2,0.2V85c0,0.1,0.1,0.2,0.2,0.2h2.8c0.1,0,0.2,0,0.2-0.1c0,0,0,0,0,0
					v-0.9c0-0.1,0-0.2-0.1-0.2C68.9,83.9,68.8,83.9,68.8,83.9z"/>
			</g>
		</g>
		<rect x="108.4" y="87.4" class="st110" width="10.4" height="0.9"/>
		<g>
			
				<rect x="156.9" y="127" transform="matrix(0.1104 -0.9939 0.9939 0.1104 14.6223 279.631)" class="st36" width="13.3" height="9.4"/>
			
				<rect x="164.2" y="123.5" transform="matrix(0.1075 -0.9942 0.9942 0.1075 23.3139 275.8309)" class="st115" width="2.1" height="2.8"/>
		</g>
		<g>
			
				<rect x="143.1" y="99.7" transform="matrix(0.9534 -0.3017 0.3017 0.9534 -24.0371 49.3732)" class="st36" width="9.4" height="5.6"/>
			
				<rect x="145.5" y="98.5" transform="matrix(0.9534 -0.3017 0.3017 0.9534 -23.2035 48.9637)" class="st108" width="2.8" height="2.1"/>
		</g>
	</g>
	<g>
		<g>
			<path class="st117" d="M165.5,108.2c3.6,0.5,4.4-3.3,6.5-5.2c0.1-0.1,0.9-1,0.2-1.3c-0.3,0.1-0.6,0.2-0.9,0.3l0,0
				c-0.5,0.3-0.9,0.7-1.2,1.2c-0.1,0-0.3,0.1-0.4,0.2c-0.7,0.8-1.3,1.7-1.9,2.5c-0.7,0.7-1.5,1.3-2.4,1.6c-0.2,0.1-0.3,0.3-0.2,0.6
				C165.3,108.1,165.4,108.2,165.5,108.2z"/>
			<path class="st116" d="M167.6,106.5c0.5-0.7,2.2-2.7,2.2-2.7c0.3-0.2,0.6-0.3,0.9-0.2c0.1,0,0.2-0.1,0.2-0.2c0-0.1,0-0.1-0.1-0.2
				c-0.1-0.1-0.3-0.2-0.4-0.3c0.7-0.4,1.4-0.8,2-1.3c0.4-0.3,0.6-0.9,0.4-1.4c-0.3-0.5-0.9-0.4-1.4-0.3c0.3-1,0-2.4-1.2-2.5
				s-2.6,1.2-3.1,1.9c-0.1,0.2-1.3,2.9-1.6,3.5c-0.5,1.2-2,3.8-1.1,5.1C165.5,109.1,167.1,107.3,167.6,106.5z"/>
			<path class="st117" d="M166.3,106.4c0.6-0.6,1-1.3,1.4-2.1c0.4-0.6,0.9-1.2,1.5-1.7c0.5-0.4,1-0.7,1.6-0.9c0,0,0-0.1,0-0.1
				c-0.4,0-0.7,0.1-1,0.3c0.4-0.5,0.5-1.1,0.5-1.7c0-0.2-0.1-0.3-0.2-0.1c-0.1,0.7-0.4,1.4-0.8,2c0.1-0.4,0.1-0.9,0.1-1.4
				c0-0.1,0.1-0.5-0.1-0.3s-0.1,1-0.2,1.4c-0.1,0.6-0.4,1.1-0.9,1.6c-0.5,0.5-0.9,1.1-1.3,1.8c0,0,0.2-0.9,0.2-1.4
				c0.3-1.7,0.5-3.7,2.1-4.4c0.2-0.1,0.1-0.2,0-0.1c-1.1,0.3-1.5,1.3-1.8,2.4c-0.2,0.9-0.4,1.8-0.5,2.8c-0.2-1.2-0.1-2.4,0.4-3.5
				c0,0,0-0.1-0.1,0c-0.4,0.6-0.6,1.3-0.6,2c0,0.5,0,1.1,0,1.5c0,0.7-0.2,1.3-0.4,1.9C166,106.5,166.1,106.6,166.3,106.4z"/>
		</g>
		<g>
			<path class="st117" d="M167.5,105.9c0.1-3.6-3.8-4-5.9-5.9c-0.1-0.1-1.1-0.7-1.3,0c0.1,0.3,0.2,0.6,0.4,0.9l0,0
				c0.4,0.4,0.8,0.7,1.3,1c0,0.1,0.1,0.3,0.2,0.3c0.9,0.6,1.8,1.1,2.7,1.6c0.8,0.6,1.4,1.4,1.9,2.2
				C166.9,106.4,167.5,106.4,167.5,105.9z"/>
			<path class="st116" d="M165.6,104c-0.7-0.4-2.9-1.8-3-1.9c-0.3-0.2-0.4-0.6-0.3-0.9c0-0.1-0.1-0.2-0.2-0.2c-0.1,0-0.1,0-0.2,0.1
				c-0.1,0.1-0.2,0.3-0.2,0.4c-0.5-0.7-1-1.3-1.5-1.9c-0.4-0.4-1-0.5-1.5-0.3c-0.5,0.3-0.3,0.9-0.1,1.4c-1-0.2-2.4,0.2-2.4,1.4
				s1.5,2.4,2.2,2.9c0.2,0.1,3.1,1,3.7,1.2c1.2,0.4,4,1.6,5.2,0.5C168.4,105.8,166.4,104.5,165.6,104z"/>
			<path class="st117" d="M165.6,105.3c-0.7-0.5-1.4-0.9-2.2-1.2c-0.7-0.4-1.3-0.8-1.9-1.3c-0.4-0.4-0.8-0.9-1.1-1.5 M160.4,101.4
				c0.1,0.4,0.2,0.7,0.4,1c-0.5-0.3-1.1-0.4-1.7-0.3c-0.2,0.1-0.3,0.2-0.1,0.2c0.7,0,1.4,0.2,2.1,0.6c-0.5,0-0.9,0-1.4,0.1
				c-0.1,0-0.5,0-0.3,0.1s1,0,1.4,0c0.6,0.1,1.2,0.3,1.6,0.7c0.6,0.4,1.2,0.8,1.9,1.1c0,0-0.9-0.1-1.4-0.1c-1.7-0.1-3.7-0.1-4.6-1.6
				c-0.1-0.2-0.2-0.1-0.1,0c0.4,1.1,1.5,1.3,2.6,1.6c0.9,0.1,1.9,0.2,2.8,0.2c-1.2,0.3-2.4,0.3-3.6,0 M160,105
				c0.6,0.3,1.3,0.4,2,0.3c0.5,0,1.1-0.1,1.5-0.2c0.7-0.1,1.4,0,2,0.2c0.2,0.2,0.2,0.1,0.1-0.1L160,105z"/>
		</g>
		<g>
			<g>
				<path class="st116" d="M178,100.6c-0.4-1-1.1-0.4-1.5,0c0-0.2-0.3-0.2-0.4-0.1c-0.5,0.3-0.9,0.7-1.2,1.2
					c-0.1-0.1-0.3-0.1-0.4-0.1c-0.2,0-0.4,0.2-0.5,0.3s-0.5,0.6-0.6,0.8c-0.5,0.5-1.2,0.9-1.8,1.3c0,0-0.1,0-0.1,0.1
					c0,0,0,0.1,0.1,0.1c0.1,0,0,0.1,0,0.1s0,0.7,0.3,0.6c1.7-0.7,3.1-1.4,5-0.9c0.2,0.1,0.3-0.2,0.2-0.3c-0.1-0.2-0.2-0.4-0.3-0.6
					c0.4,0.1,0.7,0.2,1.1,0.2c0.1,0,0.4-0.3,0-0.7c0.6,0.2,1.3,0.2,1.8-0.2c0.2-0.2,0.3-0.5,0.2-0.8c0.4-0.2,0.7-0.5,0.4-1
					C179.9,99.8,178.8,100.3,178,100.6z"/>
				<path class="st114" d="M169.6,103.2c0.8-0.7,2-0.6,2.7,0.2c0.7,0.8,0.6,2-0.2,2.7c-0.1,0.1-0.2,0.2-0.4,0.2
					c-0.9,0.6-8.3,4.5-8.8,3.7S168.7,103.8,169.6,103.2z"/>
			</g>
			<path class="st118" d="M172,105.6c0.1-0.3,0-0.6-0.2-0.8c-0.1-0.1-0.3,0-0.2,0.2c0.1,0.2,0.2,0.4,0.3,0.6
				C171.9,105.7,172,105.7,172,105.6z"/>
			<path class="st118" d="M170.1,105.1c-0.1-0.3-0.4-0.5-0.6-0.5c-0.1,0-0.2,0.2-0.1,0.3c0.2,0.1,0.4,0.2,0.6,0.4
				C170,105.3,170.2,105.2,170.1,105.1z"/>
			<path class="st118" d="M170.4,104.2c-0.1-0.3-0.4-0.5-0.6-0.5c-0.1,0-0.2,0.2-0.1,0.3c0.2,0.1,0.4,0.2,0.6,0.4
				C170.3,104.3,170.5,104.3,170.4,104.2z"/>
			<path class="st118" d="M166.2,107.9c-0.1-0.3-0.4-0.5-0.6-0.5c-0.1,0-0.2,0.2-0.1,0.3c0.2,0.1,0.4,0.2,0.6,0.4
				C166.1,108.1,166.2,108,166.2,107.9z"/>
			<path class="st118" d="M171.7,103.5c-0.1-0.1-0.2-0.2-0.4-0.3c-0.1,0-0.2,0.1-0.1,0.2C171.7,103.8,172,103.8,171.7,103.5z"/>
			<path class="st118" d="M168.1,105.3c0.1,0.1,0.3,0.2,0.4,0.2c0.1,0,0.2-0.2,0.1-0.2C168.1,105,167.8,105,168.1,105.3z"/>
			<path class="st118" d="M169.8,106c0,0.2,0.1,0.3,0.2,0.4c0.1,0.1,0.2,0,0.2-0.1C170,105.7,169.7,105.5,169.8,106z"/>
			<path class="st118" d="M164.8,108.8c0,0.2,0.1,0.3,0.2,0.4c0.1,0.1,0.2,0,0.2-0.1C165,108.6,164.7,108.4,164.8,108.8z"/>
			<path class="st118" d="M171.3,105.9c-0.1-0.3-0.2-0.5-0.3-0.7c-0.1-0.1-0.2,0-0.2,0.1c0,0.3,0.2,0.5,0.3,0.7c0,0,0.1,0.1,0.1,0
				C171.3,106,171.4,106,171.3,105.9z"/>
		</g>
		<g>
			<path class="st107" d="M177.8,89.7c0.2-0.9,0.8-1.7,1.6-2.2c1.1-0.7,5.2-1.5,7.2,0.2s1.2,4.8,0.9,5.9c-0.5,1.4-1,2.9-1.3,4.4
				c0.1,1,0.4,2,0.8,2.9l0,0c-1,0.9-2.2,1.4-3.5,1.5c-0.6,0.1-1.2,0-1.8-0.1c0.1-0.1,0.1-0.2,0.2-0.3c0.2-0.9,0.1-1.8-0.3-2.7
				c-0.5-0.5-1.3-0.7-1.9-0.4c-1,0.2-0.8-1.1-1.4-1.3c-0.4-0.1-0.1-0.4-0.1-0.6c-0.1-0.1-0.4-0.2-0.5-0.3c-0.2-0.3,0.2-0.4,0.1-0.6
				c-0.1-0.4-1.3-0.4-1.2-0.9c0.2-0.8,1.5-2.2,1.3-2.7C177.5,91.5,177.5,90.6,177.8,89.7z"/>
			<path class="st119" d="M177.9,89.4c0,0,1.4-0.5,3.3,0.9c1.2,0.9,1.2,2,2.8,2.4c1.4,0.4,1.1,1.4,1.1,1.4l1.2,3.3
				c1.5-1.5,2.3-3.6,2.3-5.7c0.2-3.8-1-4.2-1-4.2s-2-1.6-6.1-1.3c-1.3,0.1-2.5,0.4-3.6,0.9C178,87.9,178,88.6,177.9,89.4z"/>
			<path class="st107" d="M183.6,92.8c0,0,0.1-1.2,1.2-1.1s1.3,1.8,0,2.8S183.6,92.8,183.6,92.8z"/>
		</g>
		<path class="st119" d="M179.1,173.9c0,0-5.9,2.8-7.5,3.9s-1,2-1,2h11.8c0,0,0.2-4.6-0.2-5.6S179.1,173.9,179.1,173.9z"/>
		<rect x="177.6" y="81.4" class="st36" width="10.9" height="9.2"/>
		<rect x="177.6" y="88.1" class="st115" width="10.9" height="1.3"/>
		<path class="st36" d="M181.6,102.2c-1.6,1.3-2.9,3-3.8,4.9c-1.3,3.3-1,7.5-1.1,8.5c-0.3,1.7,0,11.9,0,11.9l12.7-0.4
			c0-4.6,0.3-9.1,0.8-13.7c0.8-6.8-3.2-12.6-3.2-12.6L181.6,102.2z"/>
		<path class="st115" d="M188.7,123.8c0.8,0.3,4.4,0.9,7.1,3.2s1.9,5.1-1.1,4.8s-6.7-5.7-6.7-5.7v-1.3c0,0,3.1,4.2,5.3,5.1
			s3.6,0.1,2.1-1.5s-6.7-3.6-6.7-3.6L188.7,123.8z"/>
		<path class="st115" d="M188.3,124c0.7-0.4,3.4-3,6.9-3.7s5.2,1.5,3.2,3.7s-8.6,1.9-8.6,1.9l-1-0.8c0,0,5.2,0.1,7.2-1.2
			s2.3-2.8,0.1-2.6s-6.9,3.3-6.9,3.3L188.3,124z"/>
		<path class="st119" d="M187.4,173.9c0,0-5.9,2.8-7.5,3.9s-1,2-1,2h11.8c0.1-1.9,0-3.7-0.2-5.6
			C190.3,173.2,187.4,173.9,187.4,173.9z"/>
		<rect x="178.8" y="179.2" class="st120" width="12" height="0.7"/>
		<g>
			<path class="st121" d="M158,106.9c-0.7-0.3-1.4-0.5-2.2-0.6c-0.8,0-1.1,0.9,0,1.3c0.9,0.4,1.8,0.7,2.7,0.9L158,106.9z"/>
			<path class="st121" d="M174.2,106.9c0.7-0.3,1.4-0.5,2.2-0.6c0.8,0,1.1,0.9,0,1.3c-0.9,0.4-1.8,0.7-2.7,0.9L174.2,106.9z"/>
			<path class="st115" d="M157.8,105.5h16.7l0,0v9.8c0,1.2-1,2.1-2.1,2.1l0,0h-12.5c-1.2,0-2.1-1-2.1-2.1l0,0V105.5L157.8,105.5z"/>
			<path class="st121" d="M174.9,106h-17.5c-0.2,0-0.4-0.2-0.4-0.4l0,0c0-0.2,0.2-0.4,0.4-0.4h17.5c0.2,0,0.4,0.2,0.4,0.4l0,0
				C175.3,105.8,175.1,106,174.9,106z"/>
		</g>
		<path class="st36" d="M187.4,101.5c-2.4-0.3-4.7,0.6-6.2,2.4c-0.5,0.6-2.9,8.1-4.6,8.8c-2.6,0.6-5.2,1.1-7.8,1.4l-1.1,5.6
			c0,0,5.3,1,7.3,1.3s6.4-1.6,9.6-4.1c1.8-1.5,5.4-7.9,5.2-9.7S187.4,101.5,187.4,101.5z"/>
		<path class="st110" d="M179.3,104.7c0,0,1.4-3.7,3.8-4.6c1.4-0.5,2.8-0.8,4.3-0.8v2.2c-1.1-0.2-2.3-0.2-3.4,0.1
			C182.3,102.4,180.7,103.4,179.3,104.7z"/>
		<path class="st107" d="M170.8,115.2c-1.8,0-3.6,0-5.4-0.2c-2.7-0.5-4.5-1-5.5-1.7c-2.1-1.4-3.9-2.2-4-1c-0.1,2.4,0.8,4,3.8,4.3
			c1.6,0.4,3.2,0.9,4.8,1.5c1.7,0.5,3.5,0.9,5.3,1.3C170.1,117.9,170.4,116.5,170.8,115.2z"/>
		<path class="st110" d="M168,113.9c-0.8,2.1-0.6,6.8-0.6,6.8c0.6,0,1.3,0.1,1.9,0.3c0.7,0.3,1.3,0.8,1.8,1.3
			c0.5-1.6,0.8-3.2,0.8-4.9c0-1.3,0-2.7-0.2-4c-0.7,0-1.3,0-1.9,0.2C169,113.7,168,113.9,168,113.9z"/>
		<path class="st110" d="M188.5,105.8c0,0-0.5,7.2-3.2,10.1s-8.8,5.1-8.8,5.1v1.2c0,0,6.5-1.4,10.1-6
			C188.9,113.2,189.6,109.4,188.5,105.8z"/>
		<rect x="176.5" y="122.7" class="st121" width="13.1" height="1.5"/>
		<path class="st104" d="M182.5,175c0-2.3-1.2-17.2-1.2-19.4c0-1.3,0.2-3.7,0.5-6.4l-7.5-0.9c-0.3,4.5-0.7,2.7,0,10
			c0.1,1.6,2,14.5,2.1,16.7L182.5,175z"/>
		<polygon class="st104" points="191.1,175 190.2,149.2 183.3,149.2 185.3,175 		"/>
		<path class="st115" d="M176.5,124.2c0,0-1.8,9-2.1,12c-0.8,8.8-1.6,16.7-1.6,16.7h20.8c0,0-0.9-15.4-1.6-19.9
			c-0.4-3.1-1.3-6.1-2.7-8.8L176.5,124.2z"/>
		<rect x="170.5" y="179.2" class="st120" width="12" height="0.7"/>
	</g>
</g>
<g>
	<path class="st122" d="M35.2,56.9c1.5-1,3.2-1.5,5-1.5c1.7,0,3.4,0.5,4.8,1.5l-4,3.4L35.2,56.9z"/>
	<path class="st110" d="M50.8,33.5c-4.1-5.8-14.5-7.1-20.2-3.1c-2.7,1.7-3.5,5.3-1.8,8c0,0.1,0.1,0.1,0.1,0.2
		c3.7,5.6,8.3,5.5,11.5,5.7c3.3,0.2,8.1,0,10.7-2.8C53.1,39.3,52.4,35.8,50.8,33.5z"/>
	<g>
		<path class="st119" d="M26.3,171.4c0,0-2.3,1.7-4.7,3.4c-1.4,1-2.3,2.7-2.3,4.4h15.2c0,0,0.5-6.3-1.2-7.8H26.3z"/>
		<rect x="19.3" y="178.2" class="st120" width="15.2" height="1"/>
	</g>
	<g>
		<path class="st119" d="M56.4,171.4c0,0,2.3,1.7,4.7,3.4c1.4,1,2.3,2.7,2.3,4.4H48.2c0,0-0.5-6.3,1.2-7.8H56.4z"/>
		<rect x="48.2" y="178.2" class="st120" width="15.2" height="1"/>
	</g>
	<path class="st107" d="M18.6,98.4c0,0-0.3,3.3,0.8,4.9c0.6,0.8,1.2,1.6,1.9,2.3c-0.9-0.1-1.9-0.1-2.8,0c-0.9,0.3-0.6,1.2,1.7,1.7
		s2.8,0.7,4.1-1.1s0.6-8.5,0.6-8.5l-1.9-2.1L18.6,98.4z"/>
	<path class="st107" d="M61.8,98.4c0,0,0.3,3.3-0.8,4.9c-0.6,0.8-1.2,1.6-1.9,2.3c0.9-0.1,1.9-0.1,2.8,0c0.9,0.3,0.6,1.2-1.7,1.7
		s-2.8,0.7-4.1-1.1s-0.7-8.5-0.7-8.5l1.9-2.1L61.8,98.4z"/>
	<g>
		<path class="st123" d="M36.5,55.1c0.1,1.4,0,2.8-0.2,4.2c-0.3,0.9,4.4,5,4.4,5s3.3-2.7,3.6-5c-0.1-1.8-0.4-4.2-0.4-4.2H36.5z"/>
		<g>
			<path class="st107" d="M33.4,46.1c0,0-0.9-0.5-1.5,0.7s0.5,3.2,1.6,3.2S33.4,46.1,33.4,46.1z"/>
			<path class="st107" d="M47.7,46c0,0,1-0.4,1.4,0.9s-1,3.1-2,3S47.7,46,47.7,46z"/>
			<path class="st107" d="M47.6,47.5c0,5.2-3.2,9.5-7.2,9.5s-7.2-4.3-7.2-9.5s3.2-9.5,7.2-9.5S47.6,42.2,47.6,47.5z"/>
		</g>
	</g>
	<polygon class="st104" points="32.8,46 33.6,46.6 35.2,44.3 32.8,44.3 	"/>
	<polygon class="st104" points="48,46 47.2,46.6 45.6,44.3 48,44.3 	"/>
	<polygon class="st104" points="24.5,113.3 23.1,173.3 35.9,173.3 40.1,116.2 48,173.3 60.3,173.3 55.6,113.3 49.2,105.3 
		32.8,105.3 	"/>
	<path class="st36" d="M57.8,63.9c-2.8-2.2-13.5-4.6-13.5-4.6s-3.8,3.9-4.2,4.5c-0.5-0.7-3.8-4.5-3.8-4.5s-10.4,2.3-13.1,4.4
		c-4,3-10.6,14-13.3,18.6c-0.7,1.5-0.8,3.2-0.4,4.8c1.6,3.7,7.7,14,7.7,14l6-4.5l-5.3-11.3l6.6-6.8l0.1,34.8h31l0.1-34.8l6.7,7.1
		l-5.9,10.6l6,5c0,0,5.9-9.2,7.8-12.6c1-2.2,0.9-4.7-0.1-6.8C67.4,76.9,61.5,66.8,57.8,63.9z"/>
	<rect x="31.7" y="63.8" class="st110" width="16.3" height="49.5"/>
	<rect x="30.3" y="64.8" class="st36" width="16.5" height="48.5"/>
	<path class="st122" d="M49.6,34.2c-0.8,0.2-1.5,0.5-2.2,0.9c-0.6,0.7-1.1,1.6-1.4,2.4c0.8-0.7,1.6-1.4,2.5-1.9
		C49,35.4,49.5,34.9,49.6,34.2z"/>
	<path class="st122" d="M30.3,33.1c0.5,1,1.2,1.9,2.2,2.5c0.9,0.4,1.7,1,2.5,1.6c-0.2-1-0.8-2-1.6-2.7C32.5,34,31.4,33.5,30.3,33.1z
		"/>
	<path class="st122" d="M45.5,31.4c0,1.1-0.4,2.2-1,3.2c-0.7,0.8-1.2,1.6-1.7,2.5c-0.2-1-0.1-2.1,0.4-3.1
		C43.8,33,44.6,32.1,45.5,31.4z"/>
	<path class="st122" d="M35,30.3c0.2,1.1,0.7,2.1,1.2,3c0.6,0.8,1.1,1.7,1.5,2.6c0-1.2-0.1-2.4-0.4-3.6C36.8,31.4,36,30.7,35,30.3z"
		/>
	<path class="st36" d="M48,45v-7.8c0,0-2.3-3-7.7-3s-7.5,3-7.5,3V45H48z"/>
	<path class="st110" d="M35,59.6l0.2-2.7c0,0,5.1,3.6,4.9,6.9C38.2,62.6,36.6,61.2,35,59.6z"/>
	<path class="st110" d="M45.2,59.6L45,56.9c0,0-5.1,3.6-4.9,6.9C41.9,62.6,43.6,61.2,45.2,59.6z"/>
	<g>
		<path class="st104" d="M35.8,67.1c0,0.5-0.4,0.9-0.8,0.9c-0.5,0-0.9-0.4-0.9-0.8c0-0.5,0.4-0.9,0.8-0.9c0,0,0,0,0,0
			C35.4,66.2,35.8,66.6,35.8,67.1z"/>
		<path class="st104" d="M45.6,67.1c0,0.5-0.4,0.9-0.8,0.9c-0.5,0-0.9-0.4-0.9-0.8c0-0.5,0.4-0.9,0.8-0.9c0,0,0,0,0,0
			C45.2,66.2,45.6,66.6,45.6,67.1z"/>
		<path class="st104" d="M35.8,80.2c0,0.5-0.4,0.8-0.8,0.8c-0.5,0-0.9-0.4-0.9-0.8c0-0.5,0.4-0.8,0.8-0.8h0
			C35.4,79.3,35.8,79.7,35.8,80.2z"/>
		<path class="st104" d="M45.6,80.2c0,0.5-0.4,0.8-0.8,0.8c-0.5,0-0.9-0.4-0.9-0.8c0-0.5,0.4-0.8,0.8-0.8h0
			C45.2,79.3,45.6,79.7,45.6,80.2z"/>
	</g>
	<g>
		<path class="st104" d="M35.8,92.2c0,0.5-0.4,0.8-0.8,0.8c-0.5,0-0.9-0.4-0.9-0.8c0-0.5,0.4-0.8,0.8-0.8h0
			C35.4,91.3,35.8,91.7,35.8,92.2z"/>
		<path class="st104" d="M45.6,92.2c0,0.5-0.4,0.8-0.8,0.8c-0.5,0-0.9-0.4-0.9-0.8c0-0.5,0.4-0.8,0.8-0.8h0
			C45.2,91.3,45.6,91.7,45.6,92.2z"/>
		<path class="st104" d="M35.8,105.3c0,0.5-0.4,0.8-0.8,0.8c-0.5,0-0.9-0.4-0.9-0.8c0-0.5,0.4-0.8,0.8-0.8h0
			C35.4,104.4,35.8,104.8,35.8,105.3z"/>
		<path class="st104" d="M45.6,105.3c0,0.5-0.4,0.8-0.8,0.8c-0.5,0-0.9-0.4-0.9-0.8c0-0.5,0.4-0.8,0.8-0.8h0
			C45.2,104.4,45.6,104.8,45.6,105.3z"/>
	</g>
	<path class="st110" d="M16,102.1l8.5-5l-2.8-8C21.8,89.1,13.1,94.7,16,102.1z"/>
	<path class="st110" d="M64.3,102.1l-8.5-5l2.8-8C58.5,89.1,67.2,94.7,64.3,102.1z"/>
</g>
</svg>
