<svg xmlns="http://www.w3.org/2000/svg" xmlns:xlink="http://www.w3.org/1999/xlink" viewBox="0 0 59.09 57.53">
  <defs>
    <style>
      .cls-1 {
        isolation: isolate;
      }

      .cls-2 {
        fill: #cd7223;
      }

      .cls-3 {
        fill: url(#linear-gradient);
      }

      .cls-4 {
        fill: url(#linear-gradient-2);
      }

      .cls-5 {
        fill: url(#linear-gradient-3);
      }

      .cls-6 {
        fill: #ffcfe8;
        mix-blend-mode: multiply;
      }

      .cls-7 {
        fill: url(#linear-gradient-4);
      }

      .cls-8 {
        fill: #ffecff;
      }

      .cls-9 {
        fill: #b0ebae;
      }

      .cls-10 {
        fill: #fed261;
      }

      .cls-11 {
        fill: #f0383e;
      }
    </style>
    <linearGradient id="linear-gradient" y1="28.76" x2="59.09" y2="28.76" gradientUnits="userSpaceOnUse">
      <stop offset="0" stop-color="#ff6d7a"/>
      <stop offset="1" stop-color="#d83d48"/>
    </linearGradient>
    <linearGradient id="linear-gradient-2" x1="1.12" y1="28.76" x2="57.97" y2="28.76" gradientUnits="userSpaceOnUse">
      <stop offset="0" stop-color="#ff91a1"/>
      <stop offset="1" stop-color="#ff617a"/>
    </linearGradient>
    <linearGradient id="linear-gradient-3" x1="3.3" y1="30.15" x2="55.8" y2="30.15" gradientUnits="userSpaceOnUse">
      <stop offset="0" stop-color="#ffbed0"/>
      <stop offset="0.23" stop-color="#ffafc2"/>
      <stop offset="0.66" stop-color="#ff899e"/>
      <stop offset="1" stop-color="#ff667e"/>
    </linearGradient>
    <linearGradient id="linear-gradient-4" x1="13.64" y1="30.27" x2="45.46" y2="30.27" xlink:href="#linear-gradient-2"/>
  </defs>
  <title>P4_2</title>
  <g class="cls-1">
    <g id="圖層_2" data-name="圖層 2">
      <g id="圖層_1-2" data-name="圖層 1">
        <g>
          <path class="cls-2" d="M29.55,3.69A26.55,26.55,0,1,0,55.8,30.23,26.39,26.39,0,0,0,29.55,3.69Zm0,35.15c-5.08,0-9.21-3.86-9.21-8.61s4.13-8.61,9.21-8.61,9.2,3.87,9.2,8.61S34.62,38.84,29.55,38.84Z"/>
          <path class="cls-3" d="M29.55,0C13.25,0,0,13.56,0,30.23c0,6,1.64,15.8,4.64,16.23C6,46.65,7.1,41,12,45.5s2.23-2,5.33-1.82,2.06,2.55,2.57,5.28,1.55,7.11,4,7,3.6-4.83,5.49-4.65,2.07,6.2,4.81,6.2S38.24,51,41.71,49s5.19.15,6.3,1.43c2.19,2.51,6.5-4,6.89-4.64a30.62,30.62,0,0,0,4.19-15.52C59.09,13.56,45.84,0,29.55,0Zm0,42.56C22,42.56,15.88,37,15.88,30.23a11.45,11.45,0,0,1,2.49-7.08h0s2.59,6.09,5.33,3.6,1-4.35,2.61-7.34c.44-.81.25-1.49,1.72-1.43.72,0,1.22,1.13,1.52,1.43.5.5.49,4.35,4,5.72s6.79-2.47,6.79-2.47h0a11.53,11.53,0,0,1,2.9,7.57C43.22,37,37.08,42.56,29.55,42.56Z"/>
          <path class="cls-4" d="M34.15,56.41c-.75,0-1.37-1.55-1.87-2.8-.64-1.6-1.3-3.25-2.83-3.39h-.21c-1.44,0-2.37,1.3-3.27,2.56-.69,1-1.47,2.06-2.17,2.09h0c-.52,0-1.77-.6-2.81-6.11a14.1,14.1,0,0,1-.17-1.91c-.07-1.73-.16-4.09-3.44-4.28H17.2c-2.07,0-2.53,1.85-2.78,2.85,0,.14-.08.32-.12.47a9,9,0,0,1-1.56-1.21,6.33,6.33,0,0,0-4.12-2A4.79,4.79,0,0,0,5,44.81c-.13.15-.29.34-.42.47-1.54-.81-3.46-8-3.46-15,0-16,12.75-29.11,28.43-29.11S58,14.18,58,30.23a29.56,29.56,0,0,1-4,14.93c-1.49,2.3-3.66,4.68-4.74,4.68h0c-.09,0-.19,0-.34-.19l-.07-.08C48,48.62,46.57,47,44.32,47a6.35,6.35,0,0,0-3.17,1c-1.91,1.12-3.18,3.28-4.3,5.19C36,54.69,35,56.41,34.15,56.41ZM18.37,22a1.14,1.14,0,0,0-.89.43,12.59,12.59,0,0,0-2.72,7.77c0,7.42,6.63,13.45,14.79,13.45s14.79-6,14.79-13.45a12.6,12.6,0,0,0-3.17-8.31,1.16,1.16,0,0,0-.85-.38h0a1.1,1.1,0,0,0-.85.39s-2.09,2.38-4.39,2.38a3.17,3.17,0,0,1-1.14-.22c-2.08-.82-2.61-2.76-3-4a3,3,0,0,0-.64-1.43l-.15-.22a2.88,2.88,0,0,0-2.11-1.54h-.23a2.19,2.19,0,0,0-2.35,1.62c-.06.14-.11.28-.17.4a8.66,8.66,0,0,0-1,3.78A4,4,0,0,1,23,25.92a.89.89,0,0,1-.62.31c-.93,0-2.3-2-2.94-3.52a1.11,1.11,0,0,0-.88-.67Z"/>
          <path class="cls-5" d="M55.8,30.23a26.25,26.25,0,1,0-52.5,0,26.71,26.71,0,0,0,3.92,14c1-.68,2.51-.78,4.77,1.3,5,4.55,2.23-2,5.33-1.82s2.06,2.55,2.57,5.28,1.55,7.11,4,7,3.6-4.83,5.49-4.65c1.43.14,1.88,3.58,3.18,5.27a24.91,24.91,0,0,0,4-.77c1.49-2.09,2.86-5.51,5.2-6.87,2.86-1.66,4.55-.45,5.68.74A26.62,26.62,0,0,0,55.8,30.23ZM29.55,42.56C22,42.56,15.88,37,15.88,30.23a11.45,11.45,0,0,1,2.49-7.08s2.59,6.09,5.33,3.6,1-4.35,2.61-7.34c.44-.81.25-1.49,1.72-1.43.72,0,1.22,1.13,1.52,1.43.5.5.49,4.35,4,5.72s6.79-2.47,6.79-2.47a11.53,11.53,0,0,1,2.9,7.57C43.22,37,37.08,42.56,29.55,42.56Z"/>
          <path class="cls-6" d="M29.34,51.33c1.89.18,2.07,6.2,4.81,6.2S38.24,51,41.71,49s5.19.15,6.3,1.43c2.19,2.51,6.5-4,6.89-4.64A30.94,30.94,0,0,0,58.47,24C53.12,33.17,36.66,53.37.9,39.06c.77,3.88,2,7.16,3.74,7.4C6,46.65,7.1,41,12,45.5s2.23-2,5.33-1.82,2.06,2.55,2.57,5.28,1.55,7.11,4,7S27.45,51.15,29.34,51.33Z"/>
          <path class="cls-7" d="M29.55,44.8c8.77,0,15.91-6.53,15.91-14.57a13.84,13.84,0,0,0-3.45-9l-1.7-2-1.69,2c-.45.51-2.08,2-3.54,2a2.06,2.06,0,0,1-.73-.14c-1.44-.57-1.89-1.83-2.29-3.3a4.31,4.31,0,0,0-.85-1.84l-.1-.14a3.94,3.94,0,0,0-3-2h-.28a3.27,3.27,0,0,0-3.4,2.35,2.22,2.22,0,0,1-.11.25,9.77,9.77,0,0,0-1.1,4.23,2.93,2.93,0,0,1-1,2.45,8.16,8.16,0,0,1-1.84-2.75l-1.49-3.49-2.34,3a13.61,13.61,0,0,0-3,8.45C13.64,38.27,20.77,44.8,29.55,44.8ZM18.37,23.15s2.59,6.09,5.33,3.6,1-4.35,2.61-7.34c.44-.81.25-1.49,1.72-1.43.72,0,1.22,1.13,1.52,1.43.5.5.49,4.35,4,5.72s6.79-2.47,6.79-2.47a11.53,11.53,0,0,1,2.9,7.57c0,6.8-6.14,12.33-13.67,12.33S15.88,37,15.88,30.23A11.45,11.45,0,0,1,18.37,23.15Z"/>
          <g>
            <path class="cls-6" d="M54.9,45.75a31,31,0,0,0,2.54-5.55,28.78,28.78,0,0,1-10.66,8.91A11.13,11.13,0,0,1,48,50.39C50.2,52.9,54.51,46.35,54.9,45.75Z"/>
            <path class="cls-6" d="M23.85,56c1.21,0,2.11-1.27,3-2.46-2,0-3.93,0-5.69-.1C21.74,54.9,22.61,56,23.85,56Z"/>
            <path class="cls-6" d="M34.15,57.53c1.86,0,3.07-3,4.73-5.54a53.42,53.42,0,0,1-7.94,1.31C31.7,55.11,32.41,57.53,34.15,57.53Z"/>
          </g>
          <path class="cls-8" d="M11.44,10.16c-3.59,2.07-6.73,7-7.3,12.1-.07.62,1,.7,1.32.17,1.8-3.15,5.14-7.77,6.82-11a.64.64,0,0,0,.06-.18A.72.72,0,0,0,11.44,10.16Z"/>
          <path class="cls-8" d="M4.91,29.79c0,1.61-.54,2.91-1.21,2.91s-1.21-1.3-1.21-2.91S3,26.87,3.7,26.87,4.91,28.18,4.91,29.79Z"/>
          <path class="cls-8" d="M19.49,14.32c-.93.84-2,1.2-2.31.82s.12-1.38,1-2.21,2-1.21,2.31-.82S20.41,13.48,19.49,14.32Z"/>
          <path class="cls-8" d="M26.12,49.24c-1.14.49-2.24.5-2.44,0s.55-1.27,1.7-1.76,2.24-.51,2.44,0S27.27,48.74,26.12,49.24Z"/>
          <path class="cls-8" d="M11.12,38.28c-1,.42-1.92.37-2.13-.1s.41-1.2,1.38-1.62,1.93-.37,2.13.1S12.09,37.86,11.12,38.28Z"/>
          <path class="cls-8" d="M33.92,8.81c-1-.25-1.76-.86-1.64-1.37s1.06-.71,2.08-.46,1.76.86,1.64,1.37S35,9.06,33.92,8.81Z"/>
          <path class="cls-9" d="M11.12,26.05c-1,.42-1.92.37-2.13-.1s.41-1.2,1.38-1.62,1.93-.37,2.13.1S12.09,25.64,11.12,26.05Z"/>
          <path class="cls-9" d="M26,9.82c-1,.24-2,0-2.08-.49S24.51,8.22,25.54,8s2,0,2.07.49S27,9.59,26,9.82Z"/>
          <path class="cls-9" d="M44.57,18.31c-1-.37-1.64-1.07-1.46-1.55s1.13-.58,2.12-.21,1.64,1.06,1.46,1.54S45.56,18.68,44.57,18.31Z"/>
          <path class="cls-9" d="M48.27,36.05c-1-.37-1.64-1.07-1.46-1.55s1.13-.58,2.12-.21,1.64,1.06,1.46,1.54S49.26,36.42,48.27,36.05Z"/>
          <path class="cls-10" d="M37.39,13.16c0,.67-1.13,1.21-2.52,1.21s-2.52-.54-2.52-1.21S33.47,12,34.87,12,37.39,12.49,37.39,13.16Z"/>
          <path class="cls-10" d="M52.94,26.87c0,.67-1.13,1.21-2.52,1.21s-2.52-.54-2.52-1.21,1.13-1.2,2.52-1.2S52.94,26.21,52.94,26.87Z"/>
          <path class="cls-10" d="M10.75,31.49c0,.67-.74,1.21-1.64,1.21s-1.64-.54-1.64-1.21.73-1.21,1.64-1.21S10.75,30.83,10.75,31.49Z"/>
          <path class="cls-10" d="M36.55,47.13c0,.67-.74,1.21-1.64,1.21s-1.64-.54-1.64-1.21.73-1.21,1.64-1.21S36.55,46.46,36.55,47.13Z"/>
          <path class="cls-10" d="M21.12,8.71c0,.66-.74,1.2-1.64,1.2s-1.64-.54-1.64-1.2.73-1.21,1.64-1.21S21.12,8,21.12,8.71Z"/>
          <path class="cls-11" d="M14.89,18.57c0,.54-.65,1-1.44,1s-1.45-.44-1.45-1,.65-1,1.45-1S14.89,18,14.89,18.57Z"/>
          <path class="cls-11" d="M44.09,12c0,.55-.64,1-1.44,1s-1.44-.44-1.44-1,.65-1,1.44-1S44.09,11.41,44.09,12Z"/>
          <path class="cls-11" d="M51.86,21.28c0,.54-.64,1-1.44,1s-1.44-.44-1.44-1,.64-1,1.44-1S51.86,20.73,51.86,21.28Z"/>
          <path class="cls-11" d="M44.52,43.2c0,.55-.64,1-1.44,1s-1.44-.44-1.44-1,.64-1,1.44-1S44.52,42.66,44.52,43.2Z"/>
          <path class="cls-11" d="M16.52,40.79c0,.54-.65,1-1.44,1s-1.44-.44-1.44-1,.64-1,1.44-1S16.52,40.24,16.52,40.79Z"/>
        </g>
      </g>
    </g>
  </g>
</svg>
