<?xml version="1.0" encoding="utf-8"?>
<!-- Generator: Adobe Illustrator 23.1.0, SVG Export Plug-In . SVG Version: 6.00 Build 0)  -->
<svg version="1.1" id="圖層_1" xmlns="http://www.w3.org/2000/svg" xmlns:xlink="http://www.w3.org/1999/xlink" x="0px" y="0px"
	 viewBox="0 0 225.9 225.9" style="enable-background:new 0 0 225.9 225.9;" xml:space="preserve">
<style type="text/css">
	.st0{fill:#E0BAAA;}
	.st1{opacity:0.71;}
	.st2{fill:#DBB58D;}
	.st3{enable-background:new    ;}
	.st4{fill:#633E37;}
	.st5{fill:#A86725;}
	.st6{fill:#E2A66A;}
	.st7{fill:#D48D46;}
	.st8{fill:#FF5842;}
	.st9{fill:#FF6D59;}
	.st10{fill:#FF8A7A;}
	.st11{fill:#FAD850;}
	.st12{fill:#FAEE75;}
	.st13{fill:#FBF5B5;}
	.st14{fill:#FFE36D;}
	.st15{fill:#F1CE58;}
	.st16{fill:#98C04C;}
	.st17{fill:#9B7B93;}
	.st18{fill:#BF91B4;}
	.st19{fill:#DBCED8;}
	.st20{fill:#E0AAD3;}
	.st21{fill:#AB82A1;}
	.st22{fill:#CFAC00;}
	.st23{fill:#F1CD13;}
	.st24{fill:#F8F0D1;}
	.st25{fill:#F0DB51;}
	.st26{fill:#D1C753;}
	.st27{fill:#783723;}
	.st28{fill:#9B472D;}
	.st29{fill:#A16956;}
	.st30{fill:#C48E74;}
	.st31{fill:#C4A287;}
	.st32{fill:#B7DA6F;}
	.st33{fill:#89B543;}
	.st34{fill:#D3EE83;}
	.st35{fill:#E7F0CE;}
	.st36{fill:url(#SVGID_1_);}
	.st37{fill:url(#SVGID_2_);}
	.st38{fill:url(#SVGID_3_);}
	.st39{fill:#B6E4F2;}
	.st40{fill:url(#SVGID_4_);}
	.st41{fill:#FFCFE8;}
	.st42{fill:#E3FFEB;}
	.st43{fill:#FEEE7B;}
	.st44{fill:#6C3C2D;}
	.st45{fill:#F18604;}
	.st46{fill:#F0383E;}
	.st47{fill:#FFD359;}
	.st48{fill:url(#SVGID_5_);}
	.st49{fill:#D47028;}
	.st50{fill:#B35E22;}
	.st51{fill:url(#SVGID_6_);}
	.st52{fill:#4A0014;}
	.st53{fill:#A31C20;}
	.st54{fill:#861319;}
	.st55{fill:#50090C;}
	.st56{fill:#C27F5D;}
	.st57{fill:#BB3E3C;}
	.st58{fill:#EFDBDD;}
	.st59{fill:#A91419;}
	.st60{fill:#8C0D13;}
	.st61{fill:#560509;}
	.st62{fill:#C87C56;}
	.st63{fill:#C13634;}
	.st64{fill:#F5D4D7;}
	.st65{fill:#B1151A;}
	.st66{fill:#940E14;}
	.st67{fill:#5E060A;}
	.st68{fill:#D09E85;}
	.st69{fill:#C93836;}
	.st70{fill:#DAB3B3;}
	.st71{fill:#D61920;}
	.st72{fill:#B91219;}
	.st73{fill:#83090E;}
	.st74{fill:#F5BA9D;}
	.st75{fill:#EE4240;}
	.st76{fill:#FFD2D1;}
	.st77{fill:#C4601D;}
	.st78{fill:#FFD6D4;}
	.st79{fill:#FFCFCC;}
	.st80{fill:#F04D54;}
	.st81{fill:#FF999D;}
	.st82{fill:#FF666C;}
	.st83{fill:#FFB5D5;}
	.st84{fill:#FFECEB;}
	.st85{fill:#F2273F;}
	.st86{fill:#DB9B81;}
	.st87{fill:#FFC661;}
	.st88{fill:url(#SVGID_7_);}
	.st89{fill:#C9653E;}
	.st90{fill:#A85231;}
	.st91{fill:url(#SVGID_8_);}
	.st92{fill:#F4E9CE;}
	.st93{fill:#C9714E;}
	.st94{fill:#FEB240;}
	.st95{fill:#D67A24;}
	.st96{fill:#FFD46B;}
	.st97{fill:#FEFF99;}
	.st98{fill:#F06267;}
	.st99{fill:#965B43;}
	.st100{fill:#A8A8A8;}
	.st101{fill:#3C3C3C;}
	.st102{fill:#30302E;}
	.st103{fill:#ED8A40;}
	.st104{fill:#FFB680;}
	.st105{fill:#606060;}
	.st106{fill:#FFFFFF;}
	.st107{fill:#D8D8D8;}
	.st108{fill:#5B9B31;}
	.st109{fill:#8DD35F;}
	.st110{fill:#A83800;}
	.st111{fill:#7D3722;}
	.st112{fill:#C94F67;}
	.st113{fill:#E05873;}
	.st114{fill:#FFD4DC;}
	.st115{fill:#FB7383;}
	.st116{fill:#DE92A0;}
	.st117{fill:#662C1E;}
	.st118{fill:#4D180B;}
	.st119{fill:#C47959;}
	.st120{fill:#FBB0B8;}
	.st121{fill:#FFD9DD;}
	.st122{fill:#FFF0F1;}
	.st123{fill:#CC8E74;}
	.st124{fill:#FFDFBF;}
	.st125{fill:#F4DCD0;}
	.st126{fill:#D9C3B9;}
</style>
<title>未命名-2</title>
<g>
	<g>
		<rect y="0.3" class="st0" width="225.9" height="225.9"/>
		<g class="st1">
			<rect y="181.5" class="st2" width="225.9" height="44.7"/>
		</g>
		<g class="st3">
			<path class="st4" d="M69.2,206.2l1.6-0.4c0.1,1.4,0.4,2.7,1.8,2.7c0.9,0,1.4-0.5,1.4-1.5c0-1.1-0.6-1.7-1.4-2.5l-2.1-1.9
				c-0.9-0.7-1.2-1.5-1.2-2.8c0-1.9,1.1-2.9,3-2.9c2,0,3,1.1,3.2,3.3l-1.5,0.4c-0.1-1.3-0.4-2.3-1.7-2.3c-0.9,0-1.4,0.5-1.4,1.4
				c0,0.8,0.2,1.2,0.8,1.7l2.2,1.9c1,0.8,1.8,2,1.8,3.6c0,1.9-1.3,3-3.1,3C70.3,209.9,69.3,208.4,69.2,206.2z"/>
			<path class="st4" d="M77.1,197h1.7v12.8h-1.7V197z"/>
			<path class="st4" d="M80.9,197h1.2l3.6,8.5V197h1.5v12.8h-1.1l-3.7-8.7v8.7h-1.5V197z"/>
			<path class="st4" d="M89,205.6v-4.3c0-2.8,0.7-4.4,3.4-4.4c2.4,0,3.3,1.2,3.3,3.7v0.5H94v-0.4c0-1.7-0.2-2.4-1.6-2.4
				c-1.6,0-1.7,1.2-1.7,2.8v4.7c0,1.8,0.3,2.7,1.7,2.7c1.4,0,1.7-1,1.7-2.9v-0.9h-1.6v-1.3h3.2v6.3h-1.1l-0.2-1.5
				c-0.3,0.9-1,1.6-2.3,1.6C89.8,209.9,89,208.3,89,205.6z"/>
			<path class="st4" d="M97.6,197h1.8v11.5h3.3v1.3h-5V197z"/>
			<path class="st4" d="M103.9,197h4.9v1.3h-3.2v4.2h2.6v1.3h-2.6v4.7h3.2v1.3h-5V197z"/>
			<path class="st4" d="M113.9,197h3.2c2.3,0,3.1,1.3,3.1,3.5c0,2-1.1,3.3-3.1,3.3h-1.4v5.9h-1.8V197z M116.5,202.5c1.5,0,2-0.4,2-2
				c0-1.8-0.2-2.3-2-2.3h-0.8v4.3H116.5z"/>
			<path class="st4" d="M121.4,197h4.9v1.3h-3.2v4.2h2.6v1.3h-2.6v4.7h3.2v1.3h-5V197z"/>
			<path class="st4" d="M127.8,197h2.6c2.6,0,3.7,1,3.7,3.4c0,1.5-0.4,2.6-1.6,3l1.8,6.4h-1.7l-1.7-6h-1.4v6h-1.8V197z M130.3,202.5
				c1.5,0,2.1-0.5,2.1-2.1c0-1.5-0.4-2.1-2-2.1h-0.8v4.2H130.3z"/>
			<path class="st4" d="M135.6,206.2l1.6-0.4c0.1,1.4,0.4,2.7,1.8,2.7c0.9,0,1.4-0.5,1.4-1.5c0-1.1-0.6-1.7-1.4-2.5l-2.1-1.9
				c-0.9-0.7-1.2-1.5-1.2-2.8c0-1.9,1.1-2.9,3-2.9c2,0,3,1.1,3.2,3.3l-1.5,0.4c-0.1-1.3-0.4-2.3-1.7-2.3c-0.9,0-1.4,0.5-1.4,1.4
				c0,0.8,0.2,1.2,0.8,1.7l2.2,1.9c1,0.8,1.8,2,1.8,3.6c0,1.9-1.3,3-3.1,3C136.8,209.9,135.8,208.4,135.6,206.2z"/>
			<path class="st4" d="M143.2,205.7v-4.8c0-2.5,0.9-4,3.5-4c2.6,0,3.5,1.5,3.5,4v4.8c0,2.5-0.9,4.1-3.5,4.1
				C144.1,209.9,143.2,208.3,143.2,205.7z M148.4,206.1v-5.6c0-1.4-0.3-2.3-1.7-2.3c-1.4,0-1.7,0.9-1.7,2.3v5.6
				c0,1.4,0.3,2.3,1.7,2.3C148.1,208.5,148.4,207.6,148.4,206.1z"/>
			<path class="st4" d="M151.9,197h1.2l3.6,8.5V197h1.5v12.8h-1.1l-3.7-8.7v8.7h-1.5V197z"/>
		</g>
		<g>
			<g>
				<path class="st5" d="M85.5,78.7h-6.3v30.9l0,0c0,0.1,0,0.3,0,0.4c0,1.7,1.4,3.1,3.1,3.1s3.1-1.4,3.1-3.1c0-0.1,0-0.3,0-0.4l0,0
					V78.7H85.5z"/>
				<path class="st6" d="M84.7,78.7h-6.3v30.9l0,0c0,0.1,0,0.3,0,0.4c0,1.7,1.4,3.1,3.1,3.1s3.1-1.4,3.1-3.1c0-0.1,0-0.3,0-0.4l0,0
					V78.7H84.7z"/>
				<path class="st7" d="M78.4,81.3c1.4,0.6,3.2,1.7,3.1,3.6c-0.1,3,2,16.3,0.2,28.1c1.6-0.1,2.9-1.4,2.9-3.1c0-0.1,0-0.3,0-0.4l0,0
					V78.7h-6.3v2.6H78.4z"/>
			</g>
			<g>
				<path class="st8" d="M81.9,85.2L81.9,85.2C73,85.2,65.8,78,65.8,69V42.3c0-8.9,7.2-16.2,16.2-16.2l0,0c8.9,0,16.2,7.2,16.2,16.2
					V69C98.1,78,90.9,85.2,81.9,85.2z"/>
				<path class="st9" d="M78.3,26.1c-7,0.5-12.5,6.3-12.5,13.5v32.2c0,7.1,5.5,13,12.5,13.5c7-0.5,12.5-6.3,12.5-13.5V39.6
					C90.8,32.4,85.3,26.6,78.3,26.1z"/>
				<path class="st10" d="M71.9,71.4V39.3c0-5.9,3.7-10.8,9-12.7c-0.8-0.2-1.7-0.4-2.6-0.4c-7,0.5-12.5,6.3-12.5,13.5v32.2
					c0,7.1,5.5,13,12.5,13.5c1.2-0.1,2.4-0.4,3.5-0.8C76.1,82.9,71.9,77.6,71.9,71.4z"/>
				<path class="st11" d="M98.1,71.7v-5.2c-7.4,3.1-8.5-6-22.1-7.8c-4.3-0.6-7.7-0.2-10.2,0.7v12.3c0,1.2,0.2,2.3,0.4,3.4
					c7.6-2.4,10.7,0,18.7,6.7c1.5,1.2,3,2,4.5,2.5C94.5,82.4,98.1,77.5,98.1,71.7z"/>
				<path class="st11" d="M98.1,39.7c-7.4,3.1-8.5-6-22.1-7.8c-3.1-0.4-5.7-0.3-7.9,0.1c-1.5,2.2-2.4,4.8-2.4,7.6v8.8
					c8-2.6,11-0.3,19.1,6.6c4.5,3.8,9.5,3.6,13.2,2.4V39.7H98.1z"/>
				<path class="st12" d="M84.9,55c1.9,1.6,3.9,2.5,5.9,2.9V39.6c0-0.3,0-0.7,0-1c-3.2-2.1-6.9-5.6-14.8-6.7
					c-3.1-0.4-5.7-0.3-7.8,0.1c0,0.1-0.1,0.1-0.1,0.2c-0.1,0.1-0.2,0.2-0.2,0.4c-0.1,0.2-0.2,0.4-0.4,0.6c-0.1,0.1-0.1,0.2-0.2,0.4
					c-0.1,0.3-0.3,0.6-0.4,0.8c0,0.1-0.1,0.1-0.1,0.2c-0.1,0.3-0.3,0.7-0.4,1.1c0,0.1-0.1,0.2-0.1,0.4c-0.1,0.3-0.1,0.5-0.2,0.8
					c0,0.1-0.1,0.3-0.1,0.4c0,0.3-0.1,0.5-0.1,0.8c0,0.1,0,0.2,0,0.4c0,0.4-0.1,0.8-0.1,1.2v8.8C73.7,45.8,76.7,48.1,84.9,55z"/>
				<path class="st12" d="M65.8,73.2c0,0.4,0.1,0.8,0.2,1.1v0.1c0,0.2,0.1,0.5,0.2,0.7c7.6-2.4,10.7,0,18.7,6.7
					c0.2,0.2,0.5,0.4,0.7,0.5c3.2-2.5,5.2-6.3,5.2-10.6v-6.2c-3.2-2.1-6.9-5.7-14.8-6.8c-4.3-0.6-7.7-0.2-10.2,0.7v12.3
					c0,0.4,0,0.8,0.1,1.2C65.8,73,65.8,73.1,65.8,73.2z"/>
				<path class="st13" d="M65.8,73.2c0,0.1,0,0.3,0.1,0.4c0,0.2,0.1,0.5,0.1,0.7v0.1c0,0.1,0,0.2,0.1,0.2c0,0.2,0.1,0.3,0.1,0.5
					c2.3-0.7,4.2-1,6-0.9c-0.2-0.9-0.3-1.9-0.3-2.8V58.5c-2.4,0-4.5,0.4-6.1,1v12.3c0,0.4,0,0.8,0.1,1.2
					C65.8,73,65.8,73.1,65.8,73.2z"/>
				<path class="st13" d="M71.9,47.4v-8.1c0-2.8,0.9-5.4,2.3-7.6c-2.3-0.2-4.4-0.1-6.1,0.3c0,0.1-0.1,0.1-0.1,0.2
					c-0.1,0.1-0.2,0.2-0.2,0.4c-0.1,0.2-0.2,0.4-0.4,0.6c-0.1,0.1-0.1,0.2-0.2,0.4c-0.1,0.3-0.3,0.6-0.4,0.8c0,0.1-0.1,0.1-0.1,0.2
					c-0.1,0.2-0.2,0.4-0.2,0.6c0,0.1-0.1,0.3-0.1,0.4c0,0.1-0.1,0.2-0.1,0.4c-0.1,0.3-0.1,0.5-0.2,0.8c0,0.1-0.1,0.3-0.1,0.4
					c0,0.3-0.1,0.5-0.1,0.8c0,0.1,0,0.2,0,0.4l0,0c0,0.4-0.1,0.8-0.1,1.2v8.8C68.2,47.6,70.1,47.3,71.9,47.4z"/>
			</g>
		</g>
		<g>
			<path class="st14" d="M174.5,147.2c-21.5,1.3-43.4,1.4-65.9,0c-1.7-9.6-2.6-19.3-2.7-29.2c23.9,0,47.7,0,71.3,0L174.5,147.2z"/>
			<path class="st15" d="M175.2,139.2L177,120c-23.5,0-47.2,0-71,0c0.2,6.5,0.6,12.8,1.4,19.1L175.2,139.2L175.2,139.2z"/>
			<path class="st16" d="M175.4,137.1l1.8-19.1c-23.6,0-47.3,0-71.3,0c0.1,6.5,0.5,12.8,1.3,19.1H175.4z"/>
			<path class="st17" d="M106.3,126.6h70.1l0.8-8.6c-23.6,0-47.3,0-71.3,0C106,120.9,106.1,123.7,106.3,126.6z"/>
			<path class="st18" d="M177.2,118h-71.3c0,0-2.3-17.2,19.9-23.8c0.5-0.1,1.1-0.1,1.6,0C132.7,96.1,163.7,107,177.2,118z"/>
			<path class="st19" d="M177.2,118c-23.6,0-47.3,0-71.3,0c0,1.3,0.1,2.5,0.1,3.8c13.1,0.2,43.7,2.2,49.5,3.2
				c8.2,1.4,7,12.4,8.6,18.2c0.4,1.3,0.5,2.9,0.6,4.6c3.3-0.1,6.5-0.3,9.8-0.5L177.2,118z"/>
			<path class="st20" d="M114.2,111.7c-1.4-1.6-2.8-9.2,8.5-14.8c-16,6.1-14.2,19.3-14.2,19.3h14.9
				C119.3,115.3,116.1,113.9,114.2,111.7z"/>
			<path class="st21" d="M140.1,117.3c-0.4,0.1-0.9,0.3-1.2,0.7h38.4c-13.5-11-44.6-21.9-49.8-23.7c-0.5-0.2-1-0.2-1.5,0
				c-0.2,0.1-0.5,0.1-0.7,0.2c0.3,0.4,0.7,0.7,1.4,0.6c0.3-0.1,3.9,2.6,4.4,2.9c2.3,1.4,4.7,2.4,6.9,4.1c2.9,2.1,5.2,2.9,7.2,6.3
				C148.1,113.2,144.8,116.4,140.1,117.3z"/>
			<path class="st20" d="M155,115.9h14.3c-0.6-0.4-1.7-1.6-2.4-2C163.4,114.3,159.6,115.5,155,115.9z"/>
			<path class="st19" d="M154.4,110.2c0,1.9-7.9,3.4-17.6,3.4c-9.7,0-15.1-1.5-15.1-3.4s5.4-3.4,15.1-3.4
				C146.6,106.8,154.4,108.3,154.4,110.2z"/>
			<path class="st19" d="M147,110.2c0,1.9-4.6,3.4-10.2,3.4c-5.6,0-10.2-1.5-10.2-3.4s4.6-3.4,10.2-3.4
				C142.5,106.8,147,108.3,147,110.2z"/>
			<g>
				<path class="st22" d="M118.2,99.1c0.7,6.5,10.5,14,20.1,12.9s17.5-10.5,16.8-17L118.2,99.1z"/>
				<path class="st23" d="M118.2,99.1c0.7,6.5,10.5,13.4,20.2,12.3c9.6-1.1,17.5-9.9,16.8-16.4L118.2,99.1z"/>
				<path class="st24" d="M138.2,110.2c8.8-1,16.1-8.8,16.8-15.1l-36.5,4C120.6,105.1,129.4,111.2,138.2,110.2z"/>
				<path class="st25" d="M138,108.7c8-0.9,14.8-7.6,16.5-13.5L119,99.1C121.9,104.5,130,109.6,138,108.7z"/>
				<path class="st26" d="M154.4,95.1l-1.2,0.1c-1.4,3-4.6,6.4-6.8,8.2c-1.8,1.4-4.5,2.1-6.7,2.7s-11.1,0.2-13.1-1.1
					c-1.6-1.1-5-4.1-6.3-6l-0.1-0.1L119,99c2.9,5.5,11,10.5,19,9.6C146,107.8,152.8,101.1,154.4,95.1z"/>
				<path class="st24" d="M136.4,97c-0.1,0-0.7-0.1-0.9,0c-1.3,0.1-1.1,2,0.1,2.1c0.2,0.1,0.3,0.1,0.6,0.1c0.1,0,0.2,0,0.3-0.1
					c0.1,0,0.2,0,0.3,0C138,98.9,137.8,96.9,136.4,97z"/>
				<g>
					<g>
						<polygon class="st24" points="136.2,108.9 136.1,98 138.3,108.6 						"/>
					</g>
				</g>
				<g>
					<g>
						<polygon class="st24" points="127.5,106.9 136.1,98 129.3,108.3 						"/>
					</g>
				</g>
				<g>
					<g>
						<polygon class="st24" points="121.5,102.4 136.1,98 122.4,104.7 						"/>
					</g>
				</g>
				<g>
					<g>
						<polygon class="st24" points="145.8,107 136.1,98 147.1,105.2 						"/>
					</g>
				</g>
				<g>
					<g>
						<polygon class="st24" points="152.4,101.4 136.1,97.9 152.7,98.9 						"/>
					</g>
				</g>
			</g>
		</g>
		<g>
			<g>
				<path class="st27" d="M98.7,114.3c0,12.9-9.8,23.4-21.8,23.4h-6.8c-12,0-21.8-10.5-21.8-23.4v-6.1h50.4V114.3z"/>
				<path class="st28" d="M101.4,110.2c0,8.3-12.5,15-27.9,15s-27.9-6.7-27.9-15s12.5-15,27.9-15S101.4,101.9,101.4,110.2z"/>
				<path class="st29" d="M70.1,137.7h6.8c10.3,0,19-7.7,21.2-18c-1.4,0.1-2.6,1.8-3.3,4.2c-0.5-0.6-1.2-1-1.8-1
					c-1.4,0-2.6,1.5-3.3,3.9c-0.7-1.1-1.5-1.7-2.4-1.7c-1.6,0-3,2.1-3.7,5.2c-0.8-2.2-1.9-3.7-3.3-3.7s-2.7,1.6-3.4,4.1
					c-0.7-2.5-2-4.1-3.4-4.1c-1.6,0-3,2-3.6,5c-0.7-3-2.1-5-3.6-5c-1.3,0-2.5,1.5-3.3,3.7c-0.7-3.1-2.1-5.2-3.7-5.2
					c-0.9,0-1.7,0.6-2.4,1.7c-0.7-2.3-2-3.9-3.3-3.9c-0.6,0-1.3,0.3-1.8,1c-0.6-2.2-1.7-3.7-2.9-4.1C51.2,130,59.8,137.7,70.1,137.7
					z"/>
				<path class="st30" d="M56.6,128.9c0,1.2,0.1,2.1,0.3,2.1s0.3-1,0.3-2.1c0-1.2-0.1-2.1-0.3-2.1C56.7,126.8,56.6,127.8,56.6,128.9
					z"/>
				<path class="st30" d="M94.6,125c0,0.7,0.1,1.3,0.3,1.3c0.2,0,0.3-0.6,0.3-1.3c0-0.7-0.1-1.3-0.3-1.3
					C94.8,123.8,94.6,124.3,94.6,125z"/>
				<path class="st30" d="M51.4,125c0,0.7,0.1,1.3,0.3,1.3s0.3-0.6,0.3-1.3c0-0.7-0.1-1.3-0.3-1.3C51.6,123.8,51.4,124.3,51.4,125z"
					/>
				<path class="st30" d="M62.6,132.4c0,1.2,0.1,2.1,0.3,2.1s0.3-1,0.3-2.1c0-1.2-0.1-2.1-0.3-2.1C62.8,130.3,62.6,131.3,62.6,132.4
					z"/>
				<path class="st30" d="M69.6,133.8c0,1.3,0.1,2.3,0.3,2.3c0.2,0,0.3-1,0.3-2.3s-0.1-2.3-0.3-2.3S69.6,132.5,69.6,133.8z"/>
				<path class="st30" d="M83.3,132.4c0,1.3,0.1,2.3,0.3,2.3c0.2,0,0.3-1,0.3-2.3s-0.1-2.3-0.3-2.3
					C83.4,130.1,83.3,131.2,83.3,132.4z"/>
				<path class="st30" d="M89.4,128.9c0,1.3,0.1,2.3,0.3,2.3c0.2,0,0.3-1,0.3-2.3s-0.1-2.3-0.3-2.3
					C89.6,126.6,89.4,127.7,89.4,128.9z"/>
				<path class="st30" d="M76.6,133.4c0,1.5,0.1,2.8,0.3,2.8c0.2,0,0.3-1.2,0.3-2.8c0-1.5-0.1-2.8-0.3-2.8
					C76.8,130.6,76.6,131.9,76.6,133.4z"/>
			</g>
			<path class="st31" d="M100.8,107.9c0,7-12.3,12.7-27.4,12.7S46,114.9,46,107.9s12.3-10.5,27.4-10.5S100.8,100.9,100.8,107.9z"/>
			<path class="st32" d="M100.9,106.6c0,7-12.3,12.7-27.4,12.7s-27.4-5.7-27.4-12.7s12.3-10.5,27.4-10.5S100.9,99.6,100.9,106.6z"/>
			<path class="st32" d="M98,96c0,7-11,12.7-24.5,12.7S49,103,49,96s11-9.1,24.5-9.1S98,89,98,96z"/>
			<path class="st32" d="M88.4,88.8c-0.1-5.8-4.8-14.1-11.1-15c-2.5-0.3-4.5-1.5-6.2,0.9c-0.6,0.8-0.2,2.5-0.1,3.2
				c0.6,4.1-0.8,6.3-4.2,8.4c-5.2,3.1,0.3,8.1,4.3,8.6c2,0.3,4,0.7,6.1,0.7c1.3,0,2.6-0.9,3.9-1.1c1-0.2,3-1.3,3.8-1.9
				c0.1-0.1,0.2-0.2,0.4-0.4c1.3-0.5,2.3-1.3,2.6-2.5C88.1,89.6,88.4,89.3,88.4,88.8z"/>
			<path class="st33" d="M96.5,100.4c1-1.4,1.5-2.8,1.5-4.4c0-4.1-3.8-6.5-9.6-7.8c-0.4-5.7-5-13.5-11-14.4
				c-0.7-0.1-1.5-0.3-2.1-0.4c0.6,0.5,1.4,0.9,2,1.3c1.5,0.9,3,2,4.1,3.3c1,1.2,1.9,2.9,2.6,4.4c0.6,1.4,1.6,3.1,1.8,4.6
				c0.1,0.8,0.3,2.2,1,2.8c0.2,0.2,0.6,0.2,0.8,0.3c1,0.2,1.9,0.8,2.8,1.3c2.4,1.1,3.1,3.8,3.1,6.2c0,0.7-0.1,1.3-0.1,1.9
				c-0.1,1.7-1.7,2.1-3,2.5c-0.4,0.2-0.2,0.7,0.2,0.8c0.6,0.1,1.2,0,1.8,0c2,0,2.1,2.1,2.3,3.4c0.4,2.2-0.1,4.1-0.9,6.1
				c-1.5,3.5-6.2,4-9.2,5.5c-0.2,0.1-0.2,0.3-0.2,0.4c9.7-1.9,16.6-6.4,16.6-11.6C100.9,104.1,99.3,102,96.5,100.4z"/>
			<path class="st34" d="M91,106.4c0,4.2-9.7,7.7-21.6,7.7s-21.6-3.4-21.6-7.7c0-4.2,9.7-6.4,21.6-6.4C81.4,100,91,102.1,91,106.4z"
				/>
			<path class="st34" d="M92.6,94.3c0,5.7-9.7,10.3-21.8,10.3c-12,0-21.8-4.6-21.8-10.3s9.7-7.4,21.8-7.4
				C82.8,86.9,92.6,88.6,92.6,94.3z"/>
			<path class="st34" d="M83.3,88.8c-0.1-5.8-3.8-14.1-8.7-15c-1.9-0.3-3.5-1.5-4.9,0.9c-0.4,0.8-0.2,2.5-0.1,3.2
				c0.5,4.1-0.6,6.3-3.3,8.4c-4.1,3.1,0.2,8.1,3.4,8.6c1.6,0.3,3.2,0.7,4.8,0.7c1,0,2-0.9,3-1.1c0.8-0.2,2.4-1.3,3-1.9
				c0.1-0.1,0.2-0.2,0.3-0.4c1-0.5,1.8-1.3,2-2.5C83.1,89.6,83.3,89.3,83.3,88.8z"/>
			<path class="st35" d="M67.8,98.7c-6.4,0-11.2-2.5-11.2-4.7c0-1.9,4.2-3,11.2-3S79,92.1,79,94C79,96.2,74.2,98.7,67.8,98.7z"/>
			<path class="st35" d="M71.2,111.9c-6,0-10.4-2.5-10.4-4.7c0-1.9,3.9-3,10.4-3s10.4,1.1,10.4,3C81.6,109.4,77.2,111.9,71.2,111.9z
				"/>
			<path class="st35" d="M71.8,84.7c-0.2,1.4-0.5,3-0.1,4.3c0.6,1.9,4.3,1.3,5.4,0.2c1.5-1.5,1.8-3.7,1.9-5.7
				c-1.2-3.3-3.2-6.1-4.9-6.4c-0.5-0.1-0.9-0.2-1.3-0.3c0,0.2,0.1,0.8,0.1,0.8C73.2,80.3,72.9,82.7,71.8,84.7z"/>
			<path class="st32" d="M70.6,95.2c-1.5-0.2-3-0.3-4.5-0.3s-3.2-0.6-4.7-0.8C60.6,94,59.8,94,59,94c-0.6,0-1.2-0.4-1.8-0.4
				c-0.7,0-1.4,0.3-1.8,0.8c-0.6,0.1-1.1,0.6-1.1,1.3c0.1,6.8,10.2,6,15.1,6.1c3,0,5.2-0.2,6.5-2.9C77.6,95.8,72.7,95.5,70.6,95.2z"
				/>
			<path class="st33" d="M69.9,96.2C68.6,96,67.3,96,66,96s-2.7-0.5-4-0.6c-0.7-0.1-1.4,0-2.1,0c-0.5,0-1-0.3-1.5-0.3
				c-0.6,0-1.2,0.2-1.6,0.6c-0.5,0.1-1,0.5-1,1.1c0.1,5.4,8.8,4.8,13,4.8c2.6,0,4.5-0.2,5.6-2.3C75.9,96.6,71.8,96.4,69.9,96.2z"/>
			<g>
				<path class="st22" d="M52,78.7c-3.3,4.2-2,14.1,4.1,19s16.1,4.1,19.5-0.1L52,78.7z"/>
				<path class="st23" d="M52,78.7c-3.3,4.2-1.7,13.8,4.5,18.7c6.1,4.9,15.8,4.4,19.1,0.2L52,78.7z"/>
				<path class="st24" d="M57.1,96.5c5.6,4.5,14.3,4.2,18.4,0.9L52.2,78.8C49.9,83.5,51.5,92.1,57.1,96.5z"/>
				<path class="st25" d="M57.9,95.5c5.1,4.1,12.9,4.2,17.3,1.7L52.5,79.1C51,83.9,52.8,91.4,57.9,95.5z"/>
				<path class="st26" d="M75.1,97.2l-0.8-0.6c-2.5,0.9-6.3,1.1-8.6,0.8c-1.9-0.2-3.8-1.3-5.4-2.3c-1.6-0.9-6.5-6.3-6.9-8.2
					c-0.3-1.5-0.5-5.2-0.2-7.1v-0.1l-0.8-0.6c-1.5,4.8,0.3,12.4,5.4,16.5C63,99.6,70.8,99.7,75.1,97.2z"/>
				<path class="st24" d="M63.7,87.9c-0.1-0.1-0.4-0.4-0.5-0.5c-0.8-0.7-1.8,0.5-1.1,1.2c0,0.1,0.1,0.3,0.3,0.4
					c0.1,0.1,0.1,0.1,0.2,0.1c0,0.1,0.1,0.1,0.1,0.2C63.5,89.9,64.6,88.6,63.7,87.9z"/>
				<g>
					<g>
						<polygon class="st24" points="56.8,94.6 62.9,88.3 58.1,95.7 						"/>
					</g>
				</g>
				<g>
					<g>
						<polygon class="st24" points="52.9,88.5 62.9,88.3 53.1,90.3 						"/>
					</g>
				</g>
				<g>
					<g>
						<polygon class="st24" points="52,82.4 62.9,88.3 51.2,84.3 						"/>
					</g>
				</g>
				<g>
					<g>
						<polygon class="st24" points="63.4,99 62.9,88.3 65.2,98.8 						"/>
					</g>
				</g>
				<g>
					<g>
						<polygon class="st24" points="70.4,99.6 63,88.2 72,98.4 						"/>
					</g>
				</g>
			</g>
		</g>
		<g>
			<path class="st28" d="M174.3,34.2c-15.4,0-27.9,12.6-27.9,28.2s12.5,28.2,27.9,28.2s27.9-12.6,27.9-28.2S189.7,34.2,174.3,34.2z
				 M174.3,71.5c-5.4,0-9.8-4.1-9.8-9.2c0-5,4.4-9.2,9.8-9.2c5.4,0,9.8,4.1,9.8,9.2S179.7,71.5,174.3,71.5z"/>
			
				<linearGradient id="SVGID_1_" gradientUnits="userSpaceOnUse" x1="142.9" y1="167.15" x2="205.7418" y2="167.15" gradientTransform="matrix(1 0 0 -1 0 228)">
				<stop  offset="0" style="stop-color:#CBFFEC"/>
				<stop  offset="1" style="stop-color:#05B0AB"/>
			</linearGradient>
			<path class="st36" d="M174.3,30.2c-17.3,0-31.4,14.4-31.4,32.1c0,6.3,1.7,16.8,4.9,17.3c1.4,0.2,2.6-5.8,7.8-1
				c5.3,4.8,2.4-2.1,5.7-1.9s2.2,2.7,2.7,5.6s1.6,7.6,4.2,7.5c2.6-0.1,3.8-5.1,5.8-4.9s2.2,6.6,5.1,6.6c2.9,0,4.3-7,8-9.1
				c3.6-2.1,5.5,0.2,6.7,1.5c2.3,2.7,6.9-4.3,7.3-4.9c2.8-4.8,4.5-10.5,4.5-16.5C205.7,44.7,191.6,30.2,174.3,30.2z M174.3,75.5
				c-8,0-14.5-5.9-14.5-13.1c0-2.8,1-5.4,2.6-7.5l0,0c0,0,2.8,6.5,5.7,3.8c2.9-2.6,1.1-4.6,2.8-7.8c0.5-0.9,0.3-1.6,1.8-1.5
				c0.8,0,1.3,1.2,1.6,1.5c0.5,0.5,0.5,4.6,4.2,6.1s7.2-2.6,7.2-2.6l0,0c1.9,2.2,3.1,5,3.1,8.1C188.8,69.6,182.3,75.5,174.3,75.5z"
				/>
			
				<linearGradient id="SVGID_2_" gradientUnits="userSpaceOnUse" x1="144.0559" y1="167.25" x2="204.4559" y2="167.25" gradientTransform="matrix(1 0 0 -1 0 228)">
				<stop  offset="0" style="stop-color:#A7E8CF"/>
				<stop  offset="1" style="stop-color:#86EBEB"/>
			</linearGradient>
			<path class="st37" d="M179.2,90.2c-0.8,0-1.5-1.7-2-3c-0.7-1.7-1.4-3.5-3-3.6c-0.1,0-0.2,0-0.2,0c-1.5,0-2.5,1.4-3.5,2.7
				c-0.7,1-1.6,2.2-2.3,2.2l0,0c-0.6,0-1.9-0.6-3-6.5c-0.1-0.7-0.2-1.4-0.2-2c-0.1-1.8-0.2-4.4-3.7-4.5c-0.1,0-0.1,0-0.2,0
				c-2.2,0-2.7,2-3,3c0,0.2-0.1,0.3-0.1,0.5c-0.3-0.2-0.8-0.5-1.7-1.3c-1.6-1.5-3-2.2-4.4-2.2c-1.9,0-3.1,1.4-3.9,2.3
				c-0.1,0.2-0.3,0.4-0.4,0.5c-1.6-0.9-3.7-8.5-3.7-16c0-17.1,13.6-31,30.2-31c16.7,0,30.2,13.9,30.2,31c0,5.6-1.5,11.1-4.3,15.9
				c-1.6,2.4-3.9,5-5,5l0,0c-0.1,0-0.2,0-0.4-0.2l-0.1-0.1c-0.9-1-2.4-2.7-4.8-2.7c-1.1,0-2.2,0.3-3.4,1c-2,1.2-3.4,3.5-4.6,5.5
				C181.1,88.4,180,90.2,179.2,90.2z M162.4,53.7c-0.4,0-0.7,0.2-0.9,0.5c-1.9,2.4-2.9,5.3-2.9,8.3c0,7.9,7.1,14.3,15.7,14.3
				c8.7,0,15.7-6.4,15.7-14.3c0-3.2-1.2-6.3-3.4-8.8c-0.2-0.3-0.6-0.4-0.9-0.4l0,0c-0.3,0-0.7,0.2-0.9,0.4c0,0-2.2,2.5-4.7,2.5
				c-0.4,0-0.8-0.1-1.2-0.2c-2.2-0.9-2.8-2.9-3.2-4.3c-0.2-0.7-0.3-1.2-0.7-1.5c0,0-0.1-0.1-0.2-0.2c-0.4-0.6-1.1-1.6-2.2-1.6
				c-0.1,0-0.2,0-0.3,0c-1.9,0-2.3,1.1-2.5,1.7c-0.1,0.2-0.1,0.3-0.2,0.4c-0.9,1.6-1,2.9-1,4c-0.1,1.4-0.2,2.3-1.5,3.5
				c-0.4,0.3-0.6,0.3-0.7,0.3c-1,0-2.4-2.2-3.1-3.7c-0.2-0.4-0.5-0.7-0.9-0.7C162.5,53.7,162.4,53.7,162.4,53.7z"/>
			
				<linearGradient id="SVGID_3_" gradientUnits="userSpaceOnUse" x1="146.4" y1="165.6" x2="202.2" y2="165.6" gradientTransform="matrix(1 0 0 -1 0 228)">
				<stop  offset="4.405290e-03" style="stop-color:#B3FFE1"/>
				<stop  offset="0.2027" style="stop-color:#A4F6DC"/>
				<stop  offset="0.5829" style="stop-color:#7DDECF"/>
				<stop  offset="1" style="stop-color:#4CBFBE"/>
			</linearGradient>
			<path class="st38" d="M202.2,62.4c0-15.6-12.5-28.2-27.9-28.2s-27.9,12.6-27.9,28.2c0,5.4,1.5,10.5,4.2,14.9
				c1.1-0.7,2.7-0.8,5.1,1.4c5.3,4.8,2.4-2.1,5.7-1.9s2.2,2.7,2.7,5.6s1.6,7.6,4.2,7.5c2.6-0.1,3.8-5.1,5.8-4.9
				c1.5,0.1,2,3.8,3.4,5.6c1.5-0.2,2.9-0.4,4.2-0.8c1.6-2.2,3-5.9,5.5-7.3c3-1.8,4.8-0.5,6,0.8C198.8,77.9,202.2,70.6,202.2,62.4z
				 M174.3,75.5c-8,0-14.5-5.9-14.5-13.1c0-2.8,1-5.4,2.6-7.5c0,0,2.8,6.5,5.7,3.8c2.9-2.6,1.1-4.6,2.8-7.8c0.5-0.9,0.3-1.6,1.8-1.5
				c0.8,0,1.3,1.2,1.6,1.5c0.5,0.5,0.5,4.6,4.2,6.1s7.2-2.6,7.2-2.6c1.9,2.2,3.1,5,3.1,8.1C188.8,69.6,182.3,75.5,174.3,75.5z"/>
			<path class="st39" d="M174.1,84.8c2,0.2,2.2,6.6,5.1,6.6c2.9,0,4.3-7,8-9.1c3.6-2.1,5.5,0.2,6.7,1.5c2.3,2.7,6.9-4.3,7.3-4.9
				c2.8-4.8,4.5-10.5,4.5-16.5c0-2.3-0.2-4.5-0.7-6.6c-5.7,9.7-23.2,31.2-61.2,16c0.8,4.1,2.2,7.6,4,7.9c1.4,0.2,2.6-5.8,7.8-1
				c5.3,4.8,2.4-2.1,5.7-1.9s2.2,2.7,2.7,5.6s1.6,7.6,4.2,7.5C170.8,89.7,172.1,84.6,174.1,84.8z"/>
			
				<linearGradient id="SVGID_4_" gradientUnits="userSpaceOnUse" x1="157.3667" y1="165.55" x2="191.204" y2="165.55" gradientTransform="matrix(1 0 0 -1 0 228)">
				<stop  offset="0" style="stop-color:#72E8BD"/>
				<stop  offset="1" style="stop-color:#05B0AB"/>
			</linearGradient>
			<path class="st40" d="M174.3,77.9c9.3,0,16.9-7,16.9-15.5c0-3.5-1.3-6.9-3.7-9.6l-1.8-2.1l-1.8,2.1c-0.5,0.5-2.2,2.1-3.8,2.1
				c-0.3,0-0.5,0-0.8-0.1c-1.5-0.6-2-1.9-2.4-3.5c-0.2-0.7-0.4-1.4-0.9-2l-0.1-0.1c-0.5-0.7-1.4-2.1-3.2-2.2c-0.1,0-0.2,0-0.3,0
				c-2.7,0-3.4,1.8-3.6,2.5c0,0.1-0.1,0.2-0.1,0.3c-1,1.8-1.1,3.4-1.2,4.5c-0.1,1.2-0.1,1.8-1,2.6c-0.6-0.4-1.5-1.8-2-2.9l-1.6-3.7
				l-2.5,3.2c-2.1,2.6-3.2,5.7-3.2,9C157.4,70.9,165,77.9,174.3,77.9z M162.4,54.9c0,0,2.8,6.5,5.7,3.8c2.9-2.6,1.1-4.6,2.8-7.8
				c0.5-0.9,0.3-1.6,1.8-1.5c0.8,0,1.3,1.2,1.6,1.5c0.5,0.5,0.5,4.6,4.2,6.1s7.2-2.6,7.2-2.6c1.9,2.2,3.1,5,3.1,8.1
				c0,7.2-6.5,13.1-14.5,13.1s-14.5-5.9-14.5-13.1C159.7,59.6,160.7,57,162.4,54.9z"/>
			<g>
				<path class="st41" d="M201.2,78.9c1.1-1.9,2-3.8,2.7-5.9c-3.1,4.3-7,7.3-11.3,9.5c0.5,0.4,1,0.9,1.3,1.4
					C196.3,86.5,200.8,79.5,201.2,78.9z"/>
				<path class="st41" d="M168.2,89.8c1.3,0,2.3-1.4,3.1-2.6c-2.1,0-4.2,0-6.1-0.1C166,88.6,166.9,89.8,168.2,89.8z"/>
				<path class="st41" d="M179.2,91.4c2,0,3.3-3.2,5-5.9c-2.8,0.7-5.7,1.1-8.4,1.4C176.6,88.8,177.3,91.4,179.2,91.4z"/>
			</g>
			<path class="st42" d="M155,41c-3.8,2.2-7.2,7.4-7.8,12.9c-0.1,0.7,1.1,0.8,1.4,0.2c1.9-3.4,5.5-8.3,7.3-11.7
				c0-0.1,0.1-0.1,0.1-0.2C156.5,41.6,155.8,40.6,155,41z"/>
			<ellipse class="st42" cx="146.8" cy="61.9" rx="1.3" ry="3.1"/>
			<path class="st43" d="M163.6,45.5c-1,0.9-2.1,1.3-2.4,0.9c-0.4-0.4,0.1-1.5,1.1-2.4s2.1-1.3,2.4-0.9
				C165.1,43.5,164.6,44.6,163.6,45.5z"/>
			<path class="st43" d="M170.6,82.6c-1.2,0.5-2.4,0.5-2.6,0c-0.2-0.5,0.6-1.3,1.8-1.9c1.2-0.5,2.4-0.5,2.6,0
				C172.7,81.2,171.9,82.1,170.6,82.6z"/>
			<path class="st43" d="M154.7,70.9c-1,0.4-2,0.4-2.3-0.1c-0.2-0.5,0.4-1.3,1.5-1.7c1-0.4,2-0.4,2.3,0.1
				C156.4,69.7,155.7,70.5,154.7,70.9z"/>
			<path class="st43" d="M178.9,39.6c-1.1-0.3-1.9-0.9-1.7-1.5c0.1-0.5,1.1-0.8,2.2-0.5c1.1,0.3,1.9,0.9,1.7,1.5
				C181,39.6,180,39.9,178.9,39.6z"/>
			<path class="st44" d="M154.7,57.9c-1,0.4-2,0.4-2.3-0.1c-0.2-0.5,0.4-1.3,1.5-1.7c1-0.4,2-0.4,2.3,0.1
				C156.4,56.7,155.7,57.5,154.7,57.9z"/>
			<path class="st44" d="M170.5,40.7c-1.1,0.2-2.1,0-2.2-0.5c-0.1-0.5,0.7-1.2,1.8-1.4s2.1,0,2.2,0.5S171.6,40.4,170.5,40.7z"/>
			<path class="st44" d="M190.3,49.7c-1.1-0.4-1.7-1.1-1.6-1.6c0.2-0.5,1.2-0.6,2.3-0.2c1.1,0.4,1.7,1.1,1.6,1.6
				C192.3,50,191.3,50.1,190.3,49.7z"/>
			<path class="st44" d="M194.2,68.6c-1.1-0.4-1.7-1.1-1.6-1.6c0.2-0.5,1.2-0.6,2.3-0.2s1.7,1.1,1.6,1.6
				C196.3,68.9,195.2,69,194.2,68.6z"/>
			<path class="st45" d="M182.6,44.2c0,0.7-1.2,1.3-2.7,1.3s-2.7-0.6-2.7-1.3s1.2-1.3,2.7-1.3C181.4,42.9,182.6,43.5,182.6,44.2z"/>
			<path class="st45" d="M199.2,58.8c0,0.7-1.2,1.3-2.7,1.3s-2.7-0.6-2.7-1.3s1.2-1.3,2.7-1.3S199.2,58.1,199.2,58.8z"/>
			<path class="st45" d="M154.3,63.7c0,0.7-0.8,1.3-1.7,1.3c-1,0-1.7-0.6-1.7-1.3s0.8-1.3,1.7-1.3S154.3,63,154.3,63.7z"/>
			<path class="st45" d="M181.7,80.4c0,0.7-0.8,1.3-1.7,1.3c-1,0-1.7-0.6-1.7-1.3c0-0.7,0.8-1.3,1.7-1.3S181.7,79.6,181.7,80.4z"/>
			<path class="st45" d="M165.3,39.5c0,0.7-0.8,1.3-1.7,1.3c-1,0-1.7-0.6-1.7-1.3s0.8-1.3,1.7-1.3S165.3,38.8,165.3,39.5z"/>
			<path class="st46" d="M158.7,50c0,0.6-0.7,1-1.5,1s-1.5-0.5-1.5-1c0-0.6,0.7-1,1.5-1S158.7,49.4,158.7,50z"/>
			<path class="st46" d="M189.8,42.9c0,0.6-0.7,1-1.5,1s-1.5-0.5-1.5-1c0-0.6,0.7-1,1.5-1S189.8,42.4,189.8,42.9z"/>
			<path class="st46" d="M198,52.9c0,0.6-0.7,1-1.5,1s-1.5-0.5-1.5-1c0-0.6,0.7-1,1.5-1C197.3,51.8,198,52.3,198,52.9z"/>
			<path class="st46" d="M190.2,76.2c0,0.6-0.7,1-1.5,1s-1.5-0.5-1.5-1c0-0.6,0.7-1,1.5-1C189.5,75.1,190.2,75.6,190.2,76.2z"/>
			<path class="st46" d="M160.4,73.6c0,0.6-0.7,1-1.5,1s-1.5-0.5-1.5-1c0-0.6,0.7-1,1.5-1S160.4,73,160.4,73.6z"/>
		</g>
		<g>
			<path class="st47" d="M112.5,150.4H52.4l3.8,21.6c0,1.3,2.1,3.3,6.7,5.1c5.2,2,12.2,3,19.6,3c7.5,0,14.4-1.1,19.6-3
				c4.6-1.7,6.7-3.8,6.7-5.1C108.8,171.9,112.5,150.4,112.5,150.4z"/>
			
				<linearGradient id="SVGID_5_" gradientUnits="userSpaceOnUse" x1="52.4" y1="63.2" x2="112.5" y2="63.2" gradientTransform="matrix(1 0 0 -1 0 228)">
				<stop  offset="0" style="stop-color:#F6C953"/>
				<stop  offset="1" style="stop-color:#D66D2A"/>
			</linearGradient>
			<path class="st48" d="M108.8,172c0-0.1,3.7-21.6,3.7-21.6H52.4l3.8,21.6c0,0.4,0.2,0.9,0.7,1.4c7.7-2.7,25.6-2.6,34.6,4.4
				c0.6,0.5,1.3,1,2.1,1.4c3.2-0.5,6.1-1.2,8.6-2.2C106.7,175.3,108.8,173.3,108.8,172z"/>
			<path class="st49" d="M82.8,150.4c0.5,0.2,0.9,0.4,1.4,0.5c11.1,3.3,13.1,25.1,12.6,27.4c0,0.1-0.1,0.2-0.1,0.3
				c1.9-0.4,3.7-1,5.3-1.6c4.6-1.7,6.7-3.8,6.7-5.1c0-0.1,3.7-21.6,3.7-21.6H82.8V150.4z"/>
			<g>
				<path class="st49" d="M61.6,161c0.4,5.2,0,7.5-0.9,7.6s-2-2.1-2.3-7.3c-0.4-5.2,0-9.5,0.9-9.6S61.2,155.8,61.6,161z"/>
				<path class="st49" d="M70.4,162.7c0.1,5.2-0.6,7.5-1.5,7.5s-1.7-2.2-1.8-7.4c-0.1-5.2,0.6-9.5,1.5-9.5
					C69.6,153.2,70.4,157.5,70.4,162.7z"/>
				<path class="st49" d="M79.3,163.7c0.1,5.2-0.6,7.5-1.5,7.5s-1.7-2.2-1.8-7.4c-0.1-5.2,0.6-9.5,1.5-9.5S79.2,158.5,79.3,163.7z"
					/>
				<path class="st50" d="M102.5,161c-0.4,5.2,0,7.5,0.9,7.6s2-2.1,2.3-7.3c0.4-5.2,0-9.5-0.9-9.6S102.9,155.8,102.5,161z"/>
				<path class="st50" d="M93.7,162.7c-0.1,5.2,0.6,7.5,1.5,7.5s1.7-2.2,1.8-7.4c0.1-5.2-0.6-9.5-1.5-9.5
					C94.6,153.2,93.8,157.5,93.7,162.7z"/>
				<path class="st49" d="M84.9,163.7c-0.1,5.2,0.6,7.5,1.5,7.5s1.7-2.2,1.8-7.4c0.1-5.2-0.6-9.5-1.5-9.5
					C85.7,154.3,84.9,158.5,84.9,163.7z"/>
			</g>
			<path class="st31" d="M82.4,162c-8.4,0-16.2-1.2-22.1-3.3c-5.2-1.9-7.5-4.2-7.5-5.6c0-1.4,2.3-3.6,7.5-5.6
				c5.9-2.1,13.7-3.3,22.1-3.3s16.2,1.2,22.1,3.3c5.2,1.9,7.5,4.2,7.5,5.6c0,1.4-2.3,3.6-7.5,5.6C98.7,160.8,90.8,162,82.4,162z"/>
			
				<linearGradient id="SVGID_6_" gradientUnits="userSpaceOnUse" x1="50.3822" y1="79.1" x2="114.4853" y2="79.1" gradientTransform="matrix(1 0 0 -1 0 228)">
				<stop  offset="0" style="stop-color:#FBC16F"/>
				<stop  offset="1" style="stop-color:#EC8940"/>
			</linearGradient>
			<path class="st51" d="M114.5,148.9c0,6.7-14.4,12.1-32.1,12.1s-32.1-5.4-32.1-12.1c0-6.7,14.4-12.1,32.1-12.1
				C100.1,136.8,114.5,142.2,114.5,148.9z"/>
			<path class="st52" d="M82.4,157.8c-8.2,0-15.8-1.2-21.5-3.3c-5.1-1.9-7.3-4.2-7.3-5.6c0-1.4,2.3-3.6,7.3-5.6
				c5.7-2.1,13.4-3.3,21.5-3.3c8.2,0,15.8,1.2,21.5,3.3c5.1,1.9,7.3,4.2,7.3,5.6c0,1.4-2.3,3.6-7.3,5.6
				C98.3,156.6,90.6,157.8,82.4,157.8z"/>
			<g>
				<g>
					<path class="st53" d="M101,137.6c-3.1,1.5-4.6,0.1-6.7,1.2c-5.4,3.1-3.6,8.1-2,10.2c2,2.8,6,3.1,9.1,2c2.7-0.9,4.9-3.6,5.2-6.5
						C107,141,104.3,136.1,101,137.6z"/>
					<path class="st54" d="M102.3,137.3c0,0.1,0.1,0.1,0.1,0.2v0.1c0.2,0.8,0.3,1.6,0.4,2.4c0,0.1-0.1,0.3-0.1,0.4
						c-0.8,2.1-3.7,2.2-5.5,3c-1,0.4-1.5,1.2-1.7,2c-1.1,1.8-0.8,4.1,0.4,5.9c1.8,0.4,3.8,0.3,5.5-0.3c2.7-0.9,4.9-3.6,5.2-6.5
						C106.9,141.5,105,137.3,102.3,137.3z"/>
					<path class="st54" d="M101.3,139.7c-0.1-0.9-1.3-0.7-1.7-0.2c-0.2,0.2-0.6,0.3-0.9,0.3c-0.1,0-0.3-0.1-0.4-0.1
						c-0.3-0.1-0.5-0.1-0.7,0c-0.8,0.1-0.8,1-0.6,1.6c0.1,0.3,0.4,0.5,0.7,0.6c0.3,0.1,0.9,0.2,1.2,0.1c0.6-0.1,1.2-0.2,1.7-0.5
						C101.1,141.3,101.4,140.4,101.3,139.7z"/>
					<path class="st55" d="M100.1,140.1c-0.3-0.2-0.6-0.3-0.9-0.1c-0.1,0.1-0.1,0.1-0.2,0.2h-0.1c-0.1,0-0.2,0-0.2,0l0,0
						c-0.6-0.4-1.3,0.6-0.7,1c0.2,0.2,0.5,0.2,0.8,0.2c0.1,0.1,0.3,0,0.5,0c0.3-0.1,0.6-0.1,0.8-0.3
						C100.4,141,100.4,140.4,100.1,140.1z"/>
					<path class="st55" d="M106.6,144.5c0.2-1.8-0.4-4-1.5-5.5c0.5,3.4,0.5,6.2-2.5,9c-1.3,1.2-3.3,2.8-5,3.2
						c-0.3,0.1-0.5,0.1-0.7,0.2c1.6,0.2,3.2,0,4.7-0.5C104.1,150.1,106.3,147.4,106.6,144.5z"/>
					<path class="st56" d="M94.1,143.8c0,0.2-0.1,0.4-0.3,0.5c-0.2,0-0.4-0.1-0.4-0.4c0-0.2,0.1-0.4,0.3-0.5
						C93.9,143.4,94.1,143.5,94.1,143.8z"/>
					<path class="st57" d="M93.8,147.6c0.3,0.5,0.8,0.3,0.6-0.2l0,0c-0.1-0.3-0.2-0.6-0.3-0.9c-0.6-2.1-0.1-3.6,2-3.5
						c0.6,0,3-0.1,1.2-0.4c-0.4-0.1-0.7-0.2-1-0.3c-0.7-0.2-1-0.3-1.3-0.9c-0.6-1.1,0.3-1.7,1.4-2c0.1,0,0.8,0,1-0.2
						c0.1-0.1,0.2-0.6-0.7-0.5c-1,0.2-1.9,0.1-2.8,0.7C90.2,142.4,93.8,147.6,93.8,147.6z"/>
				</g>
				<path class="st58" d="M93.9,140.8c-0.6-0.2-1.1,0.4-1,0.9c0,0.5,0.6,0.7,1,0.5c0.1,0.1,0.4,0.1,0.5-0.1
					C94.5,141.6,94.4,141,93.9,140.8z"/>
				<path class="st58" d="M94,143.9c-0.2-0.5-0.9-0.9-1.2-0.3c-0.2,0.4,0,1.2,0.4,1.4c0.1,0.1,0.2,0.1,0.3,0c0,0,0,0,0.1,0
					c0.3,0.1,0.6-0.1,0.6-0.4C94.2,144.5,94.1,144.2,94,143.9z"/>
			</g>
			<g>
				<g>
					<path class="st59" d="M94.5,138.3c-3.3-0.8-3.7-2.8-6-3.3c-6.2-1-7.8,4.1-8,6.7c-0.2,3.5,2.8,6.1,5.9,7.3
						c2.7,1,6.1,0.3,8.1-1.8C96.9,144.7,98,139.1,94.5,138.3z"/>
					<path class="st60" d="M95.6,138.9c0,0.1,0,0.1-0.1,0.2v0.1c-0.4,0.7-0.8,1.4-1.2,2.2c-0.1,0.1-0.2,0.2-0.4,0.3
						c-2,1.1-4.2-0.6-6.2-1.1c-1-0.3-1.9,0-2.5,0.5c-2,0.7-3.2,2.7-3.3,4.8c1.1,1.5,2.8,2.6,4.5,3.2c2.7,1,6.1,0.3,8.1-1.8
						C96.6,145,97.7,140.6,95.6,138.9z"/>
					<path class="st60" d="M93.3,140.1c0.4-0.8-0.6-1.4-1.3-1.2c-0.3,0.1-0.7-0.2-0.9-0.3c-0.1-0.1-0.2-0.3-0.3-0.4
						c-0.2-0.2-0.3-0.4-0.6-0.5c-0.7-0.4-1.3,0.2-1.5,0.9c-0.1,0.3,0,0.6,0.2,0.9c0.1,0.3,0.6,0.7,0.9,0.8c0.5,0.3,1.1,0.6,1.7,0.6
						C92.2,141.3,92.9,140.7,93.3,140.1z"/>
					<path class="st61" d="M92.2,139.7c0-0.4-0.3-0.6-0.6-0.6c-0.1,0-0.2,0-0.3,0c0,0-0.1,0-0.1-0.1c-0.1,0-0.1-0.1-0.2-0.1l0,0
						c-0.2-0.7-1.4-0.4-1.2,0.4c0.1,0.3,0.3,0.5,0.5,0.6c0.1,0.1,0.2,0.2,0.4,0.3c0.3,0.1,0.5,0.3,0.8,0.3
						C91.9,140.5,92.2,140.1,92.2,139.7z"/>
					<path class="st61" d="M94.5,147.2c1.3-1.3,2.2-3.4,2.2-5.2c-1.7,2.9-3.5,5.2-7.6,5.4c-1.8,0.1-4.3,0.1-5.9-0.7
						c-0.2-0.1-0.5-0.2-0.7-0.3c1.1,1.1,2.5,2,3.9,2.5C89.1,149.9,92.5,149.2,94.5,147.2z"/>
					<path class="st62" d="M85.2,138.8c-0.1,0.2-0.3,0.3-0.5,0.2s-0.2-0.3-0.1-0.5s0.3-0.3,0.5-0.2
						C85.3,138.3,85.3,138.6,85.2,138.8z"/>
					<path class="st63" d="M82.5,141.6c0,0.6,0.5,0.7,0.6,0.3l0,0c0.1-0.3,0.2-0.6,0.3-0.9c0.8-2,2.2-2.8,3.7-1.5
						c0.5,0.4,2.4,1.8,1.2,0.5c-0.2-0.3-0.4-0.6-0.6-0.9c-0.4-0.6-0.6-0.8-0.4-1.5c0.3-1.2,1.3-1.1,2.4-0.7c0.1,0,0.7,0.5,0.9,0.4
						c0.1,0,0.6-0.3-0.2-0.8c-0.9-0.5-1.5-1.1-2.6-1.2C83,135.3,82.5,141.6,82.5,141.6z"/>
				</g>
				<path class="st64" d="M86.9,136.3c-0.3-0.5-1.1-0.4-1.4,0.1c-0.3,0.4,0,0.9,0.4,1c0,0.2,0.2,0.4,0.4,0.2
					C86.8,137.4,87.2,136.8,86.9,136.3z"/>
				<path class="st64" d="M85,138.8c0.1-0.5-0.1-1.2-0.8-0.9c-0.4,0.2-0.8,0.9-0.6,1.4c0,0.1,0.1,0.2,0.2,0.2c0,0,0,0,0,0.1
					c0.2,0.3,0.5,0.3,0.7,0.1C84.8,139.4,84.9,139.1,85,138.8z"/>
			</g>
			<g>
				<g>
					<path class="st65" d="M80,135.1c-3.9,1.1-5.5-0.8-8.1,0.1c-7,2.7-5.7,8.8-4.3,11.6c1.9,3.7,6.5,4.7,10.3,4
						c3.3-0.6,6.4-3.3,7.3-6.6C86.3,140.2,84.1,133.9,80,135.1z"/>
					<path class="st66" d="M81.5,135c0,0.1,0,0.2,0.1,0.2v0.1c0,1,0,2,0,2.9c-0.1,0.2-0.1,0.3-0.2,0.5c-1.4,2.3-4.7,1.9-7.1,2.5
						c-1.2,0.3-2,1.1-2.3,2c-1.6,1.9-1.6,4.7-0.6,6.9c2,0.9,4.4,1,6.6,0.6c3.3-0.6,6.4-3.3,7.3-6.6C86.1,140.8,84.6,135.6,81.5,135z
						"/>
					<path class="st66" d="M79.9,137.7c0-1-1.4-1.1-2-0.5c-0.2,0.3-0.8,0.2-1.2,0.2c-0.1,0-0.4-0.2-0.5-0.2
						c-0.3-0.1-0.5-0.2-0.9-0.2c-1,0-1.2,1-1,1.8c0.1,0.4,0.4,0.6,0.7,0.8c0.3,0.2,1,0.4,1.4,0.4c0.7,0,1.5,0,2.1-0.3
						C79.4,139.5,79.9,138.5,79.9,137.7z"/>
					<path class="st67" d="M78.5,137.9c-0.2-0.3-0.6-0.4-1-0.3c-0.1,0.1-0.2,0.1-0.3,0.2h-0.1c-0.1,0-0.2,0-0.3,0c0,0,0,0-0.1,0
						c-0.7-0.6-1.6,0.4-1,1.1c0.3,0.3,0.6,0.3,0.9,0.4c0.2,0.1,0.4,0.1,0.5,0.1c0.4-0.1,0.7,0,1-0.2C78.6,139,78.7,138.3,78.5,137.9
						z"/>
					<path class="st67" d="M85.2,144.3c0.5-2.1,0.2-4.8-0.8-6.7c-0.1,4.1-0.6,7.4-4.6,10.1c-1.8,1.2-4.4,2.6-6.5,2.8
						c-0.3,0-0.6,0.1-0.9,0.1c1.8,0.5,3.7,0.6,5.5,0.3C81.3,150.3,84.4,147.6,85.2,144.3z"/>
					<path class="st68" d="M70.7,141.1c0,0.3-0.2,0.5-0.4,0.5c-0.2,0-0.4-0.2-0.4-0.5s0.2-0.5,0.4-0.5S70.7,140.8,70.7,141.1z"/>
					<path class="st69" d="M69.6,145.6c0.3,0.6,0.9,0.5,0.8-0.1l0,0c-0.1-0.4-0.2-0.7-0.2-1.1c-0.3-2.5,0.6-4.2,3-3.7
						c0.7,0.1,3.5,0.4,1.5-0.2c-0.4-0.1-0.8-0.4-1.2-0.6c-0.7-0.4-1.1-0.5-1.4-1.3c-0.4-1.4,0.6-1.9,2.1-2.1c0.1,0,1,0.1,1.2-0.1
						c0.1-0.1,0.4-0.7-0.7-0.7c-1.2,0-2.2-0.3-3.4,0.3C66.4,138.7,69.6,145.5,69.6,145.6z"/>
				</g>
				<path class="st70" d="M71.1,137.5c-0.6-0.4-1.3,0.2-1.4,0.9c0,0.6,0.6,0.9,1,0.7c0.1,0.2,0.5,0.2,0.6,0
					C71.6,138.7,71.6,137.8,71.1,137.5z"/>
				<path class="st70" d="M70.5,141.2c-0.2-0.6-0.9-1.2-1.4-0.5c-0.3,0.4-0.2,1.4,0.2,1.8c0.1,0.1,0.2,0.1,0.3,0.1c0,0,0,0,0.1,0.1
					c0.3,0.2,0.7,0,0.8-0.3C70.7,141.9,70.6,141.6,70.5,141.2z"/>
			</g>
			<g>
				<g>
					<path class="st67" d="M68.9,138.9c-3.9,1.1-5.4-0.8-8.1,0.1c-7,2.7-5.7,8.8-4.3,11.6c1.9,3.7,6.5,4.7,10.3,4
						c3.3-0.6,6.4-3.3,7.3-6.6C75.2,144,73,137.7,68.9,138.9z"/>
					<path class="st71" d="M68.1,138.9c-3.9,1.1-5.4-0.8-8.1,0.1c-7,2.7-5.7,8.8-4.3,11.6c1.9,3.7,6.5,4.7,10.3,4
						c3.3-0.6,6.4-3.3,7.3-6.6C74.4,144,72.2,137.7,68.1,138.9z"/>
					<path class="st72" d="M69.7,138.8c0,0.1,0,0.2,0.1,0.2v0.1c0,1,0,2,0,2.9c-0.1,0.2-0.1,0.3-0.2,0.5c-1.4,2.3-4.7,1.9-7.1,2.5
						c-1.2,0.3-2,1.1-2.3,2c-1.6,1.9-1.6,4.7-0.6,6.9c2,0.9,4.4,1,6.6,0.6c3.3-0.6,6.4-3.3,7.3-6.6
						C74.3,144.6,72.8,139.4,69.7,138.8z"/>
					<path class="st72" d="M68,141.5c0-1-1.4-1.1-2-0.5c-0.2,0.3-0.8,0.2-1.2,0.2c-0.1,0-0.4-0.2-0.5-0.2c-0.3-0.1-0.5-0.2-0.9-0.2
						c-1,0-1.2,1-1,1.8c0.1,0.4,0.4,0.6,0.7,0.8s1,0.4,1.4,0.4c0.7,0,1.5,0,2.1-0.3C67.6,143.3,68,142.3,68,141.5z"/>
					<path class="st73" d="M66.6,141.7c-0.2-0.3-0.6-0.4-1-0.3c-0.1,0.1-0.2,0.1-0.3,0.2h-0.1c-0.1,0-0.2,0-0.3,0c0,0,0,0-0.1,0
						c-0.7-0.6-1.6,0.4-1,1.1c0.3,0.2,0.6,0.3,0.9,0.4c0.2,0.1,0.4,0.1,0.5,0.1c0.4-0.1,0.7,0,1-0.2
						C66.8,142.8,66.9,142.1,66.6,141.7z"/>
					<path class="st73" d="M73.4,148.1c0.5-2.1,0.2-4.8-0.8-6.7c-0.1,4.1-0.6,7.4-4.6,10.1c-1.8,1.2-4.4,2.6-6.5,2.8
						c-0.3,0-0.6,0.1-0.9,0.1c1.8,0.5,3.7,0.6,5.5,0.3C69.4,154.1,72.5,151.4,73.4,148.1z"/>
					<path class="st74" d="M58.8,144.9c0,0.3-0.2,0.5-0.4,0.5s-0.4-0.2-0.4-0.5s0.2-0.5,0.4-0.5C58.7,144.4,58.8,144.6,58.8,144.9z"
						/>
					<path class="st75" d="M57.8,149.4c0.3,0.6,0.9,0.5,0.8-0.1l0,0c-0.1-0.4-0.2-0.7-0.2-1.1c-0.3-2.5,0.6-4.2,3-3.7
						c0.7,0.1,3.5,0.4,1.5-0.2c-0.4-0.1-0.8-0.4-1.2-0.6c-0.7-0.4-1.1-0.5-1.4-1.3c-0.4-1.4,0.6-1.9,2.1-2.1c0.1,0,1,0.1,1.2-0.1
						c0.1-0.1,0.4-0.7-0.7-0.7c-1.2,0-2.2-0.3-3.4,0.3C54.5,142.5,57.8,149.3,57.8,149.4z"/>
				</g>
				<path class="st76" d="M59.2,141.3c-0.6-0.4-1.3,0.2-1.4,0.9c0,0.6,0.6,0.9,1,0.7c0.1,0.2,0.5,0.2,0.6,0
					C59.7,142.5,59.7,141.6,59.2,141.3z"/>
				<path class="st76" d="M58.7,145c-0.2-0.6-0.9-1.2-1.4-0.5c-0.3,0.4-0.2,1.4,0.2,1.8c0.1,0.1,0.2,0.1,0.3,0.1c0,0,0,0,0.1,0.1
					c0.3,0.2,0.7,0,0.8-0.3C58.8,145.7,58.8,145.4,58.7,145z"/>
			</g>
			<g>
				<g>
					<path class="st73" d="M76,143c-3,1.8-4.7,0.6-6.7,1.9c-5.2,3.8-2.7,8.7-1,10.6c2.4,2.7,6.5,2.5,9.5,1c2.7-1.2,4.6-4.2,4.6-7.1
						C82.4,145.9,79.2,141.1,76,143z"/>
					<path class="st71" d="M76.8,143c-3,1.8-4.7,0.6-6.7,1.9c-5.2,3.8-2.7,8.7-1,10.6c2.4,2.7,6.5,2.5,9.5,1
						c2.7-1.2,4.6-4.2,4.6-7.1C83.2,145.9,80,141.1,76.8,143z"/>
					<path class="st72" d="M78,142.6c0,0.1,0.1,0.1,0.1,0.2c0,0,0,0.1,0.1,0.1c0.3,0.8,0.5,1.6,0.7,2.4c0,0.1,0,0.3-0.1,0.5
						c-0.6,2.2-3.5,2.6-5.3,3.7c-1,0.5-1.4,1.4-1.5,2.2c-0.9,1.9-0.3,4.3,1,5.9c1.9,0.3,3.9-0.1,5.6-0.9c2.7-1.2,4.6-4.2,4.6-7.1
						C83.2,146.4,80.8,142.3,78,142.6z"/>
					<path class="st72" d="M77.3,145.2c-0.2-0.9-1.4-0.6-1.8,0c-0.1,0.3-0.6,0.4-0.9,0.4c-0.1,0-0.3,0-0.5-0.1c-0.3-0.1-0.5,0-0.8,0
						c-0.8,0.2-0.7,1.1-0.5,1.7c0.1,0.3,0.5,0.4,0.8,0.5s0.9,0.1,1.2,0c0.6-0.2,1.2-0.3,1.7-0.7C77.3,146.8,77.4,145.9,77.3,145.2z"
						/>
					<path class="st73" d="M76.1,145.7c-0.3-0.2-0.6-0.2-0.9,0c-0.1,0.1-0.1,0.1-0.2,0.2h-0.1c-0.1,0-0.2,0-0.2,0.1l0,0
						c-0.7-0.3-1.3,0.7-0.6,1.1c0.3,0.2,0.5,0.2,0.8,0.1c0.2,0,0.3,0,0.5-0.1c0.3-0.1,0.6-0.2,0.8-0.4
						C76.5,146.5,76.5,146,76.1,145.7z"/>
					<path class="st73" d="M83.2,149.5c0-1.9-0.9-4-2.1-5.4c0.9,3.4,1.2,6.3-1.6,9.5c-1.2,1.4-3.1,3.2-4.8,3.8
						c-0.3,0.1-0.5,0.2-0.7,0.3c1.6,0,3.3-0.3,4.7-1C81.3,155.4,83.2,152.4,83.2,149.5z"/>
					<path class="st74" d="M70.4,150.1c0.1,0.2,0,0.5-0.2,0.5c-0.2,0.1-0.4-0.1-0.5-0.3s0-0.5,0.2-0.5
						C70.1,149.7,70.3,149.8,70.4,150.1z"/>
					<path class="st75" d="M70.5,154.1c0.4,0.5,0.9,0.2,0.6-0.2l0,0c-0.2-0.3-0.3-0.6-0.4-0.9c-0.8-2-0.5-3.6,1.7-3.8
						c0.6,0,3-0.4,1.2-0.5c-0.4,0-0.7-0.1-1.1-0.2c-0.7-0.1-1-0.2-1.4-0.8c-0.7-1.1,0.1-1.7,1.2-2.2c0.1-0.1,0.8-0.1,1-0.3
						c0.1-0.1,0.2-0.7-0.7-0.5c-1,0.3-1.9,0.3-2.8,1C66.3,149.1,70.5,154,70.5,154.1z"/>
				</g>
				<path class="st76" d="M69.9,147c-0.6-0.2-1.1,0.5-1,1s0.7,0.6,1,0.4c0.2,0.1,0.4,0.1,0.5-0.1C70.6,147.9,70.4,147.2,69.9,147z"
					/>
				<path class="st76" d="M70.3,150.2c-0.3-0.5-1-0.8-1.3-0.1c-0.2,0.4,0.1,1.2,0.6,1.4c0.1,0,0.2,0,0.3,0c0,0,0,0,0.1,0
					c0.3,0.1,0.6-0.2,0.6-0.5C70.6,150.8,70.4,150.5,70.3,150.2z"/>
			</g>
			<g>
				<g>
					<path class="st73" d="M103.7,141.7c-3.3,1-4.7-0.6-7,0.2c-6,2.4-4.7,7.7-3.5,10.1c1.7,3.2,5.7,3.9,9,3.3c2.9-0.6,5.5-3,6.2-5.8
						C109.2,146,107.2,140.6,103.7,141.7z"/>
					<path class="st71" d="M104.4,141.9c-3.3,1-4.7-0.6-7,0.2c-6,2.4-4.7,7.7-3.5,10.1c1.7,3.2,5.7,3.9,9,3.3c2.9-0.6,5.5-3,6.2-5.8
						C109.9,146.2,108,140.8,104.4,141.9z"/>
					<path class="st72" d="M105.7,141.8c0,0.1,0,0.1,0.1,0.2v0.1c0.1,0.8,0.1,1.7,0.1,2.5c-0.1,0.1-0.1,0.3-0.2,0.4
						c-1.2,2-4,1.7-6.1,2.3c-1.1,0.3-1.7,1-2,1.8c-1.3,1.6-1.3,4.1-0.4,6c1.8,0.7,3.8,0.8,5.7,0.4c2.9-0.6,5.5-3,6.2-5.8
						C109.8,146.6,108.4,142.2,105.7,141.8z"/>
					<path class="st72" d="M104.4,144.1c0-0.9-1.3-0.9-1.7-0.4c-0.2,0.2-0.7,0.2-1,0.2c-0.1,0-0.3-0.1-0.4-0.2
						c-0.3-0.1-0.5-0.1-0.7-0.1c-0.8,0-1,0.9-0.9,1.5c0.1,0.3,0.4,0.5,0.6,0.7c0.3,0.2,0.9,0.3,1.2,0.3c0.6,0,1.3,0,1.8-0.3
						C104,145.7,104.4,144.8,104.4,144.1z"/>
					<path class="st73" d="M103.1,144.3c-0.2-0.3-0.5-0.4-0.9-0.2c-0.1,0-0.2,0.1-0.2,0.2h-0.1c-0.1,0-0.2,0-0.3,0l0,0
						c-0.6-0.5-1.4,0.4-0.8,0.9c0.2,0.2,0.5,0.3,0.8,0.3c0.1,0.1,0.3,0.1,0.5,0.1c0.3-0.1,0.6-0.1,0.9-0.2
						C103.3,145.2,103.4,144.6,103.1,144.3z"/>
					<path class="st73" d="M109.1,149.7c0.4-1.8,0.1-4.1-0.8-5.8c0,3.5-0.4,6.4-3.8,8.8c-1.5,1-3.7,2.3-5.6,2.5
						c-0.3,0-0.5,0.1-0.8,0.1c1.5,0.4,3.2,0.5,4.8,0.2C105.8,154.9,108.4,152.5,109.1,149.7z"/>
					<path class="st74" d="M96.5,147.1c0,0.2-0.1,0.4-0.3,0.4c-0.2,0-0.4-0.2-0.4-0.4s0.1-0.4,0.3-0.4
						C96.3,146.7,96.5,146.9,96.5,147.1z"/>
					<path class="st75" d="M95.6,151.1c0.3,0.5,0.8,0.4,0.7-0.1l0,0c-0.1-0.3-0.2-0.6-0.2-1c-0.3-2.2,0.4-3.6,2.5-3.3
						c0.6,0.1,3,0.3,1.3-0.2c-0.4-0.1-0.7-0.3-1-0.5c-0.6-0.3-1-0.4-1.2-1.1c-0.4-1.2,0.5-1.7,1.7-1.8c0.1,0,0.8,0.1,1-0.1
						c0.1-0.1,0.3-0.6-0.6-0.6c-1.1,0-1.9-0.2-2.9,0.3C92.7,145.2,95.6,151,95.6,151.1z"/>
				</g>
				<path class="st76" d="M96.8,144.1c-0.5-0.3-1.2,0.2-1.2,0.8c0,0.5,0.5,0.8,0.9,0.6c0.1,0.2,0.4,0.2,0.5,0
					C97.2,145.1,97.2,144.3,96.8,144.1z"/>
				<path class="st76" d="M96.3,147.3c-0.2-0.5-0.8-1-1.2-0.4c-0.3,0.4-0.2,1.2,0.2,1.5c0.1,0.1,0.2,0.1,0.3,0.1c0,0,0,0,0.1,0.1
					c0.3,0.2,0.6,0,0.7-0.3C96.5,147.9,96.4,147.6,96.3,147.3z"/>
			</g>
			<g>
				<g>
					<path class="st73" d="M91.8,143.4c-3.7,0.5-4.9-1.4-7.4-0.9c-6.7,1.5-6.3,7.3-5.4,10c1.2,3.6,5.3,5.1,8.9,5
						c3.1-0.1,6.3-2.2,7.5-5.1C96.9,148.8,95.7,142.8,91.8,143.4z"/>
					<path class="st71" d="M92.6,143.7c-3.7,0.5-4.9-1.4-7.4-0.9c-6.7,1.5-6.3,7.3-5.4,10c1.2,3.6,5.3,5.1,8.9,5
						c3.1-0.1,6.3-2.2,7.5-5.1C97.7,149.2,96.5,143.1,92.6,143.7z"/>
					<path class="st72" d="M94,143.8c0,0.1,0,0.2,0,0.2v0.1c-0.1,0.9-0.2,1.8-0.4,2.7c-0.1,0.1-0.2,0.3-0.3,0.4
						c-1.6,1.9-4.5,1.1-6.8,1.4c-1.2,0.1-2,0.7-2.4,1.5c-1.7,1.5-2.1,4.1-1.5,6.3c1.7,1,3.9,1.5,5.9,1.4c3.1-0.1,6.3-2.2,7.5-5.1
						C97.5,149.6,96.8,144.7,94,143.8z"/>
					<path class="st72" d="M92.1,146c0.1-0.9-1.2-1.2-1.8-0.7c-0.3,0.2-0.8,0.1-1.1,0.1c-0.1,0-0.3-0.2-0.4-0.3
						c-0.2-0.2-0.5-0.2-0.8-0.3c-0.9-0.1-1.2,0.8-1.2,1.5c0,0.3,0.3,0.6,0.5,0.8s0.9,0.5,1.2,0.5c0.6,0.1,1.4,0.2,1.9,0
						C91.5,147.6,92,146.8,92.1,146z"/>
					<path class="st73" d="M90.8,146.1c-0.2-0.3-0.5-0.5-0.9-0.4c-0.1,0-0.2,0.1-0.3,0.1h-0.1c-0.1,0-0.2,0-0.3,0c0,0,0,0-0.1,0
						c-0.5-0.6-1.5,0.2-1,0.8c0.2,0.3,0.5,0.4,0.8,0.5c0.1,0.1,0.3,0.1,0.5,0.1c0.3,0,0.6,0,1-0.1C90.9,147,91,146.4,90.8,146.1z"/>
					<path class="st73" d="M96.2,152.7c0.8-1.8,0.8-4.3,0.2-6.2c-0.6,3.7-1.5,6.7-5.5,8.6c-1.8,0.8-4.3,1.8-6.3,1.7
						c-0.3,0-0.6,0-0.9,0c1.6,0.7,3.3,1,5,1C91.8,157.7,95,155.6,96.2,152.7z"/>
					<path class="st74" d="M83.3,147.9c0,0.3-0.2,0.4-0.4,0.4c-0.2,0-0.3-0.3-0.3-0.5c0-0.3,0.2-0.4,0.4-0.4
						C83.2,147.4,83.4,147.6,83.3,147.9z"/>
					<path class="st75" d="M81.8,151.9c0.2,0.6,0.8,0.5,0.7,0l0,0c0-0.3-0.1-0.7,0-1c0.1-2.3,1.1-3.8,3.2-3c0.6,0.2,3.1,0.9,1.4,0
						c-0.4-0.2-0.7-0.4-1-0.7c-0.6-0.4-0.9-0.6-1.1-1.4c-0.2-1.3,0.8-1.7,2.1-1.6c0.1,0,0.9,0.2,1.1,0.1c0.1-0.1,0.4-0.6-0.5-0.7
						c-1.1-0.2-2-0.5-3.1-0.2C79.7,145.2,81.7,151.8,81.8,151.9z"/>
				</g>
				<path class="st76" d="M84.1,144.7c-0.5-0.4-1.3,0-1.4,0.6c-0.1,0.5,0.4,0.9,0.8,0.8c0.1,0.2,0.4,0.3,0.6,0.1
					C84.4,145.8,84.5,145.1,84.1,144.7z"/>
				<path class="st76" d="M83.1,148c-0.1-0.6-0.6-1.2-1.2-0.6c-0.3,0.4-0.4,1.3-0.1,1.6c0.1,0.1,0.2,0.1,0.3,0.1c0,0,0,0,0.1,0.1
					c0.3,0.2,0.6,0.1,0.8-0.2C83.2,148.7,83.2,148.3,83.1,148z"/>
			</g>
		</g>
		<g>
			<g>
				<g>
					<path class="st77" d="M153,161.3v7c2.3,7.1,13.5,12.4,27,12.4s24.7-5.4,27-12.4v-7.1L153,161.3z"/>
					<path class="st78" d="M153,143.5v20.1c2.3,7.1,13.5,12.4,27,12.4s24.7-5.4,27-12.4v-20.1H153z"/>
					<path class="st79" d="M207,168.3v-24.8h-17c-1,0.9-2.9,1.9-2.9,3.6c0,10.7-0.4,22.3,0.1,33.1
						C197.3,178.7,205.1,174.1,207,168.3z"/>
					<path class="st80" d="M152.6,136.2l0.4,7.5c2.3,7.1,13.5,12.4,27,12.4s24.7-5.4,27-12.4l0.4-7.5H152.6z"/>
					<path class="st81" d="M207.4,136.2c0,8.3-12.3,15.1-27.4,15.1c-15.1,0-27.4-6.8-27.4-15.1s12.3-15.1,27.4-15.1
						C195.1,121.1,207.4,127.9,207.4,136.2z"/>
					<path class="st82" d="M207.4,136.2c0,7.2-11.5,13.1-25.6,13.1s-25.6-5.9-25.6-13.1c0-7.2,11.5-13.1,25.6-13.1
						S207.4,129,207.4,136.2z"/>
					<path class="st83" d="M206.9,143.8c0-0.3,0-0.5,0-0.8c0-7.2-12.1-13.1-27-13.1s-27,5.9-27,13.1c0,0.3,0,0.5,0.1,0.8
						c2.4,7,13.5,12.3,26.9,12.3C193.4,156.1,204.6,150.8,206.9,143.8z"/>
					<path class="st84" d="M171,159.2c0-1.9-1-3.1-2.2-3.7c-1-0.7-2.2-0.9-3.2-1.1c-1.6-0.3-2.4-1-3.9-1.4c-3.8-1.1-6.1,2.8-5.1,5.7
						c0,0.2,0,0.3,0,0.5c0,1.9-0.3,3.8,0,5.5c-0.1,1.2-0.2,2.5,0.5,3.6c1.4,2.3,4.6,3.4,7,4C171.7,174.4,171,163.9,171,159.2z"/>
					<path class="st85" d="M196.5,137c0,3.3-7.3,6.1-16.4,6.1c-9.1,0-16.4-2.7-16.4-6.1c0-3.3,7.3-6.1,16.4-6.1
						S196.5,133.6,196.5,137z"/>
					<path class="st86" d="M207.3,138.4c0,4.1-9.1,7.5-20.3,7.5s-20.3-3.4-20.3-7.5s9.1-7.5,20.3-7.5S207.3,134.3,207.3,138.4z"/>
					<g>
						<path class="st78" d="M180,150.2c0,0-0.5,0-1.4,0.1c-0.4,0-1,0-1.6,0c-0.3,0-0.6,0-1,0c-0.3,0-0.7,0-1.1-0.1
							c-1.5-0.1-3.3-0.3-5.2-0.7c-0.9-0.2-1.9-0.4-2.9-0.7s-1.9-0.6-2.9-1s-1.9-0.8-2.8-1.3c-0.9-0.5-1.7-1-2.5-1.6
							s-1.5-1.2-2.1-1.9c-0.6-0.6-1.1-1.3-1.5-2s-0.7-1.3-0.9-1.9c-0.1-0.3-0.2-0.6-0.2-0.9c0-0.3-0.1-0.5-0.1-0.7
							c0-0.4-0.1-0.8,0-1c0-0.2,0-0.4,0-0.4s0,0.1,0,0.4c0,0.2,0.1,0.6,0.2,1c0.1,0.2,0.1,0.4,0.2,0.7c0.1,0.2,0.2,0.5,0.3,0.8
							c0.3,0.5,0.6,1.1,1,1.7c0.5,0.6,1,1.2,1.6,1.7c0.6,0.6,1.3,1.1,2.1,1.6s1.6,1,2.5,1.4s1.8,0.9,2.7,1.2c0.9,0.4,1.9,0.7,2.8,1
							c0.9,0.3,1.9,0.6,2.8,0.8c0.9,0.2,1.8,0.4,2.6,0.6c0.8,0.2,1.6,0.3,2.4,0.4c0.7,0.1,1.4,0.2,2,0.3s1.1,0.1,1.6,0.2
							C179.5,150.1,180,150.2,180,150.2z"/>
					</g>
				</g>
			</g>
			<g>
				<path class="st23" d="M155.5,125.1c1.5,8.3,14.8,17,27,14.7s21.5-15,20-23.4L155.5,125.1z"/>
				<path class="st24" d="M182.1,137.5c11.1-2.1,19.8-12.8,20.1-21l-46.4,8.6C159,132.6,170.9,139.6,182.1,137.5z"/>
				<path class="st25" d="M181.7,135.5c10.2-1.9,18.3-11.1,19.8-18.9l-45.1,8.3C160.7,131.7,171.5,137.4,181.7,135.5z"/>
				<path class="st26" d="M201.5,116.6l-1.6,0.3c-1.6,3.9-5.3,8.7-8,11.2c-2.2,2-5.6,3.2-8.3,4.1c-2.8,1-14.2,1.2-16.8-0.2
					c-2.1-1.2-6.7-4.8-8.7-7.2c0-0.1-0.1-0.1-0.1-0.2l-1.5,0.3c4.2,6.8,15.1,12.4,25.3,10.6C191.9,133.6,200,124.5,201.5,116.6z"/>
				<path class="st24" d="M178.6,120.7c-0.1,0-0.2,0.1-0.4,0.1h-0.1c-0.2-0.1-0.4-0.1-0.7-0.1c-1.6,0.3-1.2,2.7,0.3,2.6
					c0.2,0.1,0.4,0.1,0.7,0.1c0.1,0,0.2-0.1,0.3-0.1s0.2,0,0.3,0C180.8,123,180.3,120.4,178.6,120.7z"/>
				<g>
					<g>
						<polygon class="st24" points="179.5,135.9 178.3,122 182.1,135.4 						"/>
					</g>
				</g>
				<g>
					<g>
						<polygon class="st24" points="168.1,134.3 178.3,122 170.5,135.9 						"/>
					</g>
				</g>
				<g>
					<g>
						<polygon class="st24" points="160,129 178.3,122 161.3,131.9 						"/>
					</g>
				</g>
				<g>
					<g>
						<polygon class="st24" points="191.5,132.6 178.3,122 193.1,130.2 						"/>
					</g>
				</g>
				<g>
					<g>
						<polygon class="st24" points="199.3,124.7 178.3,122 199.5,121.5 						"/>
					</g>
				</g>
			</g>
		</g>
		<g>
			<g>
				<g>
					<path class="st87" d="M73.7,150.1H20.2l4.6,21.6c0,1.3,0.6,3.3,4.7,5.1c4.6,2,10.8,3,17.4,3s12.8-1.1,17.4-3
						c4.1-1.7,4.7-3.8,4.7-5.1C69.2,171.6,73.7,150.1,73.7,150.1z"/>
					
						<linearGradient id="SVGID_7_" gradientUnits="userSpaceOnUse" x1="20.2" y1="63.5" x2="73.7" y2="63.5" gradientTransform="matrix(1 0 0 -1 0 228)">
						<stop  offset="0" style="stop-color:#EBBA68"/>
						<stop  offset="1" style="stop-color:#CB613D"/>
					</linearGradient>
					<path class="st88" d="M69.2,171.7c0-0.1,4.5-21.6,4.5-21.6H20.2l4.6,21.6c0,0.4,0.2,0.9,0.6,1.4c6.8-2.7,21.6-2.6,29.5,4.4
						c0.6,0.5,1.2,1,1.8,1.4c2.8-0.5,5.4-1.2,7.6-2.2C68.5,175,69.2,173,69.2,171.7z"/>
					<path class="st89" d="M47.3,150.1c0.4,0.2,0.8,0.4,1.2,0.5c9.9,3.3,11.7,25.1,11.2,27.4c0,0.1-0.1,0.2-0.1,0.3
						c1.7-0.4,3.3-1,4.8-1.6c4.1-1.7,4.7-3.8,4.7-5.1c0-0.1,4.5-21.6,4.5-21.6H47.3V150.1z"/>
					<g>
						<path class="st89" d="M28.4,160.7c0.3,5.2,0,7.5-0.8,7.6s-1.7-2.1-2.1-7.3c-0.3-5.2,0-9.5,0.8-9.6
							C27.1,151.4,28.1,155.5,28.4,160.7z"/>
						<path class="st89" d="M36.3,162.4c0.1,5.2-0.5,7.5-1.3,7.5s-1.5-2.2-1.6-7.4s0.5-9.5,1.3-9.5S36.2,157.2,36.3,162.4z"/>
						<path class="st89" d="M44.2,163.4c0.1,5.2-0.5,7.5-1.3,7.5s-1.5-2.2-1.6-7.4s0.5-9.5,1.3-9.5S44.1,158.2,44.2,163.4z"/>
						<path class="st90" d="M64.8,160.7c-0.3,5.2,0,7.5,0.8,7.6s1.7-2.1,2.1-7.3s0-9.5-0.8-9.6C66.1,151.4,65.2,155.5,64.8,160.7z"
							/>
						<path class="st90" d="M57,162.4c-0.1,5.2,0.5,7.5,1.3,7.5s1.5-2.2,1.6-7.4s-0.5-9.5-1.3-9.5C57.7,153,57,157.2,57,162.4z"/>
						<path class="st89" d="M49.1,163.4c-0.1,5.2,0.5,7.5,1.3,7.5s1.5-2.2,1.6-7.4s-0.5-9.5-1.3-9.5C49.9,154,49.2,158.2,49.1,163.4
							z"/>
					</g>
					
						<linearGradient id="SVGID_8_" gradientUnits="userSpaceOnUse" x1="19.8" y1="79.4" x2="74.2" y2="79.4" gradientTransform="matrix(1 0 0 -1 0 228)">
						<stop  offset="0" style="stop-color:#F0C283"/>
						<stop  offset="1" style="stop-color:#E15A23"/>
					</linearGradient>
					<path class="st91" d="M74.2,148.6c0,6.7-12.2,12.1-27.2,12.1s-27.2-5.4-27.2-12.1c0-6.7,12.2-12.1,27.2-12.1
						C62,136.6,74.2,142,74.2,148.6z"/>
					<path class="st92" d="M47.3,160.1c-15,0-27.2-5.4-27.2-12.1c0-1.5,0.6-2.9,1.7-4.1c-1.3,1.4-2,3-2,4.6
						c0,6.7,12.2,12.1,27.2,12.1c11.7,0,21.7-3.3,25.6-7.9C68.4,157,58.7,160.1,47.3,160.1z"/>
					<path class="st93" d="M47,157.5c-6.9,0-13.4-1.2-18.3-3.3c-4.3-1.9-6.2-4.2-6.2-5.6c0-1.4,1.9-3.6,6.2-5.6
						c4.8-2.1,11.3-3.3,18.3-3.3c6.9,0,13.4,1.2,18.3,3.3c4.3,1.9,6.2,4.2,6.2,5.6c0,1.4-1.9,3.6-6.2,5.6
						C60.4,156.3,53.9,157.5,47,157.5z"/>
				</g>
				<path class="st94" d="M73.5,144.1c0,6.8-11.9,12.3-26.5,12.3c-14.7,0-26.5-5.5-26.5-12.3s11.9-10.2,26.5-10.2
					C61.6,133.9,73.5,137.3,73.5,144.1z"/>
				<path class="st94" d="M70.7,133.8c0,6.8-10.6,12.3-23.7,12.3s-23.7-5.5-23.7-12.3S33.9,125,47,125S70.7,127,70.7,133.8z"/>
				<path class="st94" d="M61.4,126.8c-0.1-5.6-4.6-13.6-10.7-14.5c-2.4-0.3-4.4-1.5-6,0.8c-0.5,0.7-0.2,2.4-0.1,3.1
					c0.6,3.9-0.8,6.1-4.1,8.1c-5,3,0.3,7.8,4.2,8.3c1.9,0.3,3.9,0.7,5.9,0.7c1.3,0,2.5-0.8,3.7-1c1-0.2,2.9-1.3,3.7-1.9
					c0.1-0.1,0.2-0.2,0.3-0.4c1.2-0.5,2.3-1.2,2.5-2.4C61.1,127.6,61.4,127.3,61.4,126.8z"/>
				<path class="st95" d="M69.2,138c0.9-1.3,1.4-2.7,1.4-4.2c0-4-3.7-6.3-9.3-7.6c-0.4-5.5-4.8-13.1-10.7-13.9
					c-0.7-0.1-1.4-0.3-2.1-0.4c0.6,0.5,1.3,0.9,2,1.3c1.5,0.9,2.9,1.9,4,3.2c1,1.2,1.9,2.8,2.5,4.2c0.6,1.3,1.5,3,1.7,4.5
					c0.1,0.8,0.3,2.1,0.9,2.7c0.2,0.2,0.6,0.2,0.8,0.3c1,0.2,1.9,0.8,2.8,1.2c2.3,1.1,3,3.7,3,6c0,0.6-0.1,1.2-0.1,1.9
					c-0.1,1.7-1.6,2-2.9,2.4c-0.4,0.1-0.2,0.7,0.2,0.8c0.6,0.1,1.2,0,1.8,0c1.9,0,2,2,2.2,3.3c0.4,2.1-0.1,3.9-0.9,5.9
					c-1.4,3.4-6,3.9-8.9,5.3c-0.2,0.1-0.2,0.3-0.2,0.4c9.4-1.9,16-6.2,16-11.3C73.5,141.6,71.9,139.6,69.2,138z"/>
				<path class="st96" d="M63.9,143.8c0,4.1-9.4,7.4-20.9,7.4s-20.9-3.3-20.9-7.4c0-4.1,9.4-6.2,20.9-6.2
					C54.6,137.7,63.9,139.7,63.9,143.8z"/>
				<path class="st96" d="M65.4,132.2c0,5.5-9.4,10-21.1,10c-11.6,0-21.1-4.5-21.1-10s9.4-7.2,21.1-7.2S65.4,126.6,65.4,132.2z"/>
				<path class="st96" d="M56.5,126.8c-0.1-5.6-3.6-13.6-8.4-14.5c-1.9-0.3-3.4-1.5-4.8,0.8c-0.4,0.7-0.2,2.4-0.1,3.1
					c0.5,3.9-0.6,6.1-3.2,8.1c-3.9,3,0.2,7.8,3.3,8.3c1.5,0.3,3.1,0.7,4.6,0.7c1,0,2-0.8,2.9-1c0.8-0.2,2.3-1.3,2.9-1.9
					c0.1-0.1,0.2-0.2,0.3-0.4c1-0.5,1.8-1.2,2-2.4C56.2,127.6,56.5,127.3,56.5,126.8z"/>
				<path class="st97" d="M41.4,136.4c-6.2,0-10.9-2.4-10.9-4.5c0-1.8,4.1-2.9,10.9-2.9s10.8,1.1,10.8,2.9
					C52.3,134,47.6,136.4,41.4,136.4z"/>
				<path class="st97" d="M44.7,149.2c-5.8,0-10.1-2.4-10.1-4.5c0-1.8,3.8-2.9,10.1-2.9s10.1,1.1,10.1,2.9
					C54.8,146.8,50.5,149.2,44.7,149.2z"/>
				<path class="st97" d="M45.3,122.8c-0.2,1.4-0.4,2.9-0.1,4.1c0.6,1.8,4.1,1.3,5.2,0.2c1.5-1.5,1.8-3.5,1.8-5.6
					c-1.2-3.2-3.1-5.9-4.8-6.2c-0.5-0.1-0.9-0.2-1.2-0.3c0,0.2,0.1,0.8,0.1,0.8C46.7,118.6,46.3,120.9,45.3,122.8z"/>
				<path class="st98" d="M41.2,126.7c0,0.6-0.7,1-1.5,1s-1.5-0.5-1.5-1c0-0.6,0.7-1,1.5-1C40.6,125.6,41.2,126.1,41.2,126.7z"/>
				<path class="st98" d="M45.9,116.4c0,0.6-0.7,1-1.5,1s-1.5-0.5-1.5-1c0-0.6,0.7-1,1.5-1S45.9,115.8,45.9,116.4z"/>
				<path class="st98" d="M54.8,124.6c0,0.6-0.7,1-1.5,1s-1.5-0.5-1.5-1c0-0.6,0.7-1,1.5-1C54.2,123.5,54.8,124,54.8,124.6z"/>
				<path class="st98" d="M62.6,132.7c0,0.6-0.7,1-1.5,1s-1.5-0.5-1.5-1c0-0.6,0.7-1,1.5-1C61.9,131.6,62.6,132.1,62.6,132.7z"/>
				<path class="st98" d="M42.8,135.9c0,0.6-0.7,1-1.5,1s-1.5-0.5-1.5-1c0-0.6,0.7-1,1.5-1S42.8,135.3,42.8,135.9z"/>
				<path class="st98" d="M28.5,129c0,0.6-0.7,1-1.5,1s-1.5-0.5-1.5-1c0-0.6,0.7-1,1.5-1S28.5,128.4,28.5,129z"/>
				<path class="st98" d="M29.1,143.3c0,0.6-0.7,1-1.5,1s-1.5-0.5-1.5-1c0-0.6,0.7-1,1.5-1C28.4,142.2,29.1,142.7,29.1,143.3z"/>
				<path class="st98" d="M53.3,143.9c0,0.6-0.7,1-1.5,1s-1.5-0.5-1.5-1c0-0.6,0.7-1,1.5-1S53.3,143.3,53.3,143.9z"/>
				<path class="st98" d="M68.5,142.9c0,0.6-0.7,1-1.5,1s-1.5-0.5-1.5-1c0-0.6,0.7-1,1.5-1C67.8,141.8,68.5,142.3,68.5,142.9z"/>
			</g>
			<g>
				<path class="st99" d="M33.8,131.1L33.8,131.1L33.8,131.1z"/>
				<path class="st99" d="M34.5,128.5c-0.2-0.7,0.2-1.4-0.5-1.9c-0.6-0.4-1.2,0.4-1.3,0.9c-0.1,0.2-0.1,0.5-0.1,0.8
					c-0.1,0.1-0.1,0.2-0.2,0.3c-0.2,0.3-0.2,0.7-0.4,1c-0.2,0.5-0.4,1.3,0.2,1.7c0.4,0.2,1,0,1.4-0.2c0.1,0,0.1,0,0.2,0
					c0,0,0,0-0.1,0c0.1,0,0.3,0,0.4-0.1c0.3-0.1,0.6-0.3,0.7-0.6C35.2,129.9,34.7,129.1,34.5,128.5z"/>
			</g>
			<g>
				<path class="st99" d="M61.7,147.3L61.7,147.3L61.7,147.3z"/>
				<path class="st99" d="M61.4,144.7c-0.5-0.5-0.4-1.4-1.2-1.5c-0.7-0.1-0.9,0.8-0.9,1.3c0,0.3,0.1,0.5,0.2,0.8
					c0,0.1,0,0.2-0.1,0.3c0,0.4,0,0.7,0,1.1c0,0.6,0.1,1.4,0.8,1.5c0.5,0,0.9-0.4,1.2-0.7c0-0.1,0.1-0.1,0.1-0.1s0,0-0.1,0
					c0.1-0.1,0.3-0.1,0.4-0.2c0.2-0.2,0.4-0.5,0.5-0.8C62.5,145.6,61.8,145.1,61.4,144.7z"/>
			</g>
			<g>
				<path class="st99" d="M53.6,131.7L53.6,131.7L53.6,131.7z"/>
				<path class="st99" d="M55.3,130.2c0.1-0.6,0.7-1,0.4-1.6c-0.3-0.6-1-0.2-1.3,0.1c-0.2,0.1-0.3,0.3-0.4,0.5
					c-0.1,0-0.2,0.1-0.3,0.1c-0.3,0.1-0.5,0.4-0.7,0.6c-0.4,0.3-0.9,0.8-0.6,1.3c0.2,0.4,0.7,0.4,1.1,0.5c0.1,0,0.1,0,0.1,0l0,0
					c0.1,0.1,0.2,0.1,0.3,0.1c0.2,0.1,0.6,0,0.8-0.1C55.2,131.5,55.2,130.7,55.3,130.2z"/>
			</g>
			<path class="st99" d="M44.6,124.7L44.6,124.7c-0.3-0.4-0.6-0.7-0.7-1.1s0-0.7-0.3-1c-0.2-0.2-0.4-0.3-0.7-0.3
				c-0.3,0.1-0.4,0.2-0.6,0.4c-0.1,0.2-0.3,0.3-0.5,0.4c-0.3,0.2-0.8,0.8-0.3,1.3c0.3,0.3,0.8,0.4,1.2,0.7c0.5,0.3,0.9,0.8,1.6,0.6
				C44.7,125.6,44.9,125,44.6,124.7z"/>
			<path class="st99" d="M53.2,137.2c-0.1,0-0.1,0-0.2,0.1c-0.4,0.1-0.8,0.1-1.2,0c-0.3-0.1-0.6-0.3-1-0.3c-0.3,0-0.5,0.2-0.6,0.4
				c-0.1,0.3,0,0.5,0.1,0.7s0.1,0.4,0.1,0.6c0,0.4,0.3,1.1,1,0.9c0.4-0.1,0.8-0.5,1.2-0.7c0.5-0.3,1.1-0.4,1.3-1
				C54,137.5,53.6,137,53.2,137.2z"/>
			<path class="st99" d="M36.5,145.7c-0.1,0-0.1,0-0.2,0.1c-0.4,0-0.8,0.1-1.2,0c-0.3-0.1-0.6-0.3-1-0.3c-0.3,0-0.5,0.2-0.6,0.4
				c-0.1,0.3,0,0.5,0.1,0.7s0.1,0.4,0.1,0.6c0,0.4,0.3,1.1,1,0.9c0.4-0.1,0.8-0.5,1.2-0.7c0.5-0.3,1.1-0.4,1.3-1
				C37.3,146.1,36.9,145.6,36.5,145.7z"/>
			<path class="st99" d="M33.6,139.1l-0.1-0.1c-0.2-0.4-0.4-0.7-0.4-1.1c0-0.4,0.1-0.7,0-1.1c-0.1-0.3-0.3-0.4-0.6-0.4
				s-0.5,0.1-0.7,0.3s-0.4,0.2-0.6,0.3c-0.3,0.2-0.9,0.7-0.5,1.2c0.3,0.4,0.7,0.6,1.1,0.9c0.4,0.4,0.7,0.9,1.4,0.9
				C33.6,140,33.9,139.5,33.6,139.1z"/>
		</g>
		<g>
			<path class="st100" d="M93,68.9c0,0,2-1.4,4.6-1.4c2.7,0,4.4,1.4,4.4,1.4l-3.7,3.2L93,68.9z"/>
			<g>
				<path class="st101" d="M84.9,173.9c0,0-2.1,1.6-4.3,3.1c-2.2,1.5-2.1,4-2.1,4h13.9c0,0,0.4-5.8-1.1-7.1
					C89,173.9,84.9,173.9,84.9,173.9z"/>
				<rect x="78.5" y="180.2" class="st102" width="14" height="0.9"/>
			</g>
			<g>
				<path class="st101" d="M112.5,173.9c0,0,2.1,1.6,4.3,3.1c2.2,1.5,2.1,4,2.1,4H105c0,0-0.4-5.8,1.1-7.1
					C108.4,173.9,112.5,173.9,112.5,173.9z"/>
				<rect x="104.9" y="180.1" class="st102" width="14" height="0.9"/>
			</g>
			<g>
				<g>
					<g>
						<g>
							<path class="st103" d="M94.2,67.2c0,0,0.2,2.5-0.2,3.9c-0.2,0.8,4,4.6,4,4.6s3.1-2.5,3.3-4.6c-0.1-1.7-0.4-3.9-0.4-3.9H94.2z
								"/>
							<g>
								<g>
									<path class="st104" d="M91.4,59c0,0-0.9-0.5-1.4,0.7c-0.6,1.1,0.5,2.9,1.4,3C92.4,62.6,91.4,59,91.4,59z"/>
									<path class="st104" d="M104.5,58.9c0,0,0.9-0.3,1.3,0.9s-0.9,2.8-1.9,2.7C103,62.4,104.5,58.9,104.5,58.9z"/>
									<path class="st104" d="M104.4,60.2c0,4.8-3,8.7-6.6,8.7c-3.7,0-6.6-3.9-6.6-8.7s3-8.7,6.6-8.7S104.4,55.4,104.4,60.2z"/>
								</g>
							</g>
						</g>
					</g>
				</g>
			</g>
			<polygon class="st101" points="90.8,58.9 91.6,59.4 93,57.3 90.8,57.3 			"/>
			<polygon class="st101" points="104.7,58.9 104,59.4 102.6,57.3 104.7,57.3 			"/>
			<polygon class="st105" points="83.2,120.7 81.9,175.7 93.7,175.7 97.5,123.3 104.8,175.7 116.1,175.7 111.7,120.7 105.9,113.3 
				90.8,113.3 			"/>
			<path class="st104" d="M130.8,76.2c0,0,3.3-7.3,4-9s2.5-3.7,3.7-1.8c1.1,1.9,1.3,3.7,1,5.1s-5.4,7.7-5.4,7.7L130.8,76.2z"/>
			<path class="st106" d="M121.7,86c-2.6-4.3-5.8-9-8-10.7c-2.6-2-12.4-4.2-12.4-4.2s-3.5,3.6-3.8,4.1c-0.4-0.7-3.5-4.1-3.5-4.1
				s-9.5,2.1-12,4c-3.6,2.7-8.8,15.5-11.3,19.7c-0.7,1.2-1.1,3.6,0.2,5.3c2.3,3,12,10,12,10l3.9-6.6l-6.6-6.4l3.1-8.3l0.1,32h28.5
				l0.1-32l3.6,3.8C117.2,90.1,119.6,88.1,121.7,86z"/>
			<rect x="89.8" y="75.3" class="st107" width="14.9" height="45.4"/>
			<rect x="88.5" y="76.2" class="st106" width="15.1" height="44.5"/>
			<g>
				<path class="st106" d="M104.8,57.9V38.2c0,0-2.2-2.7-7-2.7c-4.9,0-6.9,2.7-6.9,2.7v19.7H104.8z"/>
			</g>
			<path class="st107" d="M92.8,71.4L93,69c0,0,4.7,3.3,4.5,6.3C94.8,73.4,92.8,71.4,92.8,71.4z"/>
			<path class="st107" d="M102.2,71.4L102,69c0,0-4.7,3.3-4.5,6.3C100.3,73.4,102.2,71.4,102.2,71.4z"/>
			<g>
				<path class="st101" d="M93.6,78.2c0,0.4-0.3,0.8-0.8,0.8c-0.4,0-0.8-0.3-0.8-0.8s0.3-0.8,0.8-0.8C93.2,77.4,93.6,77.8,93.6,78.2
					z"/>
				<path class="st101" d="M102.6,78.2c0,0.4-0.3,0.8-0.8,0.8s-0.8-0.3-0.8-0.8s0.3-0.8,0.8-0.8S102.6,77.8,102.6,78.2z"/>
				<path class="st101" d="M93.6,90.3c0,0.4-0.3,0.8-0.8,0.8c-0.4,0-0.8-0.3-0.8-0.8s0.3-0.8,0.8-0.8C93.2,89.5,93.6,89.8,93.6,90.3
					z"/>
				<path class="st101" d="M102.6,90.3c0,0.4-0.3,0.8-0.8,0.8s-0.8-0.3-0.8-0.8s0.3-0.8,0.8-0.8S102.6,89.8,102.6,90.3z"/>
			</g>
			<g>
				<path class="st101" d="M93.6,101.3c0,0.4-0.3,0.8-0.8,0.8c-0.4,0-0.8-0.3-0.8-0.8s0.3-0.8,0.8-0.8
					C93.2,100.5,93.6,100.8,93.6,101.3z"/>
				<path class="st101" d="M102.6,101.3c0,0.4-0.3,0.8-0.8,0.8s-0.8-0.3-0.8-0.8s0.3-0.8,0.8-0.8S102.6,100.8,102.6,101.3z"/>
				<path class="st101" d="M93.6,113.3c0,0.4-0.3,0.8-0.8,0.8c-0.4,0-0.8-0.3-0.8-0.8s0.3-0.8,0.8-0.8
					C93.2,112.5,93.6,112.9,93.6,113.3z"/>
				<path class="st101" d="M102.6,113.3c0,0.4-0.3,0.8-0.8,0.8s-0.8-0.3-0.8-0.8s0.3-0.8,0.8-0.8S102.6,112.9,102.6,113.3z"/>
			</g>
			<polygon class="st108" points="83,107.3 79.6,151.1 116.1,151.1 111.9,107.3 			"/>
			<rect x="89.3" y="84.8" class="st108" width="16.6" height="26.3"/>
			<rect x="83" y="106" class="st109" width="28.9" height="1.7"/>
			<path class="st106" d="M114.9,92.2c0,0,3.4,4.5,5.7,4.5c2.7,0,4.9-3.8,8.7-8.8s6.2-10,6.2-10l-4.6-3.7L114.9,92.2z"/>
			<path class="st110" d="M87,95.4C87,95.4,87,95.5,87,95.4c-2.7,5.7-0.4,12.3,5.2,15c5.6,2.6,12.2,0.3,14.9-5.3c0,0,0-0.1,0.1-0.1
				L87,95.4z"/>
			<path class="st104" d="M84.5,109.3c0,0,3.2,2.7,6.3,3.6c3.5,1.1,6.9,0.1,7.9-0.5c1.1-0.7,0.9-1.5-0.4-1.6s-5.8-1.1-5.8-1.1
				s1.5-1,2.1-1.7c0.7-0.9,0.4-1.4-0.4-1.2c-0.7,0.2-2.3,1.2-3,0.9c-1-0.4-4-1.5-4-1.5L84.5,109.3z"/>
			<path class="st107" d="M130,72.8l7.3,5.4l-3.3,7.1C134,85.2,126.6,79.3,130,72.8z"/>
			<path class="st107" d="M83.1,112.5l5.4-7.3l-5.2-5.8C83.3,99.4,78,107.2,83.1,112.5z"/>
			<rect x="90.8" y="55.6" class="st107" width="13.9" height="0.8"/>
			<polygon class="st108" points="91.5,85.6 89.4,86.4 85.1,73.5 87.2,72.8 			"/>
			<polygon class="st108" points="103.6,85.6 105.7,86.4 110,73.5 108,72.8 			"/>
			<path class="st104" d="M136,64.1c-0.3-1-1.1-2.2-1.5-1.8c-0.6,0.5,0.1,1.1,0.1,2.4c0.1,1.4-0.6,6.1-0.6,6.1l2.1-3.4
				C136,67.4,136.3,65,136,64.1z"/>
			<g>
				
					<rect x="135.8" y="49.7" transform="matrix(0.9968 -8.047704e-02 8.047704e-02 0.9968 -4.1103 11.1246)" class="st101" width="0.3" height="13.7"/>
				<g>
					<path class="st101" d="M137,62.6h-0.3l-0.4-5.1c-0.1-0.7,0.4-1.3,0.8-1.9c0.6-0.8,1.2-1.7,1.1-3.1c-0.1-0.9-0.4-1.6-0.9-2.1
						c-0.7-0.6-1.6-0.6-1.9-0.5c-0.4,0-1.2,0.2-1.8,0.9c-0.4,0.6-0.6,1.3-0.5,2.3c0.2,1.4,0.9,2.1,1.5,2.7c0.5,0.5,1.1,1,1.1,1.8
						l0.4,5.1h-0.3l-0.4-5.1c-0.1-0.7-0.5-1.1-1-1.6c-0.7-0.6-1.4-1.4-1.6-2.8c-0.1-1.1,0.1-1.9,0.6-2.5c0.6-0.8,1.5-1,2-1
						c0.4,0,1.3-0.1,2.1,0.6c0.6,0.5,0.9,1.3,1,2.3c0.1,1.5-0.6,2.4-1.2,3.3c-0.4,0.6-0.8,1.2-0.8,1.8L137,62.6z"/>
				</g>
				<path class="st110" d="M135.6,62.4l0.8,9.7c0,0.6,0.4,1,0.9,1c0.4,0,0.8-0.5,0.7-1.1l-0.8-9.7L135.6,62.4z"/>
			</g>
			<path class="st104" d="M138.1,63.8c0,0-1.5,0.8-1.8,1.5c-0.3,0.7-0.2,1.2,0.7,0.9c0.9-0.3,1.5-0.6,2-1.2
				C139.5,64.5,139.1,63.2,138.1,63.8z"/>
			<path class="st104" d="M138.4,65.1c0,0-1.5,0.8-1.8,1.5s-0.2,1.2,0.7,0.9c0.9-0.3,1.5-0.6,2-1.2
				C139.8,65.9,139.4,64.5,138.4,65.1z"/>
			<path class="st104" d="M138.7,66.5c0,0-1.5,0.8-1.8,1.5s-0.2,1.2,0.7,0.9c0.9-0.3,1.5-0.6,2-1.2
				C140.1,67.2,139.7,65.8,138.7,66.5z"/>
			<path class="st104" d="M139.1,67.8c0,0-1.5,0.8-1.8,1.5s-0.2,1.2,0.7,0.9s1.5-0.6,2-1.2C140.5,68.6,140.1,67.2,139.1,67.8z"/>
		</g>
		<g>
			<g>
				<path class="st27" d="M162,156.2c0,13.5-10.2,24.5-22.9,24.5H132c-12.6,0-22.9-11-22.9-24.5v-6.4H162V156.2z"/>
				<path class="st28" d="M164.8,151.8c0,8.7-13.1,15.7-29.2,15.7s-29.2-7-29.2-15.7s13.1-15.7,29.2-15.7
					C151.8,136.2,164.8,143.2,164.8,151.8z"/>
				<path class="st29" d="M132,180.7h7.1c10.8,0,19.9-8.1,22.2-18.9c-1.5,0.1-2.7,1.8-3.5,4.4c-0.6-0.6-1.2-1-1.9-1
					c-1.4,0-2.7,1.6-3.5,4.1c-0.7-1.1-1.6-1.8-2.5-1.8c-1.7,0-3.2,2.2-3.9,5.5c-0.8-2.3-2-3.9-3.4-3.9c-1.5,0-2.8,1.7-3.6,4.3
					c-0.8-2.6-2.1-4.3-3.6-4.3c-1.7,0-3.1,2.1-3.8,5.2c-0.7-3.1-2.2-5.2-3.8-5.2c-1.4,0-2.6,1.5-3.4,3.9c-0.7-3.2-2.2-5.5-3.9-5.5
					c-0.9,0-1.8,0.7-2.5,1.8c-0.8-2.5-2.1-4.1-3.5-4.1c-0.7,0-1.3,0.4-1.9,1c-0.7-2.3-1.7-3.9-3-4.3
					C112.2,172.6,121.3,180.7,132,180.7z"/>
				<path class="st30" d="M117.9,171.5c0,1.2,0.1,2.2,0.3,2.2c0.2,0,0.3-1,0.3-2.2s-0.1-2.2-0.3-2.2S117.9,170.3,117.9,171.5z"/>
				<path class="st30" d="M157.8,167.4c0,0.7,0.1,1.3,0.3,1.3s0.3-0.6,0.3-1.3s-0.1-1.3-0.3-1.3
					C157.9,166.1,157.8,166.7,157.8,167.4z"/>
				<path class="st30" d="M112.5,167.4c0,0.7,0.1,1.3,0.3,1.3c0.2,0,0.3-0.6,0.3-1.3s-0.1-1.3-0.3-1.3
					C112.7,166.1,112.5,166.7,112.5,167.4z"/>
				<path class="st30" d="M124.2,175.2c0,1.2,0.1,2.2,0.3,2.2c0.2,0,0.3-1,0.3-2.2s-0.1-2.2-0.3-2.2
					C124.4,172.9,124.2,173.9,124.2,175.2z"/>
				<path class="st30" d="M131.5,176.6c0,1.3,0.1,2.4,0.3,2.4s0.3-1.1,0.3-2.4c0-1.3-0.1-2.4-0.3-2.4
					C131.7,174.2,131.5,175.3,131.5,176.6z"/>
				<path class="st30" d="M145.9,175.2c0,1.3,0.1,2.4,0.3,2.4s0.3-1.1,0.3-2.4c0-1.3-0.1-2.4-0.3-2.4
					C146,172.7,145.9,173.8,145.9,175.2z"/>
				<path class="st30" d="M152.3,171.5c0,1.3,0.1,2.4,0.3,2.4s0.3-1.1,0.3-2.4c0-1.3-0.1-2.4-0.3-2.4
					C152.5,169.1,152.3,170.2,152.3,171.5z"/>
				<path class="st30" d="M138.9,176.2c0,1.6,0.1,2.9,0.3,2.9s0.3-1.3,0.3-2.9c0-1.6-0.1-2.9-0.3-2.9S138.9,174.6,138.9,176.2z"/>
			</g>
			<path class="st111" d="M109.2,156.2c0,2.2,0.3,4.2,0.7,6.2c0.7-0.2,1.2-0.7,1.6-1.2c0.1-0.1,0.2-0.2,0.3-0.3c0.5-0.5,1-1,1.4-1.4
				c0.1-0.1,0.2-0.3,0.2-0.4c0-0.1,0.1-0.1,0.1-0.2c0.3,0.1,0.6,0.3,0.8,0.6c0,0.1,0,0.3,0,0.5s-0.1,0.4-0.1,0.6
				c0,0.4,0,0.7,0.1,1.1c0,0.2,0.1,0.4,0.1,0.6c0.1,1.3,0.6,2.8,1,4c0.5,1.4,1.9,2.3,3.5,2.3c0.9,0,1.8-0.3,2.4-0.9
				c0.8-0.7,1.3-1.6,1.7-2.4c0.2-0.3,0.3-0.6,0.5-0.9c0.1-0.1,0.2-0.3,0.3-0.5c0.1-0.2,0.3-0.6,0.4-0.7h0.1c0.2,0,0.5,0.1,0.8,0.2
				c0.4,0.2,0.6,0.7,0.9,1.2l0.1,0.1c0.6,1.3,1.2,2.6,1.7,4c0.1,0.2,0.1,0.3,0.2,0.5c0.3,1,0.8,2.3,1.9,2.8c0.4,0.2,1,0.4,1.7,0.4
				c0.6,0,1.2-0.2,1.5-0.5c0.8-0.8,1.1-1.9,1.3-2.8c0.1-0.3,0.1-0.6,0.2-0.9c0.2-0.5,0.3-1,0.5-1.5c0.2-0.7,0.4-1.5,0.7-2.2l0,0h0.1
				c0,0.1,0,0.3,0,0.4c0,0.3-0.1,0.5-0.1,0.8c0.1,0.9,0.8,2.1,2,2.1h0.1c0.8-0.1,1.9-0.5,2.3-2.2c0.1-0.3,0.1-0.7,0.1-1
				c0-0.2,0-0.4,0-0.5c0.1-0.1,0.3-0.2,0.6-0.2c0.2,0,0.5,0,0.8,0.1c0.4,0.1,0.7,0.6,0.9,0.9c0.2,0.2,0.3,0.4,0.5,0.5
				c0.8,0.6,1.7,0.9,2.6,0.9c0.2,0,0.4,0,0.7-0.1c1.3-0.2,2.1-1.3,2.7-2.2c0.1-0.2,0.2-0.3,0.4-0.5c0.4-0.5,1.1-1.1,1.9-1.6
				c0.5-0.2,1-0.3,1.5-0.5h0.1c0.1,0,0.2,0,0.4,0c0.5,0,0.7,0.1,0.9,0.3c0.5,0.5,0.8,1.3,1.1,1.9c0,0.1,0.1,0.2,0.1,0.3
				c0.3,0.8,0.8,1.8,1.7,2.3c0.2,0.1,0.4,0.1,0.7,0.1c0.7,0,1.4-0.5,1.9-1.4c0.3-0.7,0.5-1.4,0.6-2c0.1-0.3,0.1-0.6,0.2-0.9
				c0.2-0.7,0.1-1.5,0.1-2.2c-0.1-0.8-0.1-1.6,0.2-2v-0.1c0.1-0.2,0.2-0.3,0.3-0.4c0.1,0.2,0.1,0.4,0.2,0.6v0.2
				c0.1,0.5,0.3,0.9,0.5,1.3c0.1-1.1,0.2-2.2,0.2-3.3v-6.4h-52.8L109.2,156.2L109.2,156.2z"/>
			<path class="st112" d="M164.9,146.7c-0.3-0.8-0.9-2.5-1-2.5c-3.1-6.8-14.6-11.9-28.4-11.9c-16.1,0-29.2,7-29.2,15.6
				c-0.2,0-0.1,1.6-0.1,2.2c0,0.6,0,1.2,0,1.9c0,1.5,0.1,3.1,0.2,4.7c0.1,1.7,0.4,4.7,2.6,5c1,0.1,1.7-0.7,2.3-1.3
				c0.5-0.4,0.9-0.8,1.2-1.3c0.2-0.2,0.4-0.9,0.8-0.9c0.6,0,1.3,0.5,1.7,1c0.3,0.4,0.1,1,0.1,1.6c0,0.5,0.1,1,0.2,1.6
				c0.1,1.2,0.5,2.6,0.9,3.8c0.6,1.8,3.2,2.3,4.6,1.1c0.9-0.8,1.4-2.2,2.1-3.2c0.3-0.5,0.6-1.5,1.3-1.6c0.5-0.1,1,0.1,1.5,0.3
				c0.7,0.3,1,1,1.3,1.7c0.7,1.3,1.2,2.7,1.8,4c0.4,0.9,0.7,2.5,1.7,2.9c0.6,0.3,1.8,0.5,2.3,0c0.9-0.9,0.9-2.2,1.3-3.4
				c0.4-1.3,0.8-2.6,1.2-3.9c0-0.1,0.4-0.5,0.5-0.5c0.3,0,0.7-0.2,1,0c0.5,0.4,0.1,1.4,0.2,2c0,0.6,0.5,1.4,1.2,1.4
				c0.9-0.1,1.3-0.8,1.6-1.6c0.2-0.6-0.1-1.5,0.4-1.9c0.6-0.5,1.5-0.4,2.2-0.2c0.9,0.3,1.4,1.4,1.6,1.5c0.8,0.6,1.7,0.8,2.7,0.7
				c1.1-0.2,1.9-1.6,2.5-2.4c0.5-0.6,1.3-1.3,2.2-1.8c0.6-0.2,1.1-0.4,1.6-0.6h0.1c0.8,0,1.5-0.1,2.1,0.6c0.6,0.6,0.9,1.4,1.3,2.2
				c0.3,0.7,0.7,1.8,1.4,2.1c0.6,0.3,1.2-0.4,1.4-0.8c0.4-0.9,0.5-1.9,0.7-2.8c0.4-1.4-0.4-3.3,0.4-4.5c0.2-0.3,1-1.6,1.6-0.7
				c0.3,0.4,0.4,0.9,0.5,1.4c0.1,0.6,0.4,1,0.6,1.5c0.3,0.6,1.1,1.1,1.6,0.6c0.8-0.7,0.7-2.2,0.9-3.1c0.3-1.3,0.6-2.4,0.6-3.7
				C166,151.8,165.2,147.4,164.9,146.7z"/>
			<path class="st113" d="M162.8,146.2c0,7.6-12.2,13.7-27.2,13.7s-27.2-6.1-27.2-13.7c0-7.6,12.2-13.7,27.2-13.7
				S162.8,138.7,162.8,146.2z"/>
			<path class="st114" d="M164,144.2c-3.1-6.8-14.6-11.9-28.4-11.9c-4,0-7.8,0.4-11.3,1.2c2.4,0.9,5,2.1,7.2,3.4
				c1.4,0.8,2.6,2.1,3.8,3.1c1.3,1.1,2.6,2.1,3.8,3.3c2.1,1.9,4,4.7,5.1,7.3c1,2.4,1.6,4.9,2.6,7.3c0.7,1.7,1.4,3.3,2.4,4.8
				c0.5-0.5,1.2-1.1,1.9-1.5c0.6-0.2,1.1-0.4,1.6-0.6h0.1c0.8,0,1.5-0.1,2.1,0.6c0.6,0.6,0.9,1.4,1.3,2.2c0.3,0.7,0.7,1.8,1.4,2.1
				c0.6,0.3,1.2-0.4,1.4-0.8c0.4-0.9,0.5-1.9,0.7-2.8c0.4-1.4-0.4-3.3,0.4-4.5c0.2-0.3,1-1.6,1.6-0.7c0.3,0.4,0.4,0.9,0.5,1.4
				c0.1,0.6,0.4,1,0.6,1.5c0.3,0.6,1.1,1.1,1.6,0.6c0.8-0.7,0.7-2.2,0.9-3.1c0.3-1.3,0.6-2.4,0.6-3.7c0-1.5-0.8-5.9-1-6.6
				C164.7,145.9,164.1,144.2,164,144.2z"/>
			<path class="st115" d="M122.6,162.6C122.6,162.5,122.6,162.5,122.6,162.6C122.6,162.5,122.6,162.5,122.6,162.6c0-0.1,0-0.1,0-0.1
				s0,0,0-0.1l0,0c0,0,0,0,0-0.1l0,0c0,0,0,0-0.1-0.1l0,0h-0.1l0,0l0,0h-0.1l0,0l0,0c-0.1,0.1-0.3,0.3-0.4,0.4l0,0
				c0,0,0,0.1-0.1,0.1c-0.1,0.1-0.2,0.3-0.3,0.4c0,0,0,0.1-0.1,0.1c-0.1,0.3-0.3,0.6-0.4,0.9c-0.2,0.3-0.4,0.7-0.8,1
				c-0.3,0.3-0.8,0.6-1.3,0.5s-0.9-0.6-1.1-1.1c-0.3-0.5-0.5-1.1-0.5-1.7c0-0.3,0-0.6,0-1c0-0.3-0.1-0.7-0.2-1
				c-0.2-0.7-0.3-1.4-0.5-2.1c-0.1-0.4-0.2-0.7-0.4-1.1c-0.1-0.4-0.4-0.7-0.7-1c-0.6-0.5-1.5-0.9-2.4-0.8c-0.4,0-0.9,0.2-1.3,0.4
				l-0.1,0.1l0,0l0,0l0,0l-0.1,0.1l-0.2,0.2c-0.1,0.1-0.3,0.3-0.4,0.4c-0.3,0.3-0.6,0.7-0.7,0.7s-0.1,0-0.2-0.1s-0.2-0.3-0.2-0.4
				c-0.1-0.2-0.1-0.3-0.1-0.5l-0.1-0.6c-0.1-0.2-0.1-0.5-0.2-0.7c0,0-0.1-0.2-0.1-0.3s0-0.1,0-0.2c0-0.4,0-0.8,0-1.2l0,0
				c0-0.2,0-0.1,0-0.1l0,0c0,0,0,0,0-0.1s0-0.1-0.1-0.2l-0.1-0.1c0,0-0.1,0-0.1-0.1c-0.1,0-0.1-0.1-0.2-0.1s-0.3,0-0.4,0.1
				s-0.3,0.3-0.3,0.4v0.1l0,0v0.1v0.2v0.3c0,0.4,0,0.9,0.1,1.4c0.1,0.4,0.3,0.8,0.3,1.2l0.1,0.6c0,0.1,0.1,0.3,0.1,0.4
				c0.1,0.1,0.1,0.2,0.2,0.3s0.1,0.2,0.2,0.3s0.2,0.2,0.3,0.3c0.2,0.2,0.5,0.3,0.8,0.3c0.2,0,0.2,0,0.4-0.1c0.2,0,0.3-0.1,0.4-0.2
				c0.2-0.1,0.4-0.3,0.6-0.4c0.3-0.3,0.6-0.7,0.8-0.9c0.1-0.1,0.3-0.3,0.4-0.4c0.1,0,0.1-0.1,0.2-0.1h0.1h0.1
				c0.2-0.1,0.3-0.1,0.5-0.1h0.2l0.2,0.1c0.6,0.2,1.1,0.9,1.4,1.5c0.2,0.3,0.3,0.7,0.4,1c0,0.2,0.1,0.3,0.1,0.5s0.1,0.4,0.1,0.5
				c0.1,0.4,0.2,0.7,0.3,1c0.1,0.3,0.1,0.7,0.1,1c0,0.2,0,0.4,0.1,0.5c0,0.2,0.1,0.3,0.2,0.5c0.1,0.3,0.2,0.6,0.4,0.9
				c0.3,0.6,0.7,1.1,1.2,1.4c0.1,0.1,0.3,0.1,0.4,0.2c0.1,0,0.3,0.1,0.4,0.1c0.3,0,0.6-0.1,0.8-0.2c0.5-0.3,0.8-0.7,1-1
				c0.3-0.4,0.4-0.7,0.6-1.1C122,163.4,122.3,162.9,122.6,162.6L122.6,162.6L122.6,162.6L122.6,162.6L122.6,162.6z M122.3,163
				L122.3,163L122.3,163z"/>
			<path class="st115" d="M112.3,144.6c0-3,1.5-5.8,4.2-8.1c-5,2.5-8.1,5.9-8.1,9.7c0,7.6,12.2,13.7,27.2,13.7c0.7,0,1.3,0,2,0
				C123.5,159.3,112.3,152.7,112.3,144.6z"/>
			<path class="st116" d="M135.6,132.3c-11.6,0-21.7,3.7-26.4,8.9c2.9,2.2,7.2,3.1,10.2,4.6c2.7,1.3,15.4,3.5,15.6,1.3
				c0.6-5.2,2.6-9.9,3.7-14.8C137.8,132.4,136.7,132.3,135.6,132.3z"/>
			<g>
				<path class="st117" d="M136.1,118.7c-3.4-2.5-6.4-1.9-9.6,0.6c-3.4,2.7-3.2,7.7-4.7,11.5c-2.9-2.4-4.9-5.7-9.6-4.5
					c-4.9,1.3-6,5.8-4.8,10.1c1.6,5.5,8.6,6.4,13,8.5c2.7,1.3,15.4,3.5,15.6,1.3c0.7-6.1,3.3-11.5,4.3-17.5
					C140.8,125.5,138.8,120.7,136.1,118.7z"/>
				<path class="st118" d="M136.1,118.7c-0.3-0.2-0.6-0.4-0.9-0.6c0.8,2.1,1.2,4.5,1,6.4c-0.9,6.9-3.6,13.1-4.2,20.2
					c-0.2,2.5-13.9-0.3-16.8-1.9c-1.3-0.7-2.8-1.3-4.4-2c2.9,1.9,6.8,2.8,9.6,4.2c2.7,1.3,15.4,3.5,15.6,1.3
					c0.7-6.1,3.3-11.5,4.3-17.5C140.8,125.5,138.8,120.7,136.1,118.7z"/>
				<path class="st99" d="M119.6,133.2c-0.4-0.5-0.8-1-1.4-1.4c-0.2-0.7-0.7-1.3-1.5-1.6c-1.5-0.6-3.6-0.2-4.8,0.9
					c-2.2,1.6-2.1,5.2,0.7,6.4c0.6,0.3,1.1,0.8,1.6,1.2s1.2,0.6,1.9,0.9c1.3,0.5,3.4,0.8,4.4-0.3
					C122.3,137.6,121.2,134.9,119.6,133.2z"/>
				<path class="st119" d="M116.4,133.4c-0.2-0.2-0.4-0.5-0.7-0.7c-0.1-0.4-0.4-0.6-0.7-0.8c-0.7-0.3-1.8-0.1-2.4,0.4
					c-1.1,0.8-1,2.5,0.4,3.1c0.3,0.1,0.5,0.4,0.8,0.6c0.3,0.2,0.6,0.3,0.9,0.4c0.6,0.2,1.6,0.4,2.2-0.1
					C117.7,135.6,117.1,134.2,116.4,133.4z"/>
			</g>
			<path class="st113" d="M138.7,144.4c-1.1-0.3-1.9-0.8-3.1-0.8c-1.4,0-3,0.5-4.4,0.8c-1,0.2-1.7,0.6-2.6,1
				c-1.5,0.7-2.2,1.8-3.5,2.8c-0.2,0.2-0.3,0.4-0.2,0.6c-0.1,0.5,0.4,1,1,0.7c1.4-0.7,3.1-0.7,4.6-0.7c1.7,0,2.8-0.1,4.4-0.7
				c1.3-0.5,4.1-1.7,4.3-3.2C139.2,144.8,138.9,144.5,138.7,144.4z"/>
			<g>
				<path class="st116" d="M145.5,147.5c-0.4,1.3-2.7,1.7-5.2,1s-4.2-2.4-3.8-3.7s2.7-1.7,5.2-1S145.9,146.2,145.5,147.5z"/>
				<path class="st120" d="M145.1,146.9c-0.4,1.3-2.5,1.8-4.8,1.1s-3.8-2.3-3.4-3.5c0.4-1.3,2.5-1.8,4.8-1.1
					C144,144.1,145.5,145.6,145.1,146.9z"/>
				<path class="st121" d="M144,146.6c-0.3,1.1-2.1,1.4-4.1,0.9c-1.9-0.6-3.3-1.9-3-3s2.1-1.4,4.1-0.9
					C142.9,144.2,144.3,145.5,144,146.6z"/>
				<path class="st122" d="M141,145.7c-0.2,0.5-1,0.7-2,0.4s-1.6-0.9-1.4-1.4c0.2-0.5,1-0.7,2-0.4
					C140.5,144.5,141.2,145.2,141,145.7z"/>
			</g>
			<g>
				<path class="st116" d="M138.1,147.9c0.6,1.1-0.4,2.9-2.3,4c-1.9,1.1-3.9,1.1-4.6,0.1c-0.6-1.1,0.4-2.9,2.3-4
					C135.5,146.9,137.5,146.9,138.1,147.9z"/>
				<path class="st123" d="M138.1,148c0.6,1-0.4,2.5-2.1,3.5c-1.7,1-3.5,1-4.1,0.1c-0.6-1,0.4-2.5,2.1-3.5
					C135.7,147,137.5,147,138.1,148z"/>
				<path class="st124" d="M137.2,148.5c0.5,0.8-0.3,2.1-1.8,3s-3,0.9-3.5,0.1c-0.5-0.8,0.3-2.1,1.8-3
					C135.2,147.7,136.7,147.7,137.2,148.5z"/>
				<path class="st122" d="M135,149.8c0.2,0.4-0.2,1-0.9,1.4s-1.5,0.4-1.7,0.1c-0.2-0.4,0.2-1,0.9-1.4
					C134,149.4,134.8,149.4,135,149.8z"/>
			</g>
			<g>
				<g>
					<path class="st125" d="M120.9,149.1c-0.2,0.2-0.4,0.2-0.6,0l-1.9-1.9c-0.2-0.2-0.2-0.4,0-0.6c0.2-0.2,0.4-0.2,0.6,0l1.9,1.9
						C121.1,148.7,121.1,149,120.9,149.1z"/>
					<path class="st126" d="M118.7,147c-0.1-0.1-0.2-0.2-0.3-0.2c-0.1,0.1,0,0.3,0.1,0.4l1.9,1.9c0.1,0.1,0.3,0.1,0.4,0.1
						c0-0.1,0-0.2-0.2-0.4L118.7,147z"/>
				</g>
				<g>
					<path class="st125" d="M122.4,152.7c-0.1,0.2-0.3,0.3-0.5,0.3l-2.6-0.7c-0.2-0.1-0.3-0.3-0.3-0.5c0.1-0.2,0.3-0.3,0.5-0.3
						l2.6,0.7C122.3,152.3,122.4,152.5,122.4,152.7z"/>
					<path class="st126" d="M119.3,151.9c-0.1,0-0.3,0-0.3,0c0,0.2,0.1,0.3,0.3,0.3l2.6,0.7c0.1,0,0.3,0,0.4-0.1
						c0-0.1-0.1-0.2-0.3-0.2L119.3,151.9z"/>
				</g>
				<g>
					<path class="st125" d="M151.5,151.3c-0.1,0.2-0.3,0.3-0.5,0.3l-2.6-0.7c-0.2-0.1-0.3-0.3-0.3-0.5c0.1-0.2,0.3-0.3,0.5-0.3
						l2.6,0.7C151.5,150.9,151.6,151.1,151.5,151.3z"/>
					<path class="st126" d="M148.5,150.5c-0.1,0-0.3,0-0.3,0c0,0.2,0.1,0.3,0.3,0.3l2.6,0.7c0.1,0,0.3,0,0.4-0.1
						c0-0.1-0.1-0.2-0.3-0.2L148.5,150.5z"/>
				</g>
				<g>
					<path class="st125" d="M131.5,154.2c0.1,0.2-0.1,0.4-0.3,0.5l-2.6,0.7c-0.2,0.1-0.4-0.1-0.5-0.3c-0.1-0.2,0.1-0.4,0.3-0.5
						l2.6-0.7C131.2,153.9,131.4,154,131.5,154.2z"/>
					<path class="st126" d="M128.5,155.1c-0.1,0-0.2,0.1-0.3,0.2c0.1,0.1,0.3,0.2,0.4,0.2l2.6-0.7c0.1,0,0.2-0.2,0.3-0.3
						c-0.1-0.1-0.2-0.1-0.4,0L128.5,155.1z"/>
				</g>
				<g>
					<path class="st125" d="M129.5,149.4c0.1,0.2,0.1,0.4-0.1,0.5l-2.1,1.7c-0.2,0.1-0.4,0.1-0.5-0.1c-0.1-0.2-0.1-0.4,0.1-0.5
						l2.1-1.7C129.1,149.2,129.3,149.3,129.5,149.4z"/>
					<path class="st126" d="M127,151.4c-0.1,0.1-0.2,0.2-0.2,0.3c0.1,0.1,0.3,0.1,0.4,0l2.1-1.7c0.1-0.1,0.2-0.2,0.1-0.4
						c-0.1,0-0.2,0-0.4,0.1L127,151.4z"/>
				</g>
				<g>
					<path class="st125" d="M142,150.9c0.2-0.1,0.4-0.1,0.5,0.1l1.4,2.3c0.1,0.2,0.1,0.4-0.1,0.5c-0.2,0.1-0.4,0.1-0.5-0.1l-1.4-2.3
						C141.8,151.3,141.8,151,142,150.9z"/>
					<path class="st126" d="M143.6,153.6c0.1,0.1,0.2,0.2,0.3,0.2c0.1-0.1,0.1-0.3,0-0.4l-1.4-2.3c-0.1-0.1-0.2-0.2-0.4-0.2
						c-0.1,0.1,0,0.2,0.1,0.4L143.6,153.6z"/>
				</g>
				<g>
					<path class="st125" d="M139,139.3c0.1-0.2,0.3-0.3,0.5-0.2l2.5,1.1c0.2,0.1,0.3,0.3,0.2,0.5s-0.3,0.3-0.5,0.2l-2.5-1.1
						C139,139.8,138.9,139.5,139,139.3z"/>
					<path class="st126" d="M141.9,140.5c0.1,0.1,0.3,0.1,0.3,0c0-0.2-0.1-0.3-0.2-0.4l-2.5-1.1c-0.1-0.1-0.3,0-0.4,0.1
						c0,0.1,0.1,0.2,0.3,0.3L141.9,140.5z"/>
				</g>
				<g>
					<path class="st125" d="M136.7,154c0.1-0.2,0.3-0.3,0.5-0.2l2.5,1.1c0.2,0.1,0.3,0.3,0.2,0.5s-0.3,0.3-0.5,0.2l-2.5-1.1
						C136.7,154.4,136.6,154.2,136.7,154z"/>
					<path class="st126" d="M139.6,155.2c0.1,0.1,0.3,0.1,0.3,0c0-0.2-0.1-0.3-0.2-0.4l-2.5-1.1c-0.1-0.1-0.3,0-0.4,0.1
						c0,0.1,0.1,0.2,0.3,0.3L139.6,155.2z"/>
				</g>
				<g>
					<path class="st125" d="M148.6,146.3c-0.1-0.2,0-0.4,0.2-0.5l2.5-0.9c0.2-0.1,0.4,0,0.5,0.2s0,0.4-0.2,0.5l-2.5,0.9
						C148.8,146.6,148.6,146.5,148.6,146.3z"/>
					<path class="st126" d="M151.5,145.2c0.1,0,0.2-0.1,0.3-0.2c-0.1-0.1-0.3-0.2-0.4-0.1l-2.5,0.9c-0.1,0.1-0.2,0.2-0.3,0.3
						c0.1,0.1,0.2,0.1,0.4,0L151.5,145.2z"/>
				</g>
				<g>
					<path class="st125" d="M146.4,140.8c0-0.2,0.2-0.4,0.4-0.4l2.7,0.2c0.2,0,0.4,0.2,0.4,0.4s-0.2,0.4-0.4,0.4l-2.7-0.2
						C146.5,141.2,146.4,141,146.4,140.8z"/>
					<path class="st126" d="M149.5,141c0.1,0,0.3,0,0.3-0.1c0-0.2-0.2-0.3-0.3-0.3l-2.7-0.2c-0.1,0-0.3,0.1-0.4,0.2
						c0,0.1,0.2,0.2,0.4,0.2L149.5,141z"/>
				</g>
			</g>
		</g>
	</g>
</g>
</svg>
