<?xml version="1.0" encoding="utf-8"?>
<!-- Generator: Adobe Illustrator 23.1.0, SVG Export Plug-In . SVG Version: 6.00 Build 0)  -->
<svg version="1.1" id="圖層_1" xmlns="http://www.w3.org/2000/svg" xmlns:xlink="http://www.w3.org/1999/xlink" x="0px" y="0px"
	 viewBox="0 0 225 225" style="enable-background:new 0 0 225 225;" xml:space="preserve">
<style type="text/css">
	.st0{fill:#D7736B;}
	.st1{opacity:0.5;}
	.st2{fill:#E0884C;}
	.st3{enable-background:new    ;}
	.st4{fill:#FFFFFF;}
	.st5{fill:#D4832C;}
	.st6{fill:#FFC75C;}
	.st7{fill:#E3A836;}
	.st8{fill:url(#SVGID_1_);}
	.st9{fill:url(#SVGID_2_);}
	.st10{fill:url(#SVGID_3_);}
	.st11{fill:#CC4651;}
	.st12{fill:#FFE8A3;}
	.st13{fill:url(#SVGID_4_);}
	.st14{fill:#E89030;}
	.st15{fill:url(#SVGID_5_);}
	.st16{fill:url(#SVGID_6_);}
	.st17{fill:url(#SVGID_7_);}
	.st18{fill:url(#SVGID_8_);}
	.st19{fill:url(#SVGID_9_);}
	.st20{fill:#FFC7CC;}
	.st21{fill:#BF662E;}
	.st22{fill:url(#SVGID_10_);}
	.st23{fill:url(#SVGID_11_);}
	.st24{fill:url(#SVGID_12_);}
	.st25{fill:#7A4231;}
	.st26{fill:#662D1C;}
	.st27{fill:#591E0C;}
	.st28{fill:#9AE48F;}
	.st29{fill:#EBFEA4;}
	.st30{fill:#8FC4E4;}
	.st31{fill:#A4EFFE;}
	.st32{fill:#FF8581;}
	.st33{fill:#FFBDB0;}
	.st34{fill:#FEA4BE;}
	.st35{fill:url(#SVGID_13_);}
	.st36{fill:url(#SVGID_14_);}
	.st37{fill:#FFB8D9;}
	.st38{fill:#FF9CCA;}
	.st39{fill:#FFDFEE;}
	.st40{fill:#FFC4E0;}
	.st41{fill:url(#SVGID_15_);}
	.st42{fill:#C42E4E;}
	.st43{fill:url(#SVGID_16_);}
	.st44{fill:#F0E5CD;}
	.st45{fill:url(#SVGID_17_);}
	.st46{fill:url(#SVGID_18_);}
	.st47{fill:#FF6F5E;}
	.st48{fill:#FB9789;}
	.st49{fill:#FF8475;}
	.st50{fill:#D63A3A;}
	.st51{fill:#C4601D;}
	.st52{fill:#FFEF9A;}
	.st53{fill:#FFE46E;}
	.st54{fill:#F2CB27;}
	.st55{fill:#FFE36D;}
	.st56{fill:#FFF2BD;}
	.st57{fill:#FFF1B5;}
	.st58{fill:#FFF6CF;}
	.st59{fill:#FFCAB5;}
	.st60{fill:#D9730D;}
	.st61{fill:#FFF5CC;}
	.st62{fill:#377335;}
	.st63{fill:#489545;}
	.st64{fill:url(#SVGID_19_);}
	.st65{fill:#C22E2B;}
	.st66{fill:#8C1211;}
	.st67{fill:#E6A250;}
	.st68{opacity:0.7;fill:#F2B0AC;enable-background:new    ;}
	.st69{fill:#FEA49B;}
	.st70{fill:#F5C17D;}
	.st71{fill:#CC3B41;}
	.st72{fill:#A21D22;}
	.st73{fill:#FF9488;}
	.st74{fill:#FF8C94;}
	.st75{fill:#D6BDAB;}
	.st76{fill:#85181C;}
	.st77{fill:#C47269;}
	.st78{fill:#FFB8BD;}
	.st79{fill:#FFD6D9;}
	.st80{fill:#DB4D57;}
	.st81{fill:url(#SVGID_20_);}
	.st82{fill:#C7734A;}
	.st83{fill:#7A3C20;}
	.st84{fill:#A8A8A8;}
	.st85{fill:#3C3C3C;}
	.st86{fill:#30302E;}
	.st87{fill:#ED8A40;}
	.st88{fill:#FFB680;}
	.st89{fill:#606060;}
	.st90{fill:#D8D8D8;}
	.st91{fill:#5B9B31;}
	.st92{fill:#CE5119;}
	.st93{fill:#A83800;}
	.st94{fill:#E25C27;}
	.st95{fill:#8C2B00;}
	.st96{fill:#FDE875;}
	.st97{fill:#FF6C81;}
	.st98{fill:#FF364A;}
	.st99{fill:#FC8C06;}
	.st100{fill:#545454;}
	.st101{fill:#E21A37;}
</style>
<title>未命名-3</title>
<rect class="st0" width="225" height="225"/>
<g class="st1">
	<rect y="180.5" class="st2" width="225" height="44.5"/>
</g>
<g class="st3">
	<path class="st4" d="M73.5,196.4H75l1.4,9.1l1.7-9.1h1.3l1.7,9.1l1.3-9.2h1.4l-2,12.7h-1.3l-1.8-9.4l-1.8,9.4h-1.3L73.5,196.4z"/>
	<path class="st4" d="M85.4,196.4h1.7v12.7h-1.7V196.4z"/>
	<path class="st4" d="M90.6,197.8h-2.1v-1.3h6v1.3h-2.1v11.4h-1.8V197.8z"/>
	<path class="st4" d="M95.7,196.4h1.8v5.5h3.3v-5.5h1.8v12.7h-1.8v-5.9h-3.3v5.9h-1.8V196.4z"/>
	<path class="st4" d="M108.1,196.4h4.9v1.3h-3.1v4.2h2.4v1.3h-2.4v5.9h-1.8V196.4z"/>
	<path class="st4" d="M114.2,196.4h2.6c2.5,0,3.7,1,3.7,3.4c0,1.5-0.4,2.6-1.6,3l1.8,6.4H119l-1.7-6H116v6h-1.8V196.4z M116.7,201.9
		c1.5,0,2.1-0.5,2.1-2.1c0-1.5-0.4-2.1-2-2.1H116v4.2H116.7z"/>
	<path class="st4" d="M122.5,196.4h1.7v12.7h-1.7V196.4z"/>
	<path class="st4" d="M126.3,196.4h4.9v1.3H128v4.2h2.6v1.3H128v4.7h3.2v1.3h-5V196.4z"/>
	<path class="st4" d="M132.6,196.4h1.2l3.6,8.4v-8.4h1.5v12.7h-1.1l-3.7-8.7v8.7h-1.5V196.4z"/>
	<path class="st4" d="M140.9,196.4h2.8c2.8,0,3.8,1.3,3.8,3.9v4.7c0,2.7-1,4.2-3.6,4.2h-2.9V196.4z M143.7,207.9c1.9,0,2-1.2,2-3.2
		v-4.1c0-2-0.2-2.8-2-2.8h-1v10.1H143.7z"/>
</g>
<g>
	<g>
		<path class="st5" d="M47.8,90.1c-6.8,1.6-20.5,7.4-18.7,21.2s56.2,8.1,61.5,4.2c5.3-3.9,10.3-23,0-24.7
			C80.3,89.1,59.1,87.5,47.8,90.1z"/>
		<path class="st6" d="M48.7,88.7c-6.8,1.6-20.5,7.4-18.7,21.2s54.1,8.1,59.4,4.2s11.7-23,1.4-24.7C80.5,87.6,60,86.1,48.7,88.7z"/>
		<path class="st7" d="M91.7,111.5c4.5-6.5,7.8-20.6-1-22.1c-10.3-1.8-30.8-3.3-42.1-0.7c-3.4,0.8-8.4,2.6-12.4,5.9
			c-2.5,3.1-4,7.2-3.3,12.3C34.6,120.3,83.8,115.4,91.7,111.5z"/>
		
			<linearGradient id="SVGID_1_" gradientUnits="userSpaceOnUse" x1="43.4" y1="123.4984" x2="96.1867" y2="123.4984" gradientTransform="matrix(1 0 0 -1 0 226)">
			<stop  offset="0" style="stop-color:#FFC75C"/>
			<stop  offset="1" style="stop-color:#E69133"/>
		</linearGradient>
		<path class="st8" d="M89.3,114.1c5.3-3.9,11.7-23,1.4-24.7c-10.3-1.8-30.8-3.3-42.1-0.7c-1.5,0.3-3.3,0.9-5.2,1.7
			c11.6-0.6,30.9-0.5,33.5,6c2.1,5.2,0.3,14.2-3,21.3C81.6,116.7,87.7,115.3,89.3,114.1z"/>
	</g>
	
		<linearGradient id="SVGID_2_" gradientUnits="userSpaceOnUse" x1="30.5443" y1="129.3008" x2="94.7295" y2="129.3008" gradientTransform="matrix(1 0 0 -1 0 226)">
		<stop  offset="0" style="stop-color:#F6C4C5"/>
		<stop  offset="1" style="stop-color:#E24A56"/>
	</linearGradient>
	<path class="st9" d="M94.4,89c0-0.2,0-0.3,0-0.5c0-0.1,0-0.1,0-0.2c0-0.2,0-0.5-0.1-0.7c0-0.1,0-0.2-0.1-0.3c0-0.2-0.1-0.4-0.1-0.6
		c0-0.1,0-0.2-0.1-0.3c0-0.2-0.1-0.4-0.1-0.5s-0.1-0.2-0.1-0.3c-0.1-0.2-0.1-0.3-0.2-0.5c0-0.1-0.1-0.2-0.1-0.2
		c-0.1-0.2-0.2-0.4-0.3-0.6v-0.1c-0.1-0.2-0.3-0.4-0.4-0.6c0-0.1-0.1-0.1-0.1-0.2c-0.1-0.1-0.2-0.3-0.4-0.4
		c-0.1-0.1-0.1-0.1-0.2-0.2s-0.2-0.2-0.4-0.3c-0.1-0.1-0.2-0.1-0.2-0.2C91.3,82.1,91.2,82,91,82c-0.1,0-0.2-0.1-0.3-0.1
		c-0.2-0.1-0.3-0.1-0.5-0.2c-0.1,0-0.2-0.1-0.2-0.1c-0.3-0.1-0.5-0.2-0.8-0.2c-2.4-0.5-5.5-0.9-8.8-1.3c-1.7-0.2-3.4-0.4-5.2-0.5
		c-1.8-0.1-3.6-0.3-5.5-0.3c-2.3-0.1-4.6-0.1-6.9-0.1c-0.5,0-0.9,0-1.4,0c-3.1,0.1-6.1,0.3-8.8,0.8c-1.1,0.2-2.2,0.4-3.2,0.7
		c-0.3,0.1-0.7,0.2-1,0.3c-0.1,0-0.1,0-0.2,0h-0.1l0,0c-0.3,0.1-0.6,0.2-1,0.3c-0.1,0-0.1,0-0.2,0.1c-0.4,0.1-0.7,0.3-1.1,0.4
		c-0.1,0-0.1,0-0.2,0.1c-2.6,1.1-5.5,2.7-8,5l0,0l0,0c-1.7,1.6-3.9-1-5,1.2c-2,3.2-2.4,11.7-1.8,16.7c1.7,14.8,53.2,8.7,58.2,4.6
		C92.5,106.5,95.8,95.9,94.4,89z"/>
	
		<linearGradient id="SVGID_3_" gradientUnits="userSpaceOnUse" x1="30.6" y1="130.05" x2="94.7299" y2="130.05" gradientTransform="matrix(1 0 0 -1 0 226)">
		<stop  offset="0" style="stop-color:#F6A7A9"/>
		<stop  offset="1" style="stop-color:#D12E3B"/>
	</linearGradient>
	<path class="st10" d="M94.4,89c0-0.2,0-0.3,0-0.5c0-0.1,0-0.1,0-0.2c0-0.2,0-0.5-0.1-0.7c0-0.1,0-0.2-0.1-0.3
		c0-0.2-0.1-0.4-0.1-0.6c0-0.1,0-0.2-0.1-0.3c0-0.2-0.1-0.4-0.1-0.5s-0.1-0.2-0.1-0.3c-0.1-0.2-0.1-0.3-0.2-0.5
		c0-0.1-0.1-0.2-0.1-0.2c-0.1-0.2-0.2-0.4-0.3-0.6v-0.1c-0.1-0.2-0.3-0.4-0.4-0.6c0-0.1-0.1-0.1-0.1-0.2c-0.1-0.1-0.2-0.3-0.4-0.4
		c-0.1-0.1-0.1-0.1-0.2-0.2s-0.2-0.2-0.4-0.3c-0.1-0.1-0.2-0.1-0.2-0.2C91.3,82.1,91.2,82,91,82c-0.1,0-0.2-0.1-0.3-0.1
		c-0.2-0.1-0.3-0.1-0.5-0.2c-0.1,0-0.2-0.1-0.2-0.1c-0.3-0.1-0.5-0.2-0.8-0.2c-2.4-0.5-5.5-0.9-8.8-1.3c-1.7-0.2-3.4-0.4-5.2-0.5
		c-1.8-0.1-3.6-0.3-5.5-0.3c-2.3-0.1-4.6-0.1-6.9-0.1c-0.5,0-0.9,0-1.4,0c-3.1,0.1-6.1,0.3-8.8,0.8c-1.1,0.2-2.2,0.4-3.2,0.7
		c-0.3,0.1-0.7,0.2-1,0.3c-0.1,0-0.1,0-0.2,0h-0.1l0,0c-0.3,0.1-0.6,0.2-1,0.3c-0.1,0-0.1,0-0.2,0.1c-0.4,0.1-0.7,0.3-1.1,0.4
		c-0.1,0-0.1,0-0.2,0.1c-2.6,1.1-5.5,2.7-8,5l0,0l0,0c-1.7,1.6-3.9-1-5,1.2c-1.4,2.2-2,7.1-2,11.5c3.8,2.2,8.2,3.5,12.7,4.1
		c8.1,1.2,17.3-0.7,25.1,2.2c3.6,1.4,6.4,3.8,8.7,6.8c6.1-0.9,10.6-2.2,12-3.3C92.5,106.5,95.8,95.9,94.4,89z"/>
	<path class="st11" d="M94.4,89c0-0.2,0-0.3,0-0.5c0-0.1,0-0.1,0-0.2c0-0.2,0-0.5-0.1-0.7c0-0.1,0-0.2-0.1-0.3
		c0-0.2-0.1-0.4-0.1-0.6c0-0.1,0-0.2-0.1-0.3c0-0.2-0.1-0.4-0.1-0.5s-0.1-0.2-0.1-0.3c-0.1-0.2-0.1-0.3-0.2-0.5
		c0-0.1-0.1-0.2-0.1-0.2c-0.1-0.2-0.2-0.4-0.3-0.6v-0.1c-0.1-0.2-0.3-0.4-0.4-0.6c0-0.1-0.1-0.1-0.1-0.2c-0.1-0.1-0.2-0.3-0.4-0.4
		c-0.1-0.1-0.1-0.1-0.2-0.2s-0.2-0.2-0.4-0.3c-0.1-0.1-0.2-0.1-0.2-0.2C91.3,82.1,91.2,82,91,82c-0.1,0-0.2-0.1-0.3-0.1
		c-0.2-0.1-0.3-0.1-0.5-0.2c-0.1,0-0.2-0.1-0.2-0.1c-0.3-0.1-0.5-0.2-0.8-0.2c-2.4-0.5-5.5-0.9-8.8-1.3c-1.7-0.2-3.4-0.4-5.2-0.5
		c-1.8-0.1-3.6-0.3-5.5-0.3c-2.3-0.1-4.6-0.1-6.9-0.1c-0.5,0-0.9,0-1.4,0c-3.1,0.1-6.1,0.3-8.8,0.8c-1.1,0.2-2.2,0.4-3.2,0.7
		c-0.3,0.1-0.7,0.2-1,0.3c-0.1,0-0.1,0-0.2,0h-0.1l0,0c-0.3,0.1-0.6,0.2-1,0.3c-0.1,0-0.1,0-0.2,0.1c-0.4,0.1-0.7,0.3-1.1,0.4
		c-0.1,0-0.1,0-0.2,0.1c-2.6,1.1-5.5,2.7-8,5l0,0l0,0c-1.7,1.6-3.9-1-5,1.2c-1.1,1.8-1.7,5.3-1.9,8.9c9.4,9.6,55,4.6,59.9,1
		c1.5-1.1,3-3.5,4.2-6.4C94.7,90.7,94.6,89.8,94.4,89z"/>
	<g>
		<path class="st5" d="M47.8,71.4C41,72.9,27.3,78.2,29.1,92c1.8,13.8,56.2,8.1,61.5,4.2c5.3-3.9,7.2-21.8-3-23.5
			C77.3,70.9,59.1,68.8,47.8,71.4z"/>
		<path class="st6" d="M48.7,70c-6.8,1.6-20.5,6.8-18.7,20.6s54.1,8.1,59.4,4.2s7.2-22-1.6-23.5C77.4,69.5,60,67.4,48.7,70z"/>
		<path class="st12" d="M33.9,84.9c0.5,1.7,0.7,3.1,0.9,4.5l0.1,0.5c0,0.2,0,0.3,0.1,0.3c0,0,0.1-0.1,0-0.3
			c-0.1-0.3-0.2-0.4-0.2-0.4s0.2,0.1,0.3,0.2s0.2,0.1,0.4,0.2s0.5,0.3,0.7,0.4c1,0.5,2.1,1,3.3,1.6s2.6,1.2,4,2.2h0.1
			c0.1,0,0.1,0.1,0,0.2l-0.1,0.1c-1.5,0-3,0-4.4-0.3c-1.5-0.2-2.9-0.7-4.3-1.3c-0.7-0.4-1.3-0.8-1.9-1.3c-0.1-0.1-0.3-0.3-0.4-0.5
			c-0.1-0.2-0.1-0.4-0.1-0.6c0-0.4,0.1-0.8,0.1-1.1c0.1-0.7,0.2-1.5,0.4-2.2s0.4-1.4,0.7-2.1c0-0.1,0.1-0.1,0.2-0.1
			C33.9,84.8,33.9,84.8,33.9,84.9L33.9,84.9z"/>
		
			<linearGradient id="SVGID_4_" gradientUnits="userSpaceOnUse" x1="43.4467" y1="142.4482" x2="93.8067" y2="142.4482" gradientTransform="matrix(1 0 0 -1 0 226)">
			<stop  offset="0" style="stop-color:#FFC75C"/>
			<stop  offset="1" style="stop-color:#E69133"/>
		</linearGradient>
		<path class="st13" d="M89.3,94.8c5.3-3.9,7.2-22-1.6-23.5c-10.3-1.7-27.7-3.9-39-1.3c-1.5,0.3-3.3,0.9-5.2,1.7
			C55,71.1,74.4,70.6,76.9,77c2.1,5.2,0.3,14.2-3,21.3C81.6,97.4,87.7,96,89.3,94.8z"/>
		<g>
			<g>
				<path class="st14" d="M49.3,75c0,0.8-0.7,1.4-1.5,1.4s-1.4-0.7-1.4-1.5s0.7-1.4,1.5-1.4C48.7,73.5,49.3,74.2,49.3,75z"/>
				<path class="st14" d="M57.8,75.2c0,0.8-0.7,1.4-1.5,1.4s-1.4-0.7-1.4-1.5s0.7-1.4,1.5-1.4C57.2,73.8,57.8,74.4,57.8,75.2z"/>
				<path class="st14" d="M66.4,75.4c0,0.8-0.7,1.4-1.5,1.4s-1.4-0.7-1.4-1.5s0.7-1.4,1.5-1.4C65.8,74,66.4,74.6,66.4,75.4z"/>
				<path class="st14" d="M74.9,75.6c0,0.8-0.7,1.4-1.5,1.4S72,76.3,72,75.5s0.7-1.4,1.5-1.4C74.3,74.2,75,74.8,74.9,75.6z"/>
				
					<linearGradient id="SVGID_5_" gradientUnits="userSpaceOnUse" x1="80.6683" y1="150.25" x2="83.5047" y2="150.25" gradientTransform="matrix(1 0 0 -1 0 226)">
					<stop  offset="0" style="stop-color:#D17941"/>
					<stop  offset="1" style="stop-color:#C25B02"/>
				</linearGradient>
				<path class="st15" d="M83.5,75.8c0,0.8-0.7,1.4-1.5,1.4s-1.4-0.7-1.4-1.5s0.7-1.4,1.5-1.4S83.5,75,83.5,75.8z"/>
			</g>
			<g>
				<path class="st14" d="M44.2,79.7c0,0.8-0.7,1.4-1.5,1.4s-1.4-0.7-1.4-1.5s0.7-1.4,1.5-1.4S44.3,79,44.2,79.7z"/>
				<path class="st14" d="M52.8,80c0,0.8-0.7,1.4-1.5,1.4s-1.4-0.7-1.4-1.5s0.7-1.4,1.5-1.4S52.8,79.2,52.8,80z"/>
				<path class="st14" d="M61.4,80.2c0,0.8-0.7,1.4-1.5,1.4s-1.4-0.7-1.4-1.5s0.7-1.4,1.5-1.4S61.4,79.4,61.4,80.2z"/>
				<path class="st14" d="M69.9,80.4c0,0.8-0.7,1.4-1.5,1.4S67,81.1,67,80.3s0.7-1.4,1.5-1.4C69.3,79,69.9,79.6,69.9,80.4z"/>
				<path class="st14" d="M78.5,80.6c0,0.8-0.7,1.4-1.5,1.4s-1.4-0.7-1.4-1.5s0.7-1.4,1.5-1.4C77.9,79.2,78.5,79.8,78.5,80.6z"/>
				
					<linearGradient id="SVGID_6_" gradientUnits="userSpaceOnUse" x1="84.7055" y1="145.25" x2="87.5419" y2="145.25" gradientTransform="matrix(1 0 0 -1 0 226)">
					<stop  offset="0" style="stop-color:#D17941"/>
					<stop  offset="1" style="stop-color:#C25B02"/>
				</linearGradient>
				<path class="st16" d="M87.5,80.8c0,0.8-0.7,1.4-1.5,1.4s-1.4-0.7-1.4-1.5s0.7-1.4,1.5-1.4C86.9,79.4,87.6,80,87.5,80.8z"/>
			</g>
			<g>
				<path class="st14" d="M49,84.8c0,0.8-0.7,1.4-1.5,1.4s-1.4-0.7-1.4-1.5s0.7-1.4,1.5-1.4C48.4,83.3,49,84,49,84.8z"/>
				<path class="st14" d="M57.6,85c0,0.8-0.7,1.4-1.5,1.4s-1.4-0.7-1.4-1.5s0.7-1.4,1.5-1.4C57,83.5,57.6,84.2,57.6,85z"/>
				<path class="st14" d="M66.1,85.2c0,0.8-0.7,1.4-1.5,1.4c-0.8,0-1.4-0.7-1.4-1.5s0.7-1.4,1.5-1.4C65.5,83.8,66.2,84.4,66.1,85.2z
					"/>
				<path class="st14" d="M74.7,85.4c0,0.8-0.7,1.4-1.5,1.4s-1.4-0.7-1.4-1.5s0.7-1.4,1.5-1.4C74.1,84,74.7,84.6,74.7,85.4z"/>
				
					<linearGradient id="SVGID_7_" gradientUnits="userSpaceOnUse" x1="80.4247" y1="140.45" x2="83.2611" y2="140.45" gradientTransform="matrix(1 0 0 -1 0 226)">
					<stop  offset="0" style="stop-color:#D17941"/>
					<stop  offset="1" style="stop-color:#C25B02"/>
				</linearGradient>
				<path class="st17" d="M83.3,85.6c0,0.8-0.7,1.4-1.5,1.4s-1.4-0.7-1.4-1.5s0.7-1.4,1.5-1.4C82.7,84.2,83.3,84.8,83.3,85.6z"/>
			</g>
			<g>
				<path class="st14" d="M44,89.5c0,0.8-0.7,1.4-1.5,1.4s-1.4-0.7-1.4-1.5s0.7-1.4,1.5-1.4C43.4,88.1,44,88.8,44,89.5z"/>
				<path class="st14" d="M52.6,89.7c0,0.8-0.7,1.4-1.5,1.4s-1.4-0.7-1.4-1.5s0.7-1.4,1.5-1.4S52.6,89,52.6,89.7z"/>
				<path class="st14" d="M61.1,90c0,0.8-0.7,1.4-1.5,1.4s-1.4-0.7-1.4-1.5s0.7-1.4,1.5-1.4C60.5,88.5,61.1,89.2,61.1,90z"/>
				<path class="st14" d="M69.7,90.2c0,0.8-0.7,1.4-1.5,1.4s-1.4-0.7-1.4-1.5s0.7-1.4,1.5-1.4S69.7,89.4,69.7,90.2z"/>
				
					<linearGradient id="SVGID_8_" gradientUnits="userSpaceOnUse" x1="75.4098" y1="135.65" x2="78.2463" y2="135.65" gradientTransform="matrix(1 0 0 -1 0 226)">
					<stop  offset="0" style="stop-color:#D17941"/>
					<stop  offset="1" style="stop-color:#C25B02"/>
				</linearGradient>
				<path class="st18" d="M78.2,90.4c0,0.8-0.7,1.4-1.5,1.4s-1.4-0.7-1.4-1.5s0.7-1.4,1.5-1.4C77.6,89,78.3,89.6,78.2,90.4z"/>
				
					<linearGradient id="SVGID_9_" gradientUnits="userSpaceOnUse" x1="84.4618" y1="135.45" x2="87.2983" y2="135.45" gradientTransform="matrix(1 0 0 -1 0 226)">
					<stop  offset="0" style="stop-color:#D17941"/>
					<stop  offset="1" style="stop-color:#C25B02"/>
				</linearGradient>
				<path class="st19" d="M87.3,90.6c0,0.8-0.7,1.4-1.5,1.4s-1.4-0.7-1.4-1.5s0.7-1.4,1.5-1.4C86.7,89.2,87.3,89.8,87.3,90.6z"/>
			</g>
		</g>
	</g>
	<path class="st20" d="M46.9,106.5c-0.9-1.5-2.8-2.5-4.9-2.8c-1.5-0.3-3.9-0.6-5.4,0.1c-0.2,0.1-0.3,0.2-0.5,0.3l0,0
		c-0.4,0.3-0.6,0.7-0.7,1.2c-0.8,2.4,2.3,4.7,5.2,5.4c1.7,0.4,4.3,0.9,5.7-0.3C47.7,109.3,47.7,107.7,46.9,106.5z"/>
</g>
<g>
	<g>
		<path class="st21" d="M119.1,120.1l-13.4,8.4c27.2,29.4,32.6,28.5,35.5,26.7c2.9-1.8,6-6.3-8.6-43.6L119.1,120.1z"/>
		<path class="st14" d="M123.3,117.5l-1.4,7.6l-7.5-2l-7.1,4.5l-0.4,2.3c1,1,1.9,2,2.8,2.9l1.4-7.3l10.3,2.8l-2,10.5l-5.3-1.4
			c2.8,2.8,5.3,5.3,7.5,7.3l0.3-1.8l10.3,2.8l-1.3,6.8c1.1,0.8,2.1,1.4,3,1.9l1.5-7.9l8.2,2.2c0-1-0.2-2.1-0.4-3.5l-7.3-2l2-10.5
			l2.4,0.6c-0.4-1.2-0.7-2.4-1.2-3.7l-0.6-0.2l0.2-1.1c-0.6-1.9-1.4-4-2.2-6.2l-1.2,6.4l-10.3-2.8l2-10.5l7.8,2.1
			c-0.5-1.2-0.9-2.5-1.4-3.8l-2.9-0.8L123.3,117.5z M134.7,131.9l-2,10.5l-10.3-2.8l2-10.5L134.7,131.9z"/>
		
			<linearGradient id="SVGID_10_" gradientUnits="userSpaceOnUse" x1="-280.8359" y1="-332.5011" x2="-249.0916" y2="-332.5011" gradientTransform="matrix(0.8471 -0.5315 -0.5315 -0.8471 177.8153 -284.8789)">
			<stop  offset="0" style="stop-color:#BF662E"/>
			<stop  offset="1" style="stop-color:#874734"/>
		</linearGradient>
		<path class="st22" d="M132.6,111.7l-13.4,8.4l-13.4,8.4c1.1,1.2,2.1,2.3,3.1,3.3c4.4-0.1,10.2-4,18.5-2.9
			c4.3,0.6,10.9,17.6,14.9,25.4C144.5,151.9,145.4,144.5,132.6,111.7z"/>
		<g>
			
				<linearGradient id="SVGID_11_" gradientUnits="userSpaceOnUse" x1="-280.5076" y1="-325.6806" x2="-249.5163" y2="-325.6806" gradientTransform="matrix(0.8471 -0.5315 -0.5315 -0.8471 177.8153 -284.8789)">
				<stop  offset="0" style="stop-color:#D17941"/>
				<stop  offset="1" style="stop-color:#C25B02"/>
			</linearGradient>
			<path class="st23" d="M107.1,130.1c0.2,0.2,0.3,0.3,0.5,0.5c0.4,0.4,0.7,0.7,1,1.1c0.1,0.1,0.1,0.1,0.2,0.2c0.3,0,0.7,0,1-0.1
				l1.2-6.2l10.3,2.8l-0.1,0.7c1.9-0.2,3.9-0.3,6.2,0c0.7,0.1,1.5,0.7,2.3,1.6l5.1,1.4l-0.9,5c0.8,1.5,1.6,3.1,2.4,4.8l1.7-8.9
				l2.4,0.6c-0.4-1.2-0.7-2.4-1.2-3.7l-0.6-0.2l0.2-1.1c-0.6-1.9-1.4-4-2.2-6.2l-1.2,6.4l-10.3-2.8l2-10.5l7.8,2.1
				c-0.5-1.2-0.9-2.5-1.4-3.8l0,0l-2.9-0.8l-7.1,4.5l-1.4,7.6l-7.5-2l-7.1,4.5l-0.4,2.3C106.9,129.9,107,130,107.1,130.1z"/>
			
				<linearGradient id="SVGID_12_" gradientUnits="userSpaceOnUse" x1="-262.7437" y1="-345.145" x2="-257.8955" y2="-345.145" gradientTransform="matrix(0.8471 -0.5315 -0.5315 -0.8471 177.8153 -284.8789)">
				<stop  offset="0" style="stop-color:#D17941"/>
				<stop  offset="1" style="stop-color:#C25B02"/>
			</linearGradient>
			<path class="st24" d="M143.6,148.7c0-1-0.2-2.1-0.4-3.5l-6.1-1.7c0.6,1.3,1.2,2.6,1.8,3.9L143.6,148.7L143.6,148.7z"/>
		</g>
	</g>
	<g>
		<path class="st25" d="M126.7,94.2c-6.1-9.7-19-12.7-28.7-6.6s-12.7,19-6.6,28.7c1,1.6,2.2,3,3.6,4.3c4.8,6.4,10.6,15.8,14.6,16.4
			c1.8,0.3,3.1-2.3,2.1-5.7c-2-6.8,7.3,2.4,13.1,0.6c5.8-1.8-0.8-12.4,2.1-14.2c2.8-1.8,6.9,4.3,9.2-1.1c1.4-3.2-4.1-11.7-7.4-18
			C128.3,97.2,127.6,95.7,126.7,94.2z"/>
		<path class="st26" d="M126.7,94.2c-6.1-9.7-19-12.7-28.7-6.6c-1.8,1.1-3.4,2.5-4.7,4c5.7,3.2,10.3,8.5,12.1,15
			c2.1,7.4,0.1,15.8-5.1,21.4c3.3,4.5,6.7,8.6,9.3,9c1.8,0.3,3.1-2.3,2.1-5.7c-2-6.8,7.3,2.4,13.1,0.6c5.8-1.8-0.8-12.4,2.1-14.2
			c2.8-1.8,6.9,4.3,9.2-1.1c1.4-3.2-4.1-11.7-7.4-18C128.3,97.2,127.6,95.7,126.7,94.2z"/>
		<path class="st27" d="M136.3,116.7c1.4-3.2-4.1-11.7-7.4-18c-0.5-1.5-1.2-3.1-2.1-4.5c-5.6-8.9-16.8-12.1-26.1-8
			c13.2,6.3,26.2,16.6,28.4,31.2C131.5,118.1,134.4,120.9,136.3,116.7z"/>
	</g>
	<g>
		<path class="st28" d="M88.6,92.7c2.2,0.2,3.8,2.9,3.5,6s-2.3,5.5-4.6,5.3c-2.2-0.2-3.8-2.9-3.5-6C84.4,94.8,86.4,92.5,88.6,92.7z"
			/>
		<path class="st29" d="M85.1,98c0.3-2.9,2-5.1,4-5.3c-0.2,0-0.3-0.1-0.5-0.1c-2.2-0.2-4.3,2.2-4.6,5.3c-0.3,3.1,1.3,5.8,3.5,6
			c0.2,0,0.3,0,0.5,0C86.2,103.4,84.8,100.9,85.1,98z"/>
	</g>
	<g>
		<path class="st30" d="M118.1,85.7c-0.3,2.5-3.4,4.1-6.9,3.6s-6-2.9-5.7-5.4s3.4-4.1,6.9-3.6C115.9,80.8,118.5,83.2,118.1,85.7z"/>
		<path class="st31" d="M112.3,81.5c3.2,0.4,5.6,2.5,5.7,4.8c0.1-0.2,0.1-0.4,0.1-0.6c0.3-2.5-2.2-4.9-5.7-5.4s-6.6,1.1-6.9,3.6
			c0,0.2,0,0.4,0,0.6C106.2,82.3,109.1,81,112.3,81.5z"/>
	</g>
	<g>
		<path class="st32" d="M100,100.3c2.3,0.9,3.2,4.3,2,7.6c-1.3,3.3-4.2,5.2-6.5,4.3c-2.3-0.9-3.2-4.3-2-7.6
			C94.8,101.3,97.7,99.4,100,100.3z"/>
		<path class="st33" d="M94.6,105c1.2-3,3.7-4.9,6-4.5c-0.2-0.1-0.3-0.2-0.5-0.3c-2.3-0.9-5.3,1-6.5,4.3c-1.3,3.3-0.4,6.7,2,7.6
			c0.2,0.1,0.4,0.1,0.6,0.2C94.1,111.1,93.4,108,94.6,105z"/>
	</g>
	<g>
		<path class="st34" d="M101.7,95.5c-0.1,0.5-1.3,0.6-2.6,0.3c-1.4-0.3-2.4-0.9-2.3-1.4s1.3-0.6,2.6-0.3S101.8,95,101.7,95.5z"/>
		<path class="st34" d="M124.2,104c-0.1,0.5-1.3,0.6-2.6,0.3c-1.4-0.3-2.4-0.9-2.3-1.4s1.3-0.6,2.6-0.3
			C123.3,102.9,124.3,103.6,124.2,104z"/>
		<path class="st34" d="M113.1,99.4c0.5,0,0.9,1.1,0.9,2.5c0.1,1.4-0.3,2.5-0.7,2.5c-0.5,0-0.9-1.1-0.9-2.5
			C112.3,100.6,112.7,99.5,113.1,99.4z"/>
		<path class="st31" d="M123.1,92.7c0.3,0.3-0.3,1.4-1.3,2.3s-2.1,1.4-2.4,1.1s0.3-1.4,1.3-2.3C121.7,92.9,122.8,92.4,123.1,92.7z"
			/>
		<path class="st31" d="M105.8,110.5c0.3-0.4,1.4,0,2.5,0.9c1.1,0.8,1.8,1.8,1.5,2.2c-0.3,0.4-1.4,0-2.5-0.9
			C106.2,111.9,105.5,110.9,105.8,110.5z"/>
		<path class="st6" d="M108.2,94.4c0.4,0.2,0.3,1.4-0.3,2.6c-0.6,1.3-1.4,2.1-1.8,1.9s-0.3-1.4,0.3-2.6
			C107,95.1,107.8,94.3,108.2,94.4z"/>
		<path class="st6" d="M100.3,116.7c0.4-0.2,1.3,0.5,2.1,1.7c0.7,1.2,1,2.3,0.6,2.6c-0.4,0.2-1.3-0.5-2.1-1.7
			C100.2,118.1,99.9,117,100.3,116.7z"/>
	</g>
</g>
<g>
	<g>
		<g>
			<path class="st6" d="M135.3,146.7l6.5,25.6c0,3.5,6.6,6.4,14.7,6.4c8.1,0,14.7-2.8,14.7-6.4l5.2-25.6H135.3z"/>
			
				<linearGradient id="SVGID_13_" gradientUnits="userSpaceOnUse" x1="135.3" y1="63.85" x2="176.3" y2="63.85" gradientTransform="matrix(1 0 0 -1 0 226)">
				<stop  offset="0" style="stop-color:#FFC75C"/>
				<stop  offset="1" style="stop-color:#E69133"/>
			</linearGradient>
			<path class="st35" d="M171.1,172.2l5.2-25.6h-41l1.1,4.2c3.3,3.3,12.9,6.9,22.4,6.9c5.5,0,5.6,11.8,5.1,20
				C168.2,176.6,171.1,174.6,171.1,172.2z"/>
		</g>
		
			<linearGradient id="SVGID_14_" gradientUnits="userSpaceOnUse" x1="135.3" y1="74.321" x2="176.3" y2="74.321" gradientTransform="matrix(1 0 0 -1 0 226)">
			<stop  offset="0" style="stop-color:#E8AA33"/>
			<stop  offset="1" style="stop-color:#CC7310"/>
		</linearGradient>
		<path class="st36" d="M176.3,146.7h-41l2,7.9c1.3,0,2.8,0,4.4-0.2c0.1,0.7,0.2,1.4,0.4,2.2c0,0,3.8,0.4,8.9-0.9v0.1
			c0,0,4.8,1.1,10.9-0.3c0.8,0.4,1.9,0.6,3.5,0.5c2.4-0.1,6.1-0.7,9.4-2.1L176.3,146.7z"/>
	</g>
	<g>
		<path class="st37" d="M157.3,124.3c-9.7-11-2.8-15.1-2.8-15.1s0,0-0.1,0c-0.1-0.1-0.9-0.5-4.7,1.8c-4,2.5,1.1,8.7,0.3,10.2
			s-3.2,1.5-6.4,1.1c-3.3-0.5-8.7,4.9-5.5,10c4.1,6.5,16.1,7.9,18.6,8.2l0,0c0.2,0,0.3,0,0.4,0l0,0h0.1c0,0,0,0,0.1,0l0,0
			C157.3,140.5,167,135.3,157.3,124.3z"/>
		<path class="st38" d="M161.9,121.6c-12.6-7.3-7.5-13.7-7.5-13.7s0,0-0.1,0.1c-0.1,0-1-0.2-3.7,3.3c-2.9,3.8,3.9,8.1,3.6,9.7
			c-0.3,1.7-2.4,2.6-5.6,3.2c-3.2,0.6-8.8,6.6-1.8,11.6c6.2,4.5,17.5,2.1,19.9,1.5l0,0c0.2,0,0.3-0.1,0.4-0.1l0,0h0.1c0,0,0,0,0-0.1
			l0,0C167.2,137.1,174.5,128.9,161.9,121.6z"/>
		<g>
			<path class="st39" d="M155.3,106.1c0,0-4.6,7.7,10.7,13.5c15.3,5.7,8.6,15.9,8.6,15.9s-14.3,6.1-23,1.9c-8.6-4.2-3.4-11.6,0-12.8
				c3.4-1.2,5.7-2.6,5.7-4.4c0-1.9-8.3-5.3-5.7-9.9C154.3,105.7,155.3,106.1,155.3,106.1z"/>
			<path class="st40" d="M151.8,137.3c8.6,4.2,23-1.9,23-1.9s6.7-10.2-8.6-15.9c-15.3-5.7-10.7-13.5-10.7-13.5s-6.3,4.5,7,16.4
				c4.9,4.4-13.3,4.1-13.2,13.2C149.9,136.2,150.7,136.7,151.8,137.3z"/>
			<path class="st37" d="M167.8,120.3c0.1,0.2,6.3,12.9-7.5,18.5l0,0c7.2-0.3,14.3-3.3,14.3-3.3S180.8,126.1,167.8,120.3z"/>
		</g>
		<path class="st39" d="M158.3,129.5c-5.5-3-22.9-7.7-23.4,8.7c0,0,16.8,15.5,25.7-2.1C160.7,136.2,163.9,132.6,158.3,129.5z"/>
		<path class="st40" d="M165.6,154.7c6.3-0.3,22.3-3.7,14.1-17.9c0,0-21.2-6.1-19.6,13.5C160.2,150.2,159.2,155,165.6,154.7z"/>
		<path class="st37" d="M160.4,131c-1.9-1.6-8.8,1.1-8.8,1.1s-24.1-0.2-20,16.8c0,0,18.3,2.4,28.1-13.8l0,0
			C161.8,132.3,161.6,131.3,160.4,131z"/>
		<path class="st38" d="M162.9,129.1c0,0-24,1.6-18.7,18.2c0,0,18.4,1,27-15.9l0,0C173,128.5,162.9,129.1,162.9,129.1z"/>
		<path class="st37" d="M175.3,131.3c-6.3-0.9-24.1,0.8-18.9,16.3c0,0,21.2,8.7,23.4-10.9C179.8,136.7,181.6,132.2,175.3,131.3z"/>
		<g>
			<path class="st39" d="M154,139.1c0,0-23.8-4-22.4,13.4c0,0,16.1,3.9,30-9.1C172.5,133.1,154,139.1,154,139.1z"/>
			<path class="st38" d="M161.5,143.4c6.9-7.2,5.4-6,1.5-5.2c-3.2,1.5-7.7,2.3-7.7,2.3s-18-2.1-23.7,12.1
				C131.6,152.5,148.3,157,161.5,143.4z"/>
		</g>
		<g>
			<path class="st39" d="M162.2,138.3c0,0-24.1,0-19.9,16.9c0,0,11.7-4.4,28-14C180,135.5,162.2,138.3,162.2,138.3z"/>
			<path class="st40" d="M170.3,141.2c5.6-8.2-6.6-1.8-6.6-1.8s-18.1,1-21.4,15.9C142.3,155.2,159.6,156.9,170.3,141.2z"/>
		</g>
		<g>
			<path class="st39" d="M172.2,137.2c0,0-24-1.5-21,17.3c0,0,18.1,3.6,28.9-13.6C185.6,132.1,172.2,137.2,172.2,137.2z"/>
			<path class="st38" d="M180.1,140.9c5.7-9-6.5-2.4-6.5-2.4s-18.1-0.1-22.4,16C151.2,154.5,169,158.5,180.1,140.9z"/>
		</g>
	</g>
	<g>
		<g>
			<path class="st6" d="M144.9,128.6c-0.6,1.3-2,1.8-3.3,1.2s-1.8-2-1.2-3.3s2-1.8,3.3-1.2C144.9,125.8,145.4,127.3,144.9,128.6z"/>
			<path class="st12" d="M143,125.1c-1.1-0.2-2.2,0.4-2.6,1.4c-0.5,1-0.2,2.2,0.7,2.9c1.1,0.2,2.2-0.4,2.6-1.4
				C144.1,127,143.8,125.8,143,125.1z"/>
		</g>
		<g>
			<path class="st6" d="M155.7,123.2c-0.6,1.3-2,1.8-3.3,1.2c-1.3-0.6-1.8-2-1.2-3.3s2-1.8,3.3-1.2
				C155.7,120.5,156.3,122,155.7,123.2z"/>
			<path class="st12" d="M153.8,119.7c-1.1-0.2-2.2,0.4-2.6,1.4c-0.5,1-0.2,2.2,0.7,2.9c1.1,0.2,2.2-0.4,2.6-1.4
				C154.9,121.6,154.6,120.4,153.8,119.7z"/>
		</g>
		<g>
			<path class="st6" d="M159.7,115.8c-0.6,1.3-2,1.8-3.3,1.2c-1.3-0.6-1.8-2-1.2-3.3s2-1.8,3.3-1.2
				C159.7,113.1,160.3,114.5,159.7,115.8z"/>
			<path class="st12" d="M157.8,112.3c-1.1-0.2-2.2,0.4-2.6,1.4c-0.5,1-0.2,2.2,0.7,2.9c1.1,0.2,2.2-0.4,2.6-1.4
				S158.6,113,157.8,112.3z"/>
		</g>
		<g>
			<circle class="st6" cx="166.2" cy="124.1" r="2.5"/>
			<path class="st12" d="M166.6,121.6c-1.1-0.2-2.2,0.4-2.6,1.4c-0.5,1-0.2,2.2,0.7,2.9c1.1,0.2,2.2-0.4,2.6-1.4
				C167.7,123.5,167.4,122.3,166.6,121.6z"/>
		</g>
		<g>
			<path class="st6" d="M159,134.5c-0.6,1.3-2,1.8-3.3,1.2s-1.8-2-1.2-3.3s2-1.8,3.3-1.2C159,131.8,159.6,133.2,159,134.5z"/>
			<path class="st12" d="M157.1,131c-1.1-0.2-2.2,0.4-2.6,1.4c-0.5,1-0.2,2.2,0.7,2.9c1.1,0.2,2.2-0.4,2.6-1.4
				C158.2,132.9,157.9,131.7,157.1,131z"/>
		</g>
		<g>
			<path class="st6" d="M138.9,139.2c-0.6,1.3-2,1.8-3.3,1.2s-1.8-2-1.2-3.3s2-1.8,3.3-1.2C138.9,136.5,139.5,138,138.9,139.2z"/>
			<path class="st12" d="M137,135.7c-1.1-0.2-2.2,0.4-2.6,1.4s-0.2,2.2,0.7,2.9c1.1,0.2,2.2-0.4,2.6-1.4
				C138.1,137.6,137.8,136.4,137,135.7z"/>
		</g>
		<g>
			<path class="st6" d="M175.5,136.7c-0.6,1.3-2,1.8-3.3,1.2s-1.8-2-1.2-3.3s2-1.8,3.3-1.2C175.5,134,176,135.5,175.5,136.7z"/>
			<path class="st12" d="M173.6,133.3c-1.1-0.2-2.2,0.4-2.6,1.4c-0.5,1-0.2,2.2,0.7,2.9c1.1,0.2,2.2-0.4,2.6-1.4
				C174.7,135.1,174.4,134,173.6,133.3z"/>
		</g>
		<g>
			<path class="st6" d="M151.6,142.4c-0.6,1.3-2,1.8-3.3,1.2s-1.8-2-1.2-3.3s2-1.8,3.3-1.2C151.6,139.7,152.2,141.2,151.6,142.4z"/>
			<path class="st12" d="M149.7,139c-1.1-0.2-2.2,0.4-2.6,1.4c-0.5,1-0.2,2.2,0.7,2.9c1.1,0.2,2.2-0.4,2.6-1.4
				C150.9,140.8,150.6,139.7,149.7,139z"/>
		</g>
		<g>
			<path class="st6" d="M165,143.2c-0.6,1.3-2,1.8-3.3,1.2s-1.8-2-1.2-3.3s2-1.8,3.3-1.2C165,140.4,165.6,141.9,165,143.2z"/>
			<path class="st12" d="M163.1,139.7c-1.1-0.2-2.2,0.4-2.6,1.4c-0.5,1-0.2,2.2,0.7,2.9c1.1,0.2,2.2-0.4,2.6-1.4
				S163.9,140.4,163.1,139.7z"/>
		</g>
	</g>
</g>
<g>
	
		<linearGradient id="SVGID_15_" gradientUnits="userSpaceOnUse" x1="170.1108" y1="866.7553" x2="228.4907" y2="866.7553" gradientTransform="matrix(0.9698 0.2438 -0.2438 0.9698 133.2078 -841.6249)">
		<stop  offset="0" style="stop-color:#FF5846"/>
		<stop  offset="1" style="stop-color:#E02550"/>
	</linearGradient>
	<path class="st41" d="M143.8,53.4c1.7-6.8-9.6-15.4-25.2-19.4c-15.6-3.9-29.7-1.6-31.4,5.1c-1.7,6.8,8.9,18.1,24.6,22
		C127.4,65.1,142.1,60.2,143.8,53.4z"/>
	<path class="st42" d="M144.9,50.9c-1.7,6.8-17,9.9-32.1,6.2C97.7,53.3,85,43.4,86.7,36.6s18-11,33.1-7.2
		C134.8,33.2,146.6,44.2,144.9,50.9z"/>
	
		<linearGradient id="SVGID_16_" gradientUnits="userSpaceOnUse" x1="167.0521" y1="389.7689" x2="231.3985" y2="389.7689" gradientTransform="matrix(0.9698 0.2438 0.2438 -0.9698 -171.5091 370.483)">
		<stop  offset="0" style="stop-color:#F98271"/>
		<stop  offset="1" style="stop-color:#FE4548"/>
	</linearGradient>
	<path class="st43" d="M147.6,50.2c-1.7,6.8-17,8.8-34.3,4.4c-17.2-4.3-29.8-13.3-28.1-20.1s17.7-11.4,34.9-7
		C137.4,31.8,149.3,43.4,147.6,50.2z"/>
	<path class="st44" d="M145.8,45.4c-1.7,6.8-15.8,9.1-31.4,5.1c-15.6-3.9-26.9-12.6-25.2-19.4s16.4-11.7,32.1-7.7
		C136.9,27.3,147.5,38.6,145.8,45.4z"/>
	
		<linearGradient id="SVGID_17_" gradientUnits="userSpaceOnUse" x1="167.0657" y1="397.9184" x2="231.4121" y2="397.9184" gradientTransform="matrix(0.9698 0.2438 0.2438 -0.9698 -171.5091 370.483)">
		<stop  offset="0" style="stop-color:#F98271"/>
		<stop  offset="1" style="stop-color:#FE4548"/>
	</linearGradient>
	<path class="st45" d="M149.6,42.3c-1.7,6.8-17,8.7-34.3,4.4c-17.2-4.3-29.8-13.3-28.1-20.1c1.7-6.8,17.7-11.4,34.9-7
		C139.4,23.9,151.3,35.5,149.6,42.3z"/>
	
		<linearGradient id="SVGID_18_" gradientUnits="userSpaceOnUse" x1="170.1139" y1="403.824" x2="228.4939" y2="403.824" gradientTransform="matrix(0.9698 0.2438 0.2438 -0.9698 -171.5091 370.483)">
		<stop  offset="0" style="stop-color:#FF5846"/>
		<stop  offset="1" style="stop-color:#E02550"/>
	</linearGradient>
	<path class="st46" d="M148.2,35.9c-1.7,6.8-15.8,9.1-31.4,5.1c-15.6-3.9-26.9-12.6-25.2-19.4s16.4-11.7,32.1-7.7
		C139.2,17.8,149.9,29.1,148.2,35.9z"/>
	<path class="st42" d="M129.2,15.7c0.1,0.1,0.3,0.2,0.4,0.3c18.7,10.5,12.7,27-17.3,23.7c1.4,0.5,2.9,0.9,4.5,1.3
		c15.6,3.9,29.7,1.6,31.4-5.1C149.7,30,141.7,20.6,129.2,15.7z"/>
	<path class="st47" d="M119.5,16.8c-1.6-2.5-5-2.2-7.7-2.1c-0.6,0-1.1,0-1.7,0c-0.8,0-1.5,0.1-2.3,0.2c-1,0.2-2,0.4-3.1,0.7
		c-1.9,0.5-5.6,1.5-5.8,4.4c-0.2,3,1.2,4.1,3.2,4.6c1.5,0.6,3.4,0.7,4.5,0.9c3,0.5,6.5,0.2,9.5-0.8C118.9,23.8,121.6,20,119.5,16.8z
		"/>
	<path class="st48" d="M89.7,27.8c-3.2,1.9,6.3,9.7,7.4,9.1C100.2,35,90.7,27.2,89.7,27.8z"/>
	<path class="st48" d="M87.9,36.2c-3.7,0.3,1.2,6.6,2.4,6.4C94,42.3,89.1,36.1,87.9,36.2z"/>
	<path class="st49" d="M92.9,22.2c-0.8,5.7,7.2,11.7,18.9,15c-6.4-2.8-15-9.6-17.1-15.6c-0.6-1.8-0.2-2.3,0.1-3.2
		C93.8,19.5,93.1,20.8,92.9,22.2z"/>
	<g>
		<path class="st50" d="M124.9,43.5c-1.2-0.3-1.6,1.5-0.5,1.8C125.6,45.6,126.1,43.8,124.9,43.5z"/>
		<path class="st50" d="M138.4,52.9c-1.2-0.3-1.6,1.5-0.5,1.8C139.1,55,139.6,53.2,138.4,52.9z"/>
		<path class="st50" d="M140.6,44.4c-1.2-0.3-1.6,1.5-0.5,1.8C141.3,46.5,141.7,44.7,140.6,44.4z"/>
		<path class="st50" d="M118.2,43.7c-0.8-0.2-1.1,1.1-0.3,1.3C118.7,45.2,119,43.9,118.2,43.7z"/>
		<path class="st50" d="M132.7,54c-0.8-0.2-1.1,1.1-0.3,1.3S133.6,54.2,132.7,54z"/>
		<path class="st50" d="M131.2,45.7c-1.3-0.3-1.7,1.6-0.5,1.9C131.9,48,132.4,46,131.2,45.7z"/>
		<path class="st50" d="M133.5,44.5c-0.9-0.2-1.2,1.1-0.3,1.3C134,46.1,134.3,44.7,133.5,44.5z"/>
		<path class="st50" d="M126.5,53.6c-0.4-1.2-2.3-0.6-1.9,0.6C125,55.5,126.9,54.9,126.5,53.6z"/>
		<path class="st50" d="M128.7,55c-0.3-0.9-1.6-0.4-1.3,0.4C127.7,56.2,129,55.8,128.7,55z"/>
	</g>
</g>
<g>
	<g>
		<path class="st51" d="M7.3,157.9v7.3c2.4,7.3,13.9,12.8,27.9,12.8c13.9,0,25.5-5.5,27.9-12.8v-7.4L7.3,157.9z"/>
		<path class="st52" d="M7.3,139.5v20.7c2.4,7.3,13.9,12.8,27.9,12.8c13.9,0,25.5-5.5,27.9-12.8v-20.7H7.3z"/>
		<path class="st53" d="M63,165.2v-25.7H45.4c-1,1-3,1.9-3,3.8c0,11.1-0.4,23.1,0.1,34.2C53,175.9,61.1,171.2,63,165.2z"/>
		<path class="st54" d="M6.8,132l0.5,7.7c2.4,7.3,13.9,12.8,27.9,12.8c13.9,0,25.5-5.5,27.9-12.8l0.5-7.7H6.8z"/>
		<path class="st55" d="M63.5,132c0,8.6-12.7,15.6-28.3,15.6s-28.3-7-28.3-15.6s12.7-15.6,28.3-15.6S63.5,123.4,63.5,132z"/>
		<path class="st56" d="M63.5,132c0,7.5-11.8,13.5-26.5,13.5c-14.6,0-26.5-6.1-26.5-13.5c0-7.5,11.8-13.5,26.5-13.5
			C51.6,118.5,63.5,124.6,63.5,132z"/>
		<path class="st57" d="M63,139.8c0-0.3,0.1-0.5,0.1-0.8c0-7.5-12.5-13.5-27.9-13.5S7.3,131.6,7.3,139c0,0.3,0,0.5,0.1,0.8
			c2.4,7.2,14,12.7,27.8,12.7C49,152.6,60.5,147.1,63,139.8z"/>
		<path class="st58" d="M25.9,155.8c0-1.9-1-3.2-2.3-3.8c-1-0.7-2.3-0.9-3.3-1.1c-1.7-0.3-2.4-1-4-1.4c-3.9-1.1-6.2,2.9-5.3,5.9
			c0,0.2,0,0.3,0,0.5c0,2-0.4,3.9,0,5.7c-0.1,1.3-0.2,2.6,0.5,3.8c1.4,2.4,4.7,3.5,7.2,4.2C26.5,171.5,25.9,160.6,25.9,155.8z"/>
		<path class="st54" d="M52.2,132.8c0,3.5-7.6,6.3-16.9,6.3c-9.4,0-16.9-2.8-16.9-6.3s7.6-6.3,16.9-6.3S52.2,129.3,52.2,132.8z"/>
		<path class="st59" d="M63.4,134.3c0,4.3-9.4,7.8-21,7.8s-21-3.5-21-7.8s9.4-7.8,21-7.8S63.4,130,63.4,134.3z"/>
		<path class="st60" d="M47.7,131.9c-4.2,3.6-11.9,4.8-18,5.2c-4,0.2-7.3-2.6-8-6.2c-0.3,9,13.7,7.6,19.2,7.3
			c3.6-0.2,7.8-2.4,9.6-5.7c0.8-1.6,1.1-3.5,1.2-5.4C50.9,128.7,49.6,130.3,47.7,131.9z"/>
		<g>
			<path class="st61" d="M35.1,146.4c0,0-0.5,0-1.4,0.1c-0.5,0-1,0-1.7,0c-0.3,0-0.7,0-1,0c-0.4,0-0.7,0-1.1-0.1
				c-1.6-0.1-3.4-0.3-5.4-0.7c-1-0.2-2-0.4-3-0.7s-2-0.6-3-1s-1.9-0.9-2.9-1.3c-0.9-0.5-1.8-1.1-2.6-1.7c-0.8-0.6-1.5-1.2-2.2-1.9
				c-0.6-0.7-1.2-1.4-1.6-2.1c-0.4-0.7-0.7-1.4-0.9-2c-0.1-0.3-0.2-0.6-0.2-0.9c0-0.3-0.1-0.5-0.1-0.8c0-0.5-0.1-0.8,0-1.1
				c0-0.2,0-0.4,0-0.4s0,0.1,0,0.4c0,0.2,0.1,0.6,0.2,1c0.1,0.2,0.1,0.5,0.2,0.7c0.1,0.2,0.2,0.5,0.3,0.8c0.3,0.6,0.6,1.2,1.1,1.8
				s1,1.2,1.7,1.8c0.6,0.6,1.4,1.1,2.2,1.7c0.8,0.5,1.7,1,2.5,1.5c0.9,0.5,1.8,0.9,2.8,1.3c1,0.4,1.9,0.7,2.9,1s1.9,0.6,2.9,0.8
				c0.9,0.2,1.9,0.4,2.7,0.6c0.9,0.2,1.7,0.3,2.5,0.4c0.8,0.1,1.5,0.2,2.1,0.3s1.2,0.1,1.6,0.2C34.6,146.4,35.1,146.4,35.1,146.4z"
				/>
		</g>
	</g>
	<g>
		<g>
			<path class="st62" d="M46,113.1c3.2-2.7,4.9-6,3.8-7.2c-1.1-1.2-4.5,0-7.7,2.7s-4.9,6-3.8,7.2C39.5,117,42.9,115.8,46,113.1z"/>
			<path class="st62" d="M49.6,118.9c3.6-2.1,5.9-5,5-6.4c-0.8-1.4-4.4-0.8-8,1.3c-3.6,2.1-5.9,5-5,6.4
				C42.4,121.6,46,121,49.6,118.9z"/>
			<path class="st63" d="M49.5,115c3.2-2.7,4.9-6,3.8-7.2c-1.1-1.2-4.5,0-7.7,2.7s-4.9,6-3.8,7.2C42.9,118.9,46.4,117.7,49.5,115z"
				/>
			<path class="st63" d="M51.9,120.6c3.7-1.9,6.1-4.6,5.4-6.1c-0.7-1.5-4.4-1.1-8.1,0.8c-3.7,1.9-6.1,4.6-5.4,6.1
				S48.1,122.5,51.9,120.6z"/>
			<path class="st63" d="M40.5,107.5c2.4-3.4,5.4-5.4,6.8-4.5c1.3,0.9,0.5,4.5-1.9,7.9s-5.4,5.4-6.8,4.5
				C37.2,114.4,38.1,110.9,40.5,107.5z"/>
		</g>
		<g>
			
				<linearGradient id="SVGID_19_" gradientUnits="userSpaceOnUse" x1="-920.1563" y1="-298.8017" x2="-892.2268" y2="-298.8017" gradientTransform="matrix(-0.6545 -0.7561 -0.7561 0.6545 -783.1797 -365.8571)">
				<stop  offset="0" style="stop-color:#940F10"/>
				<stop  offset="1" style="stop-color:#D42D26"/>
			</linearGradient>
			<path class="st64" d="M29.4,110.8c7.7-6.6,13.8-3.7,18.8,2.2c5,5.8,7.1,12.3-0.5,18.9c-4.2,3.6-11.9,4.8-18,5.2
				c-5,0.3-9-4.3-8-9.2C23,121.9,25.3,114.4,29.4,110.8z"/>
			<path class="st65" d="M30.2,110.2c5.6-4.9,10.1-2.7,13.7,1.6c3.7,4.3,5.2,9-0.4,13.8c-3,2.6-8.7,3.5-13.1,3.8
				c-3.7,0.2-6.5-3.1-5.8-6.7C25.5,118.2,27.1,112.8,30.2,110.2z"/>
			<g>
				<g>
					<path class="st66" d="M45.4,125c-0.2-0.3-0.3-0.6-0.1-1c0.2-0.6,0.5-1,0.8-1.3c1.1-0.9,1.8-0.2,2,0s0.8,1-0.3,2
						c-0.3,0.3-0.8,0.5-1.4,0.6C45.9,125.3,45.6,125.2,45.4,125z"/>
					<path class="st66" d="M41.8,129.7c-0.2-0.3-0.3-0.6-0.1-1c0.2-0.6,0.5-1,0.8-1.3c1.1-0.9,1.8-0.2,2,0s0.8,1-0.3,2
						c-0.3,0.3-0.8,0.5-1.4,0.6C42.4,130.1,42,130,41.8,129.7z"/>
					<path class="st66" d="M40.5,124.1c-0.2-0.3-0.3-0.6-0.1-1c0.2-0.6,0.5-1,0.8-1.3c1.1-0.9,1.8-0.2,2,0s0.8,1-0.3,2
						c-0.3,0.3-0.8,0.5-1.4,0.6C41.1,124.5,40.8,124.4,40.5,124.1z"/>
					<path class="st66" d="M41.5,118c-0.2-0.3-0.3-0.6-0.1-1c0.2-0.6,0.5-1,0.8-1.3c1.1-0.9,1.8-0.2,2,0s0.8,1-0.3,2
						c-0.3,0.3-0.8,0.5-1.4,0.6C42.1,118.4,41.7,118.3,41.5,118z"/>
					<path class="st66" d="M36.5,113.6c-0.2-0.3-0.3-0.6-0.1-1c0.2-0.6,0.5-1,0.8-1.3c1.1-0.9,1.8-0.2,2,0s0.8,1-0.3,2
						c-0.3,0.3-0.8,0.5-1.4,0.6C37.1,113.9,36.7,113.8,36.5,113.6z"/>
					<path class="st66" d="M35.8,123.5c-0.2-0.3-0.3-0.6-0.1-1c0.2-0.6,0.5-1,0.8-1.3c1.1-0.9,1.8-0.2,2,0s0.8,1-0.3,2
						c-0.3,0.3-0.8,0.5-1.4,0.6C36.4,123.8,36,123.7,35.8,123.5z"/>
					<path class="st66" d="M35.4,130.5c-0.2-0.3-0.3-0.6-0.1-1c0.2-0.6,0.5-1,0.8-1.3c1.1-0.9,1.8-0.2,2,0s0.8,1-0.3,2
						c-0.3,0.3-0.8,0.5-1.4,0.6C36,130.9,35.6,130.8,35.4,130.5z"/>
					<path class="st66" d="M29.6,132.5c-0.2-0.3-0.1-0.7,0.1-1c0.4-0.5,0.8-0.9,1.1-1.1c1.3-0.6,1.8,0.2,1.9,0.5s0.5,1.2-0.8,1.8
						c-0.4,0.2-0.9,0.3-1.5,0.3C30,133,29.7,132.8,29.6,132.5z"/>
					<path class="st66" d="M26.5,128.5c0.3,0.2,0.7,0.2,1,0c0.6-0.3,1-0.6,1.2-1c0.8-1.2,0.1-1.8-0.2-2c-0.2-0.2-1.1-0.6-1.9,0.5
						c-0.2,0.3-0.4,0.8-0.5,1.5C26.1,128,26.2,128.3,26.5,128.5z"/>
					<path class="st66" d="M29.7,121.9c-0.2-0.3-0.3-0.6-0.1-1c0.2-0.6,0.5-1,0.8-1.3c1.1-0.9,1.8-0.2,2,0s0.8,1-0.3,2
						c-0.3,0.3-0.8,0.5-1.4,0.6C30.3,122.3,29.9,122.2,29.7,121.9z"/>
					<path class="st66" d="M31.6,116.6c-0.2-0.3-0.3-0.6-0.1-1c0.2-0.6,0.5-1,0.8-1.3c1.1-0.9,1.8-0.2,2,0s0.8,1-0.3,2
						c-0.3,0.3-0.8,0.5-1.4,0.6C32.2,117,31.8,116.9,31.6,116.6z"/>
					<path class="st66" d="M30.6,128.3c-0.2-0.3-0.3-0.6-0.1-1c0.2-0.6,0.5-1,0.8-1.3c1.1-0.9,1.8-0.2,2,0s0.8,1-0.3,2
						c-0.3,0.3-0.8,0.5-1.4,0.6C31.2,128.7,30.8,128.6,30.6,128.3z"/>
					<g>
						<path class="st67" d="M46.3,122.9c0.6-0.5,1-0.4,1.4,0c0.3,0.4,0.4,0.8-0.2,1.3c-0.3,0.3-0.9,0.4-1.4,0.5
							c-0.4,0.1-0.6-0.2-0.5-0.6C45.8,123.8,46,123.2,46.3,122.9z"/>
						<path class="st67" d="M42.8,127.7c0.6-0.5,1-0.4,1.4,0c0.3,0.4,0.4,0.8-0.2,1.3c-0.3,0.3-0.9,0.4-1.4,0.5
							c-0.4,0.1-0.6-0.2-0.5-0.6C42.2,128.6,42.4,128,42.8,127.7z"/>
						<path class="st67" d="M41.5,122.1c0.6-0.5,1-0.4,1.4,0c0.3,0.4,0.4,0.8-0.2,1.3c-0.3,0.3-0.9,0.4-1.4,0.5
							c-0.4,0.1-0.6-0.2-0.5-0.6C40.9,122.9,41.2,122.4,41.5,122.1z"/>
						<path class="st67" d="M42.4,116c0.6-0.5,1-0.4,1.4,0c0.3,0.4,0.4,0.8-0.2,1.3c-0.3,0.3-0.9,0.4-1.4,0.5
							c-0.4,0.1-0.6-0.2-0.5-0.6C41.9,116.8,42.1,116.3,42.4,116z"/>
						<path class="st67" d="M37.5,111.5c0.6-0.5,1-0.4,1.4,0c0.3,0.4,0.4,0.8-0.2,1.3c-0.3,0.3-0.9,0.4-1.4,0.5
							c-0.4,0.1-0.6-0.2-0.5-0.6C36.9,112.4,37.1,111.8,37.5,111.5z"/>
						<path class="st67" d="M36.8,121.4c0.6-0.5,1-0.4,1.4,0c0.3,0.4,0.4,0.8-0.2,1.3c-0.3,0.3-0.9,0.4-1.4,0.5
							c-0.4,0.1-0.6-0.2-0.5-0.6C36.2,122.3,36.4,121.7,36.8,121.4z"/>
						<path class="st67" d="M36.3,128.5c0.6-0.5,1-0.4,1.4,0c0.3,0.4,0.4,0.8-0.2,1.3c-0.3,0.3-0.9,0.4-1.4,0.5
							c-0.4,0.1-0.6-0.2-0.5-0.6C35.8,129.3,36,128.8,36.3,128.5z"/>
						<path class="st67" d="M31,130.8c0.7-0.4,1.1-0.1,1.3,0.3c0.2,0.4,0.2,0.9-0.5,1.2c-0.4,0.2-1,0.2-1.5,0.2
							c-0.4,0-0.5-0.4-0.3-0.7C30.3,131.5,30.6,131,31,130.8z"/>
						<path class="st67" d="M28.4,127.3c0.5-0.7,0.3-1.1-0.1-1.4s-0.8-0.3-1.3,0.4c-0.3,0.4-0.3,1-0.4,1.4c0,0.4,0.3,0.6,0.6,0.4
							C27.6,128,28.1,127.7,28.4,127.3z"/>
						<path class="st67" d="M30.7,119.9c0.6-0.5,1-0.4,1.4,0c0.3,0.4,0.4,0.8-0.2,1.3c-0.3,0.3-0.9,0.4-1.4,0.5
							c-0.4,0.1-0.6-0.2-0.5-0.6C30.1,120.7,30.3,120.2,30.7,119.9z"/>
						<path class="st67" d="M32.6,114.6c0.6-0.5,1-0.4,1.4,0c0.3,0.4,0.4,0.8-0.2,1.3c-0.3,0.3-0.9,0.4-1.4,0.5
							c-0.4,0.1-0.6-0.2-0.5-0.6C32,115.4,32.2,114.9,32.6,114.6z"/>
						<path class="st67" d="M31.6,126.3c0.6-0.5,1-0.4,1.4,0c0.3,0.4,0.4,0.8-0.2,1.3c-0.3,0.3-0.9,0.4-1.4,0.5
							c-0.4,0.1-0.6-0.2-0.5-0.6C31,127.2,31.2,126.6,31.6,126.3z"/>
						<path class="st66" d="M25.8,132.5c-0.2-0.3-0.3-0.6-0.1-1c0.2-0.6,0.5-1,0.8-1.3c1.1-0.9,1.8-0.2,2,0s0.8,1-0.3,2
							c-0.3,0.3-0.8,0.5-1.4,0.6C26.4,132.8,26,132.7,25.8,132.5z"/>
						<path class="st67" d="M26.8,130.5c0.6-0.5,1-0.4,1.4,0c0.3,0.4,0.4,0.8-0.2,1.3c-0.3,0.3-0.9,0.4-1.4,0.5
							c-0.4,0.1-0.6-0.2-0.5-0.6C26.2,131.3,26.4,130.8,26.8,130.5z"/>
					</g>
				</g>
			</g>
			<path class="st68" d="M30.5,111.4c4.4-3.8,7.9-2.1,10.8,1.3c2.9,3.4,4.1,7.1-0.3,10.9c-2.4,2.1-6.8,2.8-10.4,3
				c-2.9,0.2-5.2-2.5-4.6-5.3C26.7,117.7,28.1,113.4,30.5,111.4z"/>
			<path class="st69" d="M33.9,110.6c-1.2-0.9-6.2,5.6-5,6.5C30,118,35,111.4,33.9,110.6z"/>
		</g>
	</g>
</g>
<g>
	<path class="st70" d="M184.1,160.7c0,0-9.9,7.3-18.4,17.5l44.7,1.6c0.6,0,1.3-0.2,1.7-0.6l14.5-12.5L184.1,160.7z"/>
	<path class="st71" d="M222.9,169.8c-0.2-0.2-0.4-0.3-0.6-0.3l-29.7-4.2c-1.9-0.3-3.8,0.3-5.2,1.5c-2.4,2-4.8,4.1-7.1,6.3
		c-0.8,0.8-0.8,2-0.1,2.8c0.4,0.4,0.9,0.7,1.5,0.7l32,1.1L222.9,169.8z"/>
	<path class="st72" d="M181.7,175.7c-0.9,0-1.4-1.2-0.7-1.8c2.7-2.6,5.2-4.7,7-6.3c1.2-1,2.8-1.5,4.4-1.2l29.7,4.2l-7.4,6.4
		L181.7,175.7z"/>
	<path class="st73" d="M184,173.8c1.7-1.6,3.5-3.2,5.3-4.7c0.8-0.7,1.8-1,2.9-0.8l26.9,4.4l-3.1,2.7L184,173.8z"/>
	<path class="st74" d="M184.1,160.7c0,0-12.2-14.8-2.3-32.4l-15.6,13.4c0,0-10.6,6.3-0.5,36.4L184.1,160.7z"/>
	<path class="st75" d="M212.1,179.1l14.5-12.5l-26.2-3.7c1.4,0.8,2.8,1.7,4.1,2.7c1.2,0.9,2.2,2.3,3.2,3.4c1.6,1.8,1.7,3.1,1.4,5.3
		c-0.3,1.6-0.9,3.7-1.8,5.3l3.1,0.1C211,179.8,211.7,179.5,212.1,179.1z"/>
	<path class="st76" d="M222.2,170.5l-15.1-2.1c0.2,0.2,0.4,0.5,0.6,0.7c1.6,1.8,1.7,3.1,1.4,5.3c-0.1,0.7-0.3,1.5-0.5,2.3l6.2,0.2
		L222.2,170.5z"/>
	<path class="st74" d="M226.6,166.7c0,0-40.7-38.1-44.9-38.3c0,0-12.8,13.3,2.3,32.4L226.6,166.7z"/>
	<path class="st77" d="M219.1,172.7L209,171c0.4,1,0.4,2,0.2,3.3c0,0.2-0.1,0.4-0.1,0.7l7,0.4L219.1,172.7z"/>
	<path class="st78" d="M187.2,158.6l36.2,5.1c-8-7.4-28.7-26.4-37.7-33c-0.2-0.1-0.4-0.2-0.6-0.2C185.1,130.5,174,142,187.2,158.6z"
		/>
	<path class="st79" d="M188.9,151.4c-1.3-3.2-2.3-6.6-3.1-10c-0.6-2.8-1-5.6-0.2-8.4c-2.1,3.1-6.3,11.8,2.7,23.6l9.7,1.4
		C194.7,156.4,190.4,155.1,188.9,151.4z"/>
	<path class="st80" d="M184.1,160.7c0,0-12.2-14.8-2.3-32.4l-8.1,6.9c-0.2,0.8-0.4,1.6-0.6,2.2c-0.7,2.3-1.3,4.6-1.4,7.1
		c-0.2,3,0.2,5.6-0.8,8.5c-1.2,3.3-2.5,6.2-4.4,9.2c-1.1,1.7-2.4,3.4-3.8,4.9c0.7,3.3,1.7,6.9,3.1,11L184.1,160.7z"/>
	<path class="st74" d="M204.7,155.1c1.4-1.4,2.9-3,4.2-4.7c-4.9-4.4-10.1-9-14.7-12.9c-0.6,1.1-1.1,2.4-1.4,4.1
		c-0.6,3.7,1.6,8.6,3.6,12.3C198.2,156.9,202.2,157.5,204.7,155.1z"/>
	<g>
		<g>
			<path class="st62" d="M203.2,136.3c0.4-2.8-0.1-5.3-1.3-5.4c-1.1-0.2-2.3,2-2.8,4.8c-0.4,2.8,0.1,5.3,1.3,5.4
				C201.6,141.3,202.8,139.1,203.2,136.3z"/>
			<path class="st62" d="M207.7,137.7c0.9-2.7,0.8-5.2-0.2-5.6c-1.1-0.4-2.7,1.5-3.6,4.2c-0.9,2.7-0.8,5.2,0.2,5.6
				C205.2,142.3,206.8,140.4,207.7,137.7z"/>
			<path class="st63" d="M205.9,135.7c0.4-2.8-0.1-5.3-1.3-5.4c-1.1-0.2-2.3,2-2.8,4.8c-0.4,2.8,0.1,5.3,1.3,5.4
				C204.2,140.7,205.5,138.6,205.9,135.7z"/>
			<path class="st63" d="M209.6,137.6c1.1-2.6,1.1-5.1,0.1-5.6c-1-0.4-2.8,1.4-3.8,4c-1.1,2.6-1.1,5.1-0.1,5.6
				S208.5,140.3,209.6,137.6z"/>
			<path class="st63" d="M197.8,135.9c-0.3-2.8,0.4-5.2,1.5-5.3s2.2,2.1,2.5,5c0.3,2.8-0.4,5.2-1.5,5.3
				C199.2,140.9,198.1,138.7,197.8,135.9z"/>
		</g>
		<g>
			
				<linearGradient id="SVGID_20_" gradientUnits="userSpaceOnUse" x1="-1465.7916" y1="1374.7777" x2="-1446.6858" y2="1374.7777" gradientTransform="matrix(-0.9894 -0.1456 -0.1456 0.9894 -1037.9397 -1425.9218)">
				<stop  offset="0" style="stop-color:#940F10"/>
				<stop  offset="1" style="stop-color:#D42D26"/>
			</linearGradient>
			<path class="st81" d="M193.6,142.5c1-6.9,5.5-8,10.7-7.3c5.2,0.8,9.2,3.2,8.2,10.1c-0.5,3.7-4,7.8-7,10.7
				c-2.5,2.4-6.5,1.8-8.2-1.2C195.2,151.2,193.1,146.3,193.6,142.5z"/>
			<path class="st65" d="M193.7,141.9c0.7-5,4-5.9,7.8-5.3c3.8,0.6,6.7,2.3,6,7.3c-0.4,2.7-2.9,5.7-5.1,7.8c-1.8,1.7-4.8,1.3-6-0.9
				C194.9,148.2,193.3,144.6,193.7,141.9z"/>
			<g>
				<g>
					<path class="st66" d="M208.2,142.8c-0.2,0-0.4-0.2-0.5-0.4c-0.1-0.4-0.2-0.8-0.2-1c0.1-1,0.8-0.9,1-0.9s0.9,0.2,0.7,1.2
						c0,0.3-0.2,0.6-0.4,1C208.6,142.7,208.4,142.8,208.2,142.8z"/>
					<path class="st66" d="M208.5,146.8c-0.2,0-0.4-0.2-0.5-0.4c-0.1-0.4-0.2-0.8-0.2-1c0.1-1,0.8-0.9,1-0.9s0.9,0.2,0.7,1.2
						c0,0.3-0.2,0.6-0.5,1C208.9,146.8,208.7,146.9,208.5,146.8z"/>
					<path class="st66" d="M205.3,144.5c-0.2,0-0.4-0.2-0.5-0.4c-0.1-0.4-0.2-0.8-0.2-1c0.1-1,0.8-0.9,1-0.9s0.9,0.2,0.7,1.2
						c0,0.3-0.2,0.6-0.5,1C205.8,144.4,205.5,144.5,205.3,144.5z"/>
					<path class="st66" d="M203.1,140.9c-0.2,0-0.4-0.2-0.5-0.4c-0.1-0.4-0.2-0.8-0.2-1c0.1-1,0.8-0.9,1-0.9s0.9,0.2,0.7,1.2
						c0,0.3-0.2,0.6-0.5,1C203.5,140.8,203.3,140.9,203.1,140.9z"/>
					<path class="st66" d="M198.5,140.8c-0.2,0-0.4-0.2-0.5-0.4c-0.1-0.4-0.2-0.8-0.2-1c0.1-1,0.8-0.9,1-0.9s0.9,0.2,0.7,1.2
						c0,0.3-0.2,0.6-0.5,1C199,140.7,198.7,140.9,198.5,140.8z"/>
					<path class="st66" d="M202.6,146.3c-0.2,0-0.4-0.2-0.5-0.4c-0.1-0.4-0.2-0.8-0.2-1c0.1-1,0.8-0.9,1-0.9s0.9,0.2,0.7,1.2
						c0,0.3-0.2,0.6-0.5,1C203,146.2,202.8,146.3,202.6,146.3z"/>
					<path class="st66" d="M205.5,150.1c-0.2,0-0.4-0.2-0.5-0.4c-0.1-0.4-0.2-0.8-0.2-1c0.1-1,0.8-0.9,1-0.9s0.9,0.2,0.7,1.2
						c0,0.3-0.2,0.6-0.5,1C205.9,150,205.7,150.1,205.5,150.1z"/>
					<path class="st66" d="M203.4,153.7c-0.2-0.1-0.4-0.3-0.4-0.6c0-0.4,0-0.8,0.1-1.1c0.4-0.9,1-0.7,1.2-0.6
						c0.2,0.1,0.8,0.4,0.4,1.3c-0.1,0.3-0.3,0.5-0.7,0.8C203.8,153.8,203.6,153.8,203.4,153.7z"/>
					<path class="st66" d="M200,153c0.2,0,0.4-0.2,0.5-0.4c0.2-0.4,0.2-0.8,0.2-1c-0.1-1-0.8-1-1-0.9c-0.2,0-0.9,0.2-0.8,1.1
						c0,0.3,0.2,0.6,0.4,1C199.5,152.9,199.8,153.1,200,153z"/>
					<path class="st66" d="M198.7,148.2c-0.2,0-0.4-0.2-0.5-0.4c-0.1-0.4-0.2-0.8-0.2-1c0.1-1,0.8-0.9,1-0.9s0.9,0.2,0.7,1.2
						c0,0.3-0.2,0.6-0.5,1C199.2,148.1,198.9,148.2,198.7,148.2z"/>
					<path class="st66" d="M197.3,144.6c-0.2,0-0.4-0.2-0.5-0.4c-0.1-0.4-0.2-0.8-0.2-1c0.1-1,0.8-0.9,1-0.9s0.9,0.2,0.7,1.2
						c0,0.3-0.2,0.6-0.5,1C197.8,144.5,197.6,144.6,197.3,144.6z"/>
					<path class="st66" d="M202,151.1c-0.2,0-0.4-0.2-0.5-0.4c-0.1-0.4-0.2-0.8-0.2-1c0.1-1,0.8-0.9,1-0.9s0.9,0.2,0.7,1.2
						c0,0.3-0.2,0.6-0.4,1C202.5,151,202.3,151.1,202,151.1z"/>
					<g>
						<path class="st67" d="M207.8,141.3c0.1-0.6,0.4-0.7,0.7-0.6c0.3,0,0.6,0.2,0.5,0.8c0,0.3-0.3,0.6-0.5,0.9
							c-0.2,0.2-0.4,0.2-0.5-0.1C207.9,142,207.7,141.6,207.8,141.3z"/>
						<path class="st67" d="M208.1,145.3c0.1-0.6,0.4-0.7,0.7-0.6c0.3,0,0.6,0.2,0.5,0.8c0,0.3-0.3,0.6-0.5,0.9
							c-0.2,0.2-0.4,0.2-0.5-0.1C208.2,146,208,145.6,208.1,145.3z"/>
						<path class="st67" d="M204.9,143c0.1-0.6,0.4-0.7,0.7-0.6c0.3,0,0.6,0.2,0.5,0.8c0,0.3-0.3,0.6-0.5,0.9
							c-0.2,0.2-0.4,0.2-0.5-0.1C205,143.7,204.9,143.3,204.9,143z"/>
						<path class="st67" d="M202.7,139.4c0.1-0.6,0.4-0.7,0.7-0.6c0.3,0,0.6,0.2,0.5,0.8c0,0.3-0.3,0.6-0.5,0.9
							c-0.2,0.2-0.4,0.2-0.5-0.1C202.8,140.1,202.6,139.7,202.7,139.4z"/>
						<path class="st67" d="M198.1,139.3c0.1-0.6,0.4-0.7,0.7-0.6c0.3,0,0.6,0.2,0.5,0.8c0,0.3-0.3,0.6-0.5,0.9
							c-0.2,0.2-0.4,0.2-0.5-0.1C198.2,140,198.1,139.6,198.1,139.3z"/>
						<path class="st67" d="M202.2,144.8c0.1-0.6,0.4-0.7,0.7-0.6c0.3,0,0.6,0.2,0.5,0.8c0,0.3-0.3,0.6-0.5,0.9
							c-0.2,0.2-0.4,0.2-0.5-0.1C202.2,145.5,202.1,145.1,202.2,144.8z"/>
						<path class="st67" d="M205.1,148.6c0.1-0.6,0.4-0.7,0.7-0.6c0.3,0,0.6,0.2,0.5,0.8c0,0.3-0.3,0.6-0.5,0.9
							c-0.2,0.2-0.4,0.2-0.5-0.1C205.2,149.3,205,148.9,205.1,148.6z"/>
						<path class="st67" d="M203.4,152.2c0.2-0.5,0.5-0.5,0.8-0.4s0.5,0.4,0.3,0.9c-0.1,0.3-0.4,0.5-0.7,0.7c-0.2,0.1-0.4,0-0.5-0.2
							C203.3,152.9,203.2,152.5,203.4,152.2z"/>
						<path class="st67" d="M200.4,151.6c-0.1-0.6-0.3-0.7-0.7-0.6c-0.3,0-0.6,0.2-0.5,0.8c0,0.3,0.3,0.6,0.4,0.9
							c0.2,0.2,0.4,0.2,0.5-0.1C200.3,152.3,200.5,151.9,200.4,151.6z"/>
						<path class="st67" d="M198.3,146.7c0.1-0.6,0.4-0.7,0.7-0.6c0.3,0,0.6,0.2,0.5,0.8c0,0.3-0.3,0.6-0.5,0.9
							c-0.2,0.2-0.4,0.2-0.5-0.1C198.4,147.4,198.3,147,198.3,146.7z"/>
						<path class="st67" d="M196.9,143.1c0.1-0.6,0.4-0.7,0.7-0.6c0.3,0,0.6,0.2,0.5,0.8c0,0.3-0.3,0.6-0.5,0.9
							c-0.2,0.2-0.4,0.2-0.5-0.1C197,143.8,196.9,143.4,196.9,143.1z"/>
						<path class="st67" d="M201.6,149.6c0.1-0.6,0.4-0.7,0.7-0.6c0.3,0,0.6,0.2,0.5,0.8c0,0.3-0.3,0.6-0.5,0.9
							c-0.2,0.2-0.4,0.2-0.5-0.1C201.7,150.3,201.6,149.9,201.6,149.6z"/>
						<path class="st66" d="M201.4,155.4c-0.2,0-0.4-0.2-0.5-0.4c-0.1-0.4-0.2-0.8-0.2-1c0.1-1,0.8-0.9,1-0.9s0.9,0.2,0.7,1.2
							c0,0.3-0.2,0.6-0.4,1C201.9,155.3,201.6,155.4,201.4,155.4z"/>
						<path class="st67" d="M201,153.9c0.1-0.6,0.4-0.7,0.7-0.6c0.3,0,0.6,0.2,0.5,0.8c0,0.3-0.3,0.6-0.5,0.9
							c-0.2,0.2-0.4,0.2-0.5-0.1C201.1,154.6,201,154.2,201,153.9z"/>
					</g>
				</g>
			</g>
			<path class="st68" d="M194.4,142.4c0.6-4,3.2-4.6,6.2-4.2c3,0.4,5.3,1.8,4.7,5.8c-0.3,2.1-2.3,4.5-4,6.2c-1.4,1.4-3.8,1-4.7-0.7
				C195.3,147.3,194.1,144.5,194.4,142.4z"/>
			<path class="st69" d="M195.8,140.4c-1,0.1-0.7,5.7,0.3,5.6C197.1,146,196.8,140.4,195.8,140.4z"/>
		</g>
	</g>
	<path class="st78" d="M208,156c-1.1-0.1-2.2-0.3-3.3-0.5c-1.3-1.1-2.5-3-3.4-3.6s-1.6-1.4-2.6-1.9s-2.1-1-3.1-1.5
		c-1-1.3-2-2.6-3.8-2.8c-0.8-0.1-1.6,0.4-1.8,1.2c-0.5,1.7,0.4,3.1,1.5,4.3c0.7,0.8,1.6,1.2,2.2,2c0.6,0.8,1.4,1.7,2.2,2.3
		c2.3,1.6,4.7,2.5,7.3,3.2c1.5,1.1,3.3,1.6,5.3,0.7C210.3,158.5,209.7,156.2,208,156z"/>
	<polygon class="st80" points="226.6,166.7 225.5,167.6 182.7,162 184.1,160.7 	"/>
	<g>
		<g>
			<path class="st82" d="M188.7,137.8c-0.2,0-0.3-0.2-0.3-0.4l0.2-2.5c0-0.2,0.2-0.3,0.4-0.3s0.3,0.2,0.3,0.4l-0.2,2.5
				C189.1,137.6,188.9,137.8,188.7,137.8z"/>
			<path class="st83" d="M188.9,134.9c0-0.1,0-0.2-0.1-0.3c-0.1,0-0.3,0.2-0.3,0.3l-0.2,2.5c0,0.1,0.1,0.3,0.2,0.3
				c0.1,0,0.2-0.2,0.2-0.3L188.9,134.9z"/>
		</g>
		<g>
			<path class="st82" d="M191.1,143.2c-0.2,0.1-0.4,0-0.5-0.2l-1.1-2.2c-0.1-0.2,0-0.4,0.2-0.5s0.4,0,0.5,0.2l1.1,2.2
				C191.3,142.9,191.3,143.1,191.1,143.2z"/>
			<path class="st83" d="M189.8,140.6c-0.1-0.1-0.1-0.2-0.2-0.2c-0.1,0.1-0.1,0.3-0.1,0.4l1.1,2.2c0.1,0.1,0.2,0.2,0.3,0.2
				c0.1-0.1,0-0.2,0-0.4L189.8,140.6z"/>
		</g>
		<g>
			<path class="st82" d="M194,139.7c-0.1,0.2-0.3,0.2-0.5,0.1l-2-1.4c-0.2-0.1-0.2-0.3-0.1-0.5c0.1-0.2,0.3-0.2,0.5-0.1l2,1.4
				C194.1,139.3,194.1,139.5,194,139.7z"/>
			<path class="st83" d="M191.6,138.1c-0.1-0.1-0.2-0.1-0.3-0.1c0,0.1,0,0.3,0.1,0.4l2,1.4c0.1,0.1,0.3,0.1,0.4,0
				c0-0.1-0.1-0.2-0.2-0.3L191.6,138.1z"/>
		</g>
		<g>
			<path class="st82" d="M192.9,147.2c0,0.2-0.2,0.3-0.4,0.3l-2.4-0.5c-0.2,0-0.3-0.2-0.3-0.4s0.2-0.3,0.4-0.3l2.4,0.5
				C192.8,146.8,193,147,192.9,147.2z"/>
			<path class="st83" d="M190.1,146.7c-0.1,0-0.2,0-0.3,0c0,0.1,0.1,0.3,0.3,0.3l2.4,0.5c0.1,0,0.3,0,0.3-0.1s-0.1-0.2-0.3-0.2
				L190.1,146.7z"/>
		</g>
		<g>
			<path class="st82" d="M195.3,150.8c0.2,0.1,0.3,0.3,0.2,0.5l-0.8,2.4c-0.1,0.2-0.3,0.3-0.5,0.2s-0.3-0.3-0.2-0.5l0.8-2.4
				C194.9,150.8,195.1,150.7,195.3,150.8z"/>
			<path class="st83" d="M194.4,153.5c0,0.1,0,0.2,0,0.3c0.1,0,0.3-0.1,0.3-0.2l0.8-2.4c0-0.1,0-0.3-0.1-0.4c-0.1,0-0.2,0.1-0.2,0.3
				L194.4,153.5z"/>
		</g>
		<g>
			<path class="st82" d="M199.9,153.8c0.2-0.1,0.4,0,0.5,0.2l0.7,2.4c0.1,0.2,0,0.4-0.2,0.5s-0.4,0-0.5-0.2l-0.7-2.4
				C199.6,154.1,199.7,153.9,199.9,153.8z"/>
			<path class="st83" d="M200.7,156.6c0,0.1,0.1,0.2,0.2,0.3c0.1-0.1,0.2-0.2,0.1-0.4l-0.7-2.4c0-0.1-0.2-0.2-0.3-0.2
				c-0.1,0.1-0.1,0.2,0,0.4L200.7,156.6z"/>
		</g>
		<g>
			<path class="st82" d="M207.6,156.3c0.1-0.2,0.3-0.2,0.5-0.1l2.2,1.2c0.2,0.1,0.2,0.3,0.1,0.5c-0.1,0.2-0.3,0.2-0.5,0.1l-2.2-1.2
				C207.5,156.7,207.5,156.5,207.6,156.3z"/>
			<path class="st83" d="M210.1,157.7c0.1,0.1,0.2,0.1,0.3,0.1c0-0.1,0-0.3-0.2-0.4l-2.2-1.2c-0.1-0.1-0.3-0.1-0.4,0
				c0,0.1,0.1,0.2,0.2,0.3L210.1,157.7z"/>
		</g>
		<g>
			<path class="st82" d="M212.5,155.3c0.2-0.1,0.4-0.1,0.5,0.1l1.5,2c0.1,0.2,0.1,0.4-0.1,0.5c-0.2,0.1-0.4,0.1-0.5-0.1l-1.5-2
				C212.3,155.6,212.3,155.4,212.5,155.3z"/>
			<path class="st83" d="M214.3,157.5c0.1,0.1,0.2,0.2,0.3,0.2c0.1-0.1,0.1-0.3,0-0.4l-1.5-2c-0.1-0.1-0.2-0.2-0.3-0.1
				c0,0.1,0,0.2,0.1,0.4L214.3,157.5z"/>
		</g>
	</g>
	<path class="st71" d="M195.6,172.7c-0.4,0.4-1.1,0.3-1.5-0.1c-0.4-0.4-0.3-1.1,0.1-1.5c0.4-0.4,1.1-0.3,1.5,0.1
		C196.1,171.7,196,172.3,195.6,172.7z"/>
	<path class="st71" d="M198.6,171.8c-0.2,0.2-0.5,0.2-0.7-0.1c-0.2-0.2-0.2-0.5,0.1-0.7c0.2-0.2,0.5-0.2,0.7,0.1
		C198.8,171.3,198.8,171.6,198.6,171.8z"/>
	<path class="st71" d="M207.6,174.3c-0.2,0.2-0.5,0.2-0.7-0.1c-0.2-0.2-0.2-0.5,0.1-0.7c0.2-0.2,0.5-0.2,0.7,0.1
		C207.9,173.8,207.9,174.1,207.6,174.3z"/>
	<path class="st4" d="M191.5,157.2c-0.4-0.2-0.7-0.4-1-0.6c-1.8-1-5.6-8.1-6.1-10c-0.5-2-1.4-4.1-1.3-6.2c0-0.1-0.1-0.2-0.2-0.2
		c-0.6,4.2,0.3,9.9,5.4,16.6L191.5,157.2z"/>
</g>
<g>
	<g>
		<g>
			<path class="st84" d="M68.2,67.8c0,0,2-1.4,4.6-1.4c2.7,0,4.4,1.4,4.4,1.4L73.5,71L68.2,67.8z"/>
			<g>
				<path class="st85" d="M60,172.5c0,0-2.1,1.6-4.3,3.1s-2.1,4-2.1,4h13.9c0,0,0.4-5.8-1.1-7.1C64.1,172.5,60,172.5,60,172.5z"/>
				<rect x="53.6" y="178.8" class="st86" width="13.9" height="0.9"/>
			</g>
			<g>
				<path class="st85" d="M87.6,172.5c0,0,2.1,1.6,4.3,3.1c2.2,1.5,2.1,4,2.1,4H80.1c0,0-0.4-5.8,1.1-7.1
					C83.5,172.5,87.6,172.5,87.6,172.5z"/>
				<rect x="80.1" y="178.7" class="st86" width="13.9" height="0.9"/>
			</g>
			<g>
				<g>
					<g>
						<g>
							<path class="st87" d="M69.3,66.1c0,0,0.2,2.5-0.2,3.9c-0.2,0.8,4,4.6,4,4.6s3.1-2.5,3.3-4.6c-0.1-1.7-0.4-3.9-0.4-3.9H69.3z"
								/>
							<g>
								<g>
									<path class="st88" d="M66.6,57.8c0,0-0.9-0.5-1.4,0.7c-0.6,1.1,0.5,2.9,1.4,2.9C67.5,61.5,66.6,57.8,66.6,57.8z"/>
									<path class="st88" d="M79.6,57.8c0,0,0.9-0.3,1.3,0.9s-0.9,2.8-1.8,2.7C78.1,61.2,79.6,57.8,79.6,57.8z"/>
									<path class="st88" d="M79.5,59.1c0,4.8-3,8.7-6.6,8.7c-3.7,0-6.6-3.9-6.6-8.7s3-8.7,6.6-8.7C76.5,50.4,79.5,54.3,79.5,59.1
										z"/>
								</g>
							</g>
						</g>
					</g>
				</g>
			</g>
			<polygon class="st85" points="66,57.7 66.7,58.3 68.2,56.2 66,56.2 			"/>
			<polygon class="st85" points="79.9,57.7 79.1,58.3 77.7,56.2 79.9,56.2 			"/>
			<polygon class="st89" points="58.4,119.4 57.1,174.3 68.8,174.3 72.7,122.1 79.9,174.3 91.2,174.3 86.8,119.4 81,112.1 66,112.1 
							"/>
			<path class="st4" d="M96.8,84.8c-2.6-4.3-5.7-8.9-8-10.7c-2.6-2-12.4-4.2-12.4-4.2s-3.5,3.6-3.8,4.1c-0.4-0.7-3.5-4.1-3.5-4.1
				s-9.5,2.1-12,4c-3.6,2.7-8.8,15.5-11.3,19.7c-0.7,1.2-1.1,3.6,0.2,5.3c3.8-3.8,9.2-3.1,9.2-3.1l3.1-8.3l0.1,31.9h28.4l0.1-31.9
				l3.6,3.8C92.3,88.9,94.7,86.9,96.8,84.8z"/>
			<rect x="65" y="74.1" class="st90" width="14.9" height="45.3"/>
			<rect x="63.7" y="75" class="st4" width="15.1" height="44.4"/>
			<g>
				<path class="st4" d="M79.9,56.8V37.1c0,0-2.1-2.7-7-2.7S66,37.1,66,37.1v19.7H79.9z"/>
			</g>
			<path class="st90" d="M68,70.2l0.2-2.4c0,0,4.7,3.3,4.5,6.3C69.9,72.2,68,70.2,68,70.2z"/>
			<path class="st90" d="M77.3,70.2l-0.2-2.4c0,0-4.7,3.3-4.5,6.3C75.4,72.2,77.3,70.2,77.3,70.2z"/>
			<g>
				<path class="st85" d="M68.7,77c0,0.4-0.3,0.8-0.8,0.8c-0.4,0-0.8-0.3-0.8-0.8c0-0.4,0.3-0.8,0.8-0.8
					C68.4,76.3,68.7,76.6,68.7,77z"/>
				<path class="st85" d="M77.7,77c0,0.4-0.3,0.8-0.8,0.8c-0.4,0-0.8-0.3-0.8-0.8c0-0.4,0.3-0.8,0.8-0.8
					C77.4,76.3,77.7,76.6,77.7,77z"/>
				<path class="st85" d="M68.7,89c0,0.4-0.3,0.8-0.8,0.8c-0.4,0-0.8-0.3-0.8-0.8c0-0.4,0.3-0.8,0.8-0.8
					C68.4,88.3,68.7,88.6,68.7,89z"/>
				<path class="st85" d="M77.7,89c0,0.4-0.3,0.8-0.8,0.8c-0.4,0-0.8-0.3-0.8-0.8c0-0.4,0.3-0.8,0.8-0.8
					C77.4,88.3,77.7,88.6,77.7,89z"/>
			</g>
			<g>
				<path class="st85" d="M68.7,100c0,0.4-0.3,0.8-0.8,0.8c-0.4,0-0.8-0.3-0.8-0.8c0-0.4,0.3-0.8,0.8-0.8
					C68.4,99.2,68.7,99.6,68.7,100z"/>
				<path class="st85" d="M77.7,100c0,0.4-0.3,0.8-0.8,0.8c-0.4,0-0.8-0.3-0.8-0.8c0-0.4,0.3-0.8,0.8-0.8
					C77.4,99.2,77.7,99.6,77.7,100z"/>
				<path class="st85" d="M68.7,112c0,0.4-0.3,0.8-0.8,0.8c-0.4,0-0.8-0.3-0.8-0.8s0.3-0.8,0.8-0.8C68.4,111.3,68.7,111.6,68.7,112z
					"/>
				<path class="st85" d="M77.7,112c0,0.4-0.3,0.8-0.8,0.8c-0.4,0-0.8-0.3-0.8-0.8s0.3-0.8,0.8-0.8C77.4,111.3,77.7,111.6,77.7,112z
					"/>
			</g>
			<polygon class="st91" points="58.2,106 54.8,149.8 91.2,149.8 87,106 			"/>
			<rect x="64.4" y="83.6" class="st91" width="16.6" height="26.2"/>
		</g>
		<rect x="66" y="54.4" class="st90" width="13.9" height="0.8"/>
		<polygon class="st91" points="66.7,84.4 64.6,85.2 60.3,72.3 62.3,71.6 		"/>
		<polygon class="st91" points="78.8,84.4 80.9,85.2 85.2,72.3 83.1,71.6 		"/>
	</g>
	<g>
		<g>
			<path class="st92" d="M55,159c-6.9,3.9-13.6,8.2-19.9,13.1v7.9h12.5h102.7v-42v-9.3C117.3,133.5,84.1,142.6,55,159z"/>
			<path class="st93" d="M35.1,115.9V153v9.2v9.9c6.3-4.8,12.9-9.2,19.9-13.1c29.1-16.4,62.3-25.5,95.4-30.2v-12.9L35.1,115.9
				L35.1,115.9z"/>
		</g>
		<rect x="32.6" y="112.7" class="st94" width="120.4" height="3.2"/>
		<rect x="35.1" y="115.9" class="st95" width="115.2" height="10.3"/>
	</g>
	<g>
		<path class="st88" d="M46,98.9c0,0,4.5,6.3,7.2,9.3s3.9,4.2,3.9,4.2l4-4.2l-5.9-12.3C55.3,95.8,49.5,92.9,46,98.9z"/>
		<g>
			<path class="st96" d="M80.7,91.3c0,0-1.3,1.3-1.1,2c0.2,0.7,1.6,0.7,1.8,0.2C81.7,92.9,81.1,92.5,80.7,91.3z"/>
			<path class="st96" d="M76.6,91.3c0,0-1.3,1.3-1.1,2c0.2,0.7,1.6,0.7,1.8,0.2C77.6,92.9,77.1,92.5,76.6,91.3z"/>
			<path class="st96" d="M64.5,91.3c0,0-1.3,1.3-1.1,2s1.6,0.7,1.8,0.2C65.5,92.9,65,92.5,64.5,91.3z"/>
			<path class="st96" d="M72.7,91.3c0,0-1.3,1.3-1.1,2c0.2,0.7,1.6,0.7,1.8,0.2C73.7,92.9,73.1,92.5,72.7,91.3z"/>
			<path class="st96" d="M68.6,91.3c0,0-1.3,1.3-1.1,2c0.2,0.7,1.6,0.7,1.8,0.2C69.6,92.9,69.1,92.5,68.6,91.3z"/>
		</g>
		<path class="st97" d="M88.3,107.7c-0.9-0.4-0.5,1-0.8,1.9c-0.4,1.2-1.4,0.3-1.3-0.7c0-0.5,0.2-1.4-0.7-1.1
			c-0.9,0.3-0.2,1.8-0.9,2.1c-0.9,0.5-0.3-1.2-1-1.7s-1.2,0.8-1.8,1c-0.6,0.2-1.4,0-2-1c-0.6-0.9-1,1.6-1.7,1.7s-0.7-1.3-1.1-1.2
			c-0.7,0.3-0.8,1-1.7,0.6c-0.9-0.4-0.9-1.2-1.3-1s0.1,1.7-0.6,1.9c-0.6,0.2-0.2-2-0.7-2.4c-0.5-0.5-0.9,1-1.3,1.6
			c-0.3,0.3-0.9,0.3-1.2-0.6c-0.3-0.8-1-1-1.6-0.9s-0.6,0.9-1.7,0.9c-1.1-0.1-1-1.4-1.5-1.2c-0.5,0.2-0.4,0.8-0.9,2
			c-0.5,1.3-1.2,0-1.1-1.1c0-1.1-0.7-1.5-1-1c-0.2,0.5-0.5,1-1.4,0.7s-1.1-1.1-1.4-0.7c-0.3,0.4,0.1,2-0.7,2.1
			c-0.7,0.1-0.3-2.4-0.6-2.5c-0.3-0.2-0.7,0.2-1.3,0.7c-0.3,0.3-0.8,0.2-1.2,0v3.4h34v-3.3C89.5,107.9,88.9,108,88.3,107.7z"/>
		<g>
			<path class="st97" d="M82,97.3c-0.6,0.2-1.4,0-2-1c-0.6-0.9-1,1.6-1.7,1.7s-0.7-1.3-1.1-1.2c-0.7,0.3-0.8,1-1.7,0.6
				c-0.9-0.4-0.9-1.2-1.3-1s0.1,1.7-0.6,1.9c-0.6,0.2-0.2-2-0.7-2.4c-0.5-0.5-0.9,1-1.3,1.6c-0.3,0.3-0.9,0.3-1.2-0.6
				c-0.3-0.8-1-1-1.6-0.9s-0.6,0.9-1.7,0.9c-1.1-0.1-1-1.4-1.5-1.2c-0.5,0.2-0.4,0.8-0.9,2c-0.5,1.3-1.2,0-1.1-1.1
				c0-1.1-0.7-1.5-1-1c-0.1,0.3-0.3,0.5-0.5,0.7v3.3h21.5v-3.3C83.1,96,82.5,97.1,82,97.3z"/>
			<path class="st98" d="M62.1,93.6v2.7c0.2-0.2,0.4-0.4,0.5-0.7c0.2-0.5,1-0.2,1,1c0,1,0.7,2.4,1.1,1.1c0.5-1.3,0.4-1.9,0.9-2
				c0.5-0.2,0.4,1.1,1.5,1.2s1.1-0.8,1.7-0.9s1.3,0,1.6,0.9c0.3,0.8,1,0.9,1.2,0.6c0.5-0.6,0.9-2.1,1.3-1.6c0.5,0.5,0.1,2.6,0.7,2.4
				s0.1-1.7,0.6-1.9c0.4-0.2,0.4,0.6,1.3,1s1-0.3,1.7-0.6c0.3-0.1,0.3,1.3,1.1,1.2c0.7-0.1,1.1-2.6,1.7-1.7s1.4,1.1,2,1
				c0.5-0.2,1.1-1.3,1.7-1v-2.7H62.1z"/>
		</g>
		<g>
			<path class="st96" d="M72.8,97.2c0,0-1.3,1.3-1.1,2c0.2,0.7,1.6,0.7,1.8,0.2C73.8,98.8,73.2,98.4,72.8,97.2z"/>
			<path class="st96" d="M77.1,97.2c0,0-1.3,1.3-1.1,2c0.2,0.7,1.6,0.7,1.8,0.2C78.1,98.8,77.5,98.4,77.1,97.2z"/>
			<path class="st96" d="M85.2,97.2c0,0-1.3,1.3-1.1,2c0.2,0.7,1.6,0.7,1.8,0.2C86.3,98.8,85.7,98.4,85.2,97.2z"/>
			<path class="st96" d="M81.2,97.2c0,0-1.3,1.3-1.1,2c0.2,0.7,1.6,0.7,1.8,0.2C82.2,98.8,81.6,98.4,81.2,97.2z"/>
			<path class="st96" d="M60.7,97.2c0,0-1.3,1.3-1.1,2s1.6,0.7,1.8,0.2C61.7,98.8,61.1,98.4,60.7,97.2z"/>
			<path class="st96" d="M68.8,97.2c0,0-1.3,1.3-1.1,2c0.2,0.7,1.6,0.7,1.8,0.2C69.9,98.8,69.3,98.4,68.8,97.2z"/>
			<path class="st96" d="M64.8,97.2c0,0-1.3,1.3-1.1,2s1.6,0.7,1.8,0.2C65.8,98.8,65.2,98.4,64.8,97.2z"/>
		</g>
		<g>
			<path class="st97" d="M85,100.9c-0.2-0.5-1-0.2-1,1c0,1-0.7,2.4-1.1,1.1c-0.5-1.3-0.4-1.9-0.9-2c-0.5-0.2-0.4,1.1-1.5,1.2
				s-1.1-0.8-1.7-0.9s-1.3,0-1.6,0.9c-0.3,0.8-1,0.9-1.2,0.6c-0.5-0.6-0.9-2.1-1.3-1.6c-0.5,0.5-0.1,2.6-0.7,2.4s-0.1-1.7-0.6-1.9
				c-0.4-0.2-0.4,0.6-1.3,1s-1-0.3-1.7-0.6c-0.3-0.1-0.3,1.3-1.1,1.2c-0.7-0.1-1.1-2.6-1.7-1.7s-1.4,1.1-2,1c-0.6-0.2-1.1-1.4-1.8-1
				c-0.7,0.5,0,2.2-1,1.7c-0.6-0.3,0-1.8-0.9-2.1c-0.9-0.3-0.7,0.6-0.7,1.1c0,1-0.9,1.9-1.3,0.7c-0.3-0.9,0.1-2.3-0.8-1.9
				c-0.2,0.1-0.4,0.1-0.6,0.2v3.9H87v-4.1c-0.2,0.2-0.4,0.3-0.7,0.4C85.5,102,85.3,101.4,85,100.9z"/>
			<path class="st98" d="M58.7,99.3v2c0.2,0,0.4-0.1,0.6-0.2c0.9-0.4,0.5,1,0.8,1.9c0.4,1.2,1.4,0.3,1.3-0.7c0-0.5-0.2-1.4,0.7-1.1
				s0.2,1.8,0.9,2.1c0.9,0.5,0.3-1.2,1-1.7c0.7-0.5,1.2,0.8,1.8,1c0.6,0.2,1.4,0,2-1c0.6-0.9,1,1.6,1.7,1.7s0.7-1.3,1.1-1.2
				c0.7,0.3,0.8,1,1.7,0.6c0.9-0.4,0.9-1.2,1.3-1s-0.1,1.7,0.6,1.9c0.6,0.2,0.2-2,0.7-2.4c0.5-0.5,0.9,1,1.3,1.6
				c0.3,0.3,0.9,0.3,1.2-0.6c0.3-0.8,1-1,1.6-0.9s0.6,0.9,1.7,0.9c1.1-0.1,1-1.4,1.5-1.2c0.5,0.2,0.4,0.8,0.9,2
				c0.5,1.3,1.2,0,1.1-1.1c0-1.1,0.7-1.5,1-1c0.2,0.5,0.5,1,1.4,0.7c0.3-0.1,0.5-0.3,0.7-0.4v-1.9C87.3,99.3,58.7,99.3,58.7,99.3z"
				/>
		</g>
		<g>
			<path class="st96" d="M70.6,103c0,0-1.3,1.3-1.1,2c0.2,0.7,1.6,0.7,1.8,0.2C71.6,104.6,71,104.2,70.6,103z"/>
			<path class="st96" d="M74.8,103c0,0-1.3,1.3-1.1,2c0.2,0.7,1.6,0.7,1.8,0.2C75.9,104.6,75.3,104.2,74.8,103z"/>
			<path class="st96" d="M87.1,103c0,0-1.3,1.3-1.1,2c0.2,0.7,1.6,0.7,1.8,0.2C88.1,104.6,87.6,104.2,87.1,103z"/>
			<path class="st96" d="M83,103c0,0-1.3,1.3-1.1,2s1.6,0.7,1.8,0.2C84,104.6,83.5,104.2,83,103z"/>
			<path class="st96" d="M79,103c0,0-1.3,1.3-1.1,2c0.2,0.7,1.6,0.7,1.8,0.2C80,104.6,79.4,104.2,79,103z"/>
			<path class="st96" d="M58.5,103c0,0-1.3,1.3-1.1,2s1.6,0.7,1.8,0.2C59.5,104.6,58.9,104.2,58.5,103z"/>
			<path class="st96" d="M66.6,103c0,0-1.3,1.3-1.1,2c0.2,0.7,1.6,0.7,1.8,0.2C67.7,104.6,67.1,104.2,66.6,103z"/>
			<path class="st96" d="M62.6,103c0,0-1.3,1.3-1.1,2s1.6,0.7,1.8,0.2C63.6,104.6,63,104.2,62.6,103z"/>
		</g>
		<path class="st98" d="M55.9,105.2v2.5c0.4,0.2,0.9,0.2,1.2,0c0.6-0.5,1-0.9,1.3-0.7c0.3,0.2-0.1,2.6,0.6,2.5
			c0.7-0.1,0.4-1.7,0.7-2.1s0.5,0.4,1.4,0.7c0.9,0.3,1.2-0.2,1.4-0.7s1-0.2,1,1c0,1,0.7,2.4,1.1,1.1c0.5-1.3,0.4-1.9,0.9-2
			c0.5-0.2,0.4,1.1,1.5,1.2s1.1-0.8,1.7-0.9s1.3,0,1.6,0.9c0.3,0.8,1,0.9,1.2,0.6c0.5-0.6,0.9-2.1,1.3-1.6c0.5,0.5,0.1,2.6,0.7,2.4
			s0.1-1.7,0.6-1.9c0.4-0.2,0.4,0.6,1.3,1s1-0.3,1.7-0.6c0.3-0.1,0.3,1.3,1.1,1.2c0.7-0.1,1.1-2.6,1.7-1.7s1.4,1.1,2,1
			c0.6-0.2,1.1-1.4,1.8-1c0.7,0.5,0,2.2,1,1.7c0.6-0.3,0-1.8,0.9-2.1c0.9-0.3,0.7,0.6,0.7,1.1c0,1,0.9,1.9,1.3,0.7
			c0.3-0.9-0.1-2.3,0.8-1.9c0.6,0.3,1.1,0.2,1.6,0.1v-2.6H55.9V105.2z"/>
	</g>
	<path class="st97" d="M131.4,83.5c-0.2-0.9,1.2-1.4,1-2.4c1.1,0.2,1.4,1.4,1.4,2.4s-0.8,0.8-0.8,0.8L131.4,83.5z"/>
	<path class="st97" d="M128.2,83.5c-0.2-0.9,1.2-1.4,1-2.4c0.7-0.1,1.4,1.4,1.4,2.4s-0.8,0.8-0.8,0.8L128.2,83.5z"/>
	<path class="st4" d="M108.6,102.5c0,0-0.1,1-0.5,2.1s0.3,2.5,1.6,2.1C111,106.2,110.5,103.4,108.6,102.5z"/>
	<path class="st4" d="M104.6,102.5c0,0-0.1,1-0.5,2.1s0.3,2.5,1.6,2.1S106.5,103.4,104.6,102.5z"/>
	<path class="st4" d="M101,102.5c0,0-0.1,1-0.5,2.1s0.3,2.5,1.6,2.1S102.8,103.4,101,102.5z"/>
	<g>
		<g>
			<path class="st99" d="M134.1,86.8c-0.1,1.5-1,1.1-1.1,0.6c-0.2-1.3-0.7-2.5-1.7-2.5c-1-0.1-1.9,0.7-2.1,1.3
				c-0.2,0.6-0.3,2.1-0.9,1.8c-0.6-0.3-0.5-1.9-0.9-3c0-0.1-0.1-0.2-0.2-0.3v5h8v-4.2C134.6,85.7,134.1,86.4,134.1,86.8z"/>
			<path class="st96" d="M127.1,83.4v1.3c0.1,0.1,0.1,0.2,0.2,0.3c0.4,1.1,0.3,2.7,0.9,3c0.6,0.3,0.7-1.3,0.9-1.8
				c0.2-0.6,1.2-1.3,2.1-1.3c1,0.1,1.5,1.3,1.7,2.5c0.1,0.5,1.1,0.9,1.1-0.6c0-0.5,0.5-1.2,1-1.2v-2.2
				C135,83.4,127.1,83.4,127.1,83.4z"/>
		</g>
		<path class="st99" d="M139.4,103.5c-0.6,0.3-0.1,3.3-0.8,3.8c-0.7,0.6-1-0.7-1-1.6c0-1.1-0.2-2.1-0.7-2.9c-0.6-1-2.3-1.1-2.9,0.5
			c-0.5,1.3-0.4,3.1-1.1,3.4s-0.8-1.4-1.1-2.1c-0.3-0.6-1.3-1.5-2.5-1.4c-1.1,0.1-1.8,1.4-2,2.9c-0.1,0.5-1.2,1-1.3-0.7
			c0-0.7-1-1.9-1.6-1.2c-0.8,1-0.1,2.7-1.1,3.2c-0.9,0.4-0.9-2-0.9-3.2c0-0.7-0.6-1.1-1.1-1.4v8.4h19.3v-7.6
			C140.2,103.4,139.7,103.4,139.4,103.5z"/>
		<g>
			<path class="st99" d="M136.9,92.8c-0.5,1.3-0.4,3.1-1.1,3.4c-0.7,0.3-0.8-1.4-1.1-2.1c-0.3-0.6-1.3-1.5-2.5-1.4
				c-1.1,0.1-1.8,1.4-2,2.9c-0.1,0.5-1.2,1-1.3-0.7c0-0.7-1-1.9-1.6-1.2c-0.8,1-0.1,2.7-1.1,3.2c-0.9,0.4-0.9-2-0.9-3.2
				c0-0.6-0.4-1-0.8-1.2v8.1h13V92C137.3,92.1,137,92.4,136.9,92.8z"/>
			<path class="st96" d="M124.6,89.5v2.9c0.4,0.3,0.8,0.7,0.8,1.2c0,1.2,0,3.6,0.9,3.2c1-0.5,0.3-2.2,1.1-3.2
				c0.6-0.7,1.6,0.5,1.6,1.2c0.1,1.7,1.2,1.3,1.3,0.7c0.2-1.4,0.8-2.8,2-2.9c1.1-0.1,2.2,0.8,2.5,1.4s0.3,2.4,1.1,2.1
				c0.7-0.3,0.6-2.1,1.1-3.4c0.2-0.4,0.4-0.7,0.7-0.9v-2.4h-13.1V89.5z"/>
		</g>
		<path class="st96" d="M121.4,99.6v3.1c0.5,0.3,1.1,0.7,1.1,1.4c0,1.2,0,3.6,0.9,3.2c1-0.5,0.3-2.2,1.1-3.2
			c0.6-0.7,1.6,0.5,1.6,1.2c0.1,1.7,1.2,1.3,1.3,0.7c0.2-1.4,0.8-2.8,2-2.9c1.1-0.1,2.2,0.8,2.5,1.4s0.3,2.4,1.1,2.1
			s0.6-2.1,1.1-3.4c0.6-1.6,2.2-1.5,2.9-0.5c0.5,0.8,0.7,1.8,0.7,2.9c0,0.9,0.3,2.1,1,1.6c0.7-0.6,0.2-3.6,0.8-3.8
			c0.3-0.1,0.9-0.1,1.3,0v-3.9h-19.4V99.6z"/>
	</g>
	<path class="st88" d="M145.8,78c0,0,4.3,5,7,6.3c1.8,0.9,8.2,2.4,8.2,2.4l-1.1,4.8c0,0-8.7-0.9-10-2.7c-1.3-1.8-6.7-8.3-6.7-8.3
		L145.8,78z"/>
	<rect x="96.8" y="110.7" class="st90" width="17.1" height="1.9"/>
	<rect x="119.1" y="110.7" class="st90" width="23.3" height="1.9"/>
	<rect x="53.3" y="110.8" class="st90" width="39.3" height="1.9"/>
	<path class="st88" d="M81.9,80.6c0,0,11.9,2.5,14.9,4.3s2.5,9.1-3.3,8.5c-4.3-0.5-13.7-8.2-14.1-8.6C79.7,82.5,81.9,80.6,81.9,80.6
		z"/>
	<g>
		<path class="st97" d="M134.8,75.1c0,0,5.4-5.4,10.4-5.3c5.9,0,8.3,5.8,2.5,8.7c-5.8,2.9-8.5,0-10.5-0.3c-2.1-0.3-3.6,1-3.6,1
			l-1.5-1.8L134.8,75.1z"/>
		<polygon class="st96" points="132.1,77.4 130.4,79.1 131.5,80.4 133.5,79.2 		"/>
	</g>
	<path class="st99" d="M71.6,82.1c0,0,5-7,10.6-7.9c6.6-1.1,10.3,4.9,4.3,9.3s-9.5,1.6-11.9,1.6s-3.8,1.8-3.8,1.8l-2-1.7L71.6,82.1z
		"/>
	<path class="st88" d="M135.8,74.4c0,0,1.1,2.1,1.9,4c0.8,1.9,2.6,5.6,4.2,7.5s6.7,7.8,6.7,7.8l3.4-6.2c0,0-8.3-7.8-9-9.9
		c-0.6-2.1-0.8-7.3-0.8-7.3s-2.3-1.2-4.5,0C135.6,71.6,135.8,74.4,135.8,74.4z"/>
	<path class="st90" d="M152.5,82.4c0,0-1.4,1.8-2.1,2.9c-0.7,1.1,1.7,4.4,2.1,4.5c0.4,0.1,6.2-5,6.2-5L152.5,82.4z"/>
	<rect x="98.7" y="106" class="st96" width="13.3" height="4.8"/>
	<g>
		<g>
			<g>
				<g>
					<g>
						<g>
							<path class="st88" d="M153.5,63c0.4-0.8,0.6-1.1,0.3-2.1c-0.6-1.5,0-3.5,0.4-4.2c1.4-2.1,2.1-2,2.1-2
								c1.9-0.2,7.1,3.6,7.6,4.6c0.4,0.8,1.7,2.9,2.4,5.1c0.2,0.6,0.4,1.1,0.5,1.7c0,0,0.2,0.4,0.4,0.8c-1.2,0.9-3.3,2.3-5.7,3.2
								c-0.4-0.9-1-1.2-1.6-1.4c-1.1,0-2.2,0.8-2.7,1c-0.8,0.2-2-0.1-2-0.9c0-0.6-0.2-0.6-0.4-0.7c-0.3-0.1-0.4-0.3-0.3-0.6
								c-0.3-0.1-0.7-0.2-0.5-0.6s0.2-0.6-0.4-0.9c-0.4-0.2-1.2-0.1-1.2-0.5C152.4,64.9,153.3,63.4,153.5,63z"/>
							<g>
								<path class="st85" d="M154.9,55.9c0,0,1.4,2.4,2.9,3.9c0.6,0.5,1.7,1.2,3.2,1.2c0.4-1.2,1.3-1.6,1.8-1.4
									c0.5,0.1,1.2,0.6,1.3,1.6c0.1,0.7-0.3,1.9-0.3,1.9s2.2,2.1,3,3.1c0.1-1.1,0.4-1.3,1.2-2.5c0.8-1.2,1.3-2.9,1.1-5
									c-0.2-2-1.1-3.6-3.2-5.3C164.1,52,159.5,50.4,154.9,55.9z"/>
							</g>
						</g>
					</g>
				</g>
			</g>
		</g>
		<g>
			<path class="st85" d="M166.7,171.1c0,0-8.2,4-10.5,5.4s-1.4,2.8-1.4,2.8h16.6c0,0,0.2-6.5-0.2-7.9
				C170.8,170.1,166.7,171.1,166.7,171.1z"/>
			<rect x="154.7" y="178.5" class="st86" width="16.7" height="0.9"/>
		</g>
		<g>
			<path class="st85" d="M177.2,171.1c0,0-8.2,4-10.5,5.4s-1.4,2.8-1.4,2.8h16.6c0,0,0.2-6.5-0.2-7.9
				C181.2,170.1,177.2,171.1,177.2,171.1z"/>
			<rect x="165.1" y="178.5" class="st86" width="16.7" height="0.9"/>
		</g>
		<polygon class="st100" points="162.2,172.6 162.8,125.3 172.7,130.6 173.9,172.6 		"/>
		<polygon class="st89" points="171.9,172.6 169.5,125.3 179.3,129.3 183.1,172.6 		"/>
		<path class="st4" d="M167.2,66.8c0,0,5,4.7,8.6,9.4c3.6,4.7,4.5,14.8,5.3,19.4s0.2,12.5,0.2,12.5l-14.4-1c0,0-1.4-13.1-4.2-16.4
			c-1.9-2.2-3.6-3.1-2.9-8.4c0.7-5.2,1.5-10.7,1.5-10.7L167.2,66.8z"/>
		<path class="st98" d="M181.2,102.7c1.1,0.4,6.2,1.3,9.9,4.5c3.8,3.2,2.7,7.1-1.5,6.7s-9.4-8-9.4-8v-1.8c0,0,4.3,5.9,7.4,7.1
			c3.1,1.2,5.1,0.2,2.9-2.1c-2.1-2.3-9.4-5-9.4-5v-1.4H181.2z"/>
		<path class="st98" d="M180.6,103c1-0.6,4.7-4.2,9.6-5.2c4.9-1.1,7.3,2.1,4.5,5.2s-12,2.7-12,2.7l-1.4-1.1c0,0,7.3,0.1,10.1-1.7
			c2.8-1.8,3.2-4,0.1-3.6c-3.1,0.4-9.7,4.6-9.7,4.6L180.6,103z"/>
		<path class="st98" d="M160.6,144c0-6.4,0.9-20,1.5-23.6c1.3-8.2,4.3-17.5,4.3-17.5l15.2-0.8c0,0,4.5,10.5,4.9,21.9
			c0.3,7.1,0.6,15.1,0.8,20.1h-26.7V144z"/>
		<path class="st90" d="M169.2,68.8l-1.2-3.1c0,0-9.2,4.1-7.1,8.3C162.7,71.9,169.2,68.8,169.2,68.8z"/>
		<path class="st98" d="M168.9,101.5c0,0-3.9-10.7-4.7-14s-1-15.6,6-17.6l-1-1.1c0,0-3.6,1-6.4,4c-1.9,2.1-3.3,5.6-3.9,8.8
			c-1.9,9.6,7.2,19.6,7.2,19.6L168.9,101.5z"/>
		<path class="st4" d="M170.6,72.4c-2.9-0.9-5.7,2.8-9.4,7.4s-8.7,7.7-8.7,7.7l-4.3-1.5l-2.8,6.2c0,0,6.8,4.8,9.6,4.1
			c2.7-0.6,19.5-8.6,18.9-14C173.2,76.9,170.6,72.4,170.6,72.4z"/>
		<path class="st90" d="M165.4,91.3c0,0,4.8-2.2,6.3-6.2c1.2-3.1,2.2-7.7,2.2-7.7s1.1,3.9,0.1,8.2c-0.9,4.3-8,7.3-8,7.3L165.4,91.3z
			"/>
		<rect x="166.1" y="101.2" class="st101" width="16" height="2.6"/>
		<path class="st90" d="M151.8,86.1c0,0-0.6,2.7-1.4,4.1c-0.8,1.4-3.1,4.9-3.1,4.9l-3.7-2.8c0,0,1.8-4,2.2-5.2
			c0.8-2,2.6-2.7,2.6-2.7L151.8,86.1z"/>
		<path class="st84" d="M149.5,89.1c0,0-0.7,1.7-1.4,2.9c-0.5,0.9-1.8,1.2-1.8,1.2s0.8-2.1,1.1-2.6
			C148.3,89.7,149.5,89.1,149.5,89.1z"/>
	</g>
	<path class="st88" d="M71.6,79.3c-0.9,0.8,0.7,2.1,1.2,2.6c0.8,0.7,1.6-0.2,1-1.3C73.2,79.5,72.6,78.4,71.6,79.3z"/>
	<path class="st88" d="M73.9,85.1l1.6-2.4c0,0,1.4,1.1,0.6,2.4c0.5,0.2,1.5,0.7,2.1,0.7c-0.3,0.7-0.9,1.3-2.1,1.3
		C74.1,87,73.9,85.1,73.9,85.1z"/>
	<path class="st88" d="M72.8,78.1c-0.9,0.8,0.7,2.1,1.2,2.6c0.8,0.7,1.6-0.2,1-1.3C74.4,78.3,73.8,77.1,72.8,78.1z"/>
	<path class="st88" d="M74.1,76.8c-0.9,0.8,0.7,2.1,1.2,2.6s1.6-0.2,1-1.3C75.8,77,75.2,75.8,74.1,76.8z"/>
	<path class="st88" d="M75.3,75.4c-0.9,0.8,0.7,2.1,1.2,2.6s1.6-0.2,1-1.3C77,75.6,76.4,74.5,75.3,75.4z"/>
	<polygon class="st96" points="68.9,85.3 67.4,87.4 68.9,88.6 70.9,87 	"/>
	<path class="st4" d="M154.2,56.7c0,0,1-3.7,1.3-6.3c0.5-4.8,4.8-5.3,8.9-3.1c4.1,2.2,11.6,7.1,8.3,11.8c-2.5,3.5-4.7,4.6-4.7,4.6
		s-4-0.9-7.4-2.3C156.8,60,154.2,56.7,154.2,56.7L154.2,56.7z"/>
	<path class="st90" d="M169.8,53.7c0,0-0.5,2.7-1,3.4s-1.7,2.1-1.7,2.1s2.8-0.3,3.4-1.6C171.2,56.2,169.8,53.7,169.8,53.7z"/>
	<path class="st90" d="M161.9,57.5c0,0,1.6-2.7,2.5-3.8c0.9-1.2,2.2-2.8,2.2-2.8s0.8,1.8-0.3,3.4C165.2,55.8,161.9,57.5,161.9,57.5z
		"/>
	<path class="st90" d="M162.7,48.7c0,0-2.3,0.7-3.2,2.2c-0.8,1.6-0.9,4.5-0.9,4.5s1.5-1.8,2.9-3.5C162.2,51.1,162.7,48.7,162.7,48.7
		z"/>
	<path class="st98" d="M153.9,57.2c0,0,3.5,3.6,6.7,5.2c3.2,1.6,6.6,2.6,6.6,2.6l1.8-2c0,0-6.1-1.8-8-3.1c-2.4-1.7-6.3-5.1-6.3-5.1
		L153.9,57.2L153.9,57.2z"/>
</g>
</svg>
