<?xml version="1.0" encoding="utf-8"?>
<!-- Generator: Adobe Illustrator 23.1.0, SVG Export Plug-In . SVG Version: 6.00 Build 0)  -->
<svg version="1.1" id="圖層_1" xmlns="http://www.w3.org/2000/svg" xmlns:xlink="http://www.w3.org/1999/xlink" x="0px" y="0px"
	 viewBox="0 0 225 225" style="enable-background:new 0 0 225 225;" xml:space="preserve">
<style type="text/css">
	.st0{fill:#E5A1A6;}
	.st1{opacity:0.4;}
	.st2{fill:#D87C9D;}
	.st3{fill:#FFFFFF;}
	.st4{font-family:'Oswald-Regular';}
	.st5{font-size:15.68px;}
	.st6{fill:#FFC75C;}
	.st7{fill:#FFE8A3;}
	.st8{fill:url(#SVGID_1_);}
	.st9{fill:url(#SVGID_2_);}
	.st10{fill:url(#SVGID_3_);}
	.st11{fill:#7A4231;}
	.st12{fill:#662D1C;}
	.st13{fill:#FEA4BE;}
	.st14{fill:#A4EFFE;}
	.st15{fill:#6FA938;}
	.st16{fill:#DBF3C3;}
	.st17{fill:#C7E6A3;}
	.st18{fill:#90AE72;}
	.st19{fill:#ECFFD9;}
	.st20{fill:#EDB779;}
	.st21{fill:url(#SVGID_4_);}
	.st22{fill:url(#SVGID_5_);}
	.st23{fill:#FFB8D9;}
	.st24{fill:#FF9CCA;}
	.st25{fill:#FFDFEE;}
	.st26{fill:#FFC4E0;}
	.st27{fill:#A86725;}
	.st28{fill:#E2A66A;}
	.st29{fill:#D48D46;}
	.st30{fill:#A35842;}
	.st31{fill:url(#SVGID_6_);}
	.st32{fill:#F6ACED;}
	.st33{fill:url(#SVGID_7_);}
	.st34{fill:#FFCEF9;}
	.st35{fill:url(#SVGID_8_);}
	.st36{fill:#FEC1F9;}
	.st37{fill:#F699EB;}
	.st38{fill:url(#SVGID_9_);}
	.st39{fill:#FFBAF7;}
	.st40{fill:#FEADF8;}
	.st41{fill:#FFD1F9;}
	.st42{fill:#7566A1;}
	.st43{fill:#57398A;}
	.st44{filter:url(#Adobe_OpacityMaskFilter);}
	.st45{filter:url(#Adobe_OpacityMaskFilter_1_);}
	.st46{mask:url(#SVGID_10_);fill:url(#SVGID_11_);}
	.st47{fill:url(#SVGID_12_);}
	.st48{fill:#B073B5;}
	.st49{fill:#CD9DD1;}
	.st50{filter:url(#Adobe_OpacityMaskFilter_2_);}
	.st51{filter:url(#Adobe_OpacityMaskFilter_3_);}
	.st52{mask:url(#SVGID_13_);fill:url(#SVGID_14_);}
	.st53{fill:url(#SVGID_15_);}
	.st54{fill:#6A68A1;}
	.st55{fill:#9A75B5;}
	.st56{fill:#BC9FD1;}
	.st57{fill:#52508C;}
	.st58{fill:#3F3D7A;}
	.st59{fill:#DE7631;}
	.st60{fill:#CC3B41;}
	.st61{fill:#A21D22;}
	.st62{fill:#CC9660;}
	.st63{fill:#6E2C18;}
	.st64{fill:#D6BDAB;}
	.st65{fill:#85181C;}
	.st66{fill:#9B472D;}
	.st67{fill:#C48341;}
	.st68{fill:#B85435;}
	.st69{fill:#D46B4A;}
	.st70{fill:#4D1909;}
	.st71{fill:#7A280F;}
	.st72{fill:#8F0A25;}
	.st73{fill:#750513;}
	.st74{fill:#51040A;}
	.st75{fill:#F5BA9D;}
	.st76{fill:#AC3C52;}
	.st77{fill:#9F6E54;}
	.st78{fill:#D45B73;}
	.st79{fill:#F4DCD0;}
	.st80{fill:#D9C3B9;}
	.st81{fill:#A36E39;}
	.st82{fill:#E89A82;}
	.st83{fill:url(#SVGID_16_);}
	.st84{fill:url(#SVGID_17_);}
	.st85{fill:url(#SVGID_18_);}
	.st86{fill:#B6E4F2;}
	.st87{fill:url(#SVGID_19_);}
	.st88{fill:#FFCFE8;}
	.st89{fill:#E3FFEB;}
	.st90{fill:#FEEE7B;}
	.st91{fill:#6C3C2D;}
	.st92{fill:#F18604;}
	.st93{fill:#F0383E;}
	.st94{fill:#783723;}
	.st95{fill:#A16956;}
	.st96{fill:#C48E74;}
	.st97{fill:#7D3722;}
	.st98{fill:#C94F67;}
	.st99{fill:#E05873;}
	.st100{fill:#FFD4DC;}
	.st101{fill:#FB7383;}
	.st102{fill:#DE92A0;}
	.st103{fill:#662C1E;}
	.st104{fill:#4D180B;}
	.st105{fill:#965B43;}
	.st106{fill:#C47959;}
	.st107{fill:#FBB0B8;}
	.st108{fill:#FFD9DD;}
	.st109{fill:#FFF0F1;}
	.st110{fill:#CC8E74;}
	.st111{fill:#FFDFBF;}
	.st112{fill:#FFC661;}
	.st113{fill:url(#SVGID_20_);}
	.st114{fill:#C9653E;}
	.st115{fill:#A85231;}
	.st116{fill:url(#SVGID_21_);}
	.st117{fill:#F4E9CE;}
	.st118{fill:#C9714E;}
	.st119{fill:#FEB240;}
	.st120{fill:#D67A24;}
	.st121{fill:#FFD46B;}
	.st122{fill:#FEFF99;}
	.st123{fill:#F06267;}
	.st124{fill:#D8D8D8;}
	.st125{fill:#ED8A40;}
	.st126{fill:#FFB680;}
	.st127{fill:#3C3C3C;}
	.st128{fill:#A8A8A8;}
	.st129{fill:#606060;}
	.st130{fill:#5B9B31;}
	.st131{fill:#8DD35F;}
	.st132{fill:#FF364A;}
	.st133{fill:#FDE875;}
	.st134{fill:#CE5119;}
	.st135{fill:#A83800;}
	.st136{fill:#E25C27;}
	.st137{fill:#8C2B00;}
</style>
<rect x="0" class="st0" width="225" height="225"/>
<g class="st1">
	<rect x="0" y="180.5" class="st2" width="225" height="44.5"/>
</g>
<text transform="matrix(1 0 0 1 37.4835 208.67)" class="st3 st4 st5">PROFESSIONAL EDUCATION</text>
<g>
	<g>
		<g>
			<path class="st6" d="M147.8,117.4h-15.9c7.5,39.4,12.5,41.5,15.9,41.5s8.4-2.1,15.9-41.5H147.8z"/>
			<path class="st7" d="M152.8,117.4l-5.3,5.7l-5.3-5.7h-8.4l-1.6,1.7c0.3,1.4,0.5,2.7,0.8,4l5-5.4l7.2,7.8l-7.2,7.8l-3.7-4
				c0.9,3.9,1.7,7.2,2.5,10.2l1.3-1.4l7.2,7.8l-4.7,5.1c0.5,1.3,1,2.3,1.5,3.2l5.5-5.9l5.8,6.3c0.5-0.9,1-1.9,1.5-3.2l-5.1-5.5
				l7.2-7.8l1.7,1.8c0.3-1.2,0.6-2.4,1-3.8l-0.4-0.5l0.7-0.8c0.5-2,1-4.1,1.5-6.4l-4.4,4.8l-7.2-7.8l7.2-7.8l5.5,5.9
				c0.3-1.3,0.5-2.6,0.8-4l-2.1-2.2H152.8z M154.8,135.7l-7.2,7.8l-7.2-7.8l7.2-7.8L154.8,135.7z"/>
			<linearGradient id="SVGID_1_" gradientUnits="userSpaceOnUse" x1="131.9362" y1="138.1028" x2="163.6805" y2="138.1028">
				<stop  offset="0" style="stop-color:#FFC75C"/>
				<stop  offset="1" style="stop-color:#E69133"/>
			</linearGradient>
			<path class="st8" d="M163.7,117.4h-15.9h-15.9c0.3,1.5,0.6,3,0.9,4.5c3.8,2.2,10.7,2.1,17.2,7.4c3.4,2.8-0.1,20.8-0.9,29.4
				C152.4,157.9,157.1,152.1,163.7,117.4z"/>
			<g>
				<linearGradient id="SVGID_2_" gradientUnits="userSpaceOnUse" x1="132.2646" y1="131.142" x2="163.2559" y2="131.142">
					<stop  offset="0" style="stop-color:#FFCD6E"/>
					<stop  offset="1" style="stop-color:#FFAF57"/>
				</linearGradient>
				<path class="st9" d="M132.3,119.5c0,0.2,0.1,0.5,0.1,0.7c0.1,0.5,0.2,1,0.3,1.5c0,0.1,0,0.2,0,0.2c0.3,0.2,0.6,0.3,0.9,0.5
					l4.3-4.7l7.2,7.8l-0.5,0.5c1.7,0.8,3.5,1.8,5.2,3.2c0.6,0.5,0.9,1.4,1.2,2.6l3.6,3.9l-3.4,3.7c-0.1,1.7-0.3,3.5-0.5,5.4l6.2-6.7
					l1.7,1.8c0.3-1.2,0.6-2.4,1-3.8l-0.4-0.5l0.7-0.8c0.5-2,1-4.1,1.5-6.4l-4.4,4.8l-7.2-7.8l7.2-7.8l5.5,5.9
					c0.3-1.3,0.5-2.6,0.8-3.9c0,0,0,0,0,0l-2.1-2.2h-8.4l-5.3,5.7l-5.3-5.7h-8.4l-1.6,1.7C132.3,119.3,132.3,119.4,132.3,119.5z"/>
				<linearGradient id="SVGID_3_" gradientUnits="userSpaceOnUse" x1="150.0286" y1="150.7473" x2="154.8767" y2="150.7473">
					<stop  offset="0" style="stop-color:#FFCD6E"/>
					<stop  offset="1" style="stop-color:#FFAF57"/>
				</linearGradient>
				<path class="st10" d="M153.3,154.6c0.5-0.9,1-1.9,1.5-3.1l-4.3-4.6c-0.2,1.4-0.4,2.9-0.5,4.2L153.3,154.6
					C153.3,154.6,153.3,154.6,153.3,154.6z"/>
			</g>
		</g>
		<g>
			<path class="st11" d="M147.8,117.4h-15.9c1.3,6.7,2.5,12.3,3.6,17c1.4,0.2,2.9-0.3,3.6-3.5c1.5-6.5,3.7,5.6,8.2,7
				s4.5-10.3,7.1-10.3c2.5,0,1.9,3.3,6.3,3.8c0.9-4.1,1.9-8.7,2.9-14.1H147.8z"/>
			<path class="st12" d="M132.8,121.8c0,0,0,0.1,0,0.1c3.8,2.2,10.7,2.1,17.2,7.4c0.9,0.7,1.3,2.4,1.4,4.6c1-2.9,1.6-6.2,3-6.2
				c2.5,0,1.9,3.3,6.3,3.8c0.2-1,0.5-2,0.7-3.1c0,0,0-0.1,0-0.1c0.3-1.6,0.7-3.3,1.1-5c0-0.1,0-0.2,0.1-0.4c0.1-0.4,0.2-0.9,0.3-1.4
				c0-0.2,0.1-0.3,0.1-0.5c0.1-0.4,0.2-0.9,0.3-1.3c0-0.2,0.1-0.3,0.1-0.5c0.1-0.6,0.2-1.2,0.3-1.8h-15.9h-15.9
				c0.1,0.8,0.3,1.5,0.4,2.3C132.5,120.4,132.6,121.1,132.8,121.8z"/>
			<path class="st13" d="M141.5,123.4c-0.3,0.3-1.4-0.2-2.4-1.2c-1-1-1.5-2-1.2-2.4c0.3-0.3,1.4,0.2,2.4,1.2
				C141.3,122,141.9,123,141.5,123.4z"/>
			<path class="st13" d="M148.5,130.8c0.4,0.2,0.2,1.4-0.5,2.6c-0.7,1.2-1.6,2-2,1.8c-0.4-0.2-0.2-1.4,0.5-2.6
				C147.3,131.4,148.1,130.6,148.5,130.8z"/>
			<path class="st14" d="M146.2,127.1c0.1,0.5-0.9,1-2.3,1.3c-1.4,0.3-2.5,0.1-2.6-0.3c-0.1-0.5,0.9-1,2.3-1.3
				C145,126.5,146.1,126.6,146.2,127.1z"/>
			<path class="st14" d="M157,121.1c0.4-0.2,1.2,0.8,1.7,2.1c0.5,1.3,0.5,2.5,0.1,2.7c-0.4,0.2-1.2-0.8-1.7-2.1
				C156.6,122.5,156.6,121.3,157,121.1z"/>
			<path class="st6" d="M151.3,122.1c0.3,0.4-0.5,1.3-1.7,2.1c-1.2,0.8-2.3,1.1-2.6,0.7s0.5-1.3,1.7-2.1
				C149.9,122,151,121.7,151.3,122.1z"/>
			<path class="st6" d="M136.2,124.1c0.5,0,0.8,1.1,0.8,2.5c0,1.4-0.4,2.5-0.8,2.5c-0.5,0-0.8-1.1-0.8-2.5
				C135.3,125.2,135.7,124.1,136.2,124.1z"/>
		</g>
	</g>
	<g>
		<path class="st15" d="M140.6,79.1c3.9,3.9,2.6,11.4,2.6,11.4s-7.5,1.2-11.4-2.6c-3.9-3.9-2.6-11.4-2.6-11.4S136.7,75.2,140.6,79.1
			z"/>
		<path class="st16" d="M133,80.3c1,0.7,1.9,1.5,2.8,2.3c0.9,0.8,1.8,1.7,2.6,2.5c0.8,0.9,1.7,1.7,2.5,2.6c0.8,0.9,1.6,1.8,2.3,2.8
			c-1-0.7-1.9-1.5-2.8-2.3c-0.9-0.8-1.8-1.7-2.6-2.5c-0.8-0.9-1.7-1.7-2.5-2.6C134.5,82.2,133.7,81.2,133,80.3z"/>
		<path class="st16" d="M132.3,84.5c0.4-0.2,0.8-0.2,1.2-0.3c0.4-0.1,0.8-0.1,1.2-0.1c0.4,0,0.8,0,1.2,0.1c0.4,0.1,0.8,0.1,1.2,0.3
			c-0.4,0.2-0.8,0.2-1.2,0.3c-0.4,0.1-0.8,0.1-1.2,0.1c-0.4,0-0.8,0-1.2-0.1C133.1,84.7,132.7,84.7,132.3,84.5z"/>
		<path class="st16" d="M135,87.2c0.4-0.2,0.8-0.2,1.2-0.3c0.4-0.1,0.8-0.1,1.2-0.1c0.4,0,0.8,0,1.2,0.1c0.4,0.1,0.8,0.1,1.2,0.3
			c-0.4,0.2-0.8,0.2-1.2,0.3c-0.4,0.1-0.8,0.1-1.2,0.1c-0.4,0-0.8,0-1.2-0.1C135.8,87.5,135.4,87.4,135,87.2z"/>
		<path class="st16" d="M138,85.3c-0.2-0.4-0.2-0.8-0.3-1.2c-0.1-0.4-0.1-0.8-0.1-1.2c0-0.4,0-0.8,0.1-1.2c0.1-0.4,0.1-0.8,0.3-1.2
			c0.2,0.4,0.2,0.8,0.3,1.2c0.1,0.4,0.1,0.8,0.1,1.2c0,0.4,0,0.8-0.1,1.2C138.2,84.5,138.1,84.9,138,85.3z"/>
		<path class="st16" d="M135.4,82.7c-0.2-0.4-0.2-0.8-0.3-1.2c-0.1-0.4-0.1-0.8-0.1-1.2c0-0.4,0-0.8,0.1-1.2
			c0.1-0.4,0.1-0.8,0.3-1.2c0.2,0.4,0.2,0.8,0.3,1.2c0.1,0.4,0.1,0.8,0.1,1.2c0,0.4,0,0.8-0.1,1.2C135.7,81.9,135.6,82.3,135.4,82.7
			z"/>
	</g>
	<g>
		<path class="st17" d="M165.9,116.5c0,0,0-0.1,0-0.1c0-0.1,0-0.2,0-0.3c0-0.1,0-0.1,0-0.2c0-0.1,0-0.1-0.1-0.2c0-0.1,0-0.1-0.1-0.2
			c0-0.1-0.1-0.1-0.1-0.2c0-0.1-0.1-0.1-0.1-0.2c0-0.1-0.1-0.1-0.1-0.2c0-0.1-0.1-0.1-0.1-0.2c0-0.1-0.1-0.1-0.1-0.2
			c0-0.1-0.1-0.1-0.1-0.2c0-0.1-0.1-0.1-0.1-0.2c0-0.1-0.1-0.1-0.2-0.2c-0.1-0.1-0.1-0.1-0.2-0.2c-0.1-0.1-0.1-0.1-0.2-0.2
			c-0.1-0.1-0.1-0.1-0.2-0.2c-0.1-0.1-0.1-0.1-0.2-0.2c-0.1-0.1-0.1-0.1-0.2-0.2c-0.1-0.1-0.1-0.1-0.2-0.2c-0.1,0-0.1-0.1-0.2-0.1
			c-0.1-0.1-0.2-0.1-0.2-0.2c-0.1,0-0.1-0.1-0.2-0.1c-0.1-0.1-0.2-0.1-0.3-0.2c-0.1,0-0.1-0.1-0.2-0.1c-0.1-0.1-0.2-0.1-0.3-0.2
			c-0.1,0-0.1-0.1-0.2-0.1c-0.1-0.1-0.2-0.1-0.3-0.2c-0.1,0-0.1-0.1-0.2-0.1c-0.1-0.1-0.3-0.1-0.4-0.2l0,0l0,0
			c-3.4-1.6-8.2-2.6-13.7-2.6c-10.3-0.1-18.6,3.3-18.6,7.5c0,0.6,0.2,1.2,0.5,1.8c0,0,0,0.1,0.1,0.1c0,0.1,0.1,0.2,0.1,0.2
			c0,0,0,0.1,0.1,0.1c0.1,0.1,0.1,0.1,0.2,0.2c0,0,0.1,0.1,0.1,0.1c0.1,0.1,0.1,0.1,0.2,0.2c0,0,0.1,0.1,0.1,0.1
			c0.1,0.1,0.1,0.1,0.2,0.2c0,0,0.1,0.1,0.1,0.1c0.1,0.1,0.2,0.1,0.2,0.2c0,0,0,0,0.1,0c0.3,0.3,0.6,0.5,1,0.7c0,0,0.1,0.1,0.1,0.1
			c0.1,0.1,0.2,0.1,0.3,0.2c0.1,0,0.1,0.1,0.2,0.1c0.1,0.1,0.2,0.1,0.3,0.2c0.1,0,0.1,0.1,0.2,0.1c0.1,0.1,0.2,0.1,0.3,0.2
			c0.1,0,0.2,0.1,0.2,0.1c0.1,0.1,0.2,0.1,0.3,0.1c0.1,0,0.2,0.1,0.2,0.1c0.1,0,0.2,0.1,0.3,0.1c0.1,0,0.2,0.1,0.3,0.1
			c0.1,0,0.2,0.1,0.4,0.1c0.2,0.1,0.4,0.1,0.6,0.2c0.1,0,0.2,0.1,0.3,0.1c0.1,0,0.2,0.1,0.3,0.1c0.1,0,0.2,0.1,0.3,0.1
			c0.1,0,0.2,0.1,0.4,0.1c0.1,0,0.2,0.1,0.3,0.1c0.1,0,0.2,0.1,0.4,0.1c0.1,0,0.2,0.1,0.3,0.1c0.1,0,0.3,0.1,0.4,0.1
			c0.1,0,0.2,0.1,0.3,0.1c0.1,0,0.3,0.1,0.4,0.1c0.1,0,0.2,0,0.3,0.1c0.2,0,0.3,0.1,0.5,0.1c0.1,0,0.2,0,0.3,0.1
			c0.3,0,0.5,0.1,0.8,0.1c0.1,0,0.1,0,0.2,0c0.2,0,0.4,0.1,0.6,0.1c0.1,0,0.2,0,0.3,0c0.2,0,0.4,0,0.5,0.1c0.1,0,0.2,0,0.3,0
			c0.2,0,0.3,0,0.5,0.1c0.1,0,0.2,0,0.4,0c0.2,0,0.3,0,0.5,0c0.1,0,0.2,0,0.4,0c0.2,0,0.4,0,0.5,0c0.1,0,0.2,0,0.3,0
			c0.2,0,0.4,0,0.6,0c0.1,0,0.2,0,0.3,0c0.3,0,0.6,0,0.9,0c10.3,0.1,18.6-3.3,18.6-7.5C165.9,116.7,165.9,116.6,165.9,116.5z"/>
		<path class="st18" d="M163,112.6c-0.1-0.1-0.2-0.1-0.3-0.2c-0.1,0-0.1-0.1-0.2-0.1c-0.1-0.1-0.2-0.1-0.3-0.2
			c-0.1,0-0.1-0.1-0.2-0.1c-0.1-0.1-0.2-0.1-0.3-0.2c-0.1,0-0.1-0.1-0.2-0.1c-0.1-0.1-0.3-0.1-0.4-0.2c-3.4-1.6-8.2-2.6-13.7-2.6
			c-7.5-0.1-13.9,1.7-16.9,4.3c5.7,7.5,17.2,9.9,26.2,5.3c2.8-1.4,5-3.4,6.6-5.6c0,0-0.1-0.1-0.1-0.1
			C163.1,112.7,163.1,112.7,163,112.6z"/>
		
			<ellipse transform="matrix(0.9484 -0.317 0.317 0.9484 -24.2442 51.7171)" class="st16" cx="146.8" cy="100.4" rx="19.1" ry="19.1"/>
		<path class="st17" d="M132.6,113.1c5.9,6.7,16,8.4,23.9,3.7c9.1-5.4,12.1-17.1,6.8-26.1c-2.5-4.3-6.4-7.2-10.8-8.6
			c-0.3,4.6,0.3,9.4-0.6,14c-0.6,3.3-1.8,6.5-4.1,9c-2.5,2.7-5.9,4.6-9.2,6.1C136.7,112.1,134.7,112.8,132.6,113.1z"/>
		<path class="st19" d="M139.8,87c-0.2,0.1-0.3,0.3-0.4,0.5c-3.6,2.1-6.4,5.4-7.6,9.5c-0.4,1.5-0.7,3.2,0.7,4.3c1.3,1,3.5,0.8,5,0.3
			c3.9-1.1,7.7-5.2,8.3-9.3C146.3,88.9,143.4,85.1,139.8,87z"/>
		<path class="st3" d="M137.5,88.9c-0.1,0.1-0.2,0.1-0.2,0.2c-1.8,1.1-3.2,2.7-3.8,4.8c-0.2,0.7-0.4,1.6,0.3,2.1
			c0.7,0.5,1.7,0.4,2.5,0.2c2-0.6,3.8-2.6,4.2-4.6C140.8,89.8,139.3,87.9,137.5,88.9z"/>
		<path class="st20" d="M139.1,87.4c-1.7-1.3-3.5-2.5-5.2-3.8c-0.5-0.3-0.9,0.1-0.9,0.6c-0.1,0.1-0.1,0.2-0.1,0.4
			c-0.1,1.1-0.1,2.2,0,3.3c0.1,0.6,0.2,1.2,0.8,1.5c0.6,0.3,1.4,0.1,2.1,0c1.1-0.2,2.1-0.4,3.2-0.8
			C139.5,88.3,139.5,87.7,139.1,87.4z"/>
		<path class="st20" d="M159,82.6c-1.8,1.2-3.5,2.5-5.3,3.7c-0.5,0.3-0.2,0.9,0.3,1c0.1,0.1,0.2,0.2,0.3,0.2c1,0.4,2,0.8,3.1,1
			c0.6,0.1,1.2,0.2,1.6-0.2c0.5-0.5,0.6-1.3,0.7-2c0.2-1.1,0.3-2.2,0.3-3.3C160,82.6,159.5,82.3,159,82.6z"/>
		<path class="st20" d="M141.2,85c0.8-1,1.5-2,2.3-3.1c0.2-0.3,0-0.6-0.2-0.6c0-0.1-0.1-0.1-0.2-0.1c-0.6-0.1-1.1-0.2-1.7-0.2
			c-0.3,0-0.6,0.1-0.8,0.4c-0.2,0.4-0.2,0.9-0.2,1.3c0,0.7,0.1,1.4,0.2,2C140.7,85.2,141,85.3,141.2,85z"/>
		<path class="st20" d="M148.7,89.9c-1.1-0.6-2.2-1.3-3.3-1.9c-0.3-0.2-0.6,0.1-0.5,0.3c0,0-0.1,0.1-0.1,0.2c0,0.6,0,1.1,0.1,1.7
			c0.1,0.3,0.1,0.6,0.5,0.7c0.4,0.2,0.9,0,1.3,0c0.7-0.1,1.3-0.3,2-0.5C149,90.4,149,90.1,148.7,89.9z"/>
		<path class="st20" d="M148.2,78.6c-0.5,1.6-1,3.3-1.5,4.9c-0.1,0.4,0.4,0.6,0.7,0.4c0.1,0,0.2,0,0.3,0c0.9-0.3,1.8-0.7,2.6-1.2
			c0.4-0.2,0.9-0.5,0.9-1c0.1-0.6-0.3-1.1-0.6-1.5c-0.5-0.7-1-1.3-1.6-1.9C148.8,78,148.3,78.2,148.2,78.6z"/>
	</g>
</g>
<g>
	<g>
		<g>
			<path class="st6" d="M23.2,114.8l19.6,17.6c1.9,2.9,9,1.6,15.7-2.9c6.7-4.5,10.6-10.5,8.7-13.4L57.3,92L23.2,114.8z"/>
			
				<linearGradient id="SVGID_4_" gradientUnits="userSpaceOnUse" x1="18.0008" y1="123.8821" x2="59.0381" y2="123.8821" gradientTransform="matrix(0.8314 -0.5556 0.5556 0.8314 -51.9877 34.7551)">
				<stop  offset="0" style="stop-color:#FFC75C"/>
				<stop  offset="1" style="stop-color:#E69133"/>
			</linearGradient>
			<path class="st21" d="M67.2,116.2L57.3,92l-34.1,22.8l3.2,2.9c4.6,1,14.6-1.4,22.5-6.7c4.6-3.1,11.2,6.7,15.3,13.8
				C67.2,121.5,68.5,118.1,67.2,116.2z"/>
		</g>
		
			<linearGradient id="SVGID_5_" gradientUnits="userSpaceOnUse" x1="18.0008" y1="113.3156" x2="59.0381" y2="113.3156" gradientTransform="matrix(0.8314 -0.5556 0.5556 0.8314 -51.9877 34.7551)">
			<stop  offset="0" style="stop-color:#E8AA33"/>
			<stop  offset="1" style="stop-color:#CC7310"/>
		</linearGradient>
		<path class="st22" d="M57.3,92l-34.1,22.8l6,5.4c1.1-0.7,2.3-1.6,3.6-2.6c0.5,0.5,1,1.1,1.6,1.6c0,0,3.3-1.8,6.9-5.7
			c0,0,0.1,0.1,0.1,0.1c0,0,4.6-1.8,8.9-6.3c0.9-0.1,1.9-0.6,3.2-1.5c1.9-1.4,4.7-4,6.7-7L57.3,92z"/>
	</g>
	<g>
		<path class="st23" d="M29.1,84c-14.2-3.7-10.7-11-10.7-11c0,0,0,0-0.1,0.1c-0.1,0-1,0.1-2.9,4.1c-2,4.3,5.7,6.6,5.9,8.3
			c0.1,1.7-1.8,3.1-4.8,4.5c-3,1.4-4.5,8.9,1,11.4c7,3.1,17.8-2.4,20-3.6c0,0,0,0,0,0c0.2-0.1,0.3-0.1,0.3-0.2c0,0,0,0,0,0
			c0,0,0.1,0,0.1,0s0,0,0-0.1c0,0,0,0,0,0S43.3,87.7,29.1,84z"/>
		<path class="st24" d="M31.4,79.2C16.9,80.2,17.6,72,17.6,72c0,0,0,0,0,0.1c-0.1,0-0.9,0.4-1.2,4.8c-0.3,4.7,7.7,4.5,8.4,6.1
			c0.7,1.5-0.6,3.5-2.9,5.8c-2.3,2.3-3.6,10.4,5,10.7c7.6,0.3,15.7-8,17.4-9.8c0,0,0,0,0,0c0.1-0.1,0.2-0.2,0.3-0.3c0,0,0,0,0,0
			c0,0,0-0.1,0-0.1s0,0,0-0.1c0,0,0,0,0,0S46,78.3,31.4,79.2z"/>
		<g>
			<path class="st25" d="M17.3,70c0,0,0.5,9,16.4,5.2c15.9-3.7,16,8.4,16,8.4s-8.5,13-18,14.3c-9.5,1.3-9.3-7.7-7.1-10.6
				c2.2-2.9,3.3-5.3,2.3-6.8c-1-1.5-9.9,0.2-10.2-5C16.3,70.2,17.3,70,17.3,70z"/>
			<path class="st26" d="M31.7,97.8c9.5-1.3,18-14.3,18-14.3s-0.1-12.2-16-8.4c-15.9,3.7-16.4-5.2-16.4-5.2c0,0-2.7,7.3,14.9,9.7
				c6.5,0.9-8.8,10.8-3.6,18.3C29.5,98,30.5,98,31.7,97.8z"/>
			<path class="st23" d="M35.6,74.8c0.2,0.1,12.4,7.2,4.1,19.6l0,0c5.8-4.3,10.1-10.7,10.1-10.7S49.6,72.5,35.6,74.8z"/>
		</g>
		<path class="st25" d="M32.8,87.8c-6.3,0.6-23.3,6.3-14.6,20.3c0,0,22.6,3.6,20.3-16C38.5,92,39.2,87.2,32.8,87.8z"/>
		<path class="st26" d="M52.9,104.7c5.1-3.8,16.5-15.4,1.8-22.8c0,0-21,6.7-8.8,22.1C45.8,104,47.7,108.5,52.9,104.7z"/>
		<path class="st23" d="M35.4,87.9c-2.5-0.3-6.7,5.8-6.7,5.8s-20.2,13.2-7.3,25.1c0,0,16.5-8.1,15.8-27.1l0,0
			C37.2,88.2,36.5,87.4,35.4,87.9z"/>
		<path class="st24" d="M36.4,84.9c0,0-19.1,14.7-5.4,25.5c0,0,15.9-9.4,13.6-28.2l0,0C44.4,78.7,36.4,84.9,36.4,84.9z"/>
		<path class="st23" d="M47.9,79.9c-5.7,2.7-19.6,14.1-6.6,24.1c0,0,22.4-4.6,13.4-22.1C54.6,81.9,53.7,77.1,47.9,79.9z"/>
		<g>
			<path class="st25" d="M34.6,98.2c0,0-22,9.9-11.2,23.6c0,0,15.6-5.8,19.8-24.2C46.6,82.9,34.6,98.2,34.6,98.2z"/>
			<path class="st24" d="M43.2,97.5c1.8-9.8,1.1-8-1.6-5.2c-1.8,3-5.2,6.2-5.2,6.2s-16.1,8.3-13,23.2
				C23.4,121.8,39.8,116.2,43.2,97.5z"/>
		</g>
		<g>
			<path class="st25" d="M40.9,93c0,0-20,13.4-7.1,25.1c0,0,7.3-10.1,15.5-27.2C54.2,80.7,40.9,93,40.9,93z"/>
			<path class="st26" d="M49.3,90.9c0.1-10-6.5,2.1-6.5,2.1s-14.5,10.9-9,25.1C33.8,118.1,49,109.8,49.3,90.9z"/>
		</g>
		<g>
			<path class="st25" d="M48.6,86.5c0,0-20.8,12.1-7.8,26c0,0,17-7,16.5-27.4C56.9,74.7,48.6,86.5,48.6,86.5z"/>
			<path class="st24" d="M57.2,85.1c-0.3-10.6-6.7,1.6-6.7,1.6s-15.1,10-9.7,25.8C40.8,112.5,57.8,106,57.2,85.1z"/>
		</g>
	</g>
	<g>
		<g>
			<path class="st6" d="M21.1,94.5c0.2,1.4-0.7,2.6-2.1,2.9c-1.4,0.2-2.6-0.7-2.9-2.1c-0.2-1.4,0.7-2.6,2.1-2.9
				C19.6,92.2,20.9,93.1,21.1,94.5z"/>
			<path class="st7" d="M17.6,92.6c-1,0.5-1.6,1.5-1.4,2.7c0.2,1.1,1.1,1.9,2.2,2.1c1-0.5,1.6-1.5,1.4-2.7
				C19.6,93.6,18.6,92.8,17.6,92.6z"/>
		</g>
		<g>
			<path class="st6" d="M27.1,84c0.2,1.4-0.7,2.6-2.1,2.9c-1.4,0.2-2.6-0.7-2.9-2.1c-0.2-1.4,0.7-2.6,2.1-2.9
				C25.6,81.7,26.9,82.6,27.1,84z"/>
			<path class="st7" d="M23.6,82.1c-1,0.5-1.6,1.5-1.4,2.7c0.2,1.1,1.1,1.9,2.2,2.1c1-0.5,1.6-1.5,1.4-2.7
				C25.6,83.1,24.7,82.3,23.6,82.1z"/>
		</g>
		<g>
			<path class="st6" d="M26.3,75.6c0.2,1.4-0.7,2.6-2.1,2.9c-1.4,0.2-2.6-0.7-2.9-2.1c-0.2-1.4,0.7-2.6,2.1-2.9
				C24.8,73.3,26.1,74.2,26.3,75.6z"/>
			<path class="st7" d="M22.8,73.8c-1,0.5-1.6,1.5-1.4,2.7c0.2,1.1,1.1,1.9,2.2,2.1c1-0.5,1.6-1.5,1.4-2.7S23.9,73.9,22.8,73.8z"/>
		</g>
		<g>
			<circle class="st6" cx="36.3" cy="78.9" r="2.5"/>
			<path class="st7" d="M35.3,76.7c-1,0.5-1.6,1.5-1.4,2.7c0.2,1.1,1.1,1.9,2.2,2.1c1-0.5,1.6-1.5,1.4-2.7
				C37.3,77.6,36.4,76.8,35.3,76.7z"/>
		</g>
		<g>
			<path class="st6" d="M36.1,91.5c0.2,1.4-0.7,2.6-2.1,2.9c-1.4,0.2-2.6-0.7-2.9-2.1c-0.2-1.4,0.7-2.6,2.1-2.9
				C34.6,89.3,35.9,90.2,36.1,91.5z"/>
			<path class="st7" d="M32.6,89.7c-1,0.5-1.6,1.5-1.4,2.7c0.2,1.1,1.1,1.9,2.2,2.1c1-0.5,1.6-1.5,1.4-2.7
				C34.6,90.6,33.7,89.8,32.6,89.7z"/>
		</g>
		<g>
			<path class="st6" d="M22.1,106.6c0.2,1.4-0.7,2.6-2.1,2.9c-1.4,0.2-2.6-0.7-2.9-2.1c-0.2-1.4,0.7-2.6,2.1-2.9
				C20.5,104.4,21.8,105.3,22.1,106.6z"/>
			<path class="st7" d="M18.5,104.8c-1,0.5-1.6,1.5-1.4,2.7c0.2,1.1,1.1,1.9,2.2,2.1c1-0.5,1.6-1.5,1.4-2.7
				C20.5,105.7,19.6,104.9,18.5,104.8z"/>
		</g>
		<g>
			<path class="st6" d="M51.1,84.3c0.2,1.4-0.7,2.6-2.1,2.9c-1.4,0.2-2.6-0.7-2.9-2.1c-0.2-1.4,0.7-2.6,2.1-2.9
				C49.6,82,50.9,82.9,51.1,84.3z"/>
			<path class="st7" d="M47.6,82.4c-1,0.5-1.6,1.5-1.4,2.7c0.2,1.1,1.1,1.9,2.2,2.1c1-0.5,1.6-1.5,1.4-2.7
				C49.5,83.4,48.6,82.6,47.6,82.4z"/>
		</g>
		<g>
			<path class="st6" d="M34.4,102.2c0.2,1.4-0.7,2.6-2.1,2.9c-1.4,0.2-2.6-0.7-2.9-2.1c-0.2-1.4,0.7-2.6,2.1-2.9
				C32.9,100,34.2,100.9,34.4,102.2z"/>
			<path class="st7" d="M30.9,100.4c-1,0.5-1.6,1.5-1.4,2.7c0.2,1.1,1.1,1.9,2.2,2.1c1-0.5,1.6-1.5,1.4-2.7
				C32.9,101.3,32,100.5,30.9,100.4z"/>
		</g>
		<g>
			<path class="st6" d="M45.9,95.4c0.2,1.4-0.7,2.6-2.1,2.9c-1.4,0.2-2.6-0.7-2.9-2.1c-0.2-1.4,0.7-2.6,2.1-2.9
				C44.4,93.1,45.7,94.1,45.9,95.4z"/>
			<path class="st7" d="M42.4,93.6c-1,0.5-1.6,1.5-1.4,2.7c0.2,1.1,1.1,1.9,2.2,2.1c1-0.5,1.6-1.5,1.4-2.7
				C44.4,94.5,43.5,93.7,42.4,93.6z"/>
		</g>
	</g>
</g>
<g>
	<g>
		<path class="st27" d="M68.8,69.2l-6,1.6l5.6,20.8l0,0c0,0.1,0,0.3,0.1,0.4c0.5,1.7,2.2,2.7,3.8,2.2c1.7-0.5,2.7-2.2,2.2-3.8
			c0-0.1-0.1-0.2-0.1-0.4l0,0L68.8,69.2z"/>
		<path class="st28" d="M68,69.5l-6,1.6l5.6,20.8l0,0c0,0.1,0,0.3,0.1,0.4c0.5,1.7,2.2,2.7,3.8,2.2c1.7-0.5,2.7-2.2,2.2-3.8
			c0-0.1-0.1-0.2-0.1-0.4l0,0L68,69.5z"/>
		<path class="st29" d="M62.7,73.6c1.5,0.2,3.5,0.8,4,2.7c0.7,3,3.7,6.2,5.1,18c1.6-0.5,2.5-2.2,2-3.8c0-0.1-0.1-0.2-0.1-0.4l0,0
			L68,69.5l-6,1.6L62.7,73.6z"/>
	</g>
	<path class="st11" d="M76.6,44.5c3.6,13.2-1.4,26.1-10.4,28.5s-19.8-6.1-23.4-19.4c-3.6-13.2-1.1-35.2,7.9-37.6S73,31.2,76.6,44.5z
		"/>
	<path class="st12" d="M50.7,16c-1.5,0.4-2.8,1.3-3.9,2.7c8,4.6,14,12.8,14.4,22.1c0.3,9.3-5.8,18.6-14.6,21.6
		c5,8,12.8,12.5,19.6,10.6c9-2.4,14-15.3,10.4-28.5C73,31.2,59.7,13.6,50.7,16z"/>
	<path class="st30" d="M48.7,27.7c-0.4-0.2-0.7-0.1-0.9,0.1c-0.4-0.2-1.1-0.1-1.3,0.5c-1.1,3.1-1.6,6.3-1.5,9.5c0.1,2,0.2,4.1,2,5.2
		c0.5,0.3,1.1-0.1,1.3-0.6C49.6,38.8,53.3,30.4,48.7,27.7z"/>
	<g>
		<path class="st6" d="M62,19.3c-0.2,1.4-1.5,2.3-2.9,2.1c-1.4-0.2-2.3-1.5-2.1-2.9c0.2-1.4,1.5-2.3,2.9-2.1
			C61.3,16.6,62.3,17.9,62,19.3z"/>
		<path class="st7" d="M59.3,16.4c-1.1,0.1-2,0.9-2.2,2.1c-0.2,1.1,0.4,2.2,1.4,2.6c1.1-0.1,2-0.9,2.2-2.1
			C60.9,17.9,60.3,16.9,59.3,16.4z"/>
	</g>
	<g>
		<path class="st6" d="M56.2,27.4c-0.2,1.4-1.5,2.3-2.9,2.1C52,29.3,51,28,51.3,26.6c0.2-1.4,1.5-2.3,2.9-2.1
			C55.5,24.8,56.4,26,56.2,27.4z"/>
		<path class="st7" d="M53.4,24.5c-1.1,0.1-2,0.9-2.2,2.1c-0.2,1.1,0.4,2.2,1.4,2.6c1.1-0.1,2-0.9,2.2-2.1
			C55,26.1,54.4,25,53.4,24.5z"/>
	</g>
	<g>
		<path class="st6" d="M71.4,28.9c-0.2,1.4-1.5,2.3-2.9,2.1c-1.4-0.2-2.3-1.5-2.1-2.9c0.2-1.4,1.5-2.3,2.9-2.1
			C70.7,26.2,71.6,27.5,71.4,28.9z"/>
		<path class="st7" d="M68.6,26c-1.1,0.1-2,0.9-2.2,2.1c-0.2,1.1,0.4,2.2,1.4,2.6c1.1-0.1,2-0.9,2.2-2.1
			C70.2,27.5,69.6,26.5,68.6,26z"/>
	</g>
	<g>
		<path class="st6" d="M77.6,46.1c-0.2,1.4-1.5,2.3-2.9,2.1c-1.4-0.2-2.3-1.5-2.1-2.9c0.2-1.4,1.5-2.3,2.9-2.1
			C76.9,43.4,77.8,44.7,77.6,46.1z"/>
		<path class="st7" d="M74.8,43.2c-1.1,0.1-2,0.9-2.2,2.1c-0.2,1.1,0.4,2.2,1.4,2.6c1.1-0.1,2-0.9,2.2-2.1
			C76.4,44.7,75.8,43.7,74.8,43.2z"/>
	</g>
	<g>
		<path class="st6" d="M51.2,19.6c-0.2,1.4-1.5,2.3-2.9,2.1c-1.4-0.2-2.3-1.5-2.1-2.9c0.2-1.4,1.5-2.3,2.9-2.1
			C50.4,16.9,51.4,18.2,51.2,19.6z"/>
		<path class="st7" d="M48.4,16.7c-1.1,0.1-2,0.9-2.2,2.1c-0.2,1.1,0.4,2.2,1.4,2.6c1.1-0.1,2-0.9,2.2-2.1
			C50,18.2,49.4,17.2,48.4,16.7z"/>
	</g>
	<g>
		<path class="st6" d="M50.7,45.7c-0.2,1.4-1.5,2.3-2.9,2.1c-1.4-0.2-2.3-1.5-2.1-2.9c0.2-1.4,1.5-2.3,2.9-2.1
			C50,43.1,50.9,44.4,50.7,45.7z"/>
		<path class="st7" d="M47.9,42.9c-1.1,0.1-2,0.9-2.2,2.1c-0.2,1.1,0.4,2.2,1.4,2.6c1.1-0.1,2-0.9,2.2-2.1
			C49.5,44.4,48.9,43.3,47.9,42.9z"/>
	</g>
	<g>
		<path class="st6" d="M45.8,56.1c-0.2,1.4-1.5,2.3-2.9,2.1c-1.4-0.2-2.3-1.5-2.1-2.9c0.2-1.4,1.5-2.3,2.9-2.1
			C45.1,53.5,46.1,54.8,45.8,56.1z"/>
		<path class="st7" d="M43.1,53.3c-1.1,0.1-2,0.9-2.2,2.1c-0.2,1.1,0.4,2.2,1.4,2.6c1.1-0.1,2-0.9,2.2-2.1
			C44.7,54.8,44.1,53.7,43.1,53.3z"/>
	</g>
	<g>
		<path class="st6" d="M65,39.5c-0.2,1.4-1.5,2.3-2.9,2.1c-1.4-0.2-2.3-1.5-2.1-2.9c0.2-1.4,1.5-2.3,2.9-2.1
			C64.2,36.8,65.2,38.1,65,39.5z"/>
		<path class="st7" d="M62.2,36.6c-1.1,0.1-2,0.9-2.2,2.1c-0.2,1.1,0.4,2.2,1.4,2.6c1.1-0.1,2-0.9,2.2-2.1
			C63.8,38.1,63.2,37.1,62.2,36.6z"/>
	</g>
	<g>
		<path class="st6" d="M63.5,53.5c-0.2,1.4-1.5,2.3-2.9,2.1c-1.4-0.2-2.3-1.5-2.1-2.9c0.2-1.4,1.5-2.3,2.9-2.1
			C62.8,50.8,63.7,52.1,63.5,53.5z"/>
		<path class="st7" d="M60.7,50.6c-1.1,0.1-2,0.9-2.2,2.1c-0.2,1.1,0.4,2.2,1.4,2.6c1.1-0.1,2-0.9,2.2-2.1
			C62.3,52.1,61.7,51.1,60.7,50.6z"/>
	</g>
	<g>
		<path class="st6" d="M45.7,35.5c-0.2,1.4-1.5,2.3-2.9,2.1c-1.4-0.2-2.3-1.5-2.1-2.9c0.2-1.4,1.5-2.3,2.9-2.1
			C44.9,32.8,45.9,34.1,45.7,35.5z"/>
		<path class="st7" d="M42.9,32.6c-1.1,0.1-2,0.9-2.2,2.1c-0.2,1.1,0.4,2.2,1.4,2.6c1.1-0.1,2-0.9,2.2-2.1
			C44.5,34.1,43.9,33.1,42.9,32.6z"/>
	</g>
</g>
<g>
	<g>
		<g>
			<path class="st6" d="M23.4,151.5l6.5,22c0,3.5,6.6,6.4,14.7,6.4s14.7-2.8,14.7-6.4l5.2-22H23.4z"/>
			<linearGradient id="SVGID_6_" gradientUnits="userSpaceOnUse" x1="23.425" y1="165.2769" x2="64.4624" y2="165.2769">
				<stop  offset="0" style="stop-color:#FFC75C"/>
				<stop  offset="1" style="stop-color:#E69133"/>
			</linearGradient>
			<path class="st31" d="M59.3,173.6l5.2-22h-41l1.1,4.2c3.3,3.3,12.9,6.9,22.4,6.9c5.5,0,5.6,8.3,5.1,16.5
				C56.3,178,59.3,175.9,59.3,173.6z"/>
		</g>
	</g>
	<g>
		<g>
			
				<ellipse transform="matrix(0.9117 -0.4108 0.4108 0.9117 -50.0204 27.4571)" class="st32" cx="38.9" cy="130.1" rx="17" ry="16.8"/>
			
				<linearGradient id="SVGID_7_" gradientUnits="userSpaceOnUse" x1="-68.3874" y1="25.9405" x2="-31.7108" y2="25.9405" gradientTransform="matrix(0.8496 -0.3828 0.4108 0.9117 71.6887 89.5319)">
				<stop  offset="0" style="stop-color:#FFCCFC"/>
				<stop  offset="1" style="stop-color:#F05BCB"/>
			</linearGradient>
			<path class="st33" d="M54.4,123.1c-3.1-6.9-10.3-10.7-17.5-9.7c1,0.5,2,1.1,3,1.8c4.7,3.8,6.5,10.5,2,14.8
				c-5,4.8-12.2,6.5-19.1,5.7c0.2,0.5,0.3,0.9,0.6,1.4c0,0,6.7,17.4,11,16.3c2.7-0.7,1.8-4.2,0.7-6.8c3.5,0.8,7.2,0.5,10.8-1.1
				c0.4-0.2,0.8-0.4,1.2-0.6c4.7,5.2,8.1,1.6,5-4.2C56,135.8,57.1,129.1,54.4,123.1z"/>
			<path class="st34" d="M32.5,117.4c-0.2,0-0.4,0.2-0.5,0.3c-3,1.5-6.2,4.9-6.1,8.7c0,3.6,3.6,5.2,6.5,4.5c3.3-0.9,6.3-4.2,6.1-8
				C38.3,119.7,35.6,117,32.5,117.4z"/>
		</g>
		<g>
			<ellipse class="st32" cx="52.3" cy="142.3" rx="18.3" ry="16.8"/>
			<linearGradient id="SVGID_8_" gradientUnits="userSpaceOnUse" x1="33.9176" y1="144.7618" x2="70.5935" y2="144.7618">
				<stop  offset="0" style="stop-color:#FFCCFC"/>
				<stop  offset="1" style="stop-color:#F05BCB"/>
			</linearGradient>
			<path class="st35" d="M70.6,142.3c0-7.6-5.4-14-12.9-16.1c0.8,0.9,1.5,1.8,2.1,2.9c3,5.4,1.8,12.2-4.5,14.3
				c-7,2.3-14.8,0.9-21.2-2.6c0,0.5-0.1,1-0.1,1.5c0,0-1.1,18.6,3.6,19.3c2.9,0.4,3.6-3.1,3.7-5.9c3.1,2.1,6.9,3.4,11,3.4
				c0.5,0,1,0,1.5-0.1c2.3,6.7,7.2,4.8,6.7-1.7C66.5,154.6,70.6,148.9,70.6,142.3z"/>
			<path class="st34" d="M48.1,131.8c-0.3,0-0.6,0.1-0.7,0.3c-4.2,1.3-9,4.8-9.7,9.4c-0.7,4.3,3.6,7,7.5,6.6
				c4.4-0.5,9.1-3.9,9.6-8.5C55.2,135.5,52.2,131.8,48.1,131.8z"/>
			<path class="st36" d="M37.6,142.5c0.1,3.7,4,6,7.6,5.6c2.8-0.3,5.6-1.8,7.5-4C47.7,145.1,42.4,144.4,37.6,142.5z"/>
		</g>
		<g>
			<ellipse class="st37" cx="35.8" cy="145.7" rx="17.4" ry="16"/>
			<path class="st37" d="M18.5,145.7c0,0-1,17.7,3.4,18.4s3.4-8.5,3.4-8.5L18.5,145.7z"/>
			<path class="st37" d="M36.7,148.6c0,0-1,17.7,3.4,18.4c4.4,0.7,3.4-8.5,3.4-8.5L36.7,148.6z"/>
			<linearGradient id="SVGID_9_" gradientUnits="userSpaceOnUse" x1="18.3682" y1="148.7409" x2="53.1851" y2="148.7409">
				<stop  offset="0" style="stop-color:#FFB8FB"/>
				<stop  offset="1" style="stop-color:#F05ACB"/>
			</linearGradient>
			<path class="st38" d="M53.2,145.7c0-7.2-5.1-13.2-12.2-15.3c0.7,0.8,1.4,1.8,2,2.8c2.8,5.1,1.7,11.6-4.3,13.6
				c-6.7,2.2-14,0.9-20.1-2.5c0,0.5-0.1,1-0.1,1.4c0,0-1,17.7,3.4,18.4c2.8,0.4,3.4-3,3.5-5.6c2.9,2,6.5,3.2,10.5,3.2
				c0.5,0,1,0,1.4-0.1c0.5,2.8,1.4,5.1,2.9,5.3c3.3,0.5,3.6-4.4,3.5-7C49.3,157.4,53.2,152,53.2,145.7z"/>
			<path class="st39" d="M31.9,135.7c-0.3,0-0.5,0.1-0.7,0.3c-4,1.2-8.5,4.5-9.2,8.9c-0.6,4.1,3.5,6.7,7.1,6.3
				c4.2-0.5,8.6-3.7,9.1-8.1C38.6,139.3,35.7,135.7,31.9,135.7z"/>
			<path class="st40" d="M21.9,145.9c0.1,3.5,3.8,5.7,7.2,5.3c2.6-0.3,5.4-1.7,7.1-3.8C31.4,148.4,26.4,147.7,21.9,145.9z"/>
			<path class="st41" d="M29.7,137.9c-0.2,0-0.3,0.1-0.4,0.2c-2.1,0.7-4.6,2.4-5,4.8c-0.3,2.2,1.9,3.6,3.9,3.4
				c2.3-0.2,4.7-2,4.9-4.4C33.3,139.8,31.8,137.9,29.7,137.9z"/>
		</g>
		<g>
			<path class="st42" d="M21.1,126.6c-0.1-0.3-0.2-0.5-0.3-0.8c-0.6-1.1-1-1.1-1.7-0.7c-0.7,0.3-0.7,1.5-0.2,2.6
				c0.1,0.1,0.1,0.2,0.2,0.3c-0.1-0.1-0.2-0.2-0.3-0.3c-1-0.8-2.1-1-2.6-0.4c-0.5,0.6-0.6,1,0.4,1.8c0.2,0.2,0.4,0.3,0.7,0.4
				c-0.9,1.9-0.8,4.2,0.7,6c1.9,2.4,5.5,2.8,7.9,0.9c2.4-1.9,2.8-5.5,0.9-7.9C25.4,126.8,23.2,126.1,21.1,126.6z"/>
			<path class="st43" d="M22.9,126.5c2.2,2.7,1.5,5.7-0.1,9.2c-0.3,0.6-0.6,1.3-0.9,1.9c1.4,0.1,2.9-0.3,4-1.2
				c2.4-1.9,2.8-5.5,0.9-7.9C25.8,127.3,24.4,126.6,22.9,126.5z"/>
			<defs>
				<filter id="Adobe_OpacityMaskFilter" filterUnits="userSpaceOnUse" x="15.9" y="124.8" width="12" height="12.8">
					<feFlood  style="flood-color:white;flood-opacity:1" result="back"/>
					<feBlend  in="SourceGraphic" in2="back" mode="normal"/>
				</filter>
			</defs>
			<mask maskUnits="userSpaceOnUse" x="15.9" y="124.8" width="12" height="12.8" id="SVGID_10_">
				<g class="st44">
					<defs>
						<filter id="Adobe_OpacityMaskFilter_1_" filterUnits="userSpaceOnUse" x="15.9" y="124.8" width="12" height="12.8">
							<feFlood  style="flood-color:white;flood-opacity:1" result="back"/>
							<feBlend  in="SourceGraphic" in2="back" mode="normal"/>
						</filter>
					</defs>
					<mask maskUnits="userSpaceOnUse" x="15.9" y="124.8" width="12" height="12.8" id="SVGID_10_">
						<g class="st45">
						</g>
					</mask>
					
						<linearGradient id="SVGID_11_" gradientUnits="userSpaceOnUse" x1="-3.7075" y1="104.945" x2="5.0927" y2="113.7453" gradientTransform="matrix(0.7806 -0.625 0.625 0.7806 -47.0394 46.4201)">
						<stop  offset="0" style="stop-color:#FFFFFF"/>
						<stop  offset="1" style="stop-color:#000000"/>
					</linearGradient>
					<path class="st46" d="M21.1,126.6c-0.1-0.3-0.2-0.5-0.3-0.8c-0.6-1.1-1-1.1-1.7-0.7c-0.7,0.3-0.7,1.5-0.2,2.6
						c0.1,0.1,0.1,0.2,0.2,0.3c-0.1-0.1-0.2-0.2-0.3-0.3c-1-0.8-2.1-1-2.6-0.4c-0.5,0.6-0.6,1,0.4,1.8c0.2,0.2,0.4,0.3,0.7,0.4
						c-0.9,1.9-0.8,4.2,0.7,6c1.9,2.4,5.5,2.8,7.9,0.9c2.4-1.9,2.8-5.5,0.9-7.9C25.4,126.8,23.2,126.1,21.1,126.6z"/>
				</g>
			</mask>
			
				<linearGradient id="SVGID_12_" gradientUnits="userSpaceOnUse" x1="-3.7075" y1="104.945" x2="5.0927" y2="113.7453" gradientTransform="matrix(0.7806 -0.625 0.625 0.7806 -47.0394 46.4201)">
				<stop  offset="0" style="stop-color:#FF9264"/>
				<stop  offset="1" style="stop-color:#000000"/>
			</linearGradient>
			<path class="st47" d="M21.1,126.6c-0.1-0.3-0.2-0.5-0.3-0.8c-0.6-1.1-1-1.1-1.7-0.7c-0.7,0.3-0.7,1.5-0.2,2.6
				c0.1,0.1,0.1,0.2,0.2,0.3c-0.1-0.1-0.2-0.2-0.3-0.3c-1-0.8-2.1-1-2.6-0.4c-0.5,0.6-0.6,1,0.4,1.8c0.2,0.2,0.4,0.3,0.7,0.4
				c-0.9,1.9-0.8,4.2,0.7,6c1.9,2.4,5.5,2.8,7.9,0.9c2.4-1.9,2.8-5.5,0.9-7.9C25.4,126.8,23.2,126.1,21.1,126.6z"/>
			<path class="st48" d="M22.2,131.5c-0.2-0.8-0.9-1.4-2-1.4c-1.9,0-2.5,2.1-1.8,3.4c0.2,0.8,0.9,1.4,2,1.4
				C22.3,134.9,22.9,132.8,22.2,131.5z"/>
			<path class="st49" d="M19.3,131.8c-0.1-0.4-0.4-0.6-0.9-0.6c-0.9,0-1.1,0.9-0.8,1.5c0.1,0.4,0.4,0.6,0.9,0.6
				C19.4,133.3,19.7,132.3,19.3,131.8z"/>
		</g>
		<g>
			<path class="st42" d="M44.5,134.6c0.2-0.2,0.3-0.4,0.5-0.7c0.6-1.1,0.3-1.5-0.4-1.8c-0.7-0.4-1.7,0.3-2.3,1.4
				c-0.1,0.1-0.1,0.2-0.2,0.3c0-0.1,0-0.2,0.1-0.4c0.1-1.3-0.4-2.3-1.1-2.4c-0.7-0.1-1.2,0.1-1.3,1.3c0,0.3,0,0.6,0,0.8
				c-2.1,0.3-3.9,1.8-4.6,3.9c-0.9,3,0.8,6.1,3.8,7c3,0.9,6.1-0.8,7-3.8C46.7,138.2,46,136,44.5,134.6z"/>
			<path class="st43" d="M45.6,136c-1,3.3-3.9,4.4-7.7,5.1c-0.7,0.1-1.4,0.2-2.1,0.3c0.7,1.2,1.8,2.2,3.3,2.6c3,0.9,6.1-0.8,7-3.8
				C46.5,138.8,46.3,137.3,45.6,136z"/>
			<defs>
				<filter id="Adobe_OpacityMaskFilter_2_" filterUnits="userSpaceOnUse" x="35.1" y="131" width="11.2" height="13.3">
					<feFlood  style="flood-color:white;flood-opacity:1" result="back"/>
					<feBlend  in="SourceGraphic" in2="back" mode="normal"/>
				</filter>
			</defs>
			<mask maskUnits="userSpaceOnUse" x="35.1" y="131" width="11.2" height="13.3" id="SVGID_13_">
				<g class="st50">
					<defs>
						<filter id="Adobe_OpacityMaskFilter_3_" filterUnits="userSpaceOnUse" x="35.1" y="131" width="11.2" height="13.3">
							<feFlood  style="flood-color:white;flood-opacity:1" result="back"/>
							<feBlend  in="SourceGraphic" in2="back" mode="normal"/>
						</filter>
					</defs>
					<mask maskUnits="userSpaceOnUse" x="35.1" y="131" width="11.2" height="13.3" id="SVGID_13_">
						<g class="st51">
						</g>
					</mask>
					
						<linearGradient id="SVGID_14_" gradientUnits="userSpaceOnUse" x1="33.8158" y1="148.4025" x2="42.6161" y2="157.2029" gradientTransform="matrix(0.9576 0.288 -0.288 0.9576 48.3535 -19.4744)">
						<stop  offset="0" style="stop-color:#FFFFFF"/>
						<stop  offset="1" style="stop-color:#000000"/>
					</linearGradient>
					<path class="st52" d="M44.5,134.6c0.2-0.2,0.3-0.4,0.5-0.7c0.6-1.1,0.3-1.5-0.4-1.8c-0.7-0.4-1.7,0.3-2.3,1.4
						c-0.1,0.1-0.1,0.2-0.2,0.3c0-0.1,0-0.2,0.1-0.4c0.1-1.3-0.4-2.3-1.1-2.4c-0.7-0.1-1.2,0.1-1.3,1.3c0,0.3,0,0.6,0,0.8
						c-2.1,0.3-3.9,1.8-4.6,3.9c-0.9,3,0.8,6.1,3.8,7c3,0.9,6.1-0.8,7-3.8C46.7,138.2,46,136,44.5,134.6z"/>
				</g>
			</mask>
			
				<linearGradient id="SVGID_15_" gradientUnits="userSpaceOnUse" x1="33.8158" y1="148.4025" x2="42.6161" y2="157.2029" gradientTransform="matrix(0.9576 0.288 -0.288 0.9576 48.3535 -19.4744)">
				<stop  offset="0" style="stop-color:#FF9264"/>
				<stop  offset="1" style="stop-color:#000000"/>
			</linearGradient>
			<path class="st53" d="M44.5,134.6c0.2-0.2,0.3-0.4,0.5-0.7c0.6-1.1,0.3-1.5-0.4-1.8c-0.7-0.4-1.7,0.3-2.3,1.4
				c-0.1,0.1-0.1,0.2-0.2,0.3c0-0.1,0-0.2,0.1-0.4c0.1-1.3-0.4-2.3-1.1-2.4c-0.7-0.1-1.2,0.1-1.3,1.3c0,0.3,0,0.6,0,0.8
				c-2.1,0.3-3.9,1.8-4.6,3.9c-0.9,3,0.8,6.1,3.8,7c3,0.9,6.1-0.8,7-3.8C46.7,138.2,46,136,44.5,134.6z"/>
			<path class="st48" d="M41,138.2c0.5-0.6,0.7-1.6,0.1-2.4c-1.1-1.6-3.2-0.9-3.8,0.5c-0.5,0.6-0.7,1.6-0.1,2.4
				C38.3,140.3,40.4,139.6,41,138.2z"/>
			<path class="st49" d="M39.2,136c0.2-0.3,0.3-0.7,0-1.1c-0.5-0.7-1.4-0.4-1.7,0.2c-0.2,0.3-0.3,0.7,0,1.1
				C38,136.9,38.9,136.6,39.2,136z"/>
		</g>
		<g>
			<path class="st54" d="M53.1,121.1c0.2-0.1,0.3-0.3,0.4-0.5c0.6-0.8,0.4-1.1-0.1-1.4c-0.5-0.3-1.3,0-1.9,0.9
				c-0.1,0.1-0.1,0.2-0.2,0.2c0-0.1,0.1-0.2,0.1-0.3c0.2-1-0.1-1.8-0.6-2c-0.6-0.1-0.9-0.1-1.1,0.9c0,0.2-0.1,0.4-0.1,0.6
				c-1.6,0-3.2,1-3.9,2.6c-1,2.2,0,4.8,2.3,5.8c2.2,1,4.8,0,5.8-2.3C54.5,124.1,54.2,122.3,53.1,121.1z"/>
			<path class="st55" d="M50.2,123.6c0.5-0.5,0.7-1.1,0.3-1.9c-0.7-1.3-2.4-1-3,0c-0.5,0.5-0.7,1.1-0.3,1.9
				C48,125,49.6,124.6,50.2,123.6z"/>
			<path class="st56" d="M49,121.8c0.2-0.2,0.3-0.5,0.1-0.8c-0.3-0.6-1-0.4-1.3,0c-0.2,0.2-0.3,0.5-0.1,0.8
				C48,122.4,48.8,122.2,49,121.8z"/>
			<path class="st57" d="M53.1,121.1c0.2-0.1,0.3-0.3,0.4-0.5c0.6-0.8,0.4-1.1-0.1-1.4c-0.3-0.2-0.7-0.1-1.1,0.1
				c-0.3,3.6-0.9,8.5-5.5,7.6c-0.1,0-0.3,0-0.4,0c0.4,0.5,0.9,0.8,1.5,1.1c2.2,1,4.8,0,5.8-2.3C54.5,124.1,54.2,122.3,53.1,121.1z"
				/>
			<path class="st58" d="M53.5,121.6c-0.3,4.2-2.8,5.8-3.8,6.6c0,0-0.1,0.1-0.2,0.1c1.8,0.1,3.5-0.9,4.3-2.6
				C54.4,124.3,54.2,122.8,53.5,121.6z"/>
		</g>
		<g>
			<path class="st54" d="M37.8,109.6c0.1-0.2,0.1-0.4,0.1-0.7c0-1-0.3-1.1-0.9-1.1c-0.6,0-1.1,0.8-1.1,1.8c0,0.1,0,0.2,0,0.3
				c0-0.1-0.1-0.2-0.1-0.3c-0.4-0.9-1.1-1.5-1.6-1.3c-0.5,0.2-0.8,0.5-0.4,1.4c0.1,0.2,0.2,0.4,0.3,0.6c-1.3,1-2.1,2.6-1.8,4.4
				c0.4,2.4,2.7,3.9,5.1,3.5c2.4-0.4,3.9-2.7,3.5-5.1C40.7,111.3,39.4,110.1,37.8,109.6z"/>
			<path class="st55" d="M36.9,113.4c0.1-0.6-0.1-1.3-0.8-1.7c-1.3-0.7-2.5,0.5-2.5,1.7c-0.1,0.6,0.1,1.3,0.8,1.7
				C35.7,115.7,36.9,114.5,36.9,113.4z"/>
			<path class="st56" d="M34.8,112.5c0.1-0.3,0-0.6-0.4-0.8c-0.6-0.3-1.1,0.2-1.1,0.7c-0.1,0.3,0,0.6,0.4,0.8
				C34.3,113.6,34.8,113,34.8,112.5z"/>
			<path class="st57" d="M37.8,109.6c0.1-0.2,0.1-0.4,0.1-0.7c0-1-0.3-1.1-0.9-1.1c-0.3,0-0.6,0.3-0.8,0.7c1.8,3.2,4.1,7.5-0.3,9.3
				c-0.1,0.1-0.3,0.1-0.4,0.2c0.6,0.2,1.2,0.2,1.9,0.1c2.4-0.4,3.9-2.7,3.5-5.1C40.7,111.3,39.4,110.1,37.8,109.6z"/>
			<path class="st58" d="M38.4,109.8c2.1,3.6,1,6.4,0.5,7.6c0,0.1-0.1,0.1-0.1,0.2c1.5-0.9,2.4-2.7,2.1-4.6
				C40.7,111.6,39.7,110.4,38.4,109.8z"/>
		</g>
		<g>
			<path class="st54" d="M70.5,133.4c0.2,0,0.4-0.1,0.6-0.2c0.9-0.4,0.9-0.7,0.7-1.3c-0.2-0.5-1.1-0.7-2-0.3c-0.1,0-0.2,0.1-0.3,0.1
				c0.1-0.1,0.1-0.1,0.2-0.2c0.7-0.7,0.9-1.6,0.5-2c-0.4-0.4-0.7-0.6-1.4,0.1c-0.2,0.2-0.3,0.3-0.4,0.5c-1.4-0.9-3.2-0.9-4.7,0
				c-2,1.3-2.6,4-1.3,6s4,2.6,6.1,1.3C70,136.7,70.7,135.1,70.5,133.4z"/>
			<path class="st55" d="M66.6,134c0.6-0.1,1.2-0.6,1.3-1.4c0.2-1.5-1.4-2.1-2.5-1.6c-0.6,0.1-1.2,0.6-1.3,1.4
				C64,133.8,65.6,134.5,66.6,134z"/>
			<path class="st56" d="M66.7,131.7c0.3-0.1,0.5-0.3,0.6-0.6c0.1-0.7-0.6-0.9-1.1-0.7c-0.3,0.1-0.5,0.3-0.6,0.6
				C65.5,131.7,66.2,132,66.7,131.7z"/>
			<path class="st57" d="M70.5,133.4c0.2,0,0.4-0.1,0.6-0.2c0.9-0.4,0.9-0.7,0.7-1.3c-0.1-0.3-0.5-0.5-1-0.5
				c-2.3,2.8-5.4,6.6-8.7,3.3c-0.1-0.1-0.2-0.2-0.3-0.2c0.1,0.6,0.3,1.2,0.7,1.8c1.3,2,4,2.6,6.1,1.3
				C70,136.7,70.7,135.1,70.5,133.4z"/>
			<path class="st58" d="M70.5,134.1c-2.6,3.4-5.5,3.3-6.8,3.4c-0.1,0-0.1,0-0.2,0c1.4,1.1,3.4,1.2,5,0.2
				C69.8,136.8,70.5,135.5,70.5,134.1z"/>
		</g>
	</g>
</g>
<g>
	<path class="st59" d="M171.2,116.9c0,0-0.9,12.7,1.3,26.2l31.4-33.9c0.4-0.5,0.7-1.1,0.7-1.8V87.6L171.2,116.9z"/>
	<path class="st60" d="M204.6,92.7c-0.2,0-0.5,0.1-0.7,0.3l-23.3,20.4c-1.5,1.3-2.3,3.1-2.4,5.1c-0.1,3.3,0,6.6,0.2,9.8
		c0.1,1.1,1,2,2.1,2c0.6,0,1.1-0.2,1.6-0.7l22.5-24.3V92.7z"/>
	<path class="st61" d="M181.4,128.9c-0.7,0.7-1.9,0.3-1.9-0.7c-0.2-3.9-0.2-7.2-0.2-9.7c0-1.7,0.8-3.2,2-4.3l23.3-20.4v10.1
		L181.4,128.9z"/>
	<path class="st62" d="M181.4,125.8c-0.1-2.4-0.1-4.9-0.1-7.3c0-1.1,0.5-2.1,1.3-2.8l21.6-18.1v4.3L181.4,125.8z"/>
	<path class="st63" d="M171.2,116.9c0,0-19.8-0.5-26.9-20v21.2c0,0-2.2,12.6,28.2,24.9L171.2,116.9z"/>
	<path class="st64" d="M204.6,107.4V87.6l-20.5,18c1.6-0.5,3.2-1,4.9-1.4c1.5-0.3,3.2-0.2,4.8-0.2c2.4,0,3.6,0.7,5.1,2.5
		c1.1,1.3,2.3,3.2,2.9,5l2.2-2.4C204.3,108.7,204.6,108,204.6,107.4z"/>
	<path class="st65" d="M204.6,93.7l-11.8,10.4c0.3,0,0.7,0,1,0c2.4,0,3.6,0.7,5.1,2.5c0.5,0.6,1,1.2,1.4,2l4.4-4.7V93.7z"/>
	<path class="st66" d="M204.6,87.6c0,0-57.3,6.1-60.3,9.3c0,0,1.7,19,26.9,20L204.6,87.6z"/>
	<path class="st67" d="M204.2,97.6l-8.1,6.8c1,0.4,1.8,1.1,2.7,2.1c0.1,0.2,0.3,0.4,0.4,0.6l5-5.2V97.6z"/>
	<path class="st68" d="M171.6,113L200,88.1c-11.2,1.3-40,4.6-51.2,7.2c-0.2,0.1-0.4,0.2-0.5,0.3C148.3,95.7,149.8,112.2,171.6,113z"
		/>
	<path class="st69" d="M167.2,106.9c-3.3-1.1-6.8-2.6-9.9-4.3c-2.6-1.4-5.1-3-6.7-5.5c1,3.8,5,12.9,20.3,13.8l7.6-6.7
		C175,105.7,171.1,108.2,167.2,106.9z"/>
	<path class="st70" d="M171.2,116.9c0,0-19.8-0.5-26.9-20v11c0.5,0.7,0.9,1.4,1.3,1.9c1.4,2.1,2.7,4.2,4.6,5.9
		c2.2,2.1,4.5,3.6,6.1,6.4c1.8,3.2,3.1,6.1,4.2,9.6c0.6,2,1,4.1,1.3,6.3c3,1.7,6.5,3.4,10.7,5L171.2,116.9z"/>
	<path class="st71" d="M174.1,101c3.2-0.6,6.2-3.2,7-6.3c0.3-1.3,0.3-2.8,0-4.3c-6,0.7-12.3,1.6-18,2.4c0,1.7,0.5,3.3,1.1,4.3
		C166,100.7,170.4,101.7,174.1,101z"/>
	<g>
		<path class="st72" d="M177.1,85.9c-3.7,1.1-5.2-0.7-7.8,0.1c-6.7,2.6-5.4,8.5-4.1,11.1c1.8,3.5,6.2,4.5,9.9,3.9
			c3.2-0.6,6.2-3.2,7-6.3C183.2,90.8,181.1,84.7,177.1,85.9z"/>
		<path class="st73" d="M178.6,85.8c0,0.1,0,0.2,0.1,0.2c0,0,0,0.1,0,0.1c0,0.9,0,1.9,0,2.8c-0.1,0.2-0.1,0.3-0.2,0.5
			c-1.3,2.2-4.5,1.8-6.8,2.4c-1.2,0.3-1.9,1-2.2,1.9c-1.5,1.8-1.6,4.5-0.6,6.7c1.9,0.8,4.2,1,6.3,0.6c3.2-0.6,6.2-3.2,7-6.3
			C183,91.3,181.6,86.3,178.6,85.8z"/>
		<path class="st73" d="M177,88.3c0-1-1.4-1.1-1.9-0.5c-0.2,0.2-0.8,0.2-1.1,0.2c-0.1,0-0.4-0.1-0.5-0.2c-0.3-0.1-0.5-0.2-0.8-0.2
			c-0.9,0-1.1,1-1,1.7c0.1,0.3,0.4,0.6,0.7,0.8c0.3,0.2,1,0.3,1.3,0.3c0.7,0,1.4,0,2-0.3C176.6,90.1,177,89.1,177,88.3z"/>
		<path class="st74" d="M175.6,88.6c-0.2-0.3-0.6-0.4-0.9-0.2c-0.1,0-0.2,0.1-0.3,0.2c0,0-0.1,0-0.1,0c-0.1,0-0.2,0-0.3,0
			c0,0,0,0-0.1,0c-0.6-0.5-1.6,0.4-0.9,1c0.2,0.2,0.5,0.3,0.8,0.4c0.2,0.1,0.3,0.1,0.5,0.1c0.4-0.1,0.7,0,1-0.2
			C175.8,89.6,175.9,88.9,175.6,88.6z"/>
		<path class="st74" d="M182.1,94.7c0.5-2,0.2-4.6-0.7-6.5c-0.1,3.9-0.5,7.1-4.5,9.7c-1.7,1.1-4.2,2.5-6.2,2.7
			c-0.3,0-0.6,0.1-0.9,0.1c1.7,0.5,3.6,0.6,5.3,0.3C178.4,100.4,181.3,97.8,182.1,94.7z"/>
		<path class="st75" d="M168.2,91.6c0,0.3-0.2,0.5-0.4,0.5c-0.2,0-0.4-0.2-0.4-0.5c0-0.3,0.2-0.5,0.4-0.5
			C168,91.1,168.2,91.3,168.2,91.6z"/>
		<path class="st76" d="M167.2,95.9c0.3,0.6,0.9,0.5,0.8-0.1c0,0,0,0,0,0c-0.1-0.3-0.2-0.7-0.2-1.1c-0.3-2.4,0.5-4,2.9-3.6
			c0.7,0.1,3.4,0.4,1.5-0.2c-0.4-0.1-0.8-0.3-1.1-0.5c-0.7-0.4-1.1-0.5-1.3-1.2c-0.4-1.3,0.6-1.8,2-2c0.1,0,0.9,0.1,1.1-0.1
			c0.1-0.1,0.4-0.7-0.6-0.7c-1.2,0-2.1-0.3-3.3,0.3C164,89.3,167.1,95.9,167.2,95.9z"/>
		<path class="st77" d="M168.3,75.4c-1.5-0.7-4-0.2-5,1.1c-0.9,1.3-1.1,3.2,0.1,4.3c0.3,0.3,0.8-0.2,0.5-0.5c-1.8-1.4,0.1-4.2,2-4.4
			c2.4-0.2,4.1,1.1,5.4,2.9c2.1,2.9,2.7,6.9,2.8,10.5c0,0.4,0.7,0.4,0.7,0C174.7,84.2,173.4,77.8,168.3,75.4z"/>
	</g>
	<path class="st68" d="M183.7,95c-0.8,0.7-1.7,1.5-2.6,2.2c-1.7,0.3-4-0.1-5.2,0.2c-1.1,0.3-2.2,0.3-3.3,0.7c-1.1,0.4-2.2,1-3.3,1.5
		c-1.7-0.1-3.4-0.2-4.7,1.1c-0.6,0.5-0.7,1.5-0.3,2.2c1,1.5,2.7,1.7,4.4,1.7c1.1,0,2-0.4,3.1-0.4c1,0.1,2.3,0.1,3.3-0.2
		c2.8-0.8,5.2-2,7.4-3.5c1.9-0.5,3.5-1.5,4.1-3.7C187.2,94.9,185,93.8,183.7,95z"/>
	<polygon class="st63" points="204.6,87.6 204.6,89.1 171.3,118.9 171.2,116.9 	"/>
	<path class="st78" d="M167.4,89.4c-0.3,0.9-0.4,1.8,0,1.9c0.3,0.1,0.9-0.5,1.2-1.5c0.3-0.9,0.4-1.8,0-1.9
		C168.3,87.9,167.8,88.5,167.4,89.4z"/>
	<g>
		<g>
			<path class="st79" d="M156.4,97.8c-0.1,0.1-0.4,0.1-0.5,0l-1.8-1.8c-0.1-0.1-0.1-0.4,0-0.5c0.1-0.1,0.4-0.1,0.5,0l1.8,1.8
				C156.6,97.4,156.6,97.7,156.4,97.8z"/>
			<path class="st80" d="M154.3,95.7c-0.1-0.1-0.2-0.2-0.3-0.2c-0.1,0.1,0,0.3,0.1,0.4l1.8,1.8c0.1,0.1,0.2,0.1,0.4,0.1
				c0-0.1,0-0.2-0.1-0.4L154.3,95.7z"/>
		</g>
		<g>
			<path class="st79" d="M162.3,99.6c-0.1,0.2-0.3,0.3-0.5,0.3l-2.5-0.7c-0.2-0.1-0.3-0.3-0.3-0.5c0.1-0.2,0.3-0.3,0.5-0.3l2.5,0.7
				C162.2,99.2,162.3,99.4,162.3,99.6z"/>
			<path class="st80" d="M159.4,98.9c-0.1,0-0.3,0-0.3,0c0,0.2,0.1,0.3,0.3,0.3l2.5,0.7c0.1,0,0.3,0,0.4-0.1c0-0.1-0.1-0.2-0.3-0.2
				L159.4,98.9z"/>
		</g>
		<g>
			<path class="st79" d="M161.5,94.9c0.1,0.2-0.1,0.4-0.3,0.5l-2.5,0.7c-0.2,0.1-0.4-0.1-0.5-0.3c-0.1-0.2,0.1-0.4,0.3-0.5l2.5-0.7
				C161.2,94.6,161.4,94.7,161.5,94.9z"/>
			<path class="st80" d="M158.6,95.7c-0.1,0-0.2,0.1-0.3,0.2c0.1,0.1,0.2,0.2,0.4,0.2l2.5-0.7c0.1,0,0.2-0.1,0.3-0.3
				c-0.1-0.1-0.2-0.1-0.4,0L158.6,95.7z"/>
		</g>
		<g>
			<path class="st79" d="M166.6,100.9c0.1,0.2,0.1,0.4-0.1,0.5l-2,1.6c-0.2,0.1-0.4,0.1-0.5-0.1c-0.1-0.2-0.1-0.4,0.1-0.5l2-1.6
				C166.3,100.7,166.5,100.7,166.6,100.9z"/>
			<path class="st80" d="M164.3,102.7c-0.1,0.1-0.2,0.2-0.2,0.3c0.1,0.1,0.3,0.1,0.4,0l2-1.6c0.1-0.1,0.2-0.2,0.1-0.4
				c-0.1,0-0.2,0-0.4,0.1L164.3,102.7z"/>
		</g>
		<g>
			<path class="st79" d="M171.1,101.4c0.2-0.1,0.4-0.1,0.5,0.1l1.3,2.2c0.1,0.2,0.1,0.4-0.1,0.5c-0.2,0.1-0.4,0.1-0.5-0.1l-1.3-2.2
				C170.8,101.8,170.9,101.6,171.1,101.4z"/>
			<path class="st80" d="M172.6,104c0.1,0.1,0.2,0.2,0.2,0.2c0.1-0.1,0.1-0.3,0-0.4l-1.3-2.2c-0.1-0.1-0.2-0.2-0.3-0.2
				c0,0.1,0,0.2,0.1,0.4L172.6,104z"/>
		</g>
		<g>
			<path class="st79" d="M176.5,99.9c0.1-0.2,0.3-0.3,0.5-0.2l2.4,1c0.2,0.1,0.3,0.3,0.2,0.5c-0.1,0.2-0.3,0.3-0.5,0.2l-2.4-1
				C176.5,100.3,176.4,100.1,176.5,99.9z"/>
			<path class="st80" d="M179.2,101.1c0.1,0.1,0.2,0.1,0.3,0c0-0.2-0.1-0.3-0.2-0.4l-2.4-1c-0.1-0.1-0.3,0-0.4,0.1
				c0,0.1,0.1,0.2,0.3,0.3L179.2,101.1z"/>
		</g>
		<g>
			<path class="st79" d="M183.6,95.6c-0.1-0.2,0-0.4,0.2-0.5l2.4-0.9c0.2-0.1,0.4,0,0.5,0.2c0.1,0.2,0,0.4-0.2,0.5l-2.4,0.9
				C183.9,95.9,183.7,95.8,183.6,95.6z"/>
			<path class="st80" d="M186.4,94.6c0.1,0,0.2-0.1,0.3-0.2c-0.1-0.1-0.3-0.2-0.4-0.1l-2.4,0.9c-0.1,0-0.2,0.2-0.2,0.3
				c0.1,0.1,0.2,0.1,0.4,0L186.4,94.6z"/>
		</g>
		<g>
			<path class="st79" d="M186.1,91c0-0.2,0.2-0.4,0.4-0.3l2.6,0.2c0.2,0,0.4,0.2,0.3,0.4c0,0.2-0.2,0.4-0.4,0.3l-2.6-0.2
				C186.3,91.4,186.1,91.2,186.1,91z"/>
			<path class="st80" d="M189.1,91.1c0.1,0,0.3,0,0.3-0.1c0-0.1-0.2-0.3-0.3-0.3l-2.6-0.2c-0.1,0-0.3,0.1-0.3,0.2
				c0,0.1,0.2,0.2,0.3,0.2L189.1,91.1z"/>
		</g>
	</g>
	<path class="st81" d="M188.4,116c0,0.6-0.5,1.1-1.1,1.1s-1.1-0.5-1.1-1.1c0-0.6,0.5-1.1,1.1-1.1S188.4,115.4,188.4,116z"/>
	<path class="st81" d="M189.7,113c0,0.3-0.2,0.5-0.5,0.5c-0.3,0-0.5-0.2-0.5-0.5c0-0.3,0.2-0.5,0.5-0.5
		C189.4,112.5,189.7,112.7,189.7,113z"/>
	<path class="st81" d="M197.8,107.6c0,0.3-0.2,0.5-0.5,0.5c-0.3,0-0.5-0.2-0.5-0.5c0-0.3,0.2-0.5,0.5-0.5
		C197.5,107.1,197.8,107.3,197.8,107.6z"/>
	<path class="st82" d="M173.5,108.7c-0.4,0.2-0.8,0.3-1.1,0.4c-2,0.7-10.1-1.1-11.9-2c-1.9-0.9-4.2-1.7-5.7-3.2
		c-0.1-0.1-0.2-0.1-0.3,0c2.9,3.3,8,6.4,16.6,7L173.5,108.7z"/>
</g>
<g>
	<path class="st66" d="M175.2,121.4c-15.4,0-27.9,12.6-27.9,28.2c0,15.6,12.5,28.2,27.9,28.2c15.4,0,27.9-12.6,27.9-28.2
		C203.1,134.1,190.6,121.4,175.2,121.4z M175.2,158.8c-5.4,0-9.8-4.1-9.8-9.2c0-5,4.4-9.2,9.8-9.2c5.4,0,9.8,4.1,9.8,9.2
		C185,154.7,180.6,158.8,175.2,158.8z"/>
	<linearGradient id="SVGID_16_" gradientUnits="userSpaceOnUse" x1="143.7591" y1="148.1142" x2="206.6009" y2="148.1142">
		<stop  offset="0" style="stop-color:#CBFFEC"/>
		<stop  offset="1" style="stop-color:#05B0AB"/>
	</linearGradient>
	<path class="st83" d="M175.2,117.5c-17.3,0-31.4,14.4-31.4,32.1c0,6.3,1.7,16.8,4.9,17.3c1.4,0.2,2.6-5.8,7.8-1
		c5.3,4.8,2.4-2.1,5.7-1.9c3.3,0.2,2.2,2.7,2.7,5.6c0.5,2.9,1.6,7.6,4.2,7.5c2.6-0.1,3.8-5.1,5.8-4.9c2,0.2,2.2,6.6,5.1,6.6
		c2.9,0,4.3-7,8-9.1c3.6-2.1,5.5,0.2,6.7,1.5c2.3,2.7,6.9-4.3,7.3-4.9c2.8-4.8,4.5-10.5,4.5-16.5
		C206.6,131.9,192.5,117.5,175.2,117.5z M175.2,162.8c-8,0-14.5-5.9-14.5-13.1c0-2.8,1-5.4,2.6-7.5l0,0c0,0,2.8,6.5,5.7,3.8
		c2.9-2.6,1.1-4.6,2.8-7.8c0.5-0.9,0.3-1.6,1.8-1.5c0.8,0,1.3,1.2,1.6,1.5c0.5,0.5,0.5,4.6,4.2,6.1c3.7,1.5,7.2-2.6,7.2-2.6l0,0
		c1.9,2.2,3.1,5,3.1,8.1C189.7,156.9,183.2,162.8,175.2,162.8z"/>
	<linearGradient id="SVGID_17_" gradientUnits="userSpaceOnUse" x1="144.9499" y1="148.114" x2="205.4095" y2="148.114">
		<stop  offset="0" style="stop-color:#A7E8CF"/>
		<stop  offset="1" style="stop-color:#86EBEB"/>
	</linearGradient>
	<path class="st84" d="M180.1,177.5c-0.8,0-1.5-1.7-2-3c-0.7-1.7-1.4-3.5-3-3.6c-0.1,0-0.2,0-0.2,0c-1.5,0-2.5,1.4-3.5,2.7
		c-0.7,1-1.6,2.2-2.3,2.2l0,0c-0.6,0-1.9-0.6-3-6.5c-0.1-0.7-0.2-1.4-0.2-2c-0.1-1.8-0.2-4.4-3.7-4.5c-0.1,0-0.1,0-0.2,0
		c-2.2,0-2.7,2-3,3c0,0.2-0.1,0.3-0.1,0.5c-0.3-0.2-0.8-0.5-1.7-1.3c-1.6-1.5-3-2.2-4.4-2.2c-1.9,0-3.1,1.4-3.9,2.3
		c-0.1,0.2-0.3,0.4-0.4,0.5c-1.6-0.9-3.7-8.5-3.7-16c0-17.1,13.6-31,30.2-31c16.7,0,30.2,13.9,30.2,31c0,5.6-1.5,11.1-4.3,15.9
		c-1.6,2.4-3.9,5-5,5l0,0c-0.1,0-0.2,0-0.4-0.2l-0.1-0.1c-0.9-1-2.4-2.7-4.8-2.7c-1.1,0-2.2,0.3-3.4,1c-2,1.2-3.4,3.5-4.6,5.5
		C182,175.7,180.9,177.5,180.1,177.5z M163.3,141c-0.4,0-0.7,0.2-0.9,0.5c-1.9,2.4-2.9,5.3-2.9,8.3c0,7.9,7.1,14.3,15.7,14.3
		c8.7,0,15.7-6.4,15.7-14.3c0-3.2-1.2-6.3-3.4-8.8c-0.2-0.3-0.6-0.4-0.9-0.4l0,0c-0.3,0-0.7,0.2-0.9,0.4c0,0-2.2,2.5-4.7,2.5
		c-0.4,0-0.8-0.1-1.2-0.2c-2.2-0.9-2.8-2.9-3.2-4.3c-0.2-0.7-0.3-1.2-0.7-1.5c0,0-0.1-0.1-0.2-0.2c-0.4-0.6-1.1-1.6-2.2-1.6
		c-0.1,0-0.2,0-0.3,0c-1.9,0-2.3,1.1-2.5,1.7c-0.1,0.2-0.1,0.3-0.2,0.4c-0.9,1.6-1,2.9-1,4c-0.1,1.4-0.2,2.3-1.5,3.5
		c-0.4,0.3-0.6,0.3-0.7,0.3c-1,0-2.4-2.2-3.1-3.7c-0.2-0.4-0.5-0.7-0.9-0.7C163.4,141,163.3,141,163.3,141z"/>
	<linearGradient id="SVGID_18_" gradientUnits="userSpaceOnUse" x1="147.2642" y1="149.5835" x2="203.0972" y2="149.5835">
		<stop  offset="4.405290e-03" style="stop-color:#B3FFE1"/>
		<stop  offset="0.2027" style="stop-color:#A4F6DC"/>
		<stop  offset="0.5829" style="stop-color:#7DDECF"/>
		<stop  offset="1" style="stop-color:#4CBFBE"/>
	</linearGradient>
	<path class="st85" d="M203.1,149.7c0-15.6-12.5-28.2-27.9-28.2c-15.4,0-27.9,12.6-27.9,28.2c0,5.4,1.5,10.5,4.2,14.9
		c1.1-0.7,2.7-0.8,5.1,1.4c5.3,4.8,2.4-2.1,5.7-1.9c3.3,0.2,2.2,2.7,2.7,5.6c0.5,2.9,1.6,7.6,4.2,7.5c2.6-0.1,3.8-5.1,5.8-4.9
		c1.5,0.1,2,3.8,3.4,5.6c1.5-0.2,2.9-0.4,4.2-0.8c1.6-2.2,3-5.9,5.5-7.3c3-1.8,4.8-0.5,6,0.8C199.7,165.2,203.1,157.9,203.1,149.7z
		 M175.2,162.8c-8,0-14.5-5.9-14.5-13.1c0-2.8,1-5.4,2.6-7.5c0,0,2.8,6.5,5.7,3.8c2.9-2.6,1.1-4.6,2.8-7.8c0.5-0.9,0.3-1.6,1.8-1.5
		c0.8,0,1.3,1.2,1.6,1.5c0.5,0.5,0.5,4.6,4.2,6.1c3.7,1.5,7.2-2.6,7.2-2.6c1.9,2.2,3.1,5,3.1,8.1
		C189.7,156.9,183.2,162.8,175.2,162.8z"/>
	<path class="st86" d="M175,172.1c2,0.2,2.2,6.6,5.1,6.6c2.9,0,4.3-7,8-9.1c3.6-2.1,5.5,0.2,6.7,1.5c2.3,2.7,6.9-4.3,7.3-4.9
		c2.8-4.8,4.5-10.5,4.5-16.5c0-2.3-0.2-4.5-0.7-6.6c-5.7,9.7-23.2,31.2-61.2,16c0.8,4.1,2.2,7.6,4,7.9c1.4,0.2,2.6-5.8,7.8-1
		c5.3,4.8,2.4-2.1,5.7-1.9c3.3,0.2,2.2,2.7,2.7,5.6c0.5,2.9,1.6,7.6,4.2,7.5C171.7,177,173,171.9,175,172.1z"/>
	<linearGradient id="SVGID_19_" gradientUnits="userSpaceOnUse" x1="158.2607" y1="149.715" x2="192.098" y2="149.715">
		<stop  offset="0" style="stop-color:#72E8BD"/>
		<stop  offset="1" style="stop-color:#05B0AB"/>
	</linearGradient>
	<path class="st87" d="M175.2,165.2c9.3,0,16.9-7,16.9-15.5c0-3.5-1.3-6.9-3.7-9.6l-1.8-2.1l-1.8,2.1c-0.5,0.5-2.2,2.1-3.8,2.1
		c-0.3,0-0.5,0-0.8-0.1c-1.5-0.6-2-1.9-2.4-3.5c-0.2-0.7-0.4-1.4-0.9-2c0,0-0.1-0.1-0.1-0.1c-0.5-0.7-1.4-2.1-3.2-2.2
		c-0.1,0-0.2,0-0.3,0c-2.7,0-3.4,1.8-3.6,2.5c0,0.1-0.1,0.2-0.1,0.3c-1,1.8-1.1,3.4-1.2,4.5c-0.1,1.2-0.1,1.8-1,2.6
		c-0.6-0.4-1.5-1.8-2-2.9l-1.6-3.7l-2.5,3.2c-2.1,2.6-3.2,5.7-3.2,9C158.3,158.2,165.9,165.2,175.2,165.2z M163.3,142.1
		c0,0,2.8,6.5,5.7,3.8c2.9-2.6,1.1-4.6,2.8-7.8c0.5-0.9,0.3-1.6,1.8-1.5c0.8,0,1.3,1.2,1.6,1.5c0.5,0.5,0.5,4.6,4.2,6.1
		c3.7,1.5,7.2-2.6,7.2-2.6c1.9,2.2,3.1,5,3.1,8.1c0,7.2-6.5,13.1-14.5,13.1c-8,0-14.5-5.9-14.5-13.1
		C160.6,146.9,161.6,144.3,163.3,142.1z"/>
	<g>
		<path class="st88" d="M202.1,166.2c1.1-1.9,2-3.8,2.7-5.9c-3.1,4.3-7,7.3-11.3,9.5c0.5,0.4,1,0.9,1.3,1.4
			C197.1,173.8,201.7,166.8,202.1,166.2z"/>
		<path class="st88" d="M169.1,177.1c1.3,0,2.3-1.4,3.1-2.6c-2.1,0-4.2,0-6.1-0.1C166.9,175.9,167.8,177.1,169.1,177.1z"/>
		<path class="st88" d="M180.1,178.7c2,0,3.3-3.2,5-5.9c-2.8,0.7-5.7,1.1-8.4,1.4C177.5,176.1,178.2,178.7,180.1,178.7z"/>
	</g>
	<path class="st89" d="M155.9,128.3c-3.8,2.2-7.2,7.4-7.8,12.9c-0.1,0.7,1.1,0.8,1.4,0.2c1.9-3.4,5.5-8.3,7.3-11.7
		c0-0.1,0.1-0.1,0.1-0.2C157.4,128.9,156.7,127.9,155.9,128.3z"/>
	<ellipse class="st89" cx="147.7" cy="149.2" rx="1.3" ry="3.1"/>
	<path class="st90" d="M164.5,132.8c-1,0.9-2.1,1.3-2.4,0.9c-0.4-0.4,0.1-1.5,1.1-2.4c1-0.9,2.1-1.3,2.4-0.9
		C166,130.8,165.5,131.9,164.5,132.8z"/>
	<path class="st90" d="M171.5,169.9c-1.2,0.5-2.4,0.5-2.6,0c-0.2-0.5,0.6-1.3,1.8-1.9c1.2-0.5,2.4-0.5,2.6,0
		C173.6,168.5,172.8,169.4,171.5,169.9z"/>
	<path class="st90" d="M155.6,158.2c-1,0.4-2,0.4-2.3-0.1c-0.2-0.5,0.4-1.3,1.5-1.7c1-0.4,2-0.4,2.3,0.1
		C157.3,157,156.6,157.8,155.6,158.2z"/>
	<path class="st90" d="M179.8,126.9c-1.1-0.3-1.9-0.9-1.7-1.5c0.1-0.5,1.1-0.8,2.2-0.5c1.1,0.3,1.9,0.9,1.7,1.5
		C181.9,126.9,180.9,127.2,179.8,126.9z"/>
	<path class="st91" d="M155.6,145.2c-1,0.4-2,0.4-2.3-0.1c-0.2-0.5,0.4-1.3,1.5-1.7c1-0.4,2-0.4,2.3,0.1
		C157.3,144,156.6,144.8,155.6,145.2z"/>
	<path class="st91" d="M171.4,128c-1.1,0.2-2.1,0-2.2-0.5c-0.1-0.5,0.7-1.2,1.8-1.4c1.1-0.2,2.1,0,2.2,0.5
		C173.2,127.1,172.5,127.7,171.4,128z"/>
	<path class="st91" d="M191.2,137c-1.1-0.4-1.7-1.1-1.6-1.6c0.2-0.5,1.2-0.6,2.3-0.2c1.1,0.4,1.7,1.1,1.6,1.6
		C193.2,137.3,192.2,137.4,191.2,137z"/>
	<path class="st91" d="M195.1,155.9c-1.1-0.4-1.7-1.1-1.6-1.6s1.2-0.6,2.3-0.2c1.1,0.4,1.7,1.1,1.6,1.6
		C197.2,156.1,196.1,156.3,195.1,155.9z"/>
	<path class="st92" d="M183.5,131.5c0,0.7-1.2,1.3-2.7,1.3s-2.7-0.6-2.7-1.3c0-0.7,1.2-1.3,2.7-1.3S183.5,130.8,183.5,131.5z"/>
	<path class="st92" d="M200.1,146.1c0,0.7-1.2,1.3-2.7,1.3c-1.5,0-2.7-0.6-2.7-1.3c0-0.7,1.2-1.3,2.7-1.3
		C198.9,144.8,200.1,145.4,200.1,146.1z"/>
	<path class="st92" d="M155.2,151c0,0.7-0.8,1.3-1.7,1.3c-1,0-1.7-0.6-1.7-1.3c0-0.7,0.8-1.3,1.7-1.3
		C154.4,149.7,155.2,150.3,155.2,151z"/>
	<path class="st92" d="M182.6,167.6c0,0.7-0.8,1.3-1.7,1.3c-1,0-1.7-0.6-1.7-1.3c0-0.7,0.8-1.3,1.7-1.3
		C181.8,166.4,182.6,166.9,182.6,167.6z"/>
	<path class="st92" d="M166.2,126.8c0,0.7-0.8,1.3-1.7,1.3c-1,0-1.7-0.6-1.7-1.3c0-0.7,0.8-1.3,1.7-1.3
		C165.4,125.5,166.2,126.1,166.2,126.8z"/>
	<path class="st93" d="M159.6,137.3c0,0.6-0.7,1-1.5,1s-1.5-0.5-1.5-1c0-0.6,0.7-1,1.5-1S159.6,136.7,159.6,137.3z"/>
	<path class="st93" d="M190.6,130.2c0,0.6-0.7,1-1.5,1c-0.8,0-1.5-0.5-1.5-1c0-0.6,0.7-1,1.5-1C190,129.2,190.6,129.7,190.6,130.2z"
		/>
	<path class="st93" d="M198.9,140.1c0,0.6-0.7,1-1.5,1c-0.8,0-1.5-0.5-1.5-1c0-0.6,0.7-1,1.5-1C198.2,139.1,198.9,139.6,198.9,140.1
		z"/>
	<path class="st93" d="M191.1,163.5c0,0.6-0.7,1-1.5,1c-0.8,0-1.5-0.5-1.5-1c0-0.6,0.7-1,1.5-1C190.4,162.4,191.1,162.9,191.1,163.5
		z"/>
	<path class="st93" d="M161.3,160.9c0,0.6-0.7,1-1.5,1c-0.8,0-1.5-0.5-1.5-1c0-0.6,0.7-1,1.5-1C160.6,159.9,161.3,160.3,161.3,160.9
		z"/>
</g>
<g>
	<g>
		<path class="st94" d="M199.1,47.4c0,13.5-10.2,24.5-22.9,24.5h-7.1c-12.6,0-22.9-11-22.9-24.5V41h52.8V47.4z"/>
		<path class="st66" d="M201.8,43.1c0,8.7-13.1,15.7-29.2,15.7c-16.1,0-29.2-7-29.2-15.7c0-8.7,13.1-15.7,29.2-15.7
			C188.8,27.4,201.8,34.4,201.8,43.1z"/>
		<path class="st95" d="M169.1,71.9h7.1c10.8,0,19.9-8.1,22.2-18.9c-1.5,0.1-2.7,1.8-3.5,4.4c-0.6-0.6-1.2-1-1.9-1
			c-1.4,0-2.7,1.6-3.5,4.1c-0.7-1.1-1.6-1.8-2.5-1.8c-1.7,0-3.2,2.2-3.9,5.5c-0.8-2.3-2-3.9-3.4-3.9c-1.5,0-2.8,1.7-3.6,4.3
			c-0.8-2.6-2.1-4.3-3.6-4.3c-1.7,0-3.1,2.1-3.8,5.2c-0.7-3.1-2.2-5.2-3.8-5.2c-1.4,0-2.6,1.5-3.4,3.9c-0.7-3.2-2.2-5.5-3.9-5.5
			c-0.9,0-1.8,0.7-2.5,1.8c-0.8-2.5-2.1-4.1-3.5-4.1c-0.7,0-1.3,0.4-1.9,1c-0.7-2.3-1.7-3.9-3-4.3C149.2,63.9,158.3,71.9,169.1,71.9
			z"/>
		<path class="st96" d="M154.9,62.8c0,1.2,0.1,2.2,0.3,2.2c0.2,0,0.3-1,0.3-2.2c0-1.2-0.1-2.2-0.3-2.2
			C155,60.5,154.9,61.5,154.9,62.8z"/>
		<path class="st96" d="M194.8,58.6c0,0.7,0.1,1.3,0.3,1.3c0.2,0,0.3-0.6,0.3-1.3c0-0.7-0.1-1.3-0.3-1.3
			C194.9,57.3,194.8,57.9,194.8,58.6z"/>
		<path class="st96" d="M149.5,58.6c0,0.7,0.1,1.3,0.3,1.3c0.2,0,0.3-0.6,0.3-1.3c0-0.7-0.1-1.3-0.3-1.3
			C149.7,57.3,149.5,57.9,149.5,58.6z"/>
		<path class="st96" d="M161.2,66.4c0,1.2,0.1,2.2,0.3,2.2c0.2,0,0.3-1,0.3-2.2c0-1.2-0.1-2.2-0.3-2.2
			C161.4,64.2,161.2,65.2,161.2,66.4z"/>
		<path class="st96" d="M168.5,67.9c0,1.3,0.1,2.4,0.3,2.4c0.2,0,0.3-1.1,0.3-2.4c0-1.3-0.1-2.4-0.3-2.4
			C168.7,65.4,168.5,66.5,168.5,67.9z"/>
		<path class="st96" d="M182.9,66.4c0,1.3,0.1,2.4,0.3,2.4c0.2,0,0.3-1.1,0.3-2.4c0-1.3-0.1-2.4-0.3-2.4
			C183,64,182.9,65.1,182.9,66.4z"/>
		<path class="st96" d="M189.4,62.8c0,1.3,0.1,2.4,0.3,2.4c0.2,0,0.3-1.1,0.3-2.4c0-1.3-0.1-2.4-0.3-2.4
			C189.5,60.3,189.4,61.4,189.4,62.8z"/>
		<path class="st96" d="M175.9,67.4c0,1.6,0.1,2.9,0.3,2.9c0.2,0,0.3-1.3,0.3-2.9c0-1.6-0.1-2.9-0.3-2.9
			C176.1,64.5,175.9,65.8,175.9,67.4z"/>
	</g>
	<path class="st97" d="M146.2,47.4c0,2.2,0.3,4.2,0.7,6.2c0.7-0.2,1.2-0.7,1.6-1.2c0.1-0.1,0.2-0.2,0.3-0.3c0.5-0.5,1-1,1.4-1.4
		c0.1-0.1,0.2-0.3,0.2-0.4c0-0.1,0.1-0.1,0.1-0.2c0.3,0.1,0.6,0.3,0.8,0.6c0,0.1,0,0.3,0,0.5c0,0.2-0.1,0.4-0.1,0.6
		c0,0.4,0,0.7,0.1,1.1c0,0.2,0.1,0.4,0.1,0.6c0.1,1.3,0.6,2.8,1,4c0.5,1.4,1.9,2.3,3.5,2.3c0.9,0,1.8-0.3,2.4-0.9
		c0.8-0.7,1.3-1.6,1.7-2.4c0.2-0.3,0.3-0.6,0.5-0.9c0.1-0.1,0.2-0.3,0.3-0.5c0.1-0.2,0.3-0.6,0.4-0.7c0,0,0.1,0,0.1,0
		c0.2,0,0.5,0.1,0.8,0.2c0.4,0.2,0.6,0.7,0.9,1.2l0.1,0.1c0.6,1.3,1.2,2.6,1.7,4c0.1,0.2,0.1,0.3,0.2,0.5c0.3,1,0.8,2.3,1.9,2.8
		c0.4,0.2,1,0.4,1.7,0.4c0.6,0,1.2-0.2,1.5-0.5c0.8-0.8,1.1-1.9,1.3-2.8c0.1-0.3,0.1-0.6,0.2-0.9c0.2-0.5,0.3-1,0.5-1.5
		c0.2-0.7,0.4-1.5,0.7-2.2c0,0,0,0,0,0c0,0,0.1,0,0.1,0c0,0.1,0,0.3,0,0.4c0,0.3-0.1,0.5-0.1,0.8c0.1,0.9,0.8,2.1,2,2.1
		c0,0,0.1,0,0.1,0c0.8-0.1,1.9-0.5,2.3-2.2c0.1-0.3,0.1-0.7,0.1-1c0-0.2,0-0.4,0-0.5c0.1-0.1,0.3-0.2,0.6-0.2c0.2,0,0.5,0,0.8,0.1
		c0.4,0.1,0.7,0.6,0.9,0.9c0.2,0.2,0.3,0.4,0.5,0.5c0.8,0.6,1.7,0.9,2.6,0.9c0.2,0,0.4,0,0.7-0.1c1.3-0.2,2.1-1.3,2.7-2.2
		c0.1-0.2,0.2-0.3,0.4-0.5c0.4-0.5,1.1-1.1,1.9-1.6c0.5-0.2,1-0.3,1.5-0.5l0.1,0c0.1,0,0.2,0,0.4,0c0.5,0,0.7,0.1,0.9,0.3
		c0.5,0.5,0.8,1.3,1.1,1.9c0,0.1,0.1,0.2,0.1,0.3c0.3,0.8,0.8,1.8,1.7,2.3c0.2,0.1,0.4,0.1,0.7,0.1c0.7,0,1.4-0.5,1.9-1.4
		c0.3-0.7,0.5-1.4,0.6-2c0.1-0.3,0.1-0.6,0.2-0.9c0.2-0.7,0.1-1.5,0.1-2.2c-0.1-0.8-0.1-1.6,0.2-2l0-0.1c0.1-0.2,0.2-0.3,0.3-0.4
		c0.1,0.2,0.1,0.4,0.2,0.6l0,0.2c0.1,0.5,0.3,0.9,0.5,1.3c0.1-1.1,0.2-2.2,0.2-3.3V41h-52.8V47.4z"/>
	<path class="st98" d="M202,38c-0.3-0.8-0.9-2.5-1-2.5c-3.1-6.8-14.6-11.9-28.4-11.9c-16.1,0-29.2,7-29.2,15.6
		c-0.2,0-0.1,1.6-0.1,2.2c0,0.6,0,1.2,0,1.9c0,1.5,0.1,3.1,0.2,4.7c0.1,1.7,0.4,4.7,2.6,5c1,0.1,1.7-0.7,2.3-1.3
		c0.5-0.4,0.9-0.8,1.2-1.3c0.2-0.2,0.4-0.9,0.8-0.9c0.6,0,1.3,0.5,1.7,1c0.3,0.4,0.1,1,0.1,1.6c0,0.5,0.1,1,0.2,1.6
		c0.1,1.2,0.5,2.6,0.9,3.8c0.6,1.8,3.2,2.3,4.6,1.1c0.9-0.8,1.4-2.2,2.1-3.2c0.3-0.5,0.6-1.5,1.3-1.6c0.5-0.1,1,0.1,1.5,0.3
		c0.7,0.3,1,1,1.3,1.7c0.7,1.3,1.2,2.7,1.8,4c0.4,0.9,0.7,2.5,1.7,2.9c0.6,0.3,1.8,0.5,2.3,0c0.9-0.9,0.9-2.2,1.3-3.4
		c0.4-1.3,0.8-2.6,1.2-3.9c0-0.1,0.4-0.5,0.5-0.5c0.3,0,0.7-0.2,1,0c0.5,0.4,0.1,1.4,0.2,2c0,0.6,0.5,1.4,1.2,1.4
		c0.9-0.1,1.3-0.8,1.6-1.6c0.2-0.6-0.1-1.5,0.4-1.9c0.6-0.5,1.5-0.4,2.2-0.2c0.9,0.3,1.4,1.4,1.6,1.5c0.8,0.6,1.7,0.8,2.7,0.7
		c1.1-0.2,1.9-1.6,2.5-2.4c0.5-0.6,1.3-1.3,2.2-1.8c0.6-0.2,1.1-0.4,1.6-0.6c0,0,0.1,0,0.1,0c0.8,0,1.5-0.1,2.1,0.6
		c0.6,0.6,0.9,1.4,1.3,2.2c0.3,0.7,0.7,1.8,1.4,2.1c0.6,0.3,1.2-0.4,1.4-0.8c0.4-0.9,0.5-1.9,0.7-2.8c0.4-1.4-0.4-3.3,0.4-4.5
		c0.2-0.3,1-1.6,1.6-0.7c0.3,0.4,0.4,0.9,0.5,1.4c0.1,0.6,0.4,1,0.6,1.5c0.3,0.6,1.1,1.1,1.6,0.6c0.8-0.7,0.7-2.2,0.9-3.1
		c0.3-1.3,0.6-2.4,0.6-3.7C203,43,202.2,38.6,202,38z"/>
	<path class="st99" d="M199.8,37.5c0,7.6-12.2,13.7-27.2,13.7c-15,0-27.2-6.1-27.2-13.7c0-7.6,12.2-13.7,27.2-13.7
		C187.7,23.8,199.8,29.9,199.8,37.5z"/>
	<path class="st100" d="M201,35.5c-3.1-6.8-14.6-11.9-28.4-11.9c-4,0-7.8,0.4-11.3,1.2c2.4,0.9,5,2.1,7.2,3.4
		c1.4,0.8,2.6,2.1,3.8,3.1c1.3,1.1,2.6,2.1,3.8,3.3c2.1,1.9,4,4.7,5.1,7.3c1,2.4,1.6,4.9,2.6,7.3c0.7,1.7,1.4,3.3,2.4,4.8
		c0.5-0.5,1.2-1.1,1.9-1.5c0.6-0.2,1.1-0.4,1.6-0.6c0,0,0.1,0,0.1,0c0.8,0,1.5-0.1,2.1,0.6c0.6,0.6,0.9,1.4,1.3,2.2
		c0.3,0.7,0.7,1.8,1.4,2.1c0.6,0.3,1.2-0.4,1.4-0.8c0.4-0.9,0.5-1.9,0.7-2.8c0.4-1.4-0.4-3.3,0.4-4.5c0.2-0.3,1-1.6,1.6-0.7
		c0.3,0.4,0.4,0.9,0.5,1.4c0.1,0.6,0.4,1,0.6,1.5c0.3,0.6,1.1,1.1,1.6,0.6c0.8-0.7,0.7-2.2,0.9-3.1c0.3-1.3,0.6-2.4,0.6-3.7
		c0-1.5-0.8-5.9-1-6.6C201.7,37.2,201.1,35.4,201,35.5z"/>
	<path class="st101" d="M159.6,53.8C159.6,53.8,159.7,53.8,159.6,53.8C159.7,53.8,159.7,53.7,159.6,53.8c0-0.1,0-0.1,0-0.1
		c0,0,0,0,0-0.1c0,0,0,0,0,0c0,0,0,0,0-0.1c0,0,0,0,0,0c0,0,0,0-0.1-0.1c0,0,0,0,0,0c0,0-0.1,0-0.1,0c0,0,0,0,0,0c0,0,0,0,0,0
		c0,0-0.1,0-0.1,0c0,0,0,0,0,0c0,0,0,0,0,0c-0.1,0.1-0.3,0.3-0.4,0.4c0,0,0,0,0,0c0,0,0,0.1-0.1,0.1c-0.1,0.1-0.2,0.3-0.3,0.4
		c0,0,0,0.1-0.1,0.1c-0.1,0.3-0.3,0.6-0.4,0.9c-0.2,0.3-0.4,0.7-0.8,1c-0.3,0.3-0.8,0.6-1.3,0.5c-0.5-0.1-0.9-0.6-1.1-1.1
		c-0.3-0.5-0.5-1.1-0.5-1.7c0-0.3,0-0.6,0-1c0-0.3-0.1-0.7-0.2-1c-0.2-0.7-0.3-1.4-0.5-2.1c-0.1-0.4-0.2-0.7-0.4-1.1
		c-0.1-0.4-0.4-0.7-0.7-1c-0.6-0.5-1.5-0.9-2.4-0.8c-0.4,0-0.9,0.2-1.3,0.4l-0.1,0.1l0,0c0,0,0,0,0,0l0,0l-0.1,0.1l-0.2,0.2
		c-0.1,0.1-0.3,0.3-0.4,0.4c-0.3,0.3-0.6,0.7-0.7,0.7c-0.1,0-0.1,0-0.2-0.1c-0.1-0.1-0.2-0.3-0.2-0.4c-0.1-0.2-0.1-0.3-0.1-0.5
		l-0.1-0.6c-0.1-0.2-0.1-0.5-0.2-0.7c0,0-0.1-0.2-0.1-0.3c0-0.1,0-0.1,0-0.2c0-0.4,0-0.8,0-1.2l0,0c0-0.2,0-0.1,0-0.1l0,0
		c0,0,0,0,0-0.1c0-0.1,0-0.1-0.1-0.2c0,0-0.1-0.1-0.1-0.1c0,0-0.1,0-0.1-0.1c-0.1,0-0.1-0.1-0.2-0.1c-0.1,0-0.3,0-0.4,0.1
		c-0.1,0.1-0.3,0.3-0.3,0.4c0,0,0,0.1,0,0.1c0,0,0,0,0,0l0,0.1l0,0.2l0,0.3c0,0.4,0,0.9,0.1,1.4c0.1,0.4,0.3,0.8,0.3,1.2l0.1,0.6
		c0,0.1,0.1,0.3,0.1,0.4c0.1,0.1,0.1,0.2,0.2,0.3c0.1,0.1,0.1,0.2,0.2,0.3c0.1,0.1,0.2,0.2,0.3,0.3c0.2,0.2,0.5,0.3,0.8,0.3
		c0.2,0,0.2,0,0.4-0.1c0.2,0,0.3-0.1,0.4-0.2c0.2-0.1,0.4-0.3,0.6-0.4c0.3-0.3,0.6-0.7,0.8-0.9c0.1-0.1,0.3-0.3,0.4-0.4
		c0.1,0,0.1-0.1,0.2-0.1l0.1,0l0.1,0c0.2-0.1,0.3-0.1,0.5-0.1l0.2,0l0.2,0.1c0.6,0.2,1.1,0.9,1.4,1.5c0.2,0.3,0.3,0.7,0.4,1
		c0,0.2,0.1,0.3,0.1,0.5c0,0.2,0.1,0.4,0.1,0.5c0.1,0.4,0.2,0.7,0.3,1c0.1,0.3,0.1,0.7,0.1,1c0,0.2,0,0.4,0.1,0.5
		c0,0.2,0.1,0.3,0.2,0.5c0.1,0.3,0.2,0.6,0.4,0.9c0.3,0.6,0.7,1.1,1.2,1.4c0.1,0.1,0.3,0.1,0.4,0.2c0.1,0,0.3,0.1,0.4,0.1
		c0.3,0,0.6-0.1,0.8-0.2c0.5-0.3,0.8-0.7,1-1c0.3-0.4,0.4-0.7,0.6-1.1C159,54.7,159.3,54.2,159.6,53.8
		C159.6,53.9,159.6,53.9,159.6,53.8C159.6,53.9,159.6,53.8,159.6,53.8C159.6,53.8,159.6,53.8,159.6,53.8
		C159.6,53.8,159.6,53.8,159.6,53.8z M159.3,54.2C159.3,54.2,159.3,54.2,159.3,54.2C159.3,54.2,159.3,54.2,159.3,54.2z"/>
	<path class="st101" d="M149.3,35.9c0-3,1.5-5.8,4.2-8.1c-5,2.5-8.1,5.9-8.1,9.7c0,7.5,12.2,13.7,27.2,13.7c0.7,0,1.3,0,2,0
		C160.5,50.5,149.3,43.9,149.3,35.9z"/>
	<path class="st102" d="M172.6,23.6c-11.6,0-21.7,3.7-26.4,8.9c2.9,2.2,7.2,3.1,10.2,4.6c2.7,1.3,15.4,3.5,15.6,1.3
		c0.6-5.2,2.6-9.9,3.7-14.8C174.8,23.6,173.7,23.6,172.6,23.6z"/>
	<g>
		<path class="st103" d="M173.1,10c-3.4-2.5-6.4-1.9-9.6,0.6c-3.4,2.7-3.2,7.7-4.7,11.5c-2.9-2.4-4.9-5.7-9.6-4.5
			c-4.9,1.3-6,5.8-4.8,10.1c1.6,5.5,8.6,6.4,13,8.5c2.7,1.3,15.4,3.5,15.6,1.3c0.7-6.1,3.3-11.5,4.3-17.5
			C177.8,16.7,175.8,12,173.1,10z"/>
		<path class="st104" d="M173.1,10c-0.3-0.2-0.6-0.4-0.9-0.6c0.8,2.1,1.2,4.5,1,6.4c-0.9,6.9-3.6,13.1-4.2,20.2
			c-0.2,2.5-13.9-0.3-16.8-1.9c-1.3-0.7-2.8-1.3-4.4-2c2.9,1.9,6.8,2.8,9.6,4.2c2.7,1.3,15.4,3.5,15.6,1.3
			c0.7-6.1,3.3-11.5,4.3-17.5C177.8,16.7,175.8,12,173.1,10z"/>
		<path class="st105" d="M156.6,24.5c-0.4-0.5-0.8-1-1.4-1.4c-0.2-0.7-0.7-1.3-1.5-1.6c-1.5-0.6-3.6-0.2-4.8,0.9
			c-2.2,1.6-2.1,5.2,0.7,6.4c0.6,0.3,1.1,0.8,1.6,1.2c0.6,0.4,1.2,0.6,1.9,0.9c1.3,0.5,3.4,0.8,4.4-0.3
			C159.3,28.9,158.2,26.1,156.6,24.5z"/>
		<path class="st106" d="M153.4,24.7c-0.2-0.2-0.4-0.5-0.7-0.7c-0.1-0.4-0.4-0.6-0.7-0.8c-0.7-0.3-1.8-0.1-2.4,0.4
			c-1.1,0.8-1,2.5,0.4,3.1c0.3,0.1,0.5,0.4,0.8,0.6c0.3,0.2,0.6,0.3,0.9,0.4c0.6,0.2,1.6,0.4,2.2-0.1
			C154.7,26.8,154.1,25.5,153.4,24.7z"/>
	</g>
	<path class="st99" d="M175.7,35.7c-1.1-0.3-1.9-0.8-3.1-0.8c-1.4,0-3,0.5-4.4,0.8c-1,0.2-1.7,0.6-2.6,1c-1.5,0.7-2.2,1.8-3.5,2.8
		c-0.2,0.2-0.3,0.4-0.2,0.6c-0.1,0.5,0.4,1,1,0.7c1.4-0.7,3.1-0.7,4.6-0.7c1.7,0,2.8-0.1,4.4-0.7c1.3-0.5,4.1-1.7,4.3-3.2
		C176.2,36,175.9,35.7,175.7,35.7z"/>
	<g>
		<path class="st102" d="M182.5,38.7c-0.4,1.3-2.7,1.7-5.2,1c-2.5-0.7-4.2-2.4-3.8-3.7c0.4-1.3,2.7-1.7,5.2-1
			C181.2,35.8,182.9,37.4,182.5,38.7z"/>
		<path class="st107" d="M182.2,38.2c-0.4,1.3-2.5,1.8-4.8,1.1c-2.3-0.7-3.8-2.3-3.4-3.5c0.4-1.3,2.5-1.8,4.8-1.1
			C181,35.3,182.5,36.9,182.2,38.2z"/>
		<path class="st108" d="M181,37.8c-0.3,1.1-2.1,1.4-4.1,0.9c-1.9-0.6-3.3-1.9-3-3c0.3-1.1,2.1-1.4,4.1-0.9
			C180,35.4,181.3,36.8,181,37.8z"/>
		<path class="st109" d="M178,36.9c-0.2,0.5-1,0.7-2,0.4c-1-0.3-1.6-0.9-1.4-1.4c0.2-0.5,1-0.7,2-0.4
			C177.5,35.8,178.2,36.4,178,36.9z"/>
	</g>
	<g>
		<path class="st102" d="M175.1,39.2c0.6,1.1-0.4,2.9-2.3,4c-1.9,1.1-3.9,1.1-4.6,0.1c-0.6-1.1,0.4-2.9,2.3-4
			C172.5,38.1,174.5,38.1,175.1,39.2z"/>
		<path class="st110" d="M175.1,39.2c0.6,1-0.4,2.5-2.1,3.5c-1.7,1-3.5,1-4.1,0.1c-0.6-1,0.4-2.5,2.1-3.5
			C172.7,38.3,174.5,38.3,175.1,39.2z"/>
		<path class="st111" d="M174.2,39.7c0.5,0.8-0.3,2.1-1.8,3c-1.5,0.9-3,0.9-3.5,0.1c-0.5-0.8,0.3-2.1,1.8-3
			C172.2,39,173.7,38.9,174.2,39.7z"/>
		<path class="st109" d="M172,41c0.2,0.4-0.2,1-0.9,1.4c-0.7,0.4-1.5,0.4-1.7,0.1c-0.2-0.4,0.2-1,0.9-1.4
			C171,40.6,171.8,40.6,172,41z"/>
	</g>
	<g>
		<g>
			<path class="st79" d="M158,40.4c-0.2,0.2-0.4,0.2-0.6,0l-1.9-1.9c-0.2-0.2-0.2-0.4,0-0.6c0.2-0.2,0.4-0.2,0.6,0l1.9,1.9
				C158.1,40,158.1,40.2,158,40.4z"/>
			<path class="st80" d="M155.7,38.2c-0.1-0.1-0.2-0.2-0.3-0.2c-0.1,0.1,0,0.3,0.1,0.4l1.9,1.9c0.1,0.1,0.3,0.1,0.4,0.1
				c0-0.1,0-0.2-0.2-0.4L155.7,38.2z"/>
		</g>
		<g>
			<path class="st79" d="M159.4,43.9c-0.1,0.2-0.3,0.3-0.5,0.3l-2.6-0.7c-0.2-0.1-0.3-0.3-0.3-0.5c0.1-0.2,0.3-0.3,0.5-0.3l2.6,0.7
				C159.3,43.5,159.4,43.7,159.4,43.9z"/>
			<path class="st80" d="M156.4,43.2c-0.1,0-0.3,0-0.3,0c0,0.2,0.1,0.3,0.3,0.3l2.6,0.7c0.1,0,0.3,0,0.4-0.1c0-0.1-0.1-0.2-0.3-0.2
				L156.4,43.2z"/>
		</g>
		<g>
			<path class="st79" d="M188.5,42.6c-0.1,0.2-0.3,0.3-0.5,0.3l-2.6-0.7c-0.2-0.1-0.3-0.3-0.3-0.5c0.1-0.2,0.3-0.3,0.5-0.3l2.6,0.7
				C188.5,42.1,188.6,42.4,188.5,42.6z"/>
			<path class="st80" d="M185.5,41.8c-0.1,0-0.3,0-0.3,0c0,0.2,0.1,0.3,0.3,0.3l2.6,0.7c0.1,0,0.3,0,0.4-0.1c0-0.1-0.1-0.2-0.3-0.2
				L185.5,41.8z"/>
		</g>
		<g>
			<path class="st79" d="M168.5,45.5c0.1,0.2-0.1,0.4-0.3,0.5l-2.6,0.7c-0.2,0.1-0.4-0.1-0.5-0.3c-0.1-0.2,0.1-0.4,0.3-0.5l2.6-0.7
				C168.2,45.1,168.4,45.3,168.5,45.5z"/>
			<path class="st80" d="M165.5,46.3c-0.1,0-0.2,0.1-0.3,0.2c0.1,0.1,0.3,0.2,0.4,0.2l2.6-0.7c0.1,0,0.2-0.2,0.3-0.3
				c-0.1-0.1-0.2-0.1-0.4,0L165.5,46.3z"/>
		</g>
		<g>
			<path class="st79" d="M166.5,40.7c0.1,0.2,0.1,0.4-0.1,0.5l-2.1,1.7c-0.2,0.1-0.4,0.1-0.5-0.1c-0.1-0.2-0.1-0.4,0.1-0.5l2.1-1.7
				C166.1,40.5,166.3,40.5,166.5,40.7z"/>
			<path class="st80" d="M164.1,42.6c-0.1,0.1-0.2,0.2-0.2,0.3c0.1,0.1,0.3,0.1,0.4,0l2.1-1.7c0.1-0.1,0.2-0.2,0.1-0.4
				c-0.1,0-0.2,0-0.4,0.1L164.1,42.6z"/>
		</g>
		<g>
			<path class="st79" d="M179,42.2c0.2-0.1,0.4-0.1,0.5,0.1l1.4,2.3c0.1,0.2,0.1,0.4-0.1,0.5c-0.2,0.1-0.4,0.1-0.5-0.1l-1.4-2.3
				C178.8,42.5,178.8,42.3,179,42.2z"/>
			<path class="st80" d="M180.7,44.8c0.1,0.1,0.2,0.2,0.3,0.2c0.1-0.1,0.1-0.3,0-0.4l-1.4-2.3c-0.1-0.1-0.2-0.2-0.4-0.2
				c-0.1,0.1,0,0.2,0.1,0.4L180.7,44.8z"/>
		</g>
		<g>
			<path class="st79" d="M176,30.6c0.1-0.2,0.3-0.3,0.5-0.2l2.5,1.1c0.2,0.1,0.3,0.3,0.2,0.5c-0.1,0.2-0.3,0.3-0.5,0.2l-2.5-1.1
				C176.1,31,176,30.8,176,30.6z"/>
			<path class="st80" d="M178.9,31.8c0.1,0.1,0.3,0.1,0.3,0c0-0.2-0.1-0.3-0.2-0.4l-2.5-1.1c-0.1-0.1-0.3,0-0.4,0.1
				c0,0.1,0.1,0.2,0.3,0.3L178.9,31.8z"/>
		</g>
		<g>
			<path class="st79" d="M173.7,45.2c0.1-0.2,0.3-0.3,0.5-0.2l2.5,1.1c0.2,0.1,0.3,0.3,0.2,0.5c-0.1,0.2-0.3,0.3-0.5,0.2l-2.5-1.1
				C173.7,45.7,173.7,45.4,173.7,45.2z"/>
			<path class="st80" d="M176.6,46.4c0.1,0.1,0.3,0.1,0.3,0c0-0.2-0.1-0.3-0.2-0.4l-2.5-1.1c-0.1-0.1-0.3,0-0.4,0.1
				c0,0.1,0.1,0.2,0.3,0.3L176.6,46.4z"/>
		</g>
		<g>
			<path class="st79" d="M185.6,37.5c-0.1-0.2,0-0.4,0.2-0.5l2.5-0.9c0.2-0.1,0.4,0,0.5,0.2c0.1,0.2,0,0.4-0.2,0.5l-2.5,0.9
				C185.9,37.8,185.6,37.7,185.6,37.5z"/>
			<path class="st80" d="M188.5,36.4c0.1,0,0.2-0.1,0.3-0.2c-0.1-0.1-0.3-0.2-0.4-0.1l-2.5,0.9c-0.1,0.1-0.2,0.2-0.3,0.3
				c0.1,0.1,0.2,0.1,0.4,0L188.5,36.4z"/>
		</g>
		<g>
			<path class="st79" d="M183.4,32.1c0-0.2,0.2-0.4,0.4-0.4l2.7,0.2c0.2,0,0.4,0.2,0.4,0.4c0,0.2-0.2,0.4-0.4,0.4l-2.7-0.2
				C183.6,32.5,183.4,32.3,183.4,32.1z"/>
			<path class="st80" d="M186.5,32.2c0.1,0,0.3,0,0.3-0.1c0-0.2-0.2-0.3-0.3-0.3l-2.7-0.2c-0.1,0-0.3,0.1-0.4,0.2
				c0,0.1,0.2,0.2,0.4,0.2L186.5,32.2z"/>
		</g>
	</g>
</g>
<g>
	<g>
		<g>
			<path class="st112" d="M111.2,103.6H57.8l4.6,21.6c0,1.3,0.6,3.3,4.7,5.1c4.6,2,10.8,3,17.4,3c6.6,0,12.8-1.1,17.4-3
				c4.1-1.7,4.7-3.8,4.7-5.1C106.7,125.1,111.2,103.6,111.2,103.6z"/>
			<linearGradient id="SVGID_20_" gradientUnits="userSpaceOnUse" x1="57.782" y1="118.0619" x2="111.2392" y2="118.0619">
				<stop  offset="0" style="stop-color:#EBBA68"/>
				<stop  offset="1" style="stop-color:#CB613D"/>
			</linearGradient>
			<path class="st113" d="M106.7,125.2c0-0.1,4.5-21.6,4.5-21.6H57.8l4.6,21.6c0,0.4,0.2,0.9,0.6,1.4c6.8-2.7,21.6-2.6,29.5,4.4
				c0.6,0.5,1.2,1,1.8,1.4c2.8-0.5,5.4-1.2,7.6-2.2C106.1,128.6,106.7,126.5,106.7,125.2z"/>
			<path class="st114" d="M84.9,103.6c0.4,0.2,0.8,0.4,1.2,0.5c9.9,3.3,11.7,25.1,11.2,27.4c0,0.1-0.1,0.2-0.1,0.3
				c1.7-0.4,3.3-1,4.8-1.6c4.1-1.7,4.7-3.8,4.7-5.1c0-0.1,4.5-21.6,4.5-21.6H84.9z"/>
			<g>
				<path class="st114" d="M66,114.3c0.3,5.2,0,7.5-0.8,7.6c-0.8,0.1-1.7-2.1-2.1-7.3c-0.3-5.2,0-9.5,0.8-9.6
					C64.7,104.9,65.6,109.1,66,114.3z"/>
				<path class="st114" d="M73.8,115.9c0.1,5.2-0.5,7.5-1.3,7.5c-0.8,0-1.5-2.2-1.6-7.4c-0.1-5.2,0.5-9.5,1.3-9.5
					C73.1,106.5,73.8,110.7,73.8,115.9z"/>
				<path class="st114" d="M81.7,117c0.1,5.2-0.5,7.5-1.3,7.5c-0.8,0-1.5-2.2-1.6-7.4c-0.1-5.2,0.5-9.5,1.3-9.5
					C80.9,107.5,81.6,111.8,81.7,117z"/>
				<path class="st115" d="M102.4,114.3c-0.3,5.2,0,7.5,0.8,7.6c0.8,0.1,1.7-2.1,2.1-7.3c0.4-5.2,0-9.5-0.8-9.6
					C103.7,104.9,102.7,109.1,102.4,114.3z"/>
				<path class="st115" d="M94.5,115.9c-0.1,5.2,0.5,7.5,1.3,7.5c0.8,0,1.5-2.2,1.6-7.4c0.1-5.2-0.5-9.5-1.3-9.5
					C95.3,106.5,94.6,110.7,94.5,115.9z"/>
				<path class="st114" d="M86.7,117c-0.1,5.2,0.5,7.5,1.3,7.5c0.8,0,1.5-2.2,1.6-7.4c0.1-5.2-0.5-9.5-1.3-9.5
					C87.4,107.5,86.7,111.8,86.7,117z"/>
			</g>
			<linearGradient id="SVGID_21_" gradientUnits="userSpaceOnUse" x1="57.3126" y1="102.1547" x2="111.7099" y2="102.1547">
				<stop  offset="0" style="stop-color:#F0C283"/>
				<stop  offset="1" style="stop-color:#E15A23"/>
			</linearGradient>
			<path class="st116" d="M111.7,102.2c0,6.7-12.2,12.1-27.2,12.1c-15,0-27.2-5.4-27.2-12.1c0-6.7,12.2-12.1,27.2-12.1
				C99.5,90.1,111.7,95.5,111.7,102.2z"/>
			<path class="st117" d="M84.9,113.7c-15,0-27.2-5.4-27.2-12.1c0-1.5,0.6-2.9,1.7-4.1c-1.3,1.4-2,3-2,4.6
				c0,6.7,12.2,12.1,27.2,12.1c11.7,0,21.7-3.3,25.6-7.9C105.9,110.6,96.2,113.7,84.9,113.7z"/>
			<path class="st118" d="M84.5,111c-6.9,0-13.4-1.2-18.3-3.3c-4.3-1.9-6.2-4.2-6.2-5.6c0-1.4,1.9-3.6,6.2-5.6
				c4.8-2.1,11.3-3.3,18.3-3.3c6.9,0,13.4,1.2,18.3,3.3c4.3,1.9,6.2,4.2,6.2,5.6c0,1.4-1.9,3.6-6.2,5.6C98,109.9,91.5,111,84.5,111z
				"/>
		</g>
		<path class="st119" d="M111,97.6c0,6.8-11.9,12.3-26.5,12.3c-14.7,0-26.5-5.5-26.5-12.3c0-6.8,11.9-10.2,26.5-10.2
			C99.2,87.4,111,90.8,111,97.6z"/>
		<path class="st119" d="M108.2,87.3c0,6.8-10.6,12.3-23.7,12.3s-23.7-5.5-23.7-12.3c0-6.8,10.6-8.8,23.7-8.8S108.2,80.6,108.2,87.3
			z"/>
		<path class="st119" d="M98.9,80.3c-0.1-5.6-4.6-13.6-10.7-14.5c-2.4-0.3-4.4-1.5-6,0.8c-0.5,0.7-0.2,2.4-0.1,3.1
			c0.6,3.9-0.8,6.1-4.1,8.1c-5,3,0.3,7.8,4.2,8.3c1.9,0.3,3.9,0.7,5.9,0.7c1.3,0,2.5-0.8,3.7-1c1-0.2,2.9-1.3,3.7-1.9
			c0.1-0.1,0.2-0.2,0.3-0.4c1.2-0.5,2.3-1.2,2.5-2.4C98.6,81.1,98.9,80.8,98.9,80.3z"/>
		<path class="st120" d="M106.8,91.6c0.9-1.3,1.4-2.7,1.4-4.2c0-4-3.7-6.3-9.3-7.6c-0.4-5.5-4.8-13.1-10.7-13.9
			c-0.7-0.1-1.4-0.3-2.1-0.4c0.6,0.5,1.3,0.9,2,1.3c1.5,0.9,2.9,1.9,4,3.2c1,1.2,1.9,2.8,2.5,4.2c0.6,1.3,1.5,3,1.7,4.5
			c0.1,0.8,0.3,2.1,0.9,2.7c0.2,0.2,0.6,0.2,0.8,0.3c1,0.2,1.9,0.8,2.8,1.2c2.3,1.1,3,3.7,3,6c0,0.6-0.1,1.2-0.1,1.9
			c-0.1,1.6-1.6,2-2.9,2.4c-0.4,0.1-0.2,0.7,0.2,0.8c0.6,0.1,1.2,0,1.8,0c1.9,0,2,2,2.2,3.3c0.4,2.1-0.1,3.9-0.9,5.9
			c-1.4,3.4-6,3.9-8.9,5.3c-0.2,0.1-0.2,0.3-0.2,0.4c9.4-1.9,16-6.2,16-11.3C111,95.1,109.5,93.1,106.8,91.6z"/>
		<path class="st121" d="M101.5,97.4c0,4.1-9.4,7.4-20.9,7.4c-11.5,0-20.9-3.3-20.9-7.4c0-4.1,9.4-6.2,20.9-6.2
			C92.1,91.2,101.5,93.3,101.5,97.4z"/>
		<path class="st121" d="M103,85.7c0,5.5-9.4,10-21.1,10c-11.6,0-21.1-4.5-21.1-10c0-5.5,9.4-7.2,21.1-7.2
			C93.5,78.5,103,80.2,103,85.7z"/>
		<path class="st121" d="M94,80.3c-0.1-5.6-3.6-13.6-8.4-14.5c-1.9-0.3-3.4-1.5-4.8,0.8c-0.4,0.7-0.2,2.4-0.1,3.1
			c0.5,3.9-0.6,6.1-3.2,8.1c-3.9,3,0.2,7.8,3.3,8.3c1.5,0.3,3.1,0.7,4.6,0.7c1,0,2-0.8,2.9-1c0.8-0.2,2.3-1.3,2.9-1.9
			c0.1-0.1,0.2-0.2,0.3-0.4c1-0.5,1.8-1.2,2-2.4C93.8,81.1,94,80.8,94,80.3z"/>
		<path class="st122" d="M79,89.9c-6.2,0-10.9-2.4-10.9-4.5c0-1.8,4.1-2.9,10.9-2.9c6.8,0,10.8,1.1,10.8,2.9
			C89.8,87.6,85.2,89.9,79,89.9z"/>
		<path class="st122" d="M82.3,102.7c-5.8,0-10.1-2.4-10.1-4.5c0-1.8,3.8-2.9,10.1-2.9c6.3,0,10.1,1.1,10.1,2.9
			C92.4,100.3,88.1,102.7,82.3,102.7z"/>
		<path class="st122" d="M82.9,76.4c-0.2,1.4-0.4,2.9-0.1,4.1c0.6,1.8,4.1,1.3,5.2,0.2c1.5-1.5,1.8-3.5,1.8-5.6
			c-1.2-3.2-3.1-5.9-4.8-6.2c-0.5-0.1-0.9-0.2-1.2-0.3c0,0.2,0.1,0.8,0.1,0.8C84.2,72.1,83.9,74.4,82.9,76.4z"/>
		<path class="st123" d="M78.8,80.2c0,0.6-0.7,1-1.5,1c-0.8,0-1.5-0.5-1.5-1c0-0.6,0.7-1,1.5-1C78.1,79.2,78.8,79.6,78.8,80.2z"/>
		<path class="st123" d="M83.4,69.9c0,0.6-0.7,1-1.5,1s-1.5-0.5-1.5-1c0-0.6,0.7-1,1.5-1S83.4,69.4,83.4,69.9z"/>
		<path class="st123" d="M92.4,78.1c0,0.6-0.7,1-1.5,1c-0.8,0-1.5-0.5-1.5-1c0-0.6,0.7-1,1.5-1C91.7,77.1,92.4,77.5,92.4,78.1z"/>
		<path class="st123" d="M100.1,86.2c0,0.6-0.7,1-1.5,1c-0.8,0-1.5-0.5-1.5-1c0-0.6,0.7-1,1.5-1C99.4,85.2,100.1,85.7,100.1,86.2z"
			/>
		<path class="st123" d="M80.3,89.4c0,0.6-0.7,1-1.5,1s-1.5-0.5-1.5-1c0-0.6,0.7-1,1.5-1S80.3,88.8,80.3,89.4z"/>
		<path class="st123" d="M66.1,82.5c0,0.6-0.7,1-1.5,1c-0.8,0-1.5-0.5-1.5-1c0-0.6,0.7-1,1.5-1C65.4,81.5,66.1,81.9,66.1,82.5z"/>
		<path class="st123" d="M66.6,96.8c0,0.6-0.7,1-1.5,1c-0.8,0-1.5-0.5-1.5-1c0-0.6,0.7-1,1.5-1C65.9,95.8,66.6,96.2,66.6,96.8z"/>
		<path class="st123" d="M90.9,97.5c0,0.6-0.7,1-1.5,1c-0.8,0-1.5-0.5-1.5-1c0-0.6,0.7-1,1.5-1C90.2,96.4,90.9,96.9,90.9,97.5z"/>
		<path class="st123" d="M106,96.4c0,0.6-0.7,1-1.5,1c-0.8,0-1.5-0.5-1.5-1c0-0.6,0.7-1,1.5-1C105.3,95.4,106,95.8,106,96.4z"/>
	</g>
	<g>
		<path class="st105" d="M71.3,84.6C71.3,84.6,71.3,84.6,71.3,84.6L71.3,84.6z"/>
		<path class="st105" d="M72.1,82.1c-0.2-0.7,0.2-1.4-0.5-1.9c-0.6-0.4-1.2,0.4-1.3,0.9c-0.1,0.2-0.1,0.5-0.1,0.8
			C70,82,70,82.1,69.9,82.2c-0.2,0.3-0.2,0.7-0.4,1c-0.2,0.5-0.4,1.3,0.2,1.7c0.4,0.2,1,0,1.4-0.2c0.1,0,0.1,0,0.2,0c0,0,0,0-0.1,0
			c0.1,0,0.3,0,0.4-0.1c0.3-0.1,0.6-0.3,0.7-0.6C72.8,83.4,72.2,82.6,72.1,82.1z"/>
	</g>
	<g>
		<path class="st105" d="M99.2,100.8C99.2,100.8,99.2,100.8,99.2,100.8L99.2,100.8z"/>
		<path class="st105" d="M98.9,98.2c-0.5-0.5-0.4-1.4-1.2-1.5c-0.7-0.1-0.9,0.8-0.9,1.3c0,0.3,0.1,0.5,0.2,0.8c0,0.1,0,0.2-0.1,0.3
			c0,0.4,0,0.7,0,1.1c0,0.6,0.1,1.4,0.8,1.5c0.5,0,0.9-0.4,1.2-0.7c0-0.1,0.1-0.1,0.1-0.1c0,0,0,0-0.1,0c0.1-0.1,0.3-0.1,0.4-0.2
			c0.2-0.2,0.4-0.5,0.5-0.8C100.1,99.2,99.3,98.7,98.9,98.2z"/>
	</g>
	<g>
		<path class="st105" d="M91.2,85.2C91.2,85.2,91.2,85.2,91.2,85.2L91.2,85.2z"/>
		<path class="st105" d="M92.8,83.7c0.1-0.6,0.7-1,0.4-1.6c-0.3-0.6-1-0.2-1.3,0.1c-0.2,0.1-0.3,0.3-0.4,0.5c-0.1,0-0.2,0.1-0.3,0.1
			c-0.3,0.1-0.5,0.4-0.7,0.6c-0.4,0.3-0.9,0.8-0.6,1.3c0.2,0.4,0.7,0.4,1.1,0.5c0.1,0,0.1,0,0.1,0c0,0,0,0,0,0
			c0.1,0.1,0.2,0.1,0.3,0.1c0.2,0.1,0.6,0,0.8-0.1C92.8,85,92.7,84.2,92.8,83.7z"/>
	</g>
	<path class="st105" d="M82.1,78.2c0,0-0.1-0.1-0.1-0.1c-0.2-0.3-0.5-0.6-0.6-1c-0.1-0.4,0-0.7-0.3-1c-0.2-0.2-0.4-0.3-0.7-0.3
		c-0.3,0.1-0.4,0.2-0.6,0.4c-0.1,0.2-0.3,0.3-0.5,0.4c-0.3,0.2-0.8,0.8-0.3,1.3c0.3,0.3,0.8,0.4,1.2,0.7c0.5,0.3,0.9,0.8,1.6,0.6
		C82.3,79.1,82.5,78.5,82.1,78.2z"/>
	<path class="st105" d="M90.7,90.7c-0.1,0-0.1,0-0.2,0.1c-0.4,0.1-0.8,0.1-1.2,0c-0.3-0.1-0.6-0.3-1-0.3c-0.3,0-0.5,0.2-0.6,0.4
		c-0.1,0.3,0,0.5,0.1,0.7c0.1,0.2,0.1,0.4,0.1,0.6c0,0.4,0.3,1.1,1,0.9c0.4-0.1,0.8-0.5,1.2-0.7c0.5-0.3,1.1-0.4,1.3-1
		C91.6,91,91.1,90.5,90.7,90.7z"/>
	<path class="st105" d="M74,99.3c-0.1,0-0.1,0-0.2,0.1c-0.4,0-0.8,0.1-1.2,0c-0.3-0.1-0.6-0.3-1-0.3c-0.3,0-0.5,0.2-0.6,0.4
		c-0.1,0.3,0,0.5,0.1,0.7c0.1,0.2,0.1,0.4,0.1,0.6c0,0.4,0.3,1.1,1,0.9c0.4-0.1,0.8-0.5,1.2-0.7c0.5-0.3,1.1-0.4,1.3-1
		C74.9,99.6,74.4,99.1,74,99.3z"/>
	<path class="st105" d="M71.2,92.7c0,0-0.1-0.1-0.1-0.1c-0.2-0.4-0.4-0.7-0.4-1.1c0-0.4,0.1-0.7,0-1.1c-0.1-0.3-0.3-0.4-0.6-0.4
		c-0.3,0-0.5,0.1-0.7,0.3c-0.2,0.2-0.4,0.2-0.6,0.3c-0.3,0.2-0.9,0.7-0.5,1.2c0.3,0.4,0.7,0.6,1.1,0.9c0.4,0.4,0.7,0.9,1.4,0.9
		C71.2,93.6,71.5,93,71.2,92.7z"/>
</g>
<g>
	<g>
		<path class="st124" d="M124.9,47.2c-0.2-2.1-2-3.8-3.8-4.7c-4.7-2.4-11.6-1.1-16,1.5c-1.4,0.8-3,2.3-2.5,4.1
			c0.3,1.2,1.7,3.7,9.5,3.6c3.3,0,6.5,0.3,9.7-0.8C123.7,50.2,125.2,49.3,124.9,47.2z"/>
		<g>
			<g>
				<path class="st125" d="M114.2,70.5c0.8-0.2,2.4-1.4,2.6-2.2c-0.4-1.8-0.1-4.6-0.1-4.6l-5.8-0.9c0,0-0.2,3.9-0.5,5.6
					C110.7,69.6,112.6,70.8,114.2,70.5z"/>
				<g>
					<path class="st126" d="M121,57.2c-0.2-0.9-1.1-0.8-1.4-0.7c-0.4-3.8-2.6-6.6-5.6-6.7c-3-0.1-5.4,2.5-6.1,6.3
						c-0.3-0.1-1.2-0.3-1.5,0.6c-0.3,1.1,0.2,2.7,1.4,3.2c0,0,0,0,0,0c0.1,0.7,0.2,1.3,0.5,1.9c1.2,2.8,3.4,5,5.1,5.1
						c1.7,0.1,3.9-1.8,5.3-4.7c0.3-0.6,0.5-1.2,0.7-1.9c0,0,0,0,0.1,0C120.7,59.9,121.3,58.3,121,57.2z"/>
					<path class="st127" d="M115.1,52.3c-1.3,1.9-5.4,4.6-8.3,3.9c-0.3-2.7,1.3-5.4,2.3-6.5c2.6-3,7.5-2.6,9-0.9
						c3.2,3.5,3.1,6,2.2,7.8C118.7,57.2,115.8,54.1,115.1,52.3z"/>
				</g>
			</g>
			<path class="st3" d="M133.1,90c-1.6-8.2-3.4-16.2-5.9-17.7c-2.4-1.5-10.6-4.1-10.6-4.1l-3.1,2.3l-3.1-2.3c0,0-8.1,2.7-10.6,4.1
				c-2.4,1.5-4.2,9.5-5.9,17.7c-0.4,1.8-0.8,3.9-1.3,5.9c4,0,7.1,1.7,7.1,1.7l3.1-13.8l2,13.8h8.5h0.2h8.5l2-13.8l3.1,13.8
				c0,0,3.1-1.7,7.1-1.7C133.9,93.9,133.5,91.9,133.1,90z"/>
			<path class="st128" d="M122,44.4c0,0-2.1-0.3-3.5,0.8c-1.4,1-2,2.9-2,2.9S120.4,44.9,122,44.4z"/>
			<path class="st128" d="M110.2,42.6c0,0,1.7,2.6,1.8,3.8c0.2,1.2,0.9-0.5,0.5-1.7C111.8,42.7,110.2,42.6,110.2,42.6z"/>
			<path class="st128" d="M105.7,44.8c0,0,1.6,1.4,2.2,2.1c0.6,0.7,1.3,1.1,1.3,1.1s0.4-1.9-0.8-2.7
				C107.2,44.6,105.7,44.8,105.7,44.8z"/>
			<path class="st124" d="M91.2,93.8l1.3,3.8c0,0,3.3-0.4,5.7,1.8c1.4-0.8,3.4-2.7,3.4-2.7s-1.4-2.8-4.8-3.7
				C93.4,92.2,91.2,93.8,91.2,93.8z"/>
			<path class="st124" d="M135.7,93.8l-1.3,3.8c0,0-3.3-0.4-5.7,1.8c-1.4-0.8-3.4-2.7-3.4-2.7s1.4-2.8,4.8-3.7
				C133.5,92.2,135.7,93.8,135.7,93.8z"/>
			<rect x="107.6" y="70.9" class="st124" width="12.4" height="41.5"/>
			<rect x="106.4" y="72" class="st3" width="12.5" height="40.7"/>
			<g>
				<path class="st3" d="M103,171.9c0,0-6.8,3.3-8.7,4.5c-1.9,1.2-1.2,2.4-1.2,2.4h13.8c0,0,0.2-5.4-0.2-6.6
					C106.3,171.1,103,171.9,103,171.9z"/>
				<path class="st127" d="M101.7,131.7c0,0-0.3,12.6-0.8,17.8c-0.9,8.3-2,23.8-2,23.8h8.7c0,0,1.7-19.7,2.7-27.6c0.7-5.5,2-14,2-14
					H101.7z"/>
				<rect x="92.9" y="178.3" class="st129" width="14" height="1.1"/>
			</g>
			<g>
				<path class="st3" d="M124.9,171.9c0,0,6.8,3.3,8.7,4.5c1.9,1.2,1.2,2.4,1.2,2.4H121c0,0-0.2-5.4,0.2-6.6
					C121.5,171.1,124.9,171.9,124.9,171.9z"/>
				<path class="st127" d="M126.1,131.7c0,0,0.3,12.6,0.8,17.8c0.9,8.3,2,23.8,2,23.8h-8.7c0,0-1.7-19.7-2.7-27.6
					c-0.7-5.5-2-14-2-14H126.1z"/>
				
					<rect x="121" y="178.3" transform="matrix(-1 -1.224647e-16 1.224647e-16 -1 255.9017 357.7014)" class="st129" width="14" height="1.1"/>
			</g>
			<path class="st130" d="M127.4,118.7c-0.6-10.5-5.1-21.1-5.1-21.1h-8.9h-1.2h-7.3c0,0-4.5,10.6-5.1,21.1
				c-0.6,10.5-1.6,21.7-1.6,21.7h13.7h1.8H129C129,140.4,128,129.2,127.4,118.7z"/>
			<rect x="104.7" y="96.4" class="st131" width="17.8" height="1.7"/>
			<path class="st124" d="M109.2,68.6v-2.4c0,0,4.5,1.1,4.3,4.4C111.4,69.7,109.2,68.6,109.2,68.6z"/>
			<path class="st124" d="M117.9,68.6v-2.4c0,0-4.5,1.1-4.3,4.4C115.7,69.7,117.9,68.6,117.9,68.6z"/>
			<g>
				<g>
					<path class="st127" d="M110.9,73.9c0,0.4-0.3,0.7-0.7,0.7c-0.4,0-0.7-0.3-0.7-0.7c0-0.4,0.3-0.7,0.7-0.7
						C110.6,73.2,110.9,73.5,110.9,73.9z"/>
					<path class="st127" d="M117.6,73.9c0,0.4-0.3,0.7-0.7,0.7c-0.4,0-0.7-0.3-0.7-0.7c0-0.4,0.3-0.7,0.7-0.7
						C117.3,73.2,117.6,73.5,117.6,73.9z"/>
				</g>
			</g>
			<g>
				<g>
					<path class="st132" d="M110.1,82.9c0,0.4-0.3,0.7-0.7,0.7c-0.4,0-0.7-0.3-0.7-0.7c0-0.4,0.3-0.7,0.7-0.7
						C109.8,82.2,110.1,82.5,110.1,82.9z"/>
					<path class="st132" d="M117.6,82.9c0,0.4-0.3,0.7-0.7,0.7c-0.4,0-0.7-0.3-0.7-0.7c0-0.4,0.3-0.7,0.7-0.7
						C117.3,82.2,117.6,82.5,117.6,82.9z"/>
				</g>
			</g>
			<g>
				<g>
					<path class="st132" d="M110.1,93.1c0,0.4-0.3,0.7-0.7,0.7c-0.4,0-0.7-0.3-0.7-0.7c0-0.4,0.3-0.7,0.7-0.7
						C109.8,92.4,110.1,92.7,110.1,93.1z"/>
					<path class="st132" d="M117.6,93.1c0,0.4-0.3,0.7-0.7,0.7c-0.4,0-0.7-0.3-0.7-0.7c0-0.4,0.3-0.7,0.7-0.7
						C117.3,92.4,117.6,92.7,117.6,93.1z"/>
				</g>
			</g>
		</g>
		<path class="st3" d="M120.8,46.9c0,0-1.8-1.8-7-1.8c-4.9,0-7,1.8-7,1.8v7.7h14V46.9z"/>
		<polygon class="st131" points="108.8,77.2 107.3,77.2 107.3,69.2 108.8,68.7 		"/>
		<polygon class="st131" points="118.5,77.2 120,77.2 120,69.2 118.5,68.7 		"/>
		<polygon class="st130" points="104.7,96.4 107.3,77.1 120,77.1 122.6,96.4 		"/>
		<path class="st131" d="M106.6,107.8v4.3c0,3.8,3.1,7,7,7c3.8,0,7-3.1,7-7v-4.3H106.6z"/>
		<path class="st133" d="M134.4,111.6c-1.1-1.4-4.2-1.4-5.8-1.4c-0.7,0-19.6-0.5-29.5,0.1c-4,0.2-5.1,1.6-5.4,2.1
			c-0.5,0.7,8.1,0.6,17.7,0.5c9.2-0.1,19.4-0.2,22.8-0.3C134.7,112.6,134.7,112,134.4,111.6z"/>
		<path class="st134" d="M128.7,106.9c0,0,2.1,0,3.4,0c1.3,0,2.7-1.1,4.4-1.1c1.7,0,1.8,1.3,1.8,2c0,0.7-0.1,2-1.8,2
			c-1.7,0-3.2-1.1-4.4-1.1c-1.3,0-3.4,0-3.4,0l-0.3-0.9L128.7,106.9z"/>
		<path class="st134" d="M127.6,110.6H100c-1.4,0-2.5-1.1-2.5-2.5l0,0c0-1.4,1.1-2.5,2.5-2.5h27.6c1.4,0,2.5,1.1,2.5,2.5l0,0
			C130.1,109.4,129,110.6,127.6,110.6z"/>
		<path class="st134" d="M98.8,106.9c0,0-2.1,0-3.4,0c-1.3,0-2.7-1.1-4.4-1.1c-1.7,0-1.8,1.3-1.8,2s0.1,2,1.8,2
			c1.7,0,3.2-1.1,4.4-1.1c1.3,0,3.4,0,3.4,0l0.3-0.9L98.8,106.9z"/>
		<path class="st126" d="M92.5,97.6c0,0-4.5,4.4-5.9,5.9c-1.3,1.5-1.3,3.8,0,5.1c1.3,1.3,2.6,3,3.9,2.9c1.3-0.1,3.2-1.3,3.6-1.6
			c0.4-0.4-1.8-5-1.8-5l6-5.5C98.3,99.4,96.4,96.7,92.5,97.6z"/>
		<path class="st126" d="M90.4,104.5c0,0,1.8,0.2,3.5,0.3c1.8,0.1,2.9,0,2.9,0s-0.2,1.7-2,1.7c-1.8,0-6.1,0-6.1,0L90.4,104.5z"/>
		<path class="st126" d="M134.4,97.6c0,0,4.5,4.4,5.9,5.9c1.3,1.5,1.3,3.8,0,5.1c-1.3,1.3-2.6,3-3.9,2.9c-1.3-0.1-3.2-1.3-3.6-1.6
			c-0.4-0.4,1.8-5,1.8-5l-6-5.5C128.6,99.4,130.5,96.7,134.4,97.6z"/>
		<path class="st126" d="M136.5,104.5c0,0-1.8,0.2-3.5,0.3c-1.8,0.1-2.9,0-2.9,0s0.2,1.7,2,1.7c1.8,0,6.1,0,6.1,0L136.5,104.5z"/>
	</g>
	<g>
		<g>
			<path class="st134" d="M76.9,159c-6.9,3.9-13.6,8.3-19.9,13.1v7.9h12.6h103.1v-42v-9.3C139.3,133.4,106.1,142.5,76.9,159z"/>
			<path class="st135" d="M57,115.7V153v9.2v9.9c6.3-4.9,13-9.2,19.9-13.1c29.2-16.4,62.5-25.6,95.7-30.3v-12.9H57z"/>
		</g>
		<rect x="54.4" y="112.6" class="st136" width="120.8" height="3.2"/>
		<rect x="57" y="115.7" class="st137" width="115.6" height="10.3"/>
	</g>
	<path class="st133" d="M150,108.4c-0.5-0.5-2.6-1.3-4.2-0.5c-1.3,0.7-2.5,2-2.2,3.4c0.2,0.8,0.9,1.2,1.6,1.3
		c1.2,0.2,2.8,0.1,3.9-0.1C151.6,112,151.5,109.8,150,108.4z"/>
	<path class="st133" d="M159.2,108.4c-0.5-0.5-2.6-1.3-4.2-0.5c-1.3,0.7-2.5,2-2.2,3.4c0.2,0.8,0.9,1.2,1.6,1.3
		c1.2,0.2,2.8,0.1,3.9-0.1C160.8,112,160.7,109.8,159.2,108.4z"/>
	<path class="st133" d="M168.6,108.4c-0.5-0.5-2.6-1.3-4.2-0.5c-1.3,0.7-2.5,2-2.2,3.4c0.2,0.8,0.9,1.2,1.6,1.3
		c1.2,0.2,2.8,0.1,3.9-0.1C170.2,112,170.1,109.8,168.6,108.4z"/>
	<g>
		<path class="st133" d="M79.9,98.1c-2.3-1.8-4.1-0.9-7.6,0c-1.6,0.4-6.9,1.9-7.6,2.4c-1,0.4-1.9,0.9-2.1,1.8
			c-0.6,2,1.6,2.9,3.1,3.1c3.3,0.6,6.8,0.6,10,0c2.1-0.4,4.8-1,5.5-3.3C81.7,100.5,81.2,99.2,79.9,98.1z"/>
		<g>
			<path class="st3" d="M57.5,100.9c0.3,6.3,6.2,11.4,13.5,11.4s13.2-5.1,13.5-11.4H57.5z"/>
			<rect x="65.9" y="111.4" class="st124" width="10.3" height="1.3"/>
		</g>
	</g>
</g>
</svg>
