<svg xmlns="http://www.w3.org/2000/svg" viewBox="0 0 27.08 27.04">
  <defs>
    <style>
      .cls-1 {
        fill: #fff;
      }
    </style>
  </defs>
  <title>資產 5</title>
  <g id="圖層_2" data-name="圖層 2">
    <g id="圖層_1-2" data-name="圖層 1">
      <g>
        <path class="cls-1" d="M20.68,5.17a6,6,0,0,0-1.27.13,6.4,6.4,0,0,1,0,12.53,6,6,0,0,0,1.27.13,6.4,6.4,0,1,0,0-12.79Z"/>
        <polygon class="cls-1" points="2.73 7.38 3.84 4.87 3.59 7.6 6.09 8.71 3.37 8.46 2.26 10.96 2.5 8.24 0 7.13 2.73 7.38"/>
        <polygon class="cls-1" points="14.96 2.01 14.23 0 15.56 1.67 17.57 0.94 15.91 2.27 16.64 4.29 15.3 2.62 13.29 3.35 14.96 2.01"/>
        <polygon class="cls-1" points="9.1 20.13 6.22 15.79 10.34 18.98 14.67 16.09 11.49 20.21 14.37 24.55 10.25 21.37 5.92 24.25 9.1 20.13"/>
        <path class="cls-1" d="M19.33,13.66a.3.3,0,1,1-.3-.31A.3.3,0,0,1,19.33,13.66Z"/>
        <path class="cls-1" d="M9.85,26.73a.3.3,0,1,1-.3-.3A.3.3,0,0,1,9.85,26.73Z"/>
        <path class="cls-1" d="M11.48,2.69a.3.3,0,1,1-.3-.3A.29.29,0,0,1,11.48,2.69Z"/>
        <path class="cls-1" d="M21.17,1a.31.31,0,1,1-.31-.3A.3.3,0,0,1,21.17,1Z"/>
        <path class="cls-1" d="M1.94,15.77a.3.3,0,1,1-.3-.31A.3.3,0,0,1,1.94,15.77Z"/>
        <path class="cls-1" d="M10.3,13.69a.83.83,0,1,1-.83-.83A.83.83,0,0,1,10.3,13.69Z"/>
        <path class="cls-1" d="M15,8.39a.41.41,0,0,1-.41.41.41.41,0,0,1-.42-.41A.42.42,0,0,1,14.54,8,.41.41,0,0,1,15,8.39Z"/>
        <path class="cls-1" d="M19.25,22.25a.42.42,0,0,1-.42.42.41.41,0,0,1-.41-.42.41.41,0,0,1,.41-.41A.41.41,0,0,1,19.25,22.25Z"/>
      </g>
    </g>
  </g>
</svg>
