<svg xmlns="http://www.w3.org/2000/svg" viewBox="0 0 18.57 20.66">
  <defs>
    <style>
      .cls-1 {
        fill: #fff;
      }
    </style>
  </defs>
  <title>資產 4</title>
  <g id="圖層_2" data-name="圖層 2">
    <g id="圖層_1-2" data-name="圖層 1">
      <g>
        <path class="cls-1" d="M13.33,20.66,0,14.45,5.24,3.21,18.57,9.42ZM.18,14.39l13.08,6.09,5.12-11L5.31,3.39Z"/>
        <polygon class="cls-1" points="18.43 9.47 14.77 0.17 5.29 3.34 5.25 3.21 14.85 0 18.56 9.42 18.43 9.47"/>
        <polygon class="cls-1" points="3.12 15.83 3 15.77 8.19 4.64 8.2 4.63 14.16 0.45 6.51 3.9 1.34 15 1.21 14.94 6.4 3.8 6.43 3.79 14.78 0.02 14.85 0.14 8.3 4.73 3.12 15.83"/>
        <polygon class="cls-1" points="12.32 20.12 12.2 20.06 17.37 8.97 14.85 0.38 14.98 0.34 17.51 8.98 12.32 20.12"/>
        <polygon class="cls-1" points="10.34 19.2 10.22 19.14 15.39 8.04 14.71 0.46 6.75 17.52 6.63 17.47 14.76 0.02 14.83 0.19 15.55 8.02 10.34 19.2"/>
      </g>
    </g>
  </g>
</svg>
