<svg id="圖層_1" data-name="圖層 1" xmlns="http://www.w3.org/2000/svg" xmlns:xlink="http://www.w3.org/1999/xlink" viewBox="0 0 279.78 329.85"><defs><style>.cls-1{fill:none;}.cls-2{clip-path:url(#clip-path);}.cls-3{fill:#dcdddd;}.cls-24,.cls-4{fill:#efefef;}.cls-12,.cls-4{stroke:#9fa0a0;}.cls-12,.cls-13,.cls-15,.cls-18,.cls-4,.cls-5,.cls-6,.cls-8{stroke-miterlimit:10;}.cls-12,.cls-18,.cls-4,.cls-5,.cls-6{stroke-width:2px;}.cls-5{fill:#f8c080;stroke:#f5a65f;}.cls-6{fill:#898989;stroke:#595757;}.cls-7{fill:#40220f;}.cls-13,.cls-8{fill:#6a3906;stroke:#40220f;}.cls-9{fill:#7f4f21;}.cls-10{fill:#f7f8f8;}.cls-11,.cls-12{fill:#9fa0a0;}.cls-13{stroke-width:0.75px;}.cls-14{fill:#956134;}.cls-15,.cls-25{fill:#e39ea4;}.cls-15{stroke:#b95654;}.cls-16{fill:#727171;}.cls-17{fill:#d46f68;}.cls-18{fill:#3e3a39;stroke:#3e3a39;}.cls-19{fill:url(#linear-gradient);}.cls-20{fill:#b64921;opacity:0.3;}.cls-21{opacity:0.5;}.cls-22{fill:#f4ec74;}.cls-23{fill:#df8b00;}</style><clipPath id="clip-path" transform="translate(-25.01 -20.14)"><circle class="cls-1" cx="174.24" cy="130.76" r="130.76" transform="translate(32.15 295.88) rotate(-86.17)"/></clipPath><linearGradient id="linear-gradient" x1="251.35" y1="178.39" x2="251.35" y2="144.84" gradientUnits="userSpaceOnUse"><stop offset="0" stop-color="#c77b13"/><stop offset="0.23" stop-color="#db931e"/><stop offset="0.48" stop-color="#eba726"/><stop offset="0.73" stop-color="#f5b22b"/><stop offset="1" stop-color="#f8b62d"/></linearGradient></defs><title>alertSuccess</title><g class="cls-2"><path class="cls-3" d="M122.35,299.31c0-3.11,19.7-5.63,44-5.63s44,2.52,44,5.63-19.71,5.62-44,5.62S122.35,302.41,122.35,299.31Z" transform="translate(-25.01 -20.14)"/><path class="cls-4" d="M118.33,207.7s-19,9.4-5.3,40.46Z" transform="translate(-25.01 -20.14)"/><path class="cls-5" d="M215.15,150.51a8.22,8.22,0,0,0-10.31-8l-.67-12.21a8,8,0,0,0-.45-2.65h0c0-6.56-17.87-11.88-39.91-11.88s-39.91,5.32-39.91,11.88h0a8.07,8.07,0,0,0-.45,2.66l-.8,12.24a8.42,8.42,0,0,0-2.21-.3,8.25,8.25,0,1,0,0,16.5,7.33,7.33,0,0,0,1.15-.09l-.22,33.88a8.16,8.16,0,0,0,.22,1.86,3.48,3.48,0,0,0-.22,1.19c0,6.56,17.74,11.88,42.1,11.88s42.1-5.32,42.1-11.88a3.48,3.48,0,0,0-.22-1.19,8.16,8.16,0,0,0,.22-1.86l.15-33.88a9.23,9.23,0,0,0,1.18.09A8.25,8.25,0,0,0,215.15,150.51Z" transform="translate(-25.01 -20.14)"/><path class="cls-5" d="M240.14,195.17s24.65-1.58,27.73-14.35h-31.7S231.28,193.44,240.14,195.17Z" transform="translate(-25.01 -20.14)"/><path class="cls-4" d="M200.22,206.24l2.49,23.8s37.85-.95,44.2-30.79L232,193.54S227.89,210.67,200.22,206.24Z" transform="translate(-25.01 -20.14)"/><polygon class="cls-6" points="152.86 275.64 142.34 275.64 142.34 238.85 157.44 238.85 152.86 275.64"/><polygon class="cls-6" points="127.48 275.64 138.24 275.64 138.24 238.85 122.79 238.85 127.48 275.64"/><path class="cls-4" d="M118.33,207.7,112,256.43a7.94,7.94,0,0,0,.45,2.63h0c0,6.51,28.07,11.79,50.56,11.79s52-5.28,52-11.79h0a7.76,7.76,0,0,0,.47-2.64l-7.11-48.73a7.92,7.92,0,0,0-.22-1.84,3.47,3.47,0,0,0,.22-1.18c0-6.51-20.14-1.5-45-1.5s-45-5-45,1.5a3.47,3.47,0,0,0,.22,1.18A7.92,7.92,0,0,0,118.33,207.7Z" transform="translate(-25.01 -20.14)"/><path class="cls-7" d="M176.31,153.87a17,17,0,0,1,.05-3.42c0-.11,0-.22,0-.33s-.06.32,0,.12l0-.19c0-.26.09-.52.14-.78a13,13,0,0,1,.42-1.51c0-.11.08-.22.13-.33.13-.36-.1.17,0-.07s.24-.48.38-.72a3.13,3.13,0,0,1,.21-.34l.12-.18c-.14.19.13-.15.16-.19s.21-.22.32-.33l.26-.23c.12-.11-.1.07-.11.07l.17-.12c.23-.15.48-.28.72-.41s0,0-.06,0l.2-.08.38-.11a2.59,2.59,0,0,1,.4-.09l.23,0c-.34,0,0,0,0,0a8,8,0,0,1,1,0c.11,0,.58.07.22,0a3.73,3.73,0,0,1,.46.09,3.45,3.45,0,0,1,.43.12c.06,0,.42.17.22.08l.2.1c.13.07.25.16.38.24.31.19-.13-.14.06,0l.29.26a2.73,2.73,0,0,1,.23.25l.13.15c.12.13-.18-.26,0,0s.27.41.39.62.11.2.16.31l.08.18c.12.24-.07-.22,0,0,.15.49.34,1,.45,1.48.05.23.09.46.13.68.07.42,0-.16,0,.09s0,.26,0,.39a17.2,17.2,0,0,1,0,3c0,.31-.05.61-.09.92s.07-.42,0,0a1.55,1.55,0,0,0,1.05,1.84,1.51,1.51,0,0,0,1.85-1,19,19,0,0,0,.2-4.19c-.15-2.42-.76-5.11-2.63-6.8a7.3,7.3,0,0,0-8.38-.72,9.09,9.09,0,0,0-3.79,6.3,18,18,0,0,0-.27,5,1.54,1.54,0,0,0,1.5,1.5,1.5,1.5,0,0,0,1.5-1.5Z" transform="translate(-25.01 -20.14)"/><path class="cls-7" d="M142.36,153.87a17,17,0,0,1,0-3.42c0-.11,0-.22,0-.33s0,.32,0,.12l0-.19c0-.26.09-.52.14-.78a13,13,0,0,1,.42-1.51l.13-.33c.13-.36-.1.17,0-.07s.23-.48.37-.72l.21-.34c0-.06.25-.35.12-.18s.13-.15.17-.19.2-.22.31-.33l.26-.23c.12-.11-.1.07-.1.07l.16-.12c.24-.15.48-.28.72-.41s0,0-.06,0l.21-.08.37-.11a2.88,2.88,0,0,1,.4-.09l.24,0c-.35,0-.05,0,0,0a8,8,0,0,1,1,0c.1,0,.58.07.21,0a3.4,3.4,0,0,1,.46.09,3,3,0,0,1,.43.12c.06,0,.43.17.22.08l.2.1c.13.07.26.16.39.24.31.19-.14-.14.05,0l.29.26a2.73,2.73,0,0,1,.23.25l.13.15c.12.13-.17-.26,0,0a7,7,0,0,1,.39.62,3,3,0,0,1,.16.31l.09.18c.12.24-.07-.22,0,0,.15.49.33,1,.44,1.48,0,.23.09.46.13.68.07.42,0-.16,0,.09s0,.26,0,.39a18.28,18.28,0,0,1,0,3c0,.31,0,.61-.08.92s.07-.42,0,0a1.55,1.55,0,0,0,1,1.84,1.5,1.5,0,0,0,1.84-1,18.39,18.39,0,0,0,.21-4.19c-.16-2.42-.77-5.11-2.64-6.8a7.28,7.28,0,0,0-8.37-.72,9.06,9.06,0,0,0-3.8,6.3,18.74,18.74,0,0,0-.27,5,1.54,1.54,0,0,0,1.5,1.5,1.5,1.5,0,0,0,1.5-1.5Z" transform="translate(-25.01 -20.14)"/><path class="cls-8" d="M195.4,161.63c3.93,3.64-3.53,12.93-11.18,6.59S171,165.06,171,165.06h-.31a8.68,8.68,0,0,1-6.56,3.3,8,8,0,0,1-6.29-3.3h-.12s-5.59-3.18-13.22,3.16-15.08-2.95-11.16-6.59c0,0-6.66,6.5-3.92,13.46s21.7,17.06,34.93-3.15c13.27,20.21,32.28,10.1,35,3.15S195.4,161.63,195.4,161.63Z" transform="translate(-25.01 -20.14)"/><path class="cls-7" d="M212.57,149.19a2.07,2.07,0,0,0-1-.6,4.8,4.8,0,0,0-3.2.43,14.06,14.06,0,0,0-2.88,1.8c-.36.28.09.76.45.59.11,0-.08,0,.07,0l.37-.11a2.91,2.91,0,0,1,1.14-.08c1.52.19,2.35,1.62,2.79,2.94.15.46.87.26.72-.2a5,5,0,0,0-2.48-3.22,3.66,3.66,0,0,0-2.44-.15,3.62,3.62,0,0,0-.55.2l.46.59a9.36,9.36,0,0,1,4.15-2.1,3.09,3.09,0,0,1,1.1,0,1.51,1.51,0,0,1,.61.26l.07,0c.05,0-.07-.06,0,0a.27.27,0,0,1,.08.07l.06.06c.3.38.83-.16.53-.53Z" transform="translate(-25.01 -20.14)"/><path class="cls-7" d="M115.29,149.72l0-.05.06,0c.07-.08,0,0,0,0s.17-.11.26-.15a.2.2,0,0,1,.08,0c.07,0-.05,0,0,0l.22-.08a4.21,4.21,0,0,1,2.74.41,13.74,13.74,0,0,1,2.7,1.69l.38-.65a3.64,3.64,0,0,0-4.19.81,6.19,6.19,0,0,0-1.29,2.36c-.16.46.57.66.72.2.44-1.32,1.28-2.75,2.79-2.94a2.88,2.88,0,0,1,1.14.08l.38.11.07,0a.38.38,0,0,0,.38-.65,10.07,10.07,0,0,0-4.5-2.24,3.15,3.15,0,0,0-2.21.38,1.59,1.59,0,0,0-.35.29c-.3.37.23.91.53.53Z" transform="translate(-25.01 -20.14)"/><path class="cls-9" d="M165.12,168.63s6.94,14,19,13.4,14.86-8.73,13.06-14.57c0,0,.61,11.89-9.28,10s-2.75-12.23-17.45-13C170.48,164.51,169,168.56,165.12,168.63Z" transform="translate(-25.01 -20.14)"/><path class="cls-9" d="M163.47,168.63s-7.72,14-19.83,13.4-14.88-8.73-13.08-14.57c0,0-.62,11.89,9.29,10s2.76-12.23,17.48-13C157.33,164.51,159.55,168.56,163.47,168.63Z" transform="translate(-25.01 -20.14)"/><path class="cls-7" d="M171.19,158a7.59,7.59,0,0,0-7.32-4.06,7.09,7.09,0,1,1-6.3,10.73l.15.35a7.59,7.59,0,0,0,13.47-7Z" transform="translate(-25.01 -20.14)"/><path class="cls-8" d="M178.14,125.45s10.05,15.29,27.16,16.37l-.67-11.19S188.35,117.42,178.14,125.45Z" transform="translate(-25.01 -20.14)"/><path class="cls-9" d="M181.42,125.12s8.23,13.22,22,14.59v-3.5S192.76,134.85,181.42,125.12Z" transform="translate(-25.01 -20.14)"/><path class="cls-9" d="M181.42,119.71s8.23,13.22,22,14.59v-3.5S192.76,129.44,181.42,119.71Z" transform="translate(-25.01 -20.14)"/><path class="cls-8" d="M149.87,125.45s-10.19,15.29-27.56,16.37l.69-11.19S139.52,117.42,149.87,125.45Z" transform="translate(-25.01 -20.14)"/><path class="cls-9" d="M146.55,125.12s-8.36,13.22-22.3,14.59v-3.5S135,134.85,146.55,125.12Z" transform="translate(-25.01 -20.14)"/><path class="cls-9" d="M146.55,119.71s-8.36,13.22-22.3,14.59v-3.5S135,129.44,146.55,119.71Z" transform="translate(-25.01 -20.14)"/><path class="cls-4" d="M223.86,63.19a23.71,23.71,0,0,0-32.7-21.93c.05-.58.08-1.17.08-1.77a18.34,18.34,0,0,0-35.4-6.74,19.79,19.79,0,0,0-36,13.86A23.42,23.42,0,0,0,112,45.26a23.7,23.7,0,1,0,14.22,42.65l-3,16.43h81l-4.09-17.45h0A23.7,23.7,0,0,0,223.86,63.19Z" transform="translate(-25.01 -20.14)"/><path class="cls-10" d="M200.29,40.85a23.61,23.61,0,0,0-9,1.77c.05-.58.09-1.18.09-1.77A18.35,18.35,0,0,0,156,34.11,19.78,19.78,0,0,0,120,48a23.66,23.66,0,0,0-23.58,4.61,23.73,23.73,0,0,0,30.53,12c0,.58-.09,1.17-.09,1.77a18.34,18.34,0,0,0,35.4,6.74A19.8,19.8,0,0,0,198.43,62a18.32,18.32,0,0,0-.21-2.79,23.66,23.66,0,0,0,7.88,1.34c6,0,10.49-1.39,14.67-5.09C217,47.34,209.83,40.85,200.29,40.85Z" transform="translate(-25.01 -20.14)"/><path class="cls-11" d="M191.51,43.78c0,.6,0,1.19-.09,1.78a38,38,0,0,1,11.49-2.12,23.63,23.63,0,0,1,17.82,8.08,23.68,23.68,0,0,0-20.57-11.93,43.94,43.94,0,0,0-8.79,1.26A18.87,18.87,0,0,1,191.51,43.78Z" transform="translate(-25.01 -20.14)"/><path class="cls-11" d="M91,72.91a23.73,23.73,0,0,1,31.59-22.36A19.77,19.77,0,0,1,142.17,28c6.84,0,12,4.11,15.57,9.38a20.11,20.11,0,0,1,17.9-12.26A18.31,18.31,0,0,1,189.08,31a18.34,18.34,0,0,0-33.24,1.9,19.79,19.79,0,0,0-36,13.86,23.7,23.7,0,0,0-25.7,38A23.6,23.6,0,0,1,91,72.91Z" transform="translate(-25.01 -20.14)"/><path class="cls-12" d="M204.23,106.89c-40.5-13-81,0-81,0V130s40.5-13,81,0Z" transform="translate(-25.01 -20.14)"/><path class="cls-12" d="M204.23,104.34c-40.5-13-81,0-81,0v23.09s40.5-13,81,0Z" transform="translate(-25.01 -20.14)"/><path class="cls-4" d="M204.23,106.49c-40.5-13-81,0-81,0V127s40.5-13,81,0Z" transform="translate(-25.01 -20.14)"/><path class="cls-13" d="M197.21,142.53s-10.51-10.84-24.12-5.89c0,0,4.59-10.21,15.07-8.51a4.75,4.75,0,0,0-3,1.61s7.83-.62,12.06,1.85a11.16,11.16,0,0,0-5.88,1s7,1.11,9.9,5c0,0-2.58-1.34-4.33-.21a11.17,11.17,0,0,1,3.39,8.4A17.47,17.47,0,0,0,197.21,142.53Z" transform="translate(-25.01 -20.14)"/><path class="cls-14" d="M174.75,135.11a14.76,14.76,0,0,1,9.47-6.09s-3,.88-3.39,3.25c0,0,3.65-2.37,10.91-1.29,0,0-3,.92-4,2.29,0,0,6-.12,10.1,2.87C197.88,136.14,183.76,132.17,174.75,135.11Z" transform="translate(-25.01 -20.14)"/><path class="cls-13" d="M132.8,142.53s10.7-10.84,24.54-5.89c0,0-4.67-10.21-15.34-8.51a4.88,4.88,0,0,1,3.07,1.61s-8-.62-12.27,1.85a11.53,11.53,0,0,1,6,1s-7.13,1.11-10.07,5c0,0,2.62-1.34,4.41-.21a11.09,11.09,0,0,0-3.45,8.4A17.32,17.32,0,0,1,132.8,142.53Z" transform="translate(-25.01 -20.14)"/><path class="cls-14" d="M154.63,135.11a14.81,14.81,0,0,0-9.51-6.09s3,.88,3.41,3.25c0,0-3.66-2.37-10.95-1.29,0,0,3,.92,4,2.29,0,0-6.05-.12-10.14,2.87C131.42,136.14,145.59,132.17,154.63,135.11Z" transform="translate(-25.01 -20.14)"/><path class="cls-15" d="M207.57,186s-24.94,13.34-38.21,12.77l19.13,10.79s14.57,1,20.52-6.32Z" transform="translate(-25.01 -20.14)"/><path class="cls-15" d="M119.69,186s25.37,13.34,37.88,12.77l-24.38,11.77s-9.25,0-14.86-7.3Z" transform="translate(-25.01 -20.14)"/><path class="cls-16" d="M179.88,232.4a4.94,4.94,0,1,1-4.88-5A4.95,4.95,0,0,1,179.88,232.4Z" transform="translate(-25.01 -20.14)"/><path class="cls-16" d="M160.48,232.12a4.94,4.94,0,1,1-4.86-5A4.93,4.93,0,0,1,160.48,232.12Z" transform="translate(-25.01 -20.14)"/><path class="cls-16" d="M179.64,248.8a4.94,4.94,0,1,1-4.87-5A4.94,4.94,0,0,1,179.64,248.8Z" transform="translate(-25.01 -20.14)"/><path class="cls-16" d="M160.25,248.52a4.94,4.94,0,1,1-4.87-5A4.94,4.94,0,0,1,160.25,248.52Z" transform="translate(-25.01 -20.14)"/><path class="cls-15" d="M192.35,197c3.64,3.18-3.28,11.31-10.39,5.77S169.65,200,169.65,200h-.29a8.23,8.23,0,0,1-6.09,2.88,7.49,7.49,0,0,1-5.83-2.88h-.12s-5.18-2.79-12.27,2.76-14-2.59-10.36-5.77c0,0-6.18,5.69-3.63,11.77s20.14,14.9,32.42-2.76c12.32,17.66,30,8.83,32.51,2.76S192.35,197,192.35,197Z" transform="translate(-25.01 -20.14)"/><path class="cls-17" d="M164.24,203.11s6.44,12.25,17.66,11.71,13.79-7.63,12.12-12.73c0,0,.58,10.39-8.61,8.77s-2.55-10.69-16.2-11.35C169.21,199.51,167.88,203.05,164.24,203.11Z" transform="translate(-25.01 -20.14)"/><path class="cls-17" d="M162.71,203.11s-7.17,12.25-18.42,11.71-13.81-7.63-12.13-12.73c0,0-.58,10.39,8.63,8.77s2.55-10.69,16.22-11.35C157,199.51,159.06,203.05,162.71,203.11Z" transform="translate(-25.01 -20.14)"/><path class="cls-15" d="M156.7,200.86a6.83,6.83,0,1,1,6.83,6.83A6.83,6.83,0,0,1,156.7,200.86Z" transform="translate(-25.01 -20.14)"/><path class="cls-17" d="M160.14,202.44a4.29,4.29,0,1,1,4.27,3.9A4.09,4.09,0,0,1,160.14,202.44Z" transform="translate(-25.01 -20.14)"/><path class="cls-18" d="M167.35,299.31H192.4s-8.9-11.63-25.05-5Z" transform="translate(-25.01 -20.14)"/><path class="cls-18" d="M163.3,299.31H138s9-11.63,25.35-5Z" transform="translate(-25.01 -20.14)"/><rect class="cls-4" x="235.25" y="183.09" width="10.78" height="22.03" transform="translate(-48.05 335.36) rotate(-70.36)"/><path class="cls-4" d="M292.31,179.34a4.19,4.19,0,0,1-4.18,4.19H214.57a4.19,4.19,0,0,1-4.18-4.19h0a4.18,4.18,0,0,1,4.18-4.18h73.56a4.18,4.18,0,0,1,4.18,4.18Z" transform="translate(-25.01 -20.14)"/><path class="cls-19" d="M285.15,161.62c0,9.26-15.13,16.77-33.8,16.77s-33.8-7.51-33.8-16.77,15.13-16.78,33.8-16.78S285.15,152.35,285.15,161.62Z" transform="translate(-25.01 -20.14)"/><path class="cls-20" d="M251.35,175.87c-17.8,0-32.38-6.82-33.7-15.49a7.84,7.84,0,0,0-.1,1.29c0,9.26,15.13,16.77,33.8,16.77s33.8-7.51,33.8-16.77a7.84,7.84,0,0,0-.1-1.29C283.73,169.05,269.14,175.87,251.35,175.87Z" transform="translate(-25.01 -20.14)"/><g class="cls-21"><path class="cls-22" d="M270.19,163a26.62,26.62,0,0,0,.43-15.16l-1.05-.39c-1.3-.41-2.67-.79-4.08-1.11C268.23,150.83,271.5,156.83,270.19,163Z" transform="translate(-25.01 -20.14)"/><path class="cls-22" d="M243.66,145.27c5.32,4.93,12.8,12.44,12.49,21,0,0,3.36-10.05-6.29-21.46Q246.68,144.93,243.66,145.27Z" transform="translate(-25.01 -20.14)"/><path class="cls-22" d="M245.21,169.71s-2.46-12-14.61-21.34A37,37,0,0,0,227,150C233,154.25,243.1,161.85,245.21,169.71Z" transform="translate(-25.01 -20.14)"/></g><path class="cls-23" d="M270.19,163a19.23,19.23,0,0,0,2-14.63,47.9,47.9,0,0,0-5.23-1.67C269.69,151.2,271.52,156.75,270.19,163Z" transform="translate(-25.01 -20.14)"/><path class="cls-23" d="M245.06,145.13c5.32,4.93,11.4,12.5,11.09,21.18,0,0,4.91-10.06-4.76-21.47h0Q248.13,144.84,245.06,145.13Z" transform="translate(-25.01 -20.14)"/><path class="cls-23" d="M245.21,169.41s-1-12-13.56-21.43a39.72,39.72,0,0,0-3.78,1.57C233.79,153.7,243,161.27,245.21,169.41Z" transform="translate(-25.01 -20.14)"/><path class="cls-24" d="M253,142.48c-5.06-2.34-4.73-7.93-1.19-12.72s-2-10-2-10,6.87,2.3,5.3,9c-.47,2.05-3.64,4.72-3.64,7.29A12.28,12.28,0,0,0,253,142.48Z" transform="translate(-25.01 -20.14)"/><path class="cls-24" d="M262.94,142.48c-3.81-1.77-3.57-6-.89-9.59s-1.49-7.57-1.49-7.57,5.19,1.74,4,6.8c-.36,1.54-2.75,3.56-2.75,5.5A9.28,9.28,0,0,0,262.94,142.48Z" transform="translate(-25.01 -20.14)"/><path class="cls-24" d="M242.72,142.48c-3.82-1.77-3.57-6-.9-9.59s-1.49-7.57-1.49-7.57,5.19,1.74,4,6.8c-.36,1.54-2.76,3.56-2.76,5.5A9.22,9.22,0,0,0,242.72,142.48Z" transform="translate(-25.01 -20.14)"/></g><polygon class="cls-17" points="10.6 278.33 60.13 298.9 60.13 278.33 10.6 278.33"/><polygon class="cls-17" points="269.18 278.33 219.65 298.9 219.65 278.33 269.18 278.33"/><polygon class="cls-25" points="60.13 298.9 22.09 317.81 22.09 283.11 60.13 298.9"/><polygon class="cls-25" points="219.65 298.9 257.69 317.81 257.69 283.11 219.65 298.9"/><polygon class="cls-17" points="41.11 308.36 41.11 329.85 22.09 317.81 41.11 308.36"/><polygon class="cls-17" points="238.67 308.36 238.67 329.85 257.69 317.81 238.67 308.36"/><polygon class="cls-25" points="0 219.59 279.78 219.59 269.18 278.33 10.61 278.33 0 219.59"/></svg>