<svg id="圖層_1" data-name="圖層 1" xmlns="http://www.w3.org/2000/svg" xmlns:xlink="http://www.w3.org/1999/xlink" viewBox="0 0 407 407"><defs><style>.cls-1,.cls-27{fill:none;}.cls-2{fill:#342b29;opacity:0.8;}.cls-2,.cls-27{stroke:#342b29;}.cls-13,.cls-14,.cls-16,.cls-19,.cls-2,.cls-27,.cls-5,.cls-6,.cls-7,.cls-9{stroke-miterlimit:10;}.cls-3{clip-path:url(#clip-path);}.cls-4{fill:#dcdddd;}.cls-25,.cls-5{fill:#efefef;}.cls-13,.cls-5{stroke:#9fa0a0;}.cls-13,.cls-19,.cls-5,.cls-6,.cls-7{stroke-width:2px;}.cls-6{fill:#f8c080;stroke:#f5a65f;}.cls-7{fill:#898989;stroke:#595757;}.cls-8{fill:#40220f;}.cls-14,.cls-9{fill:#6a3906;stroke:#40220f;}.cls-10{fill:#7f4f21;}.cls-11{fill:#f7f8f8;}.cls-12,.cls-13{fill:#9fa0a0;}.cls-14{stroke-width:0.75px;}.cls-15{fill:#956134;}.cls-16,.cls-26{fill:#e39ea4;}.cls-16{stroke:#b95654;}.cls-17{fill:#727171;}.cls-18{fill:#d46f68;}.cls-19{fill:#3e3a39;stroke:#3e3a39;}.cls-20{fill:url(#linear-gradient);}.cls-21{fill:#b64921;opacity:0.3;}.cls-22{opacity:0.5;}.cls-23{fill:#f4ec74;}.cls-24{fill:#df8b00;}.cls-27{stroke-width:10px;}</style><clipPath id="clip-path" transform="translate(-10.5 -9)"><circle class="cls-1" cx="223.24" cy="145.26" r="130.76" transform="translate(63.41 358.31) rotate(-86.17)"/></clipPath><linearGradient id="linear-gradient" x1="300.35" y1="192.9" x2="300.35" y2="159.34" gradientUnits="userSpaceOnUse"><stop offset="0" stop-color="#c77b13"/><stop offset="0.23" stop-color="#db931e"/><stop offset="0.48" stop-color="#eba726"/><stop offset="0.73" stop-color="#f5b22b"/><stop offset="1" stop-color="#f8b62d"/></linearGradient></defs><title>alertCircleSuccess</title><circle class="cls-2" cx="203.5" cy="203.5" r="198.5"/><g class="cls-3"><path class="cls-4" d="M171.35,313.81c0-3.11,19.7-5.63,44-5.63s44,2.52,44,5.63-19.71,5.62-44,5.62S171.35,316.91,171.35,313.81Z" transform="translate(-10.5 -9)"/><path class="cls-5" d="M167.33,222.2s-19,9.4-5.3,40.46Z" transform="translate(-10.5 -9)"/><path class="cls-6" d="M264.15,165a8.22,8.22,0,0,0-10.31-8l-.67-12.2a8,8,0,0,0-.45-2.65v0c0-6.56-17.87-11.88-39.91-11.88s-39.91,5.32-39.91,11.88h0a8.13,8.13,0,0,0-.45,2.67l-.8,12.24a8,8,0,0,0-2.21-.31,8.25,8.25,0,1,0,0,16.5,8.77,8.77,0,0,0,1.15-.08l-.22,33.88a8,8,0,0,0,.22,1.85,3.53,3.53,0,0,0-.22,1.19c0,6.56,17.74,11.88,42.1,11.88s42.1-5.32,42.1-11.88a3.53,3.53,0,0,0-.22-1.19,8,8,0,0,0,.22-1.85l.15-33.89a7.72,7.72,0,0,0,1.18.09A8.25,8.25,0,0,0,264.15,165Z" transform="translate(-10.5 -9)"/><path class="cls-6" d="M289.14,209.68s24.65-1.59,27.73-14.35h-31.7S280.28,207.94,289.14,209.68Z" transform="translate(-10.5 -9)"/><path class="cls-5" d="M249.22,220.74l2.49,23.8s37.85-.95,44.2-30.79L281,208S276.89,225.18,249.22,220.74Z" transform="translate(-10.5 -9)"/><polygon class="cls-7" points="216.37 301.28 205.85 301.28 205.85 264.5 220.95 264.5 216.37 301.28"/><polygon class="cls-7" points="190.99 301.28 201.74 301.28 201.74 264.5 186.3 264.5 190.99 301.28"/><path class="cls-5" d="M167.33,222.2,161,270.93a7.89,7.89,0,0,0,.45,2.63h0c0,6.52,28.07,11.8,50.56,11.8s52-5.28,52-11.8h0a7.72,7.72,0,0,0,.47-2.64l-7.11-48.73a8,8,0,0,0-.22-1.84,3.47,3.47,0,0,0,.22-1.18c0-6.51-20.14-1.5-45-1.5s-45-5-45,1.5a3.47,3.47,0,0,0,.22,1.18A8,8,0,0,0,167.33,222.2Z" transform="translate(-10.5 -9)"/><path class="cls-8" d="M225.31,168.38a17.1,17.1,0,0,1,.05-3.43c0-.11,0-.21,0-.32s-.06.31,0,.11l0-.19c0-.26.09-.52.14-.77a13.14,13.14,0,0,1,.42-1.52c0-.11.08-.22.13-.33.13-.35-.1.17,0-.07s.24-.48.38-.72a3.13,3.13,0,0,1,.21-.34c0-.05.24-.35.12-.17l.16-.2.32-.33.26-.23c.12-.11-.1.07-.11.08a1.77,1.77,0,0,1,.17-.12,7.49,7.49,0,0,1,.72-.42c.23-.12,0,0-.06,0l.2-.07.38-.12.4-.09.23,0c-.34.06,0,0,0,0,.33,0,.66,0,1,0,.11,0,.58.07.22,0,.15,0,.31,0,.46.09l.43.12c.06,0,.42.17.22.08l.2.1.38.24c.31.19-.13-.14.06,0l.29.27a2.61,2.61,0,0,1,.23.24l.13.15c.12.13-.18-.26,0,0s.27.4.39.61.11.21.16.31l.08.18c.12.24-.07-.22,0,0,.15.5.34,1,.45,1.48.05.23.09.46.13.69.07.41,0-.17,0,.09s0,.26,0,.38a17.22,17.22,0,0,1,0,3c0,.31-.05.62-.09.92,0,.45.07-.42,0,0a1.54,1.54,0,0,0,1.05,1.84,1.51,1.51,0,0,0,1.85-1,19,19,0,0,0,.2-4.2c-.15-2.42-.76-5.11-2.63-6.8a7.32,7.32,0,0,0-8.38-.71,9.06,9.06,0,0,0-3.79,6.3,17.91,17.91,0,0,0-.27,5,1.54,1.54,0,0,0,1.5,1.5,1.51,1.51,0,0,0,1.5-1.5Z" transform="translate(-10.5 -9)"/><path class="cls-8" d="M191.36,168.38a17.1,17.1,0,0,1,0-3.43c0-.11,0-.21,0-.32s0,.31,0,.11l0-.19c0-.26.09-.52.14-.77a13.14,13.14,0,0,1,.42-1.52l.13-.33c.13-.35-.1.17,0-.07s.23-.48.37-.72l.21-.34.12-.17c-.14.18.13-.16.17-.2l.31-.33.26-.23c.12-.11-.1.07-.1.08l.16-.12c.24-.16.48-.29.72-.42s0,0-.06,0l.21-.07.37-.12.4-.09.24,0c-.35.06-.05,0,0,0,.32,0,.65,0,1,0,.1,0,.58.07.21,0,.16,0,.31,0,.46.09s.29.08.43.12.43.17.22.08l.2.1.39.24c.31.19-.14-.14.05,0a3.71,3.71,0,0,1,.29.27,2.61,2.61,0,0,1,.23.24l.13.15c.12.13-.17-.26,0,0a5.7,5.7,0,0,1,.39.61l.16.31.09.18c.12.24-.07-.22,0,0,.15.5.33,1,.44,1.48,0,.23.09.46.13.69.07.41,0-.17,0,.09s0,.26,0,.38a18.29,18.29,0,0,1,0,3c0,.31,0,.62-.08.92-.05.45.07-.42,0,0a1.54,1.54,0,0,0,1,1.84,1.5,1.5,0,0,0,1.84-1,18.45,18.45,0,0,0,.21-4.2c-.16-2.42-.77-5.11-2.64-6.8a7.3,7.3,0,0,0-8.37-.71,9,9,0,0,0-3.8,6.3,18.69,18.69,0,0,0-.27,5,1.54,1.54,0,0,0,1.5,1.5,1.51,1.51,0,0,0,1.5-1.5Z" transform="translate(-10.5 -9)"/><path class="cls-9" d="M244.4,176.13c3.93,3.64-3.53,12.94-11.18,6.59S220,179.57,220,179.57h-.31a8.72,8.72,0,0,1-6.56,3.3,8,8,0,0,1-6.29-3.3h-.12s-5.59-3.19-13.22,3.15-15.08-2.95-11.16-6.59c0,0-6.66,6.5-3.92,13.46s21.7,17.06,34.93-3.15c13.27,20.21,32.28,10.1,35,3.15S244.4,176.13,244.4,176.13Z" transform="translate(-10.5 -9)"/><path class="cls-8" d="M261.57,163.69a2.15,2.15,0,0,0-1-.6,4.87,4.87,0,0,0-3.2.44,13.24,13.24,0,0,0-2.88,1.8c-.36.27.09.76.45.58.11,0-.08,0,.07,0a2.65,2.65,0,0,1,.37-.12,3.11,3.11,0,0,1,1.14-.08c1.52.2,2.35,1.62,2.79,2.94.15.46.87.26.72-.2a5,5,0,0,0-2.48-3.22,3.6,3.6,0,0,0-2.44-.14,2.79,2.79,0,0,0-.55.2l.46.59a9.16,9.16,0,0,1,4.15-2.1,2.88,2.88,0,0,1,1.1,0,1.52,1.52,0,0,1,.61.27l.07,0c.05,0-.07-.06,0,0l.08.07.06.06c.3.38.83-.15.53-.53Z" transform="translate(-10.5 -9)"/><path class="cls-8" d="M164.29,164.22l.05,0,.06-.06c.07-.08,0,0,0,0l.26-.16.08,0h0l.22-.07a4.15,4.15,0,0,1,2.74.41,13.69,13.69,0,0,1,2.7,1.68l.38-.64a3.62,3.62,0,0,0-4.19.8,6.34,6.34,0,0,0-1.29,2.36c-.16.46.57.66.72.2.44-1.32,1.28-2.74,2.79-2.94a3.08,3.08,0,0,1,1.14.08,2.78,2.78,0,0,1,.38.12c.16.05,0,0,.07,0a.37.37,0,0,0,.38-.64,10.09,10.09,0,0,0-4.5-2.25,3.26,3.26,0,0,0-2.21.38,1.93,1.93,0,0,0-.35.29c-.3.38.23.91.53.53Z" transform="translate(-10.5 -9)"/><path class="cls-10" d="M214.12,183.14s6.94,14,19,13.39S248,187.81,246.21,182c0,0,.61,11.88-9.28,10s-2.75-12.23-17.45-13C219.48,179,218,183.07,214.12,183.14Z" transform="translate(-10.5 -9)"/><path class="cls-10" d="M212.47,183.14s-7.72,14-19.83,13.39-14.88-8.72-13.08-14.56c0,0-.62,11.88,9.29,10s2.76-12.23,17.48-13C206.33,179,208.55,183.07,212.47,183.14Z" transform="translate(-10.5 -9)"/><path class="cls-8" d="M220.19,172.46a7.59,7.59,0,0,0-7.32-4.06,7.09,7.09,0,1,1-6.3,10.73l.15.35a7.59,7.59,0,0,0,13.47-7Z" transform="translate(-10.5 -9)"/><path class="cls-9" d="M227.14,140s10.05,15.29,27.16,16.37l-.67-11.19S237.35,131.92,227.14,140Z" transform="translate(-10.5 -9)"/><path class="cls-10" d="M230.42,139.62s8.23,13.22,22,14.59v-3.5S241.76,149.35,230.42,139.62Z" transform="translate(-10.5 -9)"/><path class="cls-10" d="M230.42,134.22s8.23,13.21,22,14.58v-3.5S241.76,144,230.42,134.22Z" transform="translate(-10.5 -9)"/><path class="cls-9" d="M198.87,140s-10.19,15.29-27.56,16.37l.69-11.19S188.52,131.92,198.87,140Z" transform="translate(-10.5 -9)"/><path class="cls-10" d="M195.55,139.62s-8.36,13.22-22.3,14.59v-3.5S184,149.35,195.55,139.62Z" transform="translate(-10.5 -9)"/><path class="cls-10" d="M195.55,134.22s-8.36,13.21-22.3,14.58v-3.5S184,144,195.55,134.22Z" transform="translate(-10.5 -9)"/><path class="cls-5" d="M272.86,77.69A23.7,23.7,0,0,0,249.16,54a23.42,23.42,0,0,0-9,1.78c.05-.59.08-1.18.08-1.78a18.34,18.34,0,0,0-35.4-6.74,19.79,19.79,0,0,0-36,13.86,23.7,23.7,0,1,0,6.34,41.3l-3,16.44h81l-4.09-17.46h0A23.7,23.7,0,0,0,272.86,77.69Z" transform="translate(-10.5 -9)"/><path class="cls-11" d="M249.29,55.35a23.61,23.61,0,0,0-9,1.77c.05-.58.09-1.17.09-1.77A18.35,18.35,0,0,0,205,48.61a19.79,19.79,0,0,0-36,13.86,23.68,23.68,0,0,0-23.58,4.6,23.7,23.7,0,0,0,30.53,12c0,.58-.09,1.18-.09,1.78a18.34,18.34,0,0,0,35.4,6.74,19.8,19.8,0,0,0,36.21-11.07,18.32,18.32,0,0,0-.21-2.79,23.67,23.67,0,0,0,7.88,1.35c6,0,10.49-1.4,14.67-5.1C266,61.85,258.83,55.35,249.29,55.35Z" transform="translate(-10.5 -9)"/><path class="cls-12" d="M240.51,58.28c0,.6,0,1.19-.09,1.78a38.28,38.28,0,0,1,11.49-2.12A23.61,23.61,0,0,1,269.73,66a23.69,23.69,0,0,0-20.57-11.94,43.94,43.94,0,0,0-8.79,1.26A18.93,18.93,0,0,1,240.51,58.28Z" transform="translate(-10.5 -9)"/><path class="cls-12" d="M140,87.41a23.7,23.7,0,0,1,31.59-22.35,19.78,19.78,0,0,1,19.58-22.59c6.84,0,12,4.12,15.57,9.38a20.12,20.12,0,0,1,17.9-12.25,18.27,18.27,0,0,1,13.44,5.86,18.34,18.34,0,0,0-33.24,1.89,19.79,19.79,0,0,0-36,13.86,23.7,23.7,0,0,0-25.7,38A23.57,23.57,0,0,1,140,87.41Z" transform="translate(-10.5 -9)"/><path class="cls-13" d="M253.23,121.39c-40.5-13-81,0-81,0v23.09s40.5-13,81,0Z" transform="translate(-10.5 -9)"/><path class="cls-13" d="M253.23,118.85c-40.5-13-81,0-81,0v23.09s40.5-13,81,0Z" transform="translate(-10.5 -9)"/><path class="cls-5" d="M253.23,121c-40.5-13-81,0-81,0v20.52s40.5-13,81,0Z" transform="translate(-10.5 -9)"/><path class="cls-14" d="M246.21,157s-10.51-10.83-24.12-5.89c0,0,4.59-10.21,15.07-8.5a4.7,4.7,0,0,0-3,1.6s7.83-.62,12.06,1.85a11.27,11.27,0,0,0-5.88,1s7,1.12,9.9,5c0,0-2.58-1.34-4.33-.2a11.15,11.15,0,0,1,3.39,8.39A17.47,17.47,0,0,0,246.21,157Z" transform="translate(-10.5 -9)"/><path class="cls-15" d="M223.75,149.61a14.76,14.76,0,0,1,9.47-6.08s-3,.87-3.39,3.24c0,0,3.65-2.37,10.91-1.28,0,0-3,.92-4,2.28,0,0,6-.12,10.1,2.87C246.88,150.64,232.76,146.67,223.75,149.61Z" transform="translate(-10.5 -9)"/><path class="cls-14" d="M181.8,157s10.7-10.83,24.54-5.89c0,0-4.67-10.21-15.34-8.5a4.84,4.84,0,0,1,3.07,1.6s-8-.62-12.27,1.85a11.65,11.65,0,0,1,6,1s-7.13,1.12-10.07,5c0,0,2.62-1.34,4.41-.2a11.08,11.08,0,0,0-3.45,8.39A17.32,17.32,0,0,1,181.8,157Z" transform="translate(-10.5 -9)"/><path class="cls-15" d="M203.63,149.61a14.81,14.81,0,0,0-9.51-6.08s3,.87,3.41,3.24c0,0-3.66-2.37-10.95-1.28,0,0,3,.92,4,2.28,0,0-6.05-.12-10.14,2.87C180.42,150.64,194.59,146.67,203.63,149.61Z" transform="translate(-10.5 -9)"/><path class="cls-16" d="M256.57,200.54s-24.94,13.34-38.21,12.77l19.13,10.78s14.57,1,20.52-6.31Z" transform="translate(-10.5 -9)"/><path class="cls-16" d="M168.69,200.54s25.37,13.34,37.88,12.77l-24.38,11.77s-9.25,0-14.86-7.3Z" transform="translate(-10.5 -9)"/><path class="cls-17" d="M228.88,246.9a4.94,4.94,0,1,1-4.88-5A4.94,4.94,0,0,1,228.88,246.9Z" transform="translate(-10.5 -9)"/><path class="cls-17" d="M209.48,246.62a4.94,4.94,0,1,1-4.86-5A4.93,4.93,0,0,1,209.48,246.62Z" transform="translate(-10.5 -9)"/><path class="cls-17" d="M228.64,263.3a4.94,4.94,0,1,1-4.87-5A4.94,4.94,0,0,1,228.64,263.3Z" transform="translate(-10.5 -9)"/><path class="cls-17" d="M209.25,263a4.94,4.94,0,1,1-4.87-5A4.94,4.94,0,0,1,209.25,263Z" transform="translate(-10.5 -9)"/><path class="cls-16" d="M241.35,211.5c3.64,3.17-3.28,11.3-10.39,5.76s-12.31-2.76-12.31-2.76h-.29a8.23,8.23,0,0,1-6.09,2.88,7.46,7.46,0,0,1-5.83-2.88h-.12s-5.18-2.78-12.27,2.76-14-2.59-10.36-5.76c0,0-6.18,5.68-3.63,11.76s20.14,14.91,32.42-2.76c12.32,17.67,30,8.84,32.51,2.76S241.35,211.5,241.35,211.5Z" transform="translate(-10.5 -9)"/><path class="cls-18" d="M213.24,217.62s6.44,12.25,17.66,11.71S244.69,221.7,243,216.6c0,0,.58,10.38-8.61,8.76s-2.55-10.69-16.2-11.35C218.21,214,216.88,217.56,213.24,217.62Z" transform="translate(-10.5 -9)"/><path class="cls-18" d="M211.71,217.62s-7.17,12.25-18.42,11.71-13.81-7.63-12.13-12.73c0,0-.58,10.38,8.63,8.76S192.34,214.67,206,214C206,214,208.06,217.56,211.71,217.62Z" transform="translate(-10.5 -9)"/><path class="cls-16" d="M205.7,215.36a6.83,6.83,0,1,1,6.83,6.83A6.83,6.83,0,0,1,205.7,215.36Z" transform="translate(-10.5 -9)"/><path class="cls-18" d="M209.14,217a4.29,4.29,0,1,1,4.27,3.89A4.1,4.1,0,0,1,209.14,217Z" transform="translate(-10.5 -9)"/><path class="cls-19" d="M216.35,313.81H241.4s-8.9-11.62-25.05-5Z" transform="translate(-10.5 -9)"/><path class="cls-19" d="M212.3,313.81H187s9-11.62,25.35-5Z" transform="translate(-10.5 -9)"/><rect class="cls-5" x="284.25" y="197.59" width="10.78" height="22.03" transform="translate(-14.67 402.28) rotate(-70.36)"/><path class="cls-5" d="M341.31,193.85a4.18,4.18,0,0,1-4.18,4.18H263.57a4.18,4.18,0,0,1-4.18-4.18h0a4.19,4.19,0,0,1,4.18-4.19h73.56a4.19,4.19,0,0,1,4.18,4.19Z" transform="translate(-10.5 -9)"/><path class="cls-20" d="M334.15,176.12c0,9.26-15.13,16.78-33.8,16.78s-33.8-7.52-33.8-16.78,15.13-16.78,33.8-16.78S334.15,166.85,334.15,176.12Z" transform="translate(-10.5 -9)"/><path class="cls-21" d="M300.35,190.38c-17.8,0-32.38-6.83-33.7-15.5a8,8,0,0,0-.1,1.29c0,9.27,15.13,16.78,33.8,16.78s33.8-7.51,33.8-16.78a8,8,0,0,0-.1-1.29C332.73,183.55,318.14,190.38,300.35,190.38Z" transform="translate(-10.5 -9)"/><g class="cls-22"><path class="cls-23" d="M319.19,177.53a26.61,26.61,0,0,0,.43-15.16l-1.05-.39c-1.3-.41-2.67-.78-4.08-1.11C317.23,165.33,320.5,171.34,319.19,177.53Z" transform="translate(-10.5 -9)"/><path class="cls-23" d="M292.66,159.77c5.32,4.94,12.8,12.44,12.49,21,0,0,3.36-10.06-6.29-21.46Q295.68,159.42,292.66,159.77Z" transform="translate(-10.5 -9)"/><path class="cls-23" d="M294.21,184.22s-2.46-12-14.61-21.35A39.48,39.48,0,0,0,276,164.5C282,168.75,292.1,176.35,294.21,184.22Z" transform="translate(-10.5 -9)"/></g><path class="cls-24" d="M319.19,177.53a19.21,19.21,0,0,0,2-14.63,47.9,47.9,0,0,0-5.23-1.67C318.69,165.7,320.52,171.25,319.19,177.53Z" transform="translate(-10.5 -9)"/><path class="cls-24" d="M294.06,159.64c5.32,4.92,11.4,12.49,11.09,21.18,0,0,4.91-10.07-4.76-21.48h0Q297.13,159.34,294.06,159.64Z" transform="translate(-10.5 -9)"/><path class="cls-24" d="M294.21,183.92s-1-12-13.56-21.43a39.71,39.71,0,0,0-3.78,1.56C282.79,168.2,292,175.77,294.21,183.92Z" transform="translate(-10.5 -9)"/><path class="cls-25" d="M302,157c-5.06-2.35-4.73-7.93-1.19-12.72s-2-10-2-10,6.87,2.3,5.3,9c-.47,2-3.64,4.71-3.64,7.28A12.3,12.3,0,0,0,302,157Z" transform="translate(-10.5 -9)"/><path class="cls-25" d="M311.94,157c-3.81-1.77-3.57-6-.89-9.6s-1.49-7.57-1.49-7.57,5.19,1.74,4,6.81c-.36,1.54-2.75,3.55-2.75,5.5A9.28,9.28,0,0,0,311.94,157Z" transform="translate(-10.5 -9)"/><path class="cls-25" d="M291.72,157c-3.82-1.77-3.57-6-.9-9.6s-1.49-7.57-1.49-7.57,5.19,1.74,4,6.81c-.36,1.54-2.76,3.55-2.76,5.5A9.22,9.22,0,0,0,291.72,157Z" transform="translate(-10.5 -9)"/></g><polygon class="cls-18" points="74.11 303.98 123.64 324.55 123.64 303.98 74.11 303.98"/><polygon class="cls-18" points="332.69 303.98 283.16 324.55 283.16 303.98 332.69 303.98"/><polygon class="cls-26" points="123.64 324.55 85.6 343.46 85.6 308.75 123.64 324.55"/><polygon class="cls-26" points="283.16 324.55 321.2 343.46 321.2 308.75 283.16 324.55"/><polygon class="cls-18" points="104.62 334 104.62 355.5 85.6 343.46 104.62 334"/><polygon class="cls-18" points="302.18 334 302.18 355.5 321.2 343.46 302.18 334"/><polygon class="cls-26" points="63.51 245.24 343.29 245.24 332.69 303.98 74.11 303.98 63.51 245.24"/><circle class="cls-27" cx="203.5" cy="203.5" r="198.5"/></svg>