<svg id="圖層_1" data-name="圖層 1" xmlns="http://www.w3.org/2000/svg" xmlns:xlink="http://www.w3.org/1999/xlink" viewBox="0 0 407 407"><defs><style>.cls-1,.cls-3{fill:none;}.cls-2{fill:#342b29;opacity:0.8;}.cls-2,.cls-3{stroke:#342b29;}.cls-10,.cls-14,.cls-15,.cls-17,.cls-19,.cls-2,.cls-3,.cls-6,.cls-7,.cls-8{stroke-miterlimit:10;}.cls-3{stroke-width:10px;}.cls-4{clip-path:url(#clip-path);}.cls-5{fill:#dcdddd;}.cls-6{fill:#efefef;}.cls-14,.cls-6{stroke:#9fa0a0;}.cls-14,.cls-19,.cls-6,.cls-7,.cls-8{stroke-width:2px;}.cls-7{fill:#f8c080;stroke:#f5a65f;}.cls-17,.cls-20,.cls-8{fill:#898989;}.cls-17,.cls-8{stroke:#595757;}.cls-9{fill:#40220f;}.cls-10,.cls-15{fill:#6a3906;stroke:#40220f;}.cls-11{fill:#7f4f21;}.cls-12{fill:#f7f8f8;}.cls-13,.cls-14{fill:#9fa0a0;}.cls-15,.cls-17{stroke-width:0.75px;}.cls-16{fill:#956134;}.cls-18{fill:#727171;}.cls-19{fill:#3e3a39;stroke:#3e3a39;}.cls-21{fill:#fff;}</style><clipPath id="clip-path" transform="translate(-10.5 -10)"><ellipse class="cls-1" cx="223.18" cy="146.26" rx="129.97" ry="130.76"/></clipPath></defs><title>alertCircleError</title><circle class="cls-2" cx="203.5" cy="203.5" r="198.5"/><circle class="cls-3" cx="203.5" cy="203.5" r="198.5"/><g class="cls-4"><path class="cls-5" d="M171.6,314.81c0-3.11,19.59-5.63,43.76-5.63s43.75,2.52,43.75,5.63-19.59,5.62-43.75,5.62S171.6,317.91,171.6,314.81Z" transform="translate(-10.5 -10)"/><path class="cls-6" d="M167.61,223.2s-18.93,9.4-5.27,40.46Z" transform="translate(-10.5 -10)"/><path class="cls-7" d="M263.85,166a8.23,8.23,0,0,0-8.2-8.25,8.11,8.11,0,0,0-2.05.27l-.67-12.2a8.27,8.27,0,0,0-.44-2.65v0c0-6.56-17.76-11.88-39.67-11.88s-39.67,5.32-39.67,11.88h0a8.13,8.13,0,0,0-.45,2.67l-.8,12.24a7.94,7.94,0,0,0-2.19-.31,8.25,8.25,0,0,0,0,16.5,8.5,8.5,0,0,0,1.14-.08l-.22,33.88a8,8,0,0,0,.22,1.85,3.53,3.53,0,0,0-.22,1.19c0,6.56,17.64,11.88,41.85,11.88s41.85-5.32,41.85-11.88a3.53,3.53,0,0,0-.22-1.19,8,8,0,0,0,.22-1.85l.14-33.89a7.72,7.72,0,0,0,1.18.09A8.22,8.22,0,0,0,263.85,166Z" transform="translate(-10.5 -10)"/><path class="cls-7" d="M288.68,210.68s24.51-1.59,27.57-14.35h-31.5S279.88,208.94,288.68,210.68Z" transform="translate(-10.5 -10)"/><path class="cls-6" d="M249,221.74l2.48,23.8s37.61-.95,43.93-30.79L280.59,209S276.51,226.18,249,221.74Z" transform="translate(-10.5 -10)"/><polygon class="cls-8" points="216.29 301.28 205.83 301.28 205.83 264.5 220.84 264.5 216.29 301.28"/><polygon class="cls-8" points="191.06 301.28 201.75 301.28 201.75 264.5 186.4 264.5 191.06 301.28"/><path class="cls-6" d="M167.61,223.2l-6.35,48.73a7.9,7.9,0,0,0,.46,2.63h0c0,6.52,27.9,11.8,50.25,11.8s51.65-5.28,51.65-11.8h0a8,8,0,0,0,.46-2.64L257,223.2a8,8,0,0,0-.22-1.84,3.47,3.47,0,0,0,.22-1.18c0-6.51-20-1.5-44.7-1.5s-44.71-5-44.71,1.5a3.47,3.47,0,0,0,.22,1.18A8,8,0,0,0,167.61,223.2Z" transform="translate(-10.5 -10)"/><path class="cls-9" d="M222.25,161.59a17,17,0,0,0,.11,3.9c.31,2.46,1.08,5.13,3.07,6.78a7.3,7.3,0,0,0,8.34.59c2.25-1.49,3.11-4.09,3.41-6.65a18.76,18.76,0,0,0-.13-5,1.53,1.53,0,0,0-1.85-1.05,1.55,1.55,0,0,0-1,1.85c.07.38,0-.31,0-.1s.06.5.08.75a21.9,21.9,0,0,1,.05,2.43c0,.25,0,.5-.05.75s0,.23,0,.34c0,.35,0-.3,0,.13a10.83,10.83,0,0,1-.33,1.5c-.07.24-.16.47-.24.71s.13-.26,0,.05l-.2.39c-.11.21-.25.41-.38.62s.15-.15,0,0l-.29.31-.25.24c-.29.26.12-.06-.09.06s-.45.27-.7.4c.3-.15,0,0-.13,0l-.37.11-.39.08c-.27.06,0,0,0,0l-.31,0a7.69,7.69,0,0,1-1,0l-.25,0c.06,0,.31.06,0,0l-.45-.1c-.15,0-.29-.08-.43-.12l-.2-.08.11.05a5.13,5.13,0,0,1-.72-.41l-.17-.12c-.16-.11.22.19.07.05l-.26-.23a5,5,0,0,1-.53-.59c.26.32,0,0-.06-.1l-.19-.29c-.15-.25-.27-.5-.4-.76A.84.84,0,0,0,226,168c-.09-.18.1.27,0,.08l-.13-.33c-.09-.26-.17-.51-.24-.77-.14-.52-.24-1-.33-1.56-.06-.38,0,.14,0-.07s0-.28-.05-.41l-.06-.75c0-.44,0-.89,0-1.33s0-.85.06-1.27a1.51,1.51,0,0,0-1.5-1.5,1.53,1.53,0,0,0-1.5,1.5Z" transform="translate(-10.5 -10)"/><path class="cls-9" d="M188.5,161.59a18.16,18.16,0,0,0,.11,3.9c.32,2.46,1.09,5.13,3.07,6.78a7.32,7.32,0,0,0,8.35.59c2.25-1.49,3.11-4.09,3.4-6.65a18.35,18.35,0,0,0-.12-5,1.53,1.53,0,0,0-1.85-1.05,1.55,1.55,0,0,0-1.05,1.85c.06.38,0-.31,0-.1s.06.5.08.75a21.9,21.9,0,0,1,.05,2.43c0,.25,0,.5-.06.75l0,.34c0,.35.05-.3,0,.13a10.83,10.83,0,0,1-.33,1.5c-.07.24-.16.47-.24.71s.13-.26,0,.05l-.2.39c-.11.21-.25.41-.38.62s.15-.15,0,0-.19.21-.3.31l-.24.24c-.29.26.12-.06-.09.06l-.7.4c.3-.15,0,0-.13,0l-.37.11-.39.08c-.27.06,0,0,0,0l-.31,0a7.85,7.85,0,0,1-1,0l-.24,0s.31.06,0,0l-.46-.1-.42-.12-.21-.08.12.05a5.13,5.13,0,0,1-.72-.41l-.17-.12c-.16-.11.21.19.07.05l-.26-.23a5,5,0,0,1-.54-.59c.26.32,0,0-.06-.1l-.18-.29c-.15-.25-.27-.5-.4-.76l-.06-.14c-.09-.18.09.27,0,.08s-.08-.22-.12-.33-.17-.51-.24-.77a14,14,0,0,1-.33-1.56c-.07-.38,0,.14,0-.07s0-.28,0-.41-.05-.5-.06-.75c0-.44,0-.89,0-1.33s0-.85.05-1.27a1.5,1.5,0,0,0-1.5-1.5,1.54,1.54,0,0,0-1.5,1.5Z" transform="translate(-10.5 -10)"/><path class="cls-10" d="M244.22,177.13c3.91,3.64-3.51,12.94-11.12,6.59s-13.18-3.15-13.18-3.15h-.31a8.67,8.67,0,0,1-6.52,3.3,7.89,7.89,0,0,1-6.25-3.3h-.12s-5.56-3.19-13.15,3.15-15-2.95-11.09-6.59c0,0-6.62,6.5-3.89,13.46s21.57,17.06,34.72-3.15c13.19,20.21,32.08,10.1,34.82,3.15S244.22,177.13,244.22,177.13Z" transform="translate(-10.5 -10)"/><path class="cls-9" d="M261.29,164.69a2.15,2.15,0,0,0-1-.6,4.81,4.81,0,0,0-3.18.44,13.18,13.18,0,0,0-2.87,1.8c-.35.27.1.76.46.58.11,0-.08,0,.06,0a2.29,2.29,0,0,1,.37-.12,3,3,0,0,1,1.16-.08c1.49.21,2.31,1.63,2.74,2.94.15.46.88.26.73-.2a5.05,5.05,0,0,0-2.45-3.21,3.66,3.66,0,0,0-2.44-.16,3.29,3.29,0,0,0-.55.21l.45.59a9.24,9.24,0,0,1,4.13-2.1,2.83,2.83,0,0,1,1.09,0l.2.06a.34.34,0,0,1,.13.05,1.56,1.56,0,0,1,.28.16l.07,0s-.06,0,0,0l.08.07.06.06c.3.38.83-.15.53-.53Z" transform="translate(-10.5 -10)"/><path class="cls-9" d="M164.59,165.22l0,0c0-.05.17-.15.08-.08l.25-.16a1.25,1.25,0,0,1,.31-.12,4.08,4.08,0,0,1,2.66.37,13.06,13.06,0,0,1,2.68,1.67l.46-.59a3.59,3.59,0,0,0-4.15.78,6.44,6.44,0,0,0-1.3,2.38c-.16.46.57.66.72.2.44-1.31,1.26-2.73,2.75-2.94a2.93,2.93,0,0,1,1.15.08,2.4,2.4,0,0,1,.38.12c.15.05,0,0,.07,0,.35.18.81-.31.45-.58a10,10,0,0,0-4.49-2.3,3.21,3.21,0,0,0-2.25.37,1.93,1.93,0,0,0-.35.29c-.3.38.23.91.53.53Z" transform="translate(-10.5 -10)"/><path class="cls-11" d="M214.12,184.14s6.9,14,18.92,13.39,14.76-8.72,13-14.56c0,0,.62,11.88-9.22,10s-2.73-12.23-17.34-13C219.45,180,218,184.07,214.12,184.14Z" transform="translate(-10.5 -10)"/><path class="cls-11" d="M212.48,184.14s-7.67,14-19.71,13.39-14.8-8.72-13-14.56c0,0-.62,11.88,9.23,10s2.74-12.23,17.38-13C206.38,180,208.58,184.07,212.48,184.14Z" transform="translate(-10.5 -10)"/><path class="cls-9" d="M220.15,173.46a7.53,7.53,0,0,0-7.27-4.06,7,7,0,0,1,6,3.81,7.12,7.12,0,0,1-3,9.57,7,7,0,0,1-9.3-2.65c0,.12.1.23.16.35A7.52,7.52,0,0,0,217,183.7,7.61,7.61,0,0,0,220.15,173.46Z" transform="translate(-10.5 -10)"/><path class="cls-10" d="M227.06,141s10,15.29,27,16.37l-.67-11.19S237.21,132.92,227.06,141Z" transform="translate(-10.5 -10)"/><path class="cls-11" d="M230.32,140.62s8.18,13.22,21.84,14.59v-3.5S241.6,150.35,230.32,140.62Z" transform="translate(-10.5 -10)"/><path class="cls-11" d="M230.32,135.22s8.18,13.21,21.84,14.58v-3.5S241.6,145,230.32,135.22Z" transform="translate(-10.5 -10)"/><path class="cls-10" d="M199,141s-10.13,15.29-27.39,16.37l.68-11.19S188.67,132.92,199,141Z" transform="translate(-10.5 -10)"/><path class="cls-11" d="M195.66,140.62s-8.31,13.22-22.16,14.59v-3.5S184.22,150.35,195.66,140.62Z" transform="translate(-10.5 -10)"/><path class="cls-11" d="M195.66,135.22s-8.31,13.21-22.16,14.58v-3.5S184.22,145,195.66,135.22Z" transform="translate(-10.5 -10)"/><path class="cls-6" d="M272.51,78.69A23.63,23.63,0,0,0,249,55,23.2,23.2,0,0,0,240,56.77c.05-.59.08-1.18.08-1.78a18.22,18.22,0,0,0-35.19-6.74,19.65,19.65,0,0,0-36,11.06,20,20,0,0,0,.2,2.8,23.38,23.38,0,0,0-7.83-1.35,23.73,23.73,0,0,0-11.17,44.58,23.45,23.45,0,0,0,25.3-1.93l-2.92,16.44H253l-4.06-17.46h0A23.63,23.63,0,0,0,272.51,78.69Z" transform="translate(-10.5 -10)"/><path class="cls-12" d="M249.07,56.35a23.38,23.38,0,0,0-8.95,1.77c0-.58.09-1.17.09-1.77A18.22,18.22,0,0,0,205,49.61a19.65,19.65,0,0,0-36,11.06,21.58,21.58,0,0,0,.2,2.8,23.43,23.43,0,0,0-23.44,4.6,23.48,23.48,0,0,0,30.35,12,17.39,17.39,0,0,0-.09,1.78,18.22,18.22,0,0,0,35.19,6.74,19.66,19.66,0,0,0,36-11.07,18.32,18.32,0,0,0-.21-2.79,23.42,23.42,0,0,0,7.83,1.35c6,0,10.43-1.4,14.59-5.1C265.7,62.85,258.56,56.35,249.07,56.35Z" transform="translate(-10.5 -10)"/><path class="cls-13" d="M240.35,59.28a17.53,17.53,0,0,1-.09,1.78,37.83,37.83,0,0,1,11.42-2.12A23.42,23.42,0,0,1,269.4,67,23.54,23.54,0,0,0,249,55.09a43.45,43.45,0,0,0-8.74,1.26A18.93,18.93,0,0,1,240.35,59.28Z" transform="translate(-10.5 -10)"/><path class="cls-13" d="M140.45,88.41A23.63,23.63,0,0,1,164,64.71a23.38,23.38,0,0,1,7.83,1.35,20,20,0,0,1-.2-2.8,19.73,19.73,0,0,1,19.67-19.79c6.79,0,11.94,4.12,15.47,9.38,2.67-6.79,10.1-12.25,17.8-12.25a18.11,18.11,0,0,1,13.36,5.86,18.19,18.19,0,0,0-33.05,1.89,19.69,19.69,0,0,0-35.78,13.86,23.38,23.38,0,0,0-7.83-1.35,23.73,23.73,0,0,0-17.72,39.32A23.76,23.76,0,0,1,140.45,88.41Z" transform="translate(-10.5 -10)"/><path class="cls-14" d="M253,122.39c-40.25-13-80.5,0-80.5,0v23.09s40.25-13,80.5,0Z" transform="translate(-10.5 -10)"/><path class="cls-14" d="M253,119.85c-40.25-13-80.5,0-80.5,0v23.09s40.25-13,80.5,0Z" transform="translate(-10.5 -10)"/><path class="cls-6" d="M253,122c-40.25-13-80.5,0-80.5,0v20.52s40.25-13,80.5,0Z" transform="translate(-10.5 -10)"/><path class="cls-15" d="M244.75,165.37s-3.5-14.68-17.64-17.36c0,0,9.1-6.45,17.2.36a4.68,4.68,0,0,0-3.39-.15s7,3.46,9.37,7.74a11.08,11.08,0,0,0-5.55-2.1s5.42,4.54,5.91,9.38c0,0-1.53-2.47-3.6-2.39a11.19,11.19,0,0,1-1.36,9A17.28,17.28,0,0,0,244.75,165.37Z" transform="translate(-10.5 -10)"/><path class="cls-16" d="M229.31,147.53a14.58,14.58,0,0,1,11.17-.4s-3-.78-4.54,1.07c0,0,4.32-.18,10,4.45,0,0-3.07-.76-4.55-.05,0,0,5.21,3,7.18,7.61C248.56,160.21,238.5,149.6,229.31,147.53Z" transform="translate(-10.5 -10)"/><path class="cls-15" d="M181.82,165.17s4.35-14.59,18.81-16.7c0,0-8.85-6.84-17.43-.34a4.84,4.84,0,0,1,3.44,0s-7.28,3.18-9.91,7.38a11.36,11.36,0,0,1,5.74-1.87s-5.75,4.32-6.5,9.16c0,0,1.68-2.42,3.77-2.25a11.14,11.14,0,0,0,.88,9A17.69,17.69,0,0,1,181.82,165.17Z" transform="translate(-10.5 -10)"/><path class="cls-16" d="M197.54,148.38a14.62,14.62,0,0,0-11.18-.92s3.06-.64,4.5,1.28c0,0-4.32-.38-10.22,4,0,0,3.11-.62,4.56.15,0,0-5.37,2.73-7.57,7.28C177.63,160.16,188.23,150,197.54,148.38Z" transform="translate(-10.5 -10)"/><path class="cls-17" d="M256.31,201.54s-24.79,13.34-38,12.77l19,10.78s14.48,1,20.4-6.31Z" transform="translate(-10.5 -10)"/><path class="cls-17" d="M169,201.54s25.22,13.34,37.65,12.77l-24.23,11.77s-9.19,0-14.77-7.3Z" transform="translate(-10.5 -10)"/><path class="cls-18" d="M228.79,247.9a4.91,4.91,0,1,1-4.85-5A4.92,4.92,0,0,1,228.79,247.9Z" transform="translate(-10.5 -10)"/><path class="cls-18" d="M209.51,247.62a4.91,4.91,0,1,1-4.84-5A4.93,4.93,0,0,1,209.51,247.62Z" transform="translate(-10.5 -10)"/><path class="cls-18" d="M228.55,264.3a4.91,4.91,0,1,1-4.84-5A4.93,4.93,0,0,1,228.55,264.3Z" transform="translate(-10.5 -10)"/><path class="cls-18" d="M209.28,264a4.91,4.91,0,1,1-4.84-5A4.93,4.93,0,0,1,209.28,264Z" transform="translate(-10.5 -10)"/><path class="cls-17" d="M241.19,212.5c3.62,3.17-3.26,11.3-10.33,5.76s-12.24-2.76-12.24-2.76h-.28a8.19,8.19,0,0,1-6.06,2.88,7.44,7.44,0,0,1-5.8-2.88h-.11s-5.16-2.78-12.2,2.76-13.91-2.59-10.3-5.76c0,0-6.14,5.68-3.61,11.76s20,14.91,32.23-2.76c12.24,17.67,29.78,8.84,32.32,2.76S241.19,212.5,241.19,212.5Z" transform="translate(-10.5 -10)"/><path class="cls-18" d="M213.25,218.62s6.4,12.25,17.55,11.71,13.71-7.63,12-12.73c0,0,.57,10.38-8.56,8.76s-2.54-10.69-16.1-11.35C218.19,215,216.86,218.56,213.25,218.62Z" transform="translate(-10.5 -10)"/><path class="cls-18" d="M211.72,218.62s-7.13,12.25-18.3,11.71-13.73-7.63-12.07-12.73c0,0-.57,10.38,8.58,8.76s2.54-10.69,16.13-11.35C206.06,215,208.1,218.56,211.72,218.62Z" transform="translate(-10.5 -10)"/><path class="cls-17" d="M205.75,216.36a6.79,6.79,0,1,1,6.78,6.83A6.8,6.8,0,0,1,205.75,216.36Z" transform="translate(-10.5 -10)"/><path class="cls-18" d="M209.17,218a4.26,4.26,0,1,1,4.24,3.89A4.08,4.08,0,0,1,209.17,218Z" transform="translate(-10.5 -10)"/><path class="cls-19" d="M216.33,314.81h24.91s-8.85-11.62-24.91-5Z" transform="translate(-10.5 -10)"/><path class="cls-19" d="M212.31,314.81h-25.2s8.94-11.62,25.2-5Z" transform="translate(-10.5 -10)"/><polygon class="cls-6" points="287.19 208.38 266.57 200.98 270.18 190.82 290.8 198.23 287.19 208.38"/><path class="cls-6" d="M340.55,194.85a4.17,4.17,0,0,1-4.16,4.18H263.27a4.17,4.17,0,0,1-4.16-4.18h0a4.18,4.18,0,0,1,4.16-4.19h73.12a4.18,4.18,0,0,1,4.16,4.19Z" transform="translate(-10.5 -10)"/></g><polygon class="cls-18" points="74.89 303.98 124.12 324.55 124.12 303.98 74.89 303.98"/><polygon class="cls-18" points="331.91 303.98 282.68 324.55 282.68 303.98 331.91 303.98"/><polygon class="cls-20" points="124.12 324.55 86.31 343.46 86.31 308.75 124.12 324.55"/><polygon class="cls-20" points="282.68 324.55 320.49 343.46 320.49 308.75 282.68 324.55"/><polygon class="cls-18" points="105.22 334 105.22 355.5 86.31 343.46 105.22 334"/><polygon class="cls-18" points="301.59 334 301.59 355.5 320.49 343.46 301.59 334"/><polygon class="cls-20" points="64.35 245.24 342.45 245.24 331.91 303.98 74.89 303.98 64.35 245.24"/><path class="cls-21" d="M313.78,151.88l-.59,2-.55,1.08-.25.87-.7.77-.56.68-.77.47-.67.68-.77.37-.56.21-.64.44-1,.55-.86.59-1,.74L304,162l-.74.44-.58.59-.19,1-.24,1.14.18,1v1.86l.06.86-.06.72-.24.68-.59.12-.49-.37-.18-.62v-1l-.25-1.21V166.2l-.34-1.14-.12-1.15.12-.86.4-1,.49-.65.77-.87.74-.71,1.14-.62.95-.83.55-.68.65-.41.55-.06.31-.18,1-.5.77-.77,1.57-1.46.43-.95.34-1.12-.22-1.61-.18-1.14-.31-.93-.24-1.08-.37-.9-.77-.49-.83-.25-1.2-.19-1.23.13-1,.25-1,.68-.89.95-.61.9-.31,1.08-.52.81-.56.9-.89.43-.89.25-1,.27H297l-.89-.46-.56-.49-.3-.78-.1-.86.16-.65.31-.75.86-.83.83-.5.77-.46,1.19-1,.62-.86.83-.9,1.2-.74,1.1-.47,1-.24.64-.25.8-.19h.89l1.08-.12,1.26.31.8.31,1.2.65.83.68.43.65.58.92.19,1,.31,1,.18,1.08.18.93.13.9.34.74ZM306,177l-.06.52-.53.43-.55.44-.49.28-.22.43-.24.55-.37.65-1,.87h-.73l-.71-.18-.43-.25-.34-.9.09-.31-.46-.43-.49-.13-.52-.3-.25-.47.19-.56.27-.46.62-.62-.31-.43v-.65l.31-.43.64-.47h.74l.83.28h.8l.58.19.5.18.58.25.25.59h.61l.65.24Zm-3.29-3.81-.49.28-.37-.34.31-.25h.36Z" transform="translate(-10.5 -10)"/></svg>