<svg id="圖層_1" data-name="圖層 1" xmlns="http://www.w3.org/2000/svg" xmlns:xlink="http://www.w3.org/1999/xlink" viewBox="0 0 279.78 329.85"><defs><style>.cls-1{fill:none;}.cls-2{clip-path:url(#clip-path);}.cls-3{fill:#dcdddd;}.cls-4{fill:#efefef;}.cls-12,.cls-4{stroke:#9fa0a0;}.cls-12,.cls-13,.cls-15,.cls-17,.cls-4,.cls-5,.cls-6,.cls-8{stroke-miterlimit:10;}.cls-12,.cls-17,.cls-4,.cls-5,.cls-6{stroke-width:2px;}.cls-5{fill:#f8c080;stroke:#f5a65f;}.cls-15,.cls-18,.cls-6{fill:#898989;}.cls-15,.cls-6{stroke:#595757;}.cls-7{fill:#40220f;}.cls-13,.cls-8{fill:#6a3906;stroke:#40220f;}.cls-9{fill:#7f4f21;}.cls-10{fill:#f7f8f8;}.cls-11,.cls-12{fill:#9fa0a0;}.cls-13,.cls-15{stroke-width:0.75px;}.cls-14{fill:#956134;}.cls-16{fill:#727171;}.cls-17{fill:#3e3a39;stroke:#3e3a39;}.cls-19{font-size:63.34px;fill:#fff;font-family:Chiller-Regular, Chiller;}</style><clipPath id="clip-path" transform="translate(-25.01 -20.14)"><circle class="cls-1" cx="174.24" cy="130.76" r="130.76" transform="translate(32.15 295.88) rotate(-86.17)"/></clipPath></defs><title>alertError</title><g class="cls-2"><path class="cls-3" d="M122.35,299.31c0-3.11,19.7-5.63,44-5.63s44,2.52,44,5.63-19.71,5.62-44,5.62S122.35,302.41,122.35,299.31Z" transform="translate(-25.01 -20.14)"/><path class="cls-4" d="M118.33,207.7s-19,9.4-5.3,40.46Z" transform="translate(-25.01 -20.14)"/><path class="cls-5" d="M215.15,150.51a8.22,8.22,0,0,0-10.31-8l-.67-12.21a8,8,0,0,0-.45-2.65h0c0-6.56-17.87-11.88-39.91-11.88s-39.91,5.32-39.91,11.88h0a8.07,8.07,0,0,0-.45,2.66l-.8,12.24a8.42,8.42,0,0,0-2.21-.3,8.25,8.25,0,1,0,0,16.5,7.33,7.33,0,0,0,1.15-.09l-.22,33.88a8.16,8.16,0,0,0,.22,1.86,3.48,3.48,0,0,0-.22,1.19c0,6.56,17.74,11.88,42.1,11.88s42.1-5.32,42.1-11.88a3.48,3.48,0,0,0-.22-1.19,8.16,8.16,0,0,0,.22-1.86l.15-33.88a9.23,9.23,0,0,0,1.18.09A8.25,8.25,0,0,0,215.15,150.51Z" transform="translate(-25.01 -20.14)"/><path class="cls-5" d="M240.14,195.17s24.65-1.58,27.73-14.35h-31.7S231.28,193.44,240.14,195.17Z" transform="translate(-25.01 -20.14)"/><path class="cls-4" d="M200.22,206.24l2.49,23.8s37.85-.95,44.2-30.79L232,193.54S227.89,210.67,200.22,206.24Z" transform="translate(-25.01 -20.14)"/><polygon class="cls-6" points="152.86 275.64 142.34 275.64 142.34 238.85 157.44 238.85 152.86 275.64"/><polygon class="cls-6" points="127.48 275.64 138.24 275.64 138.24 238.85 122.79 238.85 127.48 275.64"/><path class="cls-4" d="M118.33,207.7,112,256.43a7.94,7.94,0,0,0,.45,2.63h0c0,6.51,28.07,11.79,50.56,11.79s52-5.28,52-11.79h0a7.76,7.76,0,0,0,.47-2.64l-7.11-48.73a7.92,7.92,0,0,0-.22-1.84,3.47,3.47,0,0,0,.22-1.18c0-6.51-20.14-1.5-45-1.5s-45-5-45,1.5a3.47,3.47,0,0,0,.22,1.18A7.92,7.92,0,0,0,118.33,207.7Z" transform="translate(-25.01 -20.14)"/><path class="cls-7" d="M173.31,146.09a17.45,17.45,0,0,0,.1,3.89c.32,2.46,1.1,5.12,3.08,6.77a7.34,7.34,0,0,0,8.41.59c2.25-1.49,3.11-4.08,3.41-6.64a18.69,18.69,0,0,0-.13-5,1.52,1.52,0,0,0-1.85-1.05,1.54,1.54,0,0,0-1.05,1.85c.07.37,0-.31,0-.1s.06.5.08.76a18.22,18.22,0,0,1,.05,2.45c0,.24,0,.48-.05.71s0,.23,0,.34c0,.41,0-.19,0,.14a11.31,11.31,0,0,1-.33,1.51c-.07.22-.15.44-.23.66s.12-.24,0,.1l-.18.35c-.11.21-.25.42-.38.62s.18-.19-.07.08c-.09.11-.19.22-.29.32l-.26.23c-.24.22.18-.09,0,0l-.7.4c.35-.18,0,0-.14,0l-.38.11-.39.09h0l-.31,0a8,8,0,0,1-1,0l-.25,0c.05,0,.3.07,0,0l-.45-.1-.44-.13-.15-.06c-.2-.06.24.12.06,0a6.51,6.51,0,0,1-.73-.41c-.15-.1-.27-.23-.06,0l-.3-.27a6,6,0,0,1-.54-.59c.18.22.06.06,0-.07a4,4,0,0,1-.22-.34c-.14-.23-.25-.47-.37-.71s.06.18,0-.07l-.15-.38c-.09-.25-.17-.51-.24-.77-.13-.49-.23-1-.31-1.47l0-.19c-.06-.33,0,.26,0,.07s0-.28-.05-.42,0-.5-.06-.75c0-.44,0-.89,0-1.33s0-.84.06-1.25a1.51,1.51,0,0,0-1.5-1.5,1.53,1.53,0,0,0-1.5,1.5Z" transform="translate(-25.01 -20.14)"/><path class="cls-7" d="M139.36,146.09a16.87,16.87,0,0,0,.11,3.89c.32,2.46,1.09,5.12,3.07,6.77a7.34,7.34,0,0,0,8.41.59c2.25-1.49,3.11-4.08,3.41-6.64a17.9,17.9,0,0,0-.13-5,1.51,1.51,0,0,0-1.84-1.05,1.54,1.54,0,0,0-1,1.85c.06.37,0-.31,0-.1s0,.5.08.76a20,20,0,0,1,0,2.45c0,.24,0,.48,0,.71l0,.34c-.05.41,0-.19,0,.14a13.16,13.16,0,0,1-.34,1.51c-.06.22-.15.44-.22.66s.12-.24,0,.1l-.17.35c-.12.21-.25.42-.39.62s.18-.19-.06.08c-.1.11-.19.22-.3.32l-.25.23c-.25.22.17-.09,0,0s-.46.27-.71.4c.36-.18,0,0-.14,0l-.37.11c-.13,0-.27.05-.4.09h0l-.31,0a8,8,0,0,1-1,0l-.25,0h0l-.46-.1-.43-.13-.16-.06c-.2-.06.25.12.06,0a6.37,6.37,0,0,1-.72-.41c-.15-.1-.28-.23-.07,0l-.3-.27a7.55,7.55,0,0,1-.54-.59c.19.22.06.06,0-.07a4,4,0,0,1-.22-.34c-.13-.23-.25-.47-.37-.71s.06.18,0-.07l-.15-.38c-.09-.25-.17-.51-.24-.77-.13-.49-.23-1-.31-1.47l0-.19c-.05-.33,0,.26,0,.07s0-.28,0-.42l-.06-.75c0-.44,0-.89,0-1.33s0-.84.05-1.25a1.51,1.51,0,0,0-1.5-1.5,1.53,1.53,0,0,0-1.5,1.5Z" transform="translate(-25.01 -20.14)"/><path class="cls-8" d="M195.4,161.63c3.93,3.64-3.53,12.93-11.18,6.59S171,165.06,171,165.06h-.31a8.68,8.68,0,0,1-6.56,3.3,8,8,0,0,1-6.29-3.3h-.12s-5.59-3.18-13.22,3.16-15.08-2.95-11.16-6.59c0,0-6.66,6.5-3.92,13.46s21.7,17.06,34.93-3.15c13.27,20.21,32.28,10.1,35,3.15S195.4,161.63,195.4,161.63Z" transform="translate(-25.01 -20.14)"/><path class="cls-7" d="M212.57,149.19a2.07,2.07,0,0,0-1-.6,4.8,4.8,0,0,0-3.2.43,14.06,14.06,0,0,0-2.88,1.8c-.36.28.09.76.45.59.11,0-.08,0,.07,0l.37-.11a2.91,2.91,0,0,1,1.14-.08c1.52.19,2.35,1.62,2.79,2.94.15.46.87.26.72-.2a5,5,0,0,0-2.48-3.22,3.66,3.66,0,0,0-2.44-.15,3.62,3.62,0,0,0-.55.2l.46.59a9.36,9.36,0,0,1,4.15-2.1,3.09,3.09,0,0,1,1.1,0,1.51,1.51,0,0,1,.61.26l.07,0c.05,0-.07-.06,0,0a.27.27,0,0,1,.08.07l.06.06c.3.38.83-.16.53-.53Z" transform="translate(-25.01 -20.14)"/><path class="cls-7" d="M115.29,149.72l0-.05.06,0c.07-.08,0,0,0,0s.17-.11.26-.15a.2.2,0,0,1,.08,0c.07,0-.05,0,0,0l.22-.08a4.21,4.21,0,0,1,2.74.41,13.74,13.74,0,0,1,2.7,1.69l.38-.65a3.64,3.64,0,0,0-4.19.81,6.19,6.19,0,0,0-1.29,2.36c-.16.46.57.66.72.2.44-1.32,1.28-2.75,2.79-2.94a2.88,2.88,0,0,1,1.14.08l.38.11.07,0a.38.38,0,0,0,.38-.65,10.07,10.07,0,0,0-4.5-2.24,3.15,3.15,0,0,0-2.21.38,1.59,1.59,0,0,0-.35.29c-.3.37.23.91.53.53Z" transform="translate(-25.01 -20.14)"/><path class="cls-9" d="M165.12,168.63s6.94,14,19,13.4,14.86-8.73,13.06-14.57c0,0,.61,11.89-9.28,10s-2.75-12.23-17.45-13C170.48,164.51,169,168.56,165.12,168.63Z" transform="translate(-25.01 -20.14)"/><path class="cls-9" d="M163.47,168.63s-7.72,14-19.83,13.4-14.88-8.73-13.08-14.57c0,0-.62,11.89,9.29,10s2.76-12.23,17.48-13C157.33,164.51,159.55,168.56,163.47,168.63Z" transform="translate(-25.01 -20.14)"/><path class="cls-7" d="M171.19,158a7.59,7.59,0,0,0-7.32-4.06,7.09,7.09,0,1,1-6.3,10.73l.15.35a7.59,7.59,0,0,0,13.47-7Z" transform="translate(-25.01 -20.14)"/><path class="cls-8" d="M178.14,125.45s10.05,15.29,27.16,16.37l-.67-11.19S188.35,117.42,178.14,125.45Z" transform="translate(-25.01 -20.14)"/><path class="cls-9" d="M181.42,125.12s8.23,13.22,22,14.59v-3.5S192.76,134.85,181.42,125.12Z" transform="translate(-25.01 -20.14)"/><path class="cls-9" d="M181.42,119.71s8.23,13.22,22,14.59v-3.5S192.76,129.44,181.42,119.71Z" transform="translate(-25.01 -20.14)"/><path class="cls-8" d="M149.87,125.45s-10.19,15.29-27.56,16.37l.69-11.19S139.52,117.42,149.87,125.45Z" transform="translate(-25.01 -20.14)"/><path class="cls-9" d="M146.55,125.12s-8.36,13.22-22.3,14.59v-3.5S135,134.85,146.55,125.12Z" transform="translate(-25.01 -20.14)"/><path class="cls-9" d="M146.55,119.71s-8.36,13.22-22.3,14.59v-3.5S135,129.44,146.55,119.71Z" transform="translate(-25.01 -20.14)"/><path class="cls-4" d="M223.86,63.19a23.71,23.71,0,0,0-32.7-21.93c.05-.58.08-1.17.08-1.77a18.34,18.34,0,0,0-35.4-6.74,19.79,19.79,0,0,0-36,13.86A23.42,23.42,0,0,0,112,45.26a23.7,23.7,0,1,0,14.22,42.65l-3,16.43h81l-4.09-17.45h0A23.7,23.7,0,0,0,223.86,63.19Z" transform="translate(-25.01 -20.14)"/><path class="cls-10" d="M200.29,40.85a23.61,23.61,0,0,0-9,1.77c.05-.58.09-1.18.09-1.77A18.35,18.35,0,0,0,156,34.11,19.78,19.78,0,0,0,120,48a23.66,23.66,0,0,0-23.58,4.61,23.73,23.73,0,0,0,30.53,12c0,.58-.09,1.17-.09,1.77a18.34,18.34,0,0,0,35.4,6.74A19.8,19.8,0,0,0,198.43,62a18.32,18.32,0,0,0-.21-2.79,23.66,23.66,0,0,0,7.88,1.34c6,0,10.49-1.39,14.67-5.09C217,47.34,209.83,40.85,200.29,40.85Z" transform="translate(-25.01 -20.14)"/><path class="cls-11" d="M191.51,43.78c0,.6,0,1.19-.09,1.78a38,38,0,0,1,11.49-2.12,23.63,23.63,0,0,1,17.82,8.08,23.68,23.68,0,0,0-20.57-11.93,43.94,43.94,0,0,0-8.79,1.26A18.87,18.87,0,0,1,191.51,43.78Z" transform="translate(-25.01 -20.14)"/><path class="cls-11" d="M91,72.91a23.73,23.73,0,0,1,31.59-22.36A19.77,19.77,0,0,1,142.17,28c6.84,0,12,4.11,15.57,9.38a20.11,20.11,0,0,1,17.9-12.26A18.31,18.31,0,0,1,189.08,31a18.34,18.34,0,0,0-33.24,1.9,19.79,19.79,0,0,0-36,13.86,23.7,23.7,0,0,0-25.7,38A23.6,23.6,0,0,1,91,72.91Z" transform="translate(-25.01 -20.14)"/><path class="cls-12" d="M204.23,106.89c-40.5-13-81,0-81,0V130s40.5-13,81,0Z" transform="translate(-25.01 -20.14)"/><path class="cls-12" d="M204.23,104.34c-40.5-13-81,0-81,0v23.09s40.5-13,81,0Z" transform="translate(-25.01 -20.14)"/><path class="cls-4" d="M204.23,106.49c-40.5-13-81,0-81,0V127s40.5-13,81,0Z" transform="translate(-25.01 -20.14)"/><path class="cls-13" d="M195.93,149.87s-3.52-14.69-17.74-17.37c0,0,9.16-6.44,17.3.37a4.77,4.77,0,0,0-3.41-.16s7,3.46,9.43,7.75a11.21,11.21,0,0,0-5.59-2.1s5.46,4.54,6,9.37c0,0-1.54-2.46-3.62-2.38a11.14,11.14,0,0,1-1.36,9A17.34,17.34,0,0,0,195.93,149.87Z" transform="translate(-25.01 -20.14)"/><path class="cls-14" d="M180.4,132a14.7,14.7,0,0,1,11.24-.4s-3-.78-4.56,1.06c0,0,4.34-.18,10,4.46,0,0-3.08-.76-4.58-.06,0,0,5.25,3,7.23,7.62C199.77,144.71,189.65,134.09,180.4,132Z" transform="translate(-25.01 -20.14)"/><path class="cls-13" d="M132.63,149.66S137,135.08,151.55,133c0,0-8.91-6.84-17.53-.34a4.86,4.86,0,0,1,3.46,0s-7.33,3.19-10,7.39a11.5,11.5,0,0,1,5.76-1.88s-5.77,4.33-6.53,9.16c0,0,1.69-2.41,3.8-2.24a11,11,0,0,0,.88,9A17.61,17.61,0,0,1,132.63,149.66Z" transform="translate(-25.01 -20.14)"/><path class="cls-14" d="M148.44,132.88a14.79,14.79,0,0,0-11.25-.92s3.09-.64,4.53,1.27c0,0-4.35-.38-10.28,4,0,0,3.12-.61,4.59.16,0,0-5.4,2.72-7.62,7.28C128.41,144.66,139.08,134.52,148.44,132.88Z" transform="translate(-25.01 -20.14)"/><path class="cls-15" d="M207.57,186s-24.94,13.34-38.21,12.77l19.13,10.79s14.57,1,20.52-6.32Z" transform="translate(-25.01 -20.14)"/><path class="cls-15" d="M119.69,186s25.37,13.34,37.88,12.77l-24.38,11.77s-9.25,0-14.86-7.3Z" transform="translate(-25.01 -20.14)"/><path class="cls-16" d="M179.88,232.4a4.94,4.94,0,1,1-4.88-5A4.95,4.95,0,0,1,179.88,232.4Z" transform="translate(-25.01 -20.14)"/><path class="cls-16" d="M160.48,232.12a4.94,4.94,0,1,1-4.86-5A4.93,4.93,0,0,1,160.48,232.12Z" transform="translate(-25.01 -20.14)"/><path class="cls-16" d="M179.64,248.8a4.94,4.94,0,1,1-4.87-5A4.94,4.94,0,0,1,179.64,248.8Z" transform="translate(-25.01 -20.14)"/><path class="cls-16" d="M160.25,248.52a4.94,4.94,0,1,1-4.87-5A4.94,4.94,0,0,1,160.25,248.52Z" transform="translate(-25.01 -20.14)"/><path class="cls-15" d="M192.35,197c3.64,3.18-3.28,11.31-10.39,5.77S169.65,200,169.65,200h-.29a8.23,8.23,0,0,1-6.09,2.88,7.49,7.49,0,0,1-5.83-2.88h-.12s-5.18-2.79-12.27,2.76-14-2.59-10.36-5.77c0,0-6.18,5.69-3.63,11.77s20.14,14.9,32.42-2.76c12.32,17.66,30,8.83,32.51,2.76S192.35,197,192.35,197Z" transform="translate(-25.01 -20.14)"/><path class="cls-16" d="M164.24,203.11s6.44,12.25,17.66,11.71,13.79-7.63,12.12-12.73c0,0,.58,10.39-8.61,8.77s-2.55-10.69-16.2-11.35C169.21,199.51,167.88,203.05,164.24,203.11Z" transform="translate(-25.01 -20.14)"/><path class="cls-16" d="M162.71,203.11s-7.17,12.25-18.42,11.71-13.81-7.63-12.13-12.73c0,0-.58,10.39,8.63,8.77s2.55-10.69,16.22-11.35C157,199.51,159.06,203.05,162.71,203.11Z" transform="translate(-25.01 -20.14)"/><path class="cls-15" d="M156.7,200.86a6.83,6.83,0,1,1,6.83,6.83A6.83,6.83,0,0,1,156.7,200.86Z" transform="translate(-25.01 -20.14)"/><path class="cls-16" d="M160.14,202.44a4.29,4.29,0,1,1,4.27,3.9A4.09,4.09,0,0,1,160.14,202.44Z" transform="translate(-25.01 -20.14)"/><path class="cls-17" d="M167.35,299.31H192.4s-8.9-11.63-25.05-5Z" transform="translate(-25.01 -20.14)"/><path class="cls-17" d="M163.3,299.31H138s9-11.63,25.35-5Z" transform="translate(-25.01 -20.14)"/><rect class="cls-4" x="235.25" y="183.09" width="10.78" height="22.03" transform="translate(-48.05 335.36) rotate(-70.36)"/><path class="cls-4" d="M292.31,179.34a4.19,4.19,0,0,1-4.18,4.19H214.57a4.19,4.19,0,0,1-4.18-4.19h0a4.18,4.18,0,0,1,4.18-4.18h73.56a4.18,4.18,0,0,1,4.18,4.18Z" transform="translate(-25.01 -20.14)"/></g><polygon class="cls-16" points="10.6 278.33 60.13 298.9 60.13 278.33 10.6 278.33"/><polygon class="cls-16" points="269.18 278.33 219.65 298.9 219.65 278.33 269.18 278.33"/><polygon class="cls-18" points="60.13 298.9 22.09 317.81 22.09 283.11 60.13 298.9"/><polygon class="cls-18" points="219.65 298.9 257.69 317.81 257.69 283.11 219.65 298.9"/><polygon class="cls-16" points="41.11 308.36 41.11 329.85 22.09 317.81 41.11 308.36"/><polygon class="cls-16" points="238.67 308.36 238.67 329.85 257.69 317.81 238.67 308.36"/><polygon class="cls-18" points="0 219.59 279.78 219.59 269.18 278.33 10.61 278.33 0 219.59"/><text class="cls-19" transform="translate(219.65 143.67)">?</text></svg>